<svg xmlns="http://www.w3.org/2000/svg" xmlns:xlink="http://www.w3.org/1999/xlink" width="98.579" height="98.578" viewBox="0 0 98.579 98.578">
  <defs>
    <clipPath id="clip-path">
      <rect id="Rectangle_401223" data-name="Rectangle 401223" width="98.579" height="98.578" transform="translate(0)" fill="#115e01"/>
    </clipPath>
    <clipPath id="clip-path-2">
      <rect id="Rectangle_401223-2" data-name="Rectangle 401223" width="88.117" height="88.116" fill="#f2ffd9"/>
    </clipPath>
  </defs>
  <g id="Group_1111703" data-name="Group 1111703" transform="translate(-318 10626.863)">
    <g id="Group_1103177" data-name="Group 1103177" transform="translate(-603.333 -11037.869)">
      <g id="Group_1099654" data-name="Group 1099654" transform="translate(921.333 411.006)">
        <g id="Group_1099652" data-name="Group 1099652" transform="translate(0 0)" clip-path="url(#clip-path)">
          <path id="Path_873521" data-name="Path 873521" d="M98.579,76.737a21.9,21.9,0,0,1-21.84,21.84H21.84A21.9,21.9,0,0,1,0,76.737V21.84A21.9,21.9,0,0,1,21.84,0h54.9a21.9,21.9,0,0,1,21.84,21.841Z" transform="translate(0)" fill="#115e01"/>
        </g>
      </g>
      <g id="Group_1099659" data-name="Group 1099659" transform="translate(926.103 416.728)">
        <g id="Group_1099652-2" data-name="Group 1099652" transform="translate(0 0)" clip-path="url(#clip-path-2)">
          <path id="Path_873521-2" data-name="Path 873521" d="M88.117,68.594A19.58,19.58,0,0,1,68.595,88.116H19.523A19.58,19.58,0,0,1,0,68.594V19.522A19.58,19.58,0,0,1,19.523,0H68.595A19.58,19.58,0,0,1,88.117,19.523Z" fill="#f2ffd9"/>
        </g>
      </g>
    </g>
    <g id="Group_1103178" data-name="Group 1103178" transform="translate(334.905 -10611.06)">
      <rect id="Rectangle_401104" data-name="Rectangle 401104" width="68" height="69" transform="translate(0.059 -0.804)" fill="none"/>
      <g id="Group_1103187" data-name="Group 1103187" transform="translate(-134.925 -291.175)">
        <path id="Path_878935" data-name="Path 878935" d="M192.685,348.668a4.14,4.14,0,0,1-1.156,1.18,2.991,2.991,0,0,1-1.359-.256,61.6,61.6,0,0,0-7.68-2.2,1.042,1.042,0,0,0-1.386.626,38.023,38.023,0,0,1-1.809,3.38c-2.048,3.251-4.466,6.128-8.17,7.613-.289.116-.587.237-.612.62a22.092,22.092,0,0,1-7,0c-.026-.383-.321-.515-.614-.618a13.289,13.289,0,0,1-4.844-3.325,29.44,29.44,0,0,1-5.524-8.411,15.484,15.484,0,0,1,1.448-2.565,7.655,7.655,0,0,0,1.047-.014,70.713,70.713,0,0,1,10.25-.911c.846,0,.8-.505.8-1.073,0-5.241-.018-10.482.012-15.723.006-.931-.348-1.207-1.238-1.2-4.426.03-8.852.042-13.278-.009-.968-.011-1.122.342-1.164,1.211-.139,2.922.463,5.769.748,8.647a5.844,5.844,0,0,1-1.623.929,1.992,1.992,0,0,1-.26-.494,39.746,39.746,0,0,1-.919-8.828c.027-1.112-.318-1.478-1.449-1.466-4.959.051-9.919.019-14.879.017q0-.928,0-1.857c5.006,0,10.013-.021,15.02.01.937.006,1.35-.261,1.3-1.255a29.64,29.64,0,0,1,.179-3.582,52.231,52.231,0,0,1,2.824-13.547c.2-.561.137-.674-.463-.8a63.135,63.135,0,0,1-7.253-2.035,10.851,10.851,0,0,0-2.835-.981,4.4,4.4,0,0,1,1.466-1.619,8.063,8.063,0,0,1,.889.219,59.179,59.179,0,0,0,8.328,2.45.9.9,0,0,0,1.175-.57c.618-1.2,1.219-2.423,1.915-3.582,2.063-3.437,4.56-6.431,8.431-7.964.259-.1.486-.251.5-.574a22.154,22.154,0,0,1,7,0c.042.438.4.52.722.661,4.382,1.952,7.116,5.461,9.122,9.657l-1.143,1.141c-.419-.029-.553-.362-.734-.664a37.347,37.347,0,0,0-2.36-3.583,13.126,13.126,0,0,0-7.19-5.182c-.876-.223-.995.045-.99.8.021,3.378.053,6.757-.016,10.133-.022,1.062.327,1.313,1.327,1.283,2.145-.062,2.147-.011,2.214,2.088l0,.007c-.893,0-1.787.007-2.68-.021-.577-.018-.846.174-.845.8q.021,7.866,0,15.732c0,.683.27.988.968.987q6.934-.017,13.868,0c.607,0,.833-.234.814-.828-.028-.893-.009-1.787-.01-2.68l2.112-.029c0,.7.051,1.4-.02,2.09-.114,1.118.318,1.474,1.444,1.462,4.957-.05,9.915-.018,14.872-.016V325.8c-4.979,0-9.958.032-14.936-.016-1.1-.01-1.483.361-1.374,1.42a22.219,22.219,0,0,1-.294,4.981,53.822,53.822,0,0,1-2.716,12.086c-.25.678-.2,1.006.64,1.2a50.871,50.871,0,0,1,7.032,2.023C191.156,347.806,192.1,347.887,192.685,348.668ZM167.95,334.79c0,2.643.026,5.287-.015,7.93-.012.805.227,1.1,1.056,1.073a45.649,45.649,0,0,1,5.892.41c1.422.142,2.836.334,4.255.492.594.066,1.182.139,1.477-.719A51.517,51.517,0,0,0,183.6,326.8c0-.757-.236-1.012-1-1.007q-6.764.042-13.528,0c-.88-.005-1.147.35-1.136,1.185C167.971,329.581,167.95,332.186,167.95,334.79Zm-1.868-19.684c0-2.527-.035-5.054.019-7.58.019-.888-.286-1.1-1.138-1.116a73.9,73.9,0,0,1-10.6-1.006c-.733-.119-.867.138-1.043.655a51.788,51.788,0,0,0-2.9,16.729c0,.951.309,1.175,1.2,1.167q6.589-.059,13.179,0c.95.008,1.317-.284,1.3-1.267C166.047,320.161,166.081,317.633,166.081,315.106Zm0-16.985c0-1.789-.007-3.578,0-5.367,0-.6-.127-.8-.823-.657a11.5,11.5,0,0,0-5.918,3.507,28.452,28.452,0,0,0-4.5,6.61c-.562,1.06-.079,1.281.736,1.369a87.6,87.6,0,0,0,9.477.767c.851,0,1.057-.313,1.036-1.1C166.05,301.544,166.081,299.832,166.081,298.121Zm1.87,53.593c0,1.71.018,3.42-.008,5.13-.011.773.189,1.079,1.026.8a13.1,13.1,0,0,0,3.368-1.556c3.124-2.157,5.1-5.229,6.8-8.526.437-.846-.281-.873-.68-.921a70.272,70.272,0,0,0-9.585-.777c-.715.011-.952.251-.937.953C167.975,348.449,167.95,350.082,167.95,351.714Zm-1.869.107c0-1.671-.026-3.343.012-5.013.016-.714-.248-.911-.946-.948-1.985-.1-3.943.239-5.917.293a30.4,30.4,0,0,0-3.44.438c-.782.112-1.335.283-.748,1.3.7,1.209,1.364,2.435,2.168,3.577,1.953,2.773,4.265,5.09,7.639,6.116.917.279,1.284.181,1.247-.866C166.039,355.086,166.081,353.453,166.081,351.82Z" transform="translate(-0.011)" fill="#65b8a4"/>
        <path id="Path_878936" data-name="Path 878936" d="M308.451,315.144,309.594,314l5.209-5.2a9.358,9.358,0,0,1,6.4-1.057c4.575,1.082,6.972,5.588,5.482,10.22-.212.66-.518,1.29-.78,1.934-2.61,2.591-5.214,5.189-7.837,7.766-.494.485-.374.84.056,1.263q1.824,1.791,3.614,3.616c.257.262.739.479.586.918-.183.523-.725.317-1.124.335-2.087.091-4.181-.1-6.262.188l-2.112.029c-3.6,0-7.209-.034-10.812.036-1.073.021-1.377-.273-1.359-1.353.071-4.223.044-8.447.053-12.671l0-.007a3.647,3.647,0,0,0,.134-.669c.03-2.015.043-4.03.068-6.045,0-.337-.1-.766.3-.922s.611.25.848.48c.832.812,1.647,1.64,2.469,2.463C306.539,317.339,306.539,317.339,308.451,315.144Z" transform="translate(-129.246 -13.576)" fill="#ffc142"/>
        <path id="Path_878937" data-name="Path 878937" d="M358.44,466.654c-.582-.781-1.529-.863-2.34-1.176a50.868,50.868,0,0,0-7.032-2.023c-.837-.192-.89-.52-.64-1.2a53.82,53.82,0,0,0,2.716-12.086,22.222,22.222,0,0,0,.294-4.981c-.109-1.059.277-1.43,1.374-1.42,4.978.048,9.958.018,14.937.016a34.391,34.391,0,0,1-6.57,19.555A28.383,28.383,0,0,1,358.44,466.654Z" transform="translate(-165.765 -117.986)" fill="#5bbfe3"/>
        <path id="Path_878938" data-name="Path 878938" d="M140.809,340.865a10.854,10.854,0,0,1,2.835.981,63.141,63.141,0,0,0,7.253,2.035c.6.129.66.242.463.8a52.232,52.232,0,0,0-2.824,13.547,29.641,29.641,0,0,0-.179,3.582c.046.994-.366,1.26-1.3,1.255-5.006-.031-10.013-.012-15.02-.01a33.68,33.68,0,0,1,4.195-15.785A25.593,25.593,0,0,1,140.809,340.865Z" transform="translate(-0.011 -39.115)" fill="#5bbfe3"/>
        <path id="Path_878939" data-name="Path 878939" d="M167.436,476.593a15.485,15.485,0,0,0-1.448,2.565c-1.455,2.357-2.8,4.778-4.085,7.231a9.274,9.274,0,0,1-6.386,1.062c-4.941-1.169-7.29-6.35-5.124-11.191.142-.317.288-.632.433-.947,4.1-2.214,8.162-4.486,12.167-6.863a5.842,5.842,0,0,0,1.623-.929c.28-.127.571-.234.838-.385,2.737-1.539,5.462-3.1,8.21-4.616.465-.257,1-.951,1.513-.443.455.454-.249.951-.443,1.425a9.774,9.774,0,0,1-.564,1.015Q170.8,470.555,167.436,476.593Z" transform="translate(-13.462 -131.879)" fill="#ffc142"/>
        <path id="Path_878940" data-name="Path 878940" d="M149.53,454.554c-4,2.377-8.069,4.65-12.167,6.863a31.3,31.3,0,0,1-4.424-10.41,28.233,28.233,0,0,1-.916-7.225c4.96,0,9.92.034,14.879-.017,1.131-.012,1.477.354,1.449,1.466a39.745,39.745,0,0,0,.919,8.828A1.991,1.991,0,0,0,149.53,454.554Z" transform="translate(0 -117.983)" fill="#5bbfe3"/>
        <path id="Path_878941" data-name="Path 878941" d="M361.684,374.525c2.081-.285,4.176-.1,6.262-.188.4-.018.941.188,1.124-.335.153-.439-.329-.656-.586-.918q-1.791-1.824-3.614-3.616c-.43-.423-.55-.778-.056-1.263,2.623-2.577,5.227-5.175,7.837-7.766a31.7,31.7,0,0,1,4.412,10.4,29.515,29.515,0,0,1,.917,7.218c-4.958,0-9.915-.034-14.872.016-1.126.011-1.558-.344-1.444-1.462C361.734,375.925,361.681,375.222,361.684,374.525Z" transform="translate(-175.997 -54.118)" fill="#5cc0e2"/>
        <path id="Path_878942" data-name="Path 878942" d="M197.127,290.99c-.018.323-.245.471-.5.574-3.871,1.532-6.368,4.527-8.431,7.964-.7,1.16-1.3,2.378-1.915,3.582a.9.9,0,0,1-1.175.57,59.179,59.179,0,0,1-8.328-2.45,8.056,8.056,0,0,0-.889-.219,32.052,32.052,0,0,1,9.362-6.749,36.422,36.422,0,0,1,10.606-3.246A8.943,8.943,0,0,1,197.127,290.99Z" transform="translate(-33.619 -0.88)" fill="#5bbfe3"/>
        <path id="Path_878943" data-name="Path 878943" d="M296.794,548.358c.025-.383.323-.5.612-.62,3.7-1.485,6.123-4.362,8.17-7.613a38.032,38.032,0,0,0,1.809-3.38,1.042,1.042,0,0,1,1.386-.626,61.6,61.6,0,0,1,7.68,2.2,2.991,2.991,0,0,0,1.359.255,33.66,33.66,0,0,1-13.653,8.318A25.124,25.124,0,0,1,296.794,548.358Z" transform="translate(-126.291 -188.726)" fill="#5bbfe3"/>
        <path id="Path_878944" data-name="Path 878944" d="M202.329,543.039c1.286-2.453,2.63-4.874,4.085-7.232a29.438,29.438,0,0,0,5.524,8.411,13.288,13.288,0,0,0,4.844,3.325c.293.1.588.235.614.618a29.6,29.6,0,0,1-9.959-2.417A22.269,22.269,0,0,1,202.329,543.039Z" transform="translate(-53.888 -188.528)" fill="#5cc0e2"/>
        <path id="Path_878945" data-name="Path 878945" d="M311.848,296.135l-5.209,5.2c-2.006-4.2-4.741-7.705-9.122-9.657-.318-.142-.681-.223-.722-.661a29.714,29.714,0,0,1,10.266,2.559A22.051,22.051,0,0,1,311.848,296.135Z" transform="translate(-126.291 -0.911)" fill="#5cc0e2"/>
        <path id="Path_878946" data-name="Path 878946" d="M285.764,452.8c0-2.6.021-5.209-.012-7.813-.011-.835.257-1.19,1.136-1.185q6.764.041,13.528,0c.765,0,1,.25,1,1.007a51.517,51.517,0,0,1-2.989,17.178c-.3.858-.884.785-1.477.719-1.419-.158-2.832-.35-4.255-.492a45.654,45.654,0,0,0-5.892-.41c-.83.025-1.069-.268-1.056-1.073C285.79,458.092,285.764,455.448,285.764,452.8Z" transform="translate(-117.825 -118.014)" fill="#5abfe3"/>
        <path id="Path_878947" data-name="Path 878947" d="M226.417,366.119c0,2.527-.034,5.054.017,7.58.02.983-.346,1.275-1.3,1.267q-6.589-.055-13.179,0c-.895.008-1.2-.216-1.2-1.167a51.788,51.788,0,0,1,2.9-16.729c.175-.518.309-.774,1.043-.655a73.906,73.906,0,0,0,10.6,1.006c.852.015,1.157.228,1.138,1.116C226.382,361.065,226.417,363.593,226.417,366.119Z" transform="translate(-60.346 -51.013)" fill="#5abfe3"/>
        <path id="Path_878948" data-name="Path 878948" d="M214.242,462.7q3.367-6.038,6.734-12.076a9.77,9.77,0,0,0,.564-1.015c.194-.473.9-.971.443-1.425-.51-.508-1.048.186-1.513.443-2.748,1.517-5.474,3.077-8.21,4.616-.267.15-.558.258-.838.385-.284-2.878-.887-5.725-.748-8.647.041-.869.2-1.222,1.164-1.211,4.426.051,8.852.039,13.278.009.891-.006,1.244.27,1.238,1.2-.031,5.241-.017,10.482-.012,15.723,0,.568.044,1.072-.8,1.073a70.713,70.713,0,0,0-10.25.911A7.655,7.655,0,0,1,214.242,462.7Z" transform="translate(-60.269 -117.985)" fill="#5cc0e2"/>
        <path id="Path_878949" data-name="Path 878949" d="M289.313,360.905c-.009,4.224.019,8.448-.053,12.671-.018,1.08.286,1.374,1.359,1.353,3.6-.07,7.208-.033,10.812-.036,0,.893-.018,1.787.01,2.68.018.594-.207.83-.814.828q-6.934-.021-13.868,0c-.7,0-.969-.3-.968-.987q.016-7.866,0-15.732c0-.623.268-.815.845-.8C287.525,360.912,288.419,360.9,289.313,360.905Z" transform="translate(-117.855 -54.458)" fill="#5abfe3"/>
        <path id="Path_878950" data-name="Path 878950" d="M240.146,305.413c0,1.711-.031,3.423.014,5.133.021.782-.185,1.094-1.036,1.1a87.61,87.61,0,0,1-9.477-.767c-.816-.088-1.3-.309-.736-1.369a28.453,28.453,0,0,1,4.5-6.61,11.5,11.5,0,0,1,5.918-3.507c.7-.146.827.061.823.657C240.139,301.835,240.145,303.624,240.146,305.413Z" transform="translate(-74.075 -7.292)" fill="#5abfe3"/>
        <path id="Path_878951" data-name="Path 878951" d="M285.777,535.587c0-1.632.025-3.265-.011-4.9-.016-.7.222-.942.937-.953a70.283,70.283,0,0,1,9.585.777c.4.049,1.117.075.68.921-1.7,3.3-3.68,6.37-6.8,8.526a13.1,13.1,0,0,1-3.368,1.556c-.837.279-1.038-.027-1.026-.8C285.795,539.007,285.777,537.3,285.777,535.587Z" transform="translate(-117.838 -183.873)" fill="#5abfe3"/>
        <path id="Path_878952" data-name="Path 878952" d="M240.782,535.626c0,1.632-.042,3.266.015,4.9.037,1.048-.33,1.145-1.247.866-3.374-1.026-5.686-3.343-7.639-6.116-.8-1.141-1.471-2.367-2.168-3.577-.587-1.018-.034-1.188.748-1.3a30.4,30.4,0,0,1,3.44-.438c1.975-.054,3.932-.4,5.917-.293.7.037.962.234.946.948C240.756,532.284,240.781,533.955,240.782,535.626Z" transform="translate(-74.711 -183.806)" fill="#5abfe3"/>
        <path id="Path_878953" data-name="Path 878953" d="M297,308.89c-1.912,2.2-1.913,2.2-3.928.179-.822-.822-1.637-1.651-2.469-2.463-.236-.231-.441-.638-.848-.48s-.3.585-.3.922c-.025,2.015-.038,4.03-.068,6.045a3.639,3.639,0,0,1-.134.669c-.067-2.1-.069-2.15-2.214-2.088-1,.029-1.348-.221-1.327-1.283.069-3.376.037-6.755.016-10.133,0-.753.114-1.021.99-.8a13.126,13.126,0,0,1,7.19,5.182,37.352,37.352,0,0,1,2.36,3.583C296.443,308.528,296.577,308.861,297,308.89Z" transform="translate(-117.791 -7.323)" fill="#5cc0e2"/>
      </g>
    </g>
  </g>
</svg>
