<svg xmlns="http://www.w3.org/2000/svg" width="108" height="108" viewBox="0 0 108 108">
  <g id="Group_1111705" data-name="Group 1111705" transform="translate(-273.711 -1642)">
    <circle id="Ellipse_11600" data-name="Ellipse 11600" cx="54" cy="54" r="54" transform="translate(273.711 1642)" fill="#fff"/>
    <g id="Group_1103504" data-name="Group 1103504" transform="translate(290.836 1659.852)">
      <rect id="Rectangle_401104" data-name="Rectangle 401104" width="72" height="73" transform="translate(3.875 0.148)" fill="none"/>
      <g id="Group_1103198" data-name="Group 1103198" transform="translate(5.855 3.392)">
        <rect id="Rectangle_401104-2" data-name="Rectangle 401104" width="68" height="69" transform="translate(0.059 -0.804)" fill="none"/>
        <g id="Group_1103209" data-name="Group 1103209" transform="translate(-151.153 -275.694)">
          <path id="Path_878973" data-name="Path 878973" d="M276.184,298.932c0,5.642.021,11.284-.022,16.925a2.3,2.3,0,0,0,.939,1.974,14.966,14.966,0,0,1,1.149,21.982A14.925,14.925,0,0,1,252.7,329.94a14.591,14.591,0,0,1,5.753-12.413,1.456,1.456,0,0,0,.468-1.368q.006-12.611,0-25.222c0-2.876-.011-5.753,0-8.629a8.628,8.628,0,0,1,17.249-.522C276.2,287.5,276.184,293.216,276.184,298.932ZM263.8,319.487a10.215,10.215,0,0,0-.672,18.814,1.154,1.154,0,0,0,.245.206,10.344,10.344,0,0,0,8.869-18.686,1.556,1.556,0,0,1-1.023-1.669q.044-14.1.014-28.208a2.469,2.469,0,0,0-.137-1.3c0-2.207.01-4.413,0-6.62a3.27,3.27,0,0,0-3.53-3.484,3.454,3.454,0,0,0-3.552,3.517c-.008,2.206-.007,4.413-.009,6.619-.012.441-.034.883-.034,1.325q0,14.041-.006,28.081A2.505,2.505,0,0,1,263.8,319.487Z" transform="translate(-79.818)" fill="#d0cfcf"/>
          <path id="Path_878974" data-name="Path 878974" d="M192.752,298.505A4.777,4.777,0,0,0,194,296.59c.074-.284.185-.589.574-.555.314.027.362.291.47.533,1.175,2.644,3.121,3.288,5.607,1.867.253-.144.488-.384.793-.142s.149.519.08.807a3.559,3.559,0,0,0,3.336,4.722c.318.031.716-.081.837.347.115.409-.251.554-.5.766a3.565,3.565,0,0,0,.023,5.73c.241.21.634.34.47.764-.145.378-.511.343-.846.371-2.605.217-3.941,2.1-3.316,4.691.072.3.2.592-.091.8s-.538-.014-.8-.165c-2.362-1.37-4.483-.683-5.579,1.808-.119.271-.159.6-.532.61s-.481-.327-.548-.6a4.474,4.474,0,0,0-1.2-1.823c.012-.505.455-.711.722-1.04.881-1.087,1.949-2.06,2.154-3.556l.71-.3a4.821,4.821,0,0,0,2.815-5.59c-.464-1.922-1.852-2.923-3.535-3.65-.139-1.242-1.02-2.05-1.73-2.957C193.526,299.53,192.847,299.241,192.752,298.505Z" transform="translate(-33.151 -17.581)" fill="#ed681e"/>
          <path id="Path_878975" data-name="Path 878975" d="M162.51,320.166c-.2,1.5-1.273,2.469-2.154,3.555-.267.329-.709.535-.722,1.041a3.709,3.709,0,0,0-4.429.012c-.211.147-.435.336-.7.151-.306-.216-.159-.509-.1-.8.561-2.734-.617-4.352-3.442-4.728-.3-.04-.625-.032-.756-.347-.153-.37.2-.492.413-.678,2.039-1.793,2.05-4.109.029-5.866-.217-.188-.563-.333-.452-.679.125-.391.517-.32.845-.349a3.6,3.6,0,0,0,3.41-4.612c-.067-.313-.305-.645.028-.914.355-.286.6.052.866.226a3.737,3.737,0,0,0,4.253-.036c.095.736.774,1.025,1.169,1.53.71.908,1.591,1.716,1.73,2.957-.367,0-.734-.005-1.1,0a4.8,4.8,0,0,0-3.382,8.245C159.281,320.173,160.877,320.207,162.51,320.166Z" transform="translate(0 -25.218)" fill="#f17a29"/>
          <path id="Path_878976" data-name="Path 878976" d="M383.966,378.465c-.954,0-1.908,0-2.862,0-.7,0-1.267-.257-1.294-1.037-.029-.838.535-1.142,1.294-1.145,1.908-.006,3.815,0,5.723,0,.73,0,1.283.324,1.308,1.041.027.78-.522,1.155-1.308,1.149C385.873,378.459,384.919,378.465,383.966,378.465Z" transform="translate(-178.788 -80.057)" fill="#066490"/>
          <path id="Path_878977" data-name="Path 878977" d="M382.758,300.224c-.661,0-1.324.032-1.982-.01a1.049,1.049,0,0,1-.005-2.094c1.319-.051,2.643-.04,3.963.005a.954.954,0,0,1,.982,1.094,1,1,0,0,1-1.086,1.009c-.624.02-1.248,0-1.873,0Z" transform="translate(-178.773 -19.181)" fill="#00608d"/>
          <path id="Path_878978" data-name="Path 878978" d="M382.727,456.555c-.589,0-1.179.013-1.767,0-.685-.018-1.143-.354-1.152-1.064a1.05,1.05,0,0,1,1.124-1.111c1.25-.044,2.505-.051,3.754.011a1.082,1.082,0,1,1-.081,2.163C383.98,456.568,383.353,456.554,382.727,456.555Z" transform="translate(-178.786 -140.837)" fill="#00638f"/>
          <path id="Path_878979" data-name="Path 878979" d="M382.251,415.454c.478,0,.958-.023,1.434.006a1.07,1.07,0,0,1,.068,2.129,20.608,20.608,0,0,1-3.08-.016.963.963,0,0,1-.908-1.067,1.013,1.013,0,0,1,1.053-1.046C381.293,415.429,381.773,415.454,382.251,415.454Z" transform="translate(-178.752 -110.552)" fill="#016490"/>
          <path id="Path_878980" data-name="Path 878980" d="M382.236,337.343c.478,0,.955-.012,1.432,0a1.049,1.049,0,0,1,.184,2.075,10.111,10.111,0,0,1-3.283-.011.954.954,0,0,1-.806-1.139.975.975,0,0,1,1.041-.926C381.281,337.332,381.759,337.343,382.236,337.343Z" transform="translate(-178.744 -49.741)" fill="#086490"/>
          <path id="Path_878981" data-name="Path 878981" d="M307.778,342.06a2.469,2.469,0,0,1,.137,1.3q.009,14.1-.014,28.208a1.555,1.555,0,0,0,1.023,1.669,10.344,10.344,0,0,1-8.869,18.686,1.158,1.158,0,0,1-.245-.206,9.308,9.308,0,0,0,3.93-3.271c2.774-3.693,2.438-9.789-.423-13.421a4.5,4.5,0,0,0-2.834-2.122,2.505,2.505,0,0,0,.166-1.4q.008-14.04.006-28.081c0-.442.022-.883.034-1.325Z" transform="translate(-116.502 -53.417)" fill="#a50751"/>
          <path id="Path_878982" data-name="Path 878982" d="M279.683,481.354a4.5,4.5,0,0,1,2.834,2.122c2.862,3.632,3.2,9.728.423,13.421a9.308,9.308,0,0,1-3.93,3.271,10.215,10.215,0,0,1,.672-18.814Z" transform="translate(-95.704 -161.867)" fill="#cc2d78"/>
          <path id="Path_878983" data-name="Path 878983" d="M310.865,306.535l-7.091.033c0-2.207,0-4.413.009-6.619a3.454,3.454,0,0,1,3.552-3.517,3.27,3.27,0,0,1,3.53,3.484C310.875,302.121,310.865,304.328,310.865,306.535Z" transform="translate(-119.589 -17.892)" fill="#f2e1cd"/>
          <path id="Path_878984" data-name="Path 878984" d="M184.964,336.987c-1.633.041-3.229.007-4.493-1.3a4.8,4.8,0,0,1,3.382-8.245c.367,0,.734,0,1.1,0,1.683.728,3.071,1.728,3.535,3.65a4.821,4.821,0,0,1-2.815,5.591Z" transform="translate(-22.454 -42.04)" fill="#ffc22a"/>
        </g>
      </g>
    </g>
  </g>
</svg>
