<svg xmlns="http://www.w3.org/2000/svg" xmlns:xlink="http://www.w3.org/1999/xlink" width="98.579" height="98.578" viewBox="0 0 98.579 98.578">
  <defs>
    <clipPath id="clip-path">
      <rect id="Rectangle_401223" data-name="Rectangle 401223" width="98.579" height="98.578" transform="translate(0)" fill="#115e01"/>
    </clipPath>
    <clipPath id="clip-path-2">
      <rect id="Rectangle_401223-2" data-name="Rectangle 401223" width="88.117" height="88.116" fill="#f2ffd9"/>
    </clipPath>
  </defs>
  <g id="Group_1111704" data-name="Group 1111704" transform="translate(-667.371 10626.863)">
    <g id="Group_1103181" data-name="Group 1103181" transform="translate(-253.963 -11037.869)">
      <g id="Group_1099654" data-name="Group 1099654" transform="translate(921.333 411.006)">
        <g id="Group_1099652" data-name="Group 1099652" transform="translate(0 0)" clip-path="url(#clip-path)">
          <path id="Path_873521" data-name="Path 873521" d="M98.579,76.737a21.9,21.9,0,0,1-21.84,21.84H21.84A21.9,21.9,0,0,1,0,76.737V21.84A21.9,21.9,0,0,1,21.84,0h54.9a21.9,21.9,0,0,1,21.84,21.841Z" transform="translate(0)" fill="#115e01"/>
        </g>
      </g>
      <g id="Group_1099659" data-name="Group 1099659" transform="translate(926.103 416.728)">
        <g id="Group_1099652-2" data-name="Group 1099652" transform="translate(0 0)" clip-path="url(#clip-path-2)">
          <path id="Path_873521-2" data-name="Path 873521" d="M88.117,68.594A19.58,19.58,0,0,1,68.595,88.116H19.523A19.58,19.58,0,0,1,0,68.594V19.522A19.58,19.58,0,0,1,19.523,0H68.595A19.58,19.58,0,0,1,88.117,19.523Z" fill="#f2ffd9"/>
        </g>
      </g>
    </g>
    <g id="Group_1103182" data-name="Group 1103182" transform="translate(683.313 -10611.06)">
      <rect id="Rectangle_401104" data-name="Rectangle 401104" width="68" height="69" transform="translate(0.059 -0.804)" fill="none"/>
      <g id="Group_1103188" data-name="Group 1103188" transform="translate(-134.381 -281.392)">
        <path id="Path_878954" data-name="Path 878954" d="M207.4,365.832c-3.007-8.7-1.382-16.444,5.154-22.921,8.51-8.433,22.877-7.594,30.568,1.555a21.257,21.257,0,0,1,5.1,13.641,21.687,21.687,0,0,1-1.458,7.93,9.7,9.7,0,0,0-7.456,1.724,6.185,6.185,0,0,1-7.467.015,9.45,9.45,0,0,0-11.364-.035,6.236,6.236,0,0,1-7.572-.009A10.645,10.645,0,0,0,207.4,365.832Z" transform="translate(-58.691 -43.652)" fill="#ffe800"/>
        <path id="Path_878955" data-name="Path 878955" d="M207.2,494.8q0,2.969.007,5.938a3.931,3.931,0,0,0-1.983-.528,8.421,8.421,0,0,0-5.02,1.7,6.382,6.382,0,0,1-7.671.065,9.451,9.451,0,0,0-11.147-.124,6.473,6.473,0,0,1-8.06-.124c-2.872-2.084-8.149-2.09-10.944.238a6.145,6.145,0,0,1-7.242.2c-4-2.7-7.98-2.759-11.977,0a5.923,5.923,0,0,1-3.342,1.03,8.359,8.359,0,0,1-4.651-1.668c-1.979-1.236-4.074-1.92-6.37-.8q0-2.969.007-5.938c.52.312.97.77,1.647.748a5.986,5.986,0,0,1,3.753,1.291,7.71,7.71,0,0,0,2.145,1.181,10.016,10.016,0,0,0,9.221-1.375,5.668,5.668,0,0,1,6.781-.159c4.1,2.683,8.1,2.822,12.245.064,2.378-1.581,4.847-1.362,7.249.231a9.325,9.325,0,0,0,11.134.028,6.439,6.439,0,0,1,7.781,0,9.319,9.319,0,0,0,11.031.045,6.065,6.065,0,0,1,3.145-1.277A3.527,3.527,0,0,0,207.2,494.8Z" transform="translate(-0.567 -162.499)" fill="#62bfef"/>
        <path id="Path_878956" data-name="Path 878956" d="M128.808,470q-.012-3.081-.024-6.163a3.114,3.114,0,0,0,2.022.752,3.931,3.931,0,0,1,2.648.794c3.973,2.765,8.016,3.077,12.109.273a5.943,5.943,0,0,1,7.115-.006c3.774,2.452,7.541,2.715,11.362.164a6.662,6.662,0,0,1,8.015.055,9.039,9.039,0,0,0,10.8,0,7.037,7.037,0,0,1,8.124.052c3.41,2.351,6.961,2.258,10.489.09,1.033-.635,2.02-1.483,3.337-1.41a3.369,3.369,0,0,0,2.392-.758q-.012,3.082-.024,6.163a2.07,2.07,0,0,0-2.218-.945,12.942,12.942,0,0,0-5.087,2.006,5.82,5.82,0,0,1-6.987.07c-3.848-2.591-7.741-2.877-11.653-.217-2.775,1.887-5.348,1.546-8.06-.226a8.958,8.958,0,0,0-10.458.034,7.856,7.856,0,0,1-4.066,1.508c-1.8.053-3.178-.894-4.619-1.756a9.137,9.137,0,0,0-5.493-1.406,12.233,12.233,0,0,0-5.639,2.2,5.764,5.764,0,0,1-6.583-.067,13.439,13.439,0,0,0-4.932-2.064A2.281,2.281,0,0,0,128.808,470Z" transform="translate(-0.553 -139.17)" fill="#62bfef"/>
        <path id="Path_878957" data-name="Path 878957" d="M128.818,531.96q0-3.085.005-6.17c.475.211.734.75,1.363.758a7.791,7.791,0,0,1,4.218,1.46,9.046,9.046,0,0,0,10.688-.016,6.578,6.578,0,0,1,8.086-.028,9.044,9.044,0,0,0,10.8,0,6.62,6.62,0,0,1,8.073,0,9.079,9.079,0,0,0,10.8.011c2.641-1.765,5.211-1.944,7.863-.089a9.6,9.6,0,0,0,5.137,1.829,9.275,9.275,0,0,0,5.886-1.779,6.357,6.357,0,0,1,3.491-1.35,3.006,3.006,0,0,0,1.978-.79q0,3.085.006,6.17a2.86,2.86,0,0,0-2.355-.755,8.336,8.336,0,0,0-4.221,1.531c-2.713,1.852-5.407,2.093-8.229.22a9.359,9.359,0,0,0-11.154.031,6.328,6.328,0,0,1-7.567.045c-3.8-2.529-7.547-2.472-11.34,0a6.164,6.164,0,0,1-7.265.146c-4-2.674-7.881-2.686-11.9.019a5.925,5.925,0,0,1-6.93.01,12.729,12.729,0,0,0-3.883-1.81C131.128,531.092,129.871,530.936,128.818,531.96Z" transform="translate(-0.578 -185.847)" fill="#62bfef"/>
        <path id="Path_878958" data-name="Path 878958" d="M128.6,548.273c1.053-1.024,2.31-.868,3.559-.565a12.728,12.728,0,0,1,3.883,1.81,5.925,5.925,0,0,0,6.93-.01c4.015-2.705,7.9-2.693,11.9-.019a6.164,6.164,0,0,0,7.265-.146c3.792-2.47,7.543-2.526,11.34,0a6.328,6.328,0,0,0,7.567-.045,9.359,9.359,0,0,1,11.154-.031c2.822,1.873,5.516,1.632,8.229-.22a8.336,8.336,0,0,1,4.221-1.531,2.859,2.859,0,0,1,2.355.755c.242,1.452-.071,2.13-1.385,2.26a12.035,12.035,0,0,0-4.844,1.9,9.129,9.129,0,0,1-10.2-.51,6.454,6.454,0,0,0-7.684-.077,9.482,9.482,0,0,1-11.249.05,6.481,6.481,0,0,0-7.691.005,9.423,9.423,0,0,1-11.24-.056,6.317,6.317,0,0,0-7.471-.042c-3.885,2.541-7.724,2.59-11.565-.072a6.066,6.066,0,0,0-3.093-1.051C128.808,550.545,128.33,549.893,128.6,548.273Z" transform="translate(-0.362 -202.16)" fill="#8cd2f5"/>
        <path id="Path_878959" data-name="Path 878959" d="M206.943,456.233a3.369,3.369,0,0,1-2.392.758c-1.317-.073-2.3.776-3.337,1.411-3.528,2.168-7.079,2.261-10.489-.09a7.037,7.037,0,0,0-8.124-.052,9.039,9.039,0,0,1-10.8,0,6.662,6.662,0,0,0-8.015-.055c-3.821,2.551-7.588,2.288-11.362-.164a5.943,5.943,0,0,0-7.115.006c-4.093,2.8-8.135,2.491-12.109-.273a3.931,3.931,0,0,0-2.648-.794,3.114,3.114,0,0,1-2.022-.751c-.334-1.49.338-2.455,1.794-2.443a8.043,8.043,0,0,1,4.732,1.464,6.772,6.772,0,0,0,8.526.129,9.437,9.437,0,0,1,5.428-1.638,10.642,10.642,0,0,1,5.505,1.9,6.236,6.236,0,0,0,7.572.009,9.45,9.45,0,0,1,11.364.035,6.185,6.185,0,0,0,7.467-.015,9.7,9.7,0,0,1,7.456-1.724,9.48,9.48,0,0,1,4.123,1.8,6.275,6.275,0,0,0,7.173-.045A11.334,11.334,0,0,1,204.4,453.8C206.331,453.54,207.331,454.5,206.943,456.233Z" transform="translate(-0.295 -131.564)" fill="#8cd2f5"/>
        <path id="Path_878960" data-name="Path 878960" d="M207.2,518.619a3.007,3.007,0,0,1-1.978.79,6.357,6.357,0,0,0-3.491,1.35,9.276,9.276,0,0,1-5.886,1.779,9.6,9.6,0,0,1-5.137-1.829c-2.652-1.855-5.222-1.675-7.863.089a9.079,9.079,0,0,1-10.8-.011,6.619,6.619,0,0,0-8.073,0,9.044,9.044,0,0,1-10.8,0,6.578,6.578,0,0,0-8.086.028,9.046,9.046,0,0,1-10.688.016,7.791,7.791,0,0,0-4.218-1.46c-.629-.007-.889-.547-1.363-.758q0-.852-.009-1.7c2.3-1.124,4.39-.439,6.369.8a8.359,8.359,0,0,0,4.651,1.668,5.923,5.923,0,0,0,3.342-1.03c4-2.761,7.972-2.7,11.977,0a6.145,6.145,0,0,0,7.242-.2c2.8-2.328,8.073-2.322,10.944-.238a6.473,6.473,0,0,0,8.06.124,9.45,9.45,0,0,1,11.147.124,6.382,6.382,0,0,0,7.671-.065,8.421,8.421,0,0,1,5.02-1.7,3.931,3.931,0,0,1,1.983.528Q207.206,517.769,207.2,518.619Z" transform="translate(-0.568 -178.677)" fill="#8bd1f5"/>
        <path id="Path_878961" data-name="Path 878961" d="M128.821,485.819a2.281,2.281,0,0,1,2.574-.861,13.438,13.438,0,0,1,4.932,2.064,5.764,5.764,0,0,0,6.583.067,12.232,12.232,0,0,1,5.639-2.2,9.138,9.138,0,0,1,5.493,1.406c1.441.862,2.819,1.809,4.619,1.756a7.856,7.856,0,0,0,4.066-1.508,8.958,8.958,0,0,1,10.458-.034c2.711,1.773,5.285,2.113,8.06.226,3.912-2.66,7.805-2.374,11.653.217a5.821,5.821,0,0,0,6.987-.07,12.942,12.942,0,0,1,5.087-2.006,2.07,2.07,0,0,1,2.218.945.7.7,0,0,1,.015.244c-.251.04-.5.1-.455.431.033.257.254.279.453.315q0,.24,0,.481a3.528,3.528,0,0,1-2.262.777,6.065,6.065,0,0,0-3.145,1.277,9.319,9.319,0,0,1-11.031-.045,6.439,6.439,0,0,0-7.781,0,9.325,9.325,0,0,1-11.134-.028c-2.4-1.592-4.871-1.811-7.249-.231-4.149,2.758-8.145,2.619-12.245-.064a5.668,5.668,0,0,0-6.781.159,10.016,10.016,0,0,1-9.221,1.375,7.709,7.709,0,0,1-2.145-1.181,5.986,5.986,0,0,0-3.753-1.291c-.677.022-1.126-.436-1.647-.748q0-.24,0-.481c.2-.036.421-.058.453-.315.042-.336-.2-.391-.455-.431A.705.705,0,0,1,128.821,485.819Z" transform="translate(-0.566 -154.988)" fill="#8bd1f5"/>
        <path id="Path_878962" data-name="Path 878962" d="M222.91,304.21a1.566,1.566,0,0,1-1.055,1.5,1.39,1.39,0,0,1-1.791-.66c-.787-1.24-1.506-2.524-2.246-3.794a13.5,13.5,0,0,1-.941-1.717,1.473,1.473,0,0,1,.566-1.941,1.376,1.376,0,0,1,1.98.311c1.212,1.936,2.3,3.949,3.429,5.936A1.11,1.11,0,0,1,222.91,304.21Z" transform="translate(-66.814 -13.707)" fill="#ffe800"/>
        <path id="Path_878963" data-name="Path 878963" d="M341.523,304.045a30.436,30.436,0,0,1,3.9-6.553c.451-.506,1.157-.318,1.681.1a1.315,1.315,0,0,1,.507,1.728c-1.061,1.931-2.152,3.847-3.3,5.726a1.327,1.327,0,0,1-1.72.549A1.552,1.552,0,0,1,341.523,304.045Z" transform="translate(-160.841 -13.607)" fill="#ffe800"/>
        <path id="Path_878964" data-name="Path 878964" d="M168.261,347.922a3.612,3.612,0,0,1,.688.249c1.666.949,3.34,1.888,4.976,2.887,1.016.621,1.27,1.474.728,2.258a1.577,1.577,0,0,1-2.357.4c-1.659-.962-3.329-1.906-4.984-2.875a1.542,1.542,0,0,1-.731-1.992C166.83,348.111,167.433,347.917,168.261,347.922Z" transform="translate(-28.945 -51.833)" fill="#ffe800"/>
        <path id="Path_878965" data-name="Path 878965" d="M152.563,419.242c-.984,0-1.969-.006-2.954,0a1.419,1.419,0,0,1-1.56-1.4,1.368,1.368,0,0,1,1.341-1.593,38.894,38.894,0,0,1,6.386-.056,1.46,1.46,0,0,1,1.506,1.613c-.052,1.025-.734,1.478-1.766,1.447C154.534,419.22,153.548,419.243,152.563,419.242Z" transform="translate(-15.061 -103.191)" fill="#ffe800"/>
        <path id="Path_878966" data-name="Path 878966" d="M402.525,419.226c-1.026,0-2.051,0-3.077,0a1.409,1.409,0,0,1-1.513-1.448,1.341,1.341,0,0,1,1.272-1.53,35.719,35.719,0,0,1,6.507-.058,1.529,1.529,0,1,1-.235,3.047C404.5,419.208,403.51,419.228,402.525,419.226Z" transform="translate(-203.34 -103.176)" fill="#ffe800"/>
        <path id="Path_878967" data-name="Path 878967" d="M288.147,283.768c0,.943,0,1.886,0,2.829.006,1-.438,1.725-1.464,1.773a1.488,1.488,0,0,1-1.619-1.515,43.551,43.551,0,0,1,.014-6.262,1.54,1.54,0,1,1,3.071.222C288.132,281.8,288.147,282.784,288.147,283.768Z" transform="translate(-118.224 0)" fill="#ffe800"/>
        <path id="Path_878968" data-name="Path 878968" d="M391.2,349.412a1.507,1.507,0,0,1-.9,1.432c-1.659.974-3.311,1.961-4.994,2.891A1.57,1.57,0,1,1,383.783,351c1.67-.955,3.313-1.959,5.008-2.867A1.51,1.51,0,0,1,391.2,349.412Z" transform="translate(-191.95 -51.798)" fill="#ffe800"/>
        <path id="Path_878969" data-name="Path 878969" d="M128.24,489.824c.25.04.5.1.455.432-.033.257-.253.279-.453.315A.461.461,0,0,1,128.24,489.824Z" transform="translate(0 -158.749)" fill="#8cd2f5"/>
        <path id="Path_878970" data-name="Path 878970" d="M445.393,490.571c-.2-.036-.421-.058-.453-.315-.043-.336.2-.391.455-.432A.461.461,0,0,1,445.393,490.571Z" transform="translate(-238.756 -158.749)" fill="#8cd2f5"/>
      </g>
    </g>
  </g>
</svg>
