<svg xmlns="http://www.w3.org/2000/svg" width="108" height="108" viewBox="0 0 108 108">
  <g id="Group_1111708" data-name="Group 1111708" transform="translate(-1218.711 -1642)">
    <circle id="Ellipse_11603" data-name="Ellipse 11603" cx="54" cy="54" r="54" transform="translate(1218.711 1642)" fill="#fff"/>
    <g id="Group_1103508" data-name="Group 1103508" transform="translate(1235.836 1659.852)">
      <rect id="Rectangle_401104" data-name="Rectangle 401104" width="72" height="73" transform="translate(-3.125 0.148)" fill="none"/>
      <g id="Group_1103204" data-name="Group 1103204" transform="translate(-1.184 2.953)">
        <rect id="Rectangle_401104-2" data-name="Rectangle 401104" width="68" height="69" transform="translate(0.059 -0.804)" fill="none"/>
        <g id="Group_1103212" data-name="Group 1103212" transform="translate(-118.873 -243.392)">
          <path id="Path_879028" data-name="Path 879028" d="M155.251,391.137a23.956,23.956,0,0,0-.381,2.82,74.257,74.257,0,0,0,.128,9.518c.073.673.333.8.925.8q8.791-.023,17.582.006c.751,0,.907-.3.842-.945a24.879,24.879,0,0,1,.193-5.788,27.022,27.022,0,0,1,4.248-10.938c.7-1.027,1.094-1.089,2.143-.347.176,1.057-.841,1.61-1.054,2.5a.492.492,0,0,0-.217.439l0-.005a11.19,11.19,0,0,0-2.128,4.889l0,0a.466.466,0,0,0-.214.433,12.128,12.128,0,0,0-.83,3.818,25.353,25.353,0,0,0-.215,5.055c-.01.711.326.9.977.885,1.444-.024,2.888.009,4.332.019a6.742,6.742,0,0,1,.85.886c.759,1.138.472,1.95-1.048,3.114-.353.011-.706.031-1.06.031q-29.4,0-58.792.006c-1.011,0-1.92-.145-2.4-1.176a1.97,1.97,0,0,1,1.75-2.877c1.343-.045,2.688-.007,4.032-.016.373,0,.786.1.715-.574a36.657,36.657,0,0,1,.253-8.661c.552-2.27,1.092-4.536-.745-6.537a4.274,4.274,0,0,1-.4-.623c-.366-.577-.488-1.18.225-1.529a1.01,1.01,0,0,1,1.5.523,3.27,3.27,0,0,0,1.038,1.475,39.193,39.193,0,0,1,4.707-9.407c.409-.585.849-1.057,1.544-.625.769.477.5,1.117.073,1.73a23.242,23.242,0,0,0-1.95,3.34c1.091-.015,1.982-.571,2.972-.525.967,1,.852,1.557-.41,2.013-.223.081-.435.195-.652.293a15.641,15.641,0,0,0-2.778.629.738.738,0,0,0-.569.421,30.671,30.671,0,0,0-2.394,8.521c-.313.32-.164.72-.187,1.09a33.4,33.4,0,0,0-.241,7.811c.029.432.169.664.629.638.247-.014.5,0,.743,0,7.572,0,15.145-.016,22.717.019,1.01,0,1.391-.116,1.256-1.306a48.6,48.6,0,0,1,.146-11.314,11.367,11.367,0,0,0,.006-1.375c.322-.209.258-.573.308-.867a52.18,52.18,0,0,1,3.2-11.505,1.672,1.672,0,0,0-.2-1.607c-.837-1.394-1.644-2.807-2.467-4.209a.932.932,0,0,1,.282-1.385.889.889,0,0,1,1.364.315c.213.326.392.673.612.994a19.109,19.109,0,0,0,1.723,2.723,67.138,67.138,0,0,1,4.424-7.694c.428-.626.892-1.107,1.63-.614.7.465.45,1.12.068,1.682a50.362,50.362,0,0,0-3.085,5.072,38.96,38.96,0,0,0-3.608,8.795.252.252,0,0,0-.07.034c-.011.01-.007.037-.01.056l.083-.086a4.306,4.306,0,0,0,1.663-.229c.85-.224,1.7-.443,2.565-.615a.884.884,0,0,1,1.16.647,1,1,0,0,1-.732,1.229,7.242,7.242,0,0,1-.915.256c-1.33.343-2.656.7-3.992,1.013-.386.091-.672.24-.75.63A43.417,43.417,0,0,0,155.251,391.137Z" transform="translate(0 -96.739)" fill="#115e01"/>
          <path id="Path_879029" data-name="Path 879029" d="M260.369,347.458a38.963,38.963,0,0,1,3.608-8.795,50.361,50.361,0,0,1,3.085-5.072c.382-.561.628-1.217-.068-1.682-.739-.493-1.2-.013-1.63.614a67.14,67.14,0,0,0-4.424,7.694,19.106,19.106,0,0,1-1.723-2.723c-.22-.32-.4-.668-.612-.994a.889.889,0,0,0-1.364-.315.932.932,0,0,0-.282,1.385c.823,1.4,1.63,2.815,2.467,4.209a1.672,1.672,0,0,1,.2,1.607,52.182,52.182,0,0,0-3.2,11.505c-.049.293.015.658-.308.867-4.2-2.216-5.992-5.934-6.342-10.451-.39-5.021,1.59-9.256,4.741-12.991a30.326,30.326,0,0,1,15.823-9.884,3.3,3.3,0,0,1,.629-.045c1.893.529,2.827,1.515,2.985,3.23a9.688,9.688,0,0,1-.347,3.446,100.828,100.828,0,0,1-7.7,19.4,17.941,17.941,0,0,1-6.072,7.3c-.461.3-1.137.252-1.4.862-.062-.009-.125-.016-.188-.021a43.414,43.414,0,0,1,1.122-6.222c.078-.39.364-.539.75-.63,1.337-.314,2.663-.67,3.992-1.013a7.242,7.242,0,0,0,.915-.256,1,1,0,0,0,.732-1.229.884.884,0,0,0-1.16-.647c-.862.172-1.715.391-2.565.615a4.306,4.306,0,0,1-1.663.229Z" transform="translate(-102.998 -62.214)" fill="#e0ffa3"/>
          <path id="Path_879030" data-name="Path 879030" d="M144.865,404.306c-.99-.046-1.88.51-2.972.525a23.242,23.242,0,0,1,1.95-3.34c.426-.614.7-1.253-.073-1.73-.7-.431-1.135.04-1.544.625a39.193,39.193,0,0,0-4.707,9.407,3.27,3.27,0,0,1-1.038-1.475,1.01,1.01,0,0,0-1.5-.523c-.713.349-.591.951-.225,1.529a4.273,4.273,0,0,0,.4.623c1.837,2,1.3,4.267.745,6.537-2.832-1.47-3.944-3.995-4.213-6.993a11.844,11.844,0,0,1,2.906-8.7,20.6,20.6,0,0,1,11.343-7.305c1.552,1.322,1.477,2.989.993,4.734A53.646,53.646,0,0,1,144.865,404.306Z" transform="translate(-10.012 -118.2)" fill="#ffd768"/>
          <path id="Path_879031" data-name="Path 879031" d="M290.717,355.673c.262-.61.938-.565,1.4-.862a17.941,17.941,0,0,0,6.072-7.3,100.832,100.832,0,0,0,7.7-19.4,9.689,9.689,0,0,0,.347-3.446c-.158-1.715-1.093-2.7-2.985-3.23a8.281,8.281,0,0,1,5.092.3,3.2,3.2,0,0,1,1.988,3,15.749,15.749,0,0,1-1.095,6.109,95.132,95.132,0,0,1-8.085,18.716,15.233,15.233,0,0,1-4.075,4.693A7.51,7.51,0,0,1,290.717,355.673Z" transform="translate(-135.278 -61.254)" fill="#8efe43"/>
          <path id="Path_879032" data-name="Path 879032" d="M167.893,403.355a53.645,53.645,0,0,0,2.068-6.088c.484-1.745.56-3.412-.993-4.734a6.041,6.041,0,0,1,2.409-.234c2.351.135,3.436,1.542,2.963,3.85a52.21,52.21,0,0,1-3.637,10.474,26.784,26.784,0,0,1-4.28,7.513c-1.473,1.629-3.221,2.617-5.519,2.187.023-.37-.126-.77.188-1.09a11.571,11.571,0,0,0,3.233-4,25.114,25.114,0,0,0,2.507-5.575c.217-.1.428-.213.652-.293C168.744,404.912,168.86,404.354,167.893,403.355Z" transform="translate(-33.04 -117.248)" fill="#ffc451"/>
          <path id="Path_879033" data-name="Path 879033" d="M143.33,310.508H129.751a4.329,4.329,0,0,1-.846-.024c-.5-.1-.979-.262-.976-.914a1.185,1.185,0,0,1,.921-1.151,2.317,2.317,0,0,1,.737-.033q13.631,0,27.262,0c2.744,0,4.385,1.689,4.209,4.282a3.505,3.505,0,0,1-2.972,3.128,25.183,25.183,0,0,1-2.65.015.86.86,0,0,1-.951-.91.88.88,0,0,1,.977-.991c.6-.013,1.2.017,1.8-.011a2,2,0,0,0,1.869-1.7,1.755,1.755,0,0,0-1.909-1.689Q150.278,310.5,143.33,310.508Z" transform="translate(-7.085 -51.177)" fill="#b0c0d2"/>
          <path id="Path_879034" data-name="Path 879034" d="M137.617,291.32H120.639a5.4,5.4,0,0,1-.952-.028.848.848,0,0,1-.745-.89.866.866,0,0,1,.774-.971,5,5,0,0,1,.847-.024h34.38c.248,0,.5-.01.742.012a.959.959,0,0,1-.029,1.894c-.282.017-.566.008-.849.008Z" transform="translate(-0.007 -36.236)" fill="#b0c0d2"/>
          <path id="Path_879035" data-name="Path 879035" d="M143.34,251.738q-5.839,0-11.679,0c-.414,0-.856.1-1.212-.237-.286-.272-.6-.537-.475-.989a.892.892,0,0,1,.951-.682c.849,0,1.7,0,2.548,0h19.96a7.875,7.875,0,0,0,1.889-.176c1.127-.273,1.625-.76,1.589-1.733a1.685,1.685,0,0,0-1.811-1.688c-.634-.043-1.274,0-1.91-.017a.835.835,0,0,1-.926-.819.88.88,0,0,1,.756-1.008,6.712,6.712,0,0,1,4.035.388,3.786,3.786,0,0,1,1.9,3.927,3.744,3.744,0,0,1-3.721,3.033C151.267,251.751,147.3,251.738,143.34,251.738Z" transform="translate(-8.673 -0.69)" fill="#b0c0d2"/>
          <path id="Path_879036" data-name="Path 879036" d="M393.181,445.607c.213-.892,1.23-1.446,1.054-2.5.285-1.417.824-2.832.021-4.254a4.753,4.753,0,0,1,3.1-.281,1.833,1.833,0,0,1,1.493,2.3,35.557,35.557,0,0,1-5.263,12.389,4.058,4.058,0,0,1-3.789,1.92,12.124,12.124,0,0,1,.83-3.818.41.41,0,0,0,.214-.433l0,0a16.18,16.18,0,0,0,2.128-4.889l0,.005A.417.417,0,0,0,393.181,445.607Z" transform="translate(-213.303 -153.585)" fill="#ffc552"/>
          <path id="Path_879037" data-name="Path 879037" d="M338.344,289.42c3.041,0,6.081,0,9.122,0a3.981,3.981,0,0,1,3.785,3.233,4.11,4.11,0,0,1-2.494,4.439,11.5,11.5,0,0,1-4.609.358.924.924,0,0,1-.954-1.042.945.945,0,0,1,1-1.009c.986-.065,1.979-.023,2.968-.033a2.019,2.019,0,1,0,.064-4.029c-.635-.025-1.273-.005-1.909-.005q-8.114,0-16.228,0c-.55,0-1.089,0-1.333-.611-.285-.717.215-1.3,1.152-1.3C332.051,289.412,335.2,289.419,338.344,289.42Z" transform="translate(-164.38 -36.249)" fill="#b0c0d2"/>
          <path id="Path_879038" data-name="Path 879038" d="M376.885,440.449c.8,1.422.264,2.837-.021,4.254-1.05-.741-1.446-.679-2.144.347a27.022,27.022,0,0,0-4.248,10.938,6.247,6.247,0,0,1-2.619-6.347c.909-4.441,3.988-6.959,7.843-8.772A12.144,12.144,0,0,1,376.885,440.449Z" transform="translate(-195.931 -155.184)" fill="#ffd769"/>
          <path id="Path_879039" data-name="Path 879039" d="M345.411,251.048c-1.556,0-3.114-.021-4.669.009-.775.015-1.563-.111-1.616-.965-.06-.966.773-.972,1.526-.966,2.653.02,5.306.007,7.96.008a7.775,7.775,0,0,0,1.783-.17c1.313-.3,1.671-.646,1.616-1.765-.05-1.019-.734-1.616-1.942-1.667a14.2,14.2,0,0,0-1.591,0,.932.932,0,0,1-1.076-.795c-.126-.56.311-.87.718-1.046a4.545,4.545,0,0,1,5.792,2.522,3.675,3.675,0,0,1-3.512,4.825C348.737,251.078,347.074,251.048,345.411,251.048Z" transform="translate(-173.397)" fill="#b0c0d2"/>
          <path id="Path_879040" data-name="Path 879040" d="M412.842,549.192c1.52-1.164,1.807-1.976,1.048-3.114a6.749,6.749,0,0,0-.85-.886c1.125-.012,2.25-.05,3.375-.027a1.948,1.948,0,0,1,1.933,1.954,1.974,1.974,0,0,1-1.919,2.092C415.234,549.253,414.037,549.2,412.842,549.192Z" transform="translate(-231.45 -237.642)" fill="#c58662"/>
          <path id="Path_879041" data-name="Path 879041" d="M167.584,455.264a25.114,25.114,0,0,1-2.507,5.575,11.571,11.571,0,0,1-3.233,4,30.662,30.662,0,0,1,2.394-8.521.738.738,0,0,1,.569-.421A15.64,15.64,0,0,1,167.584,455.264Z" transform="translate(-33.793 -166.851)" fill="#ffd667"/>
          <path id="Path_879042" data-name="Path 879042" d="M396.827,474.287a16.18,16.18,0,0,1-2.128,4.889A11.187,11.187,0,0,1,396.827,474.287Z" transform="translate(-217.163 -181.831)" fill="#ffd066"/>
          <path id="Path_879043" data-name="Path 879043" d="M404.918,472.244a.417.417,0,0,1-.217.439A.492.492,0,0,1,404.918,472.244Z" transform="translate(-225.039 -180.223)" fill="#ffd066"/>
          <path id="Path_879044" data-name="Path 879044" d="M393.916,497.277a.41.41,0,0,1-.214.433A.466.466,0,0,1,393.916,497.277Z" transform="translate(-216.378 -199.936)" fill="#ffd066"/>
          <path id="Path_879045" data-name="Path 879045" d="M299.521,440.354l-.083.086c0-.019,0-.046.01-.056a.253.253,0,0,1,.069-.034Z" transform="translate(-142.146 -155.107)" fill="#d55328"/>
        </g>
      </g>
    </g>
  </g>
</svg>
