<svg xmlns="http://www.w3.org/2000/svg" width="70" height="70" viewBox="0 0 70 70">
  <g id="Group_1111715" data-name="Group 1111715" transform="translate(-268.664 -957.971)">
    <circle id="Ellipse_5614" data-name="Ellipse 5614" cx="35" cy="35" r="35" transform="translate(268.664 957.971)" fill="#fff"/>
    <g id="Group_1103449" data-name="Group 1103449" transform="translate(-1069.334 953.739)">
      <path id="Path_879362" data-name="Path 879362" d="M1392.408,198.75c-.011-.215-.031-.408-.031-.6,0-2.9.007-5.806-.01-8.708a1.131,1.131,0,0,1,.494-.983,4.522,4.522,0,0,1,3.208-1.072c.457.026.916.005,1.375.005a4.262,4.262,0,0,1,3.027,1.19,6.211,6.211,0,0,0,4.511,1.744c2.444-.027,4.889-.014,7.333,0a1.828,1.828,0,0,1,2.019,1.706,1.648,1.648,0,0,1-1.511,1.8c-.629.054-1.264.035-1.9.035-2.335,0-4.671,0-7.006,0-.217,0-.486-.051-.64.055-.239.165-.578.468-.55.668.035.257.388.672.607.674,3.316.028,6.633.035,9.948-.039a2.564,2.564,0,0,0,1.918-1.244,2.84,2.84,0,0,1,.785-.747c1.918-1.169,3.853-2.308,5.78-3.462a2.28,2.28,0,0,1,2.422-.085c.849.471.871,1.135.041,1.639-1.416.86-2.848,1.694-4.272,2.541q-6.1,3.628-12.2,7.258a5.08,5.08,0,0,1-4.145.566q-4.908-1.372-9.829-2.7C1393.348,198.874,1392.889,198.833,1392.408,198.75Z" transform="translate(-33.343 -144.383)" fill="#066454"/>
      <path id="Path_879363" data-name="Path 879363" d="M1426.029,29.892c-.686.1-1.305.213-1.931.265-2.94.244-4.939-1.269-6.446-3.578a14.848,14.848,0,0,0-2.743-3.792.622.622,0,0,1,.369-1.092,21.014,21.014,0,0,1,3.614-.464c3.656-.026,6.094,1.88,7.641,5.077.168.348.32.7.519,1.146.12-.189.2-.3.268-.424a8.047,8.047,0,0,1,8.365-4.279,17.3,17.3,0,0,1,2.374.438c.7.165.9.746.372,1.191a13.237,13.237,0,0,0-2.675,3.676,6.832,6.832,0,0,1-7.884,3.493c-.166-.033-.334-.05-.56-.082,0,2.093,0,4.142.01,6.19a.907.907,0,0,0,.223.442c.241.335.53.64.742.992a.813.813,0,0,0,.924.422c1.76-.235,2.575.2,3.281,1.781a.956.956,0,0,0,1.184.638,2.668,2.668,0,0,1,3.328,1.7c.332.685.669,1.368,1.038,2.121l-2.957,1.744a3.186,3.186,0,0,0-2.462-2.581,4.209,4.209,0,0,0-.908-.077c-2.466-.006-4.933-.018-7.4,0A4.395,4.395,0,0,1,1421.2,43.7a6.118,6.118,0,0,0-4.353-1.8,1.775,1.775,0,0,1-.325-.075,2.761,2.761,0,0,1,2.381-1.317,5.791,5.791,0,0,1,1.946.388.776.776,0,0,0,1.1-.554c.622-2.272,1.6-3.056,3.927-3.144a.706.706,0,0,0,.161-.06Z" transform="translate(-52.739)" fill="#066454"/>
      <path id="Path_879364" data-name="Path 879364" d="M1354,202.182V187.532a.443.443,0,0,1,.146-.061c1.055,0,2.11-.009,3.165,0,.319,0,.419.212.419.913q.006,6.448,0,12.895c0,.49-.068.9-.332.9C1356.274,202.189,1355.15,202.182,1354,202.182Z" transform="translate(0 -144.46)" fill="#066454"/>
    </g>
  </g>
</svg>
