<svg xmlns="http://www.w3.org/2000/svg" width="70" height="70" viewBox="0 0 70 70">
  <g id="Group_1111716" data-name="Group 1111716" transform="translate(-268.664 -958)">
    <circle id="Ellipse_5614" data-name="Ellipse 5614" cx="35" cy="35" r="35" transform="translate(268.664 958)" fill="#fff"/>
    <g id="Group_1103450" data-name="Group 1103450" transform="translate(-1493.057 956.302)">
      <path id="Path_879365" data-name="Path 879365" d="M1798.188,76.745c1.58-3.8,8.35-8.307,12.316-8.226-.849,2.861-.807,5.636.934,8.174a9.963,9.963,0,0,0,7.148,4.207c.044.9.124,1.834,1.351,1.826.72,0,.994-.47,1.175-1.828a10.29,10.29,0,0,0,6.882-3.807,17.46,17.46,0,0,1,2.214,8.934c-1.094,0-2.14-.028-3.182.009a8.737,8.737,0,0,0-2.283.242,3.636,3.636,0,0,0-2.47,4.1,3.69,3.69,0,0,0,3.5,3.121c.766.038,1.535.006,2.317.006-1.057,4.8-10.715,10.257-16.159,9.16.092-.284.2-.56.272-.844a3.741,3.741,0,0,0-3.417-4.728c-.937-.048-1.5-.542-1.51-1.321s.545-1.29,1.477-1.368a3.738,3.738,0,0,0-.263-7.471c-1.911-.015-3.823,0-5.734,0-1.038,0-1.642-.468-1.673-1.285s.543-1.332,1.572-1.421a3.719,3.719,0,0,0,.975-7.231,5.259,5.259,0,0,0-1.516-.232C1800.829,76.724,1799.541,76.745,1798.188,76.745Z" transform="translate(-16.958 -47.453)" fill="#066454"/>
      <path id="Path_879366" data-name="Path 879366" d="M1782.915,151.177c.772,0,1.545,0,2.318,0,.933.006,1.5.492,1.527,1.287s-.529,1.323-1.448,1.384a3.635,3.635,0,0,0-3.215,2.119,3.514,3.514,0,0,0,.277,3.723,3.609,3.609,0,0,0,3.113,1.642c1.932.013,3.865.043,5.795-.011,1.123-.031,1.647.585,1.691,1.27.052.8-.52,1.33-1.559,1.427a3.618,3.618,0,0,0-3.19,2.254,3.556,3.556,0,0,0,.437,3.712,3.749,3.749,0,0,0,2.925,1.518,1.27,1.27,0,0,1,1.351,1.117,1.288,1.288,0,0,1-.939,1.488.983.983,0,0,1-.606.012c-6.608-2.047-10.741-6.423-12.282-13.177a16.578,16.578,0,0,1,.635-9.248c.133-.386.3-.546.724-.53C1781.283,151.2,1782.1,151.177,1782.915,151.177Z" transform="translate(0 -119.451)" fill="#066454"/>
      <path id="Path_879367" data-name="Path 879367" d="M1916.909,30.939c0-.652-.027-1.252.015-1.847a1.093,1.093,0,0,1,.317-.589c.717-.769,1.46-1.514,2.182-2.278a1.259,1.259,0,0,0,.1-1.877,1.221,1.221,0,0,0-1.815.2,4.433,4.433,0,0,1-.689.679c-.062-1.162-.411-2.322.61-3.25a6.862,6.862,0,0,0,.906-1.167,1.2,1.2,0,0,0-.19-1.719,1.218,1.218,0,0,0-1.717.262c-.3.359-.581.741-.92,1.177-.307-.393-.584-.757-.871-1.114a1.224,1.224,0,0,0-1.75-.341,1.2,1.2,0,0,0-.193,1.766,3.875,3.875,0,0,0,.511.661,3.758,3.758,0,0,1,1.006,3.751c-.271-.272-.509-.517-.753-.756a1.208,1.208,0,1,0-1.72,1.673c.659.707,1.315,1.417,2.013,2.084a1.53,1.53,0,0,1,.548,1.35c-.042.422-.008.852-.008,1.4-.474-.108-.887-.167-1.278-.3a6.6,6.6,0,0,1-4.842-5.016,6.994,6.994,0,0,1,.907-5.075,26.231,26.231,0,0,1,4.635-5.321c.351-.345.729-.666,1.112-.975a.95.95,0,0,1,1.3-.032c2.391,2.124,4.9,4.189,6.213,7.2,1.911,4.395-.609,8.507-5.225,9.445A2.518,2.518,0,0,1,1916.909,30.939Z" transform="translate(-112.816 0)" fill="#066454"/>
      <path id="Path_879368" data-name="Path 879368" d="M2008.787,223.189a.453.453,0,0,1,.016.1c-.337,2.546-.337,2.548-2.866,2.544a8.674,8.674,0,0,1-1.341-.056,1.315,1.315,0,0,1,.1-2.588c1.174-.042,2.351-.018,3.527-.019C2008.416,223.165,2008.606,223.181,2008.787,223.189Z" transform="translate(-195.866 -182.167)" fill="#066454"/>
    </g>
  </g>
</svg>
