<svg xmlns="http://www.w3.org/2000/svg" width="70" height="70" viewBox="0 0 70 70">
  <g id="Group_1111713" data-name="Group 1111713" transform="translate(-268.664 -957.971)">
    <circle id="Ellipse_5614" data-name="Ellipse 5614" cx="35" cy="35" r="35" transform="translate(268.664 957.971)" fill="#fff"/>
    <g id="Group_1103448" data-name="Group 1103448" transform="translate(-627.505 910.271)">
      <path id="Path_879361" data-name="Path 879361" d="M931.658,101.836,914.982,85.161c.178-.016.356-.045.533-.045,1.413,0,2.827-.02,4.24.008a.889.889,0,0,0,.91-.522c1.1-1.959,2.227-3.9,3.346-5.849.114-.2.236-.391.434-.719l4.2,12.621,5.367-9.4c.15.212.274.365.374.534.582.973,1.139,1.962,1.75,2.916a.983.983,0,0,0,.678.416c1.584.036,3.169.027,4.753.015a1.374,1.374,0,0,0,1.469-1.364,1.343,1.343,0,0,0-1.461-1.364c-1.028-.017-2.056-.026-3.083,0a.839.839,0,0,1-.86-.5c-1.073-1.875-2.176-3.733-3.27-5.6-.107-.182-.221-.36-.378-.615l-4.654,8.243-4.147-12.56c-.176.277-.3.456-.407.644-1.883,3.26-3.774,6.516-5.636,9.787a.934.934,0,0,1-.96.539q-2.44-.041-4.882,0a.846.846,0,0,1-.888-.534,12.606,12.606,0,0,1,8.063-17.9,12.309,12.309,0,0,1,10.651,2.038.7.7,0,0,0,.988-.014A12.622,12.622,0,0,1,952,74.172a12.077,12.077,0,0,1-3.447,10.778c-5.543,5.627-11.158,11.183-16.744,16.767A1.627,1.627,0,0,1,931.658,101.836Z" transform="translate(0)" fill="#066454"/>
    </g>
  </g>
</svg>
