<svg xmlns="http://www.w3.org/2000/svg" width="129" height="128" viewBox="0 0 129 128">
  <g id="Group_1111723" data-name="Group 1111723" transform="translate(-4062 5724.486)">
    <g id="Grupo_108927" data-name="Grupo 108927" transform="translate(3672 -10191.486)">
      <path id="Rectángulo_36179" data-name="Rectángulo 36179" d="M0,0H129V128H0Z" transform="translate(390 4467)" fill="#c5ffee"/>
    </g>
    <g id="Group_1103462" data-name="Group 1103462" transform="translate(4176.3 -5602.187) rotate(180)">
      <path id="Path_874029" data-name="Path 874029" d="M611.629,544.4l-50.15-28.952V457.536l50.15-28.954,50.15,28.954v57.908Zm-47.884-30.26,47.884,27.645,47.884-27.645V458.844L611.629,431.2l-47.884,27.647Z" transform="translate(-561.479 -428.582)" fill="#00e489"/>
      <path id="Path_874030" data-name="Path 874030" d="M574.457,470.02v52.906l45.818,26.453,45.818-26.453V470.02l-45.818-26.453Z" transform="translate(-570.125 -438.567)" fill="#f2ffd9"/>
    </g>
    <g id="Group_1103466" data-name="Group 1103466" transform="translate(4095.16 -5691.777)">
      <rect id="Rectangle_401104" data-name="Rectangle 401104" width="62" height="63" transform="translate(-0.16 -0.223)" fill="none"/>
      <g id="Group_1103477" data-name="Group 1103477" transform="translate(-4191.872 -23.96)">
        <path id="Path_879401" data-name="Path 879401" d="M4253.711,54.752q0,13.656,0,27.311c0,2.5-1.167,3.672-3.656,3.672q-22.274,0-44.551,0c-2.411,0-3.891-1.771-3.327-3.954a3.089,3.089,0,0,1,2.931-2.249c.839-.027,1.681-.041,2.518,0,.562.03.629-.233.616-.691-.024-.9-.052-1.811.008-2.711.043-.648-.231-.725-.782-.721-3.292.022-6.586.013-9.878.01-3.8,0-5.877-2.07-5.877-5.84q0-12.833,0-25.665c0-3.624,2.073-5.7,5.693-5.7,7.394,0,14.786-.018,22.179.021.866,0,1.07-.219,1.057-1.067-.053-3.292-.026-6.585-.02-9.878,0-2.3,1.24-3.549,3.51-3.55q13.025-.005,26.052,0c2.3,0,3.526,1.215,3.527,3.508Q4253.714,41,4253.711,54.752Zm-59.86,9.669c-.013.87.026,1.745-.053,2.609s.206,1.129,1.105,1.127q20.616-.044,41.231,0c.842,0,1.086-.2,1.08-1.064-.038-6.484-.021-12.969-.021-19.454,0-1.355.031-2.711-.01-4.065a3.1,3.1,0,0,0-3.176-3.3c-1.317-.056-2.643.014-3.963.028-.192-.013-.386-.036-.579-.036q-16.078,0-32.157,0c-.161,0-.324,0-.484.009a3.044,3.044,0,0,0-3.013,3.231c-.014,2.744-.01,5.489,0,8.233Q4193.823,58.079,4193.851,64.422Zm57.726-9.684q0-13.7,0-27.409c0-1.3-.144-1.452-1.45-1.454q-12.929-.021-25.858-.034c-1.292,0-1.549.25-1.552,1.507,0,3.325.021,6.651-.019,9.976-.009.733.2.925.923.917,3.292-.037,6.585-.019,9.878-.015,3.71,0,5.726,2.024,5.727,5.747,0,8.555-.075,17.112.04,25.665a5.468,5.468,0,0,1-5.863,5.812c-3.291-.083-6.586,0-9.878-.03-.631-.005-.858.175-.82.815a19.614,19.614,0,0,1,0,2.42c-.041.654.137.939.846.885a19.848,19.848,0,0,1,2.323,0,3.038,3.038,0,0,1,3.006,3.325c-.1.834.246.784.813.782q10.17-.032,20.338-.042c1.437,0,1.55-.122,1.55-1.551Q4251.577,68.393,4251.576,54.737Zm-36.123,15.5q-10.359,0-20.718,0c-1,0-1.127.2-.718,1.132a3.121,3.121,0,0,0,3.142,1.965q17.959-.015,35.919-.009a8.205,8.205,0,0,0,1.351-.083,3.036,3.036,0,0,0,2.507-2.018c.21-.567.149-.995-.671-.947s-1.675-.037-2.513-.038Q4224.6,70.233,4215.453,70.238Zm.063,13.4v-.074q5.084,0,10.167,0c.663,0,1.055-.269,1.041-.965-.013-.656-.414-.883-1.021-.89-.677-.008-1.354-.064-2.03-.064q-8.96-.008-17.92,0a3.957,3.957,0,0,0-.868.043.958.958,0,0,0-.614,1.441c.294.5.77.511,1.269.51Q4210.528,83.629,4215.516,83.635Zm-.073-4.11v-.06c1.483,0,2.966-.009,4.449.006.422,0,.668-.077.653-.577q-.041-1.4,0-2.807c.014-.5-.227-.581-.65-.583-2.936-.014-5.87-.034-8.8-.079-.564-.009-.824.129-.793.75a24.8,24.8,0,0,1,0,2.612c-.034.621.222.763.788.75C4212.538,79.5,4213.99,79.525,4215.442,79.525Z" transform="translate(0 0)" fill="#594304"/>
        <path id="Path_879402" data-name="Path 879402" d="M4380.438,63.487q0,13.656,0,27.312c0,1.429-.113,1.548-1.549,1.551q-10.169.022-20.337.042c-.567,0-.909.052-.814-.782a3.037,3.037,0,0,0-3.005-3.325,19.838,19.838,0,0,0-2.323,0c-.709.054-.886-.231-.846-.885a19.808,19.808,0,0,0,0-2.42c-.039-.64.189-.82.82-.815,3.292.028,6.587-.052,9.878.03a5.469,5.469,0,0,0,5.864-5.812c-.116-8.554-.037-17.11-.041-25.665,0-3.723-2.016-5.742-5.727-5.747-3.293,0-6.586-.022-9.878.015-.721.008-.932-.185-.923-.917.04-3.325.015-6.65.02-9.976,0-1.258.26-1.509,1.552-1.507q12.929.013,25.858.034c1.306,0,1.45.149,1.45,1.454Q4380.439,49.783,4380.438,63.487ZM4366,37.682c-3.354,0-6.708-.009-10.062,0a1.985,1.985,0,0,0-2.271,2.24q-.01.822,0,1.645a2.122,2.122,0,0,0,2.353,2.318q10.014.016,20.028,0A2.276,2.276,0,0,0,4378.5,41.4c.006-.387,0-.774,0-1.161a2.234,2.234,0,0,0-2.535-2.552C4372.649,37.677,4369.326,37.682,4366,37.682Zm8.333,23.7a2.979,2.979,0,0,0,3.033-3.077,3.091,3.091,0,0,0-3.057-3.1,3.221,3.221,0,0,0-3.14,3.172A3.115,3.115,0,0,0,4374.337,61.385Zm-.016-14.4a3.135,3.135,0,0,0-3.147,3.031,3.235,3.235,0,0,0,3.058,3.158,3.088,3.088,0,0,0,3.139-3.121A2.986,2.986,0,0,0,4374.321,46.982Zm-10.339,41.261h0c0,.353,0,.706,0,1.059a.991.991,0,0,0,.938,1.04.922.922,0,0,0,1.082-.863,14.02,14.02,0,0,0,0-2.4.909.909,0,0,0-1-.853.969.969,0,0,0-1.014.954C4363.957,87.535,4363.982,87.89,4363.982,88.243Zm6.181.046h-.006a10.952,10.952,0,0,0-.007-1.154.959.959,0,0,0-.964-.9.922.922,0,0,0-1.038.808,7.852,7.852,0,0,0,0,2.489.927.927,0,0,0,1.031.818.991.991,0,0,0,.981-1C4370.176,89,4370.163,88.642,4370.163,88.289Zm6.2-.057c0,.322,0,.644,0,.965a1.059,1.059,0,1,0,2.115.108,10.114,10.114,0,0,0,0-2.023,1.033,1.033,0,0,0-1.152-1.044,1.02,1.02,0,0,0-.962,1.125C4376.359,87.653,4376.364,87.942,4376.364,88.232Zm-14.505.143c0-.417.033-.837-.008-1.25a.917.917,0,0,0-.967-.884.9.9,0,0,0-.993.853,16.651,16.651,0,0,0,0,2.4.911.911,0,0,0,1.005.843.936.936,0,0,0,.954-.907C4361.885,89.083,4361.861,88.728,4361.858,88.375Zm12.415,0h0c0-.385.019-.771,0-1.155a.948.948,0,0,0-.985-.976.917.917,0,0,0-1,.947c-.033.736-.033,1.477,0,2.213a.927.927,0,0,0,1.019.935.95.95,0,0,0,.959-.906A10.467,10.467,0,0,0,4374.273,88.374Z" transform="translate(-128.861 -8.75)" fill="#b28c12"/>
        <path id="Path_879403" data-name="Path 879403" d="M4202.552,133.151q-.022-6.342-.042-12.685c-.006-2.744-.01-5.489,0-8.233a3.044,3.044,0,0,1,3.013-3.231c.16-.013.323-.009.483-.009q16.08,0,32.158,0c.193,0,.386.024.579.036a17.358,17.358,0,0,1-1.348,4.309,30.729,30.729,0,0,1-12.125,14.993c-5.488,3.492-11.618,4.708-18,5.006A35.86,35.86,0,0,1,4202.552,133.151Zm14.359-20.935a.969.969,0,0,0-.554-1.036c-.558-.286-.983-.01-1.371.378q-4.954,4.958-9.911,9.911c-.512.51-.816,1.068-.217,1.668s1.165.329,1.681-.186q4.953-4.958,9.91-9.912A1.272,1.272,0,0,0,4216.911,112.216Zm-6.206-.193a.922.922,0,0,0-.6-.877,1.048,1.048,0,0,0-1.221.321q-1.947,1.938-3.887,3.883c-.5.5-.682,1.059-.127,1.6s1.113.356,1.61-.139q1.912-1.906,3.818-3.816A1.217,1.217,0,0,0,4210.705,112.023Z" transform="translate(-8.701 -68.729)" fill="#ceae57"/>
        <path id="Path_879404" data-name="Path 879404" d="M4202.474,133.106a35.866,35.866,0,0,0,4.724.187c6.38-.3,12.51-1.514,18-5.006a30.73,30.73,0,0,0,12.124-14.993,17.276,17.276,0,0,0,1.348-4.309c1.321-.014,2.646-.084,3.964-.028a3.1,3.1,0,0,1,3.175,3.3c.041,1.354.009,2.71.009,4.065,0,6.485-.018,12.969.021,19.454.005.866-.238,1.066-1.08,1.064q-20.615-.04-41.231,0c-.9,0-1.187-.249-1.106-1.127S4202.461,133.976,4202.474,133.106Z" transform="translate(-8.623 -68.684)" fill="#c49920"/>
        <path id="Path_879405" data-name="Path 879405" d="M4224.142,263.633q9.149,0,18.3,0c.838,0,1.679.087,2.514.038.819-.048.88.38.67.947a3.037,3.037,0,0,1-2.508,2.018,8.193,8.193,0,0,1-1.351.083q-17.959.006-35.918.009a3.123,3.123,0,0,1-3.143-1.965c-.408-.935-.277-1.131.719-1.132Q4213.783,263.631,4224.142,263.633Z" transform="translate(-8.688 -193.395)" fill="#b28c12"/>
        <path id="Path_879406" data-name="Path 879406" d="M4267.161,324.456q-4.989,0-9.977,0c-.5,0-.975-.012-1.269-.51a.958.958,0,0,1,.616-1.441,3.939,3.939,0,0,1,.867-.043q8.961,0,17.92,0c.677,0,1.353.057,2.03.064.606.007,1.008.234,1.021.89.014.7-.378.966-1.041.965q-5.084-.01-10.167,0Z" transform="translate(-51.645 -240.821)" fill="#b28c12"/>
        <path id="Path_879407" data-name="Path 879407" d="M4292.731,294.486c-1.451,0-2.9-.021-4.354.01-.568.012-.823-.129-.789-.75a24.537,24.537,0,0,0,0-2.612c-.032-.62.229-.758.792-.75,2.935.045,5.87.065,8.8.079.425,0,.665.088.65.583q-.038,1.4,0,2.807c.016.5-.23.582-.651.577-1.484-.015-2.968-.006-4.451-.006Z" transform="translate(-77.29 -214.961)" fill="#b28c12"/>
        <path id="Path_879408" data-name="Path 879408" d="M4374.781,50.527c3.321,0,6.644-.005,9.966,0,1.718,0,2.522.825,2.535,2.552,0,.387.006.774,0,1.161a2.275,2.275,0,0,1-2.453,2.492q-10.014.019-20.027,0a2.122,2.122,0,0,1-2.353-2.318q-.009-.822,0-1.645a1.985,1.985,0,0,1,2.271-2.24C4368.073,50.518,4371.427,50.527,4374.781,50.527Zm-.1,4.069c3.192,0,6.385-.029,9.576.02.807.013.9-.325.861-.972-.032-.583.117-1.1-.84-1.093q-9.479.066-18.959,0c-.8,0-.9.324-.861.973.032.583-.119,1.111.841,1.091C4368.428,54.556,4371.557,54.6,4374.684,54.6Z" transform="translate(-137.638 -21.595)" fill="#594304"/>
        <path id="Path_879409" data-name="Path 879409" d="M4455.921,147.126a3.116,3.116,0,0,1-3.164-3.006,3.22,3.22,0,0,1,3.14-3.172,3.091,3.091,0,0,1,3.057,3.1A2.979,2.979,0,0,1,4455.921,147.126Zm-1.086-3.047a1.054,1.054,0,1,0,2.106-.082.979.979,0,0,0-1.092-.983A1.006,1.006,0,0,0,4454.835,144.08Z" transform="translate(-210.445 -94.491)" fill="#594304"/>
        <path id="Path_879410" data-name="Path 879410" d="M4455.907,98.515a2.985,2.985,0,0,1,3.049,3.068,3.088,3.088,0,0,1-3.139,3.121,3.235,3.235,0,0,1-3.058-3.158A3.135,3.135,0,0,1,4455.907,98.515Zm-1.07,3.012a1.011,1.011,0,0,0,.983,1.1.971.971,0,0,0,1.121-.943.988.988,0,0,0-1.021-1.15A1,1,0,0,0,4454.837,101.526Z" transform="translate(-210.448 -60.283)" fill="#594304"/>
        <path id="Path_879411" data-name="Path 879411" d="M4415.621,303.009c0-.353-.026-.708.005-1.058a.97.97,0,0,1,1.015-.954.91.91,0,0,1,1,.853,13.921,13.921,0,0,1,0,2.4.921.921,0,0,1-1.081.863.99.99,0,0,1-.939-1.04c0-.353,0-.706,0-1.059Z" transform="translate(-180.499 -223.516)" fill="#594304"/>
        <path id="Path_879412" data-name="Path 879412" d="M4438.755,303.053c0,.353.014.706,0,1.059a.99.99,0,0,1-.98,1,.928.928,0,0,1-1.031-.818,7.852,7.852,0,0,1,0-2.489.923.923,0,0,1,1.037-.808.958.958,0,0,1,.964.9,10.822,10.822,0,0,1,.008,1.154Z" transform="translate(-197.454 -223.514)" fill="#594304"/>
        <path id="Path_879413" data-name="Path 879413" d="M4479.529,303.011c0-.29,0-.579,0-.869a1.019,1.019,0,0,1,.962-1.125,1.034,1.034,0,0,1,1.152,1.044,10.3,10.3,0,0,1,0,2.023,1.047,1.047,0,0,1-1.07,1.042,1.034,1.034,0,0,1-1.044-1.15C4479.527,303.654,4479.529,303.333,4479.529,303.011Z" transform="translate(-232.027 -223.529)" fill="#594304"/>
        <path id="Path_879414" data-name="Path 879414" d="M4396.354,303.188c0,.353.025.708,0,1.058a.936.936,0,0,1-.954.907.911.911,0,0,1-1.006-.843,16.722,16.722,0,0,1,0-2.4.9.9,0,0,1,.993-.853.917.917,0,0,1,.967.884C4396.387,302.351,4396.354,302.771,4396.354,303.188Z" transform="translate(-163.356 -223.563)" fill="#594304"/>
        <path id="Path_879415" data-name="Path 879415" d="M4460.385,303.2a10.468,10.468,0,0,1-.007,1.058.949.949,0,0,1-.958.906.928.928,0,0,1-1.02-.935c-.036-.736-.036-1.476,0-2.213a.918.918,0,0,1,1-.947.948.948,0,0,1,.985.976c.023.384,0,.77,0,1.155Z" transform="translate(-214.973 -223.572)" fill="#594304"/>
        <path id="Path_879416" data-name="Path 879416" d="M4225.328,120.824a1.272,1.272,0,0,1-.462.823q-4.953,4.956-9.909,9.912c-.516.516-1.092.776-1.681.186s-.295-1.158.216-1.668q4.96-4.951,9.912-9.911c.387-.388.813-.663,1.371-.378A.97.97,0,0,1,4225.328,120.824Z" transform="translate(-17.118 -77.338)" fill="#f6f6f6"/>
        <path id="Path_879417" data-name="Path 879417" d="M4219.119,120.621a1.208,1.208,0,0,1-.409.97q-1.91,1.906-3.817,3.816c-.5.5-1.065.669-1.611.139s-.37-1.1.127-1.6q1.942-1.943,3.888-3.883a1.048,1.048,0,0,1,1.221-.321A.92.92,0,0,1,4219.119,120.621Z" transform="translate(-17.116 -77.328)" fill="#f6f6f6"/>
        <path id="Path_879418" data-name="Path 879418" d="M4383.047,63.028c-3.127,0-6.256-.04-9.382.024-.96.02-.809-.508-.842-1.091-.036-.65.059-.978.862-.973q9.479.052,18.958,0c.958-.007.808.51.841,1.093.036.647-.056.984-.861.972C4389.432,63,4386.238,63.028,4383.047,63.028Z" transform="translate(-146.001 -30.027)" fill="#8c6b0c"/>
        <path id="Path_879419" data-name="Path 879419" d="M4463.48,152.668a1.006,1.006,0,0,1,1.015-1.066.979.979,0,0,1,1.092.983,1.054,1.054,0,1,1-2.106.082Z" transform="translate(-219.09 -103.079)" fill="#8c6b0c"/>
        <path id="Path_879420" data-name="Path 879420" d="M4463.479,109.929a1,1,0,0,1,1.084-.99.988.988,0,0,1,1.021,1.15.972.972,0,0,1-1.122.943A1.011,1.011,0,0,1,4463.479,109.929Z" transform="translate(-219.09 -68.686)" fill="#8c6b0c"/>
      </g>
    </g>
  </g>
</svg>
