<svg xmlns="http://www.w3.org/2000/svg" xmlns:xlink="http://www.w3.org/1999/xlink" width="129" height="128" viewBox="0 0 129 128">
  <defs>
    <clipPath id="clip-path">
      <rect id="Rectangle_400938" data-name="Rectangle 400938" width="120" height="120" fill="none"/>
    </clipPath>
  </defs>
  <g id="Group_1111719" data-name="Group 1111719" transform="translate(-387.711 -5250.15)">
    <g id="Grupo_108927" data-name="Grupo 108927" transform="translate(-2.289 783.15)">
      <path id="Rectángulo_36179" data-name="Rectángulo 36179" d="M0,0H129V128H0Z" transform="translate(390 4467)" fill="#c5ffee"/>
    </g>
    <g id="Group_1103240" data-name="Group 1103240" transform="translate(502.012 5371.964) rotate(180)">
      <path id="Path_874029" data-name="Path 874029" d="M611.629,544.4l-50.15-28.952V457.536l50.15-28.954,50.15,28.954v57.908Zm-47.884-30.26,47.884,27.645,47.884-27.645V458.844L611.629,431.2l-47.884,27.647Z" transform="translate(-561.479 -428.582)" fill="#00e489"/>
      <path id="Path_874030" data-name="Path 874030" d="M574.457,470.02v52.906l45.818,26.453,45.818-26.453V470.02l-45.818-26.453Z" transform="translate(-570.125 -438.567)" fill="#f2ffd9"/>
    </g>
    <g id="Group_1103244" data-name="Group 1103244" transform="translate(421.871 5283.373)">
      <rect id="Rectangle_401104" data-name="Rectangle 401104" width="62" height="63" transform="translate(-0.16 -0.223)" fill="none"/>
      <g id="Group_1103248" data-name="Group 1103248" transform="translate(-156.947 -256.372)">
        <path id="Path_879127" data-name="Path 879127" d="M196.618,380.563q0-7.342.007-14.684c0-.482-.216-.621-.652-.778-5.021-1.8-6.889-4.507-6.889-9.9,0-1.521-.013-3.043,0-4.564.015-1.394.5-1.958,1.878-1.863,1.258.086,1.725-.289,1.577-1.571a19.637,19.637,0,0,1-.01-2.866c.027-.838.44-1.472,1.315-1.5.89-.027,1.32.595,1.349,1.438.04,1.172.061,2.348.02,3.519-.027.753.269.986.99.96,1.172-.043,2.348-.039,3.521,0,.68.022.926-.234.9-.907-.036-1.085,0-2.173-.009-3.26-.005-.931.3-1.727,1.327-1.743s1.375.761,1.381,1.7c.006,1.087.04,2.175-.009,3.26-.034.756.274.943.987.961,2.272.058,2.5.291,2.453,2.612a39.428,39.428,0,0,1-.2,6.632,8.351,8.351,0,0,1-6.032,6.852c-1.106.345-1.331.849-1.319,1.892.051,4.6.022,9.2.138,13.839,1.03-2.132,2.391-4.042,2.523-6.61a16.369,16.369,0,0,1,12.736-15.149c5.477-1.287,10.308.218,14.518,3.84,1.137.978.9,2.056-.513,2.532a10.618,10.618,0,0,0-4.395,3.364,58.143,58.143,0,0,1-6.591,6.845,14.208,14.208,0,0,1-12.721,2.913,1.406,1.406,0,0,0-1.9.922,52.448,52.448,0,0,0-3.616,9.889,18.408,18.408,0,0,0-.14,4.414c-.013.984-.092,2-1.286,2.026s-1.414-.956-1.337-1.956c.4-5.3-1.778-9.9-3.883-14.535-.383-.843-.893-.958-1.753-.758-5.341,1.241-9.948-.218-13.923-3.9-1.982-1.836-3.689-3.924-5.49-5.927a10.253,10.253,0,0,0-4.548-3.36,1.287,1.287,0,0,1-.424-2.351,16.055,16.055,0,0,1,12.941-4.265,16.659,16.659,0,0,1,14.526,16.2,4.187,4.187,0,0,0,.183,1.544c.657,1.462,1.414,2.879,2.132,4.314Zm-6.032-9.356.169.093-.078-.183a3.574,3.574,0,0,0-.392-1.63,13.657,13.657,0,0,0-19.568-6.532c-.817.495-.569.787-.008,1.179a18.933,18.933,0,0,1,3.37,3.239,62.08,62.08,0,0,0,4.847,5.254,12.1,12.1,0,0,0,10.88,3.3c.736-.137.87-.3.381-.952a27.471,27.471,0,0,0-5.265-5.364,32.282,32.282,0,0,0-4.245-2.767c-.841-.459-1.336-1.05-.845-1.983.534-1.016,1.331-.718,2.1-.26.3.177.607.336.907.509A41.163,41.163,0,0,1,190.586,371.207Zm17.749,4.927a18.737,18.737,0,0,0,2.2-.148c4.033-.741,6.7-3.451,9.269-6.324,1.7-1.905,3.225-3.983,5.321-5.5.668-.484.76-.777-.067-1.25a13.348,13.348,0,0,0-15.446,1.182,13.05,13.05,0,0,0-4.2,5.852c-.1.282-.339.617-.055.837.319.248.525-.14.739-.325.2-.17.364-.373.557-.548a34.2,34.2,0,0,1,7.565-5.469,1.251,1.251,0,0,1,1.459-.011,1.337,1.337,0,0,1,.5,1.269c-.066.665-.592.9-1.086,1.187a28.791,28.791,0,0,0-9.4,8.067c-.406.566-.549.8.31.986A14.946,14.946,0,0,0,208.334,376.134ZM197.952,351.35c-1.779,0-3.559.016-5.338-.008-.637-.009-.96.164-.943.875.037,1.518-.069,3.043.034,4.555.205,3.007,2.6,5.608,5.217,5.8,3.768.279,6.2-1.411,7.045-4.867.419-1.717.083-3.458.219-5.181.071-.894-.223-1.233-1.157-1.2C201.339,351.4,199.644,351.35,197.952,351.35Zm7.168,19.891-.04.063.06.009Z" transform="translate(-13.8 -71.263)" fill="#c2cad3"/>
        <path id="Path_879128" data-name="Path 879128" d="M205.428,306.086c.2.819.379,1.525.546,2.233a1.308,1.308,0,0,1-.884,1.766c-.878.262-1.415-.219-1.641-1.042-.576-2.091-1.162-4.18-1.681-6.286-.272-1.105.4-1.834,1.6-1.783,2.169.094,4.336.242,6.505.346.929.045,1.545.472,1.5,1.417-.046.882-.683,1.236-1.551,1.206-.676-.023-1.353,0-2.286,0a57.4,57.4,0,0,1,4.794,4.857c14.732,17.266,9.863,44.516-9.942,55.55a36.714,36.714,0,0,1-50.655-14.5c-9.128-16.488-3.545-38.335,12.318-48.235.826-.515,1.7-1.015,2.382.014s-.111,1.653-.927,2.193a33.131,33.131,0,0,0-14.912,22.19,32.762,32.762,0,0,0,7.441,28.37c7.982,9.408,18.377,13.278,30.584,11.9a33.819,33.819,0,0,0,28.724-26.067c2.862-13.185-.925-24.336-10.743-33.5A1.491,1.491,0,0,0,205.428,306.086Z" transform="translate(0 -40.322)" fill="#c2cad3"/>
        <path id="Path_879129" data-name="Path 879129" d="M245.468,260.635c-2.4-.651-4.624-1.229-6.833-1.859-1.646-.469-1.9-1.419-.718-2.612,3-3.022,6.03-6.019,9.026-9.048a2.226,2.226,0,0,1,1.732-.706c3.086.025,6.173.015,9.26.008.637,0,1.254.043,1.522.735a1.535,1.535,0,0,1-.489,1.759c-1.519,1.493-2.976,3.051-4.533,4.5-.87.81-.5,1.048.369,1.274,2.057.536,4.106,1.1,6.164,1.634.714.185,1.34.43,1.44,1.276.093.791-.443,1.162-1.029,1.5q-12.416,7.166-24.828,14.339c-.758.438-1.5.61-2.078-.186s-.129-1.446.473-2.045q4.762-4.737,9.5-9.5C244.748,261.408,245.036,261.09,245.468,260.635Zm9.5-11.294-.127-.314c-1.9,0-3.792,0-5.687,0a1.386,1.386,0,0,0-.989.552c-2.117,2.117-4.216,4.254-6.363,6.341-.763.742-.358.93.367,1.125,1.922.515,3.851,1.011,5.756,1.582,1.688.506,1.884,1.338.65,2.574-1.358,1.359-2.74,2.694-4.112,4.039l.314.418,12.617-7.27a45.132,45.132,0,0,0-5.7-1.843c-.773-.215-1.705-.259-1.928-1.279-.193-.882.527-1.315,1.031-1.82C252.177,252.063,253.579,250.707,254.971,249.341Z" transform="translate(-64.194 0)" fill="#c2cad3"/>
        <path id="Path_879130" data-name="Path 879130" d="M202.43,422.752a41.1,41.1,0,0,0-7.743-6.095c-.3-.173-.609-.332-.907-.509-.773-.458-1.57-.756-2.1.26-.491.934,0,1.525.845,1.983a32.273,32.273,0,0,1,4.245,2.767,27.468,27.468,0,0,1,5.265,5.364c.49.656.356.815-.381.952a12.1,12.1,0,0,1-10.88-3.3,62.092,62.092,0,0,1-4.847-5.254,18.931,18.931,0,0,0-3.37-3.239c-.561-.391-.809-.684.008-1.179a13.657,13.657,0,0,1,19.568,6.532,3.575,3.575,0,0,1,.392,1.63Z" transform="translate(-25.645 -122.807)" fill="#fff"/>
        <path id="Path_879131" data-name="Path 879131" d="M319.387,427.545a14.784,14.784,0,0,1-2.326-.2c-.859-.182-.716-.42-.31-.986a28.791,28.791,0,0,1,9.4-8.067c.494-.283,1.02-.522,1.086-1.187a1.337,1.337,0,0,0-.5-1.269,1.251,1.251,0,0,0-1.459.011,34.2,34.2,0,0,0-7.565,5.469c-.193.175-.36.378-.557.548-.214.185-.42.573-.739.325-.284-.22-.044-.554.055-.837a13.05,13.05,0,0,1,4.2-5.852,13.348,13.348,0,0,1,15.446-1.182c.828.472.735.765.067,1.25-2.1,1.52-3.62,3.6-5.321,5.5-2.565,2.873-5.237,5.583-9.269,6.324A18.464,18.464,0,0,1,319.387,427.545Z" transform="translate(-124.853 -122.676)" fill="#fff"/>
        <path id="Path_879132" data-name="Path 879132" d="M270.582,375.387c1.693,0,3.387.047,5.078-.019.934-.037,1.228.3,1.157,1.2-.137,1.723.2,3.464-.219,5.181-.843,3.456-3.277,5.146-7.045,4.867-2.62-.194-5.011-2.794-5.217-5.8-.1-1.512,0-3.037-.034-4.555-.017-.711.306-.884.943-.875C267.023,375.4,268.8,375.387,270.582,375.387Z" transform="translate(-86.43 -95.3)" fill="#fff"/>
        <path id="Path_879133" data-name="Path 879133" d="M260.269,451.185l.078.183-.17-.092Z" transform="translate(-83.391 -151.332)" fill="#c7daeb"/>
        <path id="Path_879134" data-name="Path 879134" d="M315.754,451.664l.02.072-.06-.009Z" transform="translate(-124.434 -151.686)" fill="#c7daeb"/>
        <path id="Path_879135" data-name="Path 879135" d="M275.344,256.748c-1.392,1.366-2.794,2.722-4.171,4.1-.5.505-1.223.938-1.031,1.82.222,1.02,1.154,1.063,1.928,1.279a45.136,45.136,0,0,1,5.7,1.843l-12.617,7.27-.314-.418c1.372-1.345,2.754-2.68,4.112-4.039,1.234-1.235,1.038-2.068-.65-2.574-1.906-.571-3.834-1.067-5.756-1.582-.726-.194-1.131-.383-.367-1.125,2.147-2.087,4.246-4.224,6.363-6.341a1.386,1.386,0,0,1,.989-.552c1.9,0,3.791,0,5.687,0Z" transform="translate(-84.566 -7.407)" fill="#fff"/>
      </g>
    </g>
  </g>
</svg>
