<svg xmlns="http://www.w3.org/2000/svg" xmlns:xlink="http://www.w3.org/1999/xlink" width="144.33" height="144.33" viewBox="0 0 144.33 144.33">
  <defs>
    <clipPath id="clip-path">
      <rect id="Rectangle_400938" data-name="Rectangle 400938" width="144.33" height="144.33" fill="none"/>
    </clipPath>
    <clipPath id="clip-path-2">
      <rect id="Rectangle_401492" data-name="Rectangle 401492" width="77.595" height="77.596" transform="translate(-0.416 0.17)" fill="#066454" stroke="#707070" stroke-width="1"/>
    </clipPath>
  </defs>
  <g id="Group_1108708" data-name="Group 1108708" transform="translate(23057.381 3814.179)">
    <path id="Path_874343" data-name="Path 874343" d="M63.142,0A63.141,63.141,0,1,1,0,63.141,63.236,63.236,0,0,1,63.142,0Z" transform="translate(-23048.781 -3805.68)" fill="#115e01"/>
    <ellipse id="Ellipse_11531" data-name="Ellipse 11531" cx="54.429" cy="54.429" rx="54.429" ry="54.429" transform="translate(-23040.068 -3796.969)" fill="#f2ffd9"/>
    <g id="Mask_Group_1098697" data-name="Mask Group 1098697" transform="translate(-23024.424 -3780.45)" clip-path="url(#clip-path-2)">
      <g id="Group_1108710" data-name="Group 1108710" transform="translate(-750.408 31.071)">
        <path id="Path_891586" data-name="Path 891586" d="M805.537,38.265c-6.007-5.155-15.224-2.081-17.622,4.319h5.708c.389,0,.777.006,1.166,0,.7-.009,1.26.194,1.29,1,.031.852-.5,1.155-1.272,1.156q-2.8,0-5.6,0c-.739,0-1.478.025-2.215-.007a1.539,1.539,0,0,1-1.512-2.3,13.587,13.587,0,0,1,8.925-8.388c.25-.082.5-.162,1.049-.338-1.06-2.323-2.028-4.587-3.116-6.792-1.286-2.605-2.943-5.058-3.972-7.754-2.995-7.848-1.581-15.338,2.4-22.489.66-1.184,1.471-2.284,2.226-3.414.475-.711,1.034-1.377,1.994-.852.89.487.63,1.251.4,2.045C794.711-3.2,794-.86,793.478,1.522a20.59,20.59,0,0,0,1.251,12.223c1.083,2.714,2.377,5.344,3.577,8.011l.369-.148c-.489-1.5-.936-3.015-1.474-4.5C793.124,5.9,795.582-4.019,803.168-12.9c1.106-1.295,2.4-2.427,3.624-3.623a1.277,1.277,0,0,1,1.868-.239c.667.554.476,1.2.136,1.891-1.539,3.128-3.27,6.187-4.511,9.432-1.852,4.843-1.361,9.84-.22,14.8.1-.02.221-.014.236-.05,1.746-4.267,3.709-8.462,5.172-12.825a40.755,40.755,0,0,0,.785-24.092c-.25-.919-.314-1.744.7-2.16,1.029-.424,1.572.236,1.993,1.075,5.675,11.306,6.607,22.806,1.564,34.614a72.956,72.956,0,0,0-2.357,7.049c-.235.755-.511,1.376-1.4,1.177-.829-.186-.936-.9-.729-1.584a58.775,58.775,0,0,1,2.2-6.852,36.235,36.235,0,0,0,3.156-19.071c-.27-2.369-.835-4.7-1.266-7.056l-.34.039c0,.24-.012.481,0,.72a48.822,48.822,0,0,1-4.989,23.909c-1.136,2.412-1.926,4.987-2.893,7.48a7.13,7.13,0,0,0,.083,5.092,25.745,25.745,0,0,1,1.283,13.414c-.3,1.518-.752,3.007-1.177,4.5-.251.882.99,2.386,1.875,2.181.489-.113.95-.342,1.435-.477.441-.123.9-.19,1.4-.293,0-2.218.1-4.382-.038-6.53-.089-1.338-.662-2.638-.821-3.979-.283-2.386-.43-4.788-.6-7.186-.056-.777.323-1.3,1.149-1.282.783.021,1.006.58,1.044,1.281.125,2.316.272,4.63.41,6.945l.565.055c.494-2.462,1.153-4.906,1.436-7.392s.162-5.039.3-7.557c.024-.453.382-1.216.665-1.254a1.672,1.672,0,0,1,1.39.628c2.838,4.973,4.755,10.232,4.2,16.069a24.323,24.323,0,0,1-1.3,4.681c-.6,1.96-1.268,3.9-1.88,5.859a1.488,1.488,0,0,0,.574,1.684,24.343,24.343,0,0,1,3.035,3.623c.385.548.686.887,1.353.793a.413.413,0,0,1,.116,0c1.934.277,3.364-.082,4.333-2.145.888-1.891,2.813-2.931,4.922-3.835-.652-1.744-1.189-3.484-1.944-5.123a51.98,51.98,0,0,0-2.9-5.441c-5.446-8.866-5.315-17.846-.6-26.909.821-1.577,1.9-3.018,2.876-4.514a1.308,1.308,0,0,1,1.788-.623c.8.391.7,1.1.513,1.822-.758,3-1.66,5.98-2.206,9.021a18.774,18.774,0,0,0,1.461,10.485c1.223,3,2.646,5.915,3.981,8.869l.5-.087c.254-2.212.575-4.418.737-6.636.107-1.467-.076-2.953,0-4.424a4.808,4.808,0,0,1,.684-1.539c.5.266,1.216.4,1.457.817a31.235,31.235,0,0,1,4.209,12.6c.027.27.03.543.031.815,0,.718-.3,1.241-1.06,1.267s-1.008-.5-1.147-1.2c-.484-2.425-1.024-4.839-1.552-7.256a2.721,2.721,0,0,0-.232-.513c-.458,2.563-.818,5.109-1.4,7.6a5.437,5.437,0,0,0,.178,3.465,40.612,40.612,0,0,1,1.2,4.277c.39-.883.744-1.641,1.06-2.414.3-.743.771-1.236,1.6-.876.767.332.743.968.454,1.673-.6,1.47-1.143,2.966-1.749,4.434-.275.664-.135,1.026.508,1.4a9.527,9.527,0,0,1,3.979,4.441c.771,1.706.119,2.709-1.767,2.709q-20.757.005-41.515,0c-.233,0-.541.086-.685-.029-.381-.3-.944-.691-.954-1.058-.009-.345.654-1.051.921-1.006,1.9.321,2.854-.63,3.617-2.207A11.5,11.5,0,0,1,805.537,38.265ZM803.216-9.319a1.454,1.454,0,0,0-.262.2C797.5-1.563,795.9,6.63,799,15.545a50.341,50.341,0,0,1,2.985,12.046c.187,2.113.21,4.24.31,6.413l1.5.539a22.666,22.666,0,0,0,1-13.836c-.945-3.917-2.117-7.779-3.039-11.7a27.252,27.252,0,0,1-.273-12.58C801.93-5.482,802.61-7.337,803.216-9.319Zm33.12,45.4a39.381,39.381,0,0,0-1.3-5.893c-1.025-2.669-2.4-5.206-3.665-7.781-1.973-4.016-3.948-8.053-4.365-12.576-.226-2.451-.04-4.939-.04-7.411a1.283,1.283,0,0,1-.184.677,23.29,23.29,0,0,0,1.724,21.55c1.63,2.761,2.915,5.73,4.294,8.634a23.185,23.185,0,0,1,.934,2.8Zm-36.283-2.6c-.079-.9-.1-1.672-.222-2.426a26.594,26.594,0,0,0-3.16-7.962C793,16.151,789.564,9.131,791.435.677c-1.118,1.591-2.215,5.741-2.38,8.372a23.929,23.929,0,0,0,3.435,13.784c1.531,2.643,2.816,5.431,4.164,8.177a23.007,23.007,0,0,1,.894,2.477Zm14.838,2.991a49.923,49.923,0,0,1,1.937-5.825,14.9,14.9,0,0,0,1.357-9.272c-.361-1.936-.935-3.833-1.413-5.747l-.371.073a35.067,35.067,0,0,1-2.539,11.849,14.094,14.094,0,0,0-1.039,6.705C812.979,36.2,812.957,36.207,814.891,36.479Zm-9.737,6.013h13.561a7.557,7.557,0,0,0-7.055-4.174C808.794,38.425,805.9,40.255,805.154,42.493Zm22.8,0h13.9a7.893,7.893,0,0,0-13.9,0Z" transform="translate(-22.478)" fill="#066454"/>
        <path id="Path_891587" data-name="Path 891587" d="M999.742,106.139a4.043,4.043,0,1,1-4.021-3.973A4.023,4.023,0,0,1,999.742,106.139Zm-2.229.1a1.845,1.845,0,0,0-1.787-1.9,1.825,1.825,0,0,0-1.818,1.736,1.8,1.8,0,1,0,3.6.161Z" transform="translate(-180.692 -101.261)" fill="#066454"/>
        <path id="Path_891588" data-name="Path 891588" d="M755.993,203.1a4,4,0,1,1,8,.113,4,4,0,1,1-8-.113Zm5.849.016a1.912,1.912,0,0,0-1.9-1.813,1.822,1.822,0,0,0,.034,3.643A1.88,1.88,0,0,0,761.842,203.116Z" transform="translate(0 -175.592)" fill="#066454"/>
        <path id="Path_891589" data-name="Path 891589" d="M941.257,231.938a4.018,4.018,0,1,1-4.1-4A4.006,4.006,0,0,1,941.257,231.938Zm-3.977-1.8a1.82,1.82,0,0,0-.136,3.637,1.82,1.82,0,1,0,.136-3.637Z" transform="translate(-135.889 -197.696)" fill="#066454"/>
        <path id="Path_891590" data-name="Path 891590" d="M948.127,29.4a4.019,4.019,0,1,1-3.992-4A4.04,4.04,0,0,1,948.127,29.4Zm-2.2.053a1.821,1.821,0,0,0-3.639-.1,1.82,1.82,0,1,0,3.639.1Z" transform="translate(-141.154 -42.4)" fill="#066454"/>
      </g>
    </g>
  </g>
</svg>
