<svg xmlns="http://www.w3.org/2000/svg" xmlns:xlink="http://www.w3.org/1999/xlink" width="144.33" height="144.33" viewBox="0 0 144.33 144.33">
  <defs>
    <clipPath id="clip-path">
      <rect id="Rectangle_400938" data-name="Rectangle 400938" width="144.33" height="144.33" fill="none"/>
    </clipPath>
    <clipPath id="clip-path-2">
      <rect id="Rectangle_401492" data-name="Rectangle 401492" width="77.595" height="77.596" transform="translate(-0.096 0.17)" fill="#066454" stroke="#707070" stroke-width="1"/>
    </clipPath>
  </defs>
  <g id="Group_1108706" data-name="Group 1108706" transform="translate(23057.381 3814.179)">
    <path id="Path_874343" data-name="Path 874343" d="M63.142,0A63.141,63.141,0,1,1,0,63.141,63.236,63.236,0,0,1,63.142,0Z" transform="translate(-23048.781 -3805.68)" fill="#115e01"/>
    <ellipse id="Ellipse_11531" data-name="Ellipse 11531" cx="54.429" cy="54.429" rx="54.429" ry="54.429" transform="translate(-23040.068 -3796.969)" fill="#f2ffd9"/>
    <g id="Mask_Group_1098697" data-name="Mask Group 1098697" transform="translate(-23024.424 -3780.45)" clip-path="url(#clip-path-2)">
      <g id="Group_1108709" data-name="Group 1108709" transform="translate(-471.024 30.696)">
        <path id="Path_891585" data-name="Path 891585" d="M522.428-27.525a13.526,13.526,0,0,1,1.306,13.389,12.507,12.507,0,0,1-7.208,6.971,1.861,1.861,0,0,0-1.257,1.351c-.395,1.373-.868,2.723-1.393,4.343,1.13-.985,2-1.824,2.953-2.56A19.76,19.76,0,0,1,532.574-8a1.532,1.532,0,0,1,1.489,1.493c.085.919.24,1.832.306,2.752.052.72-.262,1.254-1.054,1.269-.736.014-1.018-.489-1.077-1.154-.006-.074,0-.148-.01-.222-.154-2.295-.155-2.295-2.47-2.344A18.141,18.141,0,0,0,511.2,9.553a24.879,24.879,0,0,0-.018,3.183c.313-.373.557-.653.79-.941A52.558,52.558,0,0,1,523.815.541c.278-.182.573-.338.85-.521.584-.385,1.134-.393,1.532.23.431.673.117,1.133-.472,1.576a63.455,63.455,0,0,0-6.1,4.767c-2.646,2.557-5.033,5.382-7.531,8.092l.2.374c1.325,0,2.65.025,3.973-.027.2-.008.435-.344.573-.577A13.632,13.632,0,0,1,528.265,7.5a1.442,1.442,0,0,0,1.022-.635c.79-1.536,1.49-3.119,2.213-4.689a4.069,4.069,0,0,0,.2-.633c.185-.676.6-1.032,1.309-.83a.977.977,0,0,1,.671,1.409c-.575,1.553-1.218,3.082-1.848,4.614-.135.329-.329.632-.533,1.017.281.089.483.154.687.216,2.317.705,2.422.866,2.148,3.3a13.425,13.425,0,0,1-17.1,11.326,1.28,1.28,0,0,0-1.656.521,21.413,21.413,0,0,0-4.215,10.269c2.4.183,4.759.3,7.1.552a50.045,50.045,0,0,1,18.5,5.352,10.252,10.252,0,0,1,2.21,1.458,2.321,2.321,0,0,1,.553,1.542c0,.163-.825.491-1.273.492q-27.949.038-55.9-.008c-.491,0-1.263-.342-1.392-.706a1.606,1.606,0,0,1,.648-1.4c2.208-1.255,4.472-2.415,6.745-3.549a.954.954,0,0,1,1.456.535c.237.684-.063,1.116-.715,1.389a17.243,17.243,0,0,0-3.191,1.654h48.613c-2.618-2.517-17.9-5.78-23.451-4.965,0,.6,0,1.214,0,1.831,0,.731-.183,1.386-1.06,1.39-.861,0-1.092-.6-1.076-1.364.013-.617,0-1.235,0-2.065-2.454.178-4.773.25-7.065.538-2.377.3-4.733.776-7.085,1.24-.778.153-1.38.064-1.569-.74-.2-.85.412-1.139,1.131-1.314a70.328,70.328,0,0,1,13.272-1.73c.4-.019.8-.042,1.235-.065a21.039,21.039,0,0,0-2.146-7.593c-.333-.672-.788-.632-1.368-.514A15.988,15.988,0,0,1,486.169,8.973a1.719,1.719,0,0,1,1.452-1.782c8.44-2.484,17.9,2.953,19.884,11.513.306,1.319.318,2.7.5,4.053.116.836.306,1.661.463,2.491l.358-.049V8.48a48.22,48.22,0,0,1-5.685-.952c-7.761-2.245-12.363-7.551-14.381-15.251-.173-.659-.027-1.212.7-1.388.925-.225,1.208.374,1.4,1.143A18.194,18.194,0,0,0,501.211,4.693a17.344,17.344,0,0,0,6.748,1.5c-.292-.543-.5-.95-.725-1.346a65.313,65.313,0,0,0-8.769-11.812c-.15-.163-.306-.321-.456-.485A.978.978,0,0,1,498.047-9a.95.95,0,0,1,1.466.141c1.324,1.492,2.746,2.914,3.923,4.515,1.966,2.674,3.771,5.467,5.644,8.209l.512.753a17.294,17.294,0,0,0-.662-9.636,18.309,18.309,0,0,0-16.746-12.071c-.883-.013-1.289.259-1.373,1.128-.071.733-.239,1.456-.331,2.187-.09.715-.485,1.087-1.185,1.012a.922.922,0,0,1-.853-1.19,32.4,32.4,0,0,1,.845-4.106,1.859,1.859,0,0,1,1.34-1c9.448-.841,18.911,6.19,20.9,15.46.081.381.18.758.349,1.463.6-1.819,1.11-3.314,1.567-4.826a1.123,1.123,0,0,0-.2-.8A13.528,13.528,0,0,1,518.659-27.3c.088-.041.147-.146.219-.221ZM505.474,20.686C504.9,13.1,496.953,7.192,488.914,9.02c-.761.173-.663.644-.66,1.153a14.1,14.1,0,0,0,9.984,12.861,14.559,14.559,0,0,0,6.788.232c-.316-.426-.516-.724-.745-1a23.543,23.543,0,0,0-8.061-6.274c-.751-.36-1.507-.724-1-1.706.488-.941,1.247-.487,1.916-.168a25.464,25.464,0,0,1,7.645,5.583A8.129,8.129,0,0,1,505.474,20.686Zm12.335-.151c5.742,2.263,14.035-2.456,14.264-10.238-5.6-2.361-12.938,1.671-14.16,7.18,1.8-1.015,3.635-2.086,5.505-3.092.711-.382,1.623-1.034,2.159.148s-.6,1.377-1.321,1.725A24.486,24.486,0,0,0,517.809,20.536ZM514.467-10.1c.154-.4.288-.724.409-1.057q1.561-4.314,3.117-8.629c.254-.705.585-1.381,1.493-1.046.981.362.724,1.123.445,1.85-.54,1.411-1.089,2.819-1.6,4.242-.6,1.682-1.166,3.379-1.793,5.2,5.929-2.368,8.206-11.229,4.376-16.312C514.586-24.286,511.01-15.73,514.467-10.1ZM515.6,17.333l-4.436-.217v8.576a38.984,38.984,0,0,1,3.021-4.277C515.3,20.2,515.35,18.808,515.6,17.333Z" transform="translate(0 0)" fill="#066454"/>
      </g>
    </g>
  </g>
</svg>
