<svg xmlns="http://www.w3.org/2000/svg" width="108" height="108" viewBox="0 0 108 108">
  <g id="Group_1111706" data-name="Group 1111706" transform="translate(-585.711 -1642)">
    <circle id="Ellipse_11601" data-name="Ellipse 11601" cx="54" cy="54" r="54" transform="translate(585.711 1642)" fill="#fff"/>
    <g id="Group_1103506" data-name="Group 1103506" transform="translate(605.836 1659.852)">
      <rect id="Rectangle_401104" data-name="Rectangle 401104" width="72" height="73" transform="translate(3.875 0.148)" fill="none"/>
      <g id="Group_1103199" data-name="Group 1103199" transform="translate(5.816 2.952)">
        <rect id="Rectangle_401104-2" data-name="Rectangle 401104" width="68" height="69" transform="translate(0.059 -0.804)" fill="none"/>
        <g id="Group_1103210" data-name="Group 1103210" transform="translate(-147.581 -270.37)">
          <path id="Path_878985" data-name="Path 878985" d="M307.736,273.256a14.693,14.693,0,0,1,12.849,6.992,1.694,1.694,0,0,0,1.429.858,11.365,11.365,0,0,1,9.867,7.044,1.115,1.115,0,0,0,.809.777,9.488,9.488,0,0,1-2.209,18.779c-6.226.02-12.453.008-18.679,0-1.352,0-2.7-.032-4.056-.05Q307.742,290.458,307.736,273.256Z" transform="translate(-127.539)" fill="#454e53"/>
          <path id="Path_878986" data-name="Path 878986" d="M180.381,273.256q.006,17.2.012,34.4c-3.824.015-7.648.036-11.472.044s-7.651.032-11.475-.007a9.5,9.5,0,0,1-9.573-9.814,9.616,9.616,0,0,1,7.312-8.917,1.335,1.335,0,0,0,1.1-.852,11.4,11.4,0,0,1,9.9-7.018,1.6,1.6,0,0,0,1.356-.813A14.708,14.708,0,0,1,180.381,273.256Z" transform="translate(-0.184 0)" fill="#5b6f75"/>
          <path id="Path_878987" data-name="Path 878987" d="M415.108,475.188a6.7,6.7,0,0,1-11.882,4.239,6.63,6.63,0,0,1-.659-7.587c1.283-2.222,2.683-4.378,4.031-6.563.461-.748.937-1.487,1.378-2.247.28-.482.5-.593.835-.041,1.845,3.031,3.721,6.043,5.548,9.084A5.637,5.637,0,0,1,415.108,475.188Z" transform="translate(-202.374 -150.855)" fill="#3195d5"/>
          <path id="Path_878988" data-name="Path 878988" d="M330.43,475.252a6.7,6.7,0,0,1-13.277,1.349,6.326,6.326,0,0,1,.822-4.674c1.729-2.871,3.517-5.706,5.244-8.578.448-.744.685-.6,1.072.034,1.689,2.775,3.409,5.531,5.117,8.295A6.213,6.213,0,0,1,330.43,475.252Z" transform="translate(-134.931 -151.034)" fill="#3195d5"/>
          <path id="Path_878989" data-name="Path 878989" d="M161.1,475.347a6.722,6.722,0,0,1-11.729,4.267,6.47,6.47,0,0,1-.958-7.453c1.763-3.114,3.717-6.12,5.583-9.177.28-.459.5-.468.79,0,1.833,3,3.7,5.976,5.506,8.986A6.028,6.028,0,0,1,161.1,475.347Z" transform="translate(0 -150.867)" fill="#4eb5ea"/>
          <path id="Path_878990" data-name="Path 878990" d="M232.657,475.135a6.047,6.047,0,0,1,1.015-3.439c1.7-2.765,3.428-5.518,5.115-8.293.413-.68.668-.7,1.086-.006,1.665,2.75,3.369,5.476,5.047,8.219a6.743,6.743,0,0,1-5.988,10.451A6.727,6.727,0,0,1,232.657,475.135Z" transform="translate(-67.724 -151.066)" fill="#4eb5ea"/>
          <path id="Path_878991" data-name="Path 878991" d="M217.653,463.409c0,1.84,0,1.84-1.89,1.84-1.971,0-1.971,0-1.971-1.963,0-1.89,0-1.89,1.841-1.89C217.653,461.4,217.653,461.4,217.653,463.409Z" transform="translate(-52.7 -149.879)" fill="#80cdf2"/>
          <path id="Path_878992" data-name="Path 878992" d="M382.852,463.273c0-1.875,0-1.875,1.857-1.875,2,0,2,0,2,2.031,0,1.823,0,1.823-1.806,1.823h-.1C382.852,465.253,382.852,465.253,382.852,463.273Z" transform="translate(-187.379 -149.881)" fill="#4eb5ea"/>
          <path id="Path_878993" data-name="Path 878993" d="M217.653,559.162c0,1.923,0,1.923-1.913,1.923-1.948,0-1.948,0-1.948-1.991,0-1.873,0-1.873,1.864-1.873h.1C217.653,557.221,217.653,557.221,217.653,559.162Z" transform="translate(-52.7 -226.217)" fill="#80cdf2"/>
          <path id="Path_878994" data-name="Path 878994" d="M386.713,559.067c0,1.974,0,1.974-1.965,1.974-1.9,0-1.9,0-1.9-1.941,0-1.925,0-1.925,1.914-1.925h.1C386.713,557.175,386.713,557.175,386.713,559.067Z" transform="translate(-187.379 -226.18)" fill="#4eb5ea"/>
          <path id="Path_878995" data-name="Path 878995" d="M300.562,464.99c-1.863.089-1.863.089-1.863-1.735,0-2.071,0-2.09,2.048-2.089.547,0,1.141-.218,1.648.19a4.891,4.891,0,0,1-.71,0c-.864-.124-1.245.166-1.152,1.1C300.615,463.292,300.558,464.144,300.562,464.99Z" transform="translate(-120.34 -149.65)" fill="#80cdf2"/>
          <path id="Path_878996" data-name="Path 878996" d="M300.552,561.031c-1.873.163-1.873.163-1.873-1.712,0-.1,0-.2,0-.3.053-1.954-.4-1.807,1.851-1.776Q300.542,559.134,300.552,561.031Z" transform="translate(-120.321 -226.218)" fill="#80cdf2"/>
          <path id="Path_878997" data-name="Path 878997" d="M307.825,561q-.011-1.9-.021-3.793c2.3-.059,1.812-.15,1.86,1.742.016.639-.017,1.279-.028,1.919l-.211.152Z" transform="translate(-127.593 -226.186)" fill="#4eb5ea"/>
          <path id="Path_878998" data-name="Path 878998" d="M307.693,465.846c0-.846.053-1.7-.03-2.535-.092-.935.289-1.224,1.152-1.1a4.89,4.89,0,0,0,.71,0c.007.838-.044,1.681.035,2.512.088.928-.238,1.306-1.166,1.158A6.378,6.378,0,0,0,307.693,465.846Z" transform="translate(-127.47 -150.506)" fill="#4eb5ea"/>
          <path id="Path_878999" data-name="Path 878999" d="M315.773,575.452l.211-.152Z" transform="translate(-133.942 -240.619)" fill="#80cdf2"/>
        </g>
      </g>
    </g>
  </g>
</svg>
