<svg xmlns="http://www.w3.org/2000/svg" xmlns:xlink="http://www.w3.org/1999/xlink" width="295" height="260.284" viewBox="0 0 295 260.284">
  <defs>
    <clipPath id="clip-path">
      <path id="Path_879315" data-name="Path 879315" d="M352.932,268.062a8.639,8.639,0,0,1,1.581-3.309l11,1.353C362.79,268,358.395,269.25,352.932,268.062Z" transform="translate(-352.932 -264.753)" fill="#b5dfc4"/>
    </clipPath>
    <clipPath id="clip-path-2">
      <path id="Path_879317" data-name="Path 879317" d="M376.393,276.443c2.881-10.925,8.851-12.28,18.691-9.325C389.709,281.315,376.393,276.443,376.393,276.443Z" transform="translate(-376.393 -265.762)" fill="none"/>
    </clipPath>
    <clipPath id="clip-path-3">
      <path id="Rectangle_403445" data-name="Rectangle 403445" d="M0,0H37.169a5.817,5.817,0,0,1,5.817,5.817v0a5.817,5.817,0,0,1-5.817,5.817H0a0,0,0,0,1,0,0V0A0,0,0,0,1,0,0Z" transform="translate(42.986 11.634) rotate(180)" fill="none"/>
    </clipPath>
  </defs>
  <g id="Group_1103230" data-name="Group 1103230" transform="translate(-285.332 -3635.217)">
    <rect id="Rectangle_401121" data-name="Rectangle 401121" width="295" height="193" rx="30" transform="translate(285.332 3702)" fill="#c5ffee"/>
    <g id="Group_1103440" data-name="Group 1103440" transform="translate(249.499 3573.956)">
      <g id="Group_1103363" data-name="Group 1103363" transform="translate(41.85 79.637)">
        <path id="Path_879199" data-name="Path 879199" d="M307.733,238.748c-10.446,29.85-35.4,54.955-66.077,62.657-31.6,7.935-65.18-2.614-93.48-18.757-17.577-10.027-34.08-22.394-46.718-38.2s-21.242-35.274-21.932-55.5c-.9-26.235,11.844-51.966,31.344-69.54S156.044,92,182.1,88.827c21.681-2.637,44.186-.786,64.345,7.618C302.04,119.621,327.451,182.4,307.733,238.748Z" transform="translate(-55.436 -87.713)" fill="#00e489"/>
        <path id="Path_879200" data-name="Path 879200" d="M439.2,174.859a29.156,29.156,0,0,0-11.841-16.376c-2.873-1.911-7.11-3.137-9.476-.626-1.675,1.778-1.514,4.553-1.186,6.973a146.03,146.03,0,0,0,4.075,19.713c1.3,4.65,2.738,12.733,7.382,15.424C439.342,206.453,440.782,180.627,439.2,174.859Z" transform="translate(-160.34 -109.107)" fill="#00e489"/>
        <path id="Path_879201" data-name="Path 879201" d="M59.8,240.119c.708,13.627,4.759,27.978,14.462,37.574,6.219,6.151,5.747,11.948-2.981,10.424-15.119-2.64-22.708-17.274-25.824-30.886-2.8-12.239,1.179-33.874,9.624-36.94C60.2,218.433,59.5,234.2,59.8,240.119Z" transform="translate(-44.569 -128.935)" fill="#00e489"/>
      </g>
      <g id="Group_1103394" data-name="Group 1103394" transform="translate(130.047 95.804)">
        <g id="Group_1103364" data-name="Group 1103364" transform="translate(3.221 154.991)">
          <path id="Path_879202" data-name="Path 879202" d="M262.923,406.229H177.307s5.094-44.553,20.3-70h50.8S266.978,354.591,262.923,406.229Z" transform="translate(-177.307 -336.231)" fill="#38474f"/>
        </g>
        <g id="Group_1103365" data-name="Group 1103365" transform="translate(28.895 158.534)">
          <path id="Path_879203" data-name="Path 879203" d="M253.955,341.378c-6.488.449-12.955.85-19.462.942q-9.737.138-19.471-.318c-.587-.026-.578.867,0,.907q9.721.668,19.471.686c.871,0,1.745,0,2.618-.008,0,.027-.011.046-.009.074.29,3.72.621,7.438.94,11.156.2,2.309.1,7.542,3.833,6.754a.781.781,0,0,0,.58-.751c-.389-5.752-.555-11.517-.534-17.282,4.019-.065,8.039-.2,12.034-.474C255.034,342.991,255.041,341.3,253.955,341.378ZM240.871,360c-.968-.416-1.019-2.417-1.091-3.214q-.19-2.132-.381-4.265c-.264-2.954-.521-5.908-.808-8.86a.738.738,0,0,0-.023-.078c.727,0,1.455-.015,2.182-.024Q240.493,351.78,240.871,360Z" transform="translate(-214.585 -341.375)" fill="#263238"/>
          <path id="Path_879204" data-name="Path 879204" d="M259.132,420.112c-.306-3.134-.667-13.32-1.107-16.441a145.741,145.741,0,0,0-3.614-18.537c-1.028-3.718-1.957-4.468-2.227.427-.264,4.788-.307,9.588-.374,14.376-.053,4.508.041,16.067.067,20.575h7.295Z" transform="translate(-226.167 -354.058)" fill="#263238"/>
        </g>
        <path id="Path_879205" data-name="Path 879205" d="M291.285,375.8s-12.508,6.148-18.11,3.481c-9.068-4.307-8.482-12.029-11.269-56.01l11.856-28.686c-1.6,14.643,5.041,24.4,10.6,39.448.187.494.373,1,.56,1.507.373,1.067.747,2.147,1.107,3.267l.32,1A113.093,113.093,0,0,1,291.285,375.8Z" transform="translate(-200.42 -168.275)" fill="#ebebeb"/>
        <path id="Path_879206" data-name="Path 879206" d="M220.026,327.842c2.826,26.372.25,50.194-6.26,54.745-7.674,5.363-35.4-2.15-35.4-2.15,9.018-54.951,26.215-71.147,26.215-71.147Z" transform="translate(-174.415 -172.854)" fill="#ebebeb"/>
        <path id="Path_879207" data-name="Path 879207" d="M255.286,152.563a47.136,47.136,0,0,0,10.6,28.863c3.056,3.723,6.822,7.218,7.915,11.909.971,4.165-.419,8.612-2.852,12.129s-5.822,6.249-9.25,8.807l-9.917,1.21-7.473-61.225Z" transform="translate(-194.943 -124.067)" fill="#263238"/>
        <path id="Path_879208" data-name="Path 879208" d="M219.817,127.746c-47.32,1.21-18.464,45.233-32.347,57.769-9.813,8.862-6.743,21.138-6.743,21.138C188.3,194.872,225,211.5,223.212,185.42l-16.625-23.09Z" transform="translate(-175.009 -116.342)" fill="#263238"/>
        <g id="Group_1103366" data-name="Group 1103366" transform="translate(5.355 60.997)">
          <path id="Path_879209" data-name="Path 879209" d="M268.233,201.218c24.546.065,64.606.979,64.606.979l1.559,32.83c-34.523,7.038-56.549,9.656-56.549,9.656Z" transform="translate(-207.745 -200.21)" fill="#ebebeb"/>
          <path id="Path_879210" data-name="Path 879210" d="M248.183,202.66c.5-2.811-18.174-1.787-18.174-1.787l-15.8-1.12s-32.506,10.818-33.573,15.632c-.853,3.854-.11,42.853,16.775,78.359h52.913c-7.234-38.926,7.794-36.346,8.415-49.519C259.365,230.895,244.77,221.688,248.183,202.66Z" transform="translate(-180.406 -199.754)" fill="#ebebeb"/>
          <path id="Path_879211" data-name="Path 879211" d="M272.608,224.768c-3.1-6.657-6.914-12.966-10.363-19.44-.154-.287-.572-.041-.435.247,3.147,6.646,5.946,13.486,9.448,19.96C271.739,226.424,273.024,225.661,272.608,224.768Z" transform="translate(-205.737 -201.449)" fill="#dbdbdb"/>
          <path id="Path_879212" data-name="Path 879212" d="M270.4,258.658a80.66,80.66,0,0,0-1.6,9.015c-.475,2.966-.91,5.937-1.351,8.909-.89,6-1.735,12.007-2.653,18-.523,3.415-.967,6.836-1.447,10.256-.071.506.689.729.786.207,2.231-12,4.489-24,6.488-36.038a90.254,90.254,0,0,0,1.518-10.126A.889.889,0,0,0,270.4,258.658Z" transform="translate(-206.223 -217.892)" fill="#dbdbdb"/>
          <path id="Path_879213" data-name="Path 879213" d="M222.4,279.853q-1.073-5.984-2.517-11.893a193.268,193.268,0,0,0-7.173-23.062c-1.451-3.806-2.988-7.592-4.677-11.3,3.229-.393,6.448-.864,9.678-1.253a.737.737,0,0,0,.186-1.443,50.953,50.953,0,0,1-5.649-2.89c-1.587-.873-3.131-1.813-4.645-2.806a67.474,67.474,0,0,0,5.1-15.852c.1-.528-.683-.747-.816-.214a74.826,74.826,0,0,1-6.165,15.959.906.906,0,0,0,.331,1.2,52.364,52.364,0,0,0,5.433,3.372c1.032.551,2.094,1.016,3.165,1.462-2.684.215-5.369.415-8.048.688a1,1,0,0,0-.853,1.464,194.321,194.321,0,0,1,14.465,45.4c.817,4.433,1.285,8.931,2.205,13.342a.774.774,0,0,0,1.517-.2A78.517,78.517,0,0,0,222.4,279.853Z" transform="translate(-188.251 -202.58)" fill="#dbdbdb"/>
          <path id="Path_879214" data-name="Path 879214" d="M289.235,247.731a31.107,31.107,0,0,0-4.8-12.957c-1.4-2.274-2.9-4.482-4.3-6.752a60.8,60.8,0,0,1-3.669-7.041c-.057-.126-.253-.03-.218.1,1.265,4.462,3.862,8.517,6.027,12.582,2.23,4.186,4.424,8.521,5.143,13.262a17.4,17.4,0,0,1-.276,6.917,21.394,21.394,0,0,1-2.751,5.858c-1.187,1.914-2.524,3.736-3.6,5.72a32.241,32.241,0,0,0-2.567,6.239,27.38,27.38,0,0,0-.4,14.964.471.471,0,0,0,.919-.145,41.527,41.527,0,0,1,.961-13.747,32.276,32.276,0,0,1,2.508-6.556c1.038-2,2.287-3.874,3.484-5.779a26.1,26.1,0,0,0,2.905-5.917A16.782,16.782,0,0,0,289.235,247.731Z" transform="translate(-210.239 -206.343)" fill="#dbdbdb"/>
        </g>
        <path id="Path_879215" data-name="Path 879215" d="M250.608,295.255h-15.87c-1.413-18.75-6.855-40.261-8.188-54.623-1.307-14.23-.84-33.514-.84-33.514l20.726-2.513s1.8,10.648,7.6,31.319C257.929,249.78,248.261,256.474,250.608,295.255Z" transform="translate(-189.127 -140.267)" fill="#96d1ab"/>
        <path id="Path_879216" data-name="Path 879216" d="M255.123,275.042c-.107.454-.2.92-.293,1.4-6.2,1.587-12.429,3.041-18.71,4.2-1.707.32-3.428.614-5.134.88-.094-.587-.2-1.16-.293-1.734A245.251,245.251,0,0,0,255.123,275.042Z" transform="translate(-190.704 -162.193)" fill="#b5dfc4"/>
        <path id="Path_879217" data-name="Path 879217" d="M246.12,171.136l-.371,8.251-.424,9.492-.1,4.972a10.386,10.386,0,0,1-9.968,10.161h0a10.386,10.386,0,0,1-10.76-9.439l-2.663-29.316Z" transform="translate(-187.945 -128.019)" fill="#ac635b"/>
        <path id="Path_879218" data-name="Path 879218" d="M248.05,182.553l-.6,11.234c-11.081,1.145-16.367-5.566-18.791-12.424C233.278,180.153,248.05,182.553,248.05,182.553Z" transform="translate(-190.071 -132.926)" fill="#824645"/>
        <path id="Path_879219" data-name="Path 879219" d="M250.63,141.4c-.167-16.362-16.753-21.494-28.452-12.369-8.574,2.046-18.517,14.9-8.1,29.6Z" transform="translate(-184.142 -115.345)" fill="#263238"/>
        <path id="Path_879220" data-name="Path 879220" d="M246.187,132.118a12.666,12.666,0,0,0-7.683-2.906c-7.378-.479-16.108,3.672-19.928,8.857-5.583,7.577-4.317,16.984.612,24.175a26.448,26.448,0,0,0,8.785,8.143c6.128,3.472,14.177,4.515,20.022.587,4.223-2.825,6.655-7.858,7.187-12.92C256.089,149.5,252.858,137.941,246.187,132.118Z" transform="translate(-185.79 -116.787)" fill="#ac635b"/>
        <path id="Path_879221" data-name="Path 879221" d="M233.208,130.743c8.3-1.161,18.4,1.62,24.557,8.952C253.124,123.536,239.119,125.871,233.208,130.743Z" transform="translate(-191.487 -116.15)" fill="#263238"/>
        <path id="Path_879222" data-name="Path 879222" d="M228.24,129.894c4.167,13.356-5.411,28.407-11.22,31.144C199.653,153.332,211.261,133.895,228.24,129.894Z" transform="translate(-183.771 -117.011)" fill="#263238"/>
        <path id="Path_879223" data-name="Path 879223" d="M263.982,155.081a1.85,1.85,0,0,1-.541,2.409c-.713.336-1.626-.2-2.039-1.191a1.85,1.85,0,0,1,.541-2.408C262.656,153.555,263.569,154.088,263.982,155.081Z" transform="translate(-200.2 -124.449)" fill="#263238"/>
        <path id="Path_879224" data-name="Path 879224" d="M247.93,161.14a1.85,1.85,0,0,1-.542,2.408c-.713.337-1.625-.2-2.039-1.19a1.85,1.85,0,0,1,.542-2.408C246.6,159.614,247.516,160.147,247.93,161.14Z" transform="translate(-195.203 -126.335)" fill="#263238"/>
        <path id="Path_879225" data-name="Path 879225" d="M258,160.522c-1.545-2.249-3.195-4.4-4.873-6.548-.163-.209-.5-.006-.354.224,1.22,1.854,2.45,3.678,3.754,5.478a9.07,9.07,0,0,1,1.716,2.842,2.684,2.684,0,0,1-.758,2.354.271.271,0,0,0,.21.448,1.777,1.777,0,0,0,1.447-1.723A5.066,5.066,0,0,0,258,160.522Z" transform="translate(-197.566 -124.48)" fill="#263238"/>
        <path id="Path_879226" data-name="Path 879226" d="M212.593,169.637c-2.388-.35-5.1.506-6.291,2.606a7.151,7.151,0,0,0-.069,5.842,12.037,12.037,0,0,0,4.593,6.1,8.761,8.761,0,0,0,7.431,1.121,6.915,6.915,0,0,0,4.7-5.652C223.443,174.708,216.883,170.265,212.593,169.637Z" transform="translate(-182.906 -129.358)" fill="#ac635b"/>
        <path id="Path_879227" data-name="Path 879227" d="M219.327,180.732c-2.263-1.722-4.725-1.734-7.389-1.165-.395.085-.337.756.083.72,2.171-.187,4.627,1.163,6.119,2.361a1.125,1.125,0,0,0,.865.136,1.127,1.127,0,0,0,.322-2.052Z" transform="translate(-184.783 -132.368)" fill="#824645"/>
        <path id="Path_879228" data-name="Path 879228" d="M262.849,140.379c-.994-1.507-5.74.165-6.046,1.953C256.406,144.66,264.558,142.972,262.849,140.379Z" transform="translate(-198.827 -120.092)" fill="#263238"/>
        <path id="Path_879229" data-name="Path 879229" d="M238.149,149.985c-1.324-1.646-6.6.769-6.767,2.886C231.1,156.548,239.772,152,238.149,149.985Z" transform="translate(-190.916 -123.095)" fill="#263238"/>
        <path id="Path_879230" data-name="Path 879230" d="M255.767,173.665a9.3,9.3,0,0,1-2.522.646,5.34,5.34,0,0,1-2.86-.492c-.267-.167-.494.2-.311.441a3.71,3.71,0,0,0,3.213,1.388,3.362,3.362,0,0,0,2.793-1.607A.268.268,0,0,0,255.767,173.665Z" transform="translate(-196.717 -130.631)" fill="#263238"/>
        <g id="Group_1103379" data-name="Group 1103379" transform="translate(73.276)">
          <path id="Path_879231" data-name="Path 879231" d="M307.275,130.812l-12.92-1.227a2.3,2.3,0,0,1-2.083-2.413h0a2.3,2.3,0,0,1,1.757-2.119l11.68-2.838Z" transform="translate(-283.148 -114.62)" fill="#824645"/>
          <path id="Path_879232" data-name="Path 879232" d="M348.643,142.641a113.854,113.854,0,0,1,11.448,15.873l-13.027,9.813-7.511-20.681Z" transform="translate(-297.867 -120.979)" fill="#ac635b"/>
          <path id="Path_879233" data-name="Path 879233" d="M313.391,131.246c11.787,9.236,19.956,15.106,27.109,4.686L327.521,121.09Z" transform="translate(-289.723 -114.27)" fill="#ac635b"/>
          <g id="Group_1103378" data-name="Group 1103378" transform="translate(0 2.946)">
            <path id="Path_879234" data-name="Path 879234" d="M280.563,161.555a1.326,1.326,0,0,1-.775-1.172,1.361,1.361,0,0,1,.152-.664,2,2,0,0,0-.072-2.043l0-.006a1.1,1.1,0,0,1,.3-1.514,1.085,1.085,0,0,0,.2-1.641l-.055-.063a1.1,1.1,0,0,1-.267-.952l1.99-9.831,1.851-9.043,4.734.95-2.835,13.9-1.005,4.971a1.1,1.1,0,0,1-.614.776l-.09.042a1.1,1.1,0,0,0-.419,1.613,1.09,1.09,0,0,1-.323,1.485l-.009.006a2.049,2.049,0,0,0-.849,1.881,1.344,1.344,0,0,1-1.909,1.3Z" transform="translate(-279.229 -121.429)" fill="#ebebeb"/>
            <g id="Group_1103367" data-name="Group 1103367" transform="translate(1.208 24.314)">
              <path id="Path_879235" data-name="Path 879235" d="M285.321,154.664l-.942,4.657a.343.343,0,0,1-.192.244l-.087.041a1.771,1.771,0,0,0-.971,1.116,1.94,1.94,0,0,0,.226,1.581.339.339,0,0,1-.112.466,2.8,2.8,0,0,0-1.18,2.556.628.628,0,0,1-.011.155.585.585,0,0,1-.307.406.6.6,0,0,1-.53,0,.541.541,0,0,1-.231-.2.578.578,0,0,1-.1-.3.6.6,0,0,1,.067-.3,2.767,2.767,0,0,0-.117-2.818.326.326,0,0,1-.047-.259.316.316,0,0,1,.141-.207,1.842,1.842,0,0,0,.514-2.551,1.749,1.749,0,0,0-.17-.219l-.064-.072a.307.307,0,0,1-.032-.041.343.343,0,0,1-.052-.253l1.6-7.906c.334.534.664,1.035.968,1.493l.406.605.467.686q.378.556.755,1.112" transform="translate(-280.779 -150.768)" fill="#96d1ab"/>
            </g>
            <g id="Group_1103376" data-name="Group 1103376" transform="translate(0 8.626)">
              <rect id="Rectangle_403425" data-name="Rectangle 403425" width="12.883" height="6.264" rx="1.429" transform="matrix(0.98, 0.197, -0.197, 0.98, 1.233, 0.806)" fill="#96d1ab"/>
              <path id="Rectangle_403426" data-name="Rectangle 403426" d="M.925,0H9.215a.926.926,0,0,1,.926.926v.618a.925.925,0,0,1-.925.925H.925A.925.925,0,0,1,0,1.543V.925A.925.925,0,0,1,.925,0Z" transform="translate(2.793 0) rotate(11.351)" fill="#96d1ab"/>
              <path id="Rectangle_403427" data-name="Rectangle 403427" d="M.925,0H5.594A.926.926,0,0,1,6.52.926v.617a.926.926,0,0,1-.926.926H.926A.926.926,0,0,1,0,1.543V.925A.925.925,0,0,1,.925,0Z" transform="translate(6.343 0.713) rotate(11.351)" fill="#b5dfc4"/>
              <rect id="Rectangle_403428" data-name="Rectangle 403428" width="12.883" height="3.83" rx="1.436" transform="translate(1.233 0.807) rotate(11.35)" fill="#b5dfc4"/>
              <g id="Group_1103375" data-name="Group 1103375" transform="translate(1.31 1.839)">
                <g id="Group_1103368" data-name="Group 1103368">
                  <path id="Path_879236" data-name="Path 879236" d="M281.505,135.368a.48.48,0,0,1-.177,0,.5.5,0,0,1-.392-.589l.746-3.715a.5.5,0,0,1,.981.2l-.746,3.715A.5.5,0,0,1,281.505,135.368Z" transform="translate(-280.927 -130.66)" fill="#96d1ab"/>
                </g>
                <g id="Group_1103369" data-name="Group 1103369" transform="translate(1.583 0.317)">
                  <path id="Path_879237" data-name="Path 879237" d="M283.8,135.829a.5.5,0,0,1-.569-.592l.746-3.716a.5.5,0,1,1,.981.2l-.745,3.715A.5.5,0,0,1,283.8,135.829Z" transform="translate(-283.225 -131.12)" fill="#96d1ab"/>
                </g>
                <g id="Group_1103370" data-name="Group 1103370" transform="translate(3.165 0.635)">
                  <path id="Path_879238" data-name="Path 879238" d="M286.1,136.291a.5.5,0,0,1-.569-.592l.747-3.715a.5.5,0,1,1,.981.2l-.747,3.714A.5.5,0,0,1,286.1,136.291Z" transform="translate(-285.522 -131.581)" fill="#96d1ab"/>
                </g>
                <g id="Group_1103371" data-name="Group 1103371" transform="translate(4.748 0.953)">
                  <path id="Path_879239" data-name="Path 879239" d="M288.4,136.752a.5.5,0,0,1-.569-.592l.745-3.714a.5.5,0,1,1,.981.2l-.745,3.714A.5.5,0,0,1,288.4,136.752Z" transform="translate(-287.821 -132.043)" fill="#96d1ab"/>
                </g>
                <g id="Group_1103372" data-name="Group 1103372" transform="translate(6.331 1.27)">
                  <path id="Path_879240" data-name="Path 879240" d="M290.7,137.213a.511.511,0,0,1-.177,0,.5.5,0,0,1-.392-.589l.745-3.715a.5.5,0,1,1,.981.2l-.745,3.715A.5.5,0,0,1,290.7,137.213Z" transform="translate(-290.119 -132.504)" fill="#96d1ab"/>
                </g>
                <g id="Group_1103373" data-name="Group 1103373" transform="translate(7.913 1.588)">
                  <path id="Path_879241" data-name="Path 879241" d="M293,137.674a.48.48,0,0,1-.177,0,.5.5,0,0,1-.392-.588l.746-3.715a.5.5,0,1,1,.98.2l-.745,3.715A.5.5,0,0,1,293,137.674Z" transform="translate(-292.417 -132.966)" fill="#96d1ab"/>
                </g>
                <g id="Group_1103374" data-name="Group 1103374" transform="translate(9.496 1.906)">
                  <path id="Path_879242" data-name="Path 879242" d="M295.294,138.136a.5.5,0,0,1-.569-.592l.745-3.716a.5.5,0,0,1,.981.2l-.745,3.716A.5.5,0,0,1,295.294,138.136Z" transform="translate(-294.715 -133.427)" fill="#96d1ab"/>
                </g>
              </g>
            </g>
            <g id="Group_1103377" data-name="Group 1103377" transform="translate(4.419)">
              <path id="Path_879243" data-name="Path 879243" d="M292.656,125.479l-.074.371-7.139-1.433.075-.371a1.365,1.365,0,0,1,.943-1.037l.675-.2a1.366,1.366,0,0,0,.941-1.039l0-.012a1.409,1.409,0,0,0-.288-1.141,3.192,3.192,0,0,1,3.5-4.995,2.638,2.638,0,0,1,.311.118,3.19,3.19,0,0,1,.263,5.706,1.384,1.384,0,0,0-.69.931l0,.013a1.369,1.369,0,0,0,.469,1.323l.542.448A1.366,1.366,0,0,1,292.656,125.479Z" transform="translate(-285.442 -115.465)" fill="#dbdbdb"/>
              <path id="Path_879244" data-name="Path 879244" d="M293.27,125.6l-.074.371-5.78-1.16.074-.371a1.366,1.366,0,0,1,.941-1.038l.675-.2a1.369,1.369,0,0,0,.943-1.039l0-.012a1.412,1.412,0,0,0-.288-1.141,3.191,3.191,0,0,1,2.456-5.149,3.19,3.19,0,0,1,.263,5.706,1.384,1.384,0,0,0-.69.931l0,.013a1.369,1.369,0,0,0,.469,1.323l.542.448A1.366,1.366,0,0,1,293.27,125.6Z" transform="translate(-286.056 -115.588)" fill="#ebebeb"/>
            </g>
          </g>
          <path id="Path_879245" data-name="Path 879245" d="M289.607,120.079l6.935-7.852a3.075,3.075,0,0,1,2.513-1.032l15.541,3.041a7.662,7.662,0,0,1,4.469,2.679l13.387,16.423c-2.555-.9-6.3,3.725-12.931,1.641-7.271-1.669-15.526-14.3-15.526-14.3l-5.125-2.705-6.746,4.975a1.918,1.918,0,0,1-2.492-.187A1.966,1.966,0,0,1,289.607,120.079Z" transform="translate(-282.158 -111.188)" fill="#ac635b"/>
          <path id="Path_879246" data-name="Path 879246" d="M307.923,121.943c-2.9,4.6-1.561,8.224,1.634,8.43,1.829,2.58,3.813,3.011,6.286,1.954-2.465,2.82.18,5.2,1.975,5.291s7.836-3.244,7.836-3.244l-7.984-14.818Z" transform="translate(-287.523 -113.793)" fill="#ac635b"/>
          <path id="Path_879247" data-name="Path 879247" d="M309.752,119.795a4.209,4.209,0,0,1,1.18-1.534,7.084,7.084,0,0,1,1.749-1.059,13.823,13.823,0,0,1,3.81-1.136c.235-.03.291.368.058.415a9.757,9.757,0,0,0-3.539,1.371c-.506.34-.991.715-1.481,1.077a17.482,17.482,0,0,1-1.581,1.061A.144.144,0,0,1,309.752,119.795Z" transform="translate(-288.586 -112.706)" fill="#824645"/>
          <path id="Path_879248" data-name="Path 879248" d="M310.93,130.012a5.693,5.693,0,0,0,.257-.682,5.673,5.673,0,0,1,.316-.561,8.916,8.916,0,0,1,.814-1.02,8.574,8.574,0,0,1,2.107-1.767,9.316,9.316,0,0,1,5.214-1.164.2.2,0,0,1,0,.407,9.42,9.42,0,0,0-4.787,1.483,11.248,11.248,0,0,0-1.984,1.487,9.139,9.139,0,0,0-.8.919c-.132.167-.265.331-.392.5s-.355.337-.426.532C311.161,130.4,310.791,130.215,310.93,130.012Z" transform="translate(-288.947 -115.425)" fill="#824645"/>
          <path id="Path_879249" data-name="Path 879249" d="M319.4,135.059a1.82,1.82,0,0,1,.419-.49,5.71,5.71,0,0,1,.55-.446,4.659,4.659,0,0,1,1.191-.6,18.891,18.891,0,0,1,2.592-.742.212.212,0,0,1,.114.407,13.7,13.7,0,0,0-2.375,1.109,10.015,10.015,0,0,1-1.182.621,3.751,3.751,0,0,1-1.154.4A.178.178,0,0,1,319.4,135.059Z" transform="translate(-291.586 -117.908)" fill="#824645"/>
          <path id="Path_879250" data-name="Path 879250" d="M330.627,142.782a2.343,2.343,0,0,1,2.583.046c.967.588,1.545,1.639,2.521,2.228a4.76,4.76,0,0,0,2.673.675,4.363,4.363,0,0,0,1.321-.275c.463-.173.938-.588,1.447-.52a.545.545,0,0,1,.418.747c-.176.486-.8.673-1.258.8a6.059,6.059,0,0,1-1.393.237,6.718,6.718,0,0,1-2.808-.429,6.328,6.328,0,0,1-2.375-1.759c-.625-.691-1.729-1.922-2.783-1.292C330.662,143.428,330.319,143,330.627,142.782Z" transform="translate(-295.051 -120.908)" fill="#824645"/>
        </g>
        <path id="Path_879251" data-name="Path 879251" d="M353.353,149.91c-.209-.22-14.775,19.113-14.775,19.113L356.3,219.054c26.907-5.5,24.305-17.311,18.166-32.162C370,176.092,353.353,149.91,353.353,149.91Z" transform="translate(-224.287 -123.241)" fill="#ebebeb"/>
        <g id="Group_1103380" data-name="Group 1103380" transform="translate(65.961 69.192)">
          <path id="Rectangle_403429" data-name="Rectangle 403429" d="M0,0H6.882a0,0,0,0,1,0,0V35.825a2.58,2.58,0,0,1-2.58,2.58H2.58A2.58,2.58,0,0,1,0,35.825V0A0,0,0,0,1,0,0Z" transform="translate(6.824 0.409) rotate(10.234)" fill="#fff"/>
          <path id="Path_879252" data-name="Path 879252" d="M272.734,252.231h0a2.377,2.377,0,0,0,2.762-1.917l5.3-29.343-5.428,2.475-4.55,26.023A2.378,2.378,0,0,0,272.734,252.231Z" transform="translate(-269.143 -214.553)" fill="#96d1ab"/>
          <rect id="Rectangle_403430" data-name="Rectangle 403430" width="11.482" height="3.991" rx="1.496" transform="matrix(0.984, 0.178, -0.178, 0.984, 4.561, 0)" fill="#fff"/>
        </g>
        <g id="Group_1103393" data-name="Group 1103393" transform="translate(33.161 77.143)">
          <g id="Group_1103392" data-name="Group 1103392" transform="translate(13.789)">
            <g id="Group_1103391" data-name="Group 1103391" transform="translate(0 4.954)">
              <g id="Group_1103390" data-name="Group 1103390">
                <g id="Group_1103389" data-name="Group 1103389">
                  <g id="Group_1103388" data-name="Group 1103388">
                    <g id="Group_1103387" data-name="Group 1103387">
                      <g id="Group_1103386" data-name="Group 1103386">
                        <g id="Group_1103385" data-name="Group 1103385">
                          <g id="Group_1103384" data-name="Group 1103384">
                            <g id="Group_1103383" data-name="Group 1103383">
                              <g id="Group_1103382" data-name="Group 1103382">
                                <g id="Group_1103381" data-name="Group 1103381">
                                  <path id="Path_879253" data-name="Path 879253" d="M263.808,246.257l-6.233-15.866L240.8,247.539S248.31,259.741,263.808,246.257Z" transform="translate(-240.8 -230.391)" fill="#ac635b"/>
                                </g>
                              </g>
                            </g>
                          </g>
                        </g>
                      </g>
                    </g>
                  </g>
                </g>
              </g>
            </g>
            <path id="Path_879254" data-name="Path 879254" d="M284.981,228.227h-6.3l-1.124-5.028,7.825,1.413a1.823,1.823,0,0,1,1.47,2.118h0A1.823,1.823,0,0,1,284.981,228.227Z" transform="translate(-252.243 -223.198)" fill="#ac635b"/>
            <path id="Path_879255" data-name="Path 879255" d="M275.44,227.968l-7.989,7.1-2.294-6.911L273.7,223.2Z" transform="translate(-248.382 -223.198)" fill="#ac635b"/>
            <path id="Path_879256" data-name="Path 879256" d="M273.69,237.888l-5.816,3.98-2.47-4.005,6.272-4.358Z" transform="translate(-248.459 -226.406)" fill="#ac635b"/>
            <path id="Path_879257" data-name="Path 879257" d="M274.366,238.286l6.895-.578a1.981,1.981,0,0,0,1.812-1.845h0a1.983,1.983,0,0,0-1.9-2.11l-6.7-.25Z" transform="translate(-251.249 -226.406)" fill="#ac635b"/>
            <path id="Path_879258" data-name="Path 879258" d="M271.507,233.185a15.765,15.765,0,0,0-6.146,2.412.537.537,0,0,0,.659.847A20.826,20.826,0,0,1,271.6,233.8C271.974,233.7,271.914,233.108,271.507,233.185Z" transform="translate(-248.382 -226.305)" fill="#824645"/>
            <path id="Path_879259" data-name="Path 879259" d="M270.362,245.355l7.773.1a2.224,2.224,0,0,0,2.225-1.867h0a2.225,2.225,0,0,0-1.9-2.564l-8.831-.916Z" transform="translate(-249.774 -228.461)" fill="#ac635b"/>
            <path id="Path_879260" data-name="Path 879260" d="M269.73,251.417l7.51.018a2.151,2.151,0,0,0,2.131-1.826h0a2.15,2.15,0,0,0-1.862-2.458l-7.225-.9Z" transform="translate(-249.805 -230.375)" fill="#ac635b"/>
          </g>
          <path id="Path_879261" data-name="Path 879261" d="M234.567,255.289l-13.789,15.4L232.321,288l12.823-29.054Z" transform="translate(-220.778 -233.187)" fill="#ac635b"/>
        </g>
        <path id="Path_879262" data-name="Path 879262" d="M214.11,265.66l14.5,22.049s-21.927,28.644-33.664,32.8c-13.741,4.869-17.637-22.54-17.637-22.54Z" transform="translate(-174.087 -159.273)" fill="#ebebeb"/>
        <path id="Path_879263" data-name="Path 879263" d="M177.143,288.938c-6.449-32.684-4.639-64.516-2.762-67.566.845-1.373,6.9-4.13,9.942-5.731l12.957,65.582Z" transform="translate(-172.63 -143.702)" fill="#ebebeb"/>
        <path id="Path_879264" data-name="Path 879264" d="M211.344,257.666c-2.305,1.958-4.647,3.84-7.028,5.705-1.17.917-2.309,1.865-3.446,2.825-.909.769-1.908,1.518-2.789,2.348a79.345,79.345,0,0,0-4.551-14.473,70.262,70.262,0,0,0-8.423-14.425c-1.935-2.536-4.068-4.885-6.242-7.216-.271-.289-.666.132-.428.428a98.473,98.473,0,0,1,8.973,13.831,125.069,125.069,0,0,1,6.919,14.842,72.455,72.455,0,0,1,2.75,8.285,14.882,14.882,0,0,0-2.623,1.338,18.334,18.334,0,0,0-2.913,2.148,20.3,20.3,0,0,0-4.218,5.614.36.36,0,0,0,.625.355,21.029,21.029,0,0,1,4.584-4.866,24.538,24.538,0,0,1,2.638-1.829c.174-.1.357-.191.534-.289-.47.8-.894,1.629-1.3,2.428a52.654,52.654,0,0,0-2.465,5.613,45.28,45.28,0,0,0-1.744,5.8,46.589,46.589,0,0,0-.821,6.116.277.277,0,0,0,.543.07,58.141,58.141,0,0,1,1.516-5.861,56.171,56.171,0,0,1,1.975-5.687,50.306,50.306,0,0,1,2.577-5.323,48.856,48.856,0,0,0,2.807-4.966,41.235,41.235,0,0,0,3.177-2.805c1.127-1.027,2.249-2.054,3.338-3.123,2.18-2.138,4.369-4.239,6.632-6.291C212.347,257.9,211.754,257.318,211.344,257.666Z" transform="translate(-174.415 -148.899)" fill="#dbdbdb"/>
        <path id="Path_879265" data-name="Path 879265" d="M360.842,223.507c-1.417-1.589-2.975-3.033-4.346-4.67a59.225,59.225,0,0,1-3.776-5.048,53.98,53.98,0,0,1-5.836-11.372.252.252,0,0,0-.491.1.4.4,0,0,0-.707.126,21.275,21.275,0,0,0,.461,9.388,25.46,25.46,0,0,0,1.676,4.423,11.724,11.724,0,0,0,2.714,4.031.765.765,0,0,0,1.2-.914,14.5,14.5,0,0,0-1.173-1.84c-.395-.614-.767-1.244-1.114-1.886a23.091,23.091,0,0,1-1.764-4.218,28.513,28.513,0,0,1-1.2-8.773,52.093,52.093,0,0,0,4.973,11.65,48.446,48.446,0,0,0,3.642,5.336,31.5,31.5,0,0,0,4.472,4.935A.9.9,0,0,0,360.842,223.507Z" transform="translate(-226.4 -139.531)" fill="#dbdbdb"/>
        <path id="Path_879266" data-name="Path 879266" d="M222.287,357.356c-7.814-.9-15.675-1.782-23.392-3.333a.3.3,0,0,0-.123.581,219.241,219.241,0,0,0,22.484,4.358c.025,1,.052,2,.065,2.993-4.013-.489-8-1.2-12-1.764-4.042-.57-8.092-1.087-12.139-1.628.158-.95.3-1.9.384-2.863a.61.61,0,0,0-1.194-.252c-.326,1.193-.565,2.384-.785,3.6a.758.758,0,0,0,.578.888c4.278.592,8.552,1.22,12.834,1.785s8.6.955,12.864,1.636a.675.675,0,0,0,.8-.681c.071-1.505.22-3.008.317-4.512A.868.868,0,0,0,222.287,357.356Z" transform="translate(-179.772 -186.777)" fill="#dbdbdb"/>
        <path id="Path_879267" data-name="Path 879267" d="M223.229,316.4a50.392,50.392,0,0,0-5.932,6.3c-1.975,2.262-4.02,4.459-6.11,6.616-3.427,3.538-8.494,9.2-14.031,6.858-.407-.172-.747.506-.343.707a9.236,9.236,0,0,0,7.762.021c2.76-1.19,4.919-3.375,7.026-5.453,2.307-2.275,4.529-4.637,6.68-7.06a33.783,33.783,0,0,0,5.576-7.569C224.034,316.445,223.5,316.182,223.229,316.4Z" transform="translate(-180.101 -175.043)" fill="#dbdbdb"/>
        <path id="Path_879268" data-name="Path 879268" d="M289.687,357.631c-5.121.561-10.229,1.307-15.323,2.054a.861.861,0,0,1-.866-.613c-.293-1.481-.534-2.961-.853-4.441a.668.668,0,0,1,.6-.854c4.294-.44,8.561-1.16,12.856-1.72l1.6-.2c.187.494.373,1,.56,1.507-.694.094-1.387.187-2.08.267-4.015.467-8.055.8-12.056,1.36.267.96.547,1.921.826,2.881,4.8-.654,9.6-1,14.416-1.24Z" transform="translate(-203.756 -186.104)" fill="#dbdbdb"/>
      </g>
      <g id="Group_1103395" data-name="Group 1103395" transform="translate(259.495 77.387)">
        <path id="Path_879269" data-name="Path 879269" d="M391.494,98.726l-11.313,11.313,4.141,15.454,15.454,4.141,11.313-11.313-4.141-15.454Z" transform="translate(-366.685 -88.892)" fill="none" stroke="#ebebeb" stroke-miterlimit="10" stroke-width="1"/>
        <path id="Path_879270" data-name="Path 879270" d="M377.215,84.447,365.9,95.76l4.141,15.454,15.454,4.141,11.313-11.313-4.141-15.454Z" transform="translate(-362.241 -84.447)" fill="none" stroke="#dbdbdb" stroke-miterlimit="10" stroke-width="1"/>
        <path id="Path_879271" data-name="Path 879271" d="M371.9,106.486,360.586,117.8l4.141,15.454,15.454,4.141,11.313-11.313-4.141-15.454Z" transform="translate(-360.586 -91.307)" fill="none" stroke="#96d1ab" stroke-miterlimit="10" stroke-width="1"/>
      </g>
      <g id="Group_1103400" data-name="Group 1103400" transform="translate(59.621 108.555)">
        <path id="Path_879272" data-name="Path 879272" d="M135.519,146.585h-31.07l-3.135-5.755a2.369,2.369,0,0,0-2.081-1.236H72.743a2.37,2.37,0,0,0-2.37,2.37v37.788a3.3,3.3,0,0,0,3.3,3.3h61.848a3.3,3.3,0,0,0,3.3-3.3V149.883A3.3,3.3,0,0,0,135.519,146.585Z" transform="translate(-70.373 -132.781)" fill="#ebebeb" opacity="0.3" style="mix-blend-mode: multiply;isolation: isolate"/>
        <g id="Group_1103399" data-name="Group 1103399" transform="translate(6.842)">
          <g id="Group_1103397" data-name="Group 1103397">
            <path id="Rectangle_403431" data-name="Rectangle 403431" d="M0,0H61.213a7.23,7.23,0,0,1,7.23,7.23v22a7.23,7.23,0,0,1-7.23,7.23H7.231A7.231,7.231,0,0,1,0,29.234V0A0,0,0,0,1,0,0Z" transform="translate(0 6.991)" fill="#fff"/>
            <path id="Path_879273" data-name="Path 879273" d="M109.167,129.7H82.677a2.37,2.37,0,0,0-2.37,2.37v4.621h34.076l-3.134-5.755A2.37,2.37,0,0,0,109.167,129.7Z" transform="translate(-80.307 -129.701)" fill="#b5dfc4"/>
            <g id="Group_1103396" data-name="Group 1103396" transform="translate(6.273 1.808)">
              <circle id="Ellipse_11594" data-name="Ellipse 11594" cx="1.688" cy="1.688" r="1.688" transform="translate(0 0)" fill="none" stroke="#fff" stroke-miterlimit="10" stroke-width="1"/>
              <path id="Path_879274" data-name="Path 879274" d="M103.086,134.014a1.688,1.688,0,1,1-1.688-1.688A1.688,1.688,0,0,1,103.086,134.014Z" transform="translate(-92.62 -132.326)" fill="none" stroke="#fff" stroke-miterlimit="10" stroke-width="1"/>
              <circle id="Ellipse_11595" data-name="Ellipse 11595" cx="1.688" cy="1.688" r="1.688" transform="translate(14.181 0)" fill="none" stroke="#fff" stroke-miterlimit="10" stroke-width="1"/>
            </g>
          </g>
          <g id="Group_1103398" data-name="Group 1103398" transform="translate(4.847 12.007)">
            <line id="Line_3239" data-name="Line 3239" y2="18.636" transform="translate(29.229 3.217)" fill="none" stroke="#ebebeb" stroke-linecap="round" stroke-linejoin="round" stroke-width="3"/>
            <line id="Line_3240" data-name="Line 3240" y2="15.973" transform="translate(33.685 4.549)" fill="none" stroke="#ebebeb" stroke-linecap="round" stroke-linejoin="round" stroke-width="3"/>
            <line id="Line_3241" data-name="Line 3241" y2="8.214" transform="translate(38.141 8.426)" fill="none" stroke="#ebebeb" stroke-linecap="round" stroke-linejoin="round" stroke-width="3"/>
            <line id="Line_3242" data-name="Line 3242" y2="18.636" transform="translate(4.801 3.217)" fill="none" stroke="#ebebeb" stroke-linecap="round" stroke-linejoin="round" stroke-width="3"/>
            <line id="Line_3243" data-name="Line 3243" y2="15.973" transform="translate(9.045 4.549)" fill="none" stroke="#ebebeb" stroke-linecap="round" stroke-linejoin="round" stroke-width="3"/>
            <line id="Line_3244" data-name="Line 3244" y2="8.214" transform="translate(13.288 8.426)" fill="none" stroke="#ebebeb" stroke-linecap="round" stroke-linejoin="round" stroke-width="3"/>
            <line id="Line_3245" data-name="Line 3245" y1="18.636" transform="translate(53.283 3.217)" fill="none" stroke="#ebebeb" stroke-linecap="round" stroke-linejoin="round" stroke-width="3"/>
            <line id="Line_3246" data-name="Line 3246" y1="15.973" transform="translate(49.04 4.549)" fill="none" stroke="#ebebeb" stroke-linecap="round" stroke-linejoin="round" stroke-width="3"/>
            <line id="Line_3247" data-name="Line 3247" y1="8.214" transform="translate(44.796 8.431)" fill="none" stroke="#ebebeb" stroke-linecap="round" stroke-linejoin="round" stroke-width="3"/>
            <line id="Line_3248" data-name="Line 3248" y1="15.973" transform="translate(24.772 4.418)" fill="none" stroke="#ebebeb" stroke-linecap="round" stroke-linejoin="round" stroke-width="3"/>
            <line id="Line_3249" data-name="Line 3249" y1="9.094" transform="translate(20.316 7.876)" fill="none" stroke="#ebebeb" stroke-linecap="round" stroke-linejoin="round" stroke-width="3"/>
            <path id="Path_879275" data-name="Path 879275" d="M93.4,151.806c12.529,0,12.529,18.637,25.058,18.637s12.528-18.637,25.057-18.637" transform="translate(-89.229 -148.589)" fill="none" stroke="#96d1ab" stroke-linecap="round" stroke-linejoin="round" stroke-width="4"/>
            <path id="Path_879276" data-name="Path 879276" d="M143.518,170.443c-12.53,0-12.53-18.637-25.061-18.637s-12.53,18.637-25.06,18.637" transform="translate(-89.229 -148.589)" fill="none" stroke="#38474f" stroke-linecap="round" stroke-linejoin="round" stroke-width="4"/>
            <path id="Path_879277" data-name="Path 879277" d="M113.125,148.34a1.205,1.205,0,1,1-1.205-1.205A1.2,1.2,0,0,1,113.125,148.34Z" transform="translate(-94.62 -147.135)" fill="#b5dfc4"/>
            <path id="Path_879278" data-name="Path 879278" d="M146.222,181.516a1.205,1.205,0,1,1-1.205-1.205A1.2,1.2,0,0,1,146.222,181.516Z" transform="translate(-104.922 -157.462)" fill="#b5dfc4"/>
            <path id="Path_879279" data-name="Path 879279" d="M153.913,148.34a1.205,1.205,0,1,1-1.205-1.205A1.2,1.2,0,0,1,153.913,148.34Z" transform="translate(-107.316 -147.135)" fill="#b5dfc4"/>
            <path id="Path_879280" data-name="Path 879280" d="M89.756,167.084a1.205,1.205,0,1,1-1.205-1.205A1.205,1.205,0,0,1,89.756,167.084Z" transform="translate(-87.345 -152.97)" fill="#96d1ab"/>
            <path id="Path_879281" data-name="Path 879281" d="M113.117,181.516a1.206,1.206,0,1,1-1.206-1.205A1.205,1.205,0,0,1,113.117,181.516Z" transform="translate(-94.617 -157.462)" fill="#96d1ab"/>
            <path id="Path_879282" data-name="Path 879282" d="M172.162,164.6a1.205,1.205,0,1,1-1.205-1.205A1.2,1.2,0,0,1,172.162,164.6Z" transform="translate(-112.997 -152.197)" fill="#96d1ab"/>
          </g>
        </g>
      </g>
      <g id="Group_1103404" data-name="Group 1103404" transform="translate(135.26 61.768)">
        <path id="Path_879283" data-name="Path 879283" d="M216.042,97.234l-2.393-8.854a17.793,17.793,0,0,0,2.225-7.253h0a17.868,17.868,0,0,0-35.611-2.98h0a17.867,17.867,0,0,0,16.315,19.3h0A17.78,17.78,0,0,0,207.3,94.928Z" transform="translate(-180.199 -61.768)" fill="#fff" stroke="#b5dfc4" stroke-miterlimit="10" stroke-width="1"/>
        <g id="Group_1103403" data-name="Group 1103403" transform="translate(8.187 7.133)">
          <g id="Group_1103401" data-name="Group 1103401">
            <path id="Path_879284" data-name="Path 879284" d="M200.036,88.4a8.142,8.142,0,1,1,6.083-13.76h0a8.14,8.14,0,0,1-6.083,13.76Zm.354-15.1a6.962,6.962,0,1,0,4.876,2.152h0A6.941,6.941,0,0,0,200.39,73.3Z" transform="translate(-192.087 -72.125)" fill="#dbdbdb"/>
          </g>
          <g id="Group_1103402" data-name="Group 1103402" transform="translate(12.929 13.199)">
            <rect id="Rectangle_403432" data-name="Rectangle 403432" width="1.178" height="8.361" transform="translate(0 0.813) rotate(-43.658)" fill="#dbdbdb"/>
          </g>
        </g>
      </g>
      <g id="Group_1103419" data-name="Group 1103419" transform="translate(211.156 194.715)">
        <g id="Group_1103409" data-name="Group 1103409" transform="translate(45.715 35.522)">
          <path id="Path_879285" data-name="Path 879285" d="M414.712,420.9l.008,5.77.008,5.77-15.281.021-.005-3.777a2.275,2.275,0,0,0-2.479-1.99l-15.247.021a2.275,2.275,0,0,0-2.475,2l.005,3.776-15.282.021-.008-5.77-.008-5.771Z" transform="translate(-359.009 -342.03)" fill="#38474f"/>
          <path id="Path_879286" data-name="Path 879286" d="M364.724,424.209a23.906,23.906,0,0,1,4.607-.159q2.424-.022,4.846-.043c3.182-.027,6.363-.024,9.545-.025l18.944,0c1.762,0,3.524.011,5.287.02a16.173,16.173,0,0,1,5.233.55.354.354,0,0,1,0,.683,14.3,14.3,0,0,1-4.5.559c-1.614.032-3.231.03-4.847.038-3.181.014-6.363.016-9.545.024-6.314.016-12.63.07-18.944.035l-5.287-.032-2.643-.016a13.682,13.682,0,0,1-2.7-.135A.773.773,0,0,1,364.724,424.209Z" transform="translate(-359.071 -342.988)" fill="#263238"/>
          <path id="Path_879287" data-name="Path 879287" d="M399.421,383.913l-.007-5.138a13.557,13.557,0,0,0-.3-2.818l-3.079-14.424a4.6,4.6,0,0,0-4.5-3.638l-5.645.008-.01-7.544,7.77-.01,5.451-.008a5.651,5.651,0,0,1,5.216,3.457l8.814,20.92a14.073,14.073,0,0,1,1.105,5.448l.017,12.177.008,5.619-14.818.02-34.318.047,0-3.227a2.392,2.392,0,0,1,2.389-2.4l23.475-.032A8.451,8.451,0,0,0,399.421,383.913Z" transform="translate(-359.373 -320.066)" fill="none" stroke="#066454" stroke-miterlimit="10" stroke-width="1"/>
          <path id="Path_879288" data-name="Path 879288" d="M359.658,416.1l54.871-.076a2.885,2.885,0,0,1,2.889,2.881h0a2.885,2.885,0,0,1-2.881,2.889l-54.871.076a2.885,2.885,0,0,1-2.889-2.881h0A2.885,2.885,0,0,1,359.658,416.1Z" transform="translate(-356.776 -340.514)" fill="#38474f"/>
          <g id="Group_1103408" data-name="Group 1103408" transform="translate(6.921 0)">
            <g id="Group_1103406" data-name="Group 1103406" transform="translate(0)">
              <rect id="Rectangle_403433" data-name="Rectangle 403433" width="5.802" height="9.88" transform="translate(29.702 11.45) rotate(-151.592)" fill="#96d1ab"/>
              <rect id="Rectangle_403434" data-name="Rectangle 403434" width="8.318" height="53.998" transform="translate(8.235 53.777) rotate(-151.592)" fill="#38474f"/>
              <rect id="Rectangle_403435" data-name="Rectangle 403435" width="15.386" height="42.839" transform="matrix(-0.88, -0.476, 0.476, -0.88, 13.533, 51.409)" fill="#fff" stroke="#dbdbdb" stroke-miterlimit="10" stroke-width="1"/>
              <g id="Group_1103405" data-name="Group 1103405" transform="translate(3.947 10.606)">
                <path id="Path_879289" data-name="Path 879289" d="M373.387,365.054h0a1.585,1.585,0,0,0,2.148-.64l1.136-2.1a1.585,1.585,0,0,0-.64-2.148h0a1.585,1.585,0,0,0-2.148.641l-1.136,2.1A1.584,1.584,0,0,0,373.387,365.054Z" transform="translate(-372.556 -333.671)" fill="#f7f7f7"/>
                <path id="Path_879290" data-name="Path 879290" d="M378.517,346.633h0a1.585,1.585,0,0,0,2.148-.639L392.5,324.122a1.584,1.584,0,0,0-.64-2.148h0a1.585,1.585,0,0,0-2.148.639l-11.838,21.872A1.584,1.584,0,0,0,378.517,346.633Z" transform="translate(-374.153 -321.782)" fill="#f7f7f7"/>
              </g>
            </g>
            <rect id="Rectangle_403436" data-name="Rectangle 403436" width="4.433" height="7.609" transform="translate(19.021 72.317) rotate(179.921)" fill="#dbdbdb"/>
            <g id="Group_1103407" data-name="Group 1103407" transform="translate(16.776 21.749)">
              <circle id="Ellipse_11596" data-name="Ellipse 11596" cx="6.616" cy="6.616" r="6.616" transform="matrix(0.17, -0.985, 0.985, 0.17, 0, 13.04)" fill="#96d1ab"/>
              <path id="Path_879291" data-name="Path 879291" d="M396.367,347.225a4.076,4.076,0,1,0,4.07-4.082A4.076,4.076,0,0,0,396.367,347.225Z" transform="translate(-392.798 -339.574)" fill="none" stroke="#263238" stroke-miterlimit="10" stroke-width="1"/>
            </g>
            <path id="Path_879292" data-name="Path 879292" d="M395.932,392.691c-3.99,2.614-11.07,3.385-18.235,2.328C381.759,399.572,392.988,399.248,395.932,392.691Z" transform="translate(-370.21 -333.249)" fill="#bce0c1"/>
            <path id="Path_879293" data-name="Path 879293" d="M375.842,402.474l20.094-.028a1.734,1.734,0,0,0,1.731-1.736h0a1.733,1.733,0,0,0-1.736-1.731l-20.094.028a1.734,1.734,0,0,0-1.731,1.736h0A1.734,1.734,0,0,0,375.842,402.474Z" transform="translate(-369.092 -335.207)" fill="#ebebeb"/>
          </g>
        </g>
        <g id="Group_1103418" data-name="Group 1103418" transform="translate(0 0)">
          <line id="Line_3250" data-name="Line 3250" x2="22.039" y2="23.701" transform="translate(36.236 71.654)" fill="none" stroke="#dbdbdb" stroke-miterlimit="10" stroke-width="1" stroke-dasharray="4 2"/>
          <g id="Group_1103410" data-name="Group 1103410" transform="translate(13.131 43.295)">
            <path id="Path_879294" data-name="Path 879294" d="M323.265,347.734a3.022,3.022,0,1,1,1.282,4.077A3.022,3.022,0,0,1,323.265,347.734Z" transform="translate(-313.654 -326.522)" fill="#bce0c1"/>
            <path id="Path_879295" data-name="Path 879295" d="M334.557,328.208A1.813,1.813,0,1,0,337,327.44,1.813,1.813,0,0,0,334.557,328.208Z" transform="translate(-317.211 -320.646)" fill="#bce0c1"/>
            <path id="Path_879296" data-name="Path 879296" d="M309.948,327.76a4.26,4.26,0,1,0,5.747-1.807A4.26,4.26,0,0,0,309.948,327.76Z" transform="translate(-309.464 -320.097)" fill="#96d1ab"/>
            <path id="Path_879297" data-name="Path 879297" d="M344.842,341.446a1.47,1.47,0,1,1-1.47-1.47A1.47,1.47,0,0,1,344.842,341.446Z" transform="translate(-319.562 -324.613)" fill="#96d1ab"/>
            <path id="Path_879298" data-name="Path 879298" d="M325.1,318.807a1.138,1.138,0,1,0-1.138,1.138A1.138,1.138,0,0,0,325.1,318.807Z" transform="translate(-313.624 -317.669)" fill="#96d1ab"/>
            <path id="Path_879299" data-name="Path 879299" d="M328.646,336.353a1.138,1.138,0,1,0-1.138,1.138A1.138,1.138,0,0,0,328.646,336.353Z" transform="translate(-314.727 -323.131)" fill="#bce0c1"/>
            <path id="Path_879300" data-name="Path 879300" d="M347.739,329.353a1.138,1.138,0,1,0-1.138,1.138A1.138,1.138,0,0,0,347.739,329.353Z" transform="translate(-320.67 -320.952)" fill="#bce0c1"/>
            <path id="Path_879301" data-name="Path 879301" d="M315.127,348.222a.579.579,0,1,0-.579.579A.579.579,0,0,0,315.127,348.222Z" transform="translate(-310.867 -326.999)" fill="#96d1ab"/>
          </g>
          <circle id="Ellipse_11597" data-name="Ellipse 11597" cx="18.323" cy="18.323" r="18.323" transform="translate(0 56.517) rotate(-45)" fill="none" stroke="#38474f" stroke-miterlimit="10" stroke-width="1" stroke-dasharray="4 2"/>
          <g id="Group_1103416" data-name="Group 1103416" transform="translate(43.068 6.851)">
            <path id="Path_879302" data-name="Path 879302" d="M355.194,264.791c2.1,7.6,6.945,11.349,14.6,11.349a16.157,16.157,0,0,0-3.607-9.954Z" transform="translate(-353.636 -264.765)" fill="#96d1ab"/>
            <line id="Line_3251" data-name="Line 3251" x1="11.249" y1="10.68" transform="translate(4.91 0.695)" fill="none" stroke="#38474f" stroke-miterlimit="10" stroke-width="1"/>
            <path id="Path_879303" data-name="Path 879303" d="M352.932,268.062a8.639,8.639,0,0,1,1.581-3.309l11,1.353C362.79,268,358.395,269.25,352.932,268.062Z" transform="translate(-352.932 -264.753)" fill="#bce0c1"/>
            <g id="Group_1103411" data-name="Group 1103411" transform="translate(3.118 11.159)">
              <line id="Line_3252" data-name="Line 3252" y1="15.109" transform="translate(13.04)" fill="none" stroke="#38474f" stroke-miterlimit="10" stroke-width="1"/>
              <path id="Path_879304" data-name="Path 879304" d="M376.393,298.834A4.936,4.936,0,0,0,378.781,302a27.793,27.793,0,0,0,3.382,1.193,3.387,3.387,0,0,1,2.342,2.484" transform="translate(-363.354 -286.521)" fill="none" stroke="#38474f" stroke-miterlimit="10" stroke-width="1"/>
              <path id="Path_879305" data-name="Path 879305" d="M375.612,302.779a2.527,2.527,0,0,1-.307,2.44c-.283.377-.669.667-.952,1.043a1.267,1.267,0,0,0-.224,1.318" transform="translate(-362.616 -287.749)" fill="none" stroke="#38474f" stroke-miterlimit="10" stroke-width="1"/>
              <path id="Path_879306" data-name="Path 879306" d="M373.768,302.852a3.756,3.756,0,0,1-2.124.859,10.473,10.473,0,0,0-2.285.423,2.22,2.22,0,0,0-1.5,1.636" transform="translate(-360.698 -287.772)" fill="none" stroke="#38474f" stroke-miterlimit="10" stroke-width="1"/>
              <path id="Path_879307" data-name="Path 879307" d="M381.4,303.917l.163.9a4.488,4.488,0,0,0,.421,1.413,1.523,1.523,0,0,0,1.155.828" transform="translate(-364.912 -288.104)" fill="none" stroke="#38474f" stroke-miterlimit="10" stroke-width="1"/>
              <path id="Path_879308" data-name="Path 879308" d="M370.5,297.367a2.7,2.7,0,0,1-2.041,1.84,21.5,21.5,0,0,1-2.922.325,8.909,8.909,0,0,0-3.729,1.342c-.688.442-1.314.979-2.018,1.4a3.761,3.761,0,0,1-2.329.618" transform="translate(-357.46 -286.065)" fill="none" stroke="#38474f" stroke-miterlimit="10" stroke-width="1"/>
              <path id="Path_879309" data-name="Path 879309" d="M369.775,307.314a2.282,2.282,0,0,0,1.092-1.538,9.582,9.582,0,0,1,.18-1.391" transform="translate(-361.293 -288.249)" fill="none" stroke="#38474f" stroke-miterlimit="10" stroke-width="1"/>
              <path id="Path_879310" data-name="Path 879310" d="M365.593,301.314c-.43.144-.517.729-.386,1.163a5.3,5.3,0,0,1,.42,1.285,2.182,2.182,0,0,1-.556,1.324,3.216,3.216,0,0,0-.7,1.269.956.956,0,0,0,.648,1.143" transform="translate(-359.605 -287.293)" fill="none" stroke="#38474f" stroke-miterlimit="10" stroke-width="1"/>
              <path id="Path_879311" data-name="Path 879311" d="M387.81,302.181a3,3,0,0,1-2.707.083,17.519,17.519,0,0,1-2.428-1.415,4.474,4.474,0,0,0-2.65-.794c-.566.052-1.1.281-1.666.365a1.807,1.807,0,0,1-1.638-.552" transform="translate(-363.456 -286.844)" fill="none" stroke="#38474f" stroke-miterlimit="10" stroke-width="1"/>
              <path id="Path_879312" data-name="Path 879312" d="M367.331,298.114a1.439,1.439,0,0,1,1.493.019c.466.244.849.619,1.3.89a1.786,1.786,0,0,0,1.563.309" transform="translate(-360.533 -286.234)" fill="none" stroke="#38474f" stroke-miterlimit="10" stroke-width="1"/>
              <path id="Path_879313" data-name="Path 879313" d="M387.507,299.245a2.322,2.322,0,0,0-2.186-.344c-.733.269-1.268.983-2.048.942" transform="translate(-365.495 -286.501)" fill="none" stroke="#38474f" stroke-miterlimit="10" stroke-width="1"/>
            </g>
            <g id="Group_1103413" data-name="Group 1103413">
              <path id="Path_879314" data-name="Path 879314" d="M352.932,268.062a8.639,8.639,0,0,1,1.581-3.309l11,1.353C362.79,268,358.395,269.25,352.932,268.062Z" transform="translate(-352.932 -264.753)" fill="#b5dfc4"/>
              <g id="Group_1103412" data-name="Group 1103412" clip-path="url(#clip-path)">
                <line id="Line_3253" data-name="Line 3253" y1="3.922" x2="7.058" transform="translate(-0.494 -0.148)" fill="none" stroke="#38474f" stroke-miterlimit="10" stroke-width="1"/>
              </g>
            </g>
            <g id="Group_1103415" data-name="Group 1103415" transform="translate(16.158 0.695)">
              <g id="Group_1103414" data-name="Group 1103414" clip-path="url(#clip-path-2)">
                <path id="Path_879316" data-name="Path 879316" d="M376.393,276.443c2.881-10.925,8.851-12.28,18.691-9.325C389.709,281.315,376.393,276.443,376.393,276.443Z" transform="translate(-376.393 -265.762)" fill="#96d1ab"/>
                <line id="Line_3254" data-name="Line 3254" x1="18.691" y2="9.325" transform="translate(0.001 1.355)" fill="none" stroke="#38474f" stroke-miterlimit="10" stroke-width="1"/>
              </g>
            </g>
          </g>
          <g id="Group_1103417" data-name="Group 1103417" transform="translate(48.952)">
            <path id="Path_879318" data-name="Path 879318" d="M361.476,289.324a2.343,2.343,0,1,0,4.686,0c0-1.294-2.343-4.559-2.343-4.559S361.476,288.03,361.476,289.324Z" transform="translate(-361.476 -264.131)" fill="#dbdbdb"/>
            <path id="Path_879319" data-name="Path 879319" d="M378.881,258.566a1.933,1.933,0,0,0,3.866,0c0-1.068-1.933-3.761-1.933-3.761S378.881,257.5,378.881,258.566Z" transform="translate(-366.894 -254.805)" fill="#dbdbdb"/>
            <path id="Path_879320" data-name="Path 879320" d="M385.86,290.6a1.592,1.592,0,0,0,3.185,0c0-.879-1.592-3.1-1.592-3.1S385.86,289.724,385.86,290.6Z" transform="translate(-369.066 -264.984)" fill="#dbdbdb"/>
          </g>
          <line id="Line_3255" data-name="Line 3255" x1="15.472" y2="23.216" transform="translate(27.596 15.058)" fill="none" stroke="#dbdbdb" stroke-miterlimit="10" stroke-width="1" stroke-dasharray="4 2"/>
          <circle id="Ellipse_11598" data-name="Ellipse 11598" cx="6.913" cy="6.913" r="6.913" transform="translate(40.594 2.847)" fill="none" stroke="#38474f" stroke-miterlimit="10" stroke-width="1" stroke-dasharray="4 2"/>
        </g>
      </g>
      <g id="Group_1103433" data-name="Group 1103433" transform="translate(58.886 224.217)">
        <g id="Group_1103429" data-name="Group 1103429" transform="translate(0 77.352)">
          <g id="Group_1103428" data-name="Group 1103428">
            <path id="Path_879321" data-name="Path 879321" d="M154.458,409.954v19.128H74.219a5.042,5.042,0,0,1-4.621-3.866,6.731,6.731,0,0,1-.291-1.979V415.8a6.8,6.8,0,0,1,.325-2.09,5.024,5.024,0,0,1,4.588-3.756Z" transform="translate(-69.306 -409.953)" fill="#263238"/>
            <path id="Path_879322" data-name="Path 879322" d="M111.882,415.408v11.506H69.6a6.731,6.731,0,0,1-.291-1.979V417.5a6.8,6.8,0,0,1,.325-2.09Z" transform="translate(-69.306 -411.651)" fill="#38474f"/>
            <path id="Rectangle_403437" data-name="Rectangle 403437" d="M0,0H37.068a9.565,9.565,0,0,1,9.565,9.565v0a9.565,9.565,0,0,1-9.565,9.565H0a0,0,0,0,1,0,0V0A0,0,0,0,1,0,0Z" transform="translate(83.729 19.13) rotate(180)" fill="#38474f"/>
            <path id="Path_879323" data-name="Path 879323" d="M190.94,409.954H183.4v2.866h7.536a1.334,1.334,0,0,0,1.2-1.433h0A1.334,1.334,0,0,0,190.94,409.954Z" transform="translate(-104.823 -409.953)" fill="#38474f"/>
            <path id="Rectangle_403438" data-name="Rectangle 403438" d="M1.433,0H8.741a0,0,0,0,1,0,0V2.866a0,0,0,0,1,0,0H1.433A1.433,1.433,0,0,1,0,1.433v0A1.433,1.433,0,0,1,1.433,0Z" transform="translate(87.321 19.129) rotate(180)" fill="#38474f"/>
            <g id="Group_1103427" data-name="Group 1103427" transform="translate(40.188 2.869)">
              <path id="Rectangle_403439" data-name="Rectangle 403439" d="M0,0H38.267a6.7,6.7,0,0,1,6.7,6.7v0a6.7,6.7,0,0,1-6.7,6.7H0a0,0,0,0,1,0,0V0A0,0,0,0,1,0,0Z" transform="translate(44.964 13.394) rotate(180)" fill="#ebebeb"/>
              <path id="Rectangle_403440" data-name="Rectangle 403440" d="M0,0H37.169a5.817,5.817,0,0,1,5.817,5.817v0a5.817,5.817,0,0,1-5.817,5.817H0a0,0,0,0,1,0,0V0A0,0,0,0,1,0,0Z" transform="translate(44.964 13.394) rotate(180)" fill="#fff"/>
              <g id="Group_1103426" data-name="Group 1103426" transform="translate(1.978 1.76)">
                <g id="Group_1103425" data-name="Group 1103425" transform="translate(0 0)" clip-path="url(#clip-path-3)">
                  <g id="Group_1103424" data-name="Group 1103424" transform="translate(-1.829 1.137)">
                    <g id="Group_1103420" data-name="Group 1103420" transform="translate(1.476)">
                      <rect id="Rectangle_403441" data-name="Rectangle 403441" width="43.339" height="0.752" fill="#ebebeb"/>
                    </g>
                    <g id="Group_1103421" data-name="Group 1103421" transform="translate(0 2.667)">
                      <rect id="Rectangle_403442" data-name="Rectangle 403442" width="44.815" height="0.752" fill="#ebebeb"/>
                    </g>
                    <g id="Group_1103422" data-name="Group 1103422" transform="translate(0 5.334)">
                      <rect id="Rectangle_403443" data-name="Rectangle 403443" width="44.815" height="0.752" fill="#ebebeb"/>
                    </g>
                    <g id="Group_1103423" data-name="Group 1103423" transform="translate(0 8.001)">
                      <rect id="Rectangle_403444" data-name="Rectangle 403444" width="44.815" height="0.752" fill="#ebebeb"/>
                    </g>
                  </g>
                </g>
              </g>
              <path id="Path_879324" data-name="Path 879324" d="M145.178,418.87v9.122l-3.137-1.846-3.137,1.846V418.87" transform="translate(-131.159 -415.597)" fill="#ebebeb"/>
              <path id="Path_879325" data-name="Path 879325" d="M147.4,426.146l-3.813-2.009-2.365,2.009L138.9,418.87h6.178Z" transform="translate(-131.159 -415.597)" fill="#96d1ab"/>
            </g>
            <path id="Path_879326" data-name="Path 879326" d="M119.689,435.978h-4.869a5.044,5.044,0,0,1-4.623-3.864h4.869A5.043,5.043,0,0,0,119.689,435.978Z" transform="translate(-82.035 -416.851)" fill="#96d1ab"/>
            <path id="Path_879327" data-name="Path 879327" d="M115.118,413.709h-4.869a5.026,5.026,0,0,1,4.588-3.756h4.869A5.025,5.025,0,0,0,115.118,413.709Z" transform="translate(-82.051 -409.953)" fill="#96d1ab"/>
            <path id="Path_879328" data-name="Path 879328" d="M109.452,435.978h-4.869a5.043,5.043,0,0,1-4.623-3.864h4.869A5.043,5.043,0,0,0,109.452,435.978Z" transform="translate(-78.848 -416.851)" fill="#96d1ab"/>
            <path id="Path_879329" data-name="Path 879329" d="M104.881,413.709h-4.869a5.025,5.025,0,0,1,4.588-3.756h4.869A5.025,5.025,0,0,0,104.881,413.709Z" transform="translate(-78.864 -409.953)" fill="#96d1ab"/>
          </g>
          <path id="Path_879330" data-name="Path 879330" d="M114.647,424.932a6.778,6.778,0,0,0,.289,1.981h-4.869a6.8,6.8,0,0,1-.289-1.981V417.5a6.785,6.785,0,0,1,.324-2.09h4.869a6.764,6.764,0,0,0-.324,2.09Z" transform="translate(-81.904 -411.65)" fill="#b5dfc4"/>
          <path id="Path_879331" data-name="Path 879331" d="M104.41,424.932a6.779,6.779,0,0,0,.289,1.981H99.83a6.778,6.778,0,0,1-.289-1.981V417.5a6.765,6.765,0,0,1,.324-2.09h4.869a6.765,6.765,0,0,0-.324,2.09Z" transform="translate(-78.718 -411.65)" fill="#b5dfc4"/>
          <path id="Path_879332" data-name="Path 879332" d="M83.918,435.978H79.05a5.043,5.043,0,0,1-4.623-3.864h4.868A5.045,5.045,0,0,0,83.918,435.978Z" transform="translate(-70.9 -416.851)" fill="#96d1ab"/>
          <path id="Path_879333" data-name="Path 879333" d="M79.346,413.709H74.478a5.025,5.025,0,0,1,4.588-3.756h4.869A5.026,5.026,0,0,0,79.346,413.709Z" transform="translate(-70.916 -409.953)" fill="#96d1ab"/>
          <path id="Path_879334" data-name="Path 879334" d="M78.875,424.932a6.8,6.8,0,0,0,.289,1.981H74.3a6.779,6.779,0,0,1-.289-1.981V417.5a6.765,6.765,0,0,1,.324-2.09H79.2a6.785,6.785,0,0,0-.324,2.09Z" transform="translate(-70.769 -411.65)" fill="#b5dfc4"/>
        </g>
        <g id="Group_1103432" data-name="Group 1103432" transform="translate(27.622)">
          <g id="Group_1103431" data-name="Group 1103431" transform="translate(6.967)">
            <line id="Line_3256" data-name="Line 3256" x1="4.631" y1="32.644" transform="translate(1.474 39.165)" fill="none" stroke="#96d1ab" stroke-miterlimit="10" stroke-width="2"/>
            <path id="Path_879335" data-name="Path 879335" d="M121.351,339.317l1.194-10.037,20.777-31.64C151.818,331.384,132.448,327.357,121.351,339.317Z" transform="translate(-120.095 -297.64)" fill="#96d1ab"/>
            <path id="Path_879336" data-name="Path 879336" d="M120.783,339.317c-6.2-14.694,12.088-27.344,21.971-41.677C149.242,323.418,123.257,320.523,120.783,339.317Z" transform="translate(-119.528 -297.64)" fill="#b5dfc4"/>
            <g id="Group_1103430" data-name="Group 1103430" transform="translate(12.921 17.323)">
              <path id="Path_879337" data-name="Path 879337" d="M138.289,387.884c0-27.932,6.655-33.81,6.655-33.81" transform="translate(-138.289 -332.53)" fill="none" stroke="#96d1ab" stroke-miterlimit="10" stroke-width="2"/>
              <path id="Path_879338" data-name="Path 879338" d="M141.476,352.418c4.408-6.541,33.027,4.625,35.224-29.626C161.176,332.111,147.075,330.228,141.476,352.418Z" transform="translate(-139.281 -322.792)" fill="#96d1ab"/>
              <path id="Path_879339" data-name="Path 879339" d="M141.476,352.418c6.174-13.161,25.375-11.08,35.224-29.626C161.176,332.111,147.075,330.228,141.476,352.418Z" transform="translate(-139.281 -322.792)" fill="#b5dfc4"/>
            </g>
          </g>
          <path id="Path_879340" data-name="Path 879340" d="M109.412,373.075v19.483a5.838,5.838,0,0,0,5.842,5.837h18.115a5.838,5.838,0,0,0,5.842-5.837V373.075Z" transform="translate(-109.412 -321.122)" fill="#ebebeb"/>
          <path id="Path_879341" data-name="Path 879341" d="M109.412,373.075v19.483a5.838,5.838,0,0,0,5.842,5.837H132.7c-6.785-3.636-11.775-13.008-16.413-25.32Z" transform="translate(-109.412 -321.122)" fill="#dbdbdb"/>
        </g>
      </g>
      <g id="Group_1103434" data-name="Group 1103434" transform="translate(59.364 174.903)">
        <path id="Path_879342" data-name="Path 879342" d="M108.063,236.452q-.647,4.649-1.293,9.3-.312,2.256-.621,4.513l-.285,2.069c-.407-.026-.811-.041-1.185-.076-.968-.089-1.935-.163-2.9-.214-2.075-.109-4.152-.162-6.229-.218q-6.146-.164-12.291.1c-1.082.048-.86,1.641.184,1.647q6.012.04,12.008.536c1.969.163,3.934.406,5.892.665.959.127,1.919.248,2.88.372.395.051.824.137,1.26.214q-2.678,2.978-5.375,5.936c-2.191,2.415-4.448,4.787-6.392,7.407-.461.621.341,1.616.982,1.042,2.449-2.194,4.627-4.664,6.849-7.085q2.841-3.1,5.687-6.185a1.3,1.3,0,0,0,.652-.18c.076.071.152.141.226.213.578.559,1.163,1.109,1.748,1.66,1.2,1.135,2.417,2.259,3.608,3.407,2.353,2.267,4.617,4.612,7.03,6.817.554.507,1.457-.325.965-.909-2.1-2.5-4.353-4.855-6.521-7.3-1.066-1.2-2.108-2.422-3.162-3.634-.527-.605-1.051-1.214-1.585-1.813a10.651,10.651,0,0,0-1.42-1.5c.046-.813.05-1.632.1-2.4q.153-2.351.305-4.7.3-4.7.6-9.408C109.839,235.635,108.219,235.33,108.063,236.452Z" transform="translate(-73.903 -229.059)" fill="#dbdbdb"/>
        <circle id="Ellipse_11599" data-name="Ellipse 11599" cx="5.235" cy="5.235" r="5.235" transform="translate(0 24.012) rotate(-49.964)" fill="#96d1ab"/>
        <path id="Path_879343" data-name="Path 879343" d="M139.987,276.191a5.235,5.235,0,1,1-7.311-1.165A5.235,5.235,0,0,1,139.987,276.191Z" transform="translate(-88.837 -240.976)" fill="#96d1ab"/>
        <path id="Path_879344" data-name="Path 879344" d="M123.183,228.2a5.235,5.235,0,1,1-7.311-1.165A5.235,5.235,0,0,1,123.183,228.2Z" transform="translate(-83.606 -226.038)" fill="#38474f"/>
        <path id="Path_879345" data-name="Path 879345" d="M100.26,278.919a5.234,5.234,0,1,1-7.311-1.165A5.234,5.234,0,0,1,100.26,278.919Z" transform="translate(-76.471 -241.826)" fill="#38474f"/>
        <path id="Path_879346" data-name="Path 879346" d="M121.62,253.186a7.708,7.708,0,1,1-10.765-1.716A7.709,7.709,0,0,1,121.62,253.186Z" transform="translate(-81.726 -233.498)" fill="#b5dfc4"/>
      </g>
      <g id="Group_1103435" data-name="Group 1103435" transform="translate(114.865 94.737)">
        <path id="Path_879347" data-name="Path 879347" d="M266.632,109.638c-2.642,0-2.643,4.1,0,4.1S269.275,109.638,266.632,109.638Z" transform="translate(-186.092 -109.638)" fill="#fff"/>
        <path id="Path_879348" data-name="Path 879348" d="M314.242,179.565c-2.643,0-2.643,4.1,0,4.1S316.885,179.565,314.242,179.565Z" transform="translate(-200.912 -131.405)" fill="#fff"/>
        <path id="Path_879349" data-name="Path 879349" d="M308.786,285.7c-2.642,0-2.643,4.1,0,4.1S311.43,285.7,308.786,285.7Z" transform="translate(-199.214 -164.442)" fill="#fff"/>
        <path id="Path_879350" data-name="Path 879350" d="M152.567,240.565c-2.642,0-2.643,4.1,0,4.1S155.21,240.565,152.567,240.565Z" transform="translate(-150.585 -150.394)" fill="#fff"/>
      </g>
      <g id="Group_1103439" data-name="Group 1103439" transform="translate(52.782 63.975)">
        <g id="Group_1103436" data-name="Group 1103436" transform="translate(171.29)">
          <path id="Path_879351" data-name="Path 879351" d="M309.152,73.368a12.889,12.889,0,0,1,3.052-.809,20.87,20.87,0,0,1,3.052-.224,20.592,20.592,0,0,1,3.052.22,12.755,12.755,0,0,1,3.052.813,12.721,12.721,0,0,1-3.052.812,20.408,20.408,0,0,1-3.052.22,20.775,20.775,0,0,1-3.052-.223A12.89,12.89,0,0,1,309.152,73.368Z" transform="translate(-309.152 -67.264)" fill="#96d1ab"/>
          <path id="Path_879352" data-name="Path 879352" d="M317.548,64.972a12.909,12.909,0,0,1,.81,3.052,20.869,20.869,0,0,1,.223,3.052,20.581,20.581,0,0,1-.22,3.052,12.754,12.754,0,0,1-.813,3.052,12.718,12.718,0,0,1-.812-3.052,20.4,20.4,0,0,1-.22-3.052,20.772,20.772,0,0,1,.223-3.052A12.872,12.872,0,0,1,317.548,64.972Z" transform="translate(-311.444 -64.972)" fill="#96d1ab"/>
        </g>
        <g id="Group_1103437" data-name="Group 1103437" transform="translate(0 177.717)">
          <path id="Path_879353" data-name="Path 879353" d="M60.443,331.409a12.877,12.877,0,0,1,3.052-.809,20.882,20.882,0,0,1,3.052-.224,20.488,20.488,0,0,1,3.052.221,12.728,12.728,0,0,1,3.052.812,12.727,12.727,0,0,1-3.052.812,20.492,20.492,0,0,1-3.052.221,20.891,20.891,0,0,1-3.052-.224A12.875,12.875,0,0,1,60.443,331.409Z" transform="translate(-60.443 -325.305)" fill="#96d1ab"/>
          <path id="Path_879354" data-name="Path 879354" d="M68.839,323.013a12.872,12.872,0,0,1,.809,3.052,20.776,20.776,0,0,1,.223,3.052,20.4,20.4,0,0,1-.22,3.052,12.718,12.718,0,0,1-.812,3.052,12.753,12.753,0,0,1-.813-3.052,20.583,20.583,0,0,1-.22-3.052,20.87,20.87,0,0,1,.224-3.052A12.872,12.872,0,0,1,68.839,323.013Z" transform="translate(-62.735 -323.013)" fill="#96d1ab"/>
        </g>
        <g id="Group_1103438" data-name="Group 1103438" transform="translate(259.808 145.685)">
          <path id="Path_879355" data-name="Path 879355" d="M437.679,284.9a12.893,12.893,0,0,1,3.052-.809,20.875,20.875,0,0,1,3.052-.224,20.5,20.5,0,0,1,3.052.221,12.723,12.723,0,0,1,3.052.812,12.721,12.721,0,0,1-3.052.812,20.5,20.5,0,0,1-3.052.221,20.87,20.87,0,0,1-3.052-.224A12.888,12.888,0,0,1,437.679,284.9Z" transform="translate(-437.679 -278.796)" fill="#96d1ab"/>
          <path id="Path_879356" data-name="Path 879356" d="M446.075,276.5a12.907,12.907,0,0,1,.81,3.052,20.865,20.865,0,0,1,.223,3.052,20.486,20.486,0,0,1-.22,3.052,12.754,12.754,0,0,1-.813,3.052,12.751,12.751,0,0,1-.812-3.052,20.4,20.4,0,0,1-.22-3.052,20.776,20.776,0,0,1,.223-3.052A12.906,12.906,0,0,1,446.075,276.5Z" transform="translate(-439.971 -276.504)" fill="#96d1ab"/>
        </g>
      </g>
      <line id="Line_3257" data-name="Line 3257" x2="295" transform="translate(35.833 321.044)" fill="none" stroke="#263238" stroke-miterlimit="10" stroke-width="1"/>
    </g>
  </g>
</svg>
