<svg xmlns="http://www.w3.org/2000/svg" width="70" height="70" viewBox="0 0 70 70">
  <g id="Group_1111714" data-name="Group 1111714" transform="translate(-268.664 -957.971)">
    <circle id="Ellipse_5614" data-name="Ellipse 5614" cx="35" cy="35" r="35" transform="translate(268.664 957.971)" fill="#fff"/>
    <g id="Group_1103446" data-name="Group 1103446" transform="translate(-251.537 910.939)">
      <path id="Path_879357" data-name="Path 879357" d="M540.616,145.056c.894.906,1.741,1.778,2.607,2.631a1.942,1.942,0,0,0,.728.5,1,1,0,0,0,1.218-.478,1.079,1.079,0,0,0-.18-1.411q-1.284-1.308-2.591-2.593a5.481,5.481,0,0,0-.612-.451l6.313-9.812c.8.814,1.566,1.588,2.33,2.36.377.381.75.767,1.141,1.132a1.124,1.124,0,0,0,1.611.084,1.1,1.1,0,0,0-.027-1.654q-1.682-1.728-3.41-3.411a.606.606,0,0,1-.112-.915,10.846,10.846,0,0,1,4.694-4.7,9.428,9.428,0,0,1,13.4,9.922,9.282,9.282,0,0,1-2.087,4.628,5.34,5.34,0,0,0-.556-.878c-.908-.941-1.843-1.856-2.768-2.78-.836-.835-1.49-.985-2.032-.465s-.4,1.211.467,2.074c1.125,1.116,2.256,2.226,3.456,3.408-.283.212-.487.385-.711.529-2.844,1.837-5.695,3.662-8.529,5.511a.528.528,0,0,1-.809-.106c-.712-.743-1.444-1.466-2.182-2.184-.6-.584-1.2-.618-1.7-.127a1.109,1.109,0,0,0,.1,1.7c.721.726,1.466,1.428,2.264,2.2l-3.775,2.43c-2.719,1.752-5.43,3.518-8.16,5.254a3.5,3.5,0,0,1-5.072-4.56C537.214,150.269,538.91,147.717,540.616,145.056Z" transform="translate(0 -55.182)" fill="#066454"/>
      <path id="Path_879358" data-name="Path 879358" d="M765.412,98.271a11.915,11.915,0,0,0-4.276-4.251,6.436,6.436,0,0,1,1.928-2.068,10.974,10.974,0,0,1,4.944-1.826,1.092,1.092,0,0,1,1.28,1.175,9.5,9.5,0,0,1-3.405,6.669C765.751,98.071,765.6,98.15,765.412,98.271Z" transform="translate(-196.873 -24.47)" fill="#066454"/>
      <path id="Path_879359" data-name="Path 879359" d="M733.258,64.97c-.755.6-1.449,1.077-2.041,1.654s-1.083,1.259-1.639,1.92l-2.188-.5c.148-.557.27-1.109.44-1.645a10.157,10.157,0,0,1,2.221-3.787c.765-.839,1.537-.766,2.109.23C732.561,63.54,732.9,64.275,733.258,64.97Z" transform="translate(-167.468)" fill="#066454"/>
      <path id="Path_879360" data-name="Path 879360" d="M805.4,141.327c.841.444,1.669.83,2.444,1.3a1.051,1.051,0,0,1,.188,1.748,10.451,10.451,0,0,1-5.622,2.842l-.535-2.238A10.194,10.194,0,0,0,805.4,141.327Z" transform="translate(-232.374 -69.096)" fill="#066454"/>
    </g>
  </g>
</svg>
