<svg xmlns="http://www.w3.org/2000/svg" xmlns:xlink="http://www.w3.org/1999/xlink" width="117.278" height="117.278" viewBox="0 0 117.278 117.278">
  <defs>
    <clipPath id="clip-path">
      <rect id="Rectangle_400938" data-name="Rectangle 400938" width="117.278" height="117.278" fill="none"/>
    </clipPath>
    <clipPath id="clip-path-2">
      <path id="Path_873460" data-name="Path 873460" d="M0,1.307A1.349,1.349,0,0,0,1.389,2.613,1.349,1.349,0,0,0,2.778,1.307,1.349,1.349,0,0,0,1.389,0,1.349,1.349,0,0,0,0,1.307" transform="translate(0)" fill="#115e01"/>
    </clipPath>
    <clipPath id="clip-path-3">
      <path id="Path_873466" data-name="Path 873466" d="M0,1.307A1.349,1.349,0,0,0,1.39,2.613,1.349,1.349,0,0,0,2.778,1.307,1.349,1.349,0,0,0,1.39,0,1.349,1.349,0,0,0,0,1.307" fill="#115e01"/>
    </clipPath>
    <clipPath id="clip-path-4">
      <path id="Path_873467" data-name="Path 873467" d="M0,1.306A1.349,1.349,0,0,0,1.389,2.612,1.349,1.349,0,0,0,2.778,1.306,1.349,1.349,0,0,0,1.389,0,1.349,1.349,0,0,0,0,1.306" transform="translate(0 0)" fill="#115e01"/>
    </clipPath>
    <clipPath id="clip-path-5">
      <path id="Path_873468" data-name="Path 873468" d="M0,1.306A1.349,1.349,0,0,0,1.39,2.612,1.349,1.349,0,0,0,2.778,1.306,1.349,1.349,0,0,0,1.39,0,1.349,1.349,0,0,0,0,1.306" transform="translate(0 0)" fill="#115e01"/>
    </clipPath>
    <clipPath id="clip-path-6">
      <path id="Path_873469" data-name="Path 873469" d="M0,1.306A1.349,1.349,0,0,0,1.389,2.612,1.349,1.349,0,0,0,2.777,1.306,1.349,1.349,0,0,0,1.389,0,1.349,1.349,0,0,0,0,1.306" transform="translate(0 0)" fill="#115e01"/>
    </clipPath>
    <clipPath id="clip-path-9">
      <path id="Path_873473" data-name="Path 873473" d="M0,1.306A1.349,1.349,0,0,0,1.39,2.612,1.348,1.348,0,0,0,2.778,1.306,1.349,1.349,0,0,0,1.39,0,1.349,1.349,0,0,0,0,1.306" transform="translate(0 0)" fill="#115e01"/>
    </clipPath>
    <clipPath id="clip-path-22">
      <rect id="Rectangle_401492" data-name="Rectangle 401492" width="63.051" height="63.052" transform="translate(0 0)" fill="#fff" stroke="#707070" stroke-width="1"/>
    </clipPath>
  </defs>
  <g id="Group_1103456" data-name="Group 1103456" transform="translate(23057.926 3814.948)">
    <g id="Group_1102014" data-name="Group 1102014" transform="translate(-25293.879 -3787.263)">
      <path id="Path_874344" data-name="Path 874344" d="M2243.665,72.328v41.678a4.943,4.943,0,0,0,2.471,4.281l45.9,26.5a4.942,4.942,0,0,0,4.943,0l45.9-26.5a4.943,4.943,0,0,0,2.472-4.281V72.328a4.942,4.942,0,0,0-2.472-4.281l-45.9-26.5a4.942,4.942,0,0,0-4.943,0l-45.9,26.5A4.943,4.943,0,0,0,2243.665,72.328Z" transform="translate(0 -58.981)" fill="#8efe43"/>
      <path id="Path_874345" data-name="Path 874345" d="M2286.509,4.461V52.587a4.943,4.943,0,0,0,2.471,4.281l41.678,24.063a4.942,4.942,0,0,0,4.943,0l41.678-24.063a4.944,4.944,0,0,0,2.472-4.281V4.461A4.944,4.944,0,0,0,2377.28.18L2335.6-23.882a4.942,4.942,0,0,0-4.943,0L2288.98.18A4.943,4.943,0,0,0,2286.509,4.461Z" transform="translate(-38.622 0)" fill="#115e01"/>
    </g>
    <g id="Group_1100237" data-name="Group 1100237" transform="translate(-23054.037 -3797.84)">
      <g id="Group_1099505" data-name="Group 1099505" transform="translate(1.808 8.418)">
        <g id="Group_1099504" data-name="Group 1099504" transform="translate(0)" clip-path="url(#clip-path-2)">
          <rect id="Rectangle_401140" data-name="Rectangle 401140" width="2.777" height="2.613" transform="translate(0)" fill="#115e01"/>
        </g>
      </g>
      <g id="Group_1099517" data-name="Group 1099517" transform="translate(37.056 8.418)">
        <g id="Group_1099516" data-name="Group 1099516" transform="translate(0)" clip-path="url(#clip-path-3)">
          <rect id="Rectangle_401146" data-name="Rectangle 401146" width="2.778" height="2.613" transform="translate(0 0)" fill="#115e01"/>
        </g>
      </g>
      <g id="Group_1099519" data-name="Group 1099519" transform="translate(30.194 8.418)">
        <g id="Group_1099518" data-name="Group 1099518" transform="translate(0 0)" clip-path="url(#clip-path-4)">
          <rect id="Rectangle_401147" data-name="Rectangle 401147" width="2.778" height="2.612" transform="translate(0 0)" fill="#115e01"/>
        </g>
      </g>
      <g id="Group_1099521" data-name="Group 1099521" transform="translate(23.332 8.418)">
        <g id="Group_1099520" data-name="Group 1099520" transform="translate(0 0)" clip-path="url(#clip-path-5)">
          <rect id="Rectangle_401148" data-name="Rectangle 401148" width="2.778" height="2.612" transform="translate(0 0)" fill="#115e01"/>
        </g>
      </g>
      <g id="Group_1099523" data-name="Group 1099523" transform="translate(16.47 8.418)">
        <g id="Group_1099522" data-name="Group 1099522" transform="translate(0 0)" clip-path="url(#clip-path-6)">
          <rect id="Rectangle_401149" data-name="Rectangle 401149" width="2.777" height="2.612" transform="translate(0 0)" fill="#115e01"/>
        </g>
      </g>
      <g id="Group_1099525" data-name="Group 1099525" transform="translate(34.311 0)">
        <g id="Group_1099524" data-name="Group 1099524" clip-path="url(#clip-path-4)">
          <rect id="Rectangle_401150" data-name="Rectangle 401150" width="2.778" height="2.612" transform="translate(0 0)" fill="#115e01"/>
        </g>
      </g>
      <g id="Group_1099529" data-name="Group 1099529" transform="translate(27.448 0)">
        <g id="Group_1099528" data-name="Group 1099528" transform="translate(0)" clip-path="url(#clip-path-5)">
          <rect id="Rectangle_401152" data-name="Rectangle 401152" width="2.778" height="2.612" transform="translate(0 0)" fill="#115e01"/>
        </g>
      </g>
      <g id="Group_1099531" data-name="Group 1099531" transform="translate(13.724 0)">
        <g id="Group_1099530" data-name="Group 1099530" transform="translate(0)" clip-path="url(#clip-path-9)">
          <rect id="Rectangle_401153" data-name="Rectangle 401153" width="2.777" height="2.612" transform="translate(0 0)" fill="#115e01"/>
        </g>
      </g>
      <g id="Group_1099533" data-name="Group 1099533" transform="translate(6.862 0)">
        <g id="Group_1099532" data-name="Group 1099532" clip-path="url(#clip-path-4)">
          <rect id="Rectangle_401154" data-name="Rectangle 401154" width="2.778" height="2.612" transform="translate(0 0)" fill="#115e01"/>
        </g>
      </g>
      <g id="Group_1099535" data-name="Group 1099535" transform="translate(0 0)">
        <g id="Group_1099534" data-name="Group 1099534" transform="translate(0)" clip-path="url(#clip-path-5)">
          <rect id="Rectangle_401155" data-name="Rectangle 401155" width="2.778" height="2.612" transform="translate(0 0)" fill="#115e01"/>
        </g>
      </g>
    </g>
    <g id="Group_1100238" data-name="Group 1100238" transform="translate(-22980.652 -3724.455)">
      <g id="Group_1099505-2" data-name="Group 1099505" transform="translate(1.808 8.418)">
        <g id="Group_1099504-2" data-name="Group 1099504" transform="translate(0)" clip-path="url(#clip-path-2)">
          <rect id="Rectangle_401140-2" data-name="Rectangle 401140" width="2.777" height="2.613" transform="translate(0)" fill="#115e01"/>
        </g>
      </g>
      <g id="Group_1099517-2" data-name="Group 1099517" transform="translate(37.056 8.418)">
        <g id="Group_1099516-2" data-name="Group 1099516" transform="translate(0)" clip-path="url(#clip-path-3)">
          <rect id="Rectangle_401146-2" data-name="Rectangle 401146" width="2.778" height="2.613" transform="translate(0 0)" fill="#115e01"/>
        </g>
      </g>
      <g id="Group_1099519-2" data-name="Group 1099519" transform="translate(30.194 8.418)">
        <g id="Group_1099518-2" data-name="Group 1099518" transform="translate(0 0)" clip-path="url(#clip-path-4)">
          <rect id="Rectangle_401147-2" data-name="Rectangle 401147" width="2.778" height="2.612" transform="translate(0 0)" fill="#115e01"/>
        </g>
      </g>
      <g id="Group_1099521-2" data-name="Group 1099521" transform="translate(23.332 8.418)">
        <g id="Group_1099520-2" data-name="Group 1099520" transform="translate(0 0)" clip-path="url(#clip-path-5)">
          <rect id="Rectangle_401148-2" data-name="Rectangle 401148" width="2.778" height="2.612" transform="translate(0 0)" fill="#115e01"/>
        </g>
      </g>
      <g id="Group_1099523-2" data-name="Group 1099523" transform="translate(16.47 8.418)">
        <g id="Group_1099522-2" data-name="Group 1099522" transform="translate(0 0)" clip-path="url(#clip-path-6)">
          <rect id="Rectangle_401149-2" data-name="Rectangle 401149" width="2.777" height="2.612" transform="translate(0 0)" fill="#115e01"/>
        </g>
      </g>
      <g id="Group_1099525-2" data-name="Group 1099525" transform="translate(34.311 0)">
        <g id="Group_1099524-2" data-name="Group 1099524" clip-path="url(#clip-path-4)">
          <rect id="Rectangle_401150-2" data-name="Rectangle 401150" width="2.778" height="2.612" transform="translate(0 0)" fill="#115e01"/>
        </g>
      </g>
      <g id="Group_1099529-2" data-name="Group 1099529" transform="translate(27.448 0)">
        <g id="Group_1099528-2" data-name="Group 1099528" transform="translate(0)" clip-path="url(#clip-path-5)">
          <rect id="Rectangle_401152-2" data-name="Rectangle 401152" width="2.778" height="2.612" transform="translate(0 0)" fill="#115e01"/>
        </g>
      </g>
      <g id="Group_1099531-2" data-name="Group 1099531" transform="translate(13.724 0)">
        <g id="Group_1099530-2" data-name="Group 1099530" transform="translate(0)" clip-path="url(#clip-path-9)">
          <rect id="Rectangle_401153-2" data-name="Rectangle 401153" width="2.777" height="2.612" transform="translate(0 0)" fill="#115e01"/>
        </g>
      </g>
      <g id="Group_1099533-2" data-name="Group 1099533" transform="translate(6.862 0)">
        <g id="Group_1099532-2" data-name="Group 1099532" clip-path="url(#clip-path-4)">
          <rect id="Rectangle_401154-2" data-name="Rectangle 401154" width="2.778" height="2.612" transform="translate(0 0)" fill="#115e01"/>
        </g>
      </g>
      <g id="Group_1099535-2" data-name="Group 1099535" transform="translate(0 0)">
        <g id="Group_1099534-2" data-name="Group 1099534" transform="translate(0)" clip-path="url(#clip-path-5)">
          <rect id="Rectangle_401155-2" data-name="Rectangle 401155" width="2.778" height="2.612" transform="translate(0 0)" fill="#115e01"/>
        </g>
      </g>
    </g>
    <g id="Mask_Group_1098697" data-name="Mask Group 1098697" transform="translate(-23031.215 -3787.808)" clip-path="url(#clip-path-22)">
      <g id="Group_1103458" data-name="Group 1103458" transform="translate(-2782.399 -59.332)">
        <path id="Path_879371" data-name="Path 879371" d="M2794.855,76.138l4.665-4.691c-.342-.31-.7-.65-1.073-.968a3.778,3.778,0,1,1,4.754-5.872,15.02,15.02,0,0,1,5.83,11.371c.024.38,0,.763,0,1.159.749.1,1.378.173,2.006.261a3.753,3.753,0,0,1,3.238,4.3,3.809,3.809,0,0,1-4.383,3.16c-.516-.081-1.044-.091-1.554-.132-.57,2.354,1.236,7.326,4.957,9.5a4.758,4.758,0,0,1,.528-.772c1.25-1.264,2.52-2.508,3.61-3.587a15.4,15.4,0,0,1-.886-2.912,3.55,3.55,0,0,1,2.375-3.645,3.694,3.694,0,0,1,4.285,1.173,17.908,17.908,0,0,1,3.686,8.479c.112.711.183,1.429.275,2.162,1.2.153,2.422.242,3.613.47a14.479,14.479,0,0,1,8.929,5.427,3.782,3.782,0,1,1-5.844,4.8c-.309-.355-.624-.7-.9-1.011l-4.638,4.7c.228.207.582.546.955.864a3.778,3.778,0,1,1-4.727,5.894,15,15,0,0,1-5.84-11.28c-.029-.409,0-.822,0-1.087-1.975-.46-3.82-.832-5.629-1.335a15.135,15.135,0,0,1-2.594-1.132c-.869-.431-1.116-.956-.825-1.556.325-.673.878-.776,1.777-.306a15.949,15.949,0,0,0,6.766,1.925c.136.006.272,0,.5,0l.57-3.2c-1.042-.162-2.032-.256-2.994-.474a13.119,13.119,0,0,1-10.114-13.851c.151-1.741.605-3.457.746-5.2.4-4.921-.945-9.2-4.883-12.436a1.7,1.7,0,0,0-2.081-.268,1.5,1.5,0,0,0-.759,1.782,2.226,2.226,0,0,0,.7,1.079c2.972,2.422,3.944,5.638,3.665,9.308-.116,1.52-.5,3.017-.7,4.532a16.238,16.238,0,0,0,1.938,10.235,1.051,1.051,0,0,1-.328,1.585c-.546.341-1.109.127-1.507-.574a18.44,18.44,0,0,1-2.281-7.274c-.116-1.107-.086-1.084-1.242-1.153a15.108,15.108,0,0,1-11.305-5.629,3.789,3.789,0,1,1,5.811-4.85C2794.232,75.452,2794.532,75.776,2794.855,76.138Zm25.805,27.081c.1,1.089.154,1.9.264,2.693a12.858,12.858,0,0,0,4.783,8.606,1.693,1.693,0,0,0,2.752-.431,1.757,1.757,0,0,0-.651-2.205,9.448,9.448,0,0,1-3.286-5.1,15.917,15.917,0,0,1,.152-7.432,16.281,16.281,0,0,0-2.89-13.288,1.746,1.746,0,0,0-2.531-.552,1.685,1.685,0,0,0-.2,2.51,13.334,13.334,0,0,1,2.27,10.932C2821.016,100.449,2820.849,101.972,2820.66,103.219ZM2800.6,83.583c.2-1.172.372-2.226.549-3.286a1.654,1.654,0,0,0-.29-.063,10.444,10.444,0,0,1-8.693-3.946,1.611,1.611,0,0,0-2.319-.187,1.627,1.627,0,0,0-.248,2.313C2792.347,82.026,2796.123,83.469,2800.6,83.583Zm26.556,13.71q-.294,1.778-.521,3.147c1.541.3,3.032.481,4.458.89a8.9,8.9,0,0,1,4.4,3.15,1.659,1.659,0,0,0,2.369.328,1.623,1.623,0,0,0,.331-2.3C2835.434,98.858,2831.64,97.4,2827.151,97.293Zm-25.787-19.081.284-.318c-.224-1.485-.448-2.971-.685-4.539l-4.2,4.2Zm25.584,29.151,4.047-4.054-4.7-.656A9.429,9.429,0,0,0,2826.948,107.364Zm-8.075-15.673-3.692,3.614a10.688,10.688,0,0,0,4.549.777Zm-9.84-12.365-.565,3.326c.72.045,1.351.105,1.983.119a1.617,1.617,0,0,0,1.762-1.507,1.685,1.685,0,0,0-1.485-1.814C2810.209,79.372,2809.678,79.37,2809.033,79.326Z" transform="translate(0 -0.022)" fill="#f2ffd9"/>
        <path id="Path_879372" data-name="Path 879372" d="M3036.642,166.541a3.453,3.453,0,0,1-3.043-2.234,15.389,15.389,0,0,0-2.613-4.237,3.7,3.7,0,0,1,.367-5.191,3.772,3.772,0,0,1,5.214.148,17.05,17.05,0,0,1,4.048,6.554C3041.459,164.067,3039.624,166.545,3036.642,166.541Zm-2.86-10.763a6.186,6.186,0,0,0-1.365,1.174,1.53,1.53,0,0,0,.284,1.919,13.907,13.907,0,0,1,2.745,4.445,1.651,1.651,0,0,0,2.232,1.01,1.682,1.682,0,0,0,.915-2.225,15.654,15.654,0,0,0-3.418-5.486A6.978,6.978,0,0,0,3033.781,155.778Z" transform="translate(-202.365 -75.117)" fill="#f2ffd9"/>
        <path id="Path_879373" data-name="Path 879373" d="M2809.932,271.226a3.848,3.848,0,1,1,.036-7.7,3.848,3.848,0,0,1-.036,7.7Zm.018-5.59a1.811,1.811,0,0,0-1.81,1.706,1.869,1.869,0,0,0,1.8,1.822,1.809,1.809,0,0,0,1.741-1.774A1.745,1.745,0,0,0,2809.95,265.636Z" transform="translate(-15.789 -166.426)" fill="#f2ffd9"/>
        <path id="Path_879374" data-name="Path 879374" d="M3036.061,71.411a3.829,3.829,0,0,1-3.847-3.869,3.879,3.879,0,0,1,3.831-3.825,3.827,3.827,0,0,1,3.867,3.851A3.78,3.78,0,0,1,3036.061,71.411Zm-1.742-3.834a1.764,1.764,0,0,0,1.734,1.766,1.761,1.761,0,1,0,0-3.52A1.749,1.749,0,0,0,3034.319,67.577Z" transform="translate(-204.132)" fill="#f2ffd9"/>
        <path id="Path_879375" data-name="Path 879375" d="M2996.965,129.879c-.245-.2-.674-.38-.767-.669a1.321,1.321,0,0,1,.163-1.128,40.919,40.919,0,0,1,3.458-3.132,1.472,1.472,0,0,1,1.322.111.822.822,0,0,1,.07,1.319c-1.16,1.118-2.366,2.187-3.569,3.259A2.352,2.352,0,0,1,2996.965,129.879Z" transform="translate(-174.087 -50.906)" fill="#f2ffd9"/>
        <path id="Path_879376" data-name="Path 879376" d="M2946.369,98.167c.208.249.679.562.755.952.289,1.472.473,2.966.647,4.457a.985.985,0,0,1-.858,1.149.933.933,0,0,1-1.186-.784q-.381-2.344-.61-4.712C2945.057,98.61,2945.516,98.294,2946.369,98.167Z" transform="translate(-131.583 -28.694)" fill="#f2ffd9"/>
        <path id="Path_879377" data-name="Path 879377" d="M2973.353,117.036c-.922-.031-1.414-.664-1.185-1.363.422-1.291.9-2.565,1.4-3.829a.941.941,0,0,1,1.3-.569.95.95,0,0,1,.619,1.28c-.436,1.287-.881,2.574-1.4,3.827C2973.949,116.7,2973.514,116.9,2973.353,117.036Z" transform="translate(-154.072 -39.543)" fill="#f2ffd9"/>
        <path id="Path_879378" data-name="Path 879378" d="M2901.145,260.4a.979.979,0,0,1-1.082,1,1.018,1.018,0,0,1,.036-2.033A.99.99,0,0,1,2901.145,260.4Z" transform="translate(-93.271 -162.953)" fill="#f2ffd9"/>
      </g>
    </g>
  </g>
</svg>
