<svg xmlns="http://www.w3.org/2000/svg" xmlns:xlink="http://www.w3.org/1999/xlink" width="190" height="122" viewBox="0 0 190 122">
  <defs>
    <clipPath id="clip-path">
      <rect id="Rectangle_403456" data-name="Rectangle 403456" width="190" height="122" transform="translate(284.711 4804)" fill="#fff" stroke="#707070" stroke-width="1"/>
    </clipPath>
  </defs>
  <g id="Group_1111717" data-name="Group 1111717" transform="translate(-1124.711 -4805)">
    <g id="Mask_Group_1098803" data-name="Mask Group 1098803" transform="translate(840 1)" clip-path="url(#clip-path)">
      <g id="Group_1103459" data-name="Group 1103459" transform="translate(-3019.311 4752.729)">
        <path id="Path_879379" data-name="Path 879379" d="M3409.939,68.2c1.623,4.337,3.291,8.778,4.941,13.226a6.919,6.919,0,0,1,.492,1.817,3.822,3.822,0,0,1-.376,1.288c-.4-.169-1.087-.273-1.141-.517-.361-1.653-1.572-1.484-2.78-1.483-19.619.009-39.238.044-58.856-.048-2.093-.01-3.08.6-3.307,2.624-.092.817-.331,1.617-.553,2.659h2.7q27.012,0,54.022.035h.027a.871.871,0,0,1,.233,1.7l-.137.044a7.142,7.142,0,0,1-1.287.158,22.013,22.013,0,0,1,.116,2.576c-.021.338-.4.653-.621.979-.357-.254-.918-.438-1.034-.775a21.079,21.079,0,0,1-.583-2.789H3389.03c0,.866-.008,1.744,0,2.621q.134,12.819.27,25.638a8.048,8.048,0,0,1-.09,2.091,1.322,1.322,0,0,1-.073.205.946.946,0,0,1-1.75-.056.891.891,0,0,1-.031-.123,14.639,14.639,0,0,1-.013-2.514q-.059-13.03-.13-26.06c0-.548-.083-1.1-.139-1.789h-11.255V127.3c2.748,0,5.311-.005,7.874,0a7.277,7.277,0,0,1,1.874.12,1.264,1.264,0,0,1,.64.906c.032.194-.38.62-.646.672a9.78,9.78,0,0,1-1.881.1q-16.4.006-32.792,0h-2.219c-.124.274-.241.4-.224.514.729,4.714.73,4.714,5.548,4.714h27.747a4.433,4.433,0,0,1,1.459.038,8.074,8.074,0,0,1,1.528.971c-.494.274-.98.766-1.485.785-2.222.087-4.45.037-6.961.037.353,4.186.654,8.139,1.077,12.079.036.333.875.79,1.367.825,1.534.11,3.084-.02,4.619.084h.015a.858.858,0,0,1,.221,1.644.8.8,0,0,1-.277.056c-5.745.069-11.49.045-17.236.046q-5.78,0-11.561,0c-1.128,0-2.563-.117-2.36,1.493.069.547,1.5,1.307,2.316,1.315,9.6.092,19.2.059,28.8.061a7.025,7.025,0,0,1,1.672.066c.327.082.85.567.8.723a1.735,1.735,0,0,1-.815.963,3.05,3.05,0,0,1-1.244.066c-9.81,0-19.619-.016-29.429.016-1.959.006-3.486-.54-4-2.593-.456-1.81.468-3.062,2.967-4.087q-18.373-40.393.013-80.945c-.525-.218-1.169-.278-1.366-.606-.638-1.063-1.668-2.321-1.495-3.321s1.578-1.834,2.506-2.669c.2-.182.677-.078,1.027-.078q27.536,0,55.073.008c2.959,0,4.708,2.354,3.424,4.662C3411.906,66.855,3410.833,67.418,3409.939,68.2ZM3361.047,89.67a148.729,148.729,0,0,0,.026,37.505h12.686V89.67Zm-13.184,37.493H3359.2a159.124,159.124,0,0,1-.036-37.477H3347.85A90.991,90.991,0,0,0,3347.864,127.163Zm33.75-61.184q13.447,0,26.894,0c1.046,0,2.331.162,2.385-1.34.061-1.675-1.321-1.477-2.429-1.517-.209-.008-.42,0-.63,0q-26.368,0-52.737,0a5.041,5.041,0,0,0-1.867.107c-.487.205-1.163.863-1.112,1.233a2.366,2.366,0,0,0,1.16,1.434,3.716,3.716,0,0,0,1.653.083Q3368.272,65.981,3381.614,65.979Zm-6.145,83.093c-.365-4.453-.705-8.606-1.043-12.74h-12.081c1.042,4.018,1.984,7.807,3.046,11.563a1.914,1.914,0,0,0,1.37,1.124C3369.548,149.127,3372.34,149.072,3375.47,149.072ZM3362.325,80.7c3.979,0,7.6.022,11.218-.037a1.291,1.291,0,0,0,.948-.815c.355-3.938.629-7.883.94-12.045-3.086,0-5.941-.045-8.792.049a1.737,1.737,0,0,0-1.221,1.049C3364.355,72.719,3363.393,76.567,3362.325,80.7Zm38.286-.077c-1.064-4.172-2.043-8.091-3.095-11.991a1.377,1.377,0,0,0-1.016-.789c-2.917-.064-5.836-.036-8.977-.036.37,4.451.714,8.6,1.064,12.816Zm-37.043,68.446c-.984-4.214-1.892-8.195-2.877-12.157a1.362,1.362,0,0,0-1.048-.714c-3.053-.057-6.108-.032-9.652-.032,1.773,4.224,3.386,8.132,5.079,12.006a1.717,1.717,0,0,0,1.244.857C3358.667,149.111,3361.025,149.067,3363.568,149.067ZM3413,80.708c-1.838-4.338-3.477-8.239-5.162-12.12a1.333,1.333,0,0,0-.9-.731c-2.471-.06-4.943-.033-7.5-.033.948,4.21,1.786,8.082,2.736,11.926a1.741,1.741,0,0,0,1.333.916C3406.433,80.749,3409.363,80.708,3413,80.708Zm-49.426-12.9c-2.577,0-4.945-.034-7.311.034a1.514,1.514,0,0,0-1.116.736c-1.711,3.929-3.356,7.886-5.144,12.135,3.5,0,6.441.05,9.375-.05a1.861,1.861,0,0,0,1.364-1.08C3361.729,75.8,3362.589,71.991,3363.578,67.8Zm22.063-.007c-2.545,0-4.839-.053-7.126.047a1.63,1.63,0,0,0-1.2,1c-.411,3.861-.707,7.734-1.045,11.713h10.4C3386.326,76.3,3386,72.218,3385.641,67.8Z" transform="translate(0 0)"/>
        <path id="Path_879380" data-name="Path 879380" d="M3505.752,225.214a93.422,93.422,0,0,1,4.092-8.6c1.533-2.56,2.039-2.444,3.947-.233a3.494,3.494,0,0,1,.42.935c1.143-2.917,1.859-5.55,3.151-7.861,2.184-3.908,2.567-3.857,5.715-.734a22.136,22.136,0,0,1,.957-4.008,32.383,32.383,0,0,1,3.016-5.474c1.33-1.9,1.765-1.808,3.335-.045.313.351.645.685,1.211,1.285a17.2,17.2,0,0,1,3.62-9.441c1.688-2.1,2.1-2.1,3.784-.053a17.454,17.454,0,0,1,3.737,10.648,60.044,60.044,0,0,1,3.588-5.907c2.888-3.748,6.9-5.564,11.551-6.116,1.685-.2,2.216.437,2.156,2.11-.222,6.165-4.768,12.223-11.057,14.55a9.414,9.414,0,0,0-1.562.67,17.137,17.137,0,0,1,11.546,3.981c1.789,1.5,1.931,2.092-.054,3.285-2.882,1.733-6.009,3.058-9.108,4.6l2.45,1.678c-2.1,3.218-4.346,4.4-11.11,6.2.048.126.058.294.147.371,2.884,2.5,2.988,2.89-.336,4.854a72.408,72.408,0,0,1-8.172,3.613c-.041-.267-.056-.174-.017-.137,2.939,2.752,3.006,3.165-.633,5.235a65.811,65.811,0,0,1-7.75,3.235c-.04-.244-.067-.057.01.011,2.893,2.553,2.874,2.818-.4,5.06A16.6,16.6,0,0,1,3505.4,249c-.636-.427-1.252-.884-1.984-1.4a11.66,11.66,0,0,1-1.562,1.7,6.716,6.716,0,0,1-1.755.663,6.075,6.075,0,0,1,.356-1.917,10.2,10.2,0,0,1,1.633-1.77,18.208,18.208,0,0,1-4.026-9.339,16.424,16.424,0,0,1,3.617-12.343c1.535-1.922,1.9-1.912,3.492-.06Zm14.553-16.512c-4.31,3.926-5.01,13.035-1.182,17.316,0-2.269-.042-4.4.035-6.53.016-.439.48-.862.737-1.293a5.462,5.462,0,0,1,.939,1.342,5.618,5.618,0,0,1,.044,1.665q0,2.6,0,5.2A13.54,13.54,0,0,0,3520.305,208.7Zm-7.844,26.115a13.513,13.513,0,0,0-.584-17.685c-4.294,3.872-5.005,13.119-1.182,17.307,0-2.111-.059-4.108.037-6.1a5.2,5.2,0,0,1,.766-1.7c.321.589.886,1.165.918,1.769C3512.531,230.545,3512.462,232.683,3512.462,234.818Zm-8.415,8.732c4.377-4.446,3.887-13.661-.617-17.981-4.363,4.024-4.91,13.36-1.158,17.2,0-1.986-.068-3.926.039-5.855a5.958,5.958,0,0,1,.808-1.863c.309.6.853,1.187.885,1.8C3504.115,238.975,3504.047,241.107,3504.047,243.55Zm25.251-25.09c4.366-4.713,3.872-14.643-.724-18.1-4.644,4.681-4.429,14.147-1.016,16.957,0-1.992-.063-3.95.04-5.9.029-.55.546-1.074.839-1.61.287.548.8,1.087.821,1.648C3529.356,213.6,3529.3,215.757,3529.3,218.46Zm8.415-8.532c4.4-4.809,3.873-13.772-.594-18.062-4.331,4.024-4.914,13.106-1.144,17.217,0-2.049-.083-3.908.044-5.754a6.115,6.115,0,0,1,.911-1.951,6.577,6.577,0,0,1,.747,1.929C3537.775,205.354,3537.714,207.408,3537.714,209.929Zm-22.722,27.315c2.137,0,4.277-.059,6.41.039.563.026,1.1.537,1.654.825-.579.337-1.14.924-1.74.966-1.84.128-3.695.047-5.727.047,4.292,3.725,13.035,2.941,16.918-1.336A13.315,13.315,0,0,0,3514.991,237.243Zm-7.83,10.293c4.351,3.726,13.093,2.932,16.929-1.343-4.207-4.521-13.643-4.784-17.889-.522,2.508,0,4.649-.058,6.783.039.561.026,1.1.533,1.649.819-.579.336-1.141.919-1.74.96C3511.056,247.618,3509.2,247.537,3507.162,247.537Zm37.571-43.883,1.04.447c1.315-1.652,2.588-3.341,3.986-4.92a.884.884,0,0,1,.1-.1.86.86,0,0,1,1.295,1.042,1.1,1.1,0,0,1-.187.291c-1.34,1.468-2.833,2.8-4.552,4.454,6.578-1.156,11.563-7.024,11.547-13.11C3552.024,191.352,3545.494,197.192,3544.732,203.654Zm-21.482,24.9c.585.07,1.037.159,1.49.172,1.818.051,3.64.029,5.453.151.448.03.866.5,1.3.769-.429.354-.808.867-1.3,1.019a6.611,6.611,0,0,1-1.876.039h-4.641c5.549,3.649,13.218,2.906,17.249-1.3C3537.015,225,3527.647,224.444,3523.25,228.553Zm26.218-7.6c-4.806-4.765-14.079-4.624-17.932-.582,2.367,0,4.442-.066,6.509.039a6.083,6.083,0,0,1,1.9.816c-.643.349-1.268.949-1.933,1-1.884.137-3.785.048-5.962.048A14.241,14.241,0,0,0,3549.468,220.954Zm-9.8-8.99c2.764,0,4.929-.062,7.085.042.557.027,1.09.574,1.634.882-.537.324-1.06.9-1.614.929-1.992.114-3.995.045-6.034.045,4.392,3.673,12.819,3.018,17.03-1.287C3553.655,208.106,3545.031,207.587,3539.671,211.964Z" transform="translate(-105.451 -87.8)"/>
        <path id="Path_879381" data-name="Path 879381" d="M3495.575,188.43c.012-2.968-.33-5.992.124-8.891.589-3.761.861-3.717,4.221-1.968.168.087.363.123,0,.006a91.058,91.058,0,0,1,.709-9.757c.505-2.917.894-2.905,3.456-1.543l.537.287a88.2,88.2,0,0,1,.635-9.5c.515-3.065.949-3.087,3.706-1.628a2.877,2.877,0,0,0,.413.189,81.271,81.271,0,0,1,.522-9.157c.565-3.455,1.231-3.578,4.251-1.691a16.886,16.886,0,0,1,6.727,8.214,69.634,69.634,0,0,1,1.53-7.65,15.092,15.092,0,0,1,7.281-8.615c2.774-1.592,3.34-1.348,4,1.861a16.483,16.483,0,0,1-5.127,16.2c-.354.336-.723.656-1.08.989-.031.029-.022.1-.062.323.386-.129.715-.356,1-.308.046.008.092.017.138.028a.972.972,0,0,1,.4,1.713l-.012.008c-1.657,1.142-3.583,1.982-5,3.357-1.159,1.126-1.67,2.9-2.6,4.295a4.963,4.963,0,0,1-1.791,1.547c-.179.1-.792-.667-1.227-1.008-.521-.408-1.064-.786-1.933-1.423a8.157,8.157,0,0,1,.307,1.614c-.056.894-.2,1.781-.316,2.672a17.014,17.014,0,0,1-1.423-2.167c-.617-1.323-.959-2.786-1.663-4.054a13.349,13.349,0,0,0-5.761-5.573c-2.4,4.764-.831,11.49,3.534,15.6a9.024,9.024,0,0,1,1.237,1.124,1.273,1.273,0,0,1,.15,1.12,1.189,1.189,0,0,1-1.047.326,4.576,4.576,0,0,1-3.109-1.973c-1.417-2.068-3.386-3.758-5.451-5.957a14.391,14.391,0,0,0,.482,12.345,8.021,8.021,0,0,1,.815,1.455,8.288,8.288,0,0,1,.006,1.914,5.616,5.616,0,0,1-1.709-.614c-1.441-1.159-2.794-2.428-4.428-3.874a13.3,13.3,0,0,0-.718,8.414c.346,1.6-.08,2.321-1.8,1.676Zm16.528-42.516c-2.626,5.487.392,14.286,5.143,16.323-.736-1.8-1.529-3.511-2.111-5.288a1.313,1.313,0,0,1-.041-.16.894.894,0,0,1,1.671-.551l.01.02c.907,1.882,1.667,3.834,2.627,6.1C3521.407,156.07,3517.906,148.476,3512.1,145.914Zm13.542,8.418c5.775-2.931,8.2-12.538,5.608-16.254-5.484,1.8-9.942,10.615-7.539,15.841.92-2.026,1.724-3.956,2.683-5.806.008-.015.016-.03.024-.045a.89.89,0,0,1,1.617.71l-.006.017C3527.366,150.6,3526.52,152.344,3525.645,154.331Z" transform="translate(-103.734 -51.03)"/>
        <path id="Path_879382" data-name="Path 879382" d="M3484.327,300.3l.609,1.929-3.149-.476a14.009,14.009,0,0,0,.441,10.427c.347.832.964,1.558,1.261,2.4a3.977,3.977,0,0,1-.155,1.6c-.453-.215-1.087-.308-1.332-.666a15.98,15.98,0,0,1-2.829-10.1,19.629,19.629,0,0,1,.814-4.312c.642-2.215,1.023-2.316,3.1-1.268.423.214.879.364,1.317.541Z" transform="translate(-92.558 -162.968)"/>
        <path id="Path_879383" data-name="Path 879383" d="M3454.346,169.462a4.077,4.077,0,0,1-3.892-4.11,4.01,4.01,0,0,1,4.1-3.865,4.063,4.063,0,0,1,3.821,3.968A4.151,4.151,0,0,1,3454.346,169.462Zm.513-6.441-.979,0c-.532.83-1.5,1.682-1.464,2.484.034.7,1.289,1.961,1.848,1.88a2.956,2.956,0,0,0,2.065-1.919C3456.435,164.741,3455.4,163.845,3454.859,163.022Z" transform="translate(-72.904 -68.644)"/>
        <path id="Path_879384" data-name="Path 879384" d="M3545.568,236.724c-.187.29-.378.857-.592.865a1.446,1.446,0,0,1-1.169-.489c-.765-1.625-1.451-3.292-2.056-4.982-.11-.308.277-.794.435-1.2.4.17,1.028.235,1.165.528C3544.137,233.137,3544.808,234.879,3545.568,236.724Z" transform="translate(-135.428 -116.207)"/>
      </g>
    </g>
  </g>
</svg>
