<svg xmlns="http://www.w3.org/2000/svg" xmlns:xlink="http://www.w3.org/1999/xlink" width="400" height="497.076" viewBox="0 0 400 497.076">
  <defs>
    <clipPath id="clip-path">
      <path id="Path_891667" data-name="Path 891667" d="M665.079,0h366.465a17,17,0,0,1,16.768,17.215V479.861a17,17,0,0,1-16.768,17.215H665.079s-16.768-7.707-16.768-17.215V17.215A17,17,0,0,1,665.079,0Z" transform="translate(0)" fill="#e0ffa3"/>
    </clipPath>
    <linearGradient id="linear-gradient" x1="0.5" x2="0.5" y2="1" gradientUnits="objectBoundingBox">
      <stop offset="0" stop-color="#f2ffd9"/>
      <stop offset="1" stop-color="#e0ffa3"/>
    </linearGradient>
  </defs>
  <g id="Group_1111680" data-name="Group 1111680" transform="translate(4984.977 7389.744)">
    <g id="Group_1111679" data-name="Group 1111679">
      <g id="Mask_Group_1098823" data-name="Mask Group 1098823" transform="translate(-5633.288 -7389.744)" clip-path="url(#clip-path)">
        <path id="Path_891666" data-name="Path 891666" d="M0,0H1130.764V520.746H0Z" transform="translate(-52.061 -12.911)" fill="url(#linear-gradient)"/>
        <rect id="Rectangle_403987" data-name="Rectangle 403987" width="420.237" height="90.803" transform="translate(79.983 574.684)" fill="#9bffc1"/>
      </g>
    </g>
    <g id="Group_1108817" data-name="Group 1108817" transform="translate(-228.536 -67.722)">
      <rect id="Rectangle_403979" data-name="Rectangle 403979" width="362.39" height="140.292" rx="20" transform="translate(-4735.59 -7270.645)" fill="#c5ffee"/>
      <rect id="Rectangle_403980" data-name="Rectangle 403980" width="362.39" height="171.978" rx="20" transform="translate(-4735.59 -7011.619)" fill="#ffe4fc"/>
      <rect id="Rectangle_403982" data-name="Rectangle 403982" width="73.129" height="25.769" rx="12.885" transform="translate(-4721.661 -7226.593)" fill="#00e489"/>
      <rect id="Rectangle_403983" data-name="Rectangle 403983" width="73.129" height="25.769" rx="12.885" transform="translate(-4721.661 -7181.748)" fill="#00e489"/>
      <rect id="Rectangle_403984" data-name="Rectangle 403984" width="73.129" height="25.769" rx="12.885" transform="translate(-4721.661 -6952.469)" fill="#fd91eb"/>
      <path id="Path_896004" data-name="Path 896004" d="M12.238,10.07h-4.5v3.047h5.281V15H5.394V3.625H13v1.9H7.738V8.234h4.5Zm4.711-5.6V6.547h1.445V8.2H16.949v4.219a1.007,1.007,0,0,0,.18.672.9.9,0,0,0,.688.2,3.6,3.6,0,0,0,.664-.055v1.711a4.648,4.648,0,0,1-1.367.2,2.156,2.156,0,0,1-2.422-2.4V8.2H13.457V6.547h1.234V4.469ZM24.551,15a2.507,2.507,0,0,1-.227-.758,2.732,2.732,0,0,1-2.133.914,3,3,0,0,1-2.059-.719,2.312,2.312,0,0,1-.816-1.812,2.389,2.389,0,0,1,1-2.062,4.915,4.915,0,0,1,2.879-.727H24.23V9.352a1.393,1.393,0,0,0-.3-.937,1.183,1.183,0,0,0-.949-.352,1.345,1.345,0,0,0-.895.273.929.929,0,0,0-.324.75H19.5a2.268,2.268,0,0,1,.453-1.359,3,3,0,0,1,1.281-.98A4.669,4.669,0,0,1,23.1,6.391a3.689,3.689,0,0,1,2.48.785A2.747,2.747,0,0,1,26.5,9.383v3.664a4.041,4.041,0,0,0,.336,1.82V15Zm-1.867-1.57a1.945,1.945,0,0,0,.922-.223,1.462,1.462,0,0,0,.625-.6V11.156h-.844q-1.7,0-1.8,1.172l-.008.133a.9.9,0,0,0,.3.7A1.153,1.153,0,0,0,22.683,13.43Zm7.625-6.883.07.977a2.951,2.951,0,0,1,2.43-1.133,2.453,2.453,0,0,1,2,.789,3.682,3.682,0,0,1,.672,2.359V15H33.222V9.594a1.465,1.465,0,0,0-.312-1.043,1.4,1.4,0,0,0-1.039-.324,1.553,1.553,0,0,0-1.43.813V15H28.183V6.547ZM36.84,10.7a5.013,5.013,0,0,1,.484-2.242A3.546,3.546,0,0,1,38.719,6.93a4.069,4.069,0,0,1,2.113-.539,3.849,3.849,0,0,1,2.793,1.047,4.2,4.2,0,0,1,1.207,2.844l.016.578a4.418,4.418,0,0,1-1.086,3.121,4.209,4.209,0,0,1-5.832,0A4.5,4.5,0,0,1,36.84,10.8Zm2.258.16a3.16,3.16,0,0,0,.453,1.843,1.628,1.628,0,0,0,2.578.008,3.457,3.457,0,0,0,.461-2.015,3.128,3.128,0,0,0-.461-1.831,1.5,1.5,0,0,0-1.3-.649,1.474,1.474,0,0,0-1.281.646A3.516,3.516,0,0,0,39.1,10.856ZM48.621,15H46.355V3h2.266Z" transform="translate(-4715.058 -7222.255)" fill="#12263f"/>
      <path id="Path_896005" data-name="Path 896005" d="M6.04,13.117h4.977V15H3.7V3.625H6.04ZM17.11,15a2.507,2.507,0,0,1-.227-.758,2.732,2.732,0,0,1-2.133.914,3,3,0,0,1-2.059-.719,2.312,2.312,0,0,1-.816-1.812,2.389,2.389,0,0,1,1-2.062,4.915,4.915,0,0,1,2.879-.727H16.79V9.352a1.393,1.393,0,0,0-.3-.937,1.183,1.183,0,0,0-.949-.352,1.345,1.345,0,0,0-.895.273.929.929,0,0,0-.324.75H12.063a2.268,2.268,0,0,1,.453-1.359,3,3,0,0,1,1.281-.98,4.669,4.669,0,0,1,1.859-.355,3.689,3.689,0,0,1,2.48.785,2.747,2.747,0,0,1,.918,2.207v3.664a4.041,4.041,0,0,0,.336,1.82V15Zm-1.867-1.57a1.945,1.945,0,0,0,.922-.223,1.462,1.462,0,0,0,.625-.6V11.156h-.844q-1.7,0-1.8,1.172l-.008.133a.9.9,0,0,0,.3.7A1.153,1.153,0,0,0,15.243,13.43Zm9.063-.094a1.481,1.481,0,0,0,1.016-.344,1.2,1.2,0,0,0,.406-.914h2.117a2.9,2.9,0,0,1-.469,1.574,3.093,3.093,0,0,1-1.262,1.109,3.949,3.949,0,0,1-1.77.395A3.67,3.67,0,0,1,21.485,14a4.56,4.56,0,0,1-1.047-3.184v-.148a4.508,4.508,0,0,1,1.039-3.117,3.627,3.627,0,0,1,2.852-1.164,3.555,3.555,0,0,1,2.543.9,3.2,3.2,0,0,1,.973,2.4H25.727a1.551,1.551,0,0,0-.406-1.072,1.51,1.51,0,0,0-2.223.163,3.333,3.333,0,0,0-.4,1.866v.235a3.375,3.375,0,0,0,.4,1.878A1.377,1.377,0,0,0,24.305,13.336Zm7.531-8.867V6.547h1.445V8.2H31.837v4.219a1.007,1.007,0,0,0,.18.672.9.9,0,0,0,.688.2,3.6,3.6,0,0,0,.664-.055v1.711a4.648,4.648,0,0,1-1.367.2,2.156,2.156,0,0,1-2.422-2.4V8.2H28.344V6.547h1.234V4.469ZM39.438,15a2.507,2.507,0,0,1-.227-.758,2.732,2.732,0,0,1-2.133.914,3,3,0,0,1-2.059-.719,2.312,2.312,0,0,1-.816-1.812,2.389,2.389,0,0,1,1-2.062,4.915,4.915,0,0,1,2.879-.727h1.039V9.352a1.393,1.393,0,0,0-.3-.937,1.183,1.183,0,0,0-.949-.352,1.345,1.345,0,0,0-.895.273.929.929,0,0,0-.324.75H34.391a2.268,2.268,0,0,1,.453-1.359,3,3,0,0,1,1.281-.98,4.669,4.669,0,0,1,1.859-.355,3.689,3.689,0,0,1,2.48.785,2.747,2.747,0,0,1,.918,2.207v3.664a4.041,4.041,0,0,0,.336,1.82V15Zm-1.867-1.57a1.945,1.945,0,0,0,.922-.223,1.462,1.462,0,0,0,.625-.6V11.156h-.844q-1.7,0-1.8,1.172l-.008.133a.9.9,0,0,0,.3.7A1.153,1.153,0,0,0,37.571,13.43ZM45.2,6.547l.07.977A2.951,2.951,0,0,1,47.7,6.391a2.453,2.453,0,0,1,2,.789,3.682,3.682,0,0,1,.672,2.359V15H48.11V9.594A1.465,1.465,0,0,0,47.8,8.551a1.4,1.4,0,0,0-1.039-.324,1.553,1.553,0,0,0-1.43.813V15H43.071V6.547Zm9.586-2.078V6.547h1.445V8.2H54.782v4.219a1.007,1.007,0,0,0,.18.672.9.9,0,0,0,.688.2,3.6,3.6,0,0,0,.664-.055v1.711a4.648,4.648,0,0,1-1.367.2,2.156,2.156,0,0,1-2.422-2.4V8.2H51.29V6.547h1.234V4.469Zm6.594,10.688a4.15,4.15,0,0,1-3.027-1.141,4.054,4.054,0,0,1-1.168-3.039v-.219a5.106,5.106,0,0,1,.492-2.277,3.612,3.612,0,0,1,1.395-1.547,3.914,3.914,0,0,1,2.059-.543,3.508,3.508,0,0,1,2.73,1.094,4.444,4.444,0,0,1,1,3.1v.922H59.469a2.1,2.1,0,0,0,.66,1.328,2,2,0,0,0,1.395.5,2.437,2.437,0,0,0,2.039-.945l1.109,1.242A3.389,3.389,0,0,1,63.3,14.754,4.511,4.511,0,0,1,61.376,15.156Zm-.258-6.945a1.411,1.411,0,0,0-1.09.455,2.357,2.357,0,0,0-.535,1.3h3.141V9.788a1.681,1.681,0,0,0-.406-1.165A1.456,1.456,0,0,0,61.118,8.211Z" transform="translate(-4719.038 -7176.873)" fill="#12263f"/>
      <path id="Path_896015" data-name="Path 896015" d="M10.819,13.563A4.068,4.068,0,0,1,9.03,14.738a7.492,7.492,0,0,1-2.562.418,5.076,5.076,0,0,1-2.59-.645,4.3,4.3,0,0,1-1.719-1.871,6.585,6.585,0,0,1-.621-2.883V8.984a6.994,6.994,0,0,1,.574-2.949A4.248,4.248,0,0,1,3.768,4.129,4.771,4.771,0,0,1,6.3,3.469a4.751,4.751,0,0,1,3.164.965,4.123,4.123,0,0,1,1.352,2.809H8.538a2.268,2.268,0,0,0-.691-1.43,2.208,2.208,0,0,0-1.473-.453,2.078,2.078,0,0,0-1.82.9A4.724,4.724,0,0,0,3.921,8.93v.727a4.5,4.5,0,0,0,.68,2.7,2.327,2.327,0,0,0,1.992.914,2.6,2.6,0,0,0,1.883-.562V10.75H6.343V9.023h4.477ZM14.952,15H12.686V3h2.266Zm6.922-.859a2.831,2.831,0,0,1-2.312,1.016,2.67,2.67,0,0,1-2.074-.781,3.335,3.335,0,0,1-.73-2.289V6.547h2.258v5.467q0,1.322,1.2,1.322a1.63,1.63,0,0,0,1.578-.8V6.547h2.266V15H21.936Zm7.406-.8a1.481,1.481,0,0,0,1.016-.344,1.2,1.2,0,0,0,.406-.914h2.117a2.9,2.9,0,0,1-.469,1.574,3.093,3.093,0,0,1-1.262,1.109,3.949,3.949,0,0,1-1.77.395A3.67,3.67,0,0,1,26.46,14a4.56,4.56,0,0,1-1.047-3.184v-.148a4.508,4.508,0,0,1,1.039-3.117A3.627,3.627,0,0,1,29.3,6.391a3.555,3.555,0,0,1,2.543.9,3.2,3.2,0,0,1,.973,2.4H30.7A1.551,1.551,0,0,0,30.3,8.623a1.51,1.51,0,0,0-2.223.163,3.333,3.333,0,0,0-.4,1.866v.235a3.375,3.375,0,0,0,.4,1.878A1.377,1.377,0,0,0,29.28,13.336ZM33.757,10.7a5.013,5.013,0,0,1,.484-2.242A3.546,3.546,0,0,1,35.636,6.93a4.069,4.069,0,0,1,2.113-.539,3.849,3.849,0,0,1,2.793,1.047,4.2,4.2,0,0,1,1.207,2.844l.016.578a4.418,4.418,0,0,1-1.086,3.121,4.209,4.209,0,0,1-5.832,0,4.5,4.5,0,0,1-1.09-3.187Zm2.258.16a3.16,3.16,0,0,0,.453,1.843,1.628,1.628,0,0,0,2.578.008,3.457,3.457,0,0,0,.461-2.015,3.128,3.128,0,0,0-.461-1.831,1.5,1.5,0,0,0-1.3-.649,1.474,1.474,0,0,0-1.281.646A3.516,3.516,0,0,0,36.015,10.856Zm11.719,1.808a.727.727,0,0,0-.41-.652,4.659,4.659,0,0,0-1.316-.426q-3.016-.633-3.016-2.562a2.323,2.323,0,0,1,.934-1.879,3.766,3.766,0,0,1,2.441-.754,4.053,4.053,0,0,1,2.574.758,2.388,2.388,0,0,1,.965,1.969H47.647a1.092,1.092,0,0,0-.312-.8A1.322,1.322,0,0,0,46.358,8a1.351,1.351,0,0,0-.883.258.814.814,0,0,0-.312.656.7.7,0,0,0,.355.605,3.657,3.657,0,0,0,1.2.4,9.8,9.8,0,0,1,1.422.379,2.336,2.336,0,0,1,1.789,2.273,2.2,2.2,0,0,1-.992,1.871,4.28,4.28,0,0,1-2.562.715,4.47,4.47,0,0,1-1.887-.379,3.166,3.166,0,0,1-1.293-1.039,2.414,2.414,0,0,1-.469-1.426h2.141a1.179,1.179,0,0,0,.445.922,1.766,1.766,0,0,0,1.109.32,1.635,1.635,0,0,0,.98-.246A.766.766,0,0,0,47.733,12.664ZM56.28,15a2.507,2.507,0,0,1-.227-.758,2.732,2.732,0,0,1-2.133.914,3,3,0,0,1-2.059-.719,2.312,2.312,0,0,1-.816-1.812,2.389,2.389,0,0,1,1-2.062,4.915,4.915,0,0,1,2.879-.727H55.96V9.352a1.393,1.393,0,0,0-.3-.937,1.183,1.183,0,0,0-.949-.352,1.345,1.345,0,0,0-.895.273.929.929,0,0,0-.324.75H51.233a2.268,2.268,0,0,1,.453-1.359,3,3,0,0,1,1.281-.98,4.669,4.669,0,0,1,1.859-.355,3.689,3.689,0,0,1,2.48.785,2.747,2.747,0,0,1,.918,2.207v3.664a4.041,4.041,0,0,0,.336,1.82V15Zm-1.867-1.57a1.945,1.945,0,0,0,.922-.223,1.462,1.462,0,0,0,.625-.6V11.156h-.844q-1.7,0-1.8,1.172l-.008.133a.9.9,0,0,0,.3.7A1.153,1.153,0,0,0,54.413,13.43Z" transform="translate(-4714 -6947.593)" fill="#12263f"/>
      <ellipse id="Ellipse_11720" data-name="Ellipse 11720" cx="28.84" cy="28.84" rx="28.84" ry="28.84" transform="translate(-4475.569 -6962.825)" fill="#d4b9fd" opacity="0.5"/>
      <ellipse id="Ellipse_11721" data-name="Ellipse 11721" cx="28.84" cy="28.84" rx="28.84" ry="28.84" transform="translate(-4446.214 -6962.825)" fill="#d4b9fd" opacity="0.5"/>
      <path id="Path_896016" data-name="Path 896016" d="M7.655,10.992V15H5.311V3.625H9.749A5.134,5.134,0,0,1,12,4.094a3.454,3.454,0,0,1,1.5,1.332,3.714,3.714,0,0,1,.523,1.965,3.266,3.266,0,0,1-1.145,2.637,4.767,4.767,0,0,1-3.168.965Zm0-1.9H9.749a2.059,2.059,0,0,0,1.418-.437,1.591,1.591,0,0,0,.488-1.25,1.876,1.876,0,0,0-.492-1.352A1.839,1.839,0,0,0,9.8,5.523H7.655ZM17.866,15H15.6V6.547h2.266Zm-2.4-10.641a1.112,1.112,0,0,1,.34-.836,1.465,1.465,0,0,1,1.848,0A1.105,1.105,0,0,1,18,4.359a1.108,1.108,0,0,1-.348.844,1.448,1.448,0,0,1-1.836,0A1.108,1.108,0,0,1,15.468,4.359Zm9.008,4.3a6.134,6.134,0,0,0-.812-.062,1.654,1.654,0,0,0-1.68.867V15H19.726V6.547h2.133l.063,1.008A2.092,2.092,0,0,1,23.8,6.391a2.366,2.366,0,0,1,.7.1Zm6.148,5.477a2.831,2.831,0,0,1-2.312,1.016,2.67,2.67,0,0,1-2.074-.781,3.335,3.335,0,0,1-.73-2.289V6.547h2.258v5.467q0,1.322,1.2,1.322a1.63,1.63,0,0,0,1.578-.8V6.547h2.266V15H30.686Zm7.055-1.9,1.57-5.7h2.359L38.757,15H36.6L33.749,6.547h2.359ZM47.382,15a2.507,2.507,0,0,1-.227-.758,2.732,2.732,0,0,1-2.133.914,3,3,0,0,1-2.059-.719,2.312,2.312,0,0,1-.816-1.812,2.389,2.389,0,0,1,1-2.062,4.915,4.915,0,0,1,2.879-.727h1.039V9.352a1.393,1.393,0,0,0-.3-.937,1.183,1.183,0,0,0-.949-.352,1.345,1.345,0,0,0-.895.273.929.929,0,0,0-.324.75H42.335a2.268,2.268,0,0,1,.453-1.359,3,3,0,0,1,1.281-.98,4.669,4.669,0,0,1,1.859-.355,3.689,3.689,0,0,1,2.48.785,2.747,2.747,0,0,1,.918,2.207v3.664a4.041,4.041,0,0,0,.336,1.82V15Zm-1.867-1.57a1.945,1.945,0,0,0,.922-.223,1.462,1.462,0,0,0,.625-.6V11.156h-.844q-1.7,0-1.8,1.172l-.008.133a.9.9,0,0,0,.3.7A1.153,1.153,0,0,0,45.515,13.43Zm8.25-8.961V6.547H55.21V8.2H53.765v4.219a1.007,1.007,0,0,0,.18.672.9.9,0,0,0,.688.2,3.6,3.6,0,0,0,.664-.055v1.711a4.648,4.648,0,0,1-1.367.2,2.156,2.156,0,0,1-2.422-2.4V8.2H50.272V6.547h1.234V4.469Z" transform="translate(-4464.652 -6941.325)" fill="#12263f"/>
      <g id="Group_1108809" data-name="Group 1108809" transform="translate(-4422.874 -7262.867)">
        <path id="Path_891638" data-name="Path 891638" d="M1627.678-92.377a9.829,9.829,0,0,1,2.258-4.091c.337-.385.2-.555-.058-.877a11.364,11.364,0,0,1-2.665-6.725,11.534,11.534,0,0,1,1.857-7.152,11.54,11.54,0,0,1,8.354-5.207,23.625,23.625,0,0,1,2.868-.073,6.825,6.825,0,0,1,1.76,1.189c1.038.863,1.282.85,2.126-.17a.632.632,0,0,0,.357.495,19.471,19.471,0,0,1,1.884,1.293c.4.327.566.229.841-.122a15.286,15.286,0,0,1,2.216-2.411,12.819,12.819,0,0,1,9.64-3.115.936.936,0,0,0,.758-.106c.047,0,.1-.018.139,0a12.171,12.171,0,0,1,6.63,9.952,12,12,0,0,1-2.659,8.781c-.624.8-.561,1.168.256,1.79a5.716,5.716,0,0,1,2.378,5.727,5.7,5.7,0,0,1-3.932,4.707,1.544,1.544,0,0,0-1.064,1.207c-1.2,4.613-4.13,7.607-8.771,8.589-4.706,1-8.623-.606-11.608-4.392-.847-1.074-.961-1.12-2.156-.374a9.577,9.577,0,0,1-10.429-.191c.243-.2,0-.326-.082-.474a11.071,11.071,0,0,1-1.355-5.959c.01-.19-.01-.389.209-.488.07.251.141.5.21.754a6.587,6.587,0,0,0,6.215,4.74c.593-.013.981-.243.99-.869.009-.582-.337-.854-.9-.887a4.878,4.878,0,0,1-1.609-.322,4.754,4.754,0,0,1-3.137-4.164C1629.085-92.481,1628.667-92.759,1627.678-92.377Zm28.072-9.128a6.292,6.292,0,0,0-6.3-6.3,6.321,6.321,0,0,0-6.26,6.352,6.333,6.333,0,0,0,6.276,6.267A6.3,6.3,0,0,0,1655.75-101.5Zm-19.068,4.476a4.425,4.425,0,0,1-4.18-2.945,4.437,4.437,0,0,1,1.375-4.984,4.436,4.436,0,0,1,5.786.1c.638.507,1.15.552,1.521.133.4-.449.287-.982-.365-1.53a6.077,6.077,0,0,0-5.7-1.318,6.249,6.249,0,0,0-4.673,6.63,6.291,6.291,0,0,0,6.126,5.737,6.1,6.1,0,0,0,4.49-1.757.864.864,0,0,0,.137-1.276.828.828,0,0,0-1.269-.1c-.133.1-.274.194-.4.3A4.241,4.241,0,0,1,1636.682-97.028Zm22.467,3.707a6.525,6.525,0,0,0,1.259-2.073,2.38,2.38,0,0,0-1.344-3.192A2.4,2.4,0,0,0,1656-97.093c-.253.787-.064,1.4.543,1.558.745.2,1.027-.287,1.166-.911.005-.023.008-.048.015-.07a.538.538,0,0,1,.685-.362c.355.057.37.327.342.6a2.825,2.825,0,0,1-.712,1.457,15.3,15.3,0,0,1-1.781,1.764c-.587.533-.467,1.384.255,1.524a10.063,10.063,0,0,0,3.416.007.758.758,0,0,0,.628-.846.829.829,0,0,0-.671-.828C1659.677-93.249,1659.463-93.27,1659.149-93.321Zm4.485-15.619a7.588,7.588,0,0,0-.5-2.6,9.3,9.3,0,0,0-4.57-5.221.881.881,0,0,0-1.313.272.873.873,0,0,0,.4,1.274c.1.064.206.122.311.179a7.517,7.517,0,0,1,3.154,3.342,8.614,8.614,0,0,1,.771,3.264.819.819,0,0,0,.88.848.826.826,0,0,0,.87-.931C1663.633-108.652,1663.634-108.8,1663.634-108.94Zm-9.446-7.076c.635.012,1.065-.387,1.028-.885a.83.83,0,0,0-.869-.853.848.848,0,0,0-.908.886A.815.815,0,0,0,1654.188-116.016Z" transform="translate(-1622.466 122.641)" fill="#d6d6e2"/>
        <path id="Path_891639" data-name="Path 891639" d="M1600.54-102.594a9.577,9.577,0,0,0,10.429.191c1.2-.746,1.309-.7,2.156.374,2.985,3.786,6.9,5.388,11.609,4.392,4.642-.982,7.572-3.976,8.771-8.589a1.544,1.544,0,0,1,1.064-1.207,5.7,5.7,0,0,0,3.932-4.707,5.716,5.716,0,0,0-2.378-5.727c-.817-.622-.88-.994-.256-1.79a12,12,0,0,0,2.659-8.781,12.171,12.171,0,0,0-6.63-9.952c-.036-.02-.092,0-.139,0-.287-.152-.563-.33-.862-.452a12.02,12.02,0,0,0-7.026-.707,11.837,11.837,0,0,0-7.808,5.126c-.844,1.02-1.088,1.033-2.127.17a6.824,6.824,0,0,0-1.761-1.189,10.318,10.318,0,0,0-8.507-.879,14.472,14.472,0,0,0-1.724.7c-.563.255-1.067.224-1.348-.356s.03-1.013.573-1.272a12.394,12.394,0,0,1,12.993.908c.506.339.731.384,1.172-.126a13.565,13.565,0,0,1,13.227-4.879,13.569,13.569,0,0,1,11.174,9.759,13.492,13.492,0,0,1-1.757,12.066c-.282.427-.249.628.114.985a7.738,7.738,0,0,1-2.189,12.518,1.365,1.365,0,0,0-.837.947,13.186,13.186,0,0,1-15.241,9.254,12.81,12.81,0,0,1-7.578-4.447c-.291-.343-.483-.507-.982-.244a11.448,11.448,0,0,1-16.726-8.36,10.936,10.936,0,0,1,2.253-8.711.752.752,0,0,0,0-1.1,12.4,12.4,0,0,1-1.283-12.652.905.905,0,0,1,1.265-.586.88.88,0,0,1,.387,1.283,11.043,11.043,0,0,0-.968,5.237,10.5,10.5,0,0,0,2.438,6.164c.9,1.09.911,1.2-.054,2.283A9.635,9.635,0,0,0,1600.54-102.594Z" transform="translate(-1594.347 141.586)" fill="#060606"/>
        <path id="Path_891640" data-name="Path 891640" d="M1628.7,67.695c.988-.382,1.406-.1,1.521,1.059a4.754,4.754,0,0,0,3.137,4.164,4.88,4.88,0,0,0,1.609.322c.565.033.911.3.9.887-.01.626-.4.857-.99.869a6.587,6.587,0,0,1-6.216-4.74c-.069-.252-.14-.5-.209-.754C1628.415,68.884,1628.233,68.245,1628.7,67.695Z" transform="translate(-1623.486 -37.431)" fill="#060606"/>
        <path id="Path_891641" data-name="Path 891641" d="M1617.851-96.071a.854.854,0,0,1,.852.874.894.894,0,0,1-.975.9.838.838,0,0,1-.814-.905A.9.9,0,0,1,1617.851-96.071Z" transform="translate(-1613.666 102.624)" fill="#060606"/>
        <path id="Path_891642" data-name="Path 891642" d="M1750.89-32.233a6.3,6.3,0,0,1-6.282,6.317,6.332,6.332,0,0,1-6.276-6.267,6.321,6.321,0,0,1,6.26-6.352A6.292,6.292,0,0,1,1750.89-32.233Zm-6.279-4.465a4.519,4.519,0,0,0-4.493,4.462,4.525,4.525,0,0,0,4.478,4.483,4.512,4.512,0,0,0,4.522-4.5A4.511,4.511,0,0,0,1744.611-36.7Z" transform="translate(-1717.605 53.369)" fill="#060606"/>
        <path id="Path_891643" data-name="Path 891643" d="M1655.771-27.689a4.244,4.244,0,0,0,2.845-1c.128-.108.269-.2.4-.3a.828.828,0,0,1,1.269.1.863.863,0,0,1-.137,1.276,6.1,6.1,0,0,1-4.491,1.757,6.29,6.29,0,0,1-6.126-5.737,6.249,6.249,0,0,1,4.673-6.63,6.077,6.077,0,0,1,5.7,1.318c.652.548.763,1.081.366,1.53-.371.419-.883.374-1.521-.133a4.436,4.436,0,0,0-5.786-.1,4.437,4.437,0,0,0-1.375,4.984A4.427,4.427,0,0,0,1655.771-27.689Z" transform="translate(-1641.555 53.302)" fill="#060606"/>
        <path id="Path_891644" data-name="Path 891644" d="M1829.746,30.04c.314.051.528.072.735.123a.828.828,0,0,1,.671.828.758.758,0,0,1-.628.846,10.063,10.063,0,0,1-3.416-.007c-.722-.14-.843-.99-.255-1.524a15.289,15.289,0,0,0,1.781-1.764,2.823,2.823,0,0,0,.712-1.457c.027-.275.013-.545-.343-.6a.538.538,0,0,0-.685.362c-.007.023-.01.047-.015.07-.14.624-.421,1.107-1.167.912-.607-.16-.8-.771-.543-1.558a2.367,2.367,0,1,1,4.41,1.7A6.524,6.524,0,0,1,1829.746,30.04Z" transform="translate(-1793.064 -0.72)" fill="#060606"/>
        <path id="Path_891645" data-name="Path 891645" d="M1841.511-93.928c0,.144,0,.288,0,.432a.826.826,0,0,1-.869.931.819.819,0,0,1-.881-.848,8.619,8.619,0,0,0-.771-3.264,7.518,7.518,0,0,0-3.154-3.342c-.105-.057-.211-.115-.312-.179a.873.873,0,0,1-.4-1.274.881.881,0,0,1,1.313-.273,9.3,9.3,0,0,1,4.57,5.221A7.588,7.588,0,0,1,1841.511-93.928Z" transform="translate(-1800.343 107.629)" fill="#060606"/>
        <path id="Path_891646" data-name="Path 891646" d="M1810.242-105.9a.816.816,0,0,1-.75-.852.848.848,0,0,1,.908-.886.83.83,0,0,1,.869.853C1811.306-106.287,1810.877-105.889,1810.242-105.9Z" transform="translate(-1778.52 112.525)" fill="#060606"/>
        <path id="Path_891647" data-name="Path 891647" d="M1755.228-25.777a4.511,4.511,0,0,1,4.507,4.442,4.513,4.513,0,0,1-4.522,4.5,4.525,4.525,0,0,1-4.478-4.483A4.519,4.519,0,0,1,1755.228-25.777Z" transform="translate(-1728.223 42.448)" fill="#d6d6e2"/>
      </g>
      <path id="Path_891648" data-name="Path 891648" d="M-5515.711-7282" transform="translate(1040.826 301.351)" fill="none" stroke="#707070" stroke-width="1"/>
      <path id="Union_3" data-name="Union 3" d="M242.66,314.047l5.024-4.823,6.542,6.814v-21.8H190.557v22.049l5.242-6.778,5.509,4.261L188.065,330.89,171.9,314.047l5.025-4.823,6.672,6.949V294.234H155.881v-6.965h27.712V265.625h6.964v21.644h63.669V265.625h6.965v21.644H303l-6.4-4.949,4.26-5.51,17.124,13.243L301.14,306.221l-4.823-5.025,7.252-6.962H261.191V316.45l5.37-6.944,5.51,4.261L258.827,330.89Zm128.749-55.625c0-1.245.094-86.121.1-152.4-.025-.829-.03-1.748,0-2.724.005-37.909-.018-69.167-.1-74.188-.183-10.777-10.652-11.8-11.1-11.834l-188.778.013,6.47,5-4.261,5.51-17.2-13.3L172.342,0l4.711,5.13L171.4,10.322H360.61c6.238.521,17.534,5.074,17.763,18.668.072,4.269.1,27.329.1,57.3a13.384,13.384,0,0,1,7.875-2.378h12.12v-34.6l-5.593,6.5-4.548-3.914L402.14,35.848l13.29,16.09-4.626,3.82-5.367-6.5V87.394a3.481,3.481,0,0,1-3.482,3.482h-15.6a5.986,5.986,0,0,0-4.865,2.024c-2.263,2.595-2.934,7.248-3.01,11.092q0,.768,0,1.541a33.065,33.065,0,0,0,.259,3.67l-.259.036c-.013,65.8-.1,147.967-.1,149.192Zm-21.129-.716s.5-173.671,0-185.712c-.35-8.389-7.419-8.925-8.833-8.948H276.913c16.708,19.243,19.367,47.236,19.4,47.67l-4.568.578c-.153-1.759-2.991-31.086-21.686-48.248h-67.6C188.5,75.09,182.873,93.125,180.7,103.422l3.976-3.673,2.782,4.435-11.407,10.539L169.51,99.51l4.073-2.579,2.578,6c2.077-9.772,7.214-26.836,19.2-39.882h-19.52l5.785,4.474-4.261,5.509-17.2-13.3,15.793-14.5,4.711,5.13L174.44,56.08h28.576c8.25-6.206,18.871-10.477,32.526-10.83.571-.014,1.14-.022,1.7-.022,13.724,0,24.3,4.369,32.436,10.851h71.8c5.142.009,14.991,3.282,15.5,15.612.509,12.2.024,179.555,0,186.035ZM235.639,50.824A54.181,54.181,0,0,0,213,56.08h47.154a48.931,48.931,0,0,0-22.9-5.278C236.718,50.8,236.184,50.81,235.639,50.824ZM195.7,175.034l4.567-.5c.144,1.273,3.931,31.166,36.713,30.523,28.413-.569,35.1-22.057,36.484-28.662l-5.225,4.324-2.587-4.605,11.846-9.8,5.877,15.608-4.178,2.317-1.806-4.8c-2.584,9.181-11.558,29.606-40.317,30.183-.387.006-.774.011-1.154.011C199.943,209.63,195.74,175.383,195.7,175.034Zm79.789-.318.13.015-.035-.093Zm-76.55-62.681-.234-.034c0-.021.017-.157.049-.4l-4.845-11.268,4.072-2.579,2.584,6.009c3.4-10.885,12.643-28.765,36.73-29.323.361-.009.72-.013,1.075-.013,33.624,0,37.568,37.2,37.6,37.583l-4.562.647c-.135-1.363-3.655-33.336-34.029-32.645-20.5.475-28.8,14.514-32.076,24.042l3.769-3.482,2.783,4.434L200.451,115.55Z" transform="translate(-4795.48 -7227.897)" fill="#707070"/>
      <g id="Group_1108813" data-name="Group 1108813" transform="translate(-4661.066 -7111)">
        <g id="Ellipse_11722" data-name="Ellipse 11722" transform="translate(35.52)" fill="#c5ffee" stroke="#707070" stroke-width="3">
          <circle cx="10.099" cy="10.099" r="10.099" stroke="none"/>
          <circle cx="10.099" cy="10.099" r="8.599" fill="none"/>
        </g>
        <g id="Ellipse_11724" data-name="Ellipse 11724" transform="translate(35.52 34.127)" fill="#c5ffee" stroke="#707070" stroke-width="3">
          <circle cx="10.099" cy="10.099" r="10.099" stroke="none"/>
          <circle cx="10.099" cy="10.099" r="8.599" fill="none"/>
        </g>
        <g id="Ellipse_11723" data-name="Ellipse 11723" transform="translate(61.289)" fill="#c5ffee" stroke="#707070" stroke-width="3">
          <circle cx="10.099" cy="10.099" r="10.099" stroke="none"/>
          <circle cx="10.099" cy="10.099" r="8.599" fill="none"/>
        </g>
        <g id="Ellipse_11725" data-name="Ellipse 11725" transform="translate(61.289 34.127)" fill="#c5ffee" stroke="#707070" stroke-width="3">
          <circle cx="10.099" cy="10.099" r="10.099" stroke="none"/>
          <circle cx="10.099" cy="10.099" r="8.599" fill="none"/>
        </g>
        <g id="Rectangle_403985" data-name="Rectangle 403985" transform="translate(24.376 9.751)" fill="#fff" stroke="#707070" stroke-width="3">
          <rect width="66.165" height="34.127" rx="17" stroke="none"/>
          <rect x="1.5" y="1.5" width="63.165" height="31.127" rx="15.5" fill="none"/>
        </g>
        <path id="Path_896007" data-name="Path 896007" d="M-4.526,0H-6.284L-9.706-5.613V0h-1.758V-8.531h1.758l3.428,5.625V-8.531h1.752ZM1.931-1.758H-1.151L-1.737,0H-3.606L-.431-8.531H1.2L4.392,0H2.522ZM-.677-3.182H1.456L.384-6.375ZM5.188,0V-8.531H7.813a3.986,3.986,0,0,1,2.013.507,3.534,3.534,0,0,1,1.386,1.441,4.446,4.446,0,0,1,.5,2.124v.393a4.458,4.458,0,0,1-.489,2.115A3.5,3.5,0,0,1,9.841-.516,4.016,4.016,0,0,1,7.831,0ZM6.946-7.107v5.7H7.8a1.909,1.909,0,0,0,1.576-.674,3.045,3.045,0,0,0,.557-1.928v-.451A3.093,3.093,0,0,0,9.39-6.437a1.9,1.9,0,0,0-1.576-.671Z" transform="translate(55.878 30.501)" fill="#12263f"/>
        <path id="Path_896006" data-name="Path 896006" d="M-1.562,0H-7.409V-1.16L-4.649-4.1a6.808,6.808,0,0,0,.841-1.084,1.742,1.742,0,0,0,.272-.879,1.3,1.3,0,0,0-.287-.894,1.036,1.036,0,0,0-.82-.325,1.118,1.118,0,0,0-.905.4,1.567,1.567,0,0,0-.331,1.04h-1.7a2.8,2.8,0,0,1,.372-1.424A2.622,2.622,0,0,1-6.155-8.282a3.2,3.2,0,0,1,1.541-.366,3.027,3.027,0,0,1,2.048.633,2.239,2.239,0,0,1,.729,1.787,2.868,2.868,0,0,1-.328,1.289A7.164,7.164,0,0,1-3.29-3.41L-5.229-1.365h3.668Zm6.51-4.447L6.015-6.34H7.825l-1.8,3.105L7.9,0H6.085L4.954-1.992,3.829,0H2.007L3.888-3.234,2.089-6.34H3.905Z" transform="translate(8 32.591)" fill="#12263f"/>
      </g>
      <g id="Group_1108812" data-name="Group 1108812" transform="translate(-4561.234 -7108)">
        <g id="Ellipse_11727" data-name="Ellipse 11727" transform="translate(25.073 0)" fill="#c5ffee" stroke="#707070" stroke-width="3">
          <ellipse cx="8.009" cy="7.661" rx="8.009" ry="7.661" stroke="none"/>
          <ellipse cx="8.009" cy="7.661" rx="6.509" ry="6.161" fill="none"/>
        </g>
        <g id="Ellipse_11728" data-name="Ellipse 11728" transform="translate(25.073 33.431)" fill="#c5ffee" stroke="#707070" stroke-width="3">
          <ellipse cx="8.009" cy="7.661" rx="8.009" ry="7.661" stroke="none"/>
          <ellipse cx="8.009" cy="7.661" rx="6.509" ry="6.161" fill="none"/>
        </g>
        <g id="Ellipse_11729" data-name="Ellipse 11729" transform="translate(44.574 0)" fill="#c5ffee" stroke="#707070" stroke-width="3">
          <circle cx="7.661" cy="7.661" r="7.661" stroke="none"/>
          <circle cx="7.661" cy="7.661" r="6.161" fill="none"/>
        </g>
        <g id="Ellipse_11732" data-name="Ellipse 11732" transform="translate(63.378 0)" fill="#c5ffee" stroke="#707070" stroke-width="3">
          <ellipse cx="7.313" cy="7.661" rx="7.313" ry="7.661" stroke="none"/>
          <ellipse cx="7.313" cy="7.661" rx="5.813" ry="6.161" fill="none"/>
        </g>
        <g id="Ellipse_11726" data-name="Ellipse 11726" transform="translate(44.574 33.431)" fill="#c5ffee" stroke="#707070" stroke-width="3">
          <circle cx="7.661" cy="7.661" r="7.661" stroke="none"/>
          <circle cx="7.661" cy="7.661" r="6.161" fill="none"/>
        </g>
        <g id="Ellipse_11733" data-name="Ellipse 11733" transform="translate(63.378 33.431)" fill="#c5ffee" stroke="#707070" stroke-width="3">
          <ellipse cx="7.313" cy="7.661" rx="7.313" ry="7.661" stroke="none"/>
          <ellipse cx="7.313" cy="7.661" rx="5.813" ry="6.161" fill="none"/>
        </g>
        <g id="Rectangle_403986" data-name="Rectangle 403986" transform="translate(19.501 7.661)" fill="#fff" stroke="#707070" stroke-width="3">
          <rect width="66.165" height="34.127" rx="17" stroke="none"/>
          <rect x="1.5" y="1.5" width="63.165" height="31.127" rx="15.5" fill="none"/>
        </g>
        <path id="Path_896009" data-name="Path 896009" d="M-8.766,0h-1.758l-3.422-5.613V0H-15.7V-8.531h1.758l3.428,5.625V-8.531h1.752Zm6.457-1.758H-5.391L-5.977,0H-7.846L-4.67-8.531h1.629L.152,0H-1.717ZM-4.916-3.182h2.133L-3.855-6.375ZM.949,0V-8.531H3.574a3.986,3.986,0,0,1,2.013.507A3.534,3.534,0,0,1,6.973-6.583a4.446,4.446,0,0,1,.5,2.124v.393a4.458,4.458,0,0,1-.489,2.115A3.5,3.5,0,0,1,5.6-.516,4.016,4.016,0,0,1,3.592,0ZM2.707-7.107v5.7h.85a1.909,1.909,0,0,0,1.576-.674,3.045,3.045,0,0,0,.557-1.928v-.451A3.093,3.093,0,0,0,5.15-6.437a1.9,1.9,0,0,0-1.576-.671ZM15.691,0H13.934V-3.656H10.506V0H8.748V-8.531h1.758v3.457h3.428V-8.531h1.758Z" transform="translate(51.52 27.715)" fill="#12263f"/>
        <path id="Path_896008" data-name="Path 896008" d="M-1.562,0H-7.409V-1.16L-4.649-4.1a6.808,6.808,0,0,0,.841-1.084,1.742,1.742,0,0,0,.272-.879,1.3,1.3,0,0,0-.287-.894,1.036,1.036,0,0,0-.82-.325,1.118,1.118,0,0,0-.905.4,1.567,1.567,0,0,0-.331,1.04h-1.7a2.8,2.8,0,0,1,.372-1.424A2.622,2.622,0,0,1-6.155-8.282a3.2,3.2,0,0,1,1.541-.366,3.027,3.027,0,0,1,2.048.633,2.239,2.239,0,0,1,.729,1.787,2.868,2.868,0,0,1-.328,1.289A7.164,7.164,0,0,1-3.29-3.41L-5.229-1.365h3.668Zm6.51-4.447L6.015-6.34H7.825l-1.8,3.105L7.9,0H6.085L4.954-1.992,3.829,0H2.007L3.888-3.234,2.089-6.34H3.905Z" transform="translate(8 29.108)" fill="#12263f"/>
      </g>
      <path id="Path_896011" data-name="Path 896011" d="M-3.056,0H-8.9V-1.16L-6.144-4.1A6.808,6.808,0,0,0-5.3-5.186a1.742,1.742,0,0,0,.272-.879,1.3,1.3,0,0,0-.287-.894,1.036,1.036,0,0,0-.82-.325,1.118,1.118,0,0,0-.905.4,1.567,1.567,0,0,0-.331,1.04h-1.7A2.8,2.8,0,0,1-8.7-7.271,2.622,2.622,0,0,1-7.649-8.282a3.2,3.2,0,0,1,1.541-.366,3.027,3.027,0,0,1,2.048.633,2.239,2.239,0,0,1,.729,1.787,2.868,2.868,0,0,1-.328,1.289A7.164,7.164,0,0,1-4.784-3.41L-6.724-1.365h3.668Zm6.51-4.447L4.521-6.34H6.331l-1.8,3.105L6.407,0H4.591L3.46-1.992,2.335,0H.513L2.394-3.234.595-6.34H2.411Z" transform="translate(-4642.616 -6984.579)" fill="#12263f"/>
      <path id="Path_896013" data-name="Path 896013" d="M-3.056,0H-8.9V-1.16L-6.144-4.1A6.808,6.808,0,0,0-5.3-5.186a1.742,1.742,0,0,0,.272-.879,1.3,1.3,0,0,0-.287-.894,1.036,1.036,0,0,0-.82-.325,1.118,1.118,0,0,0-.905.4,1.567,1.567,0,0,0-.331,1.04h-1.7A2.8,2.8,0,0,1-8.7-7.271,2.622,2.622,0,0,1-7.649-8.282a3.2,3.2,0,0,1,1.541-.366,3.027,3.027,0,0,1,2.048.633,2.239,2.239,0,0,1,.729,1.787,2.868,2.868,0,0,1-.328,1.289A7.164,7.164,0,0,1-4.784-3.41L-6.724-1.365h3.668Zm6.51-4.447L4.521-6.34H6.331l-1.8,3.105L6.407,0H4.591L3.46-1.992,2.335,0H.513L2.394-3.234.595-6.34H2.411Z" transform="translate(-4555.837 -6982.567)" fill="#12263f"/>
      <path id="Path_896021" data-name="Path 896021" d="M-4.074,0h-7.8V-1.547l3.68-3.922A9.078,9.078,0,0,0-7.07-6.914a2.322,2.322,0,0,0,.363-1.172A1.738,1.738,0,0,0-7.09-9.277a1.382,1.382,0,0,0-1.094-.434,1.49,1.49,0,0,0-1.207.527A2.089,2.089,0,0,0-9.832-7.8H-12.1a3.729,3.729,0,0,1,.5-1.9,3.5,3.5,0,0,1,1.4-1.348,4.262,4.262,0,0,1,2.055-.488,4.036,4.036,0,0,1,2.73.844A2.985,2.985,0,0,1-4.441-8.3a3.825,3.825,0,0,1-.437,1.719,9.551,9.551,0,0,1-1.5,2.039L-8.965-1.82h4.891Zm8.68-5.93L6.027-8.453H8.441L6.035-4.312,8.543,0H6.121L4.613-2.656,3.113,0H.684L3.191-4.312.793-8.453H3.215Z" transform="translate(-4428.889 -6883.384)" fill="#12263f"/>
      <ellipse id="Ellipse_11734" data-name="Ellipse 11734" cx="21.242" cy="20.894" rx="21.242" ry="20.894" transform="translate(-4629.486 -7009.473)" fill="#8efe43"/>
      <ellipse id="Ellipse_11735" data-name="Ellipse 11735" cx="21.242" cy="20.894" rx="21.242" ry="20.894" transform="translate(-4555.691 -7008.741)" fill="#8efe43"/>
      <path id="Path_891660" data-name="Path 891660" d="M-4317.2-7753.591l22.584-27.367,10.352,8.782,18.192-16.624-18.192,31.367-10.352-10.979Z" transform="translate(-316.416 779.52)" fill="#e0ffa3"/>
      <path id="Path_891661" data-name="Path 891661" d="M-4317.2-7753.591l22.584-27.367,10.352,8.782,18.192-16.624-18.192,31.367-10.352-10.979Z" transform="translate(-243.753 780.252)" fill="#e0ffa3"/>
      <path id="Path_896012" data-name="Path 896012" d="M-5.689-1.758H-8.771L-9.357,0h-1.869l3.176-8.531h1.629L-3.229,0H-5.1ZM-8.3-3.182h2.133L-7.236-6.375ZM3.287-7.107H.674V0H-1.084V-7.107H-3.662V-8.531H3.287Zm2.76,4.1V0H4.289V-8.531H7.617a3.85,3.85,0,0,1,1.69.352,2.591,2.591,0,0,1,1.122,1,2.786,2.786,0,0,1,.393,1.474,2.45,2.45,0,0,1-.858,1.978,3.575,3.575,0,0,1-2.376.724Zm0-1.424h1.57a1.544,1.544,0,0,0,1.063-.328A1.193,1.193,0,0,0,9.047-5.7a1.407,1.407,0,0,0-.369-1.014,1.379,1.379,0,0,0-1.02-.4H6.047Z" transform="translate(-4610.436 -6983.847)" fill="#12263f"/>
      <path id="Path_896014" data-name="Path 896014" d="M-5.689-1.758H-8.771L-9.357,0h-1.869l3.176-8.531h1.629L-3.229,0H-5.1ZM-8.3-3.182h2.133L-7.236-6.375ZM3.287-7.107H.674V0H-1.084V-7.107H-3.662V-8.531H3.287Zm2.76,4.1V0H4.289V-8.531H7.617a3.85,3.85,0,0,1,1.69.352,2.591,2.591,0,0,1,1.122,1,2.786,2.786,0,0,1,.393,1.474,2.45,2.45,0,0,1-.858,1.978,3.575,3.575,0,0,1-2.376.724Zm0-1.424h1.57a1.544,1.544,0,0,0,1.063-.328A1.193,1.193,0,0,0,9.047-5.7a1.407,1.407,0,0,0-.369-1.014,1.379,1.379,0,0,0-1.02-.4H6.047Z" transform="translate(-4534.55 -6983.115)" fill="#12263f"/>
      <g id="Group_1108814" data-name="Group 1108814" transform="translate(-4648.531 -6894.723)">
        <path id="Path_896017" data-name="Path 896017" d="M-3.056,0H-8.9V-1.16L-6.144-4.1A6.808,6.808,0,0,0-5.3-5.186a1.742,1.742,0,0,0,.272-.879,1.3,1.3,0,0,0-.287-.894,1.036,1.036,0,0,0-.82-.325,1.118,1.118,0,0,0-.905.4,1.567,1.567,0,0,0-.331,1.04h-1.7A2.8,2.8,0,0,1-8.7-7.271,2.622,2.622,0,0,1-7.649-8.282a3.2,3.2,0,0,1,1.541-.366,3.027,3.027,0,0,1,2.048.633,2.239,2.239,0,0,1,.729,1.787,2.868,2.868,0,0,1-.328,1.289A7.164,7.164,0,0,1-4.784-3.41L-6.724-1.365h3.668Zm6.51-4.447L4.521-6.34H6.331l-1.8,3.105L6.407,0H4.591L3.46-1.992,2.335,0H.513L2.394-3.234.595-6.34H2.411Z" transform="translate(9 24.511)" fill="#12263f"/>
        <circle id="Ellipse_11730" data-name="Ellipse 11730" cx="19.779" cy="19.779" r="19.779" transform="translate(21.591 0)" fill="#9bffc1"/>
        <path id="Path_891658" data-name="Path 891658" d="M-4317.2-7755.908l21.1-25.566,9.669,8.205,17-15.53-17,29.3-9.669-10.255Z" transform="translate(4333.59 7789.24)" fill="#c5ffee"/>
        <path id="Path_896018" data-name="Path 896018" d="M-6.229-1.758H-9.311L-9.9,0h-1.869L-8.59-8.531h1.629L-3.768,0H-5.637ZM-8.836-3.182H-6.7L-7.775-6.375ZM-2.971,0V-8.531H-.346a3.986,3.986,0,0,1,2.013.507A3.534,3.534,0,0,1,3.053-6.583a4.446,4.446,0,0,1,.5,2.124v.393a4.458,4.458,0,0,1-.489,2.115A3.5,3.5,0,0,1,1.682-.516,4.016,4.016,0,0,1-.328,0Zm1.758-7.107v5.7h.85a1.909,1.909,0,0,0,1.576-.674A3.045,3.045,0,0,0,1.77-4.014v-.451A3.093,3.093,0,0,0,1.23-6.437,1.9,1.9,0,0,0-.346-7.107Zm7.8,4.1V0H4.828V-8.531H8.156a3.85,3.85,0,0,1,1.69.352,2.591,2.591,0,0,1,1.122,1,2.786,2.786,0,0,1,.393,1.474A2.45,2.45,0,0,1,10.5-3.729a3.575,3.575,0,0,1-2.376.724Zm0-1.424h1.57A1.544,1.544,0,0,0,9.22-4.758,1.193,1.193,0,0,0,9.586-5.7a1.407,1.407,0,0,0-.369-1.014,1.379,1.379,0,0,0-1.02-.4H6.586Z" transform="translate(41.824 24.511)" fill="#12263f"/>
      </g>
      <g id="Group_1108815" data-name="Group 1108815" transform="translate(-4577.626 -6894.723)">
        <path id="Path_896019" data-name="Path 896019" d="M-3.056,0H-8.9V-1.16L-6.144-4.1A6.808,6.808,0,0,0-5.3-5.186a1.742,1.742,0,0,0,.272-.879,1.3,1.3,0,0,0-.287-.894,1.036,1.036,0,0,0-.82-.325,1.118,1.118,0,0,0-.905.4,1.567,1.567,0,0,0-.331,1.04h-1.7A2.8,2.8,0,0,1-8.7-7.271,2.622,2.622,0,0,1-7.649-8.282a3.2,3.2,0,0,1,1.541-.366,3.027,3.027,0,0,1,2.048.633,2.239,2.239,0,0,1,.729,1.787,2.868,2.868,0,0,1-.328,1.289A7.164,7.164,0,0,1-4.784-3.41L-6.724-1.365h3.668Zm6.51-4.447L4.521-6.34H6.331l-1.8,3.105L6.407,0H4.591L3.46-1.992,2.335,0H.513L2.394-3.234.595-6.34H2.411Z" transform="translate(9 24.511)" fill="#12263f"/>
        <circle id="Ellipse_11730-2" data-name="Ellipse 11730" cx="19.779" cy="19.779" r="19.779" transform="translate(21.591 0)" fill="#9bffc1"/>
        <path id="Path_891658-2" data-name="Path 891658" d="M-4317.2-7755.908l21.1-25.566,9.669,8.205,17-15.53-17,29.3-9.669-10.255Z" transform="translate(4333.59 7789.24)" fill="#c5ffee"/>
        <path id="Path_896020" data-name="Path 896020" d="M-6.229-1.758H-9.311L-9.9,0h-1.869L-8.59-8.531h1.629L-3.768,0H-5.637ZM-8.836-3.182H-6.7L-7.775-6.375ZM-2.971,0V-8.531H-.346a3.986,3.986,0,0,1,2.013.507A3.534,3.534,0,0,1,3.053-6.583a4.446,4.446,0,0,1,.5,2.124v.393a4.458,4.458,0,0,1-.489,2.115A3.5,3.5,0,0,1,1.682-.516,4.016,4.016,0,0,1-.328,0Zm1.758-7.107v5.7h.85a1.909,1.909,0,0,0,1.576-.674A3.045,3.045,0,0,0,1.77-4.014v-.451A3.093,3.093,0,0,0,1.23-6.437,1.9,1.9,0,0,0-.346-7.107Zm7.8,4.1V0H4.828V-8.531H8.156a3.85,3.85,0,0,1,1.69.352,2.591,2.591,0,0,1,1.122,1,2.786,2.786,0,0,1,.393,1.474A2.45,2.45,0,0,1,10.5-3.729a3.575,3.575,0,0,1-2.376.724Zm0-1.424h1.57A1.544,1.544,0,0,0,9.22-4.758,1.193,1.193,0,0,0,9.586-5.7a1.407,1.407,0,0,0-.369-1.014,1.379,1.379,0,0,0-1.02-.4H6.586Z" transform="translate(41.824 24.511)" fill="#12263f"/>
      </g>
      <rect id="Rectangle_403839" data-name="Rectangle 403839" width="119.794" height="36.156" rx="11" transform="translate(-4735.59 -7306.022)" fill="#066454"/>
      <rect id="Rectangle_403988" data-name="Rectangle 403988" width="106.104" height="36.156" rx="11" transform="translate(-4735.59 -7047.774)" fill="#a50751"/>
      <path id="Path_896003" data-name="Path 896003" d="M22.87,10.18H18.292V15H16.315V3.625h7.227V5.219h-5.25V8.6H22.87Zm5.609,4.977a3.928,3.928,0,0,1-2.926-1.137,4.124,4.124,0,0,1-1.121-3.027v-.234A5.072,5.072,0,0,1,24.921,8.5a3.716,3.716,0,0,1,1.371-1.551,3.625,3.625,0,0,1,1.969-.555,3.318,3.318,0,0,1,2.668,1.1,4.658,4.658,0,0,1,.941,3.117v.766H26.346a2.539,2.539,0,0,0,.7,1.656,2.1,2.1,0,0,0,1.543.609,2.571,2.571,0,0,0,2.125-1.055l1.023.977a3.418,3.418,0,0,1-1.355,1.176A4.244,4.244,0,0,1,28.479,15.156Zm-.227-7.242a1.6,1.6,0,0,0-1.262.547,2.835,2.835,0,0,0-.613,1.523h3.617V9.844A2.307,2.307,0,0,0,29.487,8.4,1.586,1.586,0,0,0,28.253,7.914Zm9.516.367a4.7,4.7,0,0,0-.773-.062,1.741,1.741,0,0,0-1.758,1V15h-1.9V6.547h1.813l.047.945a2.139,2.139,0,0,1,1.906-1.1,1.777,1.777,0,0,1,.672.109Zm2.984-1.734.055.883a3.042,3.042,0,0,1,2.438-1.039,2.337,2.337,0,0,1,2.32,1.3,3,3,0,0,1,2.594-1.3,2.636,2.636,0,0,1,2.082.773,3.405,3.405,0,0,1,.7,2.281V15h-1.9V9.5a1.681,1.681,0,0,0-.352-1.18,1.539,1.539,0,0,0-1.164-.375,1.581,1.581,0,0,0-1.059.348,1.833,1.833,0,0,0-.574.91L45.9,15H44V9.438a1.354,1.354,0,0,0-1.523-1.492,1.671,1.671,0,0,0-1.617.93V15h-1.9V6.547Zm15.859,8.609a3.928,3.928,0,0,1-2.926-1.137,4.124,4.124,0,0,1-1.121-3.027v-.234A5.072,5.072,0,0,1,53.053,8.5a3.716,3.716,0,0,1,1.371-1.551,3.625,3.625,0,0,1,1.969-.555,3.318,3.318,0,0,1,2.668,1.1A4.658,4.658,0,0,1,60,10.609v.766H54.479a2.539,2.539,0,0,0,.7,1.656,2.1,2.1,0,0,0,1.543.609,2.571,2.571,0,0,0,2.125-1.055l1.023.977a3.418,3.418,0,0,1-1.355,1.176A4.244,4.244,0,0,1,56.612,15.156Zm-.227-7.242a1.6,1.6,0,0,0-1.262.547,2.835,2.835,0,0,0-.613,1.523h3.617V9.844A2.307,2.307,0,0,0,57.62,8.4,1.586,1.586,0,0,0,56.385,7.914Zm6.852-1.367.055.977a3.039,3.039,0,0,1,2.461-1.133q2.641,0,2.688,3.023V15h-1.9V9.523a1.741,1.741,0,0,0-.348-1.191,1.462,1.462,0,0,0-1.137-.387,1.829,1.829,0,0,0-1.711,1.039V15h-1.9V6.547Zm9.516-2.055V6.547h1.492V7.953H72.753v4.719a1.039,1.039,0,0,0,.191.7.888.888,0,0,0,.684.215,2.925,2.925,0,0,0,.664-.078v1.469a4.676,4.676,0,0,1-1.25.18q-2.188,0-2.187-2.414V7.953H69.464V6.547h1.391V4.492ZM80.745,15a2.93,2.93,0,0,1-.219-.789,3.193,3.193,0,0,1-4.3.219,2.325,2.325,0,0,1-.8-1.8,2.4,2.4,0,0,1,1-2.074A4.865,4.865,0,0,1,79.3,9.836h1.164V9.281A1.481,1.481,0,0,0,80.1,8.23a1.456,1.456,0,0,0-1.117-.395,1.672,1.672,0,0,0-1.062.324,1,1,0,0,0-.414.824H75.6a2.107,2.107,0,0,1,.461-1.3,3.071,3.071,0,0,1,1.254-.949,4.4,4.4,0,0,1,1.77-.344,3.547,3.547,0,0,1,2.367.746,2.661,2.661,0,0,1,.906,2.1v3.813a4.321,4.321,0,0,0,.32,1.82V15Zm-2.086-1.367a2.159,2.159,0,0,0,1.059-.273,1.827,1.827,0,0,0,.746-.734V11.031H79.44a2.8,2.8,0,0,0-1.586.367,1.189,1.189,0,0,0-.531,1.039,1.109,1.109,0,0,0,.363.871A1.407,1.407,0,0,0,78.659,13.633Zm9.164.008A1.716,1.716,0,0,0,89,13.227a1.415,1.415,0,0,0,.5-1.023h1.789a2.789,2.789,0,0,1-.492,1.473,3.228,3.228,0,0,1-1.25,1.082,3.725,3.725,0,0,1-1.7.4,3.6,3.6,0,0,1-2.812-1.148,4.555,4.555,0,0,1-1.039-3.172v-.2a4.479,4.479,0,0,1,1.031-3.09,3.571,3.571,0,0,1,2.813-1.16A3.473,3.473,0,0,1,90.3,7.27a3.148,3.148,0,0,1,1,2.309H89.5a1.738,1.738,0,0,0-.5-1.2,1.6,1.6,0,0,0-1.184-.469,1.671,1.671,0,0,0-1.422.668,3.408,3.408,0,0,0-.508,2.027v.3a3.465,3.465,0,0,0,.5,2.051A1.669,1.669,0,0,0,87.823,13.641ZM94.745,15h-1.9V6.547h1.9ZM92.729,4.352a1.008,1.008,0,0,1,.277-.727,1.048,1.048,0,0,1,.793-.289,1.061,1.061,0,0,1,.8.289,1,1,0,0,1,.281.727.977.977,0,0,1-.281.715,1.069,1.069,0,0,1-.8.285,1.056,1.056,0,0,1-.793-.285A.984.984,0,0,1,92.729,4.352ZM96.456,10.7a4.984,4.984,0,0,1,.492-2.238,3.6,3.6,0,0,1,1.383-1.531,3.9,3.9,0,0,1,2.047-.535,3.692,3.692,0,0,1,2.777,1.1,4.333,4.333,0,0,1,1.152,2.922l.008.445a5.029,5.029,0,0,1-.48,2.234,3.551,3.551,0,0,1-1.375,1.523,3.925,3.925,0,0,1-2.066.539,3.667,3.667,0,0,1-2.863-1.191,4.563,4.563,0,0,1-1.074-3.176Zm1.9.164a3.406,3.406,0,0,0,.539,2.043,1.752,1.752,0,0,0,1.5.738,1.733,1.733,0,0,0,1.5-.75,3.762,3.762,0,0,0,.535-2.2,3.362,3.362,0,0,0-.551-2.031A1.856,1.856,0,0,0,98.9,8.652,3.691,3.691,0,0,0,98.354,10.859ZM100.9,3h2.164L100.9,5.367l-1.523,0Zm6.781,3.547.055.977A3.039,3.039,0,0,1,110.2,6.391q2.641,0,2.688,3.023V15h-1.9V9.523a1.741,1.741,0,0,0-.348-1.191,1.462,1.462,0,0,0-1.137-.387,1.829,1.829,0,0,0-1.711,1.039V15h-1.9V6.547Z" transform="translate(-4739.441 -7297.539)" fill="#fff"/>
      <path id="Path_896010" data-name="Path 896010" d="M24.29,13.523a3.779,3.779,0,0,1-1.711,1.219,6.98,6.98,0,0,1-2.484.414,4.9,4.9,0,0,1-2.531-.648,4.319,4.319,0,0,1-1.7-1.855,6.491,6.491,0,0,1-.621-2.816V8.945a6.02,6.02,0,0,1,1.234-4.027,4.281,4.281,0,0,1,3.445-1.449,4.529,4.529,0,0,1,3.016.941,4.057,4.057,0,0,1,1.344,2.707H22.345a2.18,2.18,0,0,0-2.383-2.055,2.336,2.336,0,0,0-2.02.956,4.871,4.871,0,0,0-.715,2.806V9.7A4.626,4.626,0,0,0,18,12.56a2.564,2.564,0,0,0,2.16,1.019,2.848,2.848,0,0,0,2.156-.687V10.664H19.978v-1.5H24.29ZM28.3,15H26.4V3h1.9Zm7.188-.828a2.944,2.944,0,0,1-2.375.984,2.624,2.624,0,0,1-2.082-.8,3.423,3.423,0,0,1-.707-2.328V6.547h1.9V12q0,1.609,1.336,1.609a1.876,1.876,0,0,0,1.867-.992V6.547h1.9V15H35.532Zm7.242-.531a1.716,1.716,0,0,0,1.18-.414,1.415,1.415,0,0,0,.5-1.023H46.2a2.789,2.789,0,0,1-.492,1.473,3.228,3.228,0,0,1-1.25,1.082,3.725,3.725,0,0,1-1.7.4,3.6,3.6,0,0,1-2.812-1.148A4.555,4.555,0,0,1,38.9,10.836v-.2a4.479,4.479,0,0,1,1.031-3.09,3.571,3.571,0,0,1,2.813-1.16A3.473,3.473,0,0,1,45.2,7.27a3.148,3.148,0,0,1,1,2.309H44.407a1.738,1.738,0,0,0-.5-1.2,1.6,1.6,0,0,0-1.184-.469,1.671,1.671,0,0,0-1.422.668,3.408,3.408,0,0,0-.508,2.027v.3a3.465,3.465,0,0,0,.5,2.051A1.669,1.669,0,0,0,42.728,13.641ZM47.274,10.7a4.984,4.984,0,0,1,.492-2.238,3.6,3.6,0,0,1,1.383-1.531A3.9,3.9,0,0,1,51.2,6.391a3.692,3.692,0,0,1,2.777,1.1,4.333,4.333,0,0,1,1.152,2.922l.008.445a5.029,5.029,0,0,1-.48,2.234,3.551,3.551,0,0,1-1.375,1.523,3.925,3.925,0,0,1-2.066.539,3.667,3.667,0,0,1-2.863-1.191,4.563,4.563,0,0,1-1.074-3.176Zm1.9.164a3.406,3.406,0,0,0,.539,2.043,1.752,1.752,0,0,0,1.5.738,1.733,1.733,0,0,0,1.5-.75,3.762,3.762,0,0,0,.535-2.2,3.362,3.362,0,0,0-.551-2.031,1.856,1.856,0,0,0-2.973-.012A3.691,3.691,0,0,0,49.173,10.859ZM51.72,3h2.164L51.72,5.367l-1.523,0Zm7.039,12h-1.9V3h1.9Zm4.086,0h-1.9V6.547h1.9ZM60.829,4.352a1.008,1.008,0,0,1,.277-.727,1.048,1.048,0,0,1,.793-.289,1.061,1.061,0,0,1,.8.289,1,1,0,0,1,.281.727.977.977,0,0,1-.281.715,1.069,1.069,0,0,1-.8.285,1.056,1.056,0,0,1-.793-.285A.984.984,0,0,1,60.829,4.352Zm8.82,8.352a.861.861,0,0,0-.418-.773,4.445,4.445,0,0,0-1.387-.469,7.129,7.129,0,0,1-1.617-.516,2.158,2.158,0,0,1-1.422-1.992,2.25,2.25,0,0,1,.922-1.828,3.644,3.644,0,0,1,2.344-.734,3.792,3.792,0,0,1,2.449.75,2.38,2.38,0,0,1,.934,1.945h-1.9a1.17,1.17,0,0,0-.406-.91,1.557,1.557,0,0,0-1.078-.363,1.682,1.682,0,0,0-1.02.289.911.911,0,0,0-.395.773.769.769,0,0,0,.367.68,5.049,5.049,0,0,0,1.484.488,7.027,7.027,0,0,1,1.754.586,2.484,2.484,0,0,1,.945.816,2.082,2.082,0,0,1,.309,1.156,2.2,2.2,0,0,1-.945,1.848,4.031,4.031,0,0,1-2.477.707,4.371,4.371,0,0,1-1.852-.375,3.047,3.047,0,0,1-1.266-1.031,2.441,2.441,0,0,1-.453-1.414h1.844a1.338,1.338,0,0,0,.508,1.035,1.973,1.973,0,0,0,1.242.363,1.92,1.92,0,0,0,1.141-.285A.883.883,0,0,0,69.649,12.7ZM75.188,15h-1.9V6.547h1.9ZM73.173,4.352a1.008,1.008,0,0,1,.277-.727,1.048,1.048,0,0,1,.793-.289,1.061,1.061,0,0,1,.8.289,1,1,0,0,1,.281.727.977.977,0,0,1-.281.715,1.069,1.069,0,0,1-.8.285,1.056,1.056,0,0,1-.793-.285A.984.984,0,0,1,73.173,4.352Zm8.82,8.352a.861.861,0,0,0-.418-.773,4.445,4.445,0,0,0-1.387-.469,7.129,7.129,0,0,1-1.617-.516,2.158,2.158,0,0,1-1.422-1.992,2.25,2.25,0,0,1,.922-1.828,3.644,3.644,0,0,1,2.344-.734,3.792,3.792,0,0,1,2.449.75A2.38,2.38,0,0,1,83.8,9.086H81.9a1.17,1.17,0,0,0-.406-.91,1.557,1.557,0,0,0-1.078-.363A1.682,1.682,0,0,0,79.4,8.1.911.911,0,0,0,79,8.875a.769.769,0,0,0,.367.68,5.049,5.049,0,0,0,1.484.488,7.027,7.027,0,0,1,1.754.586,2.484,2.484,0,0,1,.945.816A2.082,2.082,0,0,1,83.86,12.6a2.2,2.2,0,0,1-.945,1.848,4.031,4.031,0,0,1-2.477.707,4.371,4.371,0,0,1-1.852-.375,3.047,3.047,0,0,1-1.266-1.031,2.441,2.441,0,0,1-.453-1.414h1.844a1.338,1.338,0,0,0,.508,1.035,1.973,1.973,0,0,0,1.242.363,1.92,1.92,0,0,0,1.141-.285A.883.883,0,0,0,81.993,12.7Z" transform="translate(-4733.441 -7039.291)" fill="#fff"/>
    </g>
  </g>
</svg>
