<svg xmlns="http://www.w3.org/2000/svg" xmlns:xlink="http://www.w3.org/1999/xlink" width="98.579" height="98.578" viewBox="0 0 98.579 98.578">
  <defs>
    <clipPath id="clip-path">
      <rect id="Rectangle_401223" data-name="Rectangle 401223" width="98.579" height="98.578" transform="translate(0)" fill="#115e01"/>
    </clipPath>
    <clipPath id="clip-path-2">
      <rect id="Rectangle_401223-2" data-name="Rectangle 401223" width="88.117" height="88.116" fill="#f2ffd9"/>
    </clipPath>
  </defs>
  <g id="Group_1111701" data-name="Group 1111701" transform="translate(-749.082 -1073.136)">
    <g id="Group_1101953" data-name="Group 1101953" transform="translate(-172.252 662.131)">
      <g id="Group_1099654" data-name="Group 1099654" transform="translate(921.333 411.006)">
        <g id="Group_1099652" data-name="Group 1099652" transform="translate(0 0)" clip-path="url(#clip-path)">
          <path id="Path_873521" data-name="Path 873521" d="M98.579,76.737a21.9,21.9,0,0,1-21.84,21.84H21.84A21.9,21.9,0,0,1,0,76.737V21.84A21.9,21.9,0,0,1,21.84,0h54.9a21.9,21.9,0,0,1,21.84,21.841Z" transform="translate(0)" fill="#115e01"/>
        </g>
      </g>
      <g id="Group_1099659" data-name="Group 1099659" transform="translate(926.103 416.728)">
        <g id="Group_1099652-2" data-name="Group 1099652" transform="translate(0 0)" clip-path="url(#clip-path-2)">
          <path id="Path_873521-2" data-name="Path 873521" d="M88.117,68.594A19.58,19.58,0,0,1,68.595,88.116H19.523A19.58,19.58,0,0,1,0,68.594V19.522A19.58,19.58,0,0,1,19.523,0H68.595A19.58,19.58,0,0,1,88.117,19.523Z" fill="#f2ffd9"/>
        </g>
      </g>
    </g>
    <g id="Group_1101954" data-name="Group 1101954" transform="translate(765.023 1088.94)">
      <rect id="Rectangle_401104" data-name="Rectangle 401104" width="68" height="69" transform="translate(0.059 -0.804)" fill="none"/>
      <g id="Group_1103173" data-name="Group 1103173" transform="translate(-136.104 -282.887)">
        <path id="Path_878909" data-name="Path 878909" d="M149.944,373.734A15.274,15.274,0,0,1,160.1,357.4a12.555,12.555,0,0,1,6.556-.745,9.027,9.027,0,0,0,1.409.05c.441.147.881.3,1.324.44a14.972,14.972,0,0,1,10.635,11.312,7.955,7.955,0,0,0-4.271,4.864c-.286.739-.462,1.546.467,1.893s1.221-.461,1.471-1.121a7.043,7.043,0,0,1,2.735-3.559,1.4,1.4,0,0,0,.779-1.563,6.644,6.644,0,0,1,4.555-.542q1.134.279,2.269.553c.931.933,2.165,1.508,2.919,2.669a7.866,7.866,0,0,1,1.346,5.228c-.1.936.169,1.29,1.2,1.29a10.549,10.549,0,0,1,10.5,8.661,10.666,10.666,0,0,1-10.408,12.754c-1.607.006-3.214,0-4.821,0a22.633,22.633,0,0,0-2.361-4.275c-.549-.834-.941-.715-1.454,0A20.755,20.755,0,0,0,182.6,399.6l-7.56-.012a30.75,30.75,0,0,0-4.316-7.623c-.493-.631-.68-.622-1.166,0a30.63,30.63,0,0,0-4.32,7.619l-7.558.011a20.673,20.673,0,0,0-2.339-4.288c-.515-.716-.889-.81-1.457,0a28.076,28.076,0,0,0-2.361,4.277c-2.063-.1-4.121.132-6.186-.418a12.507,12.507,0,0,1,.268-24.179,10.417,10.417,0,0,1,3.6-.354c-.1.85.435,1.045,1.126,1.166a11.445,11.445,0,0,1,8.912,7c.334.745.648,1.482,1.574,1.079.9-.392.655-1.2.362-1.93a13.1,13.1,0,0,0-4.168-5.443A11.543,11.543,0,0,0,149.944,373.734Zm43.741,9.124a5.848,5.848,0,0,0-3.576.985c-.57.386-1.147.837-.6,1.619.493.709,1.11.518,1.753.16,2.781-1.552,5.591-.168,5.994,2.96.1.755.365,1.345,1.2,1.294.8-.049.921-.682.921-1.377A5.861,5.861,0,0,0,193.684,382.858Zm-39.093-11.742c0,.117.01.235,0,.352-.075.773.194,1.41,1.019,1.4.784-.012,1.075-.641,1.089-1.4a7.415,7.415,0,0,1,.156-1.389,8.587,8.587,0,0,1,3.78-5.435c.52-.356,1.062-.827.611-1.55s-1.132-.616-1.744-.214A10.52,10.52,0,0,0,154.592,371.116Zm11.07-9.907h-.586c-.782,0-1.475.211-1.476,1.122,0,.888.7.97,1.421,1a11.647,11.647,0,0,1,2.2.287,1.046,1.046,0,0,0,1.44-.789c.19-.718-.322-1.11-.928-1.263C166.982,361.379,166.2,361.3,165.662,361.209Z" transform="translate(0 -56.857)" fill="#b0d5f3"/>
        <path id="Path_878910" data-name="Path 878910" d="M283.443,311.6a14.972,14.972,0,0,0-10.635-11.312c-.442-.143-.883-.293-1.324-.44a11.931,11.931,0,0,1,9.708-8.214c.665-.117.712-.431.71-.945q-.015-3.529,0-7.058c0-.554,0-1.133.606-1.42.752-.358,1.448.133,1.458,1.081.026,2.352.036,4.706,0,7.058-.014.822.128,1.179,1.093,1.337a11.827,11.827,0,0,1,9.7,9.628c.171.94.528,1.2,1.44,1.173,2.273-.061,4.548-.035,6.823-.013,1.014.01,1.577.572,1.362,1.3-.2.693-.755.8-1.395.8-2.353-.014-4.706.006-7.058-.013-.565,0-.963.043-1.06.741a12.5,12.5,0,0,1-3.419,6.82q-1.135-.276-2.27-.553a6.644,6.644,0,0,0-4.554.542C284.048,312.364,283.526,312.488,283.443,311.6Zm8.049-8.692a8.623,8.623,0,0,0-8.215-8c-.648,0-1.188.181-1.263.927-.082.81.425,1.137,1.137,1.175a6.194,6.194,0,0,1,1.957.341,6.432,6.432,0,0,1,4.365,5.724c.072.74.174,1.522,1.134,1.449C291.583,304.449,291.528,303.633,291.492,302.909Z" transform="translate(-103.424)" fill="#fba724"/>
        <path id="Path_878911" data-name="Path 878911" d="M258.08,513.09a30.628,30.628,0,0,1,4.32-7.619c.486-.626.673-.635,1.166,0a30.749,30.749,0,0,1,4.316,7.623c.2,1.457.732,2.879.263,4.394a5.389,5.389,0,0,1-6.5,3.8,5.475,5.475,0,0,1-3.931-6.238C257.821,514.39,257.957,513.741,258.08,513.09Z" transform="translate(-92.842 -170.36)" fill="#3d83c5"/>
        <path id="Path_878912" data-name="Path 878912" d="M332.444,523.6a20.756,20.756,0,0,1,2.341-4.288c.513-.711.906-.831,1.454,0a22.632,22.632,0,0,1,2.361,4.275,17.213,17.213,0,0,1,.212,1.744,3.235,3.235,0,0,1-3.249,3.426,3.142,3.142,0,0,1-3.313-3.321A3.474,3.474,0,0,1,332.444,523.6Z" transform="translate(-149.845 -180.86)" fill="#3d83c5"/>
        <path id="Path_878913" data-name="Path 878913" d="M200.656,523.609a28.077,28.077,0,0,1,2.361-4.277c.568-.813.942-.719,1.457,0a20.675,20.675,0,0,1,2.339,4.288,3.667,3.667,0,0,0,.166,1.261,3.295,3.295,0,1,1-6.53.592A16.474,16.474,0,0,1,200.656,523.609Z" transform="translate(-49.132 -180.877)" fill="#3d83c5"/>
        <path id="Path_878914" data-name="Path 878914" d="M192.191,429.655a11.542,11.542,0,0,1,7.067,2.778,13.1,13.1,0,0,1,4.168,5.443c.294.728.539,1.538-.362,1.93-.926.4-1.24-.334-1.574-1.079a11.445,11.445,0,0,0-8.912-7c-.691-.12-1.227-.315-1.126-1.166C192.184,430.654,192.251,430.207,192.191,429.655Z" transform="translate(-42.247 -112.778)" fill="#3e84c6"/>
        <path id="Path_878915" data-name="Path 878915" d="M276.3,297.98c.023.674-.2,1.032-.626,1.215a.885.885,0,0,1-1.158-.272c-.78-1.254-1.531-2.527-2.231-3.827a.923.923,0,0,1,.307-1.16.854.854,0,0,1,1.182-.046A21.822,21.822,0,0,1,276.3,297.98Z" transform="translate(-103.961 -8.848)" fill="#fba929"/>
        <path id="Path_878916" data-name="Path 878916" d="M381.25,406.45a.986.986,0,0,1-1.332,1.018c-1.327-.665-2.606-1.433-3.864-2.223a.921.921,0,0,1-.225-1.357.888.888,0,0,1,1.221-.391c1.3.711,2.581,1.476,3.857,2.239A.786.786,0,0,1,381.25,406.45Z" transform="translate(-183.023 -92.699)" fill="#fba929"/>
        <path id="Path_878917" data-name="Path 878917" d="M381.311,326.193a1.078,1.078,0,0,1-.625.925c-1.077.632-2.154,1.267-3.234,1.892a1.033,1.033,0,0,1-1.545-.246c-.431-.666-.131-1.2.486-1.566,1.072-.642,2.135-1.3,3.24-1.882C380.5,324.859,381.347,325.341,381.311,326.193Z" transform="translate(-183.077 -32.899)" fill="#fba929"/>
        <path id="Path_878918" data-name="Path 878918" d="M246.349,327.948a1.015,1.015,0,0,1-1.492,1.016c-1.253-.643-2.455-1.389-3.658-2.125a.928.928,0,0,1-.376-1.235.888.888,0,0,1,1.134-.6,19.869,19.869,0,0,1,4.148,2.41C246.264,327.531,246.3,327.824,246.349,327.948Z" transform="translate(-79.916 -32.752)" fill="#fba929"/>
        <path id="Path_878919" data-name="Path 878919" d="M354.767,295.07a4.289,4.289,0,0,1-.242.612c-.6,1.05-1.2,2.1-1.827,3.135-.36.594-.868.946-1.558.514a1.026,1.026,0,0,1-.276-1.538q.922-1.63,1.885-3.236a1.021,1.021,0,0,1,1.295-.516A1.113,1.113,0,0,1,354.767,295.07Z" transform="translate(-163.922 -9.078)" fill="#fba929"/>
        <path id="Path_878920" data-name="Path 878920" d="M365.935,468.361A5.861,5.861,0,0,1,371.622,474c0,.694-.117,1.328-.921,1.377-.832.051-1.1-.539-1.2-1.294-.4-3.128-3.214-4.512-5.994-2.96-.642.358-1.259.549-1.753-.16-.545-.783.032-1.233.6-1.619A5.848,5.848,0,0,1,365.935,468.361Z" transform="translate(-172.251 -142.36)" fill="#3e84c6"/>
        <path id="Path_878921" data-name="Path 878921" d="M214.3,390.8a10.52,10.52,0,0,1,4.909-8.241c.612-.4,1.289-.515,1.744.215s-.091,1.193-.611,1.55a8.587,8.587,0,0,0-3.78,5.435,7.412,7.412,0,0,0-.156,1.389c-.014.761-.3,1.389-1.089,1.4-.825.013-1.094-.624-1.019-1.4C214.311,391.035,214.3,390.916,214.3,390.8Z" transform="translate(-59.71 -76.54)" fill="#3e84c6"/>
        <path id="Path_878922" data-name="Path 878922" d="M307.626,407.272c.083.887.605.763,1.182.513a1.4,1.4,0,0,1-.779,1.563,7.043,7.043,0,0,0-2.735,3.559c-.25.66-.553,1.464-1.471,1.121s-.753-1.154-.467-1.893A7.955,7.955,0,0,1,307.626,407.272Z" transform="translate(-127.608 -95.671)" fill="#3e84c6"/>
        <path id="Path_878923" data-name="Path 878923" d="M254.623,376.517c.54.09,1.32.17,2.072.36.607.153,1.118.546.928,1.263a1.046,1.046,0,0,1-1.44.789,11.642,11.642,0,0,0-2.2-.287c-.723-.034-1.421-.116-1.421-1,0-.911.694-1.125,1.476-1.122Z" transform="translate(-88.961 -72.165)" fill="#3e84c6"/>
        <path id="Path_878924" data-name="Path 878924" d="M325.6,344.451c.036.724.091,1.541-.885,1.615-.96.073-1.062-.709-1.134-1.449a6.432,6.432,0,0,0-4.365-5.724,6.2,6.2,0,0,0-1.957-.341c-.712-.039-1.218-.366-1.137-1.175.075-.746.615-.922,1.263-.927A8.623,8.623,0,0,1,325.6,344.451Z" transform="translate(-137.537 -41.542)" fill="#b0d5f3"/>
      </g>
    </g>
  </g>
</svg>
