<svg xmlns="http://www.w3.org/2000/svg" xmlns:xlink="http://www.w3.org/1999/xlink" width="98.579" height="98.578" viewBox="0 0 98.579 98.578">
  <defs>
    <clipPath id="clip-path">
      <rect id="Rectangle_401223" data-name="Rectangle 401223" width="98.579" height="98.578" transform="translate(0)" fill="#115e01"/>
    </clipPath>
    <clipPath id="clip-path-2">
      <rect id="Rectangle_401223-2" data-name="Rectangle 401223" width="88.117" height="88.116" fill="#f2ffd9"/>
    </clipPath>
  </defs>
  <g id="Group_1111700" data-name="Group 1111700" transform="translate(-397.25 -1073.136)">
    <g id="Group_1100172" data-name="Group 1100172" transform="translate(-524.084 662.131)">
      <g id="Group_1099654" data-name="Group 1099654" transform="translate(921.333 411.006)">
        <g id="Group_1099652" data-name="Group 1099652" transform="translate(0 0)" clip-path="url(#clip-path)">
          <path id="Path_873521" data-name="Path 873521" d="M98.579,76.737a21.9,21.9,0,0,1-21.84,21.84H21.84A21.9,21.9,0,0,1,0,76.737V21.84A21.9,21.9,0,0,1,21.84,0h54.9a21.9,21.9,0,0,1,21.84,21.841Z" transform="translate(0)" fill="#115e01"/>
        </g>
      </g>
      <g id="Group_1099659" data-name="Group 1099659" transform="translate(926.103 416.728)">
        <g id="Group_1099652-2" data-name="Group 1099652" transform="translate(0 0)" clip-path="url(#clip-path-2)">
          <path id="Path_873521-2" data-name="Path 873521" d="M88.117,68.594A19.58,19.58,0,0,1,68.595,88.116H19.523A19.58,19.58,0,0,1,0,68.594V19.522A19.58,19.58,0,0,1,19.523,0H68.595A19.58,19.58,0,0,1,88.117,19.523Z" fill="#f2ffd9"/>
        </g>
      </g>
    </g>
    <g id="Group_1100171" data-name="Group 1100171" transform="translate(413.191 1088.94)">
      <rect id="Rectangle_401104" data-name="Rectangle 401104" width="68" height="69" transform="translate(0.059 -0.804)" fill="none"/>
      <g id="Group_1103172" data-name="Group 1103172" transform="translate(-144.366 -259.194)">
        <path id="Path_878899" data-name="Path 878899" d="M221.922,357.705a20.65,20.65,0,1,1,20.708-20.593A20.568,20.568,0,0,1,221.922,357.705Zm.455-38.1c-.787-.015-1.2.307-1.248.932-.061.869.488.936,1.154.945.484.006.965.136,1.45.183A14.945,14.945,0,0,1,233,326.122a15.9,15.9,0,0,1,4.551,10.65c.043.676.108,1.212.964,1.13s.969-.715.914-1.378a17.977,17.977,0,0,0-3.936-10.4A17.569,17.569,0,0,0,222.377,319.61Z" transform="translate(-44.911 -45.004)" fill="#ffd22b"/>
        <path id="Path_878900" data-name="Path 878900" d="M188.6,305.591c.015-1.8.089-1.91,1.86-1.887a9.912,9.912,0,0,1,6.508,1.968c.642.53.916.9-.006,1.545a20.039,20.039,0,0,0-4.949,4.976c-.482.686-.779.566-1.27.052A9.806,9.806,0,0,1,188.6,305.591Z" transform="translate(-34.864 -34.977)" fill="#f99526"/>
        <path id="Path_878901" data-name="Path 878901" d="M376.379,305.628c-.118,2.413-.437,4.715-2.089,6.613-.534.613-.864.711-1.407-.061a20.924,20.924,0,0,0-5.046-5.026c-.613-.434-.594-.73-.069-1.192,2.317-2.04,5.092-2.392,7.987-2.061C376.745,304.014,376.154,305.065,376.379,305.628Z" transform="translate(-175.959 -35.048)" fill="#f99526"/>
        <path id="Path_878902" data-name="Path 878902" d="M190.846,491.567c-2.151-.016-2.261-.092-2.224-1.955a9.789,9.789,0,0,1,2.029-6.484c.566-.665.914-.719,1.475.073a20.735,20.735,0,0,0,4.978,4.948c.663.469.609.773.066,1.267A9.616,9.616,0,0,1,190.846,491.567Z" transform="translate(-34.878 -176.182)" fill="#f99526"/>
        <path id="Path_878903" data-name="Path 878903" d="M376.482,489.236c-.019,2.141-.1,2.248-1.964,2.214a9.838,9.838,0,0,1-6.4-1.966c-.644-.533-.915-.906.005-1.546a20.1,20.1,0,0,0,4.948-4.975c.48-.681.783-.583,1.266-.052A9.626,9.626,0,0,1,376.482,489.236Z" transform="translate(-176.078 -176.075)" fill="#f99526"/>
        <path id="Path_878904" data-name="Path 878904" d="M282.542,267.207a16.364,16.364,0,0,0-3.735.281c-.729.145-.738-.158-.758-.678a6.894,6.894,0,0,1,1.193-3.962,14.222,14.222,0,0,1,2.751-3.162c.272-.239.537-.468.905-.133,2.109,1.918,3.983,3.964,4.107,7.048.031.758-.106,1.012-.975.851A14.467,14.467,0,0,0,282.542,267.207Z" transform="translate(-105.456)" fill="#f99526"/>
        <path id="Path_878905" data-name="Path 878905" d="M151.56,393.012c.723-.138,1.077.005.9,1.078a21.258,21.258,0,0,0,.044,7.119c.126.739-.177.729-.686.749a6.966,6.966,0,0,1-4.047-1.258,14.106,14.106,0,0,1-3-2.616c-.251-.283-.508-.518-.2-.99A10.556,10.556,0,0,1,151.56,393.012Z" transform="translate(0 -105.428)" fill="#f99526"/>
        <path id="Path_878906" data-name="Path 878906" d="M416.861,402.091c-.8.08-1.2.013-1.012-1.041a20.635,20.635,0,0,0-.014-7.016c-.152-.9.179-.9.828-.9a7.6,7.6,0,0,1,4.54,1.707,14.509,14.509,0,0,1,2.386,2.212c.228.259.517.517.178.9C421.9,400.073,419.833,401.855,416.861,402.091Z" transform="translate(-214.176 -105.559)" fill="#f99526"/>
        <path id="Path_878907" data-name="Path 878907" d="M277.845,531.689c-.115-.592.057-.92,1.118-.736a20.555,20.555,0,0,0,6.91-.014c.928-.155.955.179.951.879a7.845,7.845,0,0,1-1.872,4.694,15.113,15.113,0,0,1-2.091,2.212c-.279.249-.543.423-.909.1a11.758,11.758,0,0,1-3.978-5.8A9.7,9.7,0,0,1,277.845,531.689Z" transform="translate(-105.274 -214.289)" fill="#f99526"/>
        <path id="Path_878908" data-name="Path 878908" d="M296.5,331.6a17.569,17.569,0,0,1,13.114,6.515,17.978,17.978,0,0,1,3.936,10.4c.055.663-.051,1.295-.914,1.378s-.922-.454-.964-1.13a15.9,15.9,0,0,0-4.551-10.65,14.945,14.945,0,0,0-9.265-4.453c-.485-.047-.966-.177-1.45-.183-.666-.008-1.215-.076-1.154-.944C295.294,331.911,295.711,331.589,296.5,331.6Z" transform="translate(-119.032 -56.997)" fill="#f99526"/>
      </g>
    </g>
  </g>
</svg>
