<svg xmlns="http://www.w3.org/2000/svg" width="108" height="108" viewBox="0 0 108 108">
  <g id="Group_1111707" data-name="Group 1111707" transform="translate(-903.711 -1642)">
    <circle id="Ellipse_11602" data-name="Ellipse 11602" cx="54" cy="54" r="54" transform="translate(903.711 1642)" fill="#fff"/>
    <g id="Group_1103507" data-name="Group 1103507" transform="translate(920.836 1659.852)">
      <rect id="Rectangle_401104" data-name="Rectangle 401104" width="72" height="73" transform="translate(-0.125 0.148)" fill="none"/>
      <g id="Group_1103200" data-name="Group 1103200" transform="translate(2.032 1.738)">
        <rect id="Rectangle_401104-2" data-name="Rectangle 401104" width="69.748" height="70.773" transform="translate(0.095 -0.804)" fill="none"/>
        <g id="Group_1103211" data-name="Group 1103211" transform="translate(-1.367 -0.804)">
          <path id="Path_879000" data-name="Path 879000" d="M249.446,339.812a7.936,7.936,0,0,1-8.077,8.307q-19.192,0-38.385,0a7.958,7.958,0,0,1-8.078-8.308c.6-.061.538-.63.7-.984a7.562,7.562,0,0,1,4.291-4.173c.907-.341,1.285-.794,1.173-1.728a10.376,10.376,0,0,1-.012-1.184l.005-1.65c.6-.056.536-.625.709-.976,1.973-4.009,5-6.4,9.636-6.383,1.864.006,1.863,0,1.758,1.882a3.472,3.472,0,0,0,0,.355c.034.734.077,1.469,1.056,1.554,1.035.091,1.149-.613,1.339-1.408.378-1.581.188-3.293,1.222-4.729,3.453-4.794,8-7.254,13.978-6.416,5.419.761,9.156,3.831,11.419,8.8.356.781.284,1.783,1.114,2.338a14.028,14.028,0,0,1-.486,5.726c-.183.6-.023.918.516,1.125-1.045,1.911-1.033,1.942.837,2.586a7.729,7.729,0,0,1,4.593,4.29C248.913,339.185,248.848,339.752,249.446,339.812ZM228.66,315.129c-4.089.193-7.8,3.21-9.435,6.472a1.169,1.169,0,0,0,.477,1.733c.749.335,1.31.068,1.723-.718a9.386,9.386,0,0,1,7.357-5.114c.737-.107,1.284-.392,1.223-1.278C229.94,315.26,229.317,315.084,228.66,315.129Z" transform="translate(-178.238 -299.397)" fill="#c5ffee"/>
          <path id="Path_879001" data-name="Path 879001" d="M155.482,283.785q0,.825-.005,1.65a9.1,9.1,0,0,0-4.766,3.365c-.683-.114-1.412.159-2.061-.245a1.906,1.906,0,0,0-1.064-.467,15.73,15.73,0,0,1-9.039-6.4,18.441,18.441,0,0,1,5.041-26.143c1.571-1.019,3.393-1.4,5.061-2.157a13.114,13.114,0,0,1,5.962.125A17.138,17.138,0,0,1,168.1,268.3a21.464,21.464,0,0,1-.048,5.755c-1.593-.125-3.193-.4-4.751.222a9.413,9.413,0,0,1,.247-2.116v-2.388a13.511,13.511,0,0,0-.983-3.973c-.5-1.163-.92-2.415-2.1-3.137a7.088,7.088,0,0,0-1.658-1.657c-.014-.505-.39-.718-.746-.976a12.251,12.251,0,0,0-6.368-2.111c-.8.111-1.641-.257-2.4.247l-.929,0a9.6,9.6,0,0,0-3.893,1.247c-.775.4-1.67.723-2.08,1.623a1.987,1.987,0,0,0-1.824,1.827c-.165.095-.384.15-.485.29a10.412,10.412,0,0,0-2.391,6.617,2.658,2.658,0,0,0,0,2.4,9.493,9.493,0,0,0,1.664,5.545c.309.512.507,1.179,1.211,1.362a1.989,1.989,0,0,0,1.824,1.828,9.488,9.488,0,0,0,5.973,2.869h.929c.756.5,1.6.136,2.4.247a20.041,20.041,0,0,0,3.78-.708Z" transform="translate(-132.66 -253.09)" fill="#abbad1"/>
          <path id="Path_879002" data-name="Path 879002" d="M220.813,322.218q0-.237-.009-.474a10.242,10.242,0,0,1,7.828-9.03c1.558-.625,3.158-.347,4.751-.222,1.545.647,1.535.642,2.267-.784a14.152,14.152,0,0,1,13.3-8.222,14.576,14.576,0,0,1,12.88,8.737,16.171,16.171,0,0,1,1.216,5.01c-.83-.555-.758-1.557-1.114-2.338-2.263-4.966-6-8.036-11.419-8.8-5.973-.839-10.525,1.622-13.978,6.416-1.034,1.436-.844,3.149-1.222,4.729-.19.8-.3,1.5-1.339,1.408-.979-.086-1.022-.821-1.056-1.554a3.485,3.485,0,0,1,0-.355c.106-1.881.106-1.876-1.758-1.882-4.634-.016-7.663,2.374-9.636,6.383C221.349,321.593,221.415,322.162,220.813,322.218Z" transform="translate(-197.99 -291.523)" fill="#a6d2f2"/>
          <path id="Path_879003" data-name="Path 879003" d="M140.681,254.133c-1.668.76-3.49,1.138-5.061,2.157a18.441,18.441,0,0,0-5.041,26.143,15.73,15.73,0,0,0,9.039,6.4,1.906,1.906,0,0,1,1.064.467,13.634,13.634,0,0,1-7.433-2.391,17.783,17.783,0,0,1-2.661-28.43,17.149,17.149,0,0,1,9.162-4.368A2.06,2.06,0,0,1,140.681,254.133Z" transform="translate(-124.691 -253.837)" fill="#8699b5"/>
          <path id="Path_879004" data-name="Path 879004" d="M235.752,483.224c-.68,1.739-1.237,3.238-1.851,4.714a2.087,2.087,0,0,1-2.532,1.228,1.807,1.807,0,0,1-1.6-1.649,2.236,2.236,0,0,1,1.422-2.558C232.605,484.387,234.043,483.87,235.752,483.224Z" transform="translate(-204.801 -428.599)" fill="#c5ffee"/>
          <path id="Path_879005" data-name="Path 879005" d="M295.708,483.213c-.688,1.756-1.249,3.258-1.866,4.737a2.08,2.08,0,0,1-2.544,1.2,1.814,1.814,0,0,1-1.584-1.667,2.153,2.153,0,0,1,1.343-2.49C292.489,484.376,293.971,483.871,295.708,483.213Z" transform="translate(-250.516 -428.59)" fill="#c5ffee"/>
          <path id="Path_879006" data-name="Path 879006" d="M360.668,483.189c-.695,1.768-1.257,3.272-1.877,4.752a2.084,2.084,0,0,1-2.549,1.192,1.792,1.792,0,0,1-1.557-1.561,2.135,2.135,0,0,1,1.235-2.545C357.379,484.378,358.9,483.865,360.668,483.189Z" transform="translate(-300.052 -428.572)" fill="#c5ffee"/>
          <path id="Path_879007" data-name="Path 879007" d="M255.719,528.175c-.7,1.773-1.262,3.278-1.883,4.758a2.081,2.081,0,0,1-2.553,1.183,1.792,1.792,0,0,1-1.55-1.568,2.137,2.137,0,0,1,1.244-2.541C252.437,529.361,253.954,528.849,255.719,528.175Z" transform="translate(-220.014 -462.88)" fill="#c5ffee"/>
          <path id="Path_879008" data-name="Path 879008" d="M315.7,528.167c-.714,1.778-1.31,3.332-1.964,4.862a2.021,2.021,0,0,1-2.486,1.078,1.783,1.783,0,0,1-1.545-1.572A2.139,2.139,0,0,1,310.957,530C312.415,529.353,313.931,528.841,315.7,528.167Z" transform="translate(-265.751 -462.874)" fill="#c5ffee"/>
          <path id="Path_879009" data-name="Path 879009" d="M402.761,398.122c-.6-.06-.533-.628-.7-.979a7.729,7.729,0,0,0-4.593-4.29c-1.87-.644-1.882-.675-.837-2.586C400.038,390.7,402.819,394.264,402.761,398.122Z" transform="translate(-331.553 -357.706)" fill="#a7d2f3"/>
          <path id="Path_879010" data-name="Path 879010" d="M196.249,392.723a9.1,9.1,0,0,1,4.766-3.365,10.37,10.37,0,0,0,.012,1.185c.112.934-.266,1.388-1.173,1.728a7.562,7.562,0,0,0-4.291,4.173c-.16.353-.1.923-.7.984A8.5,8.5,0,0,1,196.249,392.723Z" transform="translate(-178.197 -357.013)" fill="#a6d2f2"/>
          <path id="Path_879011" data-name="Path 879011" d="M306.189,319.348c.656-.045,1.279.131,1.346,1.094.061.886-.487,1.171-1.223,1.278a9.386,9.386,0,0,0-7.357,5.114c-.414.787-.974,1.053-1.724.718a1.169,1.169,0,0,1-.477-1.733C298.387,322.559,302.1,319.541,306.189,319.348Z" transform="translate(-255.767 -303.616)" fill="#fdfeff"/>
          <path id="Path_879012" data-name="Path 879012" d="M178.365,289.805a10.242,10.242,0,0,0-7.828,9.03,20.048,20.048,0,0,1-3.78.708c0-.789.026-1.581-.023-2.367a1.171,1.171,0,0,0-2.342-.01c-.045.708-.024,1.42-.032,2.13h-.929c-.395-.779-1.286-.752-1.908-1.168-1.144-.765-2.451-1.324-3.1-2.661.561-.636,1.166-1.337.48-2.164-.641-.772-1.4-.438-2.08.087a2.4,2.4,0,0,1-.679-1.076,18.172,18.172,0,0,1-1.251-4.606c.669-.137,1.158-.484,1.158-1.216s-.49-1.079-1.158-1.216c.078-.419.147-.841.237-1.258a9.989,9.989,0,0,1,1.693-4.425c.676.526,1.435.856,2.08.087.579-.691.27-1.4-.348-1.969a1.059,1.059,0,0,1-.132-.194,1.218,1.218,0,0,1,.529-.869,14.915,14.915,0,0,1,3.947-2.441c.268-.106.516-.18.534-.52l.929,0c.007.671,0,1.342.023,2.012.023.728.379,1.243,1.127,1.268.812.027,1.209-.493,1.234-1.278.023-.749.01-1.5.013-2.249a12.251,12.251,0,0,1,6.368,2.111c.356.258.731.471.746.976-.538.51-1.114.985-1.6,1.54a1.214,1.214,0,0,0,1.716,1.717c.555-.486,1.032-1.062,1.543-1.6,1.181.722,1.6,1.974,2.1,3.137a13.51,13.51,0,0,1,.983,3.972c-.751,0-1.5,0-2.252.014a1.14,1.14,0,0,0-1.275,1.122c-.031.813.488,1.213,1.275,1.238.75.024,1.5.011,2.252.014A9.413,9.413,0,0,0,178.365,289.805Zm-13.485-5.675c-.629-.644-1.247-1.3-1.891-1.928a1.223,1.223,0,1,0-1.719,1.718c.634.639,1.286,1.261,1.93,1.89-.022,2.207.658,3.009,2.577,3.039l.492.022a15.39,15.39,0,0,0,1.249,1.252,1.189,1.189,0,0,0,1.672-1.679,15.557,15.557,0,0,0-1.251-1.252c-.016-2.113-.524-2.83-2.16-3.052Z" transform="translate(-147.723 -268.614)" fill="#d6deec"/>
          <path id="Path_879013" data-name="Path 879013" d="M149.941,295.477a9.989,9.989,0,0,0-1.693,4.425c-.09.417-.159.838-.237,1.258l-2.134.016a10.412,10.412,0,0,1,2.391-6.617c.1-.14.321-.2.485-.29Z" transform="translate(-140.843 -284.495)" fill="#cad5e6"/>
          <path id="Path_879014" data-name="Path 879014" d="M147.99,333.49a18.173,18.173,0,0,0,1.251,4.606,2.4,2.4,0,0,0,.678,1.076l-1.188,1.208c-.7-.182-.9-.85-1.211-1.362a9.493,9.493,0,0,1-1.664-5.545Z" transform="translate(-140.822 -314.393)" fill="#cad5e6"/>
          <path id="Path_879015" data-name="Path 879015" d="M159.2,289.6l-1.188-1.208a1.989,1.989,0,0,1,1.824-1.828l.963.96a1.059,1.059,0,0,0,.132.194c.617.572.927,1.278.348,1.969C160.639,290.46,159.88,290.13,159.2,289.6Z" transform="translate(-150.106 -278.622)" fill="#879ab6"/>
          <path id="Path_879016" data-name="Path 879016" d="M158.016,356.947l1.188-1.208c.676-.526,1.44-.859,2.08-.087.686.827.081,1.527-.48,2.164l-.963.959A1.989,1.989,0,0,1,158.016,356.947Z" transform="translate(-150.106 -330.96)" fill="#879ab6"/>
          <path id="Path_879017" data-name="Path 879017" d="M230.223,288.112c-.511.537-.988,1.113-1.543,1.6a1.214,1.214,0,0,1-1.716-1.717c.487-.554,1.064-1.03,1.6-1.54A7.086,7.086,0,0,1,230.223,288.112Z" transform="translate(-202.419 -278.535)" fill="#879ab6"/>
          <path id="Path_879018" data-name="Path 879018" d="M197.176,273.359c0,.75.01,1.5-.013,2.249-.024.785-.421,1.305-1.234,1.278-.747-.025-1.1-.54-1.127-1.268-.021-.67-.016-1.341-.023-2.012C195.535,273.1,196.381,273.47,197.176,273.359Z" transform="translate(-178.144 -268.527)" fill="#8497b4"/>
          <path id="Path_879019" data-name="Path 879019" d="M147.116,325.731l-2.134-.017a2.658,2.658,0,0,1,0-2.4l2.134-.016c.668.137,1.158.483,1.158,1.216S147.785,325.594,147.116,325.731Z" transform="translate(-139.948 -306.634)" fill="#8497b4"/>
          <path id="Path_879020" data-name="Path 879020" d="M243.488,325.777c-.751,0-1.5.009-2.252-.014-.787-.025-1.306-.425-1.275-1.238a1.14,1.14,0,0,1,1.275-1.122c.75-.018,1.5-.01,2.252-.014Z" transform="translate(-212.599 -306.703)" fill="#8497b4"/>
          <path id="Path_879021" data-name="Path 879021" d="M194.78,371.8c.008-.71-.013-1.422.032-2.13a1.171,1.171,0,0,1,2.342.01c.049.787.018,1.578.023,2.367C196.381,371.938,195.535,372.306,194.78,371.8Z" transform="translate(-178.144 -341.119)" fill="#8497b4"/>
          <path id="Path_879022" data-name="Path 879022" d="M166.665,278.308l-.963-.96c.41-.9,1.3-1.218,2.08-1.623a9.6,9.6,0,0,1,3.893-1.247c-.018.339-.266.414-.534.52a14.915,14.915,0,0,0-3.947,2.441A1.218,1.218,0,0,0,166.665,278.308Z" transform="translate(-155.968 -269.402)" fill="#cad5e6"/>
          <path id="Path_879023" data-name="Path 879023" d="M165.7,367.19l.963-.959c.65,1.336,1.958,1.9,3.1,2.66.622.416,1.514.389,1.908,1.168A9.488,9.488,0,0,1,165.7,367.19Z" transform="translate(-155.968 -339.375)" fill="#cad5e6"/>
          <path id="Path_879024" data-name="Path 879024" d="M196.714,323.231l-.492-.022c-1.879-1.528-1.879-3.2,0-4.709,1.637.223,2.145.94,2.161,3.052A3.1,3.1,0,0,1,196.714,323.231Z" transform="translate(-178.169 -302.975)" fill="#abb9d0"/>
          <path id="Path_879025" data-name="Path 879025" d="M182.142,312.385c-.644-.629-1.3-1.251-1.93-1.89a1.223,1.223,0,1,1,1.719-1.718c.644.629,1.262,1.284,1.891,1.928A4.131,4.131,0,0,0,182.142,312.385Z" transform="translate(-166.666 -295.189)" fill="#e03e64"/>
          <path id="Path_879026" data-name="Path 879026" d="M202.822,333.038a3.1,3.1,0,0,0,1.67-1.678,15.553,15.553,0,0,1,1.251,1.252,1.189,1.189,0,0,1-1.672,1.679A15.4,15.4,0,0,1,202.822,333.038Z" transform="translate(-184.277 -312.782)" fill="#e03f65"/>
          <path id="Path_879027" data-name="Path 879027" d="M189.891,320.139a4.132,4.132,0,0,1,1.68-1.68l.9.01c-1.88,1.513-1.88,3.181,0,4.709C190.549,323.148,189.87,322.346,189.891,320.139Z" transform="translate(-174.415 -302.943)" fill="#8898b4"/>
        </g>
      </g>
    </g>
  </g>
</svg>
