<svg xmlns="http://www.w3.org/2000/svg" xmlns:xlink="http://www.w3.org/1999/xlink" width="117.278" height="117.278" viewBox="0 0 117.278 117.278">
  <defs>
    <clipPath id="clip-path">
      <rect id="Rectangle_400938" data-name="Rectangle 400938" width="117.278" height="117.278" fill="none"/>
    </clipPath>
    <clipPath id="clip-path-2">
      <path id="Path_873460" data-name="Path 873460" d="M0,1.307A1.349,1.349,0,0,0,1.389,2.613,1.349,1.349,0,0,0,2.778,1.307,1.349,1.349,0,0,0,1.389,0,1.349,1.349,0,0,0,0,1.307" transform="translate(0)" fill="#115e01"/>
    </clipPath>
    <clipPath id="clip-path-3">
      <path id="Path_873466" data-name="Path 873466" d="M0,1.307A1.349,1.349,0,0,0,1.39,2.613,1.349,1.349,0,0,0,2.778,1.307,1.349,1.349,0,0,0,1.39,0,1.349,1.349,0,0,0,0,1.307" fill="#115e01"/>
    </clipPath>
    <clipPath id="clip-path-4">
      <path id="Path_873467" data-name="Path 873467" d="M0,1.306A1.349,1.349,0,0,0,1.389,2.612,1.349,1.349,0,0,0,2.778,1.306,1.349,1.349,0,0,0,1.389,0,1.349,1.349,0,0,0,0,1.306" transform="translate(0 0)" fill="#115e01"/>
    </clipPath>
    <clipPath id="clip-path-5">
      <path id="Path_873468" data-name="Path 873468" d="M0,1.306A1.349,1.349,0,0,0,1.39,2.612,1.349,1.349,0,0,0,2.778,1.306,1.349,1.349,0,0,0,1.39,0,1.349,1.349,0,0,0,0,1.306" transform="translate(0 0)" fill="#115e01"/>
    </clipPath>
    <clipPath id="clip-path-6">
      <path id="Path_873469" data-name="Path 873469" d="M0,1.306A1.349,1.349,0,0,0,1.389,2.612,1.349,1.349,0,0,0,2.777,1.306,1.349,1.349,0,0,0,1.389,0,1.349,1.349,0,0,0,0,1.306" transform="translate(0 0)" fill="#115e01"/>
    </clipPath>
    <clipPath id="clip-path-9">
      <path id="Path_873473" data-name="Path 873473" d="M0,1.306A1.349,1.349,0,0,0,1.39,2.612,1.348,1.348,0,0,0,2.778,1.306,1.349,1.349,0,0,0,1.39,0,1.349,1.349,0,0,0,0,1.306" transform="translate(0 0)" fill="#115e01"/>
    </clipPath>
    <clipPath id="clip-path-22">
      <rect id="Rectangle_401492" data-name="Rectangle 401492" width="63.051" height="63.052" transform="translate(-0.068 -0.363)" fill="#fff" stroke="#707070" stroke-width="1"/>
    </clipPath>
  </defs>
  <g id="Group_1109731" data-name="Group 1109731" transform="translate(23057.926 3814.948)">
    <g id="Group_1102014" data-name="Group 1102014" transform="translate(-25293.797 -3787.592)">
      <path id="Path_874344" data-name="Path 874344" d="M2243.665,72.328v41.678a4.943,4.943,0,0,0,2.471,4.281l45.9,26.5a4.942,4.942,0,0,0,4.943,0l45.9-26.5a4.943,4.943,0,0,0,2.472-4.281V72.328a4.942,4.942,0,0,0-2.472-4.281l-45.9-26.5a4.942,4.942,0,0,0-4.943,0l-45.9,26.5A4.943,4.943,0,0,0,2243.665,72.328Z" transform="translate(0 -58.981)" fill="#8efe43"/>
      <path id="Path_874345" data-name="Path 874345" d="M2286.509,4.461V52.587a4.943,4.943,0,0,0,2.471,4.281l41.678,24.063a4.942,4.942,0,0,0,4.943,0l41.678-24.063a4.944,4.944,0,0,0,2.472-4.281V4.461A4.944,4.944,0,0,0,2377.28.18L2335.6-23.882a4.942,4.942,0,0,0-4.943,0L2288.98.18A4.943,4.943,0,0,0,2286.509,4.461Z" transform="translate(-38.622 0)" fill="#115e01"/>
    </g>
    <g id="Group_1100237" data-name="Group 1100237" transform="translate(-23054.037 -3797.84)">
      <g id="Group_1099505" data-name="Group 1099505" transform="translate(1.808 8.418)">
        <g id="Group_1099504" data-name="Group 1099504" transform="translate(0)" clip-path="url(#clip-path-2)">
          <rect id="Rectangle_401140" data-name="Rectangle 401140" width="2.777" height="2.613" transform="translate(0)" fill="#115e01"/>
        </g>
      </g>
      <g id="Group_1099517" data-name="Group 1099517" transform="translate(37.056 8.418)">
        <g id="Group_1099516" data-name="Group 1099516" transform="translate(0)" clip-path="url(#clip-path-3)">
          <rect id="Rectangle_401146" data-name="Rectangle 401146" width="2.778" height="2.613" transform="translate(0 0)" fill="#115e01"/>
        </g>
      </g>
      <g id="Group_1099519" data-name="Group 1099519" transform="translate(30.194 8.418)">
        <g id="Group_1099518" data-name="Group 1099518" transform="translate(0 0)" clip-path="url(#clip-path-4)">
          <rect id="Rectangle_401147" data-name="Rectangle 401147" width="2.778" height="2.612" transform="translate(0 0)" fill="#115e01"/>
        </g>
      </g>
      <g id="Group_1099521" data-name="Group 1099521" transform="translate(23.332 8.418)">
        <g id="Group_1099520" data-name="Group 1099520" transform="translate(0 0)" clip-path="url(#clip-path-5)">
          <rect id="Rectangle_401148" data-name="Rectangle 401148" width="2.778" height="2.612" transform="translate(0 0)" fill="#115e01"/>
        </g>
      </g>
      <g id="Group_1099523" data-name="Group 1099523" transform="translate(16.47 8.418)">
        <g id="Group_1099522" data-name="Group 1099522" transform="translate(0 0)" clip-path="url(#clip-path-6)">
          <rect id="Rectangle_401149" data-name="Rectangle 401149" width="2.777" height="2.612" transform="translate(0 0)" fill="#115e01"/>
        </g>
      </g>
      <g id="Group_1099525" data-name="Group 1099525" transform="translate(34.311 0)">
        <g id="Group_1099524" data-name="Group 1099524" clip-path="url(#clip-path-4)">
          <rect id="Rectangle_401150" data-name="Rectangle 401150" width="2.778" height="2.612" transform="translate(0 0)" fill="#115e01"/>
        </g>
      </g>
      <g id="Group_1099529" data-name="Group 1099529" transform="translate(27.448 0)">
        <g id="Group_1099528" data-name="Group 1099528" transform="translate(0)" clip-path="url(#clip-path-5)">
          <rect id="Rectangle_401152" data-name="Rectangle 401152" width="2.778" height="2.612" transform="translate(0 0)" fill="#115e01"/>
        </g>
      </g>
      <g id="Group_1099531" data-name="Group 1099531" transform="translate(13.724 0)">
        <g id="Group_1099530" data-name="Group 1099530" transform="translate(0)" clip-path="url(#clip-path-9)">
          <rect id="Rectangle_401153" data-name="Rectangle 401153" width="2.777" height="2.612" transform="translate(0 0)" fill="#115e01"/>
        </g>
      </g>
      <g id="Group_1099533" data-name="Group 1099533" transform="translate(6.862 0)">
        <g id="Group_1099532" data-name="Group 1099532" clip-path="url(#clip-path-4)">
          <rect id="Rectangle_401154" data-name="Rectangle 401154" width="2.778" height="2.612" transform="translate(0 0)" fill="#115e01"/>
        </g>
      </g>
      <g id="Group_1099535" data-name="Group 1099535" transform="translate(0 0)">
        <g id="Group_1099534" data-name="Group 1099534" transform="translate(0)" clip-path="url(#clip-path-5)">
          <rect id="Rectangle_401155" data-name="Rectangle 401155" width="2.778" height="2.612" transform="translate(0 0)" fill="#115e01"/>
        </g>
      </g>
    </g>
    <g id="Group_1100238" data-name="Group 1100238" transform="translate(-22980.652 -3724.455)">
      <g id="Group_1099505-2" data-name="Group 1099505" transform="translate(1.808 8.418)">
        <g id="Group_1099504-2" data-name="Group 1099504" transform="translate(0)" clip-path="url(#clip-path-2)">
          <rect id="Rectangle_401140-2" data-name="Rectangle 401140" width="2.777" height="2.613" transform="translate(0)" fill="#115e01"/>
        </g>
      </g>
      <g id="Group_1099517-2" data-name="Group 1099517" transform="translate(37.056 8.418)">
        <g id="Group_1099516-2" data-name="Group 1099516" transform="translate(0)" clip-path="url(#clip-path-3)">
          <rect id="Rectangle_401146-2" data-name="Rectangle 401146" width="2.778" height="2.613" transform="translate(0 0)" fill="#115e01"/>
        </g>
      </g>
      <g id="Group_1099519-2" data-name="Group 1099519" transform="translate(30.194 8.418)">
        <g id="Group_1099518-2" data-name="Group 1099518" transform="translate(0 0)" clip-path="url(#clip-path-4)">
          <rect id="Rectangle_401147-2" data-name="Rectangle 401147" width="2.778" height="2.612" transform="translate(0 0)" fill="#115e01"/>
        </g>
      </g>
      <g id="Group_1099521-2" data-name="Group 1099521" transform="translate(23.332 8.418)">
        <g id="Group_1099520-2" data-name="Group 1099520" transform="translate(0 0)" clip-path="url(#clip-path-5)">
          <rect id="Rectangle_401148-2" data-name="Rectangle 401148" width="2.778" height="2.612" transform="translate(0 0)" fill="#115e01"/>
        </g>
      </g>
      <g id="Group_1099523-2" data-name="Group 1099523" transform="translate(16.47 8.418)">
        <g id="Group_1099522-2" data-name="Group 1099522" transform="translate(0 0)" clip-path="url(#clip-path-6)">
          <rect id="Rectangle_401149-2" data-name="Rectangle 401149" width="2.777" height="2.612" transform="translate(0 0)" fill="#115e01"/>
        </g>
      </g>
      <g id="Group_1099525-2" data-name="Group 1099525" transform="translate(34.311 0)">
        <g id="Group_1099524-2" data-name="Group 1099524" clip-path="url(#clip-path-4)">
          <rect id="Rectangle_401150-2" data-name="Rectangle 401150" width="2.778" height="2.612" transform="translate(0 0)" fill="#115e01"/>
        </g>
      </g>
      <g id="Group_1099529-2" data-name="Group 1099529" transform="translate(27.448 0)">
        <g id="Group_1099528-2" data-name="Group 1099528" transform="translate(0)" clip-path="url(#clip-path-5)">
          <rect id="Rectangle_401152-2" data-name="Rectangle 401152" width="2.778" height="2.612" transform="translate(0 0)" fill="#115e01"/>
        </g>
      </g>
      <g id="Group_1099531-2" data-name="Group 1099531" transform="translate(13.724 0)">
        <g id="Group_1099530-2" data-name="Group 1099530" transform="translate(0)" clip-path="url(#clip-path-9)">
          <rect id="Rectangle_401153-2" data-name="Rectangle 401153" width="2.777" height="2.612" transform="translate(0 0)" fill="#115e01"/>
        </g>
      </g>
      <g id="Group_1099533-2" data-name="Group 1099533" transform="translate(6.862 0)">
        <g id="Group_1099532-2" data-name="Group 1099532" clip-path="url(#clip-path-4)">
          <rect id="Rectangle_401154-2" data-name="Rectangle 401154" width="2.778" height="2.612" transform="translate(0 0)" fill="#115e01"/>
        </g>
      </g>
      <g id="Group_1099535-2" data-name="Group 1099535" transform="translate(0 0)">
        <g id="Group_1099534-2" data-name="Group 1099534" transform="translate(0)" clip-path="url(#clip-path-5)">
          <rect id="Rectangle_401155-2" data-name="Rectangle 401155" width="2.778" height="2.612" transform="translate(0 0)" fill="#115e01"/>
        </g>
      </g>
    </g>
    <g id="Mask_Group_1098697" data-name="Mask Group 1098697" transform="translate(-23031.146 -3787.541)" clip-path="url(#clip-path-22)">
      <g id="Group_1103023" data-name="Group 1103023" transform="translate(-399.728 24.286)">
        <path id="Path_878704" data-name="Path 878704" d="M431.354-22.649a38.406,38.406,0,0,1,3.829.775c3.225.973,6.419,2.048,9.621,3.092a17.133,17.133,0,0,1,10.972,9.853c1.649,3.863,3.191,7.776,4.656,11.713a12.008,12.008,0,0,1-.028,8.463c-1.4,3.863-2.8,7.732-4.324,11.546a14.967,14.967,0,0,1-8.664,8.7c-4.081,1.605-8.171,3.2-12.315,4.633a10.61,10.61,0,0,1-7.1-.227,58.59,58.59,0,0,0-6.9-1.8c-7.606-1.635-12.52-6.347-15.223-13.444-1.483-3.893-2.684-7.9-3.925-11.878a7.967,7.967,0,0,1,.311-5.188c.737-2.027,1.362-4.1,2.008-6.154.175-.558.427-1.04,1.067-.9s.863.614.645,1.284C405.346-.19,404.8,1.842,404.062,3.8a7.105,7.105,0,0,0-.329,4.893c1.407,4.219,2.778,8.454,4.366,12.605a21.769,21.769,0,0,0,2.734,4.615c2.533,3.58,6.239,5.328,10.355,6.395,2.928.759,5.84,1.582,8.768,2.344a10.043,10.043,0,0,0,6.1-.6q5.821-2.164,11.543-4.591a12.98,12.98,0,0,0,6.981-7.594c1.46-3.676,2.8-7.4,4.16-11.115a11.8,11.8,0,0,0-.282-8.531q-1.974-5.1-4.111-10.141a15.763,15.763,0,0,0-10.18-9.231c-3.239-1.03-6.464-2.1-9.707-3.124-3.172-1-6.269-.415-9.271.68a74.423,74.423,0,0,0-12.677,6.34,11.959,11.959,0,0,0-5.073,6.324,4.083,4.083,0,0,1-.461,1.2,1.5,1.5,0,0,1-1.076.573c-.563-.075-.725-.581-.542-1.156,1-3.145,2.534-6,5.365-7.805,5.222-3.328,10.6-6.388,16.682-7.925C428.627-22.349,429.9-22.432,431.354-22.649Z" transform="translate(0 0)" fill="#f2ffd9"/>
        <path id="Path_878705" data-name="Path 878705" d="M448.726-.89a19.5,19.5,0,0,1,2.973.446c3.678,1.175,7.354,2.364,10.977,3.695a18.2,18.2,0,0,1,3.416,2.026c.521.337.928.84.38,1.461-.481.545-.977.3-1.46-.093a21.186,21.186,0,0,0-7.184-3.358c-1.647-.53-3.326-.972-4.944-1.58a11.225,11.225,0,0,0-8.61.191c-3.765,1.629-7.441,3.488-11.06,5.426-2.951,1.58-4.277,4.422-5.177,7.51-.768,2.636-1.59,5.256-2.447,7.865a5.254,5.254,0,0,0-.048,3.372c1.163,3.519,2.225,7.08,3.586,10.522a15.587,15.587,0,0,0,12.126,9.98c2.233.455,4.414,1.169,6.618,1.769A7.823,7.823,0,0,0,452.712,48c3.533-1.311,7.046-2.684,10.517-4.149a11.028,11.028,0,0,0,5.876-6.52c1.222-3.073,2.326-6.191,3.482-9.29a10.553,10.553,0,0,0-.418-7.96c-1.5-3.623-2.643-7.4-4.766-10.753a.86.86,0,0,1,.21-1.3.816.816,0,0,1,1.25.373,37.759,37.759,0,0,1,1.98,3.773c1.223,2.938,2.406,5.9,3.477,8.892a10.833,10.833,0,0,1-.067,7.47c-1.175,3.255-2.364,6.508-3.649,9.721a12.953,12.953,0,0,1-7.384,7.555c-3.471,1.388-6.949,2.765-10.476,4a9.79,9.79,0,0,1-6.808-.245,42.036,42.036,0,0,0-5.742-1.461c-6.92-1.5-11.035-6.025-13.364-12.415-1.1-3.017-2.034-6.1-2.972-9.17a7.155,7.155,0,0,1,.087-4.386c.964-2.963,1.882-5.942,2.791-8.923a12.621,12.621,0,0,1,6.031-7.691c3.756-2.085,7.47-4.287,11.624-5.522C445.859-.442,447.4-.627,448.726-.89Z" transform="translate(-17.826 -17.715)" fill="#f2ffd9"/>
        <path id="Path_878706" data-name="Path 878706" d="M520.211,137.982a7.375,7.375,0,0,1,.848,14.7,1.747,1.747,0,0,1-.913.011,4.562,4.562,0,0,1-.9-.841c.3-.283.548-.694.9-.826a21.663,21.663,0,0,0,2.959-.934,5.415,5.415,0,0,0,2.53-6.06,5.63,5.63,0,1,0-8.9,5.781c.552.423,1.41.8.739,1.648-.643.81-1.3.124-1.837-.288a7.361,7.361,0,0,1,4.574-13.192Z" transform="translate(-90.465 -130.777)" fill="#f2ffd9"/>
        <path id="Path_878707" data-name="Path 878707" d="M481.168,37.328a3.775,3.775,0,0,1,3.318,2.455,3.282,3.282,0,0,1-1.122,3.816,4.905,4.905,0,0,0-2.057,3.162,3.336,3.336,0,0,1-3.854,2.55,3.444,3.444,0,0,1-2.816-3.87,10.113,10.113,0,0,1,4.537-7.231A13.479,13.479,0,0,1,481.168,37.328Zm-4.8,8.325a1.737,1.737,0,0,0,1.357,1.912,1.54,1.54,0,0,0,1.855-1.151,6.52,6.52,0,0,1,2.734-4.237,1.565,1.565,0,0,0,.307-2.235,1.63,1.63,0,0,0-2.222-.457A8.559,8.559,0,0,0,476.372,45.653Z" transform="translate(-59.381 -48.83)" fill="#f2ffd9"/>
        <path id="Path_878708" data-name="Path 878708" d="M637.323,98.326c.068,3.6-1.79,5.374-4.121,4.875a3.177,3.177,0,0,1-2.6-2.888,6.07,6.07,0,0,0-1.535-3.954,3.308,3.308,0,0,1,.326-4.546,3.4,3.4,0,0,1,4.643-.061A9.634,9.634,0,0,1,637.323,98.326Zm-1.651,1.053a9.012,9.012,0,0,0-2.715-6.241,1.638,1.638,0,0,0-2.339-.083,1.574,1.574,0,0,0-.119,2.322A6.358,6.358,0,0,1,632.3,100a1.469,1.469,0,0,0,1.3,1.483,1.527,1.527,0,0,0,1.815-.948A5.847,5.847,0,0,0,635.672,99.379Z" transform="translate(-184.523 -92.418)" fill="#f2ffd9"/>
        <path id="Path_878709" data-name="Path 878709" d="M575.626,47.188c.013-3.042,2.116-5.613,5.47-6.516a5.284,5.284,0,0,1,2.513-.038,2.656,2.656,0,0,1,1.957,2.353,2.76,2.76,0,0,1-1.172,2.928,2.943,2.943,0,0,0-1.567,2.6,2.641,2.641,0,0,1-1.955,2.358A4.011,4.011,0,0,1,575.626,47.188Zm1.7-.111c-.048,1.135.286,1.551,1.613,2.011,1.447.5,2.17,0,2.288-1.505a3.125,3.125,0,0,1,.466-1.559,8.162,8.162,0,0,1,1.567-1.4,1.224,1.224,0,0,0,.459-1.628,1.827,1.827,0,0,0-1.283-.818A5.577,5.577,0,0,0,577.326,47.077Z" transform="translate(-141.635 -51.413)" fill="#f2ffd9"/>
        <path id="Path_878710" data-name="Path 878710" d="M469.437,137.636l1.56.181c.709-1.33,1.344-2.629,2.1-3.853a1.255,1.255,0,0,1,1.149-.317c.562.2.565.743.275,1.244-.124.214-.276.411-.406.621a10.255,10.255,0,0,0-1.562,5.734,16,16,0,0,0,.22,1.841c.08.574-.12,1.1-.7,1.073a1.34,1.34,0,0,1-.979-.824c-.212-1.178-.246-2.388-.357-3.7l-1.531-.272c0,.837-.022,1.562.007,2.284.026.653-.073,1.26-.849,1.27-.7.009-.857-.542-.889-1.169a15.226,15.226,0,0,1,2.347-9.01c.334-.537.722-1.051,1.4-.648.729.435.383,1.019.083,1.608C470.672,134.943,470.1,136.223,469.437,137.636Z" transform="translate(-53.57 -125.862)" fill="#f2ffd9"/>
        <path id="Path_878711" data-name="Path 878711" d="M600.635,151.912h1.347c-.218-1.169-.456-2.24-.6-3.323a1.618,1.618,0,0,1,.239-1.159c.448-.505,1.185-.16,1.423.658a14.632,14.632,0,0,1,.525,5.783c-.091.8-.266,1.583-.432,2.368-.128.606-.507.942-1.142.76-.6-.172-.676-.649-.559-1.193.141-.657.272-1.316.408-1.976-1.444-.248-1.53-.187-1.828,1.067a4.111,4.111,0,0,1-.447,1.4c-.212.3-.7.412-1.066.607-.187-.373-.615-.824-.523-1.108a10.7,10.7,0,0,0-.707-8.453,1.267,1.267,0,0,1,.3-1.163.746.746,0,0,1,1.205.4C599.422,148.3,599.993,150.044,600.635,151.912Z" transform="translate(-159.22 -137.301)" fill="#f2ffd9"/>
        <path id="Path_878712" data-name="Path 878712" d="M501.6,100.049l.442,1.593c.778-.057,1.51-.12,2.243-.161.568-.032,1,.186,1.032.8s-.364.872-.937.907a12.226,12.226,0,0,0-4.8,1.272,1.344,1.344,0,0,1-1.258-.223c-.408-.476-.115-.98.436-1.273.164-.087.327-.175.492-.258,1.191-.591,1.191-.59.628-1.979a13.8,13.8,0,0,0-3.99,2.225,1.481,1.481,0,0,1-1.221.206c-.6-.246-.534-.976.1-1.509a14.5,14.5,0,0,1,7.062-3.279,34.2,34.2,0,0,1,3.6-.243c.617-.035,1.084.26,1.088.875,0,.7-.516.868-1.162.877C504.157,99.9,502.964,99.985,501.6,100.049Z" transform="translate(-75.38 -98.331)" fill="#f2ffd9"/>
        <path id="Path_878713" data-name="Path 878713" d="M504.866,217.513c.337.218.586.383.838.541,1.064.666,2.1,1.374,3.2,1.978.551.3.994.6.73,1.258s-.856.687-1.388.369c-1.286-.77-2.561-1.562-3.786-2.423a1.274,1.274,0,0,1-.306-1.044C504.192,217.95,504.591,217.761,504.866,217.513Z" transform="translate(-83.441 -195.527)" fill="#f2ffd9"/>
        <path id="Path_878714" data-name="Path 878714" d="M604.973,211.437a4.185,4.185,0,0,1-.3.731c-.771,1.115-1.54,2.232-2.35,3.319-.372.5-.909.726-1.43.227-.477-.458-.24-.92.113-1.391.757-1.01,1.43-2.084,2.21-3.075a1.442,1.442,0,0,1,1.046-.482C604.517,210.776,604.753,211.214,604.973,211.437Z" transform="translate(-161.99 -190.034)" fill="#f2ffd9"/>
        <path id="Path_878715" data-name="Path 878715" d="M568.59,222.568c-.231-.219-.62-.42-.685-.7a1.107,1.107,0,0,1,.308-.952c1.147-.829,2.334-1.608,3.55-2.332a1.055,1.055,0,0,1,.983.087c.209.183.358.783.223.955A9.952,9.952,0,0,1,568.59,222.568Z" transform="translate(-135.336 -196.333)" fill="#f2ffd9"/>
        <path id="Path_878716" data-name="Path 878716" d="M598.845,118.281a3.5,3.5,0,0,1,.849.516c.817.959,1.606,1.941,2.381,2.934a.837.837,0,0,1-.159,1.356c-.56.358-.954.064-1.319-.413-.709-.927-1.489-1.8-2.188-2.734a1.385,1.385,0,0,1-.269-.984C598.192,118.706,598.574,118.524,598.845,118.281Z" transform="translate(-159.953 -114.738)" fill="#f2ffd9"/>
        <path id="Path_878717" data-name="Path 878717" d="M566.51,118.486c1.19.717,2.311,1.347,3.366,2.072a.989.989,0,0,1,.032.967,1.127,1.127,0,0,1-1.011.3,21.437,21.437,0,0,1-2.923-1.564,1.16,1.16,0,0,1-.308-1.006C565.723,118.991,566.139,118.8,566.51,118.486Z" transform="translate(-133.514 -114.905)" fill="#f2ffd9"/>
        <path id="Path_878718" data-name="Path 878718" d="M553.324,40.61c-.046,1.031-.868,2.119-1.353,1.952a1.409,1.409,0,0,1-.822-.9c-.1-.635.87-1.757,1.337-1.633A2.617,2.617,0,0,1,553.324,40.61Z" transform="translate(-121.702 -51.021)" fill="#f2ffd9"/>
        <path id="Path_878719" data-name="Path 878719" d="M648.408,188.268c.109-1.071.94-2.089,1.421-1.894a1.377,1.377,0,0,1,.765.942c.043.743-.872,1.724-1.383,1.574C648.859,188.786,648.585,188.413,648.408,188.268Z" transform="translate(-200.891 -170.155)" fill="#f2ffd9"/>
        <path id="Path_878720" data-name="Path 878720" d="M538.6,180.712c-.221-.35-.708-.883-.615-1.019a10.977,10.977,0,0,1,1.446-1.5c.285.307.869.771.8.893a11.707,11.707,0,0,1-1.243,1.67Z" transform="translate(-110.982 -163.514)" fill="#f2ffd9"/>
        <path id="Path_878721" data-name="Path 878721" d="M463.42,108.709c.042.9-.78,2.008-1.255,1.87-.353-.1-.909-.719-.854-.816a5.545,5.545,0,0,1,1.243-1.524C462.66,108.15,463.212,108.591,463.42,108.709Z" transform="translate(-48.563 -106.552)" fill="#f2ffd9"/>
        <path id="Path_878722" data-name="Path 878722" d="M537.428,22.915c-.215-.339-.56-.658-.614-1.02-.088-.587.811-1.638,1.251-1.49a1.44,1.44,0,0,1,.835.883C539.025,21.864,538.152,22.775,537.428,22.915Z" transform="translate(-110.032 -35.04)" fill="#f2ffd9"/>
        <path id="Path_878723" data-name="Path 878723" d="M575.578,28.707c-.8-.336-1.617-.4-1.507-1.262a1.251,1.251,0,0,1,.906-.776c.783-.069,1.519.622,1.338,1.171C576.2,28.194,575.8,28.455,575.578,28.707Z" transform="translate(-140.362 -40.148)" fill="#f2ffd9"/>
        <path id="Path_878724" data-name="Path 878724" d="M547.293,74.562c-.336.229-.688.666-1.006.643-.609-.045-1.4-.2-1.4-1.022a1.264,1.264,0,0,1,.8-.883C546.331,73.132,547.151,73.819,547.293,74.562Z" transform="translate(-116.609 -78.096)" fill="#f2ffd9"/>
        <path id="Path_878725" data-name="Path 878725" d="M453.176,141.746c-.825-.291-1.619-.342-1.578-1.186a1.243,1.243,0,0,1,.836-.831c.711-.129,1.548.561,1.412,1.093C453.755,141.182,453.387,141.471,453.176,141.746Z" transform="translate(-40.657 -132.187)" fill="#f2ffd9"/>
        <path id="Path_878726" data-name="Path 878726" d="M644.209,68.656c-.338.224-.657.595-1.019.642-.721.095-1.553-.6-1.395-1.128a1.325,1.325,0,0,1,.816-.793A1.551,1.551,0,0,1,644.209,68.656Z" transform="translate(-195.491 -73.279)" fill="#f2ffd9"/>
      </g>
    </g>
  </g>
</svg>
