<svg xmlns="http://www.w3.org/2000/svg" xmlns:xlink="http://www.w3.org/1999/xlink" width="117.278" height="117.278" viewBox="0 0 117.278 117.278">
  <defs>
    <clipPath id="clip-path">
      <rect id="Rectangle_400938" data-name="Rectangle 400938" width="117.278" height="117.278" fill="none"/>
    </clipPath>
    <clipPath id="clip-path-2">
      <path id="Path_873460" data-name="Path 873460" d="M0,1.307A1.349,1.349,0,0,0,1.389,2.613,1.349,1.349,0,0,0,2.778,1.307,1.349,1.349,0,0,0,1.389,0,1.349,1.349,0,0,0,0,1.307" transform="translate(0)" fill="#115e01"/>
    </clipPath>
    <clipPath id="clip-path-3">
      <path id="Path_873466" data-name="Path 873466" d="M0,1.307A1.349,1.349,0,0,0,1.39,2.613,1.349,1.349,0,0,0,2.778,1.307,1.349,1.349,0,0,0,1.39,0,1.349,1.349,0,0,0,0,1.307" fill="#115e01"/>
    </clipPath>
    <clipPath id="clip-path-4">
      <path id="Path_873467" data-name="Path 873467" d="M0,1.306A1.349,1.349,0,0,0,1.389,2.612,1.349,1.349,0,0,0,2.778,1.306,1.349,1.349,0,0,0,1.389,0,1.349,1.349,0,0,0,0,1.306" transform="translate(0 0)" fill="#115e01"/>
    </clipPath>
    <clipPath id="clip-path-5">
      <path id="Path_873468" data-name="Path 873468" d="M0,1.306A1.349,1.349,0,0,0,1.39,2.612,1.349,1.349,0,0,0,2.778,1.306,1.349,1.349,0,0,0,1.39,0,1.349,1.349,0,0,0,0,1.306" transform="translate(0 0)" fill="#115e01"/>
    </clipPath>
    <clipPath id="clip-path-6">
      <path id="Path_873469" data-name="Path 873469" d="M0,1.306A1.349,1.349,0,0,0,1.389,2.612,1.349,1.349,0,0,0,2.777,1.306,1.349,1.349,0,0,0,1.389,0,1.349,1.349,0,0,0,0,1.306" transform="translate(0 0)" fill="#115e01"/>
    </clipPath>
    <clipPath id="clip-path-9">
      <path id="Path_873473" data-name="Path 873473" d="M0,1.306A1.349,1.349,0,0,0,1.39,2.612,1.348,1.348,0,0,0,2.778,1.306,1.349,1.349,0,0,0,1.39,0,1.349,1.349,0,0,0,0,1.306" transform="translate(0 0)" fill="#115e01"/>
    </clipPath>
    <clipPath id="clip-path-22">
      <rect id="Rectangle_401492" data-name="Rectangle 401492" width="63.051" height="63.052" transform="translate(-0.068 0.248)" fill="#fff" stroke="#707070" stroke-width="1"/>
    </clipPath>
  </defs>
  <g id="Group_1103455" data-name="Group 1103455" transform="translate(23057.926 3814.948)">
    <g id="Group_1102014" data-name="Group 1102014" transform="translate(-25293.797 -3787.592)">
      <path id="Path_874344" data-name="Path 874344" d="M2243.665,72.328v41.678a4.943,4.943,0,0,0,2.471,4.281l45.9,26.5a4.942,4.942,0,0,0,4.943,0l45.9-26.5a4.943,4.943,0,0,0,2.472-4.281V72.328a4.942,4.942,0,0,0-2.472-4.281l-45.9-26.5a4.942,4.942,0,0,0-4.943,0l-45.9,26.5A4.943,4.943,0,0,0,2243.665,72.328Z" transform="translate(0 -58.981)" fill="#8efe43"/>
      <path id="Path_874345" data-name="Path 874345" d="M2286.509,4.461V52.587a4.943,4.943,0,0,0,2.471,4.281l41.678,24.063a4.942,4.942,0,0,0,4.943,0l41.678-24.063a4.944,4.944,0,0,0,2.472-4.281V4.461A4.944,4.944,0,0,0,2377.28.18L2335.6-23.882a4.942,4.942,0,0,0-4.943,0L2288.98.18A4.943,4.943,0,0,0,2286.509,4.461Z" transform="translate(-38.622 0)" fill="#115e01"/>
    </g>
    <g id="Group_1100237" data-name="Group 1100237" transform="translate(-23054.037 -3797.84)">
      <g id="Group_1099505" data-name="Group 1099505" transform="translate(1.808 8.418)">
        <g id="Group_1099504" data-name="Group 1099504" transform="translate(0)" clip-path="url(#clip-path-2)">
          <rect id="Rectangle_401140" data-name="Rectangle 401140" width="2.777" height="2.613" transform="translate(0)" fill="#115e01"/>
        </g>
      </g>
      <g id="Group_1099517" data-name="Group 1099517" transform="translate(37.056 8.418)">
        <g id="Group_1099516" data-name="Group 1099516" transform="translate(0)" clip-path="url(#clip-path-3)">
          <rect id="Rectangle_401146" data-name="Rectangle 401146" width="2.778" height="2.613" transform="translate(0 0)" fill="#115e01"/>
        </g>
      </g>
      <g id="Group_1099519" data-name="Group 1099519" transform="translate(30.194 8.418)">
        <g id="Group_1099518" data-name="Group 1099518" transform="translate(0 0)" clip-path="url(#clip-path-4)">
          <rect id="Rectangle_401147" data-name="Rectangle 401147" width="2.778" height="2.612" transform="translate(0 0)" fill="#115e01"/>
        </g>
      </g>
      <g id="Group_1099521" data-name="Group 1099521" transform="translate(23.332 8.418)">
        <g id="Group_1099520" data-name="Group 1099520" transform="translate(0 0)" clip-path="url(#clip-path-5)">
          <rect id="Rectangle_401148" data-name="Rectangle 401148" width="2.778" height="2.612" transform="translate(0 0)" fill="#115e01"/>
        </g>
      </g>
      <g id="Group_1099523" data-name="Group 1099523" transform="translate(16.47 8.418)">
        <g id="Group_1099522" data-name="Group 1099522" transform="translate(0 0)" clip-path="url(#clip-path-6)">
          <rect id="Rectangle_401149" data-name="Rectangle 401149" width="2.777" height="2.612" transform="translate(0 0)" fill="#115e01"/>
        </g>
      </g>
      <g id="Group_1099525" data-name="Group 1099525" transform="translate(34.311 0)">
        <g id="Group_1099524" data-name="Group 1099524" clip-path="url(#clip-path-4)">
          <rect id="Rectangle_401150" data-name="Rectangle 401150" width="2.778" height="2.612" transform="translate(0 0)" fill="#115e01"/>
        </g>
      </g>
      <g id="Group_1099529" data-name="Group 1099529" transform="translate(27.448 0)">
        <g id="Group_1099528" data-name="Group 1099528" transform="translate(0)" clip-path="url(#clip-path-5)">
          <rect id="Rectangle_401152" data-name="Rectangle 401152" width="2.778" height="2.612" transform="translate(0 0)" fill="#115e01"/>
        </g>
      </g>
      <g id="Group_1099531" data-name="Group 1099531" transform="translate(13.724 0)">
        <g id="Group_1099530" data-name="Group 1099530" transform="translate(0)" clip-path="url(#clip-path-9)">
          <rect id="Rectangle_401153" data-name="Rectangle 401153" width="2.777" height="2.612" transform="translate(0 0)" fill="#115e01"/>
        </g>
      </g>
      <g id="Group_1099533" data-name="Group 1099533" transform="translate(6.862 0)">
        <g id="Group_1099532" data-name="Group 1099532" clip-path="url(#clip-path-4)">
          <rect id="Rectangle_401154" data-name="Rectangle 401154" width="2.778" height="2.612" transform="translate(0 0)" fill="#115e01"/>
        </g>
      </g>
      <g id="Group_1099535" data-name="Group 1099535" transform="translate(0 0)">
        <g id="Group_1099534" data-name="Group 1099534" transform="translate(0)" clip-path="url(#clip-path-5)">
          <rect id="Rectangle_401155" data-name="Rectangle 401155" width="2.778" height="2.612" transform="translate(0 0)" fill="#115e01"/>
        </g>
      </g>
    </g>
    <g id="Group_1100238" data-name="Group 1100238" transform="translate(-22980.652 -3724.455)">
      <g id="Group_1099505-2" data-name="Group 1099505" transform="translate(1.808 8.418)">
        <g id="Group_1099504-2" data-name="Group 1099504" transform="translate(0)" clip-path="url(#clip-path-2)">
          <rect id="Rectangle_401140-2" data-name="Rectangle 401140" width="2.777" height="2.613" transform="translate(0)" fill="#115e01"/>
        </g>
      </g>
      <g id="Group_1099517-2" data-name="Group 1099517" transform="translate(37.056 8.418)">
        <g id="Group_1099516-2" data-name="Group 1099516" transform="translate(0)" clip-path="url(#clip-path-3)">
          <rect id="Rectangle_401146-2" data-name="Rectangle 401146" width="2.778" height="2.613" transform="translate(0 0)" fill="#115e01"/>
        </g>
      </g>
      <g id="Group_1099519-2" data-name="Group 1099519" transform="translate(30.194 8.418)">
        <g id="Group_1099518-2" data-name="Group 1099518" transform="translate(0 0)" clip-path="url(#clip-path-4)">
          <rect id="Rectangle_401147-2" data-name="Rectangle 401147" width="2.778" height="2.612" transform="translate(0 0)" fill="#115e01"/>
        </g>
      </g>
      <g id="Group_1099521-2" data-name="Group 1099521" transform="translate(23.332 8.418)">
        <g id="Group_1099520-2" data-name="Group 1099520" transform="translate(0 0)" clip-path="url(#clip-path-5)">
          <rect id="Rectangle_401148-2" data-name="Rectangle 401148" width="2.778" height="2.612" transform="translate(0 0)" fill="#115e01"/>
        </g>
      </g>
      <g id="Group_1099523-2" data-name="Group 1099523" transform="translate(16.47 8.418)">
        <g id="Group_1099522-2" data-name="Group 1099522" transform="translate(0 0)" clip-path="url(#clip-path-6)">
          <rect id="Rectangle_401149-2" data-name="Rectangle 401149" width="2.777" height="2.612" transform="translate(0 0)" fill="#115e01"/>
        </g>
      </g>
      <g id="Group_1099525-2" data-name="Group 1099525" transform="translate(34.311 0)">
        <g id="Group_1099524-2" data-name="Group 1099524" clip-path="url(#clip-path-4)">
          <rect id="Rectangle_401150-2" data-name="Rectangle 401150" width="2.778" height="2.612" transform="translate(0 0)" fill="#115e01"/>
        </g>
      </g>
      <g id="Group_1099529-2" data-name="Group 1099529" transform="translate(27.448 0)">
        <g id="Group_1099528-2" data-name="Group 1099528" transform="translate(0)" clip-path="url(#clip-path-5)">
          <rect id="Rectangle_401152-2" data-name="Rectangle 401152" width="2.778" height="2.612" transform="translate(0 0)" fill="#115e01"/>
        </g>
      </g>
      <g id="Group_1099531-2" data-name="Group 1099531" transform="translate(13.724 0)">
        <g id="Group_1099530-2" data-name="Group 1099530" transform="translate(0)" clip-path="url(#clip-path-9)">
          <rect id="Rectangle_401153-2" data-name="Rectangle 401153" width="2.777" height="2.612" transform="translate(0 0)" fill="#115e01"/>
        </g>
      </g>
      <g id="Group_1099533-2" data-name="Group 1099533" transform="translate(6.862 0)">
        <g id="Group_1099532-2" data-name="Group 1099532" clip-path="url(#clip-path-4)">
          <rect id="Rectangle_401154-2" data-name="Rectangle 401154" width="2.778" height="2.612" transform="translate(0 0)" fill="#115e01"/>
        </g>
      </g>
      <g id="Group_1099535-2" data-name="Group 1099535" transform="translate(0 0)">
        <g id="Group_1099534-2" data-name="Group 1099534" transform="translate(0)" clip-path="url(#clip-path-5)">
          <rect id="Rectangle_401155-2" data-name="Rectangle 401155" width="2.778" height="2.612" transform="translate(0 0)" fill="#115e01"/>
        </g>
      </g>
    </g>
    <g id="Mask_Group_1098697" data-name="Mask Group 1098697" transform="translate(-23031.146 -3788.541)" clip-path="url(#clip-path-22)">
      <g id="Group_1103457" data-name="Group 1103457" transform="translate(-2283.895 -7.092)">
        <path id="Path_879369" data-name="Path 879369" d="M2330.878,42.254a59.4,59.4,0,0,1-1.7,5.92,13.339,13.339,0,0,1-5.8,6.6c-.715.42-.738.792-.455,1.478a10.312,10.312,0,0,0,12.879,5.776c.146-.05.307-.187.428-.156.435.112,1.027.154,1.244.452.368.507.056,1.053-.519,1.256a25.286,25.286,0,0,1-4.926,1.591c-6.938.91-12.294-1.735-16.075-7.6-.081-.126-.173-.244-.326-.46-.22.336-.4.605-.577.88a15.828,15.828,0,0,1-20.523,5.714,1.714,1.714,0,0,1-.789-.715.98.98,0,0,1,.194-.9,1.357,1.357,0,0,1,1.007-.222c.85.154,1.669.481,2.52.617a10.2,10.2,0,0,0,10.963-6.509c.154-.422.218-.69-.249-1-4.941-3.287-6.845-6.495-7.517-12.646a8.816,8.816,0,0,0-5.247.375,10.266,10.266,0,0,0-6.193,13.192,1.789,1.789,0,0,1,.125,1.056.957.957,0,0,1-.729.557,1.27,1.27,0,0,1-.945-.556,24.144,24.144,0,0,1-1.634-4.818,15.639,15.639,0,0,1,11.2-17.755,41.413,41.413,0,0,1,5.864-.878c-.047-.086-.168-.326-.3-.557a14.724,14.724,0,0,1,7.155-21.276c.2-.083.4-.16.606-.235.551-.2,1.1-.07,1.208.48a1.535,1.535,0,0,1-.482,1.208,38.458,38.458,0,0,0-3.518,2.845,10.146,10.146,0,0,0-.065,13.022,3.347,3.347,0,0,0,.291.265,15.092,15.092,0,0,1,15.291.013,9.311,9.311,0,0,0,2.415-4.883c.816-4.62-1.427-7.869-4.821-10.581a9.567,9.567,0,0,0-.842-.584c-.521-.331-.887-.738-.54-1.379s.893-.545,1.459-.324a14.27,14.27,0,0,1,7.267,5.861,14.579,14.579,0,0,1,.337,15.392c-.156.292-.318.58-.378.688a48.677,48.677,0,0,1,6.278,1.053,15.782,15.782,0,0,1,9.281,22.186,1.675,1.675,0,0,1-1.079.809c-.7.084-.995-.636-.66-1.543a10.2,10.2,0,0,0,.219-6.578c-1.4-4.757-6.508-8.04-11.154-7.166C2330.911,42.24,2330.766,42.28,2330.878,42.254Zm-4.351,20.87a12.284,12.284,0,0,1-3.2-18.785,11.737,11.737,0,0,1,10.438-4.012,12.4,12.4,0,0,1,9.4,6.2,4.508,4.508,0,0,0-.213-1.12,13.936,13.936,0,0,0-16.7-9.407c-.583.131-1.187.333-1.573-.343-.367-.642.1-1.038.483-1.449a12.8,12.8,0,0,0,3.457-7.762,11.264,11.264,0,0,0-.957-5.915,12.231,12.231,0,0,1-11.677,14.1,11.79,11.79,0,0,1-9.483-4.159,12.08,12.08,0,0,1-2.868-9.958,1.612,1.612,0,0,0-.188.2,1.381,1.381,0,0,0-.113.252,12.833,12.833,0,0,0,1.653,11.88c.4.586.965,1.064,1.345,1.661a1.361,1.361,0,0,1,.184,1.139c-.159.271-.7.349-1.089.438a1.607,1.607,0,0,1-.632-.129,13.914,13.914,0,0,0-16.407,9.21c-.078.235-.164.468-.223.708-.049.2-.064.411-.123.814,3.186-4.974,7.515-7.272,13.166-6.2a11.262,11.262,0,0,1,9.283,8.659c1.555,6-.759,10.6-6.023,14.047.512-.108.817-.145,1.105-.237a13.992,13.992,0,0,0,8.623-7.32,7.42,7.42,0,0,1,.543-1.178c.216-.287.6-.628.9-.623s.623.385.895.644c.123.117.14.339.217.509A13.833,13.833,0,0,0,2326.528,63.124Zm-4.777-32.555a13.063,13.063,0,0,0-12.257.015C2312.506,33.45,2318.967,33.436,2321.751,30.569Zm-12.762,22.737c.581-4.36-3.344-10.538-6.377-10.2A13.206,13.206,0,0,0,2308.989,53.306Zm13.269-.1c3.4-1.581,6.75-7.129,6.227-10.236A9.972,9.972,0,0,0,2322.258,53.2Z" fill="#f2ffd9"/>
        <path id="Path_879370" data-name="Path 879370" d="M2429.982,156.035a4.66,4.66,0,1,1-4.624-4.717A4.671,4.671,0,0,1,2429.982,156.035Zm-4.638-2.846a2.788,2.788,0,1,0,2.767,2.809A2.8,2.8,0,0,0,2425.344,153.189Z" transform="translate(-109.697 -113.881)" fill="#f2ffd9"/>
      </g>
    </g>
  </g>
</svg>
