<svg xmlns="http://www.w3.org/2000/svg" xmlns:xlink="http://www.w3.org/1999/xlink" width="1030" height="600" viewBox="0 0 1030 600">
  <defs>
    <clipPath id="clip-path">
      <path id="Path_891637" data-name="Path 891637" d="M16,0h998c8.837,0,16,9.3,16,20.779V579.221c0,11.476-7.163,20.779-16,20.779H16c-8.837,0-16-9.3-16-20.779V20.779C0,9.3,7.163,0,16,0Z" fill="#e0ffa3"/>
    </clipPath>
    <linearGradient id="linear-gradient" x1="0.5" x2="0.5" y2="1" gradientUnits="objectBoundingBox">
      <stop offset="0" stop-color="#f2ffd9"/>
      <stop offset="1" stop-color="#e0ffa3"/>
    </linearGradient>
  </defs>
  <g id="Group_1111678" data-name="Group 1111678" transform="translate(-284.711 -3945)">
    <g id="Group_1109734" data-name="Group 1109734" transform="translate(4188.711 11693)">
      <g id="Mask_Group_1098822" data-name="Mask Group 1098822" transform="translate(-3904 -7748)" clip-path="url(#clip-path)">
        <path id="Path_891636" data-name="Path 891636" d="M0,0H1079V628.571H0Z" transform="translate(-20 -15.584)" fill="url(#linear-gradient)"/>
      </g>
      <g id="Group_1108816" data-name="Group 1108816" transform="translate(-4147.711 -11720.543)">
        <rect id="Rectangle_403839" data-name="Rectangle 403839" width="138.192" height="189.447" rx="25" transform="translate(304.711 3987.543)" fill="#066454"/>
        <rect id="Rectangle_403977" data-name="Rectangle 403977" width="138.192" height="232.235" rx="25" transform="translate(304.711 4325.171)" fill="#a50751"/>
        <path id="Path_895992" data-name="Path 895992" d="M16.529,11.577h-5.15V17H9.155V4.2h8.13V6H11.379V9.8h5.15Zm6.311,5.6A4.419,4.419,0,0,1,19.548,15.9a4.639,4.639,0,0,1-1.261-3.406v-.264a5.706,5.706,0,0,1,.549-2.544,4.181,4.181,0,0,1,1.542-1.745,4.078,4.078,0,0,1,2.215-.624,3.733,3.733,0,0,1,3,1.239,5.24,5.24,0,0,1,1.059,3.507v.861H20.44a2.856,2.856,0,0,0,.787,1.863,2.362,2.362,0,0,0,1.736.686,2.892,2.892,0,0,0,2.391-1.187l1.151,1.1a3.845,3.845,0,0,1-1.525,1.323A4.774,4.774,0,0,1,22.839,17.176Zm-.255-8.147a1.8,1.8,0,0,0-1.419.615,3.189,3.189,0,0,0-.69,1.714h4.069V11.2a2.6,2.6,0,0,0-.571-1.622A1.785,1.785,0,0,0,22.585,9.028Zm10.705.413a5.285,5.285,0,0,0-.87-.07A1.959,1.959,0,0,0,30.442,10.5V17H28.306V7.49h2.039L30.4,8.554a2.406,2.406,0,0,1,2.145-1.239,2,2,0,0,1,.756.123ZM36.647,7.49l.062.993a3.422,3.422,0,0,1,2.742-1.169,2.629,2.629,0,0,1,2.61,1.459,3.373,3.373,0,0,1,2.918-1.459,2.965,2.965,0,0,1,2.342.87,3.831,3.831,0,0,1,.787,2.566V17H45.972V10.813a1.891,1.891,0,0,0-.4-1.327,1.731,1.731,0,0,0-1.31-.422,1.778,1.778,0,0,0-1.191.391,2.063,2.063,0,0,0-.646,1.024L42.439,17H40.3V10.742a1.523,1.523,0,0,0-1.714-1.679,1.88,1.88,0,0,0-1.819,1.046V17H34.634V7.49Zm17.842,9.686A4.419,4.419,0,0,1,51.2,15.9a4.639,4.639,0,0,1-1.261-3.406v-.264a5.706,5.706,0,0,1,.549-2.544,4.181,4.181,0,0,1,1.542-1.745,4.078,4.078,0,0,1,2.215-.624,3.733,3.733,0,0,1,3,1.239A5.24,5.24,0,0,1,58.3,12.061v.861H52.089a2.856,2.856,0,0,0,.787,1.863,2.362,2.362,0,0,0,1.736.686A2.892,2.892,0,0,0,57,14.284l1.151,1.1a3.845,3.845,0,0,1-1.525,1.323A4.774,4.774,0,0,1,54.489,17.176Zm-.255-8.147a1.8,1.8,0,0,0-1.419.615,3.189,3.189,0,0,0-.69,1.714h4.069V11.2a2.6,2.6,0,0,0-.571-1.622A1.785,1.785,0,0,0,54.234,9.028ZM61.942,7.49,62,8.589a3.419,3.419,0,0,1,2.769-1.274q2.971,0,3.023,3.4V17H65.66V10.839a1.958,1.958,0,0,0-.391-1.34,1.645,1.645,0,0,0-1.279-.435,2.058,2.058,0,0,0-1.925,1.169V17H59.929V7.49ZM72.647,5.179V7.49h1.679V9.072H72.647v5.309a1.169,1.169,0,0,0,.215.787,1,1,0,0,0,.769.242,3.29,3.29,0,0,0,.747-.088v1.652a5.26,5.26,0,0,1-1.406.2q-2.461,0-2.461-2.716V9.072H68.947V7.49h1.564V5.179ZM81.638,17a3.3,3.3,0,0,1-.246-.888,3.593,3.593,0,0,1-4.834.246,2.615,2.615,0,0,1-.905-2.021A2.7,2.7,0,0,1,76.782,12a5.473,5.473,0,0,1,3.23-.813h1.31v-.624a1.666,1.666,0,0,0-.413-1.182,1.638,1.638,0,0,0-1.257-.444,1.881,1.881,0,0,0-1.2.365,1.129,1.129,0,0,0-.466.927H75.855a2.37,2.37,0,0,1,.519-1.463A3.455,3.455,0,0,1,77.784,7.7a4.955,4.955,0,0,1,1.991-.387,3.99,3.99,0,0,1,2.663.839,2.993,2.993,0,0,1,1.02,2.36V14.8a4.861,4.861,0,0,0,.36,2.048V17Zm-2.347-1.538a2.429,2.429,0,0,0,1.191-.308,2.055,2.055,0,0,0,.839-.826V12.535H80.171a3.148,3.148,0,0,0-1.784.413,1.338,1.338,0,0,0-.6,1.169,1.248,1.248,0,0,0,.409.98A1.583,1.583,0,0,0,79.292,15.462Zm10.31.009A1.931,1.931,0,0,0,90.928,15a1.591,1.591,0,0,0,.563-1.151H93.5a3.137,3.137,0,0,1-.554,1.657,3.632,3.632,0,0,1-1.406,1.217,4.191,4.191,0,0,1-1.916.448,4.055,4.055,0,0,1-3.164-1.292,5.124,5.124,0,0,1-1.169-3.568V12.1a5.039,5.039,0,0,1,1.16-3.476,4.018,4.018,0,0,1,3.164-1.305,3.907,3.907,0,0,1,2.764.989A3.542,3.542,0,0,1,93.5,10.9H91.491a1.956,1.956,0,0,0-.558-1.345A1.8,1.8,0,0,0,89.6,9.028,1.879,1.879,0,0,0,88,9.78a3.834,3.834,0,0,0-.571,2.281V12.4a3.9,3.9,0,0,0,.558,2.307A1.878,1.878,0,0,0,89.6,15.471ZM97.388,17H95.253V7.49h2.136ZM95.121,5.021a1.133,1.133,0,0,1,.312-.817,1.179,1.179,0,0,1,.892-.325,1.193,1.193,0,0,1,.9.325,1.125,1.125,0,0,1,.316.817,1.1,1.1,0,0,1-.316.8,1.2,1.2,0,0,1-.9.321,1.188,1.188,0,0,1-.892-.321A1.107,1.107,0,0,1,95.121,5.021Zm4.192,7.137a5.607,5.607,0,0,1,.554-2.518,4.044,4.044,0,0,1,1.556-1.723,4.383,4.383,0,0,1,2.3-.6,4.154,4.154,0,0,1,3.125,1.239,4.874,4.874,0,0,1,1.3,3.287l.009.5a5.658,5.658,0,0,1-.541,2.514,4,4,0,0,1-1.547,1.714,4.415,4.415,0,0,1-2.325.606,4.125,4.125,0,0,1-3.221-1.34,5.133,5.133,0,0,1-1.208-3.573Zm2.136.185a3.832,3.832,0,0,0,.606,2.3,1.971,1.971,0,0,0,1.688.831,1.95,1.95,0,0,0,1.683-.844,4.232,4.232,0,0,0,.6-2.47,3.782,3.782,0,0,0-.62-2.285,2.089,2.089,0,0,0-3.344-.013A4.152,4.152,0,0,0,101.449,12.342ZM104.314,3.5h2.435l-2.435,2.663-1.714,0Zm7.629,3.99.062,1.1a3.419,3.419,0,0,1,2.769-1.274q2.971,0,3.023,3.4V17h-2.136V10.839a1.958,1.958,0,0,0-.391-1.34,1.645,1.645,0,0,0-1.279-.435,2.058,2.058,0,0,0-1.925,1.169V17H109.93V7.49Z" transform="translate(310.354 4076.226)" fill="#fff"/>
        <path id="Path_895995" data-name="Path 895995" d="M35.03,15.339a4.252,4.252,0,0,1-1.925,1.371,7.853,7.853,0,0,1-2.795.466,5.508,5.508,0,0,1-2.848-.729,4.859,4.859,0,0,1-1.912-2.087,7.3,7.3,0,0,1-.7-3.168v-1a6.773,6.773,0,0,1,1.389-4.531,4.816,4.816,0,0,1,3.876-1.63,5.1,5.1,0,0,1,3.393,1.059,4.564,4.564,0,0,1,1.512,3.045h-2.18A2.452,2.452,0,0,0,30.161,5.82,2.628,2.628,0,0,0,27.889,6.9a5.48,5.48,0,0,0-.8,3.157v.983a5.2,5.2,0,0,0,.875,3.218,2.885,2.885,0,0,0,2.43,1.146,3.2,3.2,0,0,0,2.426-.773v-2.5H30.178V10.435H35.03ZM39.539,17H37.4V3.5h2.136Zm8.086-.932a3.312,3.312,0,0,1-2.672,1.107,2.952,2.952,0,0,1-2.342-.905,3.851,3.851,0,0,1-.8-2.619V7.49h2.136v6.135q0,1.811,1.5,1.811a2.111,2.111,0,0,0,2.1-1.116V7.49H49.69V17H47.677Zm8.147-.6A1.931,1.931,0,0,0,57.1,15a1.591,1.591,0,0,0,.563-1.151h2.013a3.137,3.137,0,0,1-.554,1.657,3.632,3.632,0,0,1-1.406,1.217,4.191,4.191,0,0,1-1.916.448,4.055,4.055,0,0,1-3.164-1.292,5.124,5.124,0,0,1-1.169-3.568V12.1a5.039,5.039,0,0,1,1.16-3.476A4.018,4.018,0,0,1,55.79,7.314a3.907,3.907,0,0,1,2.764.989,3.542,3.542,0,0,1,1.121,2.6H57.662A1.956,1.956,0,0,0,57.1,9.556a1.8,1.8,0,0,0-1.332-.527,1.879,1.879,0,0,0-1.6.751,3.834,3.834,0,0,0-.571,2.281V12.4a3.9,3.9,0,0,0,.558,2.307A1.878,1.878,0,0,0,55.772,15.471Zm5.115-3.313a5.607,5.607,0,0,1,.554-2.518A4.044,4.044,0,0,1,63,7.917a4.383,4.383,0,0,1,2.3-.6,4.154,4.154,0,0,1,3.125,1.239,4.874,4.874,0,0,1,1.3,3.287l.009.5a5.658,5.658,0,0,1-.541,2.514,4,4,0,0,1-1.547,1.714,4.415,4.415,0,0,1-2.325.606,4.125,4.125,0,0,1-3.221-1.34,5.133,5.133,0,0,1-1.208-3.573Zm2.136.185a3.832,3.832,0,0,0,.606,2.3,1.971,1.971,0,0,0,1.687.831A1.95,1.95,0,0,0,67,14.627a4.232,4.232,0,0,0,.6-2.47,3.782,3.782,0,0,0-.62-2.285,2.089,2.089,0,0,0-3.344-.013A4.152,4.152,0,0,0,63.023,12.342ZM65.888,3.5h2.435L65.888,6.163l-1.714,0ZM73.807,17H71.671V3.5h2.136Zm4.6,0H76.268V7.49H78.4ZM76.136,5.021a1.133,1.133,0,0,1,.312-.817,1.179,1.179,0,0,1,.892-.325,1.193,1.193,0,0,1,.9.325,1.125,1.125,0,0,1,.316.817,1.1,1.1,0,0,1-.316.8,1.2,1.2,0,0,1-.9.321,1.188,1.188,0,0,1-.892-.321A1.107,1.107,0,0,1,76.136,5.021Zm9.923,9.4a.968.968,0,0,0-.47-.87,5,5,0,0,0-1.56-.527,8.02,8.02,0,0,1-1.819-.58,2.428,2.428,0,0,1-1.6-2.241,2.531,2.531,0,0,1,1.037-2.057,4.1,4.1,0,0,1,2.637-.826,4.266,4.266,0,0,1,2.755.844,2.677,2.677,0,0,1,1.05,2.188H85.954A1.316,1.316,0,0,0,85.5,9.323a1.752,1.752,0,0,0-1.213-.409,1.893,1.893,0,0,0-1.147.325,1.025,1.025,0,0,0-.444.87.866.866,0,0,0,.413.765,5.68,5.68,0,0,0,1.67.549,7.9,7.9,0,0,1,1.973.659A2.794,2.794,0,0,1,87.813,13a2.342,2.342,0,0,1,.347,1.3A2.478,2.478,0,0,1,87.1,16.38a4.535,4.535,0,0,1-2.786.8,4.917,4.917,0,0,1-2.083-.422,3.428,3.428,0,0,1-1.424-1.16A2.746,2.746,0,0,1,80.294,14h2.074a1.5,1.5,0,0,0,.571,1.165,2.22,2.22,0,0,0,1.4.409,2.16,2.16,0,0,0,1.283-.321A.993.993,0,0,0,86.059,14.416ZM92.291,17H90.155V7.49h2.136ZM90.023,5.021a1.133,1.133,0,0,1,.312-.817,1.179,1.179,0,0,1,.892-.325,1.193,1.193,0,0,1,.9.325,1.125,1.125,0,0,1,.316.817,1.1,1.1,0,0,1-.316.8,1.2,1.2,0,0,1-.9.321,1.188,1.188,0,0,1-.892-.321A1.107,1.107,0,0,1,90.023,5.021Zm9.923,9.4a.968.968,0,0,0-.47-.87,5,5,0,0,0-1.56-.527,8.02,8.02,0,0,1-1.819-.58A2.428,2.428,0,0,1,94.5,10.2a2.531,2.531,0,0,1,1.037-2.057,4.1,4.1,0,0,1,2.637-.826,4.266,4.266,0,0,1,2.755.844,2.677,2.677,0,0,1,1.05,2.188H99.84a1.316,1.316,0,0,0-.457-1.024,1.752,1.752,0,0,0-1.213-.409,1.893,1.893,0,0,0-1.147.325,1.025,1.025,0,0,0-.444.87.866.866,0,0,0,.413.765,5.68,5.68,0,0,0,1.67.549,7.9,7.9,0,0,1,1.973.659A2.794,2.794,0,0,1,101.7,13a2.342,2.342,0,0,1,.347,1.3,2.478,2.478,0,0,1-1.063,2.079,4.535,4.535,0,0,1-2.786.8,4.917,4.917,0,0,1-2.083-.422,3.428,3.428,0,0,1-1.424-1.16A2.746,2.746,0,0,1,94.18,14h2.074a1.5,1.5,0,0,0,.571,1.165,2.22,2.22,0,0,0,1.4.409,2.16,2.16,0,0,0,1.283-.321A.993.993,0,0,0,99.946,14.416Z" transform="translate(310.354 4441.289)" fill="#fff"/>
        <rect id="Rectangle_403979" data-name="Rectangle 403979" width="748.634" height="189.447" rx="20" transform="translate(464.867 3987.543)" fill="#c5ffee"/>
        <rect id="Rectangle_403980" data-name="Rectangle 403980" width="748.634" height="232.235" rx="20" transform="translate(464.867 4325.171)" fill="#ffe4fc"/>
        <rect id="Rectangle_403982" data-name="Rectangle 403982" width="98.752" height="34.798" rx="17.399" transform="translate(483.677 4047.029)" fill="#e0ffa3"/>
        <rect id="Rectangle_403983" data-name="Rectangle 403983" width="98.752" height="34.798" rx="17.399" transform="translate(483.677 4107.586)" fill="#5dffbe"/>
        <rect id="Rectangle_403984" data-name="Rectangle 403984" width="98.752" height="34.798" rx="17.399" transform="translate(483.677 4405.046)" fill="#fd91eb"/>
        <path id="Path_895993" data-name="Path 895993" d="M16.279,10.07h-4.5v3.047H17.06V15H9.435V3.625h7.609v1.9H11.779V8.234h4.5Zm4.711-5.6V6.547h1.445V8.2H20.989v4.219a1.007,1.007,0,0,0,.18.672.9.9,0,0,0,.688.2,3.6,3.6,0,0,0,.664-.055v1.711a4.648,4.648,0,0,1-1.367.2,2.156,2.156,0,0,1-2.422-2.4V8.2H17.5V6.547h1.234V4.469ZM28.591,15a2.507,2.507,0,0,1-.227-.758,2.732,2.732,0,0,1-2.133.914,3,3,0,0,1-2.059-.719,2.312,2.312,0,0,1-.816-1.812,2.389,2.389,0,0,1,1-2.062,4.915,4.915,0,0,1,2.879-.727h1.039V9.352a1.393,1.393,0,0,0-.3-.937,1.183,1.183,0,0,0-.949-.352,1.345,1.345,0,0,0-.895.273.929.929,0,0,0-.324.75H23.544A2.268,2.268,0,0,1,24,7.727a3,3,0,0,1,1.281-.98,4.669,4.669,0,0,1,1.859-.355,3.689,3.689,0,0,1,2.48.785,2.747,2.747,0,0,1,.918,2.207v3.664a4.041,4.041,0,0,0,.336,1.82V15Zm-1.867-1.57a1.945,1.945,0,0,0,.922-.223,1.462,1.462,0,0,0,.625-.6V11.156h-.844q-1.7,0-1.8,1.172l-.008.133a.9.9,0,0,0,.3.7A1.153,1.153,0,0,0,26.724,13.43Zm7.625-6.883.07.977a2.951,2.951,0,0,1,2.43-1.133,2.453,2.453,0,0,1,2,.789,3.682,3.682,0,0,1,.672,2.359V15H37.263V9.594a1.465,1.465,0,0,0-.312-1.043,1.4,1.4,0,0,0-1.039-.324,1.553,1.553,0,0,0-1.43.813V15H32.224V6.547ZM40.88,10.7a5.013,5.013,0,0,1,.484-2.242A3.546,3.546,0,0,1,42.759,6.93a4.069,4.069,0,0,1,2.113-.539,3.849,3.849,0,0,1,2.793,1.047,4.2,4.2,0,0,1,1.207,2.844l.016.578A4.418,4.418,0,0,1,47.8,13.98a4.209,4.209,0,0,1-5.832,0A4.5,4.5,0,0,1,40.88,10.8Zm2.258.16a3.16,3.16,0,0,0,.453,1.843,1.628,1.628,0,0,0,2.578.008,3.457,3.457,0,0,0,.461-2.015,3.128,3.128,0,0,0-.461-1.831,1.5,1.5,0,0,0-1.3-.649,1.474,1.474,0,0,0-1.281.646A3.516,3.516,0,0,0,43.138,10.856ZM52.661,15H50.4V3h2.266Z" transform="translate(501.546 4053.612)" fill="#12263f"/>
        <path id="Path_895994" data-name="Path 895994" d="M12.508,13.117h4.977V15h-7.32V3.625h2.344ZM23.578,15a2.507,2.507,0,0,1-.227-.758,2.732,2.732,0,0,1-2.133.914,3,3,0,0,1-2.059-.719,2.312,2.312,0,0,1-.816-1.812,2.389,2.389,0,0,1,1-2.062,4.915,4.915,0,0,1,2.879-.727h1.039V9.352a1.393,1.393,0,0,0-.3-.937,1.183,1.183,0,0,0-.949-.352,1.345,1.345,0,0,0-.895.273.929.929,0,0,0-.324.75H18.531a2.268,2.268,0,0,1,.453-1.359,3,3,0,0,1,1.281-.98,4.669,4.669,0,0,1,1.859-.355,3.689,3.689,0,0,1,2.48.785,2.747,2.747,0,0,1,.918,2.207v3.664a4.041,4.041,0,0,0,.336,1.82V15Zm-1.867-1.57a1.945,1.945,0,0,0,.922-.223,1.462,1.462,0,0,0,.625-.6V11.156h-.844q-1.7,0-1.8,1.172l-.008.133a.9.9,0,0,0,.3.7A1.153,1.153,0,0,0,21.711,13.43Zm9.063-.094a1.481,1.481,0,0,0,1.016-.344,1.2,1.2,0,0,0,.406-.914h2.117a2.9,2.9,0,0,1-.469,1.574,3.093,3.093,0,0,1-1.262,1.109,3.949,3.949,0,0,1-1.77.395A3.67,3.67,0,0,1,27.953,14a4.56,4.56,0,0,1-1.047-3.184v-.148a4.508,4.508,0,0,1,1.039-3.117A3.627,3.627,0,0,1,30.8,6.391a3.555,3.555,0,0,1,2.543.9,3.2,3.2,0,0,1,.973,2.4H32.2a1.551,1.551,0,0,0-.406-1.072,1.51,1.51,0,0,0-2.223.163,3.333,3.333,0,0,0-.4,1.866v.235a3.375,3.375,0,0,0,.4,1.878A1.377,1.377,0,0,0,30.773,13.336ZM38.3,4.469V6.547H39.75V8.2H38.3v4.219a1.007,1.007,0,0,0,.18.672.9.9,0,0,0,.688.2,3.6,3.6,0,0,0,.664-.055v1.711a4.648,4.648,0,0,1-1.367.2,2.156,2.156,0,0,1-2.422-2.4V8.2H34.812V6.547h1.234V4.469ZM45.906,15a2.507,2.507,0,0,1-.227-.758,2.732,2.732,0,0,1-2.133.914,3,3,0,0,1-2.059-.719,2.312,2.312,0,0,1-.816-1.812,2.389,2.389,0,0,1,1-2.062,4.915,4.915,0,0,1,2.879-.727h1.039V9.352a1.393,1.393,0,0,0-.3-.937,1.183,1.183,0,0,0-.949-.352,1.345,1.345,0,0,0-.895.273.929.929,0,0,0-.324.75H40.859a2.268,2.268,0,0,1,.453-1.359,3,3,0,0,1,1.281-.98,4.669,4.669,0,0,1,1.859-.355,3.689,3.689,0,0,1,2.48.785,2.747,2.747,0,0,1,.918,2.207v3.664a4.041,4.041,0,0,0,.336,1.82V15Zm-1.867-1.57a1.945,1.945,0,0,0,.922-.223,1.462,1.462,0,0,0,.625-.6V11.156h-.844q-1.7,0-1.8,1.172l-.008.133a.9.9,0,0,0,.3.7A1.153,1.153,0,0,0,44.039,13.43Zm7.625-6.883.07.977a2.951,2.951,0,0,1,2.43-1.133,2.453,2.453,0,0,1,2,.789,3.682,3.682,0,0,1,.672,2.359V15H54.578V9.594a1.465,1.465,0,0,0-.312-1.043,1.4,1.4,0,0,0-1.039-.324,1.553,1.553,0,0,0-1.43.813V15H49.539V6.547ZM61.25,4.469V6.547H62.7V8.2H61.25v4.219a1.007,1.007,0,0,0,.18.672.9.9,0,0,0,.688.2,3.6,3.6,0,0,0,.664-.055v1.711a4.648,4.648,0,0,1-1.367.2,2.156,2.156,0,0,1-2.422-2.4V8.2H57.758V6.547h1.234V4.469Zm6.594,10.688a4.15,4.15,0,0,1-3.027-1.141,4.054,4.054,0,0,1-1.168-3.039v-.219A5.106,5.106,0,0,1,64.14,8.48a3.612,3.612,0,0,1,1.395-1.547,3.914,3.914,0,0,1,2.059-.543,3.508,3.508,0,0,1,2.73,1.094,4.444,4.444,0,0,1,1,3.1v.922H65.937a2.1,2.1,0,0,0,.66,1.328,2,2,0,0,0,1.395.5,2.437,2.437,0,0,0,2.039-.945l1.109,1.242a3.389,3.389,0,0,1-1.375,1.121A4.511,4.511,0,0,1,67.844,15.156Zm-.258-6.945a1.411,1.411,0,0,0-1.09.455,2.357,2.357,0,0,0-.535,1.3H69.1V9.788A1.681,1.681,0,0,0,68.7,8.623,1.456,1.456,0,0,0,67.586,8.211Z" transform="translate(494.022 4114.17)" fill="#12263f"/>
        <path id="Path_895996" data-name="Path 895996" d="M21.312,13.563a4.068,4.068,0,0,1-1.789,1.176,7.492,7.492,0,0,1-2.562.418,5.076,5.076,0,0,1-2.59-.645,4.3,4.3,0,0,1-1.719-1.871,6.585,6.585,0,0,1-.621-2.883V8.984a6.994,6.994,0,0,1,.574-2.949,4.248,4.248,0,0,1,1.656-1.906,4.771,4.771,0,0,1,2.535-.66,4.751,4.751,0,0,1,3.164.965,4.123,4.123,0,0,1,1.352,2.809H19.031a2.268,2.268,0,0,0-.691-1.43,2.208,2.208,0,0,0-1.473-.453,2.078,2.078,0,0,0-1.82.9,4.724,4.724,0,0,0-.633,2.672v.727a4.5,4.5,0,0,0,.68,2.7,2.327,2.327,0,0,0,1.992.914,2.6,2.6,0,0,0,1.883-.562V10.75H16.836V9.023h4.477ZM25.445,15H23.18V3h2.266Zm6.922-.859a2.831,2.831,0,0,1-2.313,1.016,2.67,2.67,0,0,1-2.074-.781,3.335,3.335,0,0,1-.73-2.289V6.547h2.258v5.467q0,1.322,1.2,1.322a1.63,1.63,0,0,0,1.578-.8V6.547h2.266V15H32.43Zm7.406-.8a1.481,1.481,0,0,0,1.016-.344,1.2,1.2,0,0,0,.406-.914h2.117a2.9,2.9,0,0,1-.469,1.574,3.093,3.093,0,0,1-1.262,1.109,3.949,3.949,0,0,1-1.77.395A3.67,3.67,0,0,1,36.953,14a4.56,4.56,0,0,1-1.047-3.184v-.148a4.508,4.508,0,0,1,1.039-3.117A3.627,3.627,0,0,1,39.8,6.391a3.555,3.555,0,0,1,2.543.9,3.2,3.2,0,0,1,.973,2.4H41.2a1.551,1.551,0,0,0-.406-1.072,1.51,1.51,0,0,0-2.223.163,3.333,3.333,0,0,0-.4,1.866v.235a3.375,3.375,0,0,0,.4,1.878A1.377,1.377,0,0,0,39.773,13.336ZM44.25,10.7a5.013,5.013,0,0,1,.484-2.242A3.546,3.546,0,0,1,46.129,6.93a4.069,4.069,0,0,1,2.113-.539,3.849,3.849,0,0,1,2.793,1.047,4.2,4.2,0,0,1,1.207,2.844l.016.578a4.418,4.418,0,0,1-1.086,3.121,4.209,4.209,0,0,1-5.832,0A4.5,4.5,0,0,1,44.25,10.8Zm2.258.16a3.16,3.16,0,0,0,.453,1.843,1.628,1.628,0,0,0,2.578.008A3.457,3.457,0,0,0,50,10.691a3.128,3.128,0,0,0-.461-1.831,1.5,1.5,0,0,0-1.3-.649,1.474,1.474,0,0,0-1.281.646A3.516,3.516,0,0,0,46.508,10.856Zm11.719,1.808a.727.727,0,0,0-.41-.652,4.659,4.659,0,0,0-1.316-.426q-3.016-.633-3.016-2.562a2.323,2.323,0,0,1,.934-1.879,3.766,3.766,0,0,1,2.441-.754,4.053,4.053,0,0,1,2.574.758A2.388,2.388,0,0,1,60.4,9.117H58.14a1.092,1.092,0,0,0-.312-.8A1.322,1.322,0,0,0,56.851,8a1.351,1.351,0,0,0-.883.258.814.814,0,0,0-.312.656.7.7,0,0,0,.355.605,3.657,3.657,0,0,0,1.2.4,9.8,9.8,0,0,1,1.422.379,2.336,2.336,0,0,1,1.789,2.273,2.2,2.2,0,0,1-.992,1.871,4.28,4.28,0,0,1-2.562.715,4.47,4.47,0,0,1-1.887-.379,3.166,3.166,0,0,1-1.293-1.039,2.414,2.414,0,0,1-.469-1.426h2.141a1.179,1.179,0,0,0,.445.922,1.766,1.766,0,0,0,1.109.32,1.635,1.635,0,0,0,.98-.246A.766.766,0,0,0,58.226,12.664ZM66.773,15a2.507,2.507,0,0,1-.227-.758,2.732,2.732,0,0,1-2.133.914,3,3,0,0,1-2.059-.719,2.312,2.312,0,0,1-.816-1.812,2.389,2.389,0,0,1,1-2.062,4.915,4.915,0,0,1,2.879-.727h1.039V9.352a1.393,1.393,0,0,0-.3-.937,1.183,1.183,0,0,0-.949-.352,1.345,1.345,0,0,0-.895.273.929.929,0,0,0-.324.75H61.726a2.268,2.268,0,0,1,.453-1.359,3,3,0,0,1,1.281-.98,4.669,4.669,0,0,1,1.859-.355,3.689,3.689,0,0,1,2.48.785,2.747,2.747,0,0,1,.918,2.207v3.664a4.041,4.041,0,0,0,.336,1.82V15Zm-1.867-1.57a1.945,1.945,0,0,0,.922-.223,1.462,1.462,0,0,0,.625-.6V11.156h-.844q-1.7,0-1.8,1.172l-.008.133a.9.9,0,0,0,.3.7A1.153,1.153,0,0,0,64.906,13.43Z" transform="translate(492.611 4413.074)" fill="#12263f"/>
        <ellipse id="Ellipse_11720" data-name="Ellipse 11720" cx="52.5" cy="53" rx="52.5" ry="53" transform="translate(996.961 4376.972)" fill="#d4b9fd" opacity="0.5"/>
        <ellipse id="Ellipse_11721" data-name="Ellipse 11721" cx="52.5" cy="53" rx="52.5" ry="53" transform="translate(1050.961 4376.972)" fill="#d4b9fd" opacity="0.5"/>
        <path id="Path_896001" data-name="Path 896001" d="M13.742,10.992V15H11.4V3.625h4.438a5.134,5.134,0,0,1,2.254.469,3.454,3.454,0,0,1,1.5,1.332,3.714,3.714,0,0,1,.523,1.965,3.266,3.266,0,0,1-1.145,2.637,4.767,4.767,0,0,1-3.168.965Zm0-1.9h2.094a2.059,2.059,0,0,0,1.418-.437,1.591,1.591,0,0,0,.488-1.25,1.876,1.876,0,0,0-.492-1.352,1.839,1.839,0,0,0-1.359-.531H13.742ZM23.953,15H21.687V6.547h2.266Zm-2.4-10.641a1.112,1.112,0,0,1,.34-.836,1.465,1.465,0,0,1,1.848,0,1.105,1.105,0,0,1,.344.836,1.108,1.108,0,0,1-.348.844,1.448,1.448,0,0,1-1.836,0A1.108,1.108,0,0,1,21.555,4.359Zm9.008,4.3A6.134,6.134,0,0,0,29.75,8.6a1.654,1.654,0,0,0-1.68.867V15H25.812V6.547h2.133l.063,1.008A2.092,2.092,0,0,1,29.89,6.391a2.366,2.366,0,0,1,.7.1Zm6.148,5.477A2.831,2.831,0,0,1,34.4,15.156a2.67,2.67,0,0,1-2.074-.781,3.335,3.335,0,0,1-.73-2.289V6.547h2.258v5.467q0,1.322,1.2,1.322a1.63,1.63,0,0,0,1.578-.8V6.547H38.9V15H36.773Zm7.055-1.9,1.57-5.7H47.7L44.844,15H42.687L39.836,6.547H42.2ZM53.469,15a2.507,2.507,0,0,1-.227-.758,2.732,2.732,0,0,1-2.133.914,3,3,0,0,1-2.059-.719,2.312,2.312,0,0,1-.816-1.812,2.389,2.389,0,0,1,1-2.062,4.915,4.915,0,0,1,2.879-.727h1.039V9.352a1.393,1.393,0,0,0-.3-.937,1.183,1.183,0,0,0-.949-.352A1.345,1.345,0,0,0,51,8.336a.929.929,0,0,0-.324.75H48.422a2.268,2.268,0,0,1,.453-1.359,3,3,0,0,1,1.281-.98,4.669,4.669,0,0,1,1.859-.355,3.689,3.689,0,0,1,2.48.785,2.747,2.747,0,0,1,.918,2.207v3.664a4.041,4.041,0,0,0,.336,1.82V15ZM51.6,13.43a1.945,1.945,0,0,0,.922-.223,1.462,1.462,0,0,0,.625-.6V11.156H52.3q-1.7,0-1.8,1.172l-.008.133a.9.9,0,0,0,.3.7A1.153,1.153,0,0,0,51.6,13.43Zm8.25-8.961V6.547H61.3V8.2H59.851v4.219a1.007,1.007,0,0,0,.18.672.9.9,0,0,0,.688.2,3.6,3.6,0,0,0,.664-.055v1.711a4.648,4.648,0,0,1-1.367.2,2.156,2.156,0,0,1-2.422-2.4V8.2H56.359V6.547h1.234V4.469ZM61.969,10.7a5.013,5.013,0,0,1,.484-2.242A3.546,3.546,0,0,1,63.848,6.93a4.069,4.069,0,0,1,2.113-.539,3.849,3.849,0,0,1,2.793,1.047,4.2,4.2,0,0,1,1.207,2.844l.016.578A4.418,4.418,0,0,1,68.89,13.98a4.209,4.209,0,0,1-5.832,0,4.5,4.5,0,0,1-1.09-3.187Zm2.258.16A3.16,3.16,0,0,0,64.68,12.7a1.628,1.628,0,0,0,2.578.008,3.457,3.457,0,0,0,.461-2.015,3.128,3.128,0,0,0-.461-1.831,1.5,1.5,0,0,0-1.3-.649,1.474,1.474,0,0,0-1.281.646A3.516,3.516,0,0,0,64.226,10.856Z" transform="translate(1036.416 4420.094)" fill="#12263f"/>
        <g id="Group_1108809" data-name="Group 1108809" transform="translate(1121.275 4014.683)">
          <path id="Path_891638" data-name="Path 891638" d="M1628-74.4a16.354,16.354,0,0,1,3.758-6.806c.561-.641.337-.924-.1-1.458a18.908,18.908,0,0,1-4.434-11.189,19.192,19.192,0,0,1,3.09-11.9,19.2,19.2,0,0,1,13.9-8.663,39.308,39.308,0,0,1,4.772-.121,11.357,11.357,0,0,1,2.929,1.979c1.728,1.435,2.133,1.415,3.538-.283a1.051,1.051,0,0,0,.595.823,32.443,32.443,0,0,1,3.135,2.151c.659.544.942.381,1.4-.2a25.417,25.417,0,0,1,3.686-4.012,21.329,21.329,0,0,1,16.039-5.182,1.558,1.558,0,0,0,1.261-.177c.078,0,.172-.03.231,0,6.528,3.619,10.323,9.11,11.032,16.559a19.96,19.96,0,0,1-4.423,14.61c-1.038,1.325-.933,1.944.426,2.979a9.511,9.511,0,0,1,3.956,9.529,9.476,9.476,0,0,1-6.543,7.832,2.569,2.569,0,0,0-1.77,2.009c-2,7.676-6.871,12.657-14.594,14.291-7.83,1.657-14.348-1.009-19.314-7.307-1.41-1.788-1.6-1.864-3.588-.622-5.33,3.329-12.576,3.2-17.353-.318.4-.34,0-.543-.136-.789a18.42,18.42,0,0,1-2.254-9.915c.016-.315-.017-.647.348-.811.116.418.234.836.349,1.255a10.96,10.96,0,0,0,10.342,7.887c.986-.022,1.632-.4,1.648-1.447.015-.969-.562-1.421-1.5-1.476a8.118,8.118,0,0,1-2.678-.536,7.91,7.91,0,0,1-5.219-6.929C1630.339-74.575,1629.644-75.037,1628-74.4Zm46.708-15.187a10.468,10.468,0,0,0-10.478-10.485,10.517,10.517,0,0,0-10.416,10.568,10.537,10.537,0,0,0,10.442,10.427A10.474,10.474,0,0,0,1674.707-89.589Zm-31.727,7.448a7.363,7.363,0,0,1-6.955-4.9,7.383,7.383,0,0,1,2.288-8.293c2.842-2.331,6.564-2.267,9.627.167,1.062.844,1.913.918,2.531.222.662-.746.477-1.634-.608-2.545a10.111,10.111,0,0,0-9.487-2.192A10.4,10.4,0,0,0,1632.6-88.65a10.467,10.467,0,0,0,10.193,9.545,10.147,10.147,0,0,0,7.472-2.923,1.437,1.437,0,0,0,.228-2.123,1.377,1.377,0,0,0-2.111-.16c-.22.17-.456.323-.668.5A7.056,7.056,0,0,1,1642.98-82.141Zm37.381,6.168a10.862,10.862,0,0,0,2.094-3.45c.8-2.38-.175-4.656-2.236-5.31a3.992,3.992,0,0,0-5.1,2.483c-.422,1.309-.107,2.327.9,2.592,1.24.325,1.708-.478,1.941-1.517a1.168,1.168,0,0,1,.025-.117.9.9,0,0,1,1.139-.6c.591.095.615.544.57,1a4.7,4.7,0,0,1-1.185,2.425,25.455,25.455,0,0,1-2.964,2.935c-.977.888-.776,2.3.425,2.535a16.743,16.743,0,0,0,5.684.012,1.261,1.261,0,0,0,1.045-1.407,1.378,1.378,0,0,0-1.116-1.377C1681.24-75.853,1680.884-75.887,1680.361-75.972Zm7.463-25.988a12.627,12.627,0,0,0-.836-4.319,15.479,15.479,0,0,0-7.6-8.688,1.466,1.466,0,0,0-2.184.453,1.452,1.452,0,0,0,.662,2.12c.168.107.343.2.518.3a12.508,12.508,0,0,1,5.248,5.56,14.336,14.336,0,0,1,1.283,5.431,1.362,1.362,0,0,0,1.465,1.41,1.374,1.374,0,0,0,1.447-1.549C1687.823-101.481,1687.824-101.721,1687.824-101.96Zm-15.717-11.773c1.057.019,1.772-.643,1.71-1.473a1.381,1.381,0,0,0-1.446-1.419,1.41,1.41,0,0,0-1.511,1.474A1.357,1.357,0,0,0,1672.107-113.733Z" transform="translate(-1619.327 124.756)" fill="#d6d6e2"/>
          <path id="Path_891639" data-name="Path 891639" d="M1604.651-76.71c4.777,3.514,12.023,3.647,17.353.318,1.989-1.242,2.178-1.165,3.588.622,4.967,6.3,11.484,8.965,19.314,7.307,7.723-1.635,12.6-6.615,14.594-14.291a2.569,2.569,0,0,1,1.77-2.009,9.476,9.476,0,0,0,6.543-7.832,9.511,9.511,0,0,0-3.956-9.529c-1.359-1.035-1.464-1.654-.426-2.979a19.96,19.96,0,0,0,4.423-14.61c-.709-7.449-4.5-12.939-11.032-16.559-.059-.033-.154,0-.231,0-.477-.253-.936-.549-1.433-.752a20,20,0,0,0-11.691-1.177,19.694,19.694,0,0,0-12.992,8.529c-1.4,1.7-1.81,1.718-3.538.283a11.352,11.352,0,0,0-2.929-1.979,17.168,17.168,0,0,0-14.154-1.462,24.072,24.072,0,0,0-2.868,1.162c-.936.425-1.775.372-2.242-.593s.049-1.686.953-2.116c7.489-3.563,14.716-3.107,21.618,1.511.842.563,1.217.638,1.949-.21,5.826-6.744,13.246-9.631,22.007-8.117,9.352,1.617,15.664,7.232,18.591,16.237a22.448,22.448,0,0,1-2.924,20.076c-.47.711-.415,1.046.19,1.639a12.874,12.874,0,0,1-3.642,20.827,2.27,2.27,0,0,0-1.393,1.576,21.94,21.94,0,0,1-25.359,15.4,21.313,21.313,0,0,1-12.608-7.4c-.484-.571-.8-.844-1.634-.405a19.048,19.048,0,0,1-27.829-13.909,18.2,18.2,0,0,1,3.749-14.494,1.251,1.251,0,0,0,0-1.822c-4.626-6.606-5.254-13.649-2.134-21.05a1.506,1.506,0,0,1,2.1-.976,1.465,1.465,0,0,1,.644,2.135,18.376,18.376,0,0,0-1.61,8.713,17.471,17.471,0,0,0,4.056,10.257c1.5,1.814,1.515,2-.09,3.8C1595.009-93.461,1596.63-81.621,1604.651-76.71Z" transform="translate(-1594.347 141.586)" fill="#060606"/>
          <path id="Path_891640" data-name="Path 891640" d="M1628.905,67.8c1.645-.635,2.34-.174,2.53,1.762a7.91,7.91,0,0,0,5.219,6.929,8.12,8.12,0,0,0,2.678.536c.94.055,1.516.507,1.5,1.476-.016,1.042-.662,1.425-1.648,1.447a10.96,10.96,0,0,1-10.342-7.887c-.115-.419-.232-.837-.349-1.255C1628.434,69.78,1628.132,68.717,1628.905,67.8Z" transform="translate(-1620.233 -17.447)" fill="#060606"/>
          <path id="Path_891641" data-name="Path 891641" d="M1618.473-96.071a1.422,1.422,0,0,1,1.418,1.454,1.488,1.488,0,0,1-1.622,1.5,1.394,1.394,0,0,1-1.354-1.506A1.493,1.493,0,0,1,1618.473-96.071Z" transform="translate(-1611.509 106.973)" fill="#060606"/>
          <path id="Path_891642" data-name="Path 891642" d="M1759.226-28.05a10.474,10.474,0,0,1-10.452,10.51,10.537,10.537,0,0,1-10.442-10.427,10.516,10.516,0,0,1,10.416-10.568A10.469,10.469,0,0,1,1759.226-28.05Zm-10.447-7.429a7.518,7.518,0,0,0-7.476,7.424,7.528,7.528,0,0,0,7.45,7.459,7.508,7.508,0,0,0,7.524-7.492A7.505,7.505,0,0,0,1748.779-35.479Z" transform="translate(-1703.846 63.217)" fill="#060606"/>
          <path id="Path_891643" data-name="Path 891643" d="M1659.939-20.541a7.061,7.061,0,0,0,4.734-1.67c.212-.18.448-.332.668-.5a1.377,1.377,0,0,1,2.111.16,1.437,1.437,0,0,1-.228,2.123,10.148,10.148,0,0,1-7.472,2.923,10.466,10.466,0,0,1-10.192-9.545,10.4,10.4,0,0,1,7.775-11.031,10.111,10.111,0,0,1,9.487,2.192c1.085.911,1.27,1.8.608,2.545-.618.7-1.469.622-2.531-.222-3.063-2.434-6.786-2.5-9.627-.167a7.382,7.382,0,0,0-2.288,8.293A7.365,7.365,0,0,0,1659.939-20.541Z" transform="translate(-1636.285 63.157)" fill="#060606"/>
          <path id="Path_891644" data-name="Path 891644" d="M1831.915,33.618c.523.085.879.12,1.223.2a1.378,1.378,0,0,1,1.116,1.377,1.261,1.261,0,0,1-1.045,1.407,16.744,16.744,0,0,1-5.684-.012c-1.2-.233-1.4-1.648-.425-2.535a25.463,25.463,0,0,0,2.964-2.935,4.7,4.7,0,0,0,1.185-2.425c.046-.457.021-.907-.57-1a.9.9,0,0,0-1.139.6c-.012.038-.016.078-.025.117-.232,1.039-.7,1.842-1.941,1.517-1.01-.265-1.325-1.283-.9-2.592a3.992,3.992,0,0,1,5.1-2.483c2.061.655,3.034,2.93,2.236,5.31A10.861,10.861,0,0,1,1831.915,33.618Z" transform="translate(-1770.881 15.165)" fill="#060606"/>
          <path id="Path_891645" data-name="Path 891645" d="M1845.845-88.624c0,.239,0,.479,0,.718a1.374,1.374,0,0,1-1.447,1.549,1.363,1.363,0,0,1-1.465-1.41,14.34,14.34,0,0,0-1.283-5.431,12.509,12.509,0,0,0-5.249-5.56c-.175-.1-.35-.191-.518-.3a1.452,1.452,0,0,1-.662-2.12,1.466,1.466,0,0,1,2.184-.453,15.479,15.479,0,0,1,7.6,8.688A12.629,12.629,0,0,1,1845.845-88.624Z" transform="translate(-1777.348 111.42)" fill="#060606"/>
          <path id="Path_891646" data-name="Path 891646" d="M1810.741-104.746a1.357,1.357,0,0,1-1.247-1.417,1.41,1.41,0,0,1,1.51-1.474,1.381,1.381,0,0,1,1.446,1.419C1812.512-105.39,1811.8-104.727,1810.741-104.746Z" transform="translate(-1757.96 115.769)" fill="#060606"/>
          <path id="Path_891647" data-name="Path 891647" d="M1758.211-25.777a7.505,7.505,0,0,1,7.5,7.391,7.508,7.508,0,0,1-7.524,7.492,7.528,7.528,0,0,1-7.45-7.459A7.518,7.518,0,0,1,1758.211-25.777Z" transform="translate(-1713.278 53.515)" fill="#d6d6e2"/>
        </g>
        <path id="Path_891648" data-name="Path 891648" d="M-5515.711-7282" transform="translate(6591.899 11648.992)" fill="none" stroke="#707070" stroke-width="1"/>
        <path id="Union_2" data-name="Union 2" d="M286.943,420.028l6.784-6.512,8.833,9.2V385.171H72.454v37.877l7.078-9.152,7.439,5.754L69.089,442.773,47.255,420.028l6.785-6.512L63.05,422.9V385.171H7.289v-9.4H63.05V354.641h9.4v21.126H302.561V354.641h9.406v21.126h57.808l-8.644-6.684,5.754-7.439,23.124,17.882-22.745,21.834-6.512-6.785,9.794-9.4H311.967v38.1l7.252-9.378,7.439,5.754-17.882,23.124ZM450.037,327.74c.007-2.14.707-214.264,0-230.524-.491-11.328-10.4-12.053-12.386-12.083H263.362c25.027,31.116,29.342,68.556,29.409,69.207l-9.354.976c-.276-2.61-4.8-41.219-31.951-70.183H87.354c-19.081,19.146-27.629,42.508-31.314,56.9l8.141-6.2,5.7,7.483L46.523,161.1l-13.4-25.668,8.339-4.352L46.744,141.2c3.56-13.8,11.506-36.217,28.393-56.066H21.161l7.814,6.043-5.754,7.439L0,80.656,21.326,61.074,27.688,68l-8.415,7.726h64.8c18.5-17.4,45.373-31.015,84.255-31.844,1.169-.025,2.336-.038,3.484-.038,38.61,0,65.053,13.922,83.1,31.882h182.78c7.211.011,21.024,4.431,21.744,21.082.712,16.477.033,222.212,0,230.962ZM241.345,75.728C225.1,62.642,202.7,53.251,171.834,53.251c-1.094,0-2.188.012-3.3.036-31.031.661-53.769,9.834-70.411,22.441ZM508.83,325.668c0-1.633.12-101.091.139-182.542-.033-1.1-.039-2.317,0-3.611.01-50.369-.019-93.1-.14-100.209-.246-14.552-14.383-15.929-14.984-15.98l-473.61.017L28.975,30.1l-5.754,7.439L0,19.581,21.326,0l6.361,6.928-7.635,7.01H494.247c8.424.7,23.677,6.853,23.989,25.21.1,6.029.138,37.427.141,77.373a18.074,18.074,0,0,1,10.634-3.21h33.922V57.821h9.405v60.192a4.7,4.7,0,0,1-4.7,4.7H529.01a8.091,8.091,0,0,0-6.571,2.731c-3.06,3.51-3.964,9.809-4.065,15,0,.665,0,1.35,0,2.017a44.643,44.643,0,0,0,.351,4.994l-.352.049c-.022,80.622-.136,176.563-.138,178.167Zm-424.121-78.8,9.348-1.035c.3,2.624,8.05,64.213,75.173,62.886,53.277-1.073,69.246-38.289,73.735-55l-9.745,6.644-5.3-7.771,24.255-16.537,12.033,26.335-8.555,3.909-4.091-8.953c-5.793,19.514-24.678,59.622-82.146,60.78-.791.016-1.585.024-2.362.024C93.393,318.15,84.789,247.593,84.709,246.872Zm8.678-90.305-.48-.059c0-.035.035-.265.1-.667L83.087,136.83l8.338-4.351,5.291,10.14c6.96-18.367,25.882-48.535,75.205-49.477.74-.014,1.475-.021,2.2-.021,68.847,0,76.921,62.771,77,63.412l-9.342,1.092c-.274-2.3-7.482-56.247-69.674-55.08-41.982.8-58.972,24.491-65.679,40.565l7.719-5.877,5.7,7.483L96.482,162.5Z" transform="translate(594.619 4045.269)" fill="#707070"/>
        <g id="Group_1108813" data-name="Group 1108813" transform="translate(594.383 4208.989)">
          <g id="Ellipse_11722" data-name="Ellipse 11722" transform="translate(47.578 -0.017)" fill="#c5ffee" stroke="#707070" stroke-width="3">
            <ellipse cx="14" cy="13.5" rx="14" ry="13.5" stroke="none"/>
            <ellipse cx="14" cy="13.5" rx="12.5" ry="12" fill="none"/>
          </g>
          <g id="Ellipse_11724" data-name="Ellipse 11724" transform="translate(47.578 45.983)" fill="#c5ffee" stroke="#707070" stroke-width="3">
            <ellipse cx="14" cy="13.5" rx="14" ry="13.5" stroke="none"/>
            <ellipse cx="14" cy="13.5" rx="12.5" ry="12" fill="none"/>
          </g>
          <g id="Ellipse_11723" data-name="Ellipse 11723" transform="translate(82.578 -0.017)" fill="#c5ffee" stroke="#707070" stroke-width="3">
            <circle cx="13.5" cy="13.5" r="13.5" stroke="none"/>
            <circle cx="13.5" cy="13.5" r="12" fill="none"/>
          </g>
          <g id="Ellipse_11725" data-name="Ellipse 11725" transform="translate(82.578 45.983)" fill="#c5ffee" stroke="#707070" stroke-width="3">
            <circle cx="13.5" cy="13.5" r="13.5" stroke="none"/>
            <circle cx="13.5" cy="13.5" r="12" fill="none"/>
          </g>
          <g id="Rectangle_403985" data-name="Rectangle 403985" transform="translate(32.578 12.983)" fill="#fff" stroke="#707070" stroke-width="3">
            <rect width="90" height="46" rx="17" stroke="none"/>
            <rect x="1.5" y="1.5" width="87" height="43" rx="15.5" fill="none"/>
          </g>
          <text id="NAD" transform="translate(76.578 41.983)" fill="#12263f" font-size="17" font-family="Roboto-Bold, Roboto" font-weight="700"><tspan x="-17.32" y="0">NAD</tspan></text>
          <text id="_2_x" data-name="2 x" transform="translate(10.578 44.983)" fill="#12263f" font-size="17" font-family="Roboto-Bold, Roboto" font-weight="700"><tspan x="-11.318" y="0">2 x</tspan></text>
        </g>
        <g id="Group_1108812" data-name="Group 1108812" transform="translate(790.007 4211.811)">
          <g id="Ellipse_11727" data-name="Ellipse 11727" transform="translate(33.955 0.162)" fill="#c5ffee" stroke="#707070" stroke-width="3">
            <ellipse cx="11" cy="10.5" rx="11" ry="10.5" stroke="none"/>
            <ellipse cx="11" cy="10.5" rx="9.5" ry="9" fill="none"/>
          </g>
          <g id="Ellipse_11728" data-name="Ellipse 11728" transform="translate(33.955 45.162)" fill="#c5ffee" stroke="#707070" stroke-width="3">
            <ellipse cx="11" cy="10.5" rx="11" ry="10.5" stroke="none"/>
            <ellipse cx="11" cy="10.5" rx="9.5" ry="9" fill="none"/>
          </g>
          <g id="Ellipse_11729" data-name="Ellipse 11729" transform="translate(59.955 0.162)" fill="#c5ffee" stroke="#707070" stroke-width="3">
            <circle cx="10.5" cy="10.5" r="10.5" stroke="none"/>
            <circle cx="10.5" cy="10.5" r="9" fill="none"/>
          </g>
          <g id="Ellipse_11732" data-name="Ellipse 11732" transform="translate(85.955 0.162)" fill="#c5ffee" stroke="#707070" stroke-width="3">
            <ellipse cx="9.5" cy="10.5" rx="9.5" ry="10.5" stroke="none"/>
            <ellipse cx="9.5" cy="10.5" rx="8" ry="9" fill="none"/>
          </g>
          <g id="Ellipse_11726" data-name="Ellipse 11726" transform="translate(59.955 45.162)" fill="#c5ffee" stroke="#707070" stroke-width="3">
            <circle cx="10.5" cy="10.5" r="10.5" stroke="none"/>
            <circle cx="10.5" cy="10.5" r="9" fill="none"/>
          </g>
          <g id="Ellipse_11733" data-name="Ellipse 11733" transform="translate(85.955 45.162)" fill="#c5ffee" stroke="#707070" stroke-width="3">
            <ellipse cx="9.5" cy="10.5" rx="9.5" ry="10.5" stroke="none"/>
            <ellipse cx="9.5" cy="10.5" rx="8" ry="9" fill="none"/>
          </g>
          <g id="Rectangle_403986" data-name="Rectangle 403986" transform="translate(25.955 10.162)" fill="#fff" stroke="#707070" stroke-width="3">
            <rect width="90" height="46" rx="17" stroke="none"/>
            <rect x="1.5" y="1.5" width="87" height="43" rx="15.5" fill="none"/>
          </g>
          <text id="NADH" transform="translate(70.955 38.162)" fill="#12263f" font-size="17" font-family="Roboto-Bold, Roboto" font-weight="700"><tspan x="-23.325" y="0">NADH</tspan></text>
          <text id="_2_x-2" data-name="2 x" transform="translate(10.955 40.162)" fill="#12263f" font-size="17" font-family="Roboto-Bold, Roboto" font-weight="700"><tspan x="-11.318" y="0">2 x</tspan></text>
        </g>
        <path id="Path_895997" data-name="Path 895997" d="M-4.329,0h-8.284V-1.644L-8.7-5.811A9.645,9.645,0,0,0-7.512-7.346a2.467,2.467,0,0,0,.386-1.245,1.846,1.846,0,0,0-.407-1.266A1.468,1.468,0,0,0-8.7-10.318a1.584,1.584,0,0,0-1.282.56,2.219,2.219,0,0,0-.469,1.473h-2.407a3.962,3.962,0,0,1,.527-2.017,3.715,3.715,0,0,1,1.49-1.432,4.529,4.529,0,0,1,2.183-.519,4.288,4.288,0,0,1,2.9.9A3.172,3.172,0,0,1-4.719-8.824,4.064,4.064,0,0,1-5.184-7,10.148,10.148,0,0,1-6.778-4.831l-2.748,2.9h5.2ZM4.893-6.3,6.4-8.981H8.969l-2.557,4.4L9.077,0H6.5L4.9-2.822,3.308,0H.726L3.391-4.582.843-8.981H3.416Z" transform="translate(617.729 4375.656)" fill="#12263f"/>
        <path id="Path_895999" data-name="Path 895999" d="M-4.329,0h-8.284V-1.644L-8.7-5.811A9.645,9.645,0,0,0-7.512-7.346a2.467,2.467,0,0,0,.386-1.245,1.846,1.846,0,0,0-.407-1.266A1.468,1.468,0,0,0-8.7-10.318a1.584,1.584,0,0,0-1.282.56,2.219,2.219,0,0,0-.469,1.473h-2.407a3.962,3.962,0,0,1,.527-2.017,3.715,3.715,0,0,1,1.49-1.432,4.529,4.529,0,0,1,2.183-.519,4.288,4.288,0,0,1,2.9.9A3.172,3.172,0,0,1-4.719-8.824,4.064,4.064,0,0,1-5.184-7,10.148,10.148,0,0,1-6.778-4.831l-2.748,2.9h5.2ZM4.893-6.3,6.4-8.981H8.969l-2.557,4.4L9.077,0H6.5L4.9-2.822,3.308,0H.726L3.391-4.582.843-8.981H3.416Z" transform="translate(855.005 4375.656)" fill="#12263f"/>
        <path id="Path_896002" data-name="Path 896002" d="M-4.329,0h-8.284V-1.644L-8.7-5.811A9.645,9.645,0,0,0-7.512-7.346a2.467,2.467,0,0,0,.386-1.245,1.846,1.846,0,0,0-.407-1.266A1.468,1.468,0,0,0-8.7-10.318a1.584,1.584,0,0,0-1.282.56,2.219,2.219,0,0,0-.469,1.473h-2.407a3.962,3.962,0,0,1,.527-2.017,3.715,3.715,0,0,1,1.49-1.432,4.529,4.529,0,0,1,2.183-.519,4.288,4.288,0,0,1,2.9.9A3.172,3.172,0,0,1-4.719-8.824,4.064,4.064,0,0,1-5.184-7,10.148,10.148,0,0,1-6.778-4.831l-2.748,2.9h5.2ZM4.893-6.3,6.4-8.981H8.969l-2.557,4.4L9.077,0H6.5L4.9-2.822,3.308,0H.726L3.391-4.582.843-8.981H3.416Z" transform="translate(1073.2 4499.482)" fill="#12263f"/>
        <ellipse id="Ellipse_11734" data-name="Ellipse 11734" cx="28.685" cy="28.215" rx="28.685" ry="28.215" transform="translate(634.825 4339.167)" fill="#8efe43"/>
        <ellipse id="Ellipse_11735" data-name="Ellipse 11735" cx="28.685" cy="28.215" rx="28.685" ry="28.215" transform="translate(872.101 4339.167)" fill="#8efe43"/>
        <path id="Path_891660" data-name="Path 891660" d="M-4317.2-7741.254l30.5-36.957,13.978,11.86,24.567-22.449-24.567,42.357-13.978-14.825Z" transform="translate(4944.778 12128.227)" fill="#e0ffa3"/>
        <path id="Path_891661" data-name="Path 891661" d="M-4317.2-7741.254l30.5-36.957,13.978,11.86,24.567-22.449-24.567,42.357-13.978-14.825Z" transform="translate(5182.055 12128.227)" fill="#e0ffa3"/>
        <path id="Path_895998" data-name="Path 895998" d="M-7.586-2.344H-11.7L-12.477,0h-2.492l4.234-11.375h2.172L-4.3,0H-6.8Zm-3.477-1.9h2.844L-9.648-8.5ZM4.383-9.477H.9V0H-1.445V-9.477H-4.883v-1.9H4.383Zm3.68,5.469V0H5.719V-11.375h4.438a5.134,5.134,0,0,1,2.254.469,3.454,3.454,0,0,1,1.5,1.332,3.714,3.714,0,0,1,.523,1.965,3.266,3.266,0,0,1-1.145,2.637,4.767,4.767,0,0,1-3.168.965Zm0-1.9h2.094a2.059,2.059,0,0,0,1.418-.437,1.591,1.591,0,0,0,.488-1.25,1.876,1.876,0,0,0-.492-1.352,1.839,1.839,0,0,0-1.359-.531H8.063Z" transform="translate(662.991 4373.917)" fill="#12263f"/>
        <path id="Path_896000" data-name="Path 896000" d="M-7.586-2.344H-11.7L-12.477,0h-2.492l4.234-11.375h2.172L-4.3,0H-6.8Zm-3.477-1.9h2.844L-9.648-8.5ZM4.383-9.477H.9V0H-1.445V-9.477H-4.883v-1.9H4.383Zm3.68,5.469V0H5.719V-11.375h4.438a5.134,5.134,0,0,1,2.254.469,3.454,3.454,0,0,1,1.5,1.332,3.714,3.714,0,0,1,.523,1.965,3.266,3.266,0,0,1-1.145,2.637,4.767,4.767,0,0,1-3.168.965Zm0-1.9h2.094a2.059,2.059,0,0,0,1.418-.437,1.591,1.591,0,0,0,.488-1.25,1.876,1.876,0,0,0-.492-1.352,1.839,1.839,0,0,0-1.359-.531H8.063Z" transform="translate(899.327 4373.917)" fill="#12263f"/>
        <g id="Group_1108814" data-name="Group 1108814" transform="translate(605.565 4493.828)">
          <text id="_2_x_" data-name="2 x " transform="translate(13 34.245)" fill="#12263f" font-size="17" font-family="Roboto-Bold, Roboto" font-weight="700"><tspan x="-13.435" y="0">2 x </tspan></text>
          <circle id="Ellipse_11730" data-name="Ellipse 11730" cx="26.709" cy="26.709" r="26.709" transform="translate(29.155)" fill="#9bffc1"/>
          <path id="Path_891658" data-name="Path 891658" d="M-4317.2-7744.384l28.49-34.524,13.058,11.08,22.95-20.972-22.95,39.569-13.058-13.849Z" transform="translate(4339.332 7789.394)" fill="#c5ffee"/>
          <text id="ADP" transform="translate(56.273 33.245)" fill="#12263f" font-size="16" font-family="Roboto-Bold, Roboto" font-weight="700"><tspan x="-15.742" y="0">ADP</tspan></text>
        </g>
        <g id="Group_1108815" data-name="Group 1108815" transform="translate(847.267 4493.828)">
          <text id="_2_x_2" data-name="2 x " transform="translate(13 34.245)" fill="#12263f" font-size="17" font-family="Roboto-Bold, Roboto" font-weight="700"><tspan x="-13.435" y="0">2 x </tspan></text>
          <circle id="Ellipse_11730-2" data-name="Ellipse 11730" cx="26.709" cy="26.709" r="26.709" transform="translate(29.155)" fill="#9bffc1"/>
          <path id="Path_891658-2" data-name="Path 891658" d="M-4317.2-7744.384l28.49-34.524,13.058,11.08,22.95-20.972-22.95,39.569-13.058-13.849Z" transform="translate(4339.332 7789.394)" fill="#c5ffee"/>
          <text id="ADP-2" data-name="ADP" transform="translate(56.273 33.245)" fill="#12263f" font-size="16" font-family="Roboto-Bold, Roboto" font-weight="700"><tspan x="-15.742" y="0">ADP</tspan></text>
        </g>
        <path id="Path_891665" data-name="Path 891665" d="M0,0,18.81,14.546,1.591,30.356" transform="translate(1146.423 4121.874) rotate(-87)" fill="none" stroke="#707070" stroke-width="10"/>
      </g>
    </g>
  </g>
</svg>
