<svg xmlns="http://www.w3.org/2000/svg" xmlns:xlink="http://www.w3.org/1999/xlink" width="98.579" height="98.578" viewBox="0 0 98.579 98.578">
  <defs>
    <clipPath id="clip-path">
      <rect id="Rectangle_401223" data-name="Rectangle 401223" width="98.579" height="98.578" transform="translate(0)" fill="#115e01"/>
    </clipPath>
    <clipPath id="clip-path-2">
      <rect id="Rectangle_401223-2" data-name="Rectangle 401223" width="88.117" height="88.116" fill="#f2ffd9"/>
    </clipPath>
  </defs>
  <g id="Group_1111702" data-name="Group 1111702" transform="translate(-1100.914 -1073.136)">
    <g id="Group_1101957" data-name="Group 1101957" transform="translate(179.58 662.131)">
      <g id="Group_1099654" data-name="Group 1099654" transform="translate(921.333 411.006)">
        <g id="Group_1099652" data-name="Group 1099652" transform="translate(0 0)" clip-path="url(#clip-path)">
          <path id="Path_873521" data-name="Path 873521" d="M98.579,76.737a21.9,21.9,0,0,1-21.84,21.84H21.84A21.9,21.9,0,0,1,0,76.737V21.84A21.9,21.9,0,0,1,21.84,0h54.9a21.9,21.9,0,0,1,21.84,21.841Z" transform="translate(0)" fill="#115e01"/>
        </g>
      </g>
      <g id="Group_1099659" data-name="Group 1099659" transform="translate(926.103 416.728)">
        <g id="Group_1099652-2" data-name="Group 1099652" transform="translate(0 0)" clip-path="url(#clip-path-2)">
          <path id="Path_873521-2" data-name="Path 873521" d="M88.117,68.594A19.58,19.58,0,0,1,68.595,88.116H19.523A19.58,19.58,0,0,1,0,68.594V19.522A19.58,19.58,0,0,1,19.523,0H68.595A19.58,19.58,0,0,1,88.117,19.523Z" fill="#f2ffd9"/>
        </g>
      </g>
    </g>
    <g id="Group_1101958" data-name="Group 1101958" transform="translate(1116.855 1088.94)">
      <rect id="Rectangle_401104" data-name="Rectangle 401104" width="68" height="69" transform="translate(0.059 -0.804)" fill="none"/>
      <g id="Group_1103174" data-name="Group 1103174" transform="translate(-130.445 -264.548)">
        <path id="Path_878925" data-name="Path 878925" d="M298.009,406.128c2.207,3.281,4.4,6.571,6.624,9.841q6.616,9.731,13.262,19.442c.57.833,1.026,1.668.452,2.664a2.414,2.414,0,0,1-2.415,1.03c-5.319-.03-10.639-.036-15.958-.05a8.035,8.035,0,0,0-1.362-2.264c-2.267-3.523-4.58-7.017-6.9-10.509-2.2-3.315-4.446-6.6-6.616-9.929-.843-1.294-1.946-2.456-2.293-4.037q3.738-5.649,7.477-11.3c1.282-1.931,2.8-1.932,4.124-.04C295.61,402.7,296.672,404.508,298.009,406.128Z" transform="translate(-120.109 -106.539)" fill="#5a261d"/>
        <path id="Path_878926" data-name="Path 878926" d="M162.306,480.155l-24.121.032c-1.966,0-3.931-.009-5.9,0a2.145,2.145,0,0,1-2.139-1.134,2.12,2.12,0,0,1,.393-2.388q5.894-7.834,11.792-15.664c1.118-1.476,2.487-1.439,3.622.048,1.105,1.448,2.189,2.912,3.279,4.371.248.333.46.693.84.105q2.381-3.685,4.781-7.357c1.1-1.6,2.2-3.2,3.286-4.813,1.249-1.843,2.393-1.957,3.935-.38l.238.542Z" transform="translate(-0.032 -147.629)" fill="#943d30"/>
        <path id="Path_878927" data-name="Path 878927" d="M221.531,364.9c-1.542-1.577-2.686-1.463-3.935.38-1.09,1.608-2.19,3.209-3.286,4.813-6.283-3.565-9.184-8.977-8.619-16.154.528-6.714,6.257-12.807,12.9-13.949a13.341,13.341,0,0,1,3.188-.227q-.008,11.909-.024,23.818C221.754,364.029,221.925,364.521,221.531,364.9Z" transform="translate(-59.483 -59.555)" fill="#ffd22b"/>
        <path id="Path_878928" data-name="Path 878928" d="M280.827,485.741q.005-13.317.01-26.633l.415-.115c.347,1.581,1.45,2.743,2.293,4.037,2.169,3.333,4.418,6.614,6.616,9.929,2.315,3.492,4.628,6.986,6.9,10.509a8.036,8.036,0,0,1,1.362,2.264Z" transform="translate(-118.553 -153.216)" fill="#752f23"/>
        <path id="Path_878929" data-name="Path 878929" d="M280.421,365.37l-.415.115-.238-.542c.394-.384.223-.876.224-1.318q.024-11.909.024-23.818c6.282-.272,12.7,4.128,14.942,10.266a15.084,15.084,0,0,1,.664,9.109c-1.337-1.62-2.4-3.433-3.6-5.149-1.324-1.892-2.842-1.892-4.124.04Q284.152,359.716,280.421,365.37Z" transform="translate(-117.722 -59.592)" fill="#f99426"/>
        <path id="Path_878930" data-name="Path 878930" d="M274.885,270.017c0,1.32.011,2.64,0,3.96a2.007,2.007,0,0,1-1.88,2.176,2.049,2.049,0,0,1-2.165-2.048q-.078-4.066,0-8.134a2,2,0,0,1,2.143-2.048,1.962,1.962,0,0,1,1.9,2.133C274.9,267.377,274.885,268.7,274.885,270.017Z" transform="translate(-110.676 0)" fill="#f99426"/>
        <path id="Path_878931" data-name="Path 878931" d="M135.919,399.88c-1.248,0-2.5.021-3.744,0a2.086,2.086,0,0,1-2.285-2.031,2.009,2.009,0,0,1,2.26-2.007q3.851-.019,7.7,0a2.032,2.032,0,0,1,2.247,1.925,2.1,2.1,0,0,1-2.222,2.109C138.558,399.907,137.238,399.88,135.919,399.88Z" transform="translate(0 -103.603)" fill="#f99426"/>
        <path id="Path_878932" data-name="Path 878932" d="M351.466,296.207a2.033,2.033,0,0,1,1.809,1.132,1.785,1.785,0,0,1-.191,2.11c-1.981,2.054-3.983,4.089-6.053,6.052a1.861,1.861,0,0,1-2.7-.174,1.888,1.888,0,0,1-.042-2.708c1.93-2,3.92-3.95,5.9-5.9A1.942,1.942,0,0,1,351.466,296.207Z" transform="translate(-167.965 -25.357)" fill="#f99426"/>
        <path id="Path_878933" data-name="Path 878933" d="M171.822,298.126a1.854,1.854,0,0,1,1.213-1.737,1.724,1.724,0,0,1,2,.3c2.022,1.967,4.026,3.956,5.981,5.991a1.88,1.88,0,0,1-.067,2.626,1.837,1.837,0,0,1-2.61.243c-2.167-1.916-4.171-4.006-6.153-6.113A1.679,1.679,0,0,1,171.822,298.126Z" transform="translate(-32.933 -25.35)" fill="#f99426"/>
        <path id="Path_878934" data-name="Path 878934" d="M380.04,395.8c1.32,0,2.641-.019,3.961.006a2.033,2.033,0,0,1,2.109,1.972,2.066,2.066,0,0,1-1.951,2.051q-4.12.094-8.242,0a2.065,2.065,0,0,1-1.949-2.053,2.034,2.034,0,0,1,2.111-1.97C377.4,395.781,378.719,395.8,380.04,395.8Z" transform="translate(-191.709 -103.575)" fill="#f99426"/>
      </g>
    </g>
  </g>
</svg>
