<svg xmlns="http://www.w3.org/2000/svg" xmlns:xlink="http://www.w3.org/1999/xlink" width="144.33" height="144.33" viewBox="0 0 144.33 144.33">
  <defs>
    <clipPath id="clip-path">
      <rect id="Rectangle_400938" data-name="Rectangle 400938" width="144.33" height="144.33" fill="none"/>
    </clipPath>
    <clipPath id="clip-path-2">
      <rect id="Rectangle_401492" data-name="Rectangle 401492" width="77.595" height="77.596" transform="translate(-0.096 0.17)" fill="#066454" stroke="#707070" stroke-width="1"/>
    </clipPath>
  </defs>
  <g id="Group_1108707" data-name="Group 1108707" transform="translate(23057.381 3814.179)">
    <path id="Path_874343" data-name="Path 874343" d="M63.142,0A63.141,63.141,0,1,1,0,63.141,63.236,63.236,0,0,1,63.142,0Z" transform="translate(-23048.781 -3805.68)" fill="#115e01"/>
    <ellipse id="Ellipse_11531" data-name="Ellipse 11531" cx="54.429" cy="54.429" rx="54.429" ry="54.429" transform="translate(-23040.068 -3796.969)" fill="#f2ffd9"/>
    <g id="Mask_Group_1098697" data-name="Mask Group 1098697" transform="translate(-23024.424 -3780.45)" clip-path="url(#clip-path-2)">
      <g id="Group_1108711" data-name="Group 1108711" transform="translate(-1074.555 3.072)">
        <path id="Path_891591" data-name="Path 891591" d="M1234.152,70.075l2.667-2.823,1.588,1.459-2.574,2.85,2.046,2.484,3.259-1.873,1.11,1.818-3.2,2,1.249,2.677,3.285-.9.614,2.046-3.118.98.62,3.3h3.119v2.18a24.805,24.805,0,0,0-2.486.028,1.334,1.334,0,0,0-.909.59c-.434.81-.749,1.684-1.174,2.681l2.133,2.524-1.619,1.405c-.631-.71-1.262-1.373-1.836-2.082-.367-.454-.723-.687-1.269-.322a.988.988,0,0,1-.217.083c-2.226.8-2.224.8-2.319,3.219-.014.341-.057.681-.1,1.125l-2.106-.186c.045-.98.055-1.9.14-2.808.06-.634-.168-.883-.749-1.2a2.406,2.406,0,0,0-3.388.678,8.966,8.966,0,0,1-1.263,1.025l-1.376-1.623,2.564-2.238-1.333-3.39-3.577.478c-.11-.713-.208-1.346-.323-2.1l3.662-.638c-.287-1.483-1.655-2.243-5.614-3.188l-1.3,2.8-1.864-.807a2.009,2.009,0,0,1,.019-.346c.324-1.059,1.057-2.2.867-3.153s-1.3-1.751-2.121-2.764l-3.777.689-.458-2.1c1.09-.221,2.1-.481,3.13-.619.937-.126.846-.789.944-1.429s.031-1.072-.692-1.339c-1.047-.386-2.043-.912-3.163-1.424l.869-1.961,3.761,1.627,1.54-1.9-1.849-3.451,1.868-1.089c.5.9,1.026,1.718,1.425,2.591a1.057,1.057,0,0,0,1.44.7c.552-.157,1.132-.216,1.823-.342V62.76h2.094v3.5l2.93.878,1.66-3.243,1.941.9-1.541,3.29Zm5.243,14.359c-.363-6.831-5.726-13.709-12.292-15.608a11.249,11.249,0,0,0-3.89-.394,4.066,4.066,0,0,0-3.729,3.182,5.083,5.083,0,0,0,2.8,6.4,36.265,36.265,0,0,0,3.905,1.489,4.826,4.826,0,0,1,3.538,4.788,7.916,7.916,0,0,0,.188,1.379c.593,2.835,2.585,4.168,5.581,3.746C1238.192,89.041,1239.548,87.307,1239.4,84.434Z" transform="translate(-104.722 -48.819)" fill="#066454"/>
        <path id="Path_891592" data-name="Path 891592" d="M1126.73,101.92l1.7-1.3a33.554,33.554,0,0,0,26.375,9.191,35.985,35.985,0,0,0,22.912-10.739c11.743-11.621,14.017-33.766.24-48.329l1.548-1.477c7.816,8.426,11.1,18.38,9.78,29.554-1.869,15.851-10.623,26.608-25.818,31.565C1149.937,114.8,1135.323,110.638,1126.73,101.92Z" transform="translate(-38.55 -38.474)" fill="#066454"/>
        <path id="Path_891593" data-name="Path 891593" d="M1139.308,9.308l-1.593,1.371C1130.391,3.971,1121.723.662,1111.7,1.4a35.67,35.67,0,0,0-23.679,11.152c-11.947,12.331-13.082,33.726.115,47.921l-1.581,1.541c-8.674-9.6-11.816-20.771-9.215-33.186,3.118-14.887,12.387-24.522,27.1-28.485C1117.507-3.179,1131.316,1.08,1139.308,9.308Z" transform="translate(0 0)" fill="#066454"/>
        <path id="Path_891594" data-name="Path 891594" d="M1187.241,74.14l-1.506-1.4a29.061,29.061,0,0,0,7.915-23.761,30.913,30.913,0,0,0-9.571-19.186c-9.995-9.708-28.473-11.6-41.217.086l-1.448-1.545c7.291-6.705,15.834-9.819,25.532-8.467,13.949,1.946,23.7,9.569,27.865,23.252A31.589,31.589,0,0,1,1187.241,74.14Z" transform="translate(-49.811 -15.686)" fill="#066454"/>
        <path id="Path_891595" data-name="Path 891595" d="M1105.62,63.93l1.616,1.5c-6.459,7.109-9.139,15.4-7.769,24.828a30.892,30.892,0,0,0,9.7,18.381c9.941,9.407,28.245,11.319,40.936-.334l1.467,1.589c-8.917,7.876-19.072,10.648-30.438,7.46-12.09-3.39-20.269-11.184-23.276-23.533C1095.142,82.664,1097.968,72.67,1105.62,63.93Z" transform="translate(-15.637 -49.716)" fill="#066454"/>
        <path id="Path_891596" data-name="Path 891596" d="M1258.234,225.5a3.719,3.719,0,0,1-3.209,3.837c-2.941.516-5.892.988-8.85,1.391a4.015,4.015,0,0,1-1.145-7.947c2.832-.469,5.669-.917,8.514-1.3A3.886,3.886,0,0,1,1258.234,225.5Zm-12.412,3.056c.766-.118,1.648-.256,2.53-.389,2.034-.307,4.072-.587,6.1-.928a1.823,1.823,0,0,0,1.627-2.05,1.8,1.8,0,0,0-2-1.558q-4.437.629-8.857,1.37a1.778,1.778,0,0,0-1.409,1.991A1.917,1.917,0,0,0,1245.822,228.558Z" transform="translate(-126.643 -170.501)" fill="#066454"/>
        <path id="Path_891597" data-name="Path 891597" d="M1137.054,135.078a6.024,6.024,0,0,1,6.212,6.152,6.141,6.141,0,0,1-6.293,6.248,6.313,6.313,0,0,1-6.091-6.27A6.181,6.181,0,0,1,1137.054,135.078Zm.043,10.133a3.91,3.91,0,0,0,4-3.959,4,4,0,0,0-3.867-4.007,3.877,3.877,0,0,0-4.065,3.995A3.8,3.8,0,0,0,1137.1,145.21Z" transform="translate(-41.734 -104.275)" fill="#066454"/>
        <path id="Path_891598" data-name="Path 891598" d="M1167.583,221.985a4.774,4.774,0,0,1-4.785-4.814,4.767,4.767,0,0,1,9.532-.04A4.783,4.783,0,0,1,1167.583,221.985Zm-2.53-4.717a2.459,2.459,0,0,0,2.516,2.49,2.488,2.488,0,0,0,2.522-2.5,2.458,2.458,0,0,0-2.591-2.537A2.421,2.421,0,0,0,1165.053,217.268Z" transform="translate(-66.209 -163.62)" fill="#066454"/>
        <path id="Path_891599" data-name="Path 891599" d="M1167.324,70.043a4.765,4.765,0,1,1-9.53.061,4.765,4.765,0,0,1,9.53-.061Zm-4.771-2.431a2.4,2.4,0,0,0-2.505,2.475,2.465,2.465,0,0,0,2.459,2.549,2.506,2.506,0,0,0,2.579-2.563A2.416,2.416,0,0,0,1162.553,67.611Z" transform="translate(-62.371 -50.802)" fill="#066454"/>
        <path id="Path_891600" data-name="Path 891600" d="M1207.08,176.62l-2.008-.772c.315-1.325.655-2.62.927-3.929a2.608,2.608,0,0,0-1.52-3.278,19.316,19.316,0,0,0-2.332-1.048c-3.815-1.445-3.392-5.34-1.407-7.262.44-.426.928-.8,1.509-1.3l1.047,1.858a14.1,14.1,0,0,0-1.382,1.5,1.892,1.892,0,0,0,.831,3.056c.665.315,1.364.558,2.037.859,2.75,1.232,3.833,3.048,3.4,6.034A40.725,40.725,0,0,1,1207.08,176.62Z" transform="translate(-94.162 -122.642)" fill="#066454"/>
        <path id="Path_891601" data-name="Path 891601" d="M1254.1,102.721v-1.928h2.029C1256.608,102.9,1256.145,103.354,1254.1,102.721Z" transform="translate(-136.224 -77.984)" fill="#066454"/>
        <path id="Path_891602" data-name="Path 891602" d="M1274.893,110.9v-2.1h2.052v2.1Z" transform="translate(-152.167 -84.123)" fill="#066454"/>
      </g>
    </g>
  </g>
</svg>
