<svg xmlns="http://www.w3.org/2000/svg" xmlns:xlink="http://www.w3.org/1999/xlink" width="129" height="128" viewBox="0 0 129 128">
  <defs>
    <clipPath id="clip-path">
      <rect id="Rectangle_400938" data-name="Rectangle 400938" width="120" height="120" fill="none"/>
    </clipPath>
  </defs>
  <g id="Group_1111721" data-name="Group 1111721" transform="translate(-387.711 -5559.215)">
    <g id="Grupo_108927" data-name="Grupo 108927" transform="translate(-2.289 1092.215)">
      <path id="Rectángulo_36179" data-name="Rectángulo 36179" d="M0,0H129V128H0Z" transform="translate(390 4467)" fill="#c5ffee"/>
    </g>
    <g id="Group_1103250" data-name="Group 1103250" transform="translate(502.012 5681.028) rotate(180)">
      <path id="Path_874029" data-name="Path 874029" d="M611.629,544.4l-50.15-28.952V457.536l50.15-28.954,50.15,28.954v57.908Zm-47.884-30.26,47.884,27.645,47.884-27.645V458.844L611.629,431.2l-47.884,27.647Z" transform="translate(-561.479 -428.582)" fill="#00e489"/>
      <path id="Path_874030" data-name="Path 874030" d="M574.457,470.02v52.906l45.818,26.453,45.818-26.453V470.02l-45.818-26.453Z" transform="translate(-570.125 -438.567)" fill="#f2ffd9"/>
    </g>
    <g id="Group_1103253" data-name="Group 1103253" transform="translate(421.871 5592.438)">
      <rect id="Rectangle_401104" data-name="Rectangle 401104" width="62" height="63" transform="translate(-0.16 -0.223)" fill="none"/>
      <g id="Group_1103274" data-name="Group 1103274" transform="translate(-165.411 -278.366)">
        <path id="Path_879150" data-name="Path 879150" d="M158.21,391.14a5.318,5.318,0,0,1,4.059,1.353,4.677,4.677,0,0,0,5.549.009c2.794-1.926,4.138-1.93,6.83-.019a4.824,4.824,0,0,0,5.657-.011c2.642-1.878,4.067-1.884,6.733-.028a4.839,4.839,0,0,0,5.855-.065c2.487-1.769,4.072-1.763,6.544.022a4.834,4.834,0,0,0,5.847.016c2.547-1.824,4.032-1.82,6.635.016a4.829,4.829,0,0,0,5.755.016c2.687-1.861,4.047-1.86,6.735.012a3.088,3.088,0,0,0,1.56.736c1.065.038,1.283.54,1.281,1.538q-.051,19.452,0,38.9c0,1.046-.244,1.35-1.328,1.349q-33.2-.05-66.393,0c-1.053,0-1.348-.254-1.346-1.331q.057-20.734.025-41.468Zm46.51,32.894c.554-.026.942-.059,1.329-.059a1.725,1.725,0,0,0,1.957-1.788,8.766,8.766,0,0,0-.481-4.234c-.278-.685-.094-.955.48-1.266a10.177,10.177,0,0,0,2.919-2.287c.471-.548.777-.418,1.209.007a29.249,29.249,0,0,0,2.233,2.043,4.165,4.165,0,0,0,5.357-.1,3.89,3.89,0,0,0,.682-5.154.923.923,0,0,1,.043-1.206,3.6,3.6,0,0,0,.589-2.77,4.133,4.133,0,0,0-6.643-2.452,22.446,22.446,0,0,0-2.318,2.121c-.478.5-.755.432-1.177-.052a9.857,9.857,0,0,0-2.912-2.294c-.608-.315-.7-.627-.449-1.283a8.209,8.209,0,0,0,.341-4.808,1.223,1.223,0,0,0-1.05-1.056,8.406,8.406,0,0,0-9.482,4.431,2.363,2.363,0,0,1-1.483,1.3,16.379,16.379,0,0,0-8.507,6.558,1.288,1.288,0,0,0-.138,1.683,16.8,16.8,0,0,0,8.654,6.743,2.238,2.238,0,0,1,1.433,1.2A8.11,8.11,0,0,0,204.72,424.034Zm-27.327-10.559a4.245,4.245,0,0,0,4.294-4.157,4.175,4.175,0,0,0-4.181-4.24,4.235,4.235,0,0,0-4.314,4.129A4.281,4.281,0,0,0,177.393,413.475Zm-3.161-11.129a3.076,3.076,0,0,0,3.08-2.992,3.132,3.132,0,0,0-3.015-3.071,3.081,3.081,0,0,0-3.115,3.068A3.019,3.019,0,0,0,174.232,402.346Z" transform="translate(0 -93.587)" fill="#0069b2"/>
        <path id="Path_879151" data-name="Path 879151" d="M289.555,297.305c-.417.209-.723-.064-1.05-.127a6.466,6.466,0,0,0-5.388,1.179c-1.806,1.368-2.832,1.345-4.615.036a6.3,6.3,0,0,0-7.859-.007,6.515,6.515,0,0,1-1.178.736c-1.194.517-1.614.223-1.494-1.034a2.194,2.194,0,0,0-1.1-2.264c-.5-.3-1.012-.572-1.517-.858-.523-.3-.638-.642-.37-1.245,1.016-2.283.723-3.068-1.483-4.312-.067-.038-.128-.1-.2-.118-2.379-.447-2.66-2.3-2.838-4.224-.107-1.162.75-1.906,1.263-2.787.2-.344.6-.069.828.084a8.462,8.462,0,0,0,7.193,1.117,28.986,28.986,0,0,1,3.918-.515c1.681-.2,2.08-1.625,2.586-2.837.409-.98-.3-1.679-1.061-2.231-.674-.492-1.06-1.077-.517-1.871a4.845,4.845,0,0,0,.385-5.323,9.812,9.812,0,0,1,2.854.381c.36.049.392.344.372.62-.1,1.419.553,2.714.642,4.122a3.679,3.679,0,0,0,2.208,2.951c.309.161.686.347,1,.164,1.3-.751,2.894-.713,4.118-1.762,1.839-1.575,2.017-1.5,3.887.079a4.905,4.905,0,0,1,1.1,1.028c.655,1.073,2.732,1.383,1.713,3.39-.623,1.228-.836,2.655-2.229,3.4a5.523,5.523,0,0,0-1.991,2.084,5.915,5.915,0,0,1-2.013,2.056,2.79,2.79,0,0,0-.856,4.437,8.535,8.535,0,0,0,2.23,1.844A2.689,2.689,0,0,1,289.555,297.305Z" transform="translate(-78.429 -1.274)" fill="#0e4972"/>
        <path id="Path_879152" data-name="Path 879152" d="M241.9,297.146a6.6,6.6,0,0,0-5.161-1.285,5.968,5.968,0,0,0-2.639,1.132,4.591,4.591,0,0,1-1.265.809c-1.751.539-2.65.314-2.955-1.118a2.319,2.319,0,0,0-.195-.421c-1.421-3.186-1.156-4.465,1.421-7.008a2.294,2.294,0,0,0,.688-2.431c-.436-1.486-.78-3-1.264-4.471a2.387,2.387,0,0,1,.28-2.3c.111-.157.168-.356.289-.5a3.867,3.867,0,0,0,.453-4.613c-.427-.807-.075-1.217.63-1.636a28.544,28.544,0,0,1,15.037-4.183c.591,0,1.429-.414,1.76.4.424,1.044,1.134,2.093.478,3.311q-.3.563-.589,1.136a2.891,2.891,0,0,0,.673,3.782c.277.257.912.371.636.938-.258.53-.422,1.2-1.191,1.3-2.266.3-4.528.636-6.8.916a1.83,1.83,0,0,1-.863-.285c-.914-.423-1.821-.863-2.728-1.3a1.945,1.945,0,0,0-1.788-.017c-.957.466-2.483,3.252-2.338,4.327a30.985,30.985,0,0,1,.46,3.1,2.053,2.053,0,0,0,1.557,2.024,26.7,26.7,0,0,1,2.39,1.2c.673.346.8.785.443,1.509-.987,2-.669,2.807,1.285,3.972C241.189,295.771,242.23,295.837,241.9,297.146Z" transform="translate(-54.174)" fill="#0069b2"/>
        <path id="Path_879153" data-name="Path 879153" d="M193.684,316.441a6.888,6.888,0,0,0-6.85,1.458,2,2,0,0,1-.615.323c-1.356.52-1.859.181-1.775-1.234a28.67,28.67,0,0,1,10.019-20.637c.37-.325.958-1.1,1.234-.718a2.128,2.128,0,0,1,.46,2.259c-.432.823-.87,1.645-1.356,2.436a2.234,2.234,0,0,0-.226,1.985c.5,1.588.9,3.2,1.367,4.8a1.338,1.338,0,0,1-.423,1.522,12.193,12.193,0,0,0-2.641,4.455C192.477,314.169,193.093,315.2,193.684,316.441Z" transform="translate(-20.13 -20.335)" fill="#0e4972"/>
        <path id="Path_879154" data-name="Path 879154" d="M387.11,334.707c.1.63-.187.8-.784.824a6.343,6.343,0,0,0-3.671,1.288c-.839.633-3.085.132-3.736-.979a13.569,13.569,0,0,0-4.155-4.29c-1.162-.809-1-1.739.206-2.525.1-.064.227-.107.287-.2,1.81-2.694,5.146-4.143,6.137-7.508.049-.167.187-.41.315-.432.339-.057.4.3.543.512a28.273,28.273,0,0,1,4.576,11.467C386.928,333.48,387.017,334.094,387.11,334.707Z" transform="translate(-165.476 -39.777)" fill="#0069b2"/>
        <path id="Path_879155" data-name="Path 879155" d="M350.9,278.334c-1.186,1.445-2.912,1.862-4.521,2.387-.765.25-1.264-.685-1.314-1.312a23.508,23.508,0,0,0-.673-3.287c-.14-.623.1-.789.676-.584A27.159,27.159,0,0,1,350.9,278.334Z" transform="translate(-142.765 -4.94)" fill="#0069b2"/>
        <path id="Path_879156" data-name="Path 879156" d="M299.375,444.152a8.11,8.11,0,0,1-7.411-4.719,2.238,2.238,0,0,0-1.433-1.2,16.8,16.8,0,0,1-8.654-6.743,1.288,1.288,0,0,1,.138-1.683,16.379,16.379,0,0,1,8.507-6.558,2.363,2.363,0,0,0,1.483-1.3,8.406,8.406,0,0,1,9.482-4.431,1.223,1.223,0,0,1,1.05,1.056,8.21,8.21,0,0,1-.341,4.808c-.254.656-.159.969.449,1.283a9.858,9.858,0,0,1,2.912,2.294c.422.485.7.55,1.177.052a22.46,22.46,0,0,1,2.318-2.122,4.133,4.133,0,0,1,6.643,2.452,3.6,3.6,0,0,1-.589,2.77.923.923,0,0,0-.043,1.206,3.89,3.89,0,0,1-.682,5.154,4.165,4.165,0,0,1-5.357.1,29.236,29.236,0,0,1-2.233-2.043c-.432-.424-.738-.555-1.209-.007a10.18,10.18,0,0,1-2.919,2.287c-.574.31-.758.581-.48,1.266a8.766,8.766,0,0,1,.481,4.234,1.725,1.725,0,0,1-1.957,1.788C300.317,444.093,299.929,444.127,299.375,444.152Zm-4.6-7c4.364-.234,8.187-1.532,10.741-5.406a1.643,1.643,0,0,0,.014-2c-2.838-4.775-10.239-6.594-15.066-4.686-.469.186-.516.388-.255.851a9.279,9.279,0,0,1,.015,9.619c-.3.534-.194.711.325.9A11.692,11.692,0,0,0,294.777,437.153Zm19.2-9.1A2.115,2.115,0,0,0,312.741,426a2.252,2.252,0,0,0-2.617.263c-.808.664-1.524,1.441-2.332,2.106-.541.445-.7.858-.272,1.456a1.61,1.61,0,0,1-.059,1.954.773.773,0,0,0,.174,1.188c.779.639,1.477,1.374,2.237,2.038a2.457,2.457,0,0,0,3.545-.035c.869-.95.778-2.2-.35-3.279-.741-.711-.733-1.277.031-1.925A2.038,2.038,0,0,0,313.975,428.049ZM289.827,430.8a8.112,8.112,0,0,0-1.05-3.937c-.3-.519-.55-.732-1.137-.3a18.588,18.588,0,0,0-3.736,3.614.784.784,0,0,0-.01,1.123,18.673,18.673,0,0,0,3.728,3.624c.577.422.851.206,1.16-.316A7.9,7.9,0,0,0,289.827,430.8Zm3.891-8.152c.885,0,1.617-.043,2.342.012s1.45.264,2.18.3,1.484.906,2.116.2a3.566,3.566,0,0,0,.571-2.33c.008-.348-.015-.7-.014-1.046,0-.415-.181-.587-.611-.667A6.411,6.411,0,0,0,293.718,422.645Zm-.035,16.327a6.724,6.724,0,0,0,6.267,3.459c.411-.01.9.037.946-.592a7.034,7.034,0,0,0-.406-3.317c-.169-.4-.369-.548-.789-.413A20.1,20.1,0,0,1,293.682,438.972Z" transform="translate(-94.655 -113.705)" fill="#f4f4f5"/>
        <path id="Path_879157" data-name="Path 879157" d="M226.749,459.6a4.281,4.281,0,0,1-4.2-4.268,4.235,4.235,0,0,1,4.314-4.129,4.175,4.175,0,0,1,4.181,4.24A4.245,4.245,0,0,1,226.749,459.6Zm.091-1.756a2.433,2.433,0,0,0,2.426-2.558,2.5,2.5,0,0,0-2.5-2.385,2.462,2.462,0,0,0-2.405,2.582A2.379,2.379,0,0,0,226.84,457.846Z" transform="translate(-49.356 -139.713)" fill="#f4f4f5"/>
        <path id="Path_879158" data-name="Path 879158" d="M216.976,419.543a3.019,3.019,0,0,1-3.051-2.995,3.081,3.081,0,0,1,3.115-3.068,3.132,3.132,0,0,1,3.015,3.071A3.076,3.076,0,0,1,216.976,419.543Zm1.266-3.131a1.155,1.155,0,0,0-1.264-1.145,1.268,1.268,0,1,0-.007,2.535C217.78,417.794,218.222,417.308,218.241,416.412Z" transform="translate(-42.744 -110.784)" fill="#f4f4f5"/>
        <path id="Path_879159" data-name="Path 879159" d="M322.52,460.267a11.692,11.692,0,0,1-4.225-.724c-.519-.186-.623-.363-.325-.9a9.279,9.279,0,0,0-.015-9.619c-.261-.463-.214-.665.255-.851,4.826-1.908,12.228-.089,15.066,4.686a1.643,1.643,0,0,1-.014,2C330.707,458.735,326.884,460.033,322.52,460.267Z" transform="translate(-122.397 -136.818)" fill="#0e4972"/>
        <path id="Path_879160" data-name="Path 879160" d="M398.3,455.724a2.038,2.038,0,0,1-.878,1.719c-.763.648-.772,1.215-.031,1.925,1.128,1.082,1.22,2.329.35,3.279a2.457,2.457,0,0,1-3.545.035c-.76-.664-1.458-1.4-2.237-2.038a.773.773,0,0,1-.174-1.187,1.61,1.61,0,0,0,.059-1.954c-.426-.6-.27-1.011.272-1.456.808-.665,1.524-1.441,2.332-2.106a2.252,2.252,0,0,1,2.617-.263A2.115,2.115,0,0,1,398.3,455.724Z" transform="translate(-178.982 -141.379)" fill="#0e4972"/>
        <path id="Path_879161" data-name="Path 879161" d="M296.543,460.525a7.9,7.9,0,0,1-1.044,3.8c-.31.523-.583.739-1.16.316a18.672,18.672,0,0,1-3.728-3.624.783.783,0,0,1,.01-1.123,18.587,18.587,0,0,1,3.736-3.614c.588-.427.834-.214,1.137.3A8.111,8.111,0,0,1,296.543,460.525Zm-2.6.191c.524-.111.871-.378.823-.949a.777.777,0,0,0-.843-.779.792.792,0,0,0-.8.929C293.139,460.452,293.506,460.624,293.941,460.716Z" transform="translate(-101.371 -143.433)" fill="#0e4972"/>
        <path id="Path_879162" data-name="Path 879162" d="M333.508,428.378a6.412,6.412,0,0,1,6.584-3.529c.429.08.611.253.611.668,0,.349.022.7.014,1.046a3.567,3.567,0,0,1-.571,2.33c-.632.7-1.391-.166-2.116-.2s-1.449-.245-2.18-.3S334.393,428.378,333.508,428.378Z" transform="translate(-134.445 -119.437)" fill="#0e4972"/>
        <path id="Path_879163" data-name="Path 879163" d="M333.356,507.289a20.1,20.1,0,0,0,6.019-.863c.42-.135.619.009.789.413a7.034,7.034,0,0,1,.406,3.317c-.046.629-.535.583-.946.592A6.724,6.724,0,0,1,333.356,507.289Z" transform="translate(-134.329 -182.021)" fill="#0e4972"/>
        <path id="Path_879164" data-name="Path 879164" d="M232.784,463.427a2.379,2.379,0,0,1-2.483-2.361,2.462,2.462,0,0,1,2.405-2.582,2.5,2.5,0,0,1,2.5,2.385A2.433,2.433,0,0,1,232.784,463.427Z" transform="translate(-55.301 -145.294)" fill="#0e4972"/>
        <path id="Path_879165" data-name="Path 879165" d="M224.077,422.291c-.02.9-.461,1.382-1.271,1.391a1.268,1.268,0,1,1,.007-2.535A1.155,1.155,0,0,1,224.077,422.291Z" transform="translate(-48.579 -116.663)" fill="#0e4972"/>
        <path id="Path_879166" data-name="Path 879166" d="M302.945,470.36c-.435-.092-.8-.264-.824-.8a.792.792,0,0,1,.8-.929.777.777,0,0,1,.843.779C303.816,469.982,303.469,470.249,302.945,470.36Z" transform="translate(-110.375 -153.077)" fill="#f4f4f5"/>
      </g>
    </g>
  </g>
</svg>
