<svg xmlns="http://www.w3.org/2000/svg" width="129" height="128" viewBox="0 0 129 128">
  <g id="Group_1111724" data-name="Group 1111724" transform="translate(-4062 5284.486)">
    <g id="Grupo_108927" data-name="Grupo 108927" transform="translate(3672 -9751.486)">
      <path id="Rectángulo_36179" data-name="Rectángulo 36179" d="M0,0H129V128H0Z" transform="translate(390 4467)" fill="#c5ffee"/>
    </g>
    <g id="Group_1103481" data-name="Group 1103481" transform="translate(4176.3 -5162.187) rotate(180)">
      <path id="Path_874029" data-name="Path 874029" d="M611.629,544.4l-50.15-28.952V457.536l50.15-28.954,50.15,28.954v57.908Zm-47.884-30.26,47.884,27.645,47.884-27.645V458.844L611.629,431.2l-47.884,27.647Z" transform="translate(-561.479 -428.582)" fill="#00e489"/>
      <path id="Path_874030" data-name="Path 874030" d="M574.457,470.02v52.906l45.818,26.453,45.818-26.453V470.02l-45.818-26.453Z" transform="translate(-570.125 -438.567)" fill="#f2ffd9"/>
    </g>
    <g id="Group_1103487" data-name="Group 1103487" transform="translate(4095.16 -5251.777)">
      <rect id="Rectangle_401104" data-name="Rectangle 401104" width="62" height="63" transform="translate(-0.16 -0.223)" fill="none"/>
      <g id="Group_1103492" data-name="Group 1103492" transform="translate(-5563.308 75.084)">
        <path id="Path_879470" data-name="Path 879470" d="M5616.093-61.559c.765.17.89.71.887,1.4-.017,4.52.01,9.041-.026,13.56-.006.773.117,1.093.987,1.027a4.058,4.058,0,0,1,4.1,2.555V-40.6a4.079,4.079,0,0,1-4.354,2.592c-.678-.06-.727.25-.726.8q.021,10.544.009,21.088c0,1.927-.354,2.285-2.259,2.285h-46.361c-1.782,0-2.191-.406-2.194-2.18,0-.774-.026-1.549.009-2.322a1.955,1.955,0,0,1,1.489-2c.529-.136.591-.414.579-.862a2.921,2.921,0,0,1,.282-1.711,2,2,0,0,1,1.858-1c1.951.016,3.9-.019,5.853.018.619.012.924-.108.839-.8-.09-.731.316-1.739-.162-2.134-.45-.372-1.417-.127-2.158-.139a3.747,3.747,0,0,1-3.912-2.879,3.718,3.718,0,0,1,2.121-4.2.655.655,0,0,0,.421-.7c-.024-.841.171-1.7-.632-2.379a1.662,1.662,0,0,1-.345-1.308q.018-3.344,0-6.689c0-.478,0-1.022.34-1.309.776-.647.6-1.477.641-2.291a.788.788,0,0,0-.516-.849,3.681,3.681,0,0,1-2.027-4.164,3.749,3.749,0,0,1,3.732-2.883c.8-.026,1.849.348,2.323-.149.508-.533.154-1.588.158-2.413.016-4.056.006-8.113.008-12.17,0-1.477.469-1.952,1.933-1.952q18.024,0,36.048,0c1.435,0,1.922.468,1.929,1.868.009,2.106-.007,4.211.008,6.317,0,.661-.167,1.159-.881,1.32-.713-.151-.906-.644-.9-1.305.012-1.857-.029-3.716.021-5.572.02-.722-.17-.931-.914-.927-5.542.033-11.083.017-16.625.018q-9.01,0-18.019.008c-.424,0-.854-.115-.851.6q.036,6.872,0,13.745c0,.506.19.627.655.615.866-.023,1.736-.032,2.6.026a3.653,3.653,0,0,1,3.272,2.72,3.408,3.408,0,0,1-1.494,3.959,1.809,1.809,0,0,0-1.023,2.066,1.262,1.262,0,0,0,.406,1.061,1.145,1.145,0,0,1,.513.951c-.172,1.228.542,1.253,1.425,1.181.584-.047,1.176,0,1.764-.013.212,0,.545.023.616-.092.688-1.111,1.782-.806,2.77-.823.638-.011,1.428-.248,1.87.272.66.777,1.452.643,2.261.646,1.053,0,2.106,0,3.158,0,.7,0,1.4.1,1.9-.613a1.126,1.126,0,0,1,.94-.315c1.548,0,3.1.005,4.644,0,.622,0,1,.243,1.039.9-.012.768-.548.888-1.143.9-1.236.017-2.473.041-3.708.006-.58-.016-.754.19-.729.747a22.754,22.754,0,0,1,0,2.5c-.044.687.253.818.866.816,5.533-.018,11.065-.005,16.6-.014,1.463,0,2.356-.793,2.367-2.035.011-1.259-.85-2.012-2.34-2.016-2.72-.007-5.44-.012-8.16,0-.689,0-1.225-.153-1.4-.9a1.043,1.043,0,0,1,1.2-.9c1.548.01,3.1-.041,4.645.022.753.031.908-.215.9-.924-.032-4.521-.011-9.043-.022-13.565C5615.191-60.764,5615.286-61.363,5616.093-61.559ZM5574.5-19.622c-.073.692-.512.939-1.149.943-1.083.006-2.167.015-3.25.017-2.141,0-2.108,0-2.147,2.132-.014.765.193.993.976.989,5.7-.029,11.392-.008,17.088,0,2.261,0,2.228,0,2.247-2.22.006-.759-.251-.935-.964-.928-3.064.034-6.129,0-9.194.024-.726.006-1.2-.206-1.322-.97.176-.72.7-.849,1.348-.846,2.384.012,4.768-.006,7.152.012.587,0,.979-.006.968-.807-.011-.762-.27-.928-.979-.923-3.994.03-7.988.015-11.982.016-.836,0-1.674.047-2.507,0-.714-.042-.8.313-.805.9s.132.839.769.8c.833-.047,1.671.008,2.506,0A1.09,1.09,0,0,1,5574.5-19.622Zm28.1,4.062c3.9,0,7.8-.022,11.7.019.76.008.906-.233.9-.936q-.037-10.31,0-20.621c0-.7-.134-.932-.891-.925-4.3.041-8.608.018-12.913.021-.895,0-1.828.135-2.412-.8a.377.377,0,0,0-.419-.122c-2.205.353-4.6-.835-6.646.814-1.474-.051-3.08.743-4.336-.684-.169-.192-.4-.132-.608-.133-.867-.006-1.734.012-2.6-.009-.4-.01-.656.054-.6.545a2.133,2.133,0,0,1-.683,1.746,2.084,2.084,0,0,0,.442,2.731,3.72,3.72,0,0,1,.188,6.393,4.712,4.712,0,0,1-2.679.562c-2.282-.005-2.262,0-2.248,2.276,0,.6.159.792.781.78,2.074-.038,4.149-.017,6.224,0a2.043,2.043,0,0,1,2.2,2.107,3.533,3.533,0,0,1,0,.557c-.047.48.042.763.613.92a1.9,1.9,0,0,1,1.413,1.954,16.124,16.124,0,0,1-.008,1.949c-.068.7.174.88.871.874C5594.8-15.579,5598.7-15.56,5602.6-15.56ZM5578-37.877v.013c1.053,0,2.106-.029,3.157.011.671.025.935-.186.921-.9-.04-2.012-.033-4.024,0-6.036.009-.624-.15-.884-.827-.871q-3.157.061-6.315.012c-.641-.01-.792.24-.786.816.021,2.043.03,4.087,0,6.129-.011.678.265.853.884.831C5576.022-37.9,5577.014-37.877,5578-37.877Zm.09-13.09v.018c1.174,0,2.348.019,3.521-.005a2.025,2.025,0,0,0,2.125-1.976,2.032,2.032,0,0,0-2.16-1.954q-3.475-.02-6.95.012a1.986,1.986,0,0,0-2.116,1.979,1.945,1.945,0,0,0,2.059,1.922C5575.747-50.948,5576.92-50.967,5578.094-50.967Zm0,22.255v.011c1.174,0,2.347.015,3.52,0a2.022,2.022,0,0,0,2.126-1.975,2,2,0,0,0-2.154-1.932q-3.474-.011-6.948.011a1.89,1.89,0,0,0-2.094,1.949,1.916,1.916,0,0,0,2.123,1.938C5575.81-28.7,5576.952-28.713,5578.094-28.713Zm17.817-14.137c-.739,0-1.481.038-2.217-.011-.647-.043-.91.184-.826.833a4.666,4.666,0,0,1,.017.83c-.018.385.132.559.534.556,1.632-.011,3.264-.005,4.9-.007a.419.419,0,0,0,.479-.321c.39-1.27-.027-1.88-1.312-1.881Zm-17.865-4.629v.02c.712,0,1.427-.037,2.136.011.653.044.864-.193.851-.842-.013-.593-.105-.91-.808-.885q-2.134.078-4.271.019c-.648-.017-.761.256-.767.823-.007.612.129.921.818.867S5577.366-47.479,5578.046-47.479Zm-.012,13.018v.021c.774,0,1.55-.03,2.321.009.753.038.639-.461.665-.923.027-.506-.061-.815-.69-.8q-2.135.062-4.271.015c-.61-.014-.877.115-.879.805s.217.937.906.881C5576.731-34.5,5577.385-34.461,5578.035-34.461Zm13.141-7.33c0-.462-.031-.926.007-1.385.065-.794-.5-.642-.919-.6s-1.135-.325-1.1.627a26.748,26.748,0,0,1-.006,2.677c-.04.645.232.763.8.762,1.212,0,1.212.028,1.213-1.158Q5591.176-41.329,5591.175-41.791Zm-5.525-1.059c-1.913,0-1.879,0-1.869,1.364,0,.648.218.887.864.851.74-.042,1.484-.01,2.227-.01.293,0,.511-.025.583-.417.274-1.5.063-1.787-1.433-1.787Z" fill="#c846f9"/>
        <path id="Path_879471" data-name="Path 879471" d="M5671.518-54.108c-.807.2-.9.795-.9,1.5.011,4.522-.01,9.043.021,13.565,0,.709-.15.955-.9.924-1.546-.063-3.1-.012-4.645-.022a1.044,1.044,0,0,0-1.2.9l-2.346,0c-.037-.656-.417-.9-1.038-.9-1.548.009-3.1,0-4.644,0a1.127,1.127,0,0,0-.94.315c-.5.713-1.2.616-1.9.613-1.053,0-2.1,0-3.158,0-.809,0-1.6.131-2.261-.646-.441-.521-1.231-.283-1.87-.272-.988.017-2.082-.288-2.77.823-.071.115-.4.088-.616.092-.588.011-1.18-.034-1.764.013-.883.071-1.6.047-1.425-1.181a1.146,1.146,0,0,0-.513-.951,1.262,1.262,0,0,1-.406-1.061,1.809,1.809,0,0,1,1.023-2.066,3.409,3.409,0,0,0,1.494-3.959,3.655,3.655,0,0,0-3.272-2.72c-.863-.058-1.733-.049-2.6-.026-.465.012-.657-.109-.656-.615q.023-6.873,0-13.745c0-.717.426-.6.851-.6q9.01,0,18.019-.008c5.542,0,11.084.015,16.625-.018.743,0,.934.205.914.927-.05,1.856-.009,3.714-.021,5.572,0,.662.189,1.154.9,1.305Q5671.519-55.23,5671.518-54.108Zm-19.041,11.679a9.015,9.015,0,0,0,9-9.028,9.077,9.077,0,0,0-9.067-8.992,9,9,0,0,0-8.966,9.058A8.93,8.93,0,0,0,5652.477-42.429Z" transform="translate(-55.426 -7.451)" fill="#f4e6ff"/>
        <path id="Path_879472" data-name="Path 879472" d="M5658.011,134.612c-3.9,0-7.8-.018-11.706.017-.7.006-.939-.169-.871-.874a16.124,16.124,0,0,0,.008-1.949,1.9,1.9,0,0,0-1.413-1.954c-.57-.157-.661-.439-.613-.92a3.593,3.593,0,0,0,0-.557,2.043,2.043,0,0,0-2.2-2.107c-2.075-.014-4.15-.034-6.224,0-.623.011-.778-.179-.781-.78-.014-2.276-.035-2.281,2.248-2.276a4.711,4.711,0,0,0,2.679-.562,3.72,3.72,0,0,0-.187-6.393,2.084,2.084,0,0,1-.442-2.731,2.133,2.133,0,0,0,.683-1.746c-.053-.491.2-.555.6-.545.867.021,1.734,0,2.6.009.209,0,.439-.059.608.133,1.256,1.427,2.863.633,4.336.684,2.045-1.65,4.44-.461,6.646-.814a.377.377,0,0,1,.419.122c.584.934,1.518.8,2.412.8,4.3,0,8.609.02,12.913-.021.756-.007.894.228.891.925q-.038,10.31,0,20.621c0,.7-.144.945-.9.937C5665.814,134.59,5661.913,134.612,5658.011,134.612ZM5657,116.621c2.536,0,5.072-.006,7.608,0,.647,0,1.244-.113,1.269-.877.025-.782-.578-.922-1.223-.922q-7.608,0-15.216,0c-.632,0-1.263.093-1.267.875,0,.828.635.927,1.313.924C5651.988,116.614,5654.493,116.621,5657,116.621Zm0,8.419c2.534,0,5.067-.005,7.6,0,.624,0,1.268-.015,1.272-.828,0-.855-.662-.9-1.323-.9q-7.555.009-15.11,0c-.643,0-1.253.085-1.276.859-.023.8.591.872,1.234.869C5651.935,125.032,5654.468,125.04,5657,125.04Zm3.893-5.957c-1.27,0-2.539.005-3.808,0-.625,0-1.161.16-1.163.883,0,.741.574.871,1.175.872q3.808.006,7.617,0c.6,0,1.175-.14,1.162-.883-.012-.722-.549-.878-1.174-.873C5663.435,119.089,5662.166,119.083,5660.9,119.083Zm-7.365,10.222c1.453,0,2.906-.006,4.359,0,.637,0,1.146-.189,1.128-.907-.016-.659-.5-.841-1.1-.839q-4.312.014-8.625,0c-.645,0-1.144.189-1.128.9.014.655.5.849,1.1.845C5650.687,129.3,5652.109,129.3,5653.53,129.305Zm-2.137-8.47c.709,0,1.418.009,2.127,0,.575-.009,1.076-.183,1.081-.863s-.455-.885-1.054-.886q-2.174,0-4.347,0c-.609,0-1.046.255-1.04.907.006.62.468.826,1.012.839C5649.913,120.847,5650.653,120.834,5651.394,120.835Zm11.583,6.731c-.649,0-1.3,0-1.948,0-.614-.006-1.052.231-1.041.894.011.608.432.844,1,.844q1.949,0,3.9,0c.579,0,.989-.251,1-.852.006-.655-.429-.9-1.048-.888S5663.6,127.566,5662.977,127.566Z" transform="translate(-55.407 -150.172)" fill="#f4e6ff"/>
        <path id="Path_879473" data-name="Path 879473" d="M5756.705,80.6l2.346,0c.179.752.714.909,1.4.9,2.72-.015,5.44-.011,8.16,0,1.489,0,2.351.756,2.34,2.016-.01,1.242-.9,2.033-2.367,2.035-5.533.009-11.066,0-16.6.014-.613,0-.91-.13-.866-.816a22.754,22.754,0,0,0,0-2.5c-.025-.557.148-.763.729-.747,1.235.034,2.473.011,3.709-.006C5756.156,81.485,5756.693,81.365,5756.705,80.6Z" transform="translate(-150.579 -125.29)" fill="#e0bff7"/>
        <path id="Path_879474" data-name="Path 879474" d="M5584.706,215.355c.118.764.6.975,1.322.97,3.065-.023,6.13.01,9.194-.024.712-.008.97.169.964.928-.019,2.219.015,2.221-2.247,2.22-5.7,0-11.393-.024-17.088,0-.783,0-.99-.224-.977-.989.04-2.129.006-2.128,2.147-2.132,1.083,0,2.167-.011,3.25-.017.638,0,1.076-.251,1.149-.943Z" transform="translate(-7.917 -234.993)" fill="#c195db"/>
        <path id="Path_879475" data-name="Path 879475" d="M5613.034,83.195c-.991,0-1.983-.026-2.972.009-.62.022-.9-.154-.884-.831.034-2.043.025-4.086,0-6.129-.006-.576.145-.826.786-.816q3.157.05,6.315-.012c.677-.013.836.247.827.871-.031,2.012-.037,4.025,0,6.036.014.709-.25.921-.921.9-1.051-.04-2.1-.011-3.157-.011Z" transform="translate(-35.029 -121.072)" fill="#c195db"/>
        <path id="Path_879476" data-name="Path 879476" d="M5605.973,29.663c-1.174,0-2.348.019-3.521-.005a1.945,1.945,0,0,1-2.059-1.922,1.986,1.986,0,0,1,2.116-1.979q3.475-.031,6.95-.012a1.973,1.973,0,1,1,.035,3.93c-1.174.025-2.348.005-3.521.005Z" transform="translate(-27.878 -80.63)" fill="#e0bff7"/>
        <path id="Path_879477" data-name="Path 879477" d="M5606.1,149.456c-1.143,0-2.285.011-3.428,0a1.916,1.916,0,0,1-2.122-1.938,1.89,1.89,0,0,1,2.094-1.949q3.474-.02,6.948-.011a1.962,1.962,0,1,1,.028,3.907c-1.173.019-2.346,0-3.52,0Z" transform="translate(-28.008 -178.169)" fill="#e0bff7"/>
        <path id="Path_879478" data-name="Path 879478" d="M5593.579,204.132l-2.285.017a1.09,1.09,0,0,0-1.245-.862c-.835.008-1.673-.047-2.506,0-.637.036-.777-.221-.769-.8s.091-.942.805-.9c.833.049,1.671,0,2.507,0,3.994,0,7.988.015,11.982-.016.709-.005.969.161.979.923.011.8-.381.811-.968.807-2.384-.019-4.769,0-7.152-.012C5594.28,203.283,5593.755,203.413,5593.579,204.132Z" transform="translate(-16.791 -223.771)" fill="#e0bff7"/>
        <path id="Path_879479" data-name="Path 879479" d="M5712.84,90.439h1.57c1.285,0,1.7.61,1.312,1.881a.419.419,0,0,1-.479.321c-1.632,0-3.264,0-4.9.007-.4,0-.552-.171-.534-.556a4.809,4.809,0,0,0-.017-.83c-.084-.649.178-.876.826-.833C5711.359,90.477,5712.1,90.439,5712.84,90.439Z" transform="translate(-116.929 -133.289)" fill="#c195db"/>
        <path id="Path_879480" data-name="Path 879480" d="M5617.624,58.177c-.681,0-1.365-.041-2.042.012s-.824-.255-.817-.867c.006-.567.118-.84.767-.823,1.422.038,2.849.033,4.271-.019.7-.026.8.292.808.885.014.65-.2.887-.851.842-.709-.048-1.423-.011-2.135-.011Z" transform="translate(-39.578 -105.656)" fill="#c195db"/>
        <path id="Path_879481" data-name="Path 879481" d="M5617.579,128.224c-.649,0-1.3-.041-1.949.011-.689.057-.909-.178-.906-.881s.269-.819.879-.805q2.135.048,4.271-.015c.629-.018.717.291.69.8-.025.462.089.961-.664.923-.772-.039-1.547-.009-2.322-.009Z" transform="translate(-39.545 -162.685)" fill="#c195db"/>
        <path id="Path_879482" data-name="Path 879482" d="M5691.92,87.341q0,.462,0,.923c0,1.186,0,1.157-1.213,1.158-.57,0-.842-.117-.8-.762a26.748,26.748,0,0,0,.006-2.677c-.039-.952.667-.583,1.1-.627s.985-.194.919.6C5691.888,86.415,5691.919,86.879,5691.92,87.341Z" transform="translate(-100.744 -129.132)" fill="#c195db"/>
        <path id="Path_879483" data-name="Path 879483" d="M5662.851,90.51h.371c1.5,0,1.707.283,1.433,1.787-.072.392-.289.417-.583.417-.742,0-1.486-.032-2.227.01-.646.037-.859-.2-.864-.851C5660.971,90.51,5660.937,90.51,5662.851,90.51Z" transform="translate(-77.2 -133.36)" fill="#c195db"/>
        <path id="Path_879484" data-name="Path 879484" d="M5692.821-26.2a8.93,8.93,0,0,1-9.031-8.962,9,9,0,0,1,8.966-9.058,9.076,9.076,0,0,1,9.066,8.992A9.014,9.014,0,0,1,5692.821-26.2Zm7.2-8.975a7.151,7.151,0,0,0-7.03-7.245A7.26,7.26,0,0,0,5685.5-35.2a7.393,7.393,0,0,0,7.372,7.3A7.242,7.242,0,0,0,5700.021-35.174Z" transform="translate(-95.77 -23.68)" fill="#c846f9"/>
        <path id="Path_879485" data-name="Path 879485" d="M5718.128,132.662c-2.505,0-5.01-.006-7.515,0-.678,0-1.317-.1-1.313-.924,0-.782.635-.876,1.267-.875q7.608,0,15.216,0c.645,0,1.248.14,1.222.922-.024.764-.621.88-1.268.877C5723.2,132.656,5720.664,132.662,5718.128,132.662Z" transform="translate(-116.537 -166.214)" fill="#c846f9"/>
        <path id="Path_879486" data-name="Path 879486" d="M5718.118,178.26c-2.534,0-5.068-.008-7.6.005-.644,0-1.258-.068-1.234-.869.022-.774.633-.86,1.276-.859q7.554.012,15.11,0c.661,0,1.327.042,1.323.9,0,.813-.648.831-1.272.828C5723.185,178.254,5720.651,178.26,5718.118,178.26Z" transform="translate(-116.522 -203.392)" fill="#c846f9"/>
        <path id="Path_879487" data-name="Path 879487" d="M5755.979,153.749c1.27,0,2.54.007,3.809,0,.625,0,1.162.151,1.174.873.012.743-.558.881-1.163.883q-3.808.006-7.616,0c-.6,0-1.177-.131-1.175-.872,0-.723.539-.886,1.164-.883C5753.44,153.755,5754.71,153.749,5755.979,153.749Z" transform="translate(-150.49 -184.839)" fill="#c846f9"/>
        <path id="Path_879488" data-name="Path 879488" d="M5714.641,201.108c-1.421,0-2.844-.007-4.266,0-.6,0-1.085-.19-1.1-.845-.016-.713.484-.9,1.128-.9q4.313.017,8.625,0c.6,0,1.083.181,1.1.839.018.719-.491.911-1.128.907C5717.547,201.1,5716.094,201.108,5714.641,201.108Z" transform="translate(-116.517 -221.975)" fill="#c846f9"/>
        <path id="Path_879489" data-name="Path 879489" d="M5712.49,155.517c-.74,0-1.48.013-2.22-.005-.543-.013-1.005-.219-1.011-.839-.006-.652.43-.906,1.039-.907q2.173,0,4.347,0c.6,0,1.058.219,1.054.886s-.507.853-1.082.863C5713.909,155.526,5713.2,155.517,5712.49,155.517Z" transform="translate(-116.504 -184.854)" fill="#c846f9"/>
        <path id="Path_879490" data-name="Path 879490" d="M5775.856,199.38c.619,0,1.237.009,1.855,0s1.054.233,1.048.888c-.006.6-.417.852-1,.852q-1.948,0-3.9,0c-.569,0-.99-.236-1-.844-.012-.663.427-.9,1.041-.894C5774.558,199.384,5775.207,199.38,5775.856,199.38Z" transform="translate(-168.286 -221.986)" fill="#c846f9"/>
        <path id="Path_879491" data-name="Path 879491" d="M5707.518-27.293a7.242,7.242,0,0,1-7.147,7.27,7.393,7.393,0,0,1-7.372-7.3,7.26,7.26,0,0,1,7.489-7.217A7.151,7.151,0,0,1,5707.518-27.293Zm-10.294-1.239a.879.879,0,0,0-.811.519.827.827,0,0,0,.2,1.012c.807.81,1.629,1.6,2.417,2.432a.994.994,0,0,0,1.655.005c1.254-1.279,2.524-2.542,3.792-3.808.433-.432.583-.9.111-1.372-.443-.44-.908-.275-1.3.111-.642.625-1.271,1.262-1.9,1.9-1.52,1.521-1.518,1.519-3.05,0C5698.008-28.058,5697.729-28.451,5697.223-28.532Z" transform="translate(-103.266 -31.561)" fill="#e0bff7"/>
        <path id="Path_879492" data-name="Path 879492" d="M5711.758-8.687c.5.081.784.475,1.108.8,1.532,1.519,1.53,1.521,3.051,0,.632-.633,1.262-1.271,1.9-1.9.4-.387.861-.551,1.3-.111.472.468.322.939-.111,1.372-1.268,1.265-2.538,2.529-3.792,3.808a.993.993,0,0,1-1.655-.005c-.788-.828-1.61-1.623-2.417-2.432a.827.827,0,0,1-.2-1.012A.879.879,0,0,1,5711.758-8.687Z" transform="translate(-117.801 -51.407)" fill="#c846f9"/>
      </g>
    </g>
  </g>
</svg>
