<svg xmlns="http://www.w3.org/2000/svg" xmlns:xlink="http://www.w3.org/1999/xlink" width="129" height="128" viewBox="0 0 129 128">
  <defs>
    <clipPath id="clip-path">
      <rect id="Rectangle_400938" data-name="Rectangle 400938" width="120" height="120" fill="none"/>
    </clipPath>
  </defs>
  <g id="Group_1111720" data-name="Group 1111720" transform="translate(-387.711 -5397.15)">
    <g id="Grupo_108927" data-name="Grupo 108927" transform="translate(-2.289 930.15)">
      <path id="Rectángulo_36179" data-name="Rectángulo 36179" d="M0,0H129V128H0Z" transform="translate(390 4467)" fill="#c5ffee"/>
    </g>
    <g id="Group_1103249" data-name="Group 1103249" transform="translate(502.012 5518.964) rotate(180)">
      <path id="Path_874029" data-name="Path 874029" d="M611.629,544.4l-50.15-28.952V457.536l50.15-28.954,50.15,28.954v57.908Zm-47.884-30.26,47.884,27.645,47.884-27.645V458.844L611.629,431.2l-47.884,27.647Z" transform="translate(-561.479 -428.582)" fill="#00e489"/>
      <path id="Path_874030" data-name="Path 874030" d="M574.457,470.02v52.906l45.818,26.453,45.818-26.453V470.02l-45.818-26.453Z" transform="translate(-570.125 -438.567)" fill="#f2ffd9"/>
    </g>
    <g id="Group_1103254" data-name="Group 1103254" transform="translate(427.601 5431.174)">
      <rect id="Rectangle_401104" data-name="Rectangle 401104" width="59.531" height="60.492" transform="translate(-0.543 -0.362)" fill="none"/>
      <g id="Group_1103273" data-name="Group 1103273" transform="translate(-180.919 -267.977)">
        <path id="Path_879136" data-name="Path 879136" d="M233.668,298.427c0,6.6.017,13.209-.007,19.814a25.059,25.059,0,0,1-3.987,13.4,3.806,3.806,0,0,1-3.609,1.992,14.161,14.161,0,0,0-2.126.007,4.975,4.975,0,0,1-4.632-1.9c-.794-.942-1.54-.941-2.343.005a4.984,4.984,0,0,1-4.636,1.893,11.566,11.566,0,0,0-2.125,0,4.344,4.344,0,0,1-3.671-1.522c-1.365-1.447-1.7-1.452-3.057-.009a4.428,4.428,0,0,1-3.781,1.531,10.654,10.654,0,0,0-2.013,0,4.964,4.964,0,0,1-4.634-1.891c-.8-.952-1.557-.958-2.341-.016-1.265,1.518-2.858,1.77-4.736,1.971-3.638.39-5.581-1.271-6.979-4.376a27.464,27.464,0,0,1-2.663-11.418q.011-17.351-.01-34.7a8.816,8.816,0,0,1,2.752-6.6c1.649-1.621,3.248-3.293,4.915-4.9a2,2,0,0,0,.675-1.657c-.047-1.416-.03-2.836-.01-4.253a3.63,3.63,0,0,1,3.863-3.841q4.534-.012,9.068,0a3.582,3.582,0,0,1,3.846,3.83c.008,1.231.037,2.464-.009,3.694-.033.888.295.917.983.589a2.546,2.546,0,0,0,1.4-2.684,5.138,5.138,0,0,1,1.064-3.665,4.678,4.678,0,0,1,3.7-1.765c5.523,0,11.046-.011,16.569.005a4.456,4.456,0,0,1,4.452,2.956c1.328,3.426,2.52,6.9,3.747,10.368a8.485,8.485,0,0,1,.332,2.874Q233.665,288.3,233.668,298.427ZM196.7,270.234c.557.013,1.114.018,1.67.041.416.017.606-.151.6-.584-.015-1.412.027-2.825-.029-4.235-.038-.942-.745-1.024-1.521-1.054-.971-.037-.7.634-.729,1.134-.031.556-.024,1.114-.033,1.671-.441.466-.863.938-1.623.642-.811-.315-.8-.98-.782-1.669a4.257,4.257,0,0,1,0-.559c.159-.954-.167-1.257-1.187-1.263-1.077-.006-1.376.357-1.247,1.335a7.055,7.055,0,0,1-.008,1.118,1.068,1.068,0,0,1-1.146,1.118,1.079,1.079,0,0,1-1.166-1.1c-.026-.6-.011-1.193-.021-1.79,0-.257.011-.5-.325-.623a1.457,1.457,0,0,0-2.065,1.346c-.039,1.267.007,2.537-.017,3.8-.01.5.106.739.673.732C190.73,270.256,193.714,270.251,196.7,270.234Zm28-5.758c-5.448-.02-10.9-.06-16.343-.04a2.012,2.012,0,0,0-2.024,1.755,9.962,9.962,0,0,0-.129,1.668,4.727,4.727,0,0,1-5.009,4.855q-6.942.015-13.884-.007a1.857,1.857,0,0,0-1.482.579c-1.69,1.74-3.414,3.447-5.138,5.154a6.292,6.292,0,0,0-1.94,4.707q.037,17.465.011,34.93a22.637,22.637,0,0,0,2.352,10.021c1.5,3.091,1.505,3.089,4.941,3.088a2.232,2.232,0,0,1,.335,0,2.657,2.657,0,0,0,2.446-1c2.1-2.168,3.969-2.118,6.153.045.339.336.625.913,1.107.884,2.2-.133,4.557.836,6.414-1.418a3.182,3.182,0,0,1,4.877-.088,4.8,4.8,0,0,0,4.476,1.572,6.521,6.521,0,0,1,1.23,0,1.773,1.773,0,0,0,1.67-.688,7.39,7.39,0,0,1,.712-.712,3.525,3.525,0,0,1,5.346.075,3.507,3.507,0,0,0,3.324,1.322c.33-.051.668-.043,1-.063a2.394,2.394,0,0,0,2.889-1.433,22.96,22.96,0,0,0,3.179-11.27q.03-20.317.015-40.634a7.291,7.291,0,0,0-.44-2.514c-1.088-3.01-2.169-6.023-3.275-9.027A2.322,2.322,0,0,0,224.7,264.476Z" fill="#115e01"/>
        <path id="Path_879137" data-name="Path 879137" d="M233.579,339.687c-.334.019-.673.012-1,.063a3.507,3.507,0,0,1-3.324-1.322,3.525,3.525,0,0,0-5.346-.075,7.386,7.386,0,0,0-.712.712,1.773,1.773,0,0,1-1.67.688,6.524,6.524,0,0,0-1.23,0,4.8,4.8,0,0,1-4.476-1.572,3.182,3.182,0,0,0-4.877.088c-1.857,2.254-4.218,1.285-6.414,1.418-.481.029-.768-.548-1.107-.884-2.184-2.163-4.05-2.213-6.153-.045a2.657,2.657,0,0,1-2.446,1,2.232,2.232,0,0,0-.335,0c-3.436,0-3.44,0-4.941-3.088a22.637,22.637,0,0,1-2.352-10.021q.01-17.465-.011-34.93a6.292,6.292,0,0,1,1.94-4.707c1.724-1.707,3.448-3.414,5.138-5.154a1.857,1.857,0,0,1,1.482-.579q6.942.028,13.884.007a4.727,4.727,0,0,0,5.009-4.855,9.962,9.962,0,0,1,.129-1.668A2.012,2.012,0,0,1,216.786,273c5.447-.02,10.895.021,16.343.04.071,1.175,1.007,2.118.9,3.342a3.036,3.036,0,0,0-2.321-1.14c-4.025.008-8.049-.013-12.074.011A2.451,2.451,0,0,0,217,277.911q-.023,2.738,0,5.477a2.388,2.388,0,0,0,2.7,2.652q7.043.015,14.086,0c1.763,0,2.553-.746,2.743-2.52.516.058.534.536.568.847a22.582,22.582,0,0,1,.31,2.536c-.018,13.115.01,26.23-.032,39.345a25.346,25.346,0,0,1-1.233,7.765A42.591,42.591,0,0,1,233.579,339.687Zm-20.032-41.7c-5.857,0-11.715.071-17.57-.031a5.009,5.009,0,0,0-5.253,5.206q.158,11.524,0,23.051a5.1,5.1,0,0,0,5.3,5.291q17.4-.122,34.8,0a5.092,5.092,0,0,0,5.311-5.278q-.174-11.467,0-22.939a5.046,5.046,0,0,0-5.356-5.335C225.038,298.066,219.291,297.985,213.547,297.985Zm-.158-3.514q7.275,0,14.55,0a6.33,6.33,0,0,0,3.821-1.026c1.208-.871,2.356-1.826,3.515-2.764a1.163,1.163,0,0,0,.3-1.763,1.181,1.181,0,0,0-1.86-.1c-.962.767-1.931,1.525-2.887,2.3a3.94,3.94,0,0,1-2.582.889q-14.83-.013-29.659,0a3.91,3.91,0,0,1-2.574-.909c-.952-.778-1.92-1.538-2.887-2.3a1.224,1.224,0,1,0-1.516,1.9c.777.639,1.594,1.233,2.345,1.9a7.55,7.55,0,0,0,5.335,1.881C203.987,294.442,208.688,294.471,213.389,294.471Z" transform="translate(-8.428 -8.563)" fill="#5d9920"/>
        <path id="Path_879138" data-name="Path 879138" d="M393.114,276.478c.107-1.223-.828-2.166-.9-3.342a2.322,2.322,0,0,1,2.817,1.769c1.106,3,2.187,6.017,3.275,9.027a7.291,7.291,0,0,1,.44,2.514q-.014,20.317-.015,40.634a22.96,22.96,0,0,1-3.179,11.27,2.394,2.394,0,0,1-2.889,1.433,42.593,42.593,0,0,0,2.561-5.673,25.346,25.346,0,0,0,1.233-7.765c.042-13.115.014-26.23.032-39.345a22.589,22.589,0,0,0-.31-2.536c-.034-.311-.052-.789-.568-.847Z" transform="translate(-167.513 -8.661)" fill="#508423"/>
        <path id="Path_879139" data-name="Path 879139" d="M233.932,278.335c-2.983.017-5.967.022-8.95.061-.567.007-.683-.232-.673-.732.025-1.268-.021-2.537.017-3.8a1.457,1.457,0,0,1,2.065-1.346c.336.121.321.366.325.623.01.6-.006,1.194.021,1.79a1.079,1.079,0,0,0,1.166,1.1,1.068,1.068,0,0,0,1.146-1.118,7.055,7.055,0,0,0,.008-1.118c-.129-.978.171-1.341,1.247-1.335,1.02.006,1.346.309,1.187,1.263a4.257,4.257,0,0,0,0,.559c-.021.688-.029,1.353.782,1.669.76.3,1.182-.177,1.623-.642Q233.912,276.822,233.932,278.335Z" transform="translate(-37.235 -8.101)" fill="#ffc9f2"/>
        <path id="Path_879140" data-name="Path 879140" d="M267.113,278.689q-.02-1.514-.041-3.028c.009-.557,0-1.115.033-1.671.028-.5-.242-1.171.729-1.134.775.03,1.483.112,1.521,1.054.056,1.41.014,2.823.029,4.235,0,.433-.186.6-.6.584C268.226,278.707,267.669,278.7,267.113,278.689Z" transform="translate(-70.415 -8.455)" fill="#fd91eb"/>
        <path id="Path_879141" data-name="Path 879141" d="M225.8,384.387c5.745,0,11.491.081,17.234-.035a5.046,5.046,0,0,1,5.356,5.335q-.182,11.467,0,22.939a5.092,5.092,0,0,1-5.311,5.278q-17.4-.122-34.8,0a5.1,5.1,0,0,1-5.3-5.291q.18-11.523,0-23.051a5.009,5.009,0,0,1,5.253-5.206C214.082,384.458,219.94,384.387,225.8,384.387Zm12.635,7.544a12.488,12.488,0,0,0-10.2,4.11c-.8.824-1.269,1.564-.565,2.709a5.021,5.021,0,0,1,.489,1.816c.119.748.38.744.926.337a17.52,17.52,0,0,1,3.368-1.974,1.181,1.181,0,0,1,1.722.5c.376.76.006,1.293-.632,1.674-.606.363-1.248.664-1.858,1.021a10.2,10.2,0,0,0-3.908,3.58c-.466.8-.267,1.195.547,1.487a6.452,6.452,0,0,0,4.773-.051.408.408,0,0,0,.111-.005c5.348-1.741,9.119-8.366,7.679-14.355a.685.685,0,0,0-.585-.593A5.854,5.854,0,0,0,238.432,391.931Zm4.965,6.437a15.646,15.646,0,0,1-5.091,8.572c-3.157,2.715-6.678,3.98-10.808,2.544-.572-.2-.634-.011-.631.464.01,1.6.026,3.205-.009,4.807-.013.591.265.658.745.655q7.657-.038,15.313-.052c2.173.141,3.092-.713,3.093-2.905q.006-11.307,0-22.615c0-2.173-.843-3.059-3.05-3.063q-17.411-.034-34.821-.025a1.155,1.155,0,0,0-.854.173c-1.371.352-1.929,1.111-1.932,2.7-.009,3.807,0,7.614,0,11.421,0,3.881-.009,7.763,0,11.645.006,1.629.827,2.681,2.213,2.69,5.412.036,10.825.013,16.237.033.547,0,.7-.183.693-.711-.028-1.567-.022-3.135,0-4.7.006-.548-.089-.742-.694-.5a8.8,8.8,0,0,1-6.017.1c-7.353-2.209-11.906-11.171-9.388-18.437a1.477,1.477,0,0,1,1.051-1.05,17.966,17.966,0,0,1,2.284-.5,14.666,14.666,0,0,1,13.411,5.066c.432.48.628.492,1.068,0a14.751,14.751,0,0,1,13.294-5.1c2.854.321,3.067.447,3.9,3.166A20.376,20.376,0,0,1,243.4,398.368Zm-25.79-5.791a10.806,10.806,0,0,0-6.359-.441.951.951,0,0,0-.832.877,12.669,12.669,0,0,0,6.6,13.7,6.451,6.451,0,0,0,4.625.8,2.364,2.364,0,0,0,2.17-.885c.266-.391-.215-.946-.582-1.324a3.262,3.262,0,0,0-1.076-1.386,17.1,17.1,0,0,0-4.074-2.672c-.752-.392-1.366-.905-.876-1.83s1.266-.715,2.019-.338a28.585,28.585,0,0,1,3.968,2.442,14.592,14.592,0,0,1,2.4,2.8C226.977,399.793,222.738,393.694,217.607,392.577Z" transform="translate(-20.678 -94.965)" fill="#115e01"/>
        <path id="Path_879142" data-name="Path 879142" d="M226.614,347.866c-4.7,0-9.4-.029-14.1.014A7.55,7.55,0,0,1,207.177,346c-.751-.668-1.568-1.261-2.345-1.9a1.224,1.224,0,1,1,1.516-1.9c.967.76,1.935,1.52,2.887,2.3a3.91,3.91,0,0,0,2.574.909q14.829-.011,29.659,0a3.94,3.94,0,0,0,2.582-.889c.956-.774,1.926-1.532,2.887-2.3a1.181,1.181,0,0,1,1.86.1,1.163,1.163,0,0,1-.3,1.763c-1.159.938-2.307,1.893-3.515,2.764a6.33,6.33,0,0,1-3.821,1.026Q233.889,347.868,226.614,347.866Z" transform="translate(-21.653 -61.958)" fill="#115e01"/>
        <path id="Path_879143" data-name="Path 879143" d="M337.217,284.159l2.5,7.14c-.19,1.774-.98,2.516-2.743,2.52q-7.043.013-14.086,0a2.388,2.388,0,0,1-2.7-2.652q-.02-2.739,0-5.477a2.451,2.451,0,0,1,2.638-2.659c4.024-.023,8.049,0,12.074-.011A3.036,3.036,0,0,1,337.217,284.159Zm.08,7.321c-.7-1.937-1.368-3.735-2-5.544-.167-.479-.5-.452-.878-.452-3.687,0-7.375.015-11.062-.011-.6,0-.755.2-.742.767.033,1.452.058,2.907-.008,4.356-.036.79.284.905.966.9,2.681-.033,5.363-.013,8.045-.013Z" transform="translate(-111.617 -16.341)" fill="#115e01"/>
        <path id="Path_879144" data-name="Path 879144" d="M246.565,433.5a6.451,6.451,0,0,1-4.625-.8,12.669,12.669,0,0,1-6.6-13.7.951.951,0,0,1,.832-.877,10.806,10.806,0,0,1,6.359.441c.234.544.771.761,1.186,1.113,2.13,1.813,3.946,3.84,4.545,6.7.084.4.244.8-.149,1.129a28.586,28.586,0,0,0-3.968-2.442c-.753-.377-1.535-.577-2.019.338s.125,1.438.876,1.83a17.1,17.1,0,0,1,4.074,2.672,3.263,3.263,0,0,1,1.076,1.386A11.487,11.487,0,0,0,246.565,433.5Z" transform="translate(-45.604 -120.96)" fill="#5e9a20"/>
        <path id="Path_879145" data-name="Path 879145" d="M317.4,433.28a6.453,6.453,0,0,1-4.773.051c-.814-.292-1.013-.687-.547-1.487a10.2,10.2,0,0,1,3.908-3.58c.61-.357,1.252-.658,1.858-1.021.638-.382,1.008-.914.632-1.674a1.181,1.181,0,0,0-1.722-.5,17.52,17.52,0,0,0-3.368,1.974c-.546.408-.807.412-.926-.337a5.021,5.021,0,0,0-.489-1.816c-.7-1.145-.231-1.885.565-2.709a12.488,12.488,0,0,1,10.2-4.11,22.648,22.648,0,0,1,.451,3.949,14.36,14.36,0,0,1-5.375,10.54C317.573,432.762,317.367,432.938,317.4,433.28Z" transform="translate(-104.991 -121.106)" fill="#5e9a20"/>
        <path id="Path_879146" data-name="Path 879146" d="M257.86,423.651a6.085,6.085,0,0,0,.705-3.314c-.039-4.17-.011-8.341-.023-12.512,0-.391.149-.827-.2-1.165a20.376,20.376,0,0,0,0-5.614,11.1,11.1,0,0,0-.026-4.831c-.16-.737-.615-.982-1.377-.977-4.4.031-8.809.019-13.214.014q-10.749-.013-21.5-.035a1.156,1.156,0,0,1,.854-.173q17.411.006,34.821.025c2.207,0,3.049.89,3.05,3.063q0,11.307,0,22.615C260.952,422.938,260.033,423.792,257.86,423.651Z" transform="translate(-35.622 -103.257)" fill="#bac2c6"/>
        <path id="Path_879147" data-name="Path 879147" d="M337.37,433.282c-.038-.343.169-.518.416-.718a14.359,14.359,0,0,0,5.375-10.54,22.645,22.645,0,0,0-.451-3.949,5.854,5.854,0,0,1,1.866.254.685.685,0,0,1,.585.593c1.44,5.989-2.331,12.614-7.679,14.355A.408.408,0,0,1,337.37,433.282Z" transform="translate(-124.956 -121.108)" fill="#508323"/>
        <path id="Path_879148" data-name="Path 879148" d="M273.865,430c.393-.332.233-.728.149-1.129-.6-2.855-2.415-4.883-4.545-6.7-.414-.352-.952-.569-1.186-1.113,5.131,1.117,9.37,7.216,7.985,11.737A14.592,14.592,0,0,0,273.865,430Z" transform="translate(-71.356 -123.448)" fill="#4f8223"/>
        <path id="Path_879149" data-name="Path 879149" d="M286.279,480.042a11.488,11.488,0,0,1,1.588-2.209c.367.378.848.932.582,1.324A2.364,2.364,0,0,1,286.279,480.042Z" transform="translate(-85.318 -167.497)" fill="#4f8223"/>
      </g>
    </g>
  </g>
</svg>
