<svg xmlns="http://www.w3.org/2000/svg" width="129" height="128" viewBox="0 0 129 128">
  <g id="Group_1111725" data-name="Group 1111725" transform="translate(-4062 5137.486)">
    <g id="Grupo_108927" data-name="Grupo 108927" transform="translate(3672 -9604.486)">
      <path id="Rectángulo_36179" data-name="Rectángulo 36179" d="M0,0H129V128H0Z" transform="translate(390 4467)" fill="#c5ffee"/>
    </g>
    <g id="Group_1103480" data-name="Group 1103480" transform="translate(4176.3 -5015.187) rotate(180)">
      <path id="Path_874029" data-name="Path 874029" d="M611.629,544.4l-50.15-28.952V457.536l50.15-28.954,50.15,28.954v57.908Zm-47.884-30.26,47.884,27.645,47.884-27.645V458.844L611.629,431.2l-47.884,27.647Z" transform="translate(-561.479 -428.582)" fill="#00e489"/>
      <path id="Path_874030" data-name="Path 874030" d="M574.457,470.02v52.906l45.818,26.453,45.818-26.453V470.02l-45.818-26.453Z" transform="translate(-570.125 -438.567)" fill="#f2ffd9"/>
    </g>
    <g id="Group_1103486" data-name="Group 1103486" transform="translate(4096.89 -5103.463)">
      <rect id="Rectangle_401104" data-name="Rectangle 401104" width="59.531" height="60.492" transform="translate(-0.89 -0.537)" fill="none"/>
      <g id="Group_1103493" data-name="Group 1103493" transform="translate(-6031.347 20.532)">
        <path id="Path_879493" data-name="Path 879493" d="M6034.208-10.556c-.639-.583-.384-1.122.038-1.705a20.337,20.337,0,0,1,12.636-8.341,20.735,20.735,0,0,1,24.492,14.916,20.031,20.031,0,0,1-1.464,14.705.969.969,0,0,0,.252,1.4c1.313,1.1,1.926,2.4,1.051,4.088-.157.3,1.8,2.5,2.135,2.406.16-.048.273-.241.416-.359a1.809,1.809,0,0,1,2.588.059c.722.68,1.419,1.387,2.1,2.1a1.639,1.639,0,0,1,.342,2.044c-.273.481-.092.712.222,1.015.779.754,1.522,1.545,2.313,2.289a1.266,1.266,0,0,1,.432,1.326c-.556.634-1.086.558-1.644-.02-.772-.8-1.6-1.555-2.349-2.377-.4-.44-.641-.39-1.019.018a30.258,30.258,0,0,1-2.18,2.15c-.5.442-.448.7.008,1.151,3.412,3.371,6.793,6.772,10.186,10.162a2.534,2.534,0,0,1,.763,1.032c-.45,1.11-.975,1.225-1.827.374q-5.13-5.119-10.245-10.255c-.4-.4-.7-.631-1.316-.3a1.61,1.61,0,0,1-1.942-.449c-.682-.676-1.374-1.342-2.033-2.04a1.767,1.767,0,0,1-.018-2.642c.336-.361.347-.572-.007-.87a6.918,6.918,0,0,1-.595-.587c-.64-.691-1.157-1.326-2.354-.778a2.352,2.352,0,0,1-2.812-.915c-.673-.861-1.251-.955-2.3-.449a20.821,20.821,0,0,1-29.263-14.983,21.211,21.211,0,0,1,.992-11.312,1.131,1.131,0,0,1,1.391-.891,1.234,1.234,0,0,1,.263,1.5A18.64,18.64,0,0,0,6032.3,1.75a18.2,18.2,0,0,0,4.279,10.078l.193.2-.008-.008a1.155,1.155,0,0,0,.131.24c4.583,5.09,10.341,7.377,17.07,6.363a18.951,18.951,0,0,0,15.685-23.987,17.371,17.371,0,0,0-6.1-9.4l.007.008-.2-.195a18.339,18.339,0,0,0-15.976-3.969,18.5,18.5,0,0,0-11.776,7.784C6035.248-10.63,6034.854-10.321,6034.208-10.556Zm37.325,36.171c.28-.048.408-.281.578-.45q1.74-1.731,3.467-3.475c1.728-1.741,1.707-1.724-.064-3.449-.44-.428-.651-.327-1.014.047-1.185,1.217-2.405,2.4-3.6,3.6-.517.52-1.4,1.075-1.4,1.6.008.546.889,1.088,1.407,1.613C6071.1,25.294,6071.239,25.558,6071.534,25.615Zm-2.876-14.228a4.016,4.016,0,0,0-.345.368,21.422,21.422,0,0,1-5.02,5.028c-.118.084-.3.285-.282.32a3.84,3.84,0,0,0,1.1,1.107.832.832,0,0,0,1.105-.13q2.215-2.177,4.392-4.391a.81.81,0,0,0,.134-1.1C6069.428,12.172,6069.045,11.811,6068.658,11.387Zm3.321,6.853-.32-.376c-1.773-2.05-1.762-2.039-3.627-.12-.383.393-.427.61-.02,1.028,1.875,1.928,1.861,1.943,3.636-.092C6071.764,18.546,6071.862,18.4,6071.979,18.24Z" fill="#f9ac00"/>
        <path id="Path_879494" data-name="Path 879494" d="M6041.743-3.018c.646.236,1.039-.073,1.4-.58a18.494,18.494,0,0,1,11.776-7.784,18.339,18.339,0,0,1,15.976,3.969l.2.194-.008-.008a2.572,2.572,0,0,0,.3,1.129,9.435,9.435,0,0,1,.79,2.678c-.213-.222-.429-.443-.64-.667-4.363-4.626-9.685-6.533-15.951-5.357a17.022,17.022,0,0,0-12.895,22.361,18.186,18.186,0,0,0,5.419,7.732,2.68,2.68,0,0,1-1.146-.23,18.148,18.148,0,0,0-2.663-.862l.009.008-.194-.2a18.2,18.2,0,0,1-4.278-10.078,18.627,18.627,0,0,1,1.157-8.834,1.233,1.233,0,0,0-.264-1.5A8.532,8.532,0,0,1,6041.743-3.018Z" transform="translate(-7.533 -7.539)" fill="#f7d300"/>
        <path id="Path_879495" data-name="Path 879495" d="M6276.925,228.9a2.54,2.54,0,0,0-.762-1.032c-3.393-3.391-6.774-6.791-10.187-10.162-.456-.452-.51-.709-.007-1.151a30.246,30.246,0,0,0,2.179-2.15c.379-.408.618-.458,1.02-.018.75.822,1.575,1.575,2.349,2.377.558.578,1.087.653,1.643.02a4.187,4.187,0,0,0,1.539,1.718.984.984,0,0,0,.094,1.535q2.476,2.449,4.925,4.924a1.256,1.256,0,0,0,.9.409C6280.6,226.35,6277.873,228.9,6276.925,228.9Z" transform="translate(-191.396 -191.392)" fill="#ffe98d"/>
        <path id="Path_879496" data-name="Path 879496" d="M6318.931,244.233a1.254,1.254,0,0,1-.9-.409q-2.457-2.469-4.926-4.924a.984.984,0,0,1-.093-1.535,1.157,1.157,0,0,1,1.407.338c1.581,1.612,3.2,3.193,4.781,4.8C6319.938,243.245,6319.864,243.628,6318.931,244.233Z" transform="translate(-229.71 -210.251)" fill="#f9ac00"/>
        <path id="Path_879497" data-name="Path 879497" d="M6092.23,16.613a9.437,9.437,0,0,0-.791-2.678,2.572,2.572,0,0,1-.3-1.129,17.367,17.367,0,0,1,6.1,9.4,18.952,18.952,0,0,1-15.685,23.987c-6.729,1.014-12.487-1.272-17.071-6.363a1.152,1.152,0,0,1-.13-.24,18.186,18.186,0,0,1,2.663.862,2.673,2.673,0,0,0,1.145.23,1.42,1.42,0,0,1,.247.12,16.642,16.642,0,0,0,12.643,3.434,16.885,16.885,0,0,0,12.273-7.829,1.2,1.2,0,0,0-.044-1.609,12.506,12.506,0,0,0,.806-2.081,1.057,1.057,0,0,0,1.274-.909,17.3,17.3,0,0,0,.194-8.149A18.864,18.864,0,0,0,6092.23,16.613Z" transform="translate(-27.59 -27.571)" fill="#f7d300"/>
        <path id="Path_879498" data-name="Path 879498" d="M6242.31,196.324c-.294-.056-.436-.321-.624-.51-.518-.525-1.4-1.067-1.406-1.613-.007-.528.88-1.083,1.4-1.6,1.2-1.205,2.419-2.385,3.6-3.6.362-.373.573-.475,1.012-.046,1.772,1.725,1.793,1.708.065,3.449q-1.729,1.743-3.467,3.475C6242.72,196.043,6242.591,196.276,6242.31,196.324Z" transform="translate(-170.777 -170.709)" fill="#ffe98d"/>
        <path id="Path_879499" data-name="Path 879499" d="M6211.038,153.344c.388.424.771.785,1.081,1.2a.81.81,0,0,1-.133,1.1q-2.178,2.213-4.393,4.391a.832.832,0,0,1-1.105.13,3.812,3.812,0,0,1-1.1-1.107c-.021-.034.164-.235.281-.32a21.462,21.462,0,0,0,5.021-5.028A4.129,4.129,0,0,1,6211.038,153.344Z" transform="translate(-142.38 -141.957)" fill="#ffe98d"/>
        <path id="Path_879500" data-name="Path 879500" d="M6234.982,181.754c-.117.157-.215.306-.331.44-1.774,2.035-1.761,2.021-3.636.092-.407-.418-.363-.635.019-1.028,1.866-1.919,1.854-1.93,3.628.12C6234.761,181.494,6234.859,181.61,6234.982,181.754Z" transform="translate(-163.003 -163.514)" fill="#f7d300"/>
        <path id="Path_879501" data-name="Path 879501" d="M6207.458,12c-.064-.065-.132-.13-.2-.194Z" transform="translate(-143.903 -26.756)" fill="#f7d300"/>
        <path id="Path_879502" data-name="Path 879502" d="M6063.356,155.717l.193.2Z" transform="translate(-26.777 -143.889)" fill="#f7d300"/>
        <path id="Path_879503" data-name="Path 879503" d="M6080.993,5.433a18.851,18.851,0,0,1,3.327,7.047,17.288,17.288,0,0,1-.194,8.149.936.936,0,1,1-1.734-.448,15.144,15.144,0,0,0,.251-7.076,15.322,15.322,0,1,0-16.895,18.237,15.019,15.019,0,0,0,14.784-7c.389-.578.788-.943,1.514-.729a1.2,1.2,0,0,1,.044,1.609,16.883,16.883,0,0,1-12.274,7.829,16.641,16.641,0,0,1-12.642-3.434,1.42,1.42,0,0,0-.247-.12,18.2,18.2,0,0,1-5.419-7.732A17.022,17.022,0,0,1,6064.4-.591c6.267-1.176,11.587.731,15.95,5.357C6080.564,4.99,6080.78,5.211,6080.993,5.433Z" transform="translate(-16.353 -16.391)" fill="#f9ac00"/>
        <path id="Path_879504" data-name="Path 879504" d="M6089.8,31.041c-.727-.215-1.125.15-1.513.729a15.021,15.021,0,0,1-14.785,7A15.343,15.343,0,1,1,6090.143,27.6a1.059,1.059,0,0,0,.459,1.357A12.507,12.507,0,0,1,6089.8,31.041Zm-8.627-10.295c.941.165,1.879.377,2.828.485a4.1,4.1,0,0,0,3.36-1.007.884.884,0,0,0,.187-1.248.733.733,0,0,0-1.065-.228c-.468.345-.69.116-.992-.189q-2.52-2.543-5.062-5.062c-.327-.323-.587-.574-.211-1.059a.707.707,0,0,0-.256-1.051.961.961,0,0,0-1.37.349,5.144,5.144,0,0,0-.672,4.6c.352,1.559.333,1.563-1.268,1.315-3.253-.5-6,.979-6.948,3.778a8.068,8.068,0,0,0-.039,4.405c.137.607-.055.651-.518.5a11.094,11.094,0,0,0-2.364-.463,4.256,4.256,0,0,0-3.363,1.022.887.887,0,0,0-.207,1.243.749.749,0,0,0,1.138.215c.368-.292.572-.157.843.116q2.618,2.642,5.256,5.263c.25.249.466.428.166.843a.771.771,0,0,0,.263,1.2.91.91,0,0,0,1.232-.3,4.188,4.188,0,0,0,.9-1.905c.277-1.456-.223-2.818-.435-4.216.038-.035.074-.072.111-.11.393.068.789.124,1.181.2,3.559.728,6.65-1.112,7.4-4.455a10.611,10.611,0,0,0-.2-4.132C6081.1,20.82,6081.134,20.784,6081.17,20.746Z" transform="translate(-24.104 -23.814)" fill="#fff2bd"/>
        <path id="Path_879505" data-name="Path 879505" d="M6085.539,42.611c.212,1.4.712,2.76.434,4.216a4.187,4.187,0,0,1-.895,1.905.91.91,0,0,1-1.232.3.771.771,0,0,1-.264-1.2c.3-.414.085-.594-.165-.843q-2.634-2.626-5.256-5.263c-.271-.273-.475-.408-.844-.116a.748.748,0,0,1-1.137-.215.887.887,0,0,1,.208-1.243,4.252,4.252,0,0,1,3.362-1.022,11.093,11.093,0,0,1,2.364.463c.463.15.653.1.519-.5a8.058,8.058,0,0,1,.039-4.405c.945-2.8,3.694-4.282,6.947-3.778,1.6.248,1.62.244,1.268-1.315a5.144,5.144,0,0,1,.672-4.6.961.961,0,0,1,1.37-.349.708.708,0,0,1,.257,1.051c-.377.485-.117.736.21,1.059q2.546,2.517,5.063,5.062c.3.305.523.534.992.189a.732.732,0,0,1,1.065.228.885.885,0,0,1-.186,1.248,4.107,4.107,0,0,1-3.361,1.007c-.949-.108-1.886-.319-2.828-.485l-.1-.1-.007.206a10.593,10.593,0,0,1,.2,4.132c-.746,3.343-3.839,5.183-7.4,4.455-.391-.08-.786-.137-1.18-.2l-.208.007Zm6.36-3.337c-.026-.266-.229-.38-.376-.528-1.677-1.683-3.383-3.338-5.022-5.057-.535-.562-.836-.344-1.253.07s-.57.687-.05,1.186c1.715,1.644,3.37,3.348,5.056,5.021.2.2.368.582.749.309A2.328,2.328,0,0,0,6091.9,39.274Zm.711-2.262a12.057,12.057,0,0,0-.583-3.419.515.515,0,0,0-.351-.4,11.052,11.052,0,0,0-3.509-.617Zm-4.219,4.069-4.3-4.3a12.161,12.161,0,0,0,.589,3.244.641.641,0,0,0,.5.491A11.811,11.811,0,0,0,6088.391,41.081Zm4.252-12.669-.23.136c.276,1.025.546,2.052.839,3.072a.549.549,0,0,0,.316.311c.817.269,1.644.511,2.467.765a.352.352,0,0,0,.4-.151c.161-.183-.008-.277-.1-.373Q6094.49,30.287,6092.643,28.412Zm-8.587,16.578c.193-1.012-.366-1.977-.614-3a.427.427,0,0,0-.255-.249,8.76,8.76,0,0,0-3.229-.609C6081.322,42.415,6082.683,43.7,6084.056,44.99Z" transform="translate(-37.076 -37.076)" fill="#f9ac00"/>
        <path id="Path_879506" data-name="Path 879506" d="M6130.654,78.058a2.337,2.337,0,0,1-.9,1c-.381.273-.55-.113-.748-.309-1.687-1.673-3.342-3.377-5.057-5.021-.521-.5-.355-.785.05-1.186s.717-.631,1.253-.07c1.641,1.718,3.346,3.374,5.022,5.057C6130.425,77.678,6130.627,77.792,6130.654,78.058Z" transform="translate(-75.83 -75.86)" fill="#fff2bd"/>
        <path id="Path_879507" data-name="Path 879507" d="M6145.784,72.351l-4.442-4.438a11.052,11.052,0,0,1,3.509.617.517.517,0,0,1,.351.4A12.057,12.057,0,0,1,6145.784,72.351Z" transform="translate(-90.25 -72.415)" fill="#fff2bd"/>
        <path id="Path_879508" data-name="Path 879508" d="M6123.716,94.875a11.8,11.8,0,0,1-3.213-.563.639.639,0,0,1-.5-.491,12.126,12.126,0,0,1-.59-3.244Z" transform="translate(-72.4 -90.87)" fill="#fff2bd"/>
        <path id="Path_879509" data-name="Path 879509" d="M6164.388,45.593q1.843,1.879,3.685,3.759c.094.1.263.191.1.373a.354.354,0,0,1-.4.151c-.821-.253-1.648-.5-2.465-.765A.55.55,0,0,1,6165,48.8c-.294-1.02-.562-2.047-.838-3.072Z" transform="translate(-108.82 -54.257)" fill="#fff2bd"/>
        <path id="Path_879510" data-name="Path 879510" d="M6101.328,117.764l-4.1-3.856a8.77,8.77,0,0,1,3.229.609.423.423,0,0,1,.253.249C6100.962,115.787,6101.521,116.753,6101.328,117.764Z" transform="translate(-54.348 -109.851)" fill="#fff2bd"/>
        <path id="Path_879511" data-name="Path 879511" d="M6172.855,75.354l.007-.206.1.1C6172.93,75.282,6172.893,75.319,6172.855,75.354Z" transform="translate(-115.899 -78.312)" fill="#ffe98d"/>
        <path id="Path_879512" data-name="Path 879512" d="M6126.788,121.417l-.1-.1.208-.007C6126.864,121.345,6126.827,121.382,6126.788,121.417Z" transform="translate(-78.326 -115.883)" fill="#ffe98d"/>
      </g>
    </g>
  </g>
</svg>
