<svg xmlns="http://www.w3.org/2000/svg" xmlns:xlink="http://www.w3.org/1999/xlink" width="129" height="128" viewBox="0 0 129 128">
  <defs>
    <clipPath id="clip-path">
      <rect id="Rectangle_400938" data-name="Rectangle 400938" width="120" height="120" fill="none"/>
    </clipPath>
  </defs>
  <g id="Group_1111718" data-name="Group 1111718" transform="translate(-387.711 -5102.15)">
    <g id="Grupo_108927" data-name="Grupo 108927" transform="translate(-2.289 635.15)">
      <path id="Rectángulo_36179" data-name="Rectángulo 36179" d="M0,0H129V128H0Z" transform="translate(390 4467)" fill="#c5ffee"/>
    </g>
    <g id="Group_1103239" data-name="Group 1103239" transform="translate(502.012 5223.964) rotate(180)">
      <path id="Path_874029" data-name="Path 874029" d="M611.629,544.4l-50.15-28.952V457.536l50.15-28.954,50.15,28.954v57.908Zm-47.884-30.26,47.884,27.645,47.884-27.645V458.844L611.629,431.2l-47.884,27.647Z" transform="translate(-561.479 -428.582)" fill="#00e489"/>
      <path id="Path_874030" data-name="Path 874030" d="M574.457,470.02v52.906l45.818,26.453,45.818-26.453V470.02l-45.818-26.453Z" transform="translate(-570.125 -438.567)" fill="#f2ffd9"/>
    </g>
    <g id="Group_1103243" data-name="Group 1103243" transform="translate(427.601 5136.174)">
      <rect id="Rectangle_401104" data-name="Rectangle 401104" width="59.531" height="60.492" transform="translate(-0.543 -0.362)" fill="none"/>
      <g id="Group_1103247" data-name="Group 1103247" transform="translate(-9.768 -3.724)">
        <g id="Group_1103246" data-name="Group 1103246" transform="translate(1.691 2.597)">
          <path id="Path_879119" data-name="Path 879119" d="M129.193,132.853a1.027,1.027,0,0,1-1.371-.038c-3.106-2.685-4.919-5.925-4.663-10.183a11.15,11.15,0,0,1,12.449-10.049,11.613,11.613,0,0,1,6.6,3.328c7.3,7.31,14.636,14.589,21.908,21.93a11.051,11.051,0,0,1-15.03,16.2c-1.162-1.063-2.257-2.2-3.346-3.34-.382-.4-.578-.332-.93.036-7.469,7.808-15.14,15.417-22.876,22.959a11.009,11.009,0,0,1-18.6-5.306,10.722,10.722,0,0,1,3.251-10.629q6.506-6.446,12.989-12.915,4.238-4.232,8.435-8.5a19.25,19.25,0,0,1,2.436-2.088c4.827-2.563,9.361-2.237,13.53,1.413.495.433.7.084.97-.188,2.176-2.189,4.331-4.4,6.534-6.561.492-.483.414-.722-.032-1.161-3.612-3.555-7.184-7.15-10.8-10.7a9.158,9.158,0,0,0-15.3,8.872,10.561,10.561,0,0,0,3.436,5.184C129.334,131.615,129.66,132.131,129.193,132.853Zm22.154-1.034c-1.809,1.787-3.61,3.58-5.432,5.354-.3.3-.264.51-.073.841a10.935,10.935,0,0,1,.653,10.012c-.143.355-.186.592.112.883,1.342,1.31,2.586,2.732,4.01,3.944,3.98,3.386,10.407,2.555,13.082-1.615a1.9,1.9,0,0,0,.6-.776,9.028,9.028,0,0,0-1.241-10.94c-2.541-2.67-5.167-5.259-7.762-7.877-.61-.615-1.221-1.649-1.879-1.688-.769-.046-1.282,1.122-1.969,1.7A.632.632,0,0,0,151.347,131.82Zm-23.287,28.96c-1.946-1.966-3.886-3.938-5.843-5.892-.5-.5-.778-1-.356-1.671.7-.482,1.225-.2,1.758.335,2.461,2.474,4.95,4.92,7.407,7.4.383.386.606.449,1.019.026,3.658-3.744,7.389-7.417,11-11.208a9.1,9.1,0,0,0-13.2-12.54c-3.228,3.176-6.382,6.428-9.567,9.647-1.639,1.656-1.651,1.669-.034,3.3.538.542.785,1.074.34,1.772a1.136,1.136,0,0,1-1.6-.292c-.471-.479-.96-.94-1.42-1.428-.237-.251-.392-.25-.643,0-3.3,3.3-6.759,6.449-9.868,9.915a8.883,8.883,0,0,0,1.256,12.785c.013.1.059.164.176.128a.211.211,0,0,0,.165.1c.155.327.484.441.765.608a9.04,9.04,0,0,0,11.008-1.262c2.611-2.5,5.158-5.064,7.714-7.619.656-.655,1.835-1.241,1.8-2.015C129.9,162.037,128.757,161.44,128.06,160.779Z" transform="translate(-102.996 -112.465)" fill="#a90025"/>
          <path id="Path_879120" data-name="Path 879120" d="M216.6,140.463c.467-.722.141-1.239-.407-1.744a10.561,10.561,0,0,1-3.436-5.184,9.158,9.158,0,0,1,15.3-8.872c3.614,3.553,7.185,7.148,10.8,10.7.446.439.524.678.032,1.161-2.2,2.162-4.358,4.372-6.534,6.561-.271.272-.475.621-.97.188-4.17-3.65-8.7-3.975-13.531-1.413C217.55,141.288,216.976,140.962,216.6,140.463Z" transform="translate(-190.399 -120.074)" fill="#e13b56"/>
          <path id="Path_879121" data-name="Path 879121" d="M184.153,239.165c.445-.7.2-1.23-.34-1.772-1.617-1.629-1.6-1.642.034-3.3,3.186-3.219,6.34-6.47,9.567-9.647a9.1,9.1,0,0,1,13.2,12.54c-3.607,3.792-7.338,7.465-11,11.208-.413.423-.637.36-1.019-.026-2.457-2.477-4.946-4.923-7.407-7.4-.533-.536-1.058-.817-1.758-.335Z" transform="translate(-166.566 -199.688)" fill="#e13b56"/>
          <path id="Path_879122" data-name="Path 879122" d="M128.131,300.807l1.278,1.274c-.422.673-.142,1.174.356,1.671,1.957,1.954,3.9,3.927,5.843,5.892a2.558,2.558,0,0,1-.279.414c-3.2,3.2-6.375,6.443-9.642,9.581a9.934,9.934,0,0,1-5,2.409c-1.53.321-3-.081-4.491-.035a.211.211,0,0,1-.165-.1l-.176-.128A8.882,8.882,0,0,1,114.6,309c3.109-3.466,6.571-6.616,9.868-9.915.251-.252.406-.253.643,0,.46.488.95.949,1.42,1.428A1.136,1.136,0,0,0,128.131,300.807Z" transform="translate(-110.543 -261.33)" fill="#fff7e6"/>
          <path id="Path_879123" data-name="Path 879123" d="M332.882,227.93c-2.675,4.171-9.1,5-13.082,1.615-1.424-1.211-2.668-2.634-4.01-3.944-.3-.291-.255-.529-.112-.883a10.935,10.935,0,0,0-.653-10.012c-.191-.331-.231-.545.073-.841,1.822-1.773,3.623-3.567,5.432-5.354a1.915,1.915,0,0,1,.334.218c3.082,3.084,6.2,6.137,9.227,9.27a10.1,10.1,0,0,1,2.959,7.744A7.677,7.677,0,0,0,332.882,227.93Z" transform="translate(-272.178 -189.156)" fill="#fff7e6"/>
          <path id="Path_879124" data-name="Path 879124" d="M131.059,364.588c1.495-.046,2.961.357,4.491.035a9.935,9.935,0,0,0,5-2.409c3.267-3.138,6.437-6.378,9.642-9.581a2.557,2.557,0,0,0,.279-.414c.7.661,1.842,1.258,1.879,2.08.034.774-1.145,1.359-1.8,2.015-2.556,2.555-5.1,5.121-7.714,7.619a9.04,9.04,0,0,1-11.008,1.263C131.543,365.03,131.214,364.916,131.059,364.588Z" transform="translate(-125.404 -303.906)" fill="#c9c0b0"/>
          <path id="Path_879125" data-name="Path 879125" d="M355.286,220.544a7.674,7.674,0,0,1,.168-2.188,10.1,10.1,0,0,0-2.959-7.744c-3.031-3.133-6.145-6.186-9.227-9.27a1.916,1.916,0,0,0-.334-.218.629.629,0,0,1,.1-.166c.686-.574,1.2-1.743,1.969-1.7.659.039,1.269,1.073,1.879,1.688,2.6,2.618,5.221,5.208,7.762,7.877a9.028,9.028,0,0,1,1.241,10.939A1.9,1.9,0,0,1,355.286,220.544Z" transform="translate(-294.583 -181.771)" fill="#c9c0b0"/>
          <path id="Path_879126" data-name="Path 879126" d="M129.367,412.484l.176.128C129.426,412.648,129.38,412.589,129.367,412.484Z" transform="translate(-124.053 -352.026)" fill="#c9c0b0"/>
        </g>
      </g>
    </g>
  </g>
</svg>
