<svg xmlns="http://www.w3.org/2000/svg" width="129" height="128" viewBox="0 0 129 128">
  <g id="Group_1111726" data-name="Group 1111726" transform="translate(-4062 5577.486)">
    <g id="Grupo_108927" data-name="Grupo 108927" transform="translate(3672 -10044.486)">
      <path id="Rectángulo_36179" data-name="Rectángulo 36179" d="M0,0H129V128H0Z" transform="translate(390 4467)" fill="#c5ffee"/>
    </g>
    <g id="Group_1103470" data-name="Group 1103470" transform="translate(4176.3 -5455.187) rotate(180)">
      <path id="Path_874029" data-name="Path 874029" d="M611.629,544.4l-50.15-28.952V457.536l50.15-28.954,50.15,28.954v57.908Zm-47.884-30.26,47.884,27.645,47.884-27.645V458.844L611.629,431.2l-47.884,27.647Z" transform="translate(-561.479 -428.582)" fill="#00e489"/>
      <path id="Path_874030" data-name="Path 874030" d="M574.457,470.02v52.906l45.818,26.453,45.818-26.453V470.02l-45.818-26.453Z" transform="translate(-570.125 -438.567)" fill="#f2ffd9"/>
    </g>
    <g id="Group_1103471" data-name="Group 1103471" transform="translate(4096.89 -5543.463)">
      <rect id="Rectangle_401104" data-name="Rectangle 401104" width="59.531" height="60.492" transform="translate(-0.89 -0.537)" fill="none"/>
      <g id="Group_1103478" data-name="Group 1103478" transform="translate(-4577.556 -45.533)">
        <path id="Path_879421" data-name="Path 879421" d="M4577.4,200.046c-.506-.154-.819-.472-.719-1.024a.812.812,0,0,1,.946-.7c.523.048.782-.313,1.089-.6q6.736-6.334,13.465-12.674c1.784-1.677,3.424-1.667,5.205.013.811.765,1.654,1.5,2.425,2.3.428.447.669.4,1.1-.012,2.8-2.675,5.627-5.32,8.449-7.972,1.83-1.721,3.464-1.73,5.281-.025s3.6,3.411,5.416,5.092a1.136,1.136,0,0,1,.35,1.545c-.6.408-1.067.21-1.553-.256-1.786-1.713-3.6-3.4-5.4-5.094-1.161-1.094-1.73-1.092-2.907.029-.155.147-.293.313-.438.47a4.869,4.869,0,0,1-.433.344c-.748.475-.588.844.03,1.354,1.385,1.143,2.724,2.344,4.049,3.557,2.1,1.921,4.4,3.635,6.144,5.924a7.1,7.1,0,0,1,1.668,5.96l-.358,1.306a90.009,90.009,0,0,1,11.048-1.023,1.684,1.684,0,0,0-.637-.8q-4.624-4.366-9.261-8.718c-.535-.5-.854-.985-.315-1.662.647-.378,1.091-.034,1.547.4q5.391,5.1,10.8,10.172c.236.221.414.538.82.546a.887.887,0,0,1,.97.8c.072.568-.335.813-.78,1.007a81.937,81.937,0,0,0-20.412,2.32,18.966,18.966,0,0,0-2.966.807c.4.107.692.19.983.259a113.4,113.4,0,0,0,15.159,2.549,45.347,45.347,0,0,0,7.115.418c.492.25,1.076.478.877,1.184-.2.724-.826.713-1.437.661q-4.786-.4-9.572-.8c-4.494-.673-8.979-1.4-13.39-2.512-3.174-.8-6.332-1.672-9.517-2.429a105.9,105.9,0,0,0-16.234-2.408,1.009,1.009,0,0,1-1.071-.929.954.954,0,0,1,1.164-.784,17.1,17.1,0,0,1,1.751.121,1.475,1.475,0,0,0,1.468-.5c1.009-1,2.074-1.94,3.085-2.935a1.231,1.231,0,0,1,1.494-.339,1.07,1.07,0,0,1-.242,1.6c-.48.421-.915.892-1.37,1.341a4.1,4.1,0,0,0-1.114,1.1,4.532,4.532,0,0,0,.6.16,104.413,104.413,0,0,1,16.343,3.253,2.054,2.054,0,0,0,1.255-.1,75.1,75.1,0,0,1,8.073-2.072c1.778-.36,2.083-.667,2.433-2.461a4.8,4.8,0,0,0-.712-3.459,16.055,16.055,0,0,0-3.3-3.744q-3.611-3.2-7.229-6.4c-.984-.873-.981-.877-1.882.1-.234.2-.479.39-.7.6q-4.469,4.206-8.925,8.425a.973.973,0,1,1-1.234-1.273c.922-.824,1.789-1.711,2.712-2.533.407-.361.39-.582-.011-.931-.745-.65-1.445-1.352-2.164-2.033-1.452-1.375-2.059-1.342-3.427.188q-5.555,5.054-10.937,10.292l-1.388,1.228c.893.2,1.912-.149,2.135,1a1.1,1.1,0,0,1-1.288.89C4580.151,200.1,4578.777,200.08,4577.4,200.046Z" transform="translate(0 -105.866)" fill="#42220d"/>
        <path id="Path_879422" data-name="Path 879422" d="M4588.163,292.016a1.007,1.007,0,0,0,1.07.929,105.912,105.912,0,0,1,16.233,2.408c3.185.756,6.342,1.628,9.516,2.429,4.412,1.112,8.9,1.84,13.391,2.512-.307.025-.613.071-.919.071-6.472,0-12.945.085-19.415-.02-8.6-.139-17.2-.137-25.807-.149-1.063,0-1.324-.339-1.444-1.357-.244-2.067-.116-4.137-.161-6.206,1.374.034,2.748.053,4.12.109a1.106,1.106,0,0,0,1.289-.89Z" transform="translate(-3.223 -198.454)" fill="#936444"/>
        <path id="Path_879423" data-name="Path 879423" d="M4650.58,95.27a7.277,7.277,0,1,1,7.3-7.232A7.241,7.241,0,0,1,4650.58,95.27Zm1.956-12.361-.244-.11a5.332,5.332,0,0,0-6.111,1.878,5.45,5.45,0,0,0-.053,6.572,5.327,5.327,0,0,0,6.159,1.949c.157,0,.317,0,.4-.172l.006.006a5.4,5.4,0,0,0-.159-10.135Z" transform="translate(-54.249 -26.628)" fill="#42220d"/>
        <path id="Path_879424" data-name="Path 879424" d="M4782.5,299.719a81.93,81.93,0,0,1,20.412-2.32,35.3,35.3,0,0,1-.122,5.071,68.652,68.652,0,0,1-7.831-.535,102.761,102.761,0,0,1-11.56-1.855C4783.079,300.008,4782.7,300.088,4782.5,299.719Z" transform="translate(-167.514 -202.963)" fill="#774523"/>
        <path id="Path_879425" data-name="Path 879425" d="M4756.278,188.761c.146-.157.284-.322.438-.47,1.177-1.121,1.747-1.123,2.907-.029,1.8,1.7,3.614,3.381,5.4,5.094.487.466.953.664,1.553.256.589.41.964,1.074,1.637,1.386-.54.677-.22,1.163.314,1.663q4.644,4.344,9.261,8.718a1.684,1.684,0,0,1,.637.8,89.983,89.983,0,0,0-11.048,1.023c.133-.487.245-.9.357-1.306,1.374-.177,2.745-.381,4.123-.519.605-.061,1.1-.2,1.313-.825a1.248,1.248,0,0,0-.608-1.437c-1.5-1.154-2.745-2.586-4.141-3.854-3.481-3.16-6.866-6.427-10.265-9.677A2.439,2.439,0,0,0,4756.278,188.761Z" transform="translate(-146.171 -113.486)" fill="#512f14"/>
        <path id="Path_879426" data-name="Path 879426" d="M4769.538,309.884c.2.369.575.289.9.361A102.735,102.735,0,0,0,4782,312.1a68.674,68.674,0,0,0,7.832.535q0,.641,0,1.282a45.357,45.357,0,0,1-7.115-.418,113.44,113.44,0,0,1-15.159-2.549c-.29-.069-.578-.152-.983-.259A18.974,18.974,0,0,1,4769.538,309.884Z" transform="translate(-154.547 -213.128)" fill="#512f14"/>
        <path id="Path_879427" data-name="Path 879427" d="M4677.563,50.429c0-.524-.028-1.05.006-1.571a.852.852,0,0,1,.9-.862.8.8,0,0,1,.836.821c.028,1.108.031,2.218-.01,3.325a.774.774,0,0,1-.877.764.826.826,0,0,1-.847-.813C4677.537,51.54,4677.565,50.984,4677.563,50.429Z" transform="translate(-82.102)" fill="#42220d"/>
        <path id="Path_879428" data-name="Path 879428" d="M4677.566,167.756c0-.493-.01-.986,0-1.479a.837.837,0,0,1,.833-.916.786.786,0,0,1,.914.819c.037,1.076.037,2.156,0,3.232a.809.809,0,0,1-.907.842.87.87,0,0,1-.839-.927C4677.553,168.8,4677.566,168.28,4677.566,167.756Z" transform="translate(-82.11 -95.511)" fill="#42220d"/>
        <path id="Path_879429" data-name="Path 879429" d="M4730.148,116.868c-.522,0-1.049.032-1.569-.009a.845.845,0,0,1-.862-.9.811.811,0,0,1,.838-.82c1.077-.03,2.154-.034,3.23,0a.8.8,0,0,1,.854.891.854.854,0,0,1-.921.842c-.521.026-1.046.006-1.569.006Z" transform="translate(-122.927 -54.623)" fill="#42220d"/>
        <path id="Path_879430" data-name="Path 879430" d="M4612.942,116.868c-.465,0-.931.022-1.394-.006-.515-.031-.9-.263-.924-.839a.8.8,0,0,1,.854-.895c1.083-.034,2.168-.028,3.251.009a.773.773,0,0,1,.783.86.8.8,0,0,1-.806.85c-.584.043-1.176.01-1.764.01Z" transform="translate(-27.635 -54.616)" fill="#42220d"/>
        <path id="Path_879431" data-name="Path 879431" d="M4717.009,153.468a.844.844,0,0,1-.422.864.758.758,0,0,1-.949-.078c-.82-.8-1.649-1.592-2.423-2.435a.768.768,0,0,1,.089-1.1.755.755,0,0,1,1.091-.093c.843.774,1.639,1.6,2.436,2.422A1.1,1.1,0,0,1,4717.009,153.468Z" transform="translate(-110.969 -83.368)" fill="#42220d"/>
        <path id="Path_879432" data-name="Path 879432" d="M4631.232,67.641a1.006,1.006,0,0,1,.709.4q.981.988,1.97,1.97c.433.43.59.908.1,1.369a.854.854,0,0,1-1.308-.105q-1.049-1.053-2.1-2.1a.9.9,0,0,1-.191-1.03A.813.813,0,0,1,4631.232,67.641Z" transform="translate(-43.676 -15.986)" fill="#42220d"/>
        <path id="Path_879433" data-name="Path 879433" d="M4714.1,71.529a.846.846,0,0,1-.775-1.381q1.159-1.2,2.366-2.363a.758.758,0,0,1,1.092,0,.737.737,0,0,1,.185,1.076c-.8.9-1.673,1.736-2.533,2.582C4714.342,71.53,4714.146,71.518,4714.1,71.529Z" transform="translate(-111.047 -15.914)" fill="#42220d"/>
        <path id="Path_879434" data-name="Path 879434" d="M4631.2,154.476a.792.792,0,0,1-.82-.452.829.829,0,0,1,.1-.96c.776-.8,1.561-1.592,2.368-2.36a.762.762,0,0,1,1.091.012.714.714,0,0,1,.215.995,17.9,17.9,0,0,1-2.667,2.693C4631.406,154.474,4631.254,154.464,4631.2,154.476Z" transform="translate(-43.63 -83.403)" fill="#42220d"/>
        <path id="Path_879435" data-name="Path 879435" d="M4697.746,163.266a.833.833,0,0,1-.855-.891.783.783,0,0,1,.9-.817.764.764,0,0,1,.809.819A.829.829,0,0,1,4697.746,163.266Z" transform="translate(-97.84 -92.418)" fill="#42220d"/>
        <path id="Path_879436" data-name="Path 879436" d="M4725.7,96.813c-.115.567-.409.929-.95.883a.874.874,0,0,1,.073-1.746C4725.377,95.956,4725.607,96.366,4725.7,96.813Z" transform="translate(-119.867 -39.026)" fill="#42220d"/>
        <path id="Path_879437" data-name="Path 879437" d="M4698.624,69.777c-.048.589-.362.9-.9.886a.786.786,0,0,1-.828-.815.811.811,0,0,1,.841-.9A.845.845,0,0,1,4698.624,69.777Z" transform="translate(-97.847 -17.05)" fill="#42220d"/>
        <path id="Path_879438" data-name="Path 879438" d="M4725.719,135.212c-.091.481-.32.882-.874.887a.812.812,0,0,1-.872-.874.788.788,0,0,1,.8-.851C4725.325,134.336,4725.605,134.68,4725.719,135.212Z" transform="translate(-119.881 -70.293)" fill="#42220d"/>
        <path id="Path_879439" data-name="Path 879439" d="M4659.5,68.843a.836.836,0,0,1,.824.915.757.757,0,0,1-.808.812.778.778,0,0,1-.877-.841C4658.639,69.173,4658.983,68.915,4659.5,68.843Z" transform="translate(-66.711 -16.966)" fill="#42220d"/>
        <path id="Path_879440" data-name="Path 879440" d="M4632.4,136.147c-.527-.08-.864-.349-.867-.9a.778.778,0,0,1,.793-.846.787.787,0,0,1,.905.82C4633.255,135.785,4632.9,136.039,4632.4,136.147Z" transform="translate(-44.65 -70.316)" fill="#42220d"/>
        <path id="Path_879441" data-name="Path 879441" d="M4633.233,96.668c0,.7-.34,1.015-.849,1.032a.8.8,0,0,1-.857-.793.862.862,0,0,1,1.706-.24Z" transform="translate(-44.644 -39.032)" fill="#42220d"/>
        <path id="Path_879442" data-name="Path 879442" d="M4660.338,162.44a.774.774,0,0,1-.861.831.786.786,0,0,1-.826-.893.754.754,0,0,1,.817-.8A.78.78,0,0,1,4660.338,162.44Z" transform="translate(-66.72 -92.435)" fill="#42220d"/>
        <path id="Path_879443" data-name="Path 879443" d="M4660.58,225.108c.454-.449.89-.92,1.369-1.341a1.069,1.069,0,0,0,.241-1.6,5.42,5.42,0,0,0,1.579-1.394,1.19,1.19,0,0,0,1.647-.271q4.444-4.232,8.925-8.425c.224-.211.469-.4.7-.6a10.7,10.7,0,0,1,1.448,1.148c1.865,1.662,3.771,3.277,5.626,4.949a20.392,20.392,0,0,1,4.283,4.579c1.179,2,.553,3.8-1.523,4.236a63.434,63.434,0,0,0-7.335,1.9,2.2,2.2,0,0,1-1.35.011,94.656,94.656,0,0,0-11.367-2.472C4663.405,225.631,4662,225.351,4660.58,225.108Zm14.508-9.832a.839.839,0,0,0-.862.873.787.787,0,0,0,.889.837.775.775,0,0,0,.834-.8A.844.844,0,0,0,4675.088,215.276Zm9.7,8.95a.814.814,0,0,0-.853-.922.791.791,0,0,0-.858.874.775.775,0,0,0,.8.832A.792.792,0,0,0,4684.792,224.226Zm-11.543-4.759c-.083-.529-.359-.877-.906-.859a.79.79,0,0,0-.835.895.763.763,0,0,0,.829.8C4672.9,220.312,4673.158,219.978,4673.249,219.466Z" transform="translate(-68.29 -133.043)" fill="#774523"/>
        <path id="Path_879444" data-name="Path 879444" d="M4605.661,234.9q5.4-5.224,10.938-10.292a4.416,4.416,0,0,1,1.962,1.485,1.911,1.911,0,0,1,.009,3c-1.567,1.535-3.127,3.079-4.759,4.544-.717.644-1.386,1.49-2.456,1.561A25.99,25.99,0,0,1,4605.661,234.9Z" transform="translate(-23.596 -143.729)" fill="#774523"/>
        <path id="Path_879445" data-name="Path 879445" d="M4655.708,221.862c1.415.243,2.825.522,4.247.721a94.691,94.691,0,0,1,11.367,2.472,2.2,2.2,0,0,0,1.35-.011,63.458,63.458,0,0,1,7.334-1.9c2.076-.436,2.7-2.236,1.523-4.236a20.4,20.4,0,0,0-4.282-4.579c-1.856-1.672-3.763-3.287-5.627-4.949a10.709,10.709,0,0,0-1.449-1.148c.9-.975.9-.971,1.882-.1q3.612,3.2,7.229,6.4a16.01,16.01,0,0,1,3.3,3.744,4.8,4.8,0,0,1,.712,3.459c-.349,1.793-.654,2.1-2.432,2.461a75.192,75.192,0,0,0-8.073,2.072,2.053,2.053,0,0,1-1.255.1,104.41,104.41,0,0,0-16.343-3.253,4.508,4.508,0,0,1-.6-.16A4.08,4.08,0,0,1,4655.708,221.862Z" transform="translate(-63.419 -129.797)" fill="#512f14"/>
        <path id="Path_879446" data-name="Path 879446" d="M4752.2,194.495a2.44,2.44,0,0,1,1.88.827c3.4,3.25,6.784,6.517,10.264,9.677,1.4,1.268,2.639,2.7,4.143,3.854a1.248,1.248,0,0,1,.607,1.437c-.211.621-.708.764-1.313.825-1.377.139-2.749.342-4.123.519a7.1,7.1,0,0,0-1.667-5.96c-1.742-2.29-4.044-4-6.144-5.924-1.326-1.212-2.664-2.414-4.049-3.557-.619-.51-.78-.879-.031-1.354A4.935,4.935,0,0,0,4752.2,194.495Z" transform="translate(-142.094 -119.22)" fill="#936444"/>
        <path id="Path_879447" data-name="Path 879447" d="M4599.594,229.722a25.986,25.986,0,0,0,5.694.3c1.069-.071,1.738-.917,2.456-1.561,1.631-1.464,3.192-3.008,4.758-4.544a1.911,1.911,0,0,0-.009-3,4.413,4.413,0,0,0-1.962-1.485c1.369-1.53,1.976-1.563,3.427-.188.72.681,1.419,1.383,2.164,2.033.4.349.417.57.011.931-.924.822-1.79,1.708-2.712,2.533a1.182,1.182,0,0,0-.413,1.543,5.42,5.42,0,0,1-1.579,1.394,1.231,1.231,0,0,0-1.493.339c-1.011.995-2.076,1.937-3.085,2.935a1.475,1.475,0,0,1-1.467.5,17.1,17.1,0,0,0-1.752-.121.954.954,0,0,0-1.164.784l-2.126-.163c-.224-1.149-1.242-.8-2.135-1Z" transform="translate(-17.53 -138.552)" fill="#512f14"/>
        <path id="Path_879448" data-name="Path 879448" d="M4659.833,100.838a5.326,5.326,0,0,1-6.159-1.949,5.452,5.452,0,0,1,.052-6.572,5.332,5.332,0,0,1,6.111-1.878l.245.11v-.012c.014.357.315.514.522.728a6.4,6.4,0,0,1,.078,8.643c-.2.22-.491.4-.441.765l0-.006A.357.357,0,0,0,4659.833,100.838Z" transform="translate(-61.795 -34.268)" fill="#774523"/>
        <path id="Path_879449" data-name="Path 879449" d="M4692.955,102.564c-.051-.368.236-.544.441-.765a6.4,6.4,0,0,0-.078-8.643c-.207-.214-.508-.371-.521-.728a5.4,5.4,0,0,1,.158,10.135Z" transform="translate(-94.509 -36.16)" fill="#512f14"/>
        <path id="Path_879450" data-name="Path 879450" d="M4691.457,146.969a.357.357,0,0,1,.4-.172C4691.774,146.97,4691.615,146.966,4691.457,146.969Z" transform="translate(-93.418 -80.399)" fill="#42220d"/>
        <path id="Path_879451" data-name="Path 879451" d="M4691.729,92.013l-.245-.11Z" transform="translate(-93.44 -35.732)" fill="#42220d"/>
        <path id="Path_879452" data-name="Path 879452" d="M4734.734,231.88a.845.845,0,0,1,.861.908.776.776,0,0,1-.834.8.788.788,0,0,1-.889-.837A.839.839,0,0,1,4734.734,231.88Z" transform="translate(-127.936 -149.647)" fill="#512f14"/>
        <path id="Path_879453" data-name="Path 879453" d="M4783.144,275.92a.792.792,0,0,1-.907.783.775.775,0,0,1-.8-.832.791.791,0,0,1,.858-.874A.814.814,0,0,1,4783.144,275.92Z" transform="translate(-166.642 -184.737)" fill="#512f14"/>
        <path id="Path_879454" data-name="Path 879454" d="M4721.01,250.63c-.09.511-.344.845-.913.832a.763.763,0,0,1-.829-.8.789.789,0,0,1,.834-.895C4720.651,249.753,4720.927,250.1,4721.01,250.63Z" transform="translate(-116.051 -164.207)" fill="#512f14"/>
      </g>
    </g>
  </g>
</svg>
