<svg xmlns="http://www.w3.org/2000/svg" width="129" height="128" viewBox="0 0 129 128">
  <g id="Group_1111722" data-name="Group 1111722" transform="translate(-180 -5807.514)">
    <g id="Grupo_108927" data-name="Grupo 108927" transform="translate(-210 1340.514)">
      <path id="Rectángulo_36179" data-name="Rectángulo 36179" d="M0,0H129V128H0Z" transform="translate(390 4467)" fill="#c5ffee"/>
    </g>
    <g id="Group_1103461" data-name="Group 1103461" transform="translate(294.3 5929.813) rotate(180)">
      <path id="Path_874029" data-name="Path 874029" d="M611.629,544.4l-50.15-28.952V457.536l50.15-28.954,50.15,28.954v57.908Zm-47.884-30.26,47.884,27.645,47.884-27.645V458.844L611.629,431.2l-47.884,27.647Z" transform="translate(-561.479 -428.582)" fill="#00e489"/>
      <path id="Path_874030" data-name="Path 874030" d="M574.457,470.02v52.906l45.818,26.453,45.818-26.453V470.02l-45.818-26.453Z" transform="translate(-570.125 -438.567)" fill="#f2ffd9"/>
    </g>
    <g id="Group_1103465" data-name="Group 1103465" transform="translate(219.89 5841.537)">
      <rect id="Rectangle_401104" data-name="Rectangle 401104" width="59.531" height="60.492" transform="translate(-5.89 -0.537)" fill="none"/>
      <g id="Group_1103476" data-name="Group 1103476" transform="translate(-3785.87 -6.842)">
        <path id="Path_879385" data-name="Path 879385" d="M3810.129,11.327c5.633,0,11.267.035,16.9-.02a3.837,3.837,0,0,1,3.9,2.492c.761,1.767,1.458,3.564,2.137,5.365.173.461.385.687.875.6a.452.452,0,0,1,.082,0c2.516.023,2.215-.332,2.229,2.285q.01,1.837,0,3.673c0,.929-.148,1.065-1.105,1.072-.271,0-.544,0-.816,0-1.113,0-1.08,0-1.18,1.153-.339,3.873-.7,7.744-1.056,11.615q-.455,5-.907,9.99c-.161,1.76-.342,3.517-.492,5.278-.051.6-.382.768-.925.764q-2.613-.018-5.225,0c-.232,0-.58-.178-.675.234s.23.467.509.591a3.021,3.021,0,0,1,1.847,3.211,2.992,2.992,0,0,1-5.89.194,2.978,2.978,0,0,1,1.767-3.4c.262-.118.631-.137.546-.568-.092-.467-.48-.266-.733-.266q-11.8-.017-23.594,0c-.253,0-.641-.2-.734.264-.087.43.281.451.543.57a2.97,2.97,0,0,1,1.748,3.474,3.035,3.035,0,0,1-3.081,2.286,2.992,2.992,0,0,1-.942-5.769c.277-.123.6-.175.51-.59s-.442-.232-.675-.235c-1.687-.016-3.375-.033-5.061,0-.747.016-1.046-.227-1.113-1.012-.384-4.442-.833-8.878-1.242-13.317q-.612-6.619-1.185-13.241c-.106-1.234-.068-1.237-1.264-1.237-1.843,0-1.843,0-1.843-1.806,0-1.415.019-2.83-.008-4.245-.013-.672.193-1.007.93-.995.668.011,1.5.3,1.969-.126.455-.4.568-1.2.822-1.825.529-1.306,1.017-2.63,1.584-3.92a3.965,3.965,0,0,1,4.026-2.575C3798.917,11.367,3804.523,11.327,3810.129,11.327Zm-.008,18.925h-20.41c-1.239,0-1.238,0-1.134,1.254,0,.027,0,.055,0,.082.321,3.2.65,6.407.96,9.612.283,2.936.587,5.872.789,8.814.056.82.329.962,1.067.961q18.451-.03,36.9-.014c1.441,0,1.437,0,1.588-1.459.025-.239.126-.47.148-.709.279-2.99.549-5.982.826-8.973.267-2.882.528-5.764.819-8.643.066-.663-.022-.949-.821-.945C3823.945,30.267,3817.033,30.252,3810.121,30.252Zm-.081-4.717h12.492c3.864,0,7.729-.023,11.593.019.779.009.979-.241.93-.965-.056-.84-.009-1.686-.014-2.53-.008-1.288.119-1.151-1.12-1.151q-23.8,0-47.6,0a4.079,4.079,0,0,1-.49,0c-.517-.063-.651.188-.639.665.026.979.058,1.962-.009,2.937-.054.8.155,1.054,1.014,1.05C3794.147,25.52,3802.094,25.535,3810.041,25.535Zm22.012-5.757c-.8-1.97-1.5-3.792-2.278-5.583a2.482,2.482,0,0,0-2.549-1.615q-17.189.066-34.378.012a2.213,2.213,0,0,0-2.131,1.21c-.982,1.765-1.518,3.717-2.33,5.553-.212.479.1.421.374.422.925,0,1.852-.026,2.776.012.53.022.642-.2.626-.672-.029-.87.02-1.743-.016-2.612-.03-.723.311-.963.981-.962q6.778.013,13.556,0c.682,0,1,.276.989.974-.021.9.01,1.8-.01,2.694-.01.413.12.583.556.575q1.879-.032,3.756,0c.456.009.628-.136.614-.6-.028-.9,0-1.8-.012-2.694-.01-.649.283-.945.934-.944q6.859.009,13.719,0c.605,0,.889.274.871.9-.025.925,0,1.851-.01,2.776-.005.351.061.565.485.558C3829.686,19.765,3830.8,19.778,3832.052,19.778Zm-21.921,7.029h-.49q-10.249,0-20.5,0c-.288,0-.744-.144-.834.128a2.824,2.824,0,0,0,.093,1.757c.136.412.5.259.766.259q20.946.011,41.893.005c.834,0,.9-.2.965-1.534.039-.827-.5-.614-.908-.615Q3820.625,26.8,3810.131,26.807Zm-.022,25.316h-18.277c-1.246,0-1.169,0-1.184,1.254-.011.9.329,1.038,1.13,1.036q18.114-.036,36.228-.017c1.371,0,1.32-.011,1.625-1.365.17-.754,0-.927-.755-.924C3822.62,52.134,3816.364,52.123,3810.108,52.123ZM3800,16.784c-1.469,0-2.938-.017-4.407.007-.725.012-1.672-.32-2.115.146s-.067,1.4-.143,2.126c-.062.594.182.716.735.712,3.346-.024,6.692,0,10.039-.019.753,0,1.746.335,2.194-.147s.07-1.456.138-2.21c.047-.523-.158-.633-.646-.627C3803.862,16.8,3801.929,16.784,3800,16.784Zm20.339,2.98c1.469,0,2.938.017,4.407-.007.7-.012,1.6.313,2.031-.147s.054-1.354.139-2.049-.222-.794-.827-.789c-3.319.026-6.638,0-9.958.02-.75,0-1.774-.342-2.176.152-.378.465-.093,1.451-.147,2.2-.038.521.171.632.654.626C3816.419,19.75,3818.378,19.764,3820.337,19.764Zm-22.789,37.755c0,.589,0,1.074,0,1.559,0,.379-.154.668-.541.681-.432.015-.61-.289-.614-.7,0-.3.011-.6-.008-.9-.011-.176.109-.427-.1-.514-.229-.1-.394.119-.548.267a1.957,1.957,0,0,0-.359,2.047,1.7,1.7,0,0,0,1.965.955,1.524,1.524,0,0,0,1.335-1.341A1.743,1.743,0,0,0,3797.548,57.519Zm26.294.048c0,.6.018,1.12-.006,1.633a.546.546,0,0,1-.579.563.541.541,0,0,1-.555-.582c-.012-.408-.013-.816-.006-1.224.008-.454-.17-.443-.479-.219a1.852,1.852,0,0,0-.54,2.2,1.606,1.606,0,0,0,1.85.986,1.586,1.586,0,0,0,1.443-1.332A1.678,1.678,0,0,0,3823.843,57.568Z" fill="#4c4c4c"/>
        <path id="Path_879386" data-name="Path 879386" d="M3833.437,127.139c6.912,0,13.824.015,20.737-.021.8,0,.887.282.82.945-.291,2.879-.552,5.761-.819,8.643-.277,2.991-.546,5.982-.825,8.973-.022.239-.123.47-.148.709-.152,1.459-.148,1.459-1.589,1.459q-18.45,0-36.9.014c-.738,0-1.011-.142-1.067-.961-.2-2.942-.506-5.878-.789-8.814-.309-3.2-.639-6.408-.96-9.612,0-.027,0-.054,0-.082-.1-1.254-.1-1.254,1.134-1.254Zm-10.6,16.012a11.371,11.371,0,0,0-.139-1.505c-.3-3.426-.563-6.855-.851-10.282a3.133,3.133,0,1,0-6.2.788c.211,1.472.327,2.958.454,4.441.2,2.315.292,4.641.571,6.945a3.151,3.151,0,0,0,3.274,3A3.021,3.021,0,0,0,3822.841,143.151Zm21.194-.232a3.239,3.239,0,0,0,.406,2.167,3.2,3.2,0,0,0,3.084,1.4,3.292,3.292,0,0,0,2.684-2.906c.231-2.29.37-4.59.565-6.884.129-1.511.236-3.027.45-4.527a3.185,3.185,0,0,0-2.334-3.685,3.142,3.142,0,0,0-3.707,2.163,9.778,9.778,0,0,0-.3,2.33C3844.557,136.285,3844.31,139.6,3844.035,142.919ZM3831.99,137.5c0-1.957.008-3.914,0-5.871a3.06,3.06,0,0,0-3.065-3.212,3.13,3.13,0,0,0-3.164,3.225c-.019,3.887-.043,7.774.009,11.66a3.012,3.012,0,0,0,3.08,3.226,3.1,3.1,0,0,0,3.15-3.239C3831.963,141.356,3831.99,139.425,3831.99,137.5Zm2.9-.069c0,1.957.029,3.914-.009,5.87a3.1,3.1,0,0,0,3.081,3.229,3.011,3.011,0,0,0,3.145-3.16c.068-3.939.043-7.881.009-11.821a3.108,3.108,0,0,0-3.255-3.13,3.064,3.064,0,0,0-2.97,3.224C3834.881,133.567,3834.887,135.5,3834.888,137.427Z" transform="translate(-23.316 -96.887)" fill="#7a7a7a"/>
        <path id="Path_879387" data-name="Path 879387" d="M3816.177,74.63c-7.947,0-15.893-.015-23.839.022-.86,0-1.069-.251-1.014-1.05.067-.975.034-1.958.009-2.937-.012-.477.122-.728.639-.665a4.075,4.075,0,0,0,.49,0q23.8,0,47.6,0c1.239,0,1.112-.137,1.12,1.151.005.844-.042,1.69.014,2.53.049.723-.151.974-.93.965-3.864-.043-7.729-.019-11.593-.019Z" transform="translate(-6.136 -49.095)" fill="#7a7a7a"/>
        <path id="Path_879388" data-name="Path 879388" d="M3854.241,26.307c-1.255,0-2.367-.012-3.478.006-.424.007-.49-.207-.485-.558.012-.925-.016-1.851.01-2.776.018-.629-.266-.9-.871-.9q-6.86,0-13.719,0c-.651,0-.944.295-.933.944.015.9-.017,1.8.011,2.694.015.467-.157.612-.613.6q-1.877-.036-3.756,0c-.436.008-.565-.162-.556-.575.021-.9-.01-1.8.011-2.694.016-.7-.308-.975-.99-.974q-6.777.014-13.555,0c-.671,0-1.012.239-.982.962.036.869-.012,1.742.016,2.612.016.472-.1.693-.626.672-.924-.038-1.85-.008-2.776-.012-.272,0-.585.058-.374-.422.813-1.836,1.348-3.788,2.33-5.553a2.213,2.213,0,0,1,2.131-1.21q17.19.03,34.378-.012a2.481,2.481,0,0,1,2.549,1.615C3852.738,22.515,3853.441,24.337,3854.241,26.307Z" transform="translate(-22.188 -6.529)" fill="#7a7a7a"/>
        <path id="Path_879389" data-name="Path 879389" d="M3831.764,105.994q10.493,0,20.987.005c.412,0,.946-.212.908.615-.062,1.338-.131,1.534-.965,1.534q-20.947,0-41.893-.005c-.268,0-.63.153-.766-.259a2.817,2.817,0,0,1-.092-1.757c.09-.272.545-.127.834-.128q10.249-.009,20.5,0Z" transform="translate(-21.633 -79.187)" fill="#7a7a7a"/>
        <path id="Path_879390" data-name="Path 879390" d="M3844.234,261c6.255,0,12.511.011,18.767-.015.754,0,.925.169.756.923-.3,1.354-.255,1.365-1.625,1.365q-18.114,0-36.228.017c-.8,0-1.141-.14-1.13-1.036.015-1.253-.062-1.254,1.184-1.254Z" transform="translate(-34.126 -208.875)" fill="#7a7a7a"/>
        <path id="Path_879391" data-name="Path 879391" d="M3855.161,294.095a1.743,1.743,0,0,1,1.133,2.058,1.524,1.524,0,0,1-1.335,1.341,1.7,1.7,0,0,1-1.966-.955,1.96,1.96,0,0,1,.359-2.047c.154-.148.32-.362.548-.267.209.087.089.338.1.514.019.3.006.6.008.9,0,.41.182.714.614.7.386-.013.545-.3.541-.681C3855.157,295.169,3855.161,294.684,3855.161,294.095Z" transform="translate(-57.613 -236.576)" fill="#7a7a7a"/>
        <path id="Path_879392" data-name="Path 879392" d="M4016.055,294.391a1.679,1.679,0,0,1,1.128,2.029,1.588,1.588,0,0,1-1.444,1.332,1.606,1.606,0,0,1-1.849-.986,1.852,1.852,0,0,1,.54-2.2c.309-.224.487-.235.479.219-.007.408-.006.816.007,1.224a.54.54,0,0,0,.555.582.547.547,0,0,0,.579-.563C4016.073,295.511,4016.055,295,4016.055,294.391Z" transform="translate(-192.212 -236.823)" fill="#7a7a7a"/>
        <path id="Path_879393" data-name="Path 879393" d="M3842.1,149.721a3.021,3.021,0,0,1-2.891,3.382,3.151,3.151,0,0,1-3.274-3c-.278-2.3-.374-4.63-.571-6.945-.126-1.483-.242-2.969-.454-4.441a3.133,3.133,0,1,1,6.2-.788c.287,3.427.553,6.856.851,10.282A11.538,11.538,0,0,1,3842.1,149.721Zm-1.15.2c0-.136.01-.272,0-.407-.279-3.267-.548-6.535-.851-9.8a7.906,7.906,0,0,0-.315-2.328,1.874,1.874,0,0,0-2.3-1.18,1.907,1.907,0,0,0-1.429,2c.274,2.967.484,5.941.793,8.9a20.224,20.224,0,0,0,.331,3.309,1.873,1.873,0,0,0,2.3,1.423A1.7,1.7,0,0,0,3840.948,149.924Z" transform="translate(-42.573 -103.457)" fill="#4c4c4c"/>
        <path id="Path_879394" data-name="Path 879394" d="M4008.686,149.4c.275-3.316.522-6.634.845-9.945a9.791,9.791,0,0,1,.3-2.33,3.142,3.142,0,0,1,3.707-2.163,3.186,3.186,0,0,1,2.335,3.685c-.214,1.5-.322,3.016-.451,4.527-.2,2.294-.334,4.594-.565,6.884a3.292,3.292,0,0,1-2.683,2.906,3.205,3.205,0,0,1-3.085-1.4A3.243,3.243,0,0,1,4008.686,149.4Zm1.148-.037c-.034,1.749.659,2.44,2.026,2.405,1.076-.027,1.774-.784,1.894-2.14.289-3.239.556-6.48.828-9.72a17.456,17.456,0,0,0,.145-2.185,1.932,1.932,0,0,0-1.9-1.687,2.031,2.031,0,0,0-2.013,1.957c-.1.89-.121,1.788-.2,2.68C4010.351,143.7,4010.073,146.72,4009.834,149.364Z" transform="translate(-187.966 -103.369)" fill="#4c4c4c"/>
        <path id="Path_879395" data-name="Path 879395" d="M3903.071,144.12c0,1.93-.027,3.86.008,5.789a3.1,3.1,0,0,1-3.15,3.239,3.012,3.012,0,0,1-3.08-3.226c-.052-3.886-.028-7.773-.009-11.66a3.13,3.13,0,0,1,3.163-3.225,3.06,3.06,0,0,1,3.065,3.212C3903.079,140.206,3903.071,142.163,3903.071,144.12Zm-1.15.01c0-1.9,0-3.808,0-5.712a2,2,0,0,0-1.861-2.237,1.937,1.937,0,0,0-2.042,2.061q-.06,5.874,0,11.749a1.777,1.777,0,0,0,2.1,1.92,1.811,1.811,0,0,0,1.793-2.07C3901.925,147.937,3901.92,146.034,3901.92,144.13Z" transform="translate(-94.396 -103.511)" fill="#4c4c4c"/>
        <path id="Path_879396" data-name="Path 879396" d="M3952.761,144.052c0-1.93-.006-3.859,0-5.789a3.064,3.064,0,0,1,2.969-3.224,3.108,3.108,0,0,1,3.254,3.13c.035,3.94.059,7.882-.009,11.821a3.011,3.011,0,0,1-3.145,3.16,3.1,3.1,0,0,1-3.081-3.229C3952.791,147.966,3952.761,146.008,3952.761,144.052Zm1.15-.014c0,1.985-.01,3.971,0,5.956a1.774,1.774,0,0,0,1.859,1.918c1.369.024,2.043-.686,2.054-2.234.018-2.366.008-4.732,0-7.1,0-1.5.042-2.994-.04-4.486a1.9,1.9,0,0,0-2.01-1.912,1.973,1.973,0,0,0-1.87,2.144C3953.906,140.23,3953.911,142.134,3953.911,144.038Z" transform="translate(-141.189 -103.512)" fill="#4c4c4c"/>
        <path id="Path_879397" data-name="Path 879397" d="M3846.971,155.856a1.7,1.7,0,0,1-1.464,1.922,1.873,1.873,0,0,1-2.3-1.423,20.224,20.224,0,0,1-.331-3.309c-.309-2.964-.519-5.937-.793-8.9a1.907,1.907,0,0,1,1.429-2,1.874,1.874,0,0,1,2.3,1.18,7.939,7.939,0,0,1,.315,2.328c.3,3.265.572,6.533.851,9.8C3846.981,155.583,3846.971,155.72,3846.971,155.856Z" transform="translate(-48.596 -109.389)" fill="#adaaaa"/>
        <path id="Path_879398" data-name="Path 879398" d="M4015.806,155.356c.239-2.645.517-5.667.784-8.69.079-.892.1-1.79.2-2.68a2.031,2.031,0,0,1,2.013-1.957,1.932,1.932,0,0,1,1.9,1.687,17.41,17.41,0,0,1-.145,2.185c-.272,3.24-.539,6.481-.828,9.72-.121,1.355-.818,2.112-1.895,2.14C4016.464,157.8,4015.771,157.106,4015.806,155.356Z" transform="translate(-193.938 -109.361)" fill="#adaaaa"/>
        <path id="Path_879399" data-name="Path 879399" d="M3907.9,149.974c0,1.9,0,3.808,0,5.712a1.811,1.811,0,0,1-1.793,2.07,1.777,1.777,0,0,1-2.1-1.92q-.074-5.874,0-11.749a1.938,1.938,0,0,1,2.042-2.061,2,2,0,0,1,1.861,2.237Q3907.907,147.118,3907.9,149.974Z" transform="translate(-100.378 -109.355)" fill="#adaaaa"/>
        <path id="Path_879400" data-name="Path 879400" d="M3959.833,149.883c0-1.9,0-3.808,0-5.712a1.973,1.973,0,0,1,1.871-2.144,1.9,1.9,0,0,1,2.01,1.912c.082,1.491.037,2.99.04,4.485,0,2.366.013,4.732,0,7.1-.012,1.548-.685,2.258-2.054,2.234a1.773,1.773,0,0,1-1.859-1.918C3959.823,153.853,3959.833,151.868,3959.833,149.883Z" transform="translate(-147.111 -109.357)" fill="#adaaaa"/>
      </g>
    </g>
  </g>
</svg>
