<svg xmlns="http://www.w3.org/2000/svg" xmlns:xlink="http://www.w3.org/1999/xlink" width="129" height="128" viewBox="0 0 129 128">
  <defs>
    <clipPath id="clip-path">
      <rect id="Rectangle_400938" data-name="Rectangle 400938" width="120" height="120" fill="none"/>
    </clipPath>
  </defs>
  <g id="Group_1111728" data-name="Group 1111728" transform="translate(-180.711 -6121.907)">
    <g id="Group_1111656" data-name="Group 1111656" transform="translate(-3881.289 11699.394)">
      <g id="Group_1111726" data-name="Group 1111726">
        <g id="Grupo_108927" data-name="Grupo 108927" transform="translate(3672 -10044.486)">
          <path id="Rectángulo_36179" data-name="Rectángulo 36179" d="M0,0H129V128H0Z" transform="translate(390 4467)" fill="#c5ffee"/>
        </g>
        <g id="Group_1103470" data-name="Group 1103470" transform="translate(4176.3 -5455.187) rotate(180)">
          <path id="Path_874029" data-name="Path 874029" d="M611.629,544.4l-50.15-28.952V457.536l50.15-28.954,50.15,28.954v57.908Zm-47.884-30.26,47.884,27.645,47.884-27.645V458.844L611.629,431.2l-47.884,27.647Z" transform="translate(-561.479 -428.582)" fill="#00e489"/>
          <path id="Path_874030" data-name="Path 874030" d="M574.457,470.02v52.906l45.818,26.453,45.818-26.453V470.02l-45.818-26.453Z" transform="translate(-570.125 -438.567)" fill="#f2ffd9"/>
        </g>
      </g>
    </g>
    <g id="Group_1111727" data-name="Group 1111727" transform="translate(215.16 6149.367)">
      <rect id="Rectangle_401104" data-name="Rectangle 401104" width="62" height="63" transform="translate(-1.16 -0.736)" fill="none"/>
      <g id="Group_1103494" data-name="Group 1103494" transform="translate(-6522.121 -49.011)">
        <path id="Path_879513" data-name="Path 879513" d="M6571.164,77.644q.4.851.793,1.7c-.553.618-.285,1.181.067,1.787q7.917,13.621,15.813,27.254c1.342,2.315.305,4.163-2.354,4.162q-25.349,0-50.7-.024c-2.625,0-3.674-1.813-2.365-4.073q12.659-21.845,25.326-43.685c1.363-2.35,3.4-2.355,4.768-.018q3.554,6.093,7.091,12.2C6569.963,77.564,6570.352,78.062,6571.164,77.644Zm-13.3,23.608a4.711,4.711,0,0,1-4.334,1.192c-.621-.123-1.184-.112-1.333.622-.158.788.411,1.033,1.049,1.149a6.338,6.338,0,0,0,6.146-2c.7-.764.73-1.024,1.6-.041a6.282,6.282,0,0,0,6.127,2.055c.63-.111,1.227-.314,1.1-1.11s-.731-.791-1.382-.662a4.751,4.751,0,0,1-3.841-.814c-.455-.325-.524-.5.075-.788a6.906,6.906,0,0,0,4.159-6.784c-.013-.759.234-.68.736-.433a4.741,4.741,0,0,1,2.481,5.131c-.13.661-.169,1.261.593,1.427.831.18,1.067-.443,1.172-1.123a6.465,6.465,0,0,0-5.021-7.571c-.874-.231-1.175-.728-.9-1.577a6.608,6.608,0,0,0,.33-1.843,6.386,6.386,0,0,0-3.19-5.9.859.859,0,0,0-1.125.044.838.838,0,0,0-.223,1.027c.146.333.488.472.765.674a4.676,4.676,0,0,1,1.993,4.318c-.025.384-.047.718-.592.36a6.957,6.957,0,0,0-8.195-.016c-.494.321-.585.134-.614-.316a4.636,4.636,0,0,1,2.13-4.429c.542-.364.989-.779.534-1.45s-1.023-.377-1.554-.031a6.514,6.514,0,0,0-2.636,7.262c.374,1.236.168,1.612-1.064,1.961a6.521,6.521,0,0,0-4.56,7.862c.17.565.506.892,1.1.757a.828.828,0,0,0,.626-1.088,6.881,6.881,0,0,1-.075-1.969,4.248,4.248,0,0,1,3.057-3.6C6553.15,97.66,6553.967,98.965,6557.86,101.252Zm-21.7,7.76c.292-.514.5-.892.721-1.266q8.42-14.524,16.844-29.045c.352-.606.568-1.217-.118-1.643-.721-.448-1.151.084-1.479.68-.045.083-.088.166-.135.248l-15.951,27.485c-.708,1.219-1.426,2.433-2.119,3.66-.586,1.039-.208,1.712.963,1.752.219.008.439,0,.66,0l49.373-.02c.22,0,.441.012.66-.005.9-.072,1.256-.675.859-1.5-.2-.423-.456-.821-.692-1.228-.927-1.6-1.85-3.2-2.79-4.8-.27-.456-.646-.839-1.226-.532a.936.936,0,0,0-.351,1.442c.168.3.341.6.514.9.728,1.26,1.457,2.521,2.236,3.87Zm23.961-41.34c.235.378.387.61.526.849q3.262,5.608,6.519,11.218,5.921,10.208,11.837,20.418c.063.108.126.217.183.329.31.622.814.955,1.451.61.708-.384.462-.974.137-1.537q-9.809-16.921-19.61-33.845c-.663-1.143-1.4-1.128-2.08.034q-2.3,3.936-4.577,7.885a4.361,4.361,0,0,0-.29.588.827.827,0,0,0,.369,1.13.911.911,0,0,0,1.19-.245,5.772,5.772,0,0,0,.441-.72C6557.491,72.195,6558.765,70,6560.119,67.672Zm19.478,39.856c.671.015,1.354-.06,1.34-.916s-.705-.894-1.369-.889-1.345.044-1.334.917S6578.953,107.52,6579.6,107.528Zm-38.809,0c1.044.008,1.633-.463,1.372-1.142-.353-.914-1.182-.669-1.869-.642a.819.819,0,0,0-.838.941C6539.534,107.468,6540.152,107.545,6540.788,107.526Zm18.426-34.407c-.023.527.106,1.123.888,1.147s.94-.556.937-1.214c0-.636-.1-1.255-.885-1.276S6559.214,72.346,6559.214,73.119Z" transform="translate(-8.029 -7.891)" fill="#050505"/>
        <path id="Path_879514" data-name="Path 879514" d="M6563.134,69.753c-.812.418-1.2-.08-1.559-.7q-3.538-6.1-7.091-12.2c-1.363-2.337-3.4-2.332-4.767.018q-12.669,21.839-25.326,43.685c-1.31,2.26-.261,4.071,2.364,4.073q25.35.02,50.7.024c2.659,0,3.7-1.847,2.354-4.162q-7.9-13.63-15.813-27.254c-.352-.606-.62-1.169-.066-1.787.8-.223,1.25.133,1.652.831,5.293,9.172,10.563,18.357,15.95,27.473a4.411,4.411,0,0,1-3.92,6.762c-17.021-.1-34.041-.043-51.062-.047-3.775,0-5.75-3.393-3.858-6.66q12.786-22.084,25.6-44.153a4.243,4.243,0,0,1,7.612-.039c2.44,4.162,4.848,8.344,7.278,12.511C6563.506,68.7,6563.654,69.226,6563.134,69.753Z" transform="translate(0)" fill="#3a3a3a"/>
        <path id="Path_879515" data-name="Path 879515" d="M6627.509,182.919c-3.893-2.287-4.709-3.592-4.868-7.7a4.251,4.251,0,0,0-3.057,3.6,6.9,6.9,0,0,0,.076,1.969.829.829,0,0,1-.627,1.088c-.594.135-.93-.192-1.1-.757a6.522,6.522,0,0,1,4.561-7.862c1.233-.348,1.438-.725,1.063-1.96a6.515,6.515,0,0,1,2.637-7.262c.53-.346,1.091-.651,1.553.031s.009,1.086-.534,1.45a4.636,4.636,0,0,0-2.13,4.429c.028.45.12.637.615.316a6.957,6.957,0,0,1,8.194.016c.546.358.567.024.592-.36a4.674,4.674,0,0,0-1.993-4.318c-.276-.2-.619-.341-.765-.674a.837.837,0,0,1,.224-1.027.859.859,0,0,1,1.125-.044,6.383,6.383,0,0,1,3.189,5.9,6.572,6.572,0,0,1-.329,1.843c-.271.849.03,1.347.9,1.577a6.465,6.465,0,0,1,5.021,7.571c-.106.68-.342,1.3-1.172,1.123-.763-.166-.724-.765-.593-1.427a4.74,4.74,0,0,0-2.48-5.131c-.5-.247-.75-.327-.736.433a6.906,6.906,0,0,1-4.16,6.784c-.6.291-.53.462-.075.788a4.752,4.752,0,0,0,3.842.814c.65-.129,1.251-.145,1.381.662s-.469,1-1.1,1.11a6.279,6.279,0,0,1-6.126-2.055c-.874-.983-.9-.723-1.6.041a6.337,6.337,0,0,1-6.146,2c-.638-.116-1.208-.361-1.048-1.149.148-.734.71-.744,1.332-.622A4.711,4.711,0,0,0,6627.509,182.919Zm1.473-3.327a4.874,4.874,0,0,0-3.454-4.625c-.638-.166-1.038-.152-1.061.722A5.284,5.284,0,0,0,6627,180.6c.469.3,1.069.778,1.523.541C6629.046,180.866,6628.9,180.076,6628.982,179.593Zm.962-8.833a5.48,5.48,0,0,0-3.442,1.1c-.405.325-.459.541-.057.947a4.793,4.793,0,0,0,6.691-.014c.416-.426.3-.644-.09-.941A5.005,5.005,0,0,0,6629.944,170.759Zm5.148,5.351c.012-1.311-.229-1.466-1.464-.939a4.748,4.748,0,0,0-2.759,5.395c.134.622.336.667.888.444A5.284,5.284,0,0,0,6635.092,176.11Z" transform="translate(-77.678 -89.559)" fill="#fff"/>
        <path id="Path_879516" data-name="Path 879516" d="M6543.869,168.776h47.97l-2.237-3.87c-.172-.3-.346-.6-.514-.9a.936.936,0,0,1,.35-1.442c.58-.307.957.076,1.227.532.94,1.592,1.862,3.2,2.79,4.8.236.407.49.805.692,1.228.4.829.044,1.432-.86,1.5-.218.017-.439.005-.659.005l-49.373.02c-.22,0-.44.005-.66,0-1.17-.04-1.549-.713-.962-1.752.693-1.227,1.412-2.441,2.12-3.66q7.975-13.742,15.95-27.485c.047-.081.09-.165.136-.248.327-.6.758-1.128,1.479-.68.686.426.47,1.037.118,1.643Q6553,152.982,6544.59,167.51C6544.373,167.885,6544.161,168.263,6543.869,168.776Z" transform="translate(-15.74 -67.656)" fill="#fff"/>
        <path id="Path_879517" data-name="Path 879517" d="M6655.946,75.7c-1.355,2.331-2.628,4.523-3.9,6.714a5.659,5.659,0,0,1-.441.72.91.91,0,0,1-1.189.245.827.827,0,0,1-.369-1.13,4.364,4.364,0,0,1,.291-.588q2.284-3.945,4.577-7.885c.679-1.162,1.417-1.178,2.08-.034q9.809,16.92,19.609,33.845c.326.563.571,1.153-.137,1.537-.636.345-1.141.011-1.451-.611-.056-.112-.12-.22-.182-.329q-5.919-10.209-11.838-20.418-3.255-5.612-6.519-11.218C6656.333,76.311,6656.181,76.079,6655.946,75.7Z" transform="translate(-103.855 -15.92)" fill="#fff"/>
        <path id="Path_879518" data-name="Path 879518" d="M6779.121,291.334c-.644-.008-1.353-.007-1.364-.887s.673-.911,1.335-.917,1.355.035,1.369.889S6779.792,291.349,6779.121,291.334Z" transform="translate(-207.553 -191.697)" fill="#3a3a3a"/>
        <path id="Path_879519" data-name="Path 879519" d="M6573.445,291.2c-.637.019-1.255-.057-1.336-.842a.818.818,0,0,1,.838-.941c.688-.027,1.517-.271,1.869.642C6575.078,290.737,6574.489,291.208,6573.445,291.2Z" transform="translate(-40.685 -191.565)" fill="#3a3a3a"/>
        <path id="Path_879520" data-name="Path 879520" d="M6676.9,110.875c0-.773.153-1.364.939-1.343s.881.64.885,1.276c0,.658-.15,1.238-.937,1.214S6676.878,111.4,6676.9,110.875Z" transform="translate(-125.716 -45.646)" fill="#3a3a3a"/>
        <path id="Path_879521" data-name="Path 879521" d="M6658.107,227.929c-.085.483.064,1.273-.457,1.544-.454.237-1.055-.238-1.523-.541a5.282,5.282,0,0,1-2.535-4.907c.022-.874.423-.888,1.061-.722A4.876,4.876,0,0,1,6658.107,227.929Z" transform="translate(-106.804 -137.895)" fill="#050505"/>
        <path id="Path_879522" data-name="Path 879522" d="M6666.4,201.342a5.005,5.005,0,0,1,3.1,1.091c.395.3.505.515.09.941a4.793,4.793,0,0,1-6.691.014c-.4-.405-.348-.621.057-.947A5.479,5.479,0,0,1,6666.4,201.342Z" transform="translate(-114.138 -120.141)" fill="#050505"/>
        <path id="Path_879523" data-name="Path 879523" d="M6691.3,224.461a5.283,5.283,0,0,1-3.335,4.9c-.552.224-.753.178-.888-.444a4.749,4.749,0,0,1,2.759-5.395C6691.067,223,6691.308,223.15,6691.3,224.461Z" transform="translate(-133.882 -137.909)" fill="#050505"/>
      </g>
    </g>
  </g>
</svg>
