<svg xmlns="http://www.w3.org/2000/svg" width="99.96" height="99.96" viewBox="0 0 99.96 99.96">
  <g id="Group_1111687" data-name="Group 1111687" transform="translate(-756.73 -10775)">
    <circle id="Ellipse_11757" data-name="Ellipse 11757" cx="49.98" cy="49.98" r="49.98" transform="translate(756.73 10775)" fill="#f2ffd9"/>
    <g id="Group_1109175" data-name="Group 1109175" transform="translate(354.594 4748.531)">
      <rect id="Rectangle_401104" data-name="Rectangle 401104" width="67.887" height="67.887" transform="translate(418.137 6042.469)" fill="none"/>
      <g id="Group_1109179" data-name="Group 1109179" transform="translate(-2070.456 5962.599)">
        <path id="Path_892157" data-name="Path 892157" d="M2701.38,87.8a34.88,34.88,0,0,1,3.637-2.093,32.359,32.359,0,0,0,5.946-4.869c1.218-1.28,2.3-1.263,3.53-.037q4.31,4.3,8.615,8.6c1.32,1.321,1.352,2.332.037,3.6a30.62,30.62,0,0,0-6.476,8.93c-.117.246-.183.544-.486.659-1.379.139-2.619-.521-3.945-.687a.43.43,0,0,0-.442-.193l-3.373-1.729a2.218,2.218,0,0,0-.878-.609l-1.451-1.314c-.521-.428-.787-1.1-1.4-1.445a1.916,1.916,0,0,0-.526-.848l-1.935-3.589a.431.431,0,0,0-.173-.458C2701.917,90.394,2701.254,89.164,2701.38,87.8Z" transform="translate(-167.635)" fill="#fecabb"/>
        <path id="Path_892158" data-name="Path 892158" d="M2511.314,307.411a11.234,11.234,0,0,1-2.792,1.6,32.916,32.916,0,0,0-6.781,5.352c-1.282,1.318-2.293,1.3-3.6-.01q-4.381-4.381-8.753-8.772a1.991,1.991,0,0,1-.123-3.074,31.169,31.169,0,0,0,6.917-9.516,1.743,1.743,0,0,1,.344-.377,13.865,13.865,0,0,1,3.738.658c.154.256.407.192.639.2l3.588,1.936a1.946,1.946,0,0,0,.849.524,8.812,8.812,0,0,0,1.448,1.408l1.312,1.442a2.212,2.212,0,0,0,.611.876l1.727,3.376a.432.432,0,0,0,.192.443C2510.8,304.793,2511.447,306.034,2511.314,307.411Z" transform="translate(0 -167.594)" fill="#fecabb"/>
        <path id="Path_892159" data-name="Path 892159" d="M2593.144,221.607c.133-1.377-.511-2.618-.688-3.941,2.016-.469,3.952-1.239,6.018-1.529a39.578,39.578,0,0,0,7.319-1.431,27.538,27.538,0,0,0,18.031-18.894,40.655,40.655,0,0,0,1.017-5.8,60.064,60.064,0,0,1,1.592-6.327c1.326.166,2.565.826,3.944.687a21.1,21.1,0,0,1-1.1,3.825c-.652,2.536-.7,5.173-1.377,7.7q-4.915,18.232-23.129,23.209c-2.924.8-6.011.782-8.92,1.714A7.531,7.531,0,0,1,2593.144,221.607Z" transform="translate(-81.83 -81.79)" fill="#fe025a"/>
        <path id="Path_892160" data-name="Path 892160" d="M2529.5,154.968a13.869,13.869,0,0,0-3.739-.658.739.739,0,0,1,.02-.615,39.779,39.779,0,0,0,2.049-8.938,31.222,31.222,0,0,1,25.6-25.6,41.129,41.129,0,0,0,9.041-2.077,1.369,1.369,0,0,1,.511.007c-.126,1.368.537,2.6.682,3.918a72.373,72.373,0,0,1-9.57,2.091,26.344,26.344,0,0,0-15.932,8.876,26.691,26.691,0,0,0-6.546,14.307A31.626,31.626,0,0,1,2529.5,154.968Z" transform="translate(-29.234 -29.292)" fill="#fe5c94"/>
        <path id="Path_892161" data-name="Path 892161" d="M2550.2,173.472l-3.588-1.936c1.015-1.854,1.922-3.762,2.853-5.66a57.338,57.338,0,0,1,18.436-21.25c3.857-2.791,8.3-4.488,12.411-6.79l1.935,3.589a10.47,10.47,0,0,0-2.441,1.235c-2.052,1.022-4.191,1.861-6.172,3.028a56.913,56.913,0,0,0-15.056,13.149C2554.945,163.246,2552.648,168.4,2550.2,173.472Z" transform="translate(-45.707 -45.664)" fill="#fe5c94"/>
        <path id="Path_892162" data-name="Path 892162" d="M2585.141,210.086l-1.727-3.376a6.327,6.327,0,0,1,2.01-1.314c2.093-1.091,4.315-1.923,6.35-3.129a55.257,55.257,0,0,0,13.666-11.5,47.443,47.443,0,0,0,7.808-12.225,12.749,12.749,0,0,1,2.246-3.909l3.372,1.729c-.946,1.809-1.9,3.608-2.762,5.465a50.29,50.29,0,0,1-7.193,11.009,62.284,62.284,0,0,1-12.331,11.125C2593,206.461,2588.882,207.911,2585.141,210.086Z" transform="translate(-74.706 -74.652)" fill="#fe025a"/>
        <path id="Path_892163" data-name="Path 892163" d="M2577.936,136.136c-4.115,2.3-8.553,4-12.411,6.79a57.338,57.338,0,0,0-18.436,21.25c-.931,1.9-1.838,3.805-2.853,5.66-.232,0-.484.06-.638-.2a31.617,31.617,0,0,0,2.118-8.688,26.689,26.689,0,0,1,6.546-14.307,26.343,26.343,0,0,1,15.932-8.876,72.388,72.388,0,0,0,9.57-2.091A.432.432,0,0,1,2577.936,136.136Z" transform="translate(-43.336 -43.964)" fill="#fe025a"/>
        <path id="Path_892164" data-name="Path 892164" d="M2591.548,216.5c3.742-2.174,7.864-3.624,11.44-6.128a62.278,62.278,0,0,0,12.331-11.125,50.273,50.273,0,0,0,7.193-11.009c.859-1.857,1.816-3.656,2.762-5.465a.43.43,0,0,1,.442.193,60.185,60.185,0,0,0-1.592,6.327,40.654,40.654,0,0,1-1.017,5.8,27.538,27.538,0,0,1-18.031,18.894,39.577,39.577,0,0,1-7.32,1.431c-2.065.29-4,1.061-6.017,1.529A.432.432,0,0,1,2591.548,216.5Z" transform="translate(-81.114 -81.068)" fill="#d01272"/>
        <path id="Path_892165" data-name="Path 892165" d="M2613.224,172.367a12.758,12.758,0,0,0-2.245,3.909,47.438,47.438,0,0,1-7.808,12.225A55.248,55.248,0,0,1,2589.5,200c-2.035,1.206-4.257,2.037-6.35,3.129a6.329,6.329,0,0,0-2.01,1.314,2.2,2.2,0,0,1-.612-.876c.207-.239.4-.492.622-.715q15.235-15.242,30.477-30.477c.223-.223.477-.415.716-.621A2.219,2.219,0,0,1,2613.224,172.367Z" transform="translate(-72.435 -72.39)" fill="#d01272"/>
        <path id="Path_892166" data-name="Path 892166" d="M2563.523,186.8c2.453-5.072,4.75-10.226,8.377-14.635a56.909,56.909,0,0,1,15.056-13.149c1.981-1.167,4.121-2.006,6.172-3.028a10.465,10.465,0,0,1,2.441-1.235,1.912,1.912,0,0,1,.525.848c-.407.1-.627.445-.9.715q-15.06,15.051-30.111,30.112c-.27.27-.614.49-.715.9A1.951,1.951,0,0,1,2563.523,186.8Z" transform="translate(-59.035 -58.992)" fill="#fe025a"/>
        <path id="Path_892167" data-name="Path 892167" d="M2607.474,166.876c-.239.206-.492.4-.715.621q-15.242,15.235-30.477,30.477c-.222.223-.415.476-.622.715l-1.312-1.442c.076-.459.445-.708.739-1q14.964-14.972,29.936-29.937c.3-.295.546-.66,1-.747Z" transform="translate(-67.563 -67.508)" fill="#fe025a"/>
        <path id="Path_892168" data-name="Path 892168" d="M2600.646,160.2c-.454.086-.7.452-1,.747q-14.971,14.965-29.936,29.937c-.295.295-.663.543-.739,1a8.811,8.811,0,0,1-1.448-1.408c.1-.407.445-.627.715-.9q15.051-15.061,30.111-30.112c.27-.27.49-.613.9-.715C2599.858,159.092,2600.124,159.768,2600.646,160.2Z" transform="translate(-62.186 -62.142)" fill="#fe5c94"/>
      </g>
    </g>
  </g>
</svg>
