<svg xmlns="http://www.w3.org/2000/svg" width="99.96" height="99.96" viewBox="0 0 99.96 99.96">
  <g id="Group_1111686" data-name="Group 1111686" transform="translate(-336.73 -10775)">
    <circle id="Ellipse_11756" data-name="Ellipse 11756" cx="49.98" cy="49.98" r="49.98" transform="translate(336.73 10775)" fill="#f2ffd9"/>
    <g id="Group_1109174" data-name="Group 1109174" transform="translate(-65.406 4748.531)">
      <rect id="Rectangle_401104" data-name="Rectangle 401104" width="67.887" height="67.887" transform="translate(418.117 6042.469)" fill="none"/>
      <g id="Group_1109177" data-name="Group 1109177" transform="translate(-1473.465 5937.352)">
        <path id="Path_892152" data-name="Path 892152" d="M1927.1,165.4c-7.364-.558-13.748-2.926-17.757-9.649-.386-.648-.662-1.36-1-2.036a1.365,1.365,0,0,0-1.692-.823,5.6,5.6,0,0,0-1.245-2.842,1.032,1.032,0,0,0-1.4-.264,4.284,4.284,0,0,0-1.936,2.526,51.314,51.314,0,0,0-3.752,11.586c-.41,2.1-.5,4.345-2.323,5.9-.038.032-.024.126-.034.19a4.462,4.462,0,0,1-2.343-4.643,50.829,50.829,0,0,1,2.177-11.137,19.505,19.505,0,0,1,3.475-6.73,9.972,9.972,0,0,1,7.182-3.69c.02.45.375.679.644.959a40.609,40.609,0,0,0,5.247,4.634c2.935,2.145,5.936,4.137,9.661,4.695,1.824.273,3.839-.48,4.347-1.885a13.642,13.642,0,0,0,.731-3.558c.2-2.458.006-4.92,0-7.38,0-.3.125-.7-.36-.794.072-3.356-.594-6.688-.278-10.058a21.85,21.85,0,0,1,.693-4.075,1.625,1.625,0,0,0-.133-1.31,29.105,29.105,0,0,1-2.923-16.673c.089-.9.531-1.2,1.352-1.185,1.483.018,2.966.015,4.449.02a1.785,1.785,0,0,1,.388,1.377,32.408,32.408,0,0,0,.6,7.534c.458,2.159.5,2.185,2.731,2.131.826-.02,1.706.31,2.484-.244a.794.794,0,0,0,.534.284c.082.053.157.14.246.155a17.543,17.543,0,0,1,7.974,3.464,18.514,18.514,0,0,1,7.432,14.62,31.111,31.111,0,0,1-.383,5.107,28.238,28.238,0,0,1-3.206,9.881,25.166,25.166,0,0,1-6.389,7.579,27.2,27.2,0,0,1-10.879,5.384C1929.98,164.8,1928.537,165.083,1927.1,165.4Z" transform="translate(0 -0.03)" fill="#f67474"/>
        <path id="Path_892153" data-name="Path 892153" d="M2062.544,209.768c1.436-.315,2.879-.6,4.307-.951a27.2,27.2,0,0,0,10.879-5.384,25.163,25.163,0,0,0,6.389-7.579,28.238,28.238,0,0,0,3.206-9.881,31.07,31.07,0,0,0,.383-5.107,18.514,18.514,0,0,0-7.432-14.62,17.543,17.543,0,0,0-7.974-3.464c-.088-.015-.164-.1-.246-.155a18.43,18.43,0,0,1,19.935,14.381,27.006,27.006,0,0,1-1.822,16.082c-3.752,9.017-10.766,14.08-20.146,16.13A26.417,26.417,0,0,1,2062.544,209.768Z" transform="translate(-135.443 -44.4)" fill="#e45656"/>
        <path id="Path_892154" data-name="Path 892154" d="M1978.69,275.022c.486.1.359.49.36.794.006,2.46.2,4.922,0,7.38a13.638,13.638,0,0,1-.731,3.558c-.508,1.4-2.524,2.158-4.348,1.885-3.725-.558-6.727-2.55-9.661-4.695a40.616,40.616,0,0,1-5.247-4.634c-.27-.28-.624-.509-.644-.959a13.64,13.64,0,0,1,6.639,1.046c1.787.664,3.407,1.713,5.24,2.281a10.436,10.436,0,0,0,3.192.547,4.4,4.4,0,0,0,4.585-3.418A18.027,18.027,0,0,0,1978.69,275.022Z" transform="translate(-51.974 -134.596)" fill="#e45656"/>
        <path id="Path_892155" data-name="Path 892155" d="M1905.539,341.625c.01-.065,0-.158.034-.19,1.824-1.553,1.913-3.8,2.323-5.9a51.339,51.339,0,0,1,3.752-11.586,4.284,4.284,0,0,1,1.936-2.526,1.031,1.031,0,0,1,1.4.264,5.6,5.6,0,0,1,1.245,2.842c-1.42,1.026-1.825,2.646-2.3,4.168a43.213,43.213,0,0,0-1.688,8.922C1911.912,341.3,1908.675,343.232,1905.539,341.625Z" transform="translate(-9.585 -171.67)" fill="#e45656"/>
        <path id="Path_892156" data-name="Path 892156" d="M2082.736,117.943c-.779.554-1.658.224-2.484.244-2.233.054-2.274.027-2.731-2.131a32.4,32.4,0,0,1-.6-7.534,1.785,1.785,0,0,0-.388-1.377q1.973-.014,3.946-.028c.849-.005,1.267.372,1.231,1.266A30.2,30.2,0,0,0,2082.736,117.943Z" transform="translate(-146.658 0)" fill="#e45656"/>
      </g>
    </g>
  </g>
</svg>
