<svg xmlns="http://www.w3.org/2000/svg" width="129" height="152.044" viewBox="0 0 129 152.044">
  <g id="Group_1111728" data-name="Group 1111728" transform="translate(-4062 5429.486)">
    <g id="Grupo_108927" data-name="Grupo 108927" transform="translate(3672 -9896.486)">
      <path id="Rectángulo_36179" data-name="Rectángulo 36179" d="M0,0H129V152.044H0Z" transform="translate(390 4467)" fill="#c5ffee"/>
    </g>
    <g id="Group_1103473" data-name="Group 1103473" transform="translate(4176.3 -5295.673) rotate(180)">
      <path id="Path_874029" data-name="Path 874029" d="M611.629,544.4l-50.15-28.952V457.536l50.15-28.954,50.15,28.954v57.908Zm-47.884-30.26,47.884,27.645,47.884-27.645V458.844L611.629,431.2l-47.884,27.647Z" transform="translate(-561.479 -428.582)" fill="#00e489"/>
      <path id="Path_874030" data-name="Path 874030" d="M574.457,470.02v52.906l45.818,26.453,45.818-26.453V470.02l-45.818-26.453Z" transform="translate(-570.125 -438.567)" fill="#f2ffd9"/>
    </g>
    <g id="Group_1103474" data-name="Group 1103474" transform="translate(4096.16 -5383.75)">
      <rect id="Rectangle_401104" data-name="Rectangle 401104" width="62" height="63" transform="translate(-1.16 -0.736)" fill="none"/>
      <g id="Group_1103479" data-name="Group 1103479" transform="translate(-4980.916 -8.257)">
        <path id="Path_879455" data-name="Path 879455" d="M5029.837,18.427c-.689.3-1.117.01-1.432-.605a11.43,11.43,0,0,1-.865-6.11,1.1,1.1,0,0,1,1.077-1.111c2.512.02,5.038-.32,7.532.257a8.734,8.734,0,0,1,4.4,2.8V12.1c0-.7-.049-1.519.931-1.5.895.016.9.778.882,1.46-.01.461,0,.922,0,1.392.364.041.442-.255.6-.406a8.3,8.3,0,0,1,5.952-2.481q2.429-.02,4.858,0c1.156.009,1.642.491,1.659,1.646a12.667,12.667,0,0,1-.509,4.607,8.21,8.21,0,0,1-7.379,5.522c-1.492.069-2.992.078-4.483.01-.94-.043-.66.56-.692,1.027-.034.5-.1.946.707.917,1.8-.064,3.611-.03,5.417-.016,1.488.012,2.1.631,2.113,2.1.006.872.013,1.744,0,2.616a1.719,1.719,0,0,1-1.828,1.893c-.578.008-.74.168-.728.74.037,1.743.016,3.487.023,5.231a2.061,2.061,0,0,0,.127.4c.464-.458.861-.866,1.276-1.254a2.009,2.009,0,0,1,2.989.006c.318.3.6.629.93.918.215.191.372.608.735.431.338-.165.163-.561.179-.856.024-.435-.006-.872.01-1.307a2.023,2.023,0,0,1,2.058-2.075c1.775-.027,3.55-.024,5.325,0a2.074,2.074,0,0,1,2.139,2.118c.027.5-.008,1,.012,1.494.009.228-.128.546.187.652.289.1.427-.2.6-.361.363-.341.7-.713,1.065-1.048a2,2,0,0,1,2.924,0q1.918,1.844,3.765,3.763a2.008,2.008,0,0,1-.034,3c-.381.41-.786.8-1.184,1.193-.142.14-.248.291-.146.49.086.168.264.133.411.135.561.007,1.122-.009,1.682.008a2.036,2.036,0,0,1,2.139,2.1q.043,2.662,0,5.325a2.01,2.01,0,0,1-2.059,2.078c-.56.025-1.121,0-1.681.01-.176,0-.394-.059-.5.155-.121.251.069.41.217.562.39.4.809.776,1.187,1.189a1.97,1.97,0,0,1,.017,2.855c-1.246,1.306-2.526,2.579-3.826,3.831a2.008,2.008,0,0,1-2.925,0c-.368-.335-.7-.708-1.062-1.05-.173-.163-.316-.46-.591-.372-.309.1-.181.424-.189.655-.017.467.008.935-.009,1.4a2.062,2.062,0,0,1-2.23,2.2c-.312.006-.624.018-.934,0a4.1,4.1,0,0,0-3.621,1.1,4.293,4.293,0,0,1-3.2,1.072c-5.7.01-11.4,0-17.1.018-.682,0-1.152-.2-1.3-.908.193-.842.835-.874,1.525-.875,5.571,0,11.144.014,16.716-.037a3.867,3.867,0,0,0,3.449-5.925c-2.054-3.766-4.163-7.5-6.23-11.26a.933.933,0,0,0-.94-.571c-2.3.021-4.607.026-6.911-.014-.606-.011-.722.2-.711.75.032,1.556,0,3.113.016,4.67.006.67-.187,1.257-.919,1.256-.749,0-.905-.618-.9-1.272.008-1.557-.022-3.114.014-4.67.013-.575-.167-.74-.739-.732-2.3.03-4.607.02-6.91.005a.859.859,0,0,0-.9.478c-2.127,3.868-4.328,7.7-6.4,11.593a3.855,3.855,0,0,0,3.26,5.7c.993.069,1.993.038,2.987.031.653-.005,1.168.162,1.345.873a1.185,1.185,0,0,1-1.4.913,20.366,20.366,0,0,1-4.185-.2,5.7,5.7,0,0,1-3.475-8.344c2.6-4.736,5.251-9.447,7.868-14.176a22.485,22.485,0,0,0,2.473-5.3,1.654,1.654,0,0,0-.569-1.829,7.869,7.869,0,0,0-7.135-2.453,2.968,2.968,0,0,1-.652,0,.834.834,0,0,1-.9-.872.793.793,0,0,1,.9-.849c1.556,0,3.114,0,4.669.02a2.5,2.5,0,0,1,1.491.7l2.515,1.979c0-1.852,0-3.479,0-5.106,0-.446-.354-.33-.613-.351a1.815,1.815,0,0,1-1.909-2.037c-.011-.872-.015-1.744,0-2.615a1.8,1.8,0,0,1,1.975-1.968c1.836-.025,3.675-.057,5.509.014.842.033.8-.4.783-.962-.012-.53.105-.994-.76-.991a28.5,28.5,0,0,1-5.773-.18,11.233,11.233,0,0,1-1.759-.589,1.169,1.169,0,0,1-.818-1.6,1.512,1.512,0,0,1,1.563-.019c2.3,1.132,4.775.5,7.176.635.294.017.328-.2.35-.439.372-3.93-1.619-6.744-4.878-7.584-1.948-.5-3.969-.167-5.957-.226-.343-.01-.4.192-.408.478a7.738,7.738,0,0,0,.688,4.18A1.056,1.056,0,0,1,5029.837,18.427Zm24.875,24.415c-.277-1,.342-1.807,1.53-1.877,1.085-.064,2.192.088,3.263-.051,2.18-.284,3.666.631,5.245,2.1a7.871,7.871,0,0,1,2.762,6.674,6.875,6.875,0,0,1-2.263,5.361c-3.421,3.108-1.839,2.559-6.385,2.634a.738.738,0,0,1-.093,0c-.711-.085-.817.151-.441.745a5.965,5.965,0,0,1,.971,4.965c-.054.194-.1.39.189.384.8-.018,1.7.271,2.371-.134.47-.284.108-1.1.176-1.681.018-.154,0-.312.007-.466a2.065,2.065,0,0,1,3.532-1.423c.376.372.763.735,1.119,1.126.319.35.578.369.921.014q1.661-1.706,3.364-3.37c.32-.312.315-.55,0-.85-.451-.429-.9-.861-1.309-1.33a2.012,2.012,0,0,1,1.49-3.319c.467,0,.938-.036,1.4,0,.712.062,1.013-.176.984-.939-.05-1.4-.039-2.8,0-4.2.016-.637-.173-.907-.843-.872a7.54,7.54,0,0,1-1.856-.082,1.994,1.994,0,0,1-1.145-3.32,11.1,11.1,0,0,1,1.184-1.191c.436-.381.392-.667-.01-1.055-1.076-1.036-2.138-2.089-3.166-3.172-.439-.462-.739-.406-1.119.043a12.233,12.233,0,0,1-1.062,1.049,1.974,1.974,0,0,1-2.165.436,2.033,2.033,0,0,1-1.323-1.872,6.111,6.111,0,0,1,0-1.306c.119-.862-.259-1.078-1.054-1.016-.836.065-1.682-.015-2.521.023-.765.035-1.7-.334-2.249.18-.481.455-.127,1.362-.162,2.068a2.043,2.043,0,0,1-3.5,1.437c-.4-.389-.786-.8-1.19-1.185-.146-.14-.33-.4-.544-.2-.812.771-1.6,1.565-2.376,2.369-.148.154.039.35.082.524a21.915,21.915,0,0,0,2.358,4.947c.28.533.5.123.682-.074.46-.5.941-.827,1.617-.383a1.042,1.042,0,0,1-.244,1.489,1.592,1.592,0,0,0-.242,2.186c1.312,2.4,2.653,4.787,3.984,7.178.133.24.222.537.577.527,2.315-.062,4.847.642,6.447-1.9a4.654,4.654,0,0,1,1.116-1.122,2.341,2.341,0,0,0,.9-2.195c-.079-1.363.312-2.884-.175-4.057s-1.79-2.02-2.771-2.973c-.387-.376-.656-1-1.3-.978-1.787.059-3.61-.354-5.346.2C5055.559,43.1,5055.169,43.256,5054.712,42.842Zm-9.452-22.229V20.6c.716,0,1.433.023,2.147,0a6.513,6.513,0,0,0,6.2-6.272c.05-1.989.05-1.989-1.889-1.992-.28,0-.561-.005-.84,0a12.148,12.148,0,0,0-3.894.271c-3.4,1.15-4.958,3.966-4.633,7.606.037.42.282.409.571.408C5043.7,20.612,5044.482,20.613,5045.26,20.613Zm4.357,25.774c-.5-.918-.909-1.707-1.357-2.472a14.234,14.234,0,0,1-1.963-7.57c.026-1.588-.013-3.177.016-4.764.009-.507-.1-.718-.659-.691-.9.044-1.806.029-2.708,0-.433-.014-.594.1-.593.564.015,4.8.01,9.591.009,14.386,0,.284-.037.556.4.553C5045,46.38,5047.225,46.387,5049.618,46.387Zm-13.36-6.625c-.485,2.468-1.887,4.425-2.966,6.626,2.337,0,4.516-.005,6.694.005.36,0,.575-.043.572-.493q-.018-7.238,0-14.475c0-.4-.124-.545-.533-.535-.965.024-1.931.029-2.894,0-.458-.015-.585.147-.576.587a27.084,27.084,0,0,1-.017,3.639c-.213,1.83.173,3.283,1.938,4.144a.989.989,0,0,1,.214.178.836.836,0,0,1,.142,1.241.826.826,0,0,1-1.244.113C5037.167,40.482,5036.761,40.153,5036.258,39.762Zm9.32-10.6V29.16h.932c2.475,0,2.46,0,2.391-2.511-.013-.487-.137-.641-.629-.629-1.241.03-2.486.009-3.729.005-2.183-.006-2.157-.007-2.189,2.219-.011.691.113,1.015.9.938S5044.8,29.166,5045.578,29.166Zm-8.338,0h.93c2.419,0,2.391,0,2.394-2.411,0-.652-.232-.759-.8-.74-1.115.037-2.233.011-3.35.011-2.5,0-2.485,0-2.4,2.484.018.55.207.685.713.665C5035.564,29.142,5036.4,29.166,5037.24,29.166Z" transform="translate(-34.678)" fill="#ea8a0a"/>
        <path id="Path_879456" data-name="Path 879456" d="M5040.75,230.14c-.176-.711-.692-.878-1.345-.873-.995.007-2,.038-2.987-.031a3.855,3.855,0,0,1-3.26-5.7c2.071-3.9,4.272-7.724,6.4-11.593a.861.861,0,0,1,.9-.478c2.3.015,4.608.024,6.911-.005.571-.008.751.157.739.732-.036,1.556-.007,3.113-.015,4.67,0,.654.153,1.271.9,1.272.732,0,.926-.587.919-1.256-.014-1.557.016-3.114-.016-4.67-.011-.546.1-.761.711-.75,2.3.04,4.607.036,6.911.014a.933.933,0,0,1,.94.571c2.068,3.758,4.176,7.494,6.23,11.26a3.867,3.867,0,0,1-3.448,5.925c-5.572.051-11.145.034-16.717.037-.689,0-1.332.032-1.524.875Zm.43-11.571c-.634.021-1.114.287-1.115.9,0,.671.507.938,1.144.915.6-.022,1.042-.276,1.019-.934S5041.721,218.6,5041.179,218.569Zm13.521-1.408c.5-.046,1.016-.193,1.014-.885,0-.667-.444-.882-1.056-.893s-1.062.218-1.081.868C5053.557,216.925,5054.044,217.129,5054.7,217.161Zm3.823,5.843c.572-.034,1.076-.217,1.078-.893s-.481-.884-1.078-.888-1.084.217-1.09.878S5057.924,222.973,5058.523,223Zm-10.749,3.03c.619.039,1.058-.2,1.062-.86.005-.672-.459-.867-1.062-.863s-1.064.184-1.058.867S5047.166,226.065,5047.774,226.033Z" transform="translate(-42.216 -163.372)" fill="#ffd8a9"/>
        <path id="Path_879457" data-name="Path 879457" d="M4992.12,72.944a25.792,25.792,0,0,1-.019,2.889,8.125,8.125,0,0,1-2.626,5.015c-.578.555-1.592,1.093-1.541,1.745.047.622.973,1.2,1.558,1.752a7.6,7.6,0,0,1,2.588,4.924c.157,1.855.082,3.73.084,5.6a.8.8,0,0,1-.834.829.808.808,0,0,1-.9-.761,3.5,3.5,0,0,1-.032-.464c-.049-1.426-.048-1.426-1.516-1.426-1.868,0-3.736.026-5.6-.014-.625-.013-.842.185-.771.792a8.365,8.365,0,0,1,0,1.026.767.767,0,0,1-.8.841c-.5.025-.9-.238-.9-.744.032-2.233-.275-4.485.245-6.7a9.664,9.664,0,0,1,3.424-4.885c.673-.6.685-.955.006-1.562a10.089,10.089,0,0,1-3.405-4.794,14.135,14.135,0,0,1-.3-3.7c0-.934,0-1.868,0-2.8,0-.609.224-1.058.9-1.049.63.008.809.435.833,1.006.069,1.634.081,1.633,1.755,1.633,1.8,0,3.61-.025,5.415.015.583.013.777-.158.714-.728a4.65,4.65,0,0,1,.022-1.117.868.868,0,0,1,1.735.065c.028.87.008,1.743.008,2.614Zm-5.671.913h-2.791c-1.226,0-1.246,0-1.105,1.23.04.36-.152.916.588.908,2.232-.024,4.463-.015,6.7,0,.354,0,.509-.116.509-.474a7.1,7.1,0,0,1,.06-.927c.072-.548-.1-.775-.7-.748C4988.619,73.893,4987.532,73.857,4986.448,73.857Zm.032,17.435c.965,0,1.929,0,2.893,0,.544,0,1.166.167,1.041-.784-.093-.716.114-1.459-1.112-1.376-1.8.12-3.608.031-5.412.031-1.374,0-1.337,0-1.385,1.378-.021.646.212.787.8.764C4984.363,91.262,4985.422,91.292,4986.48,91.292Zm-3.216-13.552a17.922,17.922,0,0,0,3.056,3.418c.236.242.387-.053.524-.188.621-.611,1.248-1.218,1.838-1.857a2.438,2.438,0,0,0,.855-1.373Zm6.359,9.636a10.55,10.55,0,0,0-2.3-2.707c-.822-.859-.853-.862-1.687.014a9.7,9.7,0,0,0-2.274,2.693Z" transform="translate(0 -47.913)" fill="#ea8a0a"/>
        <path id="Path_879458" data-name="Path 879458" d="M5055.367,26.093a1.057,1.057,0,0,0,.143-1.431,7.757,7.757,0,0,1-.69-4.18c.008-.286.066-.489.41-.478,1.987.059,4.008-.275,5.956.226,3.261.839,5.252,3.654,4.88,7.584-.022.236-.056.456-.351.439-2.4-.137-4.877.5-7.176-.635a1.511,1.511,0,0,0-1.562.019A4.552,4.552,0,0,1,5055.367,26.093Z" transform="translate(-60.207 -7.666)" fill="#ffd8a9"/>
        <path id="Path_879459" data-name="Path 879459" d="M5192.389,57.134c3.614.038,2.778-.425,4.568,2.666,1.761,3.04,1.774,2.119,0,5.2-1.8,3.118-1,2.664-4.658,2.67-3.451.006-2.761.4-4.458-2.548-1.833-3.191-1.848-2.245,0-5.448C5189.542,56.726,5188.76,57.172,5192.389,57.134Z" transform="translate(-167.244 -37.895)" fill="#ea8a0a"/>
        <path id="Path_879460" data-name="Path 879460" d="M5127.47,28.37c-.778,0-1.556,0-2.335,0-.289,0-.534.012-.571-.408-.326-3.641,1.229-6.456,4.632-7.606a12.155,12.155,0,0,1,3.9-.271c.28,0,.561,0,.84,0,1.938,0,1.938,0,1.888,1.992a6.513,6.513,0,0,1-6.2,6.272c-.715.027-1.432,0-2.147,0Z" transform="translate(-116.887 -7.756)" fill="#ffd8a9"/>
        <path id="Path_879461" data-name="Path 879461" d="M5132.015,134.964c-2.391,0-4.62-.007-6.849.006-.44,0-.4-.269-.4-.553,0-4.8.007-9.591-.008-14.386,0-.464.16-.578.592-.564.9.03,1.807.045,2.708,0,.555-.027.667.184.658.691-.028,1.587.011,3.176-.015,4.764a14.225,14.225,0,0,0,1.962,7.57C5131.106,133.257,5131.514,134.046,5132.015,134.964Z" transform="translate(-117.076 -88.576)" fill="#f5f5f5"/>
        <path id="Path_879462" data-name="Path 879462" d="M5079.239,128.336c.5.391.911.719,1.332,1.027a.826.826,0,0,0,1.244-.113.837.837,0,0,0-.142-1.241,1,1,0,0,0-.214-.178c-1.765-.86-2.152-2.313-1.94-4.144a27.41,27.41,0,0,0,.019-3.639c-.01-.44.117-.6.575-.587.965.031,1.93.026,2.894,0,.409-.01.535.134.534.535q-.015,7.237,0,14.475c0,.45-.214.495-.575.493-2.179-.01-4.356-.005-6.694-.005C5077.352,132.76,5078.754,130.8,5079.239,128.336Z" transform="translate(-77.659 -88.574)" fill="#f5f5f5"/>
        <path id="Path_879463" data-name="Path 879463" d="M5127.966,96.57c-.776,0-1.56-.059-2.329.016s-.905-.247-.9-.938c.033-2.226.007-2.225,2.189-2.219,1.243,0,2.487.025,3.729-.005.491-.012.616.142.629.629.068,2.511.084,2.511-2.391,2.511h-.932Z" transform="translate(-117.066 -67.404)" fill="#f5f5f5"/>
        <path id="Path_879464" data-name="Path 879464" d="M5083.257,96.54c-.837,0-1.676-.024-2.511.009-.507.02-.7-.115-.714-.665-.081-2.485-.1-2.485,2.4-2.484,1.117,0,2.235.026,3.351-.011.564-.019.8.088.8.74,0,2.411.025,2.411-2.395,2.411Z" transform="translate(-80.697 -67.374)" fill="#f5f5f5"/>
        <path id="Path_879465" data-name="Path 879465" d="M5073.291,249.488c.542.031,1.025.221,1.048.881s-.425.912-1.02.934c-.637.024-1.145-.243-1.144-.915C5072.176,249.775,5072.657,249.51,5073.291,249.488Z" transform="translate(-74.328 -194.291)" fill="#ffa233"/>
        <path id="Path_879466" data-name="Path 879466" d="M5145.578,234.222c-.656-.032-1.143-.235-1.123-.91.019-.65.46-.879,1.08-.868s1.055.226,1.056.893C5146.593,234.028,5146.078,234.176,5145.578,234.222Z" transform="translate(-133.094 -180.433)" fill="#ffa233"/>
        <path id="Path_879467" data-name="Path 879467" d="M5166.17,265.465c-.6-.031-1.1-.239-1.09-.9s.49-.882,1.09-.878,1.078.217,1.077.888S5166.742,265.431,5166.17,265.465Z" transform="translate(-149.864 -205.834)" fill="#ffa233"/>
        <path id="Path_879468" data-name="Path 879468" d="M5108.814,281.92c-.608.031-1.054-.185-1.06-.857s.459-.863,1.058-.867,1.069.191,1.063.863C5109.87,281.716,5109.434,281.958,5108.814,281.92Z" transform="translate(-103.255 -219.258)" fill="#ffa233"/>
        <path id="Path_879469" data-name="Path 879469" d="M5182.163,156.872c-.05-1.4-.039-2.8,0-4.2.016-.637-.173-.907-.844-.872a7.539,7.539,0,0,1-1.856-.082,1.993,1.993,0,0,1-1.144-3.32,11.05,11.05,0,0,1,1.184-1.191c.435-.381.392-.667-.01-1.055-1.076-1.036-2.137-2.089-3.166-3.172-.439-.462-.738-.406-1.119.043a12.36,12.36,0,0,1-1.061,1.049,1.975,1.975,0,0,1-2.165.436,2.033,2.033,0,0,1-1.323-1.872,6.176,6.176,0,0,1,0-1.306c.119-.862-.259-1.078-1.054-1.016-.836.065-1.682-.015-2.52.023-.765.035-1.7-.334-2.248.18-.482.455-.127,1.362-.163,2.068a2.043,2.043,0,0,1-3.5,1.437c-.4-.388-.786-.8-1.191-1.185-.146-.14-.329-.4-.544-.2-.811.771-1.6,1.565-2.375,2.369-.148.154.039.35.081.524a13.81,13.81,0,0,0,1.592,3.573l8.041,14.448a1.9,1.9,0,0,0,.174.338c.051.081.1.162.149.244l.266.479h0a5.606,5.606,0,0,1,.556,4.242c-.054.194-.1.39.189.384.8-.018,1.7.271,2.371-.134.469-.284.108-1.1.176-1.681.017-.154-.006-.312.007-.466a2.065,2.065,0,0,1,3.531-1.423c.377.372.764.735,1.119,1.126.32.35.577.369.922.014q1.66-1.706,3.363-3.37c.319-.312.315-.55,0-.85-.45-.429-.9-.861-1.31-1.33a2.012,2.012,0,0,1,1.491-3.319c.467,0,.937-.036,1.4,0C5181.891,157.873,5182.191,157.635,5182.163,156.872Z" transform="translate(-143.295 -105.467)" fill="#ffa233"/>
      </g>
    </g>
  </g>
</svg>
