<svg xmlns="http://www.w3.org/2000/svg" width="99.96" height="99.96" viewBox="0 0 99.96 99.96">
  <g id="Group_1111688" data-name="Group 1111688" transform="translate(-1179.105 -10775)">
    <circle id="Ellipse_11758" data-name="Ellipse 11758" cx="49.98" cy="49.98" r="49.98" transform="translate(1179.105 10775)" fill="#f2ffd9"/>
    <g id="Group_1109176" data-name="Group 1109176" transform="translate(776.969 4748.531)">
      <rect id="Rectangle_401104" data-name="Rectangle 401104" width="67.887" height="67.887" transform="translate(417.742 6042.469)" fill="none"/>
      <g id="Group_1109181" data-name="Group 1109181" transform="translate(-2657.887 5942.436)">
        <path id="Path_892169" data-name="Path 892169" d="M3133.442,229.387a17.737,17.737,0,0,1,4.65,9.958,52.858,52.858,0,0,1,.615,10.823,16.186,16.186,0,0,1-3.627,4.862c-4.44,3.781-9.382,4.5-14.753,2.44-2.433-.932-4.436-2.626-6.59-4.043a62.305,62.305,0,0,1-7.729-5.453,22.678,22.678,0,0,1-6.175-9.7,13.858,13.858,0,0,1,2.336-3.947c.87.75,1.115,1.9,1.779,2.79a42.746,42.746,0,0,0,4.342,4.759,3.732,3.732,0,0,1,1.09,3.931c-.2.652-.387,1.306-.581,1.959-.092.31-.21.592.157.851,1.036.732,1.645.55,2.01-.634.127-.412.265-.82.4-1.228a5.879,5.879,0,0,0-.566-5.156,26.132,26.132,0,0,0-2.983-3.241c-.269-.313-.9-.58-.7-.968.229-.45.812-.142,1.26-.067a15.617,15.617,0,0,1,5.338,2.219c.718.424.961.006,1.271-.462.276-.417.671-.786,0-1.247a15.191,15.191,0,0,0-7.347-2.805c-1.638-.143-3.23-.244-3.668-2.28-.026-.122-.171-.219-.261-.328.144-.4.676-.544.662-1.04,1.113-.609,1.974-1.554,3.017-2.257a22.654,22.654,0,0,1,5.189-2.4l2.4-.469a11.173,11.173,0,0,1,4.734.336,7.914,7.914,0,0,1,5.024,7.087l1.9-1.705a23.154,23.154,0,0,1-2,8.425,1.534,1.534,0,0,1-1.307,1.075,7.015,7.015,0,0,0-4.483,2.561,4.762,4.762,0,0,1-2.331,1.607c-.952.287-.429,1.171-.409,1.761.02.564.581.367.95.285a5.363,5.363,0,0,0,3.427-2.234,4.038,4.038,0,0,1,2.378-1.582,22.959,22.959,0,0,1-3.048,4.133c-.9.923-1.8,1.843-2.737,2.73-.81.769-.018,1.23.331,1.717.4.558.788.176,1.158-.157.607-.546,1.242-1.059,1.927-1.637a15.129,15.129,0,0,1,.925,4.8c.007,1.006.519.946,1.215.993.872.058,1.064-.338.983-1.089a20.9,20.9,0,0,0-1.155-5.554c-.251-.633-.411-1.186.135-1.775a18.5,18.5,0,0,0,2.786-4.208c.229-.444.457-1.242.968-1.043.556.217.737,1,.728,1.685,0,.4-.276.656-.456.957a5.69,5.69,0,0,0-.028,6.038,8,8,0,0,1,1.339,4.242c-.032.9.6.707,1.11.725.549.02,1.083.091,1.07-.773a9.64,9.64,0,0,0-1.363-4.805,3.857,3.857,0,0,1-.736-2.9c.376.075.386.375.513.574a9.88,9.88,0,0,0,2.667,3.053c.17.115.291.309.556.162a1.482,1.482,0,0,0,.313-2.3,8.038,8.038,0,0,1-2.624-5.046,6.978,6.978,0,0,0-1.877-3.809c-.245-.247-.527-.446-.341-.915.317-.8.562-1.627.8-2.453.186-.64.433-.849,1.039-.37,1.339,1.059,2.622,2.144,3,3.93.254,1.186,1.042.475,1.616.427.733-.062.677-.51.489-1.066a8.96,8.96,0,0,0-4.571-5.464,1.285,1.285,0,0,1-.822-1.325,19.31,19.31,0,0,0,.226-2.892A9.3,9.3,0,0,1,3133.442,229.387Z" transform="translate(-7.996 -98.046)" fill="#fd4d55"/>
        <path id="Path_892170" data-name="Path 892170" d="M3095.021,282.155a22.68,22.68,0,0,0,6.175,9.7,62.293,62.293,0,0,0,7.729,5.453c2.154,1.417,4.157,3.111,6.59,4.043,5.371,2.056,10.313,1.342,14.753-2.44a16.186,16.186,0,0,0,3.627-4.862c.3,5.745-4.2,11.718-10.044,13.3a14.277,14.277,0,0,1-11.964-1.9c-3.167-2.055-6.318-4.141-9.419-6.295a22.016,22.016,0,0,1-8.558-11.593,9.4,9.4,0,0,1-.216-1.047A16.973,16.973,0,0,1,3095.021,282.155Z" transform="translate(-3.183 -141.928)" fill="#e63945"/>
        <path id="Path_892171" data-name="Path 892171" d="M3205.44,197.873a9.3,9.3,0,0,0-4.44,1.069,4.743,4.743,0,0,0-2.365,1.515l-1.9,1.705a7.915,7.915,0,0,0-5.024-7.087c1.607-4.227,3.941-7.769,8.6-9.116a6.44,6.44,0,0,1,5.633,2.031,5.914,5.914,0,0,1,1.123,6.39C3206.606,195.574,3205.988,196.71,3205.44,197.873Z" transform="translate(-79.994 -66.531)" fill="#af2b2e"/>
        <path id="Path_892172" data-name="Path 892172" d="M3177.015,101.144c.809-.187,1.172.041,1.1.96-.082,1.108-.024,2.227-.018,3.341a3.453,3.453,0,0,0,1.705,3.155,10.627,10.627,0,0,1,3.909,4.209c-.76.313-1.524.619-2.281.94a27.35,27.35,0,0,0-11.567,9.423c-.873-1.814-.4-3.67-.042-5.47a14.853,14.853,0,0,1,4.991-8.236,6.446,6.446,0,0,0,2.012-3.487A28.042,28.042,0,0,0,3177.015,101.144Z" transform="translate(-62.486 -0.039)" fill="#fd4d55"/>
        <path id="Path_892173" data-name="Path 892173" d="M3091.838,210.033a16.982,16.982,0,0,0-1.329,4.364,17.5,17.5,0,0,1-.8-7.315,22.278,22.278,0,0,1,9.1-16.642,5.212,5.212,0,0,1,.551-.324,24.675,24.675,0,0,1-1.725,8.816,20.785,20.785,0,0,0-1.251,4.205c.013.5-.519.644-.662,1.04a5.055,5.055,0,0,0-1.542,1.908A13.869,13.869,0,0,0,3091.838,210.033Z" transform="translate(0 -69.806)" fill="#af2b2e"/>
        <path id="Path_892174" data-name="Path 892174" d="M3183.169,164.88c-4.659,1.347-6.992,4.889-8.6,9.116a11.177,11.177,0,0,0-4.735-.337,2.581,2.581,0,0,1,.144-.62,26.86,26.86,0,0,1,8.237-9.523,26.347,26.347,0,0,1,10.282-4.477c.208.978.362,1.972.643,2.929.2.683-.019.851-.65.984A16.481,16.481,0,0,0,3183.169,164.88Z" transform="translate(-62.849 -45.453)" fill="#0c7ae0"/>
        <path id="Path_892175" data-name="Path 892175" d="M3165.533,101.1a27.993,27.993,0,0,1-.186,4.836,6.445,6.445,0,0,1-2.012,3.487,14.854,14.854,0,0,0-4.99,8.236c-.359,1.8-.83,3.655.042,5.47l-2.336,4.023a16.354,16.354,0,0,1-1.3-7.327,19.081,19.081,0,0,1,1.635-5.963,29.844,29.844,0,0,1,4.614-5.4c1.382-1.9,1.393-4.1,1.272-6.3-.049-.891.195-1.229,1.109-1.119A21.107,21.107,0,0,0,3165.533,101.1Z" transform="translate(-51.005)" fill="#e63945"/>
        <path id="Path_892176" data-name="Path 892176" d="M3120.505,152.183a20.77,20.77,0,0,1,1.251-4.205,24.665,24.665,0,0,0,1.725-8.816,20.692,20.692,0,0,0-1.378-7.878c-.5-1.377-1.027-2.746-1.558-4.113-.19-.49-.233-.853.379-1.091.729-.284,1.424-.656,2.134-.989a38.822,38.822,0,0,1,1.89,4.775,21.586,21.586,0,0,1,.669,13.3c-.575,2.291-1.621,4.437-2.095,6.759C3122.479,150.628,3121.618,151.574,3120.505,152.183Z" transform="translate(-24.128 -18.851)" fill="#036bd9"/>
        <path id="Path_892177" data-name="Path 892177" d="M3133.074,147.469c.473-2.323,1.52-4.468,2.094-6.759a21.586,21.586,0,0,0-.668-13.3,38.823,38.823,0,0,0-1.89-4.775c1.522-1,1.5-.992,2.153.687a21.3,21.3,0,0,0,2.092,4.8,12.183,12.183,0,0,0,.841.969,4.265,4.265,0,0,0,1.366,1.169,19.1,19.1,0,0,0-1.635,5.963,16.358,16.358,0,0,0,1.3,7.327c-.023.546-.507.951-.461,1.518A22.649,22.649,0,0,0,3133.074,147.469Z" transform="translate(-33.68 -16.394)" fill="#0c7ae0"/>
        <path id="Path_892178" data-name="Path 892178" d="M3158.723,168.259c-.046-.567.438-.972.462-1.518l2.336-4.023a27.35,27.35,0,0,1,11.567-9.423c.757-.321,1.521-.627,2.281-.94,1.012-.23,2.042-.4,3.033-.7.972-.295,1.313.063,1.306.987a3.271,3.271,0,0,0,.081.533,26.348,26.348,0,0,0-10.283,4.477,26.858,26.858,0,0,0-8.237,9.523,2.57,2.57,0,0,0-.144.62Z" transform="translate(-54.14 -39.584)" fill="#036bd9"/>
        <path id="Path_892179" data-name="Path 892179" d="M3156.7,118.255a4.265,4.265,0,0,1-1.366-1.169,8.183,8.183,0,0,0,.476-5.672c-.244-1.047-.387-2.119-.652-3.161-.14-.551.086-.719.536-.806.176-.034.354-.062.529-.1,1.037-.226,2.28-1.063,3.038-.55.664.449.643,1.882.973,2.865.358,1.066.337,2.262,1.079,3.2A29.854,29.854,0,0,0,3156.7,118.255Z" transform="translate(-51.315 -4.388)" fill="#fd4d55"/>
        <path id="Path_892180" data-name="Path 892180" d="M3184.969,247.545a4.741,4.741,0,0,1,2.365-1.515,19.246,19.246,0,0,1-.226,2.892,1.285,1.285,0,0,0,.822,1.325,8.961,8.961,0,0,1,4.571,5.464c.188.556.244,1-.489,1.066-.574.049-1.362.76-1.616-.427-.383-1.786-1.666-2.871-3-3.93-.606-.48-.853-.27-1.039.37-.24.826-.485,1.655-.8,2.453-.186.468.1.667.341.915a6.98,6.98,0,0,1,1.877,3.809,8.035,8.035,0,0,0,2.624,5.046,1.482,1.482,0,0,1-.314,2.3c-.265.146-.386-.047-.556-.162a9.884,9.884,0,0,1-2.667-3.053c-.127-.2-.136-.5-.513-.574a3.857,3.857,0,0,0,.736,2.9,9.645,9.645,0,0,1,1.363,4.805c.012.864-.521.793-1.071.773-.51-.018-1.142.177-1.11-.725a8,8,0,0,0-1.339-4.242,5.69,5.69,0,0,1,.028-6.038c.18-.3.451-.554.456-.957.009-.689-.171-1.468-.728-1.685-.511-.2-.739.6-.968,1.043a18.505,18.505,0,0,1-2.787,4.208c-.546.589-.385,1.142-.135,1.775a20.905,20.905,0,0,1,1.155,5.554c.08.751-.111,1.147-.984,1.089-.7-.046-1.208.014-1.214-.993a15.136,15.136,0,0,0-.925-4.8c-.685.578-1.321,1.091-1.927,1.637-.37.333-.758.715-1.158.157-.349-.486-1.14-.948-.331-1.717.934-.887,1.838-1.807,2.737-2.73a22.958,22.958,0,0,0,3.048-4.133,4.038,4.038,0,0,0-2.378,1.582,5.362,5.362,0,0,1-3.426,2.234c-.37.082-.931.279-.951-.285-.021-.589-.543-1.474.409-1.761a4.763,4.763,0,0,0,2.331-1.607,7.013,7.013,0,0,1,4.483-2.561,1.534,1.534,0,0,0,1.307-1.075A23.144,23.144,0,0,0,3184.969,247.545Z" transform="translate(-66.329 -113.62)" fill="#e63945"/>
        <path id="Path_892181" data-name="Path 892181" d="M3110.628,257a5.057,5.057,0,0,1,1.542-1.908c.09.109.235.205.261.328.437,2.036,2.03,2.136,3.668,2.28a15.189,15.189,0,0,1,7.347,2.805c.67.461.275.831,0,1.247-.31.468-.554.886-1.271.462a15.622,15.622,0,0,0-5.338-2.219c-.448-.075-1.031-.383-1.26.067-.2.388.434.656.7.968a26.116,26.116,0,0,1,2.983,3.241,5.878,5.878,0,0,1,.566,5.156c-.136.409-.275.817-.4,1.229-.365,1.184-.974,1.365-2.01.634-.367-.259-.25-.541-.157-.851.194-.653.386-1.306.581-1.959a3.732,3.732,0,0,0-1.09-3.931,42.747,42.747,0,0,1-4.343-4.759C3111.743,258.9,3111.5,257.755,3110.628,257Z" transform="translate(-16.454 -120.725)" fill="#e63945"/>
      </g>
    </g>
  </g>
</svg>
