<svg xmlns="http://www.w3.org/2000/svg" xmlns:xlink="http://www.w3.org/1999/xlink" width="1030" height="503.545" viewBox="0 0 1030 503.545">
  <defs>
    <clipPath id="clip-path">
      <path id="Path_891797" data-name="Path 891797" d="M16,0h998c8.837,0,16,7.808,16,17.439V486.107c0,9.631-7.163,17.439-16,17.439H16c-8.837,0-16-7.808-16-17.439V17.439C0,7.808,7.163,0,16,0Z" fill="#e0ffa3"/>
    </clipPath>
    <linearGradient id="linear-gradient" x1="0.5" x2="0.5" y2="1" gradientUnits="objectBoundingBox">
      <stop offset="0" stop-color="#f2ffd9"/>
      <stop offset="1" stop-color="#e0ffa3"/>
    </linearGradient>
  </defs>
  <g id="Group_1111698" data-name="Group 1111698" transform="translate(-285 -16050.092)">
    <g id="Group_1109717" data-name="Group 1109717">
      <g id="Group_1109272" data-name="Group 1109272" transform="translate(285 16050.092)">
        <g id="Mask_Group_1098839" data-name="Mask Group 1098839" transform="translate(0)" clip-path="url(#clip-path)">
          <path id="Path_891796" data-name="Path 891796" d="M0,0H1079V527.524H0Z" transform="translate(-20 -13.079)" fill="url(#linear-gradient)"/>
        </g>
      </g>
      <g id="Group_1109273" data-name="Group 1109273" transform="translate(595.477 16104.365)">
        <path id="Path_892692" data-name="Path 892692" d="M0,0V25.4" transform="translate(106.325 69.371) rotate(180)" fill="none" stroke="#445866" stroke-width="3"/>
        <path id="Path_892701" data-name="Path 892701" d="M0,0V19.88" transform="translate(106.325 137.001) rotate(180)" fill="none" stroke="#445866" stroke-width="3"/>
        <path id="Path_892702" data-name="Path 892702" d="M0,0V19.88" transform="translate(344.372 137.001) rotate(180)" fill="none" stroke="#445866" stroke-width="3"/>
        <path id="Path_892706" data-name="Path 892706" d="M0,0V19.571" transform="translate(344.372 205.225) rotate(180)" fill="none" stroke="#445866" stroke-width="3"/>
        <path id="Path_892707" data-name="Path 892707" d="M0,0V20.055" transform="translate(344.372 274.334) rotate(180)" fill="none" stroke="#445866" stroke-width="3"/>
        <path id="Path_892708" data-name="Path 892708" d="M0,0V20.458" transform="translate(344.372 343.444) rotate(180)" fill="none" stroke="#445866" stroke-width="3"/>
        <path id="Path_892704" data-name="Path 892704" d="M0,0V48.657" transform="translate(490.862 95.109) rotate(90)" fill="none" stroke="#445866" stroke-width="3"/>
        <path id="Path_892703" data-name="Path 892703" d="M0,0V19.88" transform="translate(582.443 136.597) rotate(180)" fill="none" stroke="#445866" stroke-width="3"/>
        <path id="Path_892705" data-name="Path 892705" d="M0,0V19.571" transform="translate(582.443 204.821) rotate(180)" fill="none" stroke="#445866" stroke-width="3"/>
        <path id="Path_892700" data-name="Path 892700" d="M0,0V25.4" transform="translate(341.161 69.371) rotate(180)" fill="none" stroke="#445866" stroke-width="3"/>
        <rect id="Rectangle_404194" data-name="Rectangle 404194" width="211.569" height="51.552" rx="14" transform="translate(0.721 69.774)" fill="#9bffc1"/>
        <rect id="Rectangle_404204" data-name="Rectangle 404204" width="211.569" height="51.552" rx="14" transform="translate(238.748 69.774)" fill="#ffc9f2"/>
        <rect id="Rectangle_404207" data-name="Rectangle 404207" width="211.569" height="51.552" rx="14" transform="translate(476.838 69.37)" fill="#ffc9f2"/>
        <rect id="Rectangle_404203" data-name="Rectangle 404203" width="211.569" height="51.552" rx="14" transform="translate(0.721 137.001)" fill="#9bffc1"/>
        <rect id="Rectangle_404205" data-name="Rectangle 404205" width="211.569" height="51.552" rx="14" transform="translate(238.748 137.001)" fill="#c5ffee"/>
        <rect id="Rectangle_404209" data-name="Rectangle 404209" width="211.569" height="51.552" rx="14" transform="translate(238.748 205.628)" fill="#c5ffee"/>
        <rect id="Rectangle_404210" data-name="Rectangle 404210" width="211.569" height="51.552" rx="14" transform="translate(238.748 274.334)" fill="#c5ffee"/>
        <rect id="Rectangle_404211" data-name="Rectangle 404211" width="211.569" height="51.552" rx="14" transform="translate(238.748 343.444)" fill="#c5ffee"/>
        <rect id="Rectangle_404206" data-name="Rectangle 404206" width="211.569" height="51.552" rx="14" transform="translate(476.838 136.597)" fill="#ffc9f2"/>
        <rect id="Rectangle_404208" data-name="Rectangle 404208" width="211.569" height="51.552" rx="14" transform="translate(476.838 205.225)" fill="#ffc9f2"/>
        <path id="Path_896007" data-name="Path 896007" d="M31.339,3.625l3.281,8.719,3.273-8.719h2.555V15H38.479V11.25l.2-5.016L35.315,15H33.9L30.549,6.242l.2,5.008V15H28.776V3.625ZM47.651,15a2.93,2.93,0,0,1-.219-.789,3.193,3.193,0,0,1-4.3.219,2.325,2.325,0,0,1-.8-1.8,2.4,2.4,0,0,1,1-2.074,4.865,4.865,0,0,1,2.871-.723H47.37V9.281A1.481,1.481,0,0,0,47,8.23a1.456,1.456,0,0,0-1.117-.395,1.672,1.672,0,0,0-1.062.324,1,1,0,0,0-.414.824h-1.9a2.107,2.107,0,0,1,.461-1.3,3.071,3.071,0,0,1,1.254-.949,4.4,4.4,0,0,1,1.77-.344,3.547,3.547,0,0,1,2.367.746,2.661,2.661,0,0,1,.906,2.1v3.813a4.321,4.321,0,0,0,.32,1.82V15Zm-2.086-1.367a2.159,2.159,0,0,0,1.059-.273,1.827,1.827,0,0,0,.746-.734V11.031H46.346a2.8,2.8,0,0,0-1.586.367,1.189,1.189,0,0,0-.531,1.039,1.109,1.109,0,0,0,.363.871A1.407,1.407,0,0,0,45.565,13.633Zm9.164.008a1.716,1.716,0,0,0,1.18-.414,1.415,1.415,0,0,0,.5-1.023H58.2a2.789,2.789,0,0,1-.492,1.473,3.228,3.228,0,0,1-1.25,1.082,3.725,3.725,0,0,1-1.7.4,3.6,3.6,0,0,1-2.812-1.148A4.555,4.555,0,0,1,50.9,10.836v-.2a4.479,4.479,0,0,1,1.031-3.09,3.571,3.571,0,0,1,2.813-1.16A3.473,3.473,0,0,1,57.2,7.27a3.148,3.148,0,0,1,1,2.309H56.409a1.738,1.738,0,0,0-.5-1.2,1.6,1.6,0,0,0-1.184-.469,1.671,1.671,0,0,0-1.422.668,3.408,3.408,0,0,0-.508,2.027v.3a3.465,3.465,0,0,0,.5,2.051A1.669,1.669,0,0,0,54.729,13.641ZM61.5,7.469a2.971,2.971,0,0,1,2.352-1.078q2.7,0,2.742,3.086V15H64.7V9.547a1.669,1.669,0,0,0-.379-1.238,1.549,1.549,0,0,0-1.113-.363,1.829,1.829,0,0,0-1.7,1.016V15H59.6V3h1.9ZM68.159,10.7a4.984,4.984,0,0,1,.492-2.238,3.6,3.6,0,0,1,1.383-1.531,3.9,3.9,0,0,1,2.047-.535,3.692,3.692,0,0,1,2.777,1.1,4.333,4.333,0,0,1,1.152,2.922l.008.445a5.029,5.029,0,0,1-.48,2.234,3.551,3.551,0,0,1-1.375,1.523,3.925,3.925,0,0,1-2.066.539,3.667,3.667,0,0,1-2.863-1.191,4.563,4.563,0,0,1-1.074-3.176Zm1.9.164A3.406,3.406,0,0,0,70.6,12.9a1.752,1.752,0,0,0,1.5.738,1.733,1.733,0,0,0,1.5-.75,3.762,3.762,0,0,0,.535-2.2,3.362,3.362,0,0,0-.551-2.031A1.856,1.856,0,0,0,70.6,8.652,3.691,3.691,0,0,0,70.057,10.859Zm12.3,1.844a.861.861,0,0,0-.418-.773,4.445,4.445,0,0,0-1.387-.469,7.129,7.129,0,0,1-1.617-.516,2.158,2.158,0,0,1-1.422-1.992,2.25,2.25,0,0,1,.922-1.828,3.644,3.644,0,0,1,2.344-.734,3.792,3.792,0,0,1,2.449.75,2.38,2.38,0,0,1,.934,1.945h-1.9a1.17,1.17,0,0,0-.406-.91,1.557,1.557,0,0,0-1.078-.363,1.682,1.682,0,0,0-1.02.289.911.911,0,0,0-.395.773.769.769,0,0,0,.367.68,5.049,5.049,0,0,0,1.484.488,7.027,7.027,0,0,1,1.754.586,2.484,2.484,0,0,1,.945.816,2.082,2.082,0,0,1,.309,1.156,2.2,2.2,0,0,1-.945,1.848,4.031,4.031,0,0,1-2.477.707,4.371,4.371,0,0,1-1.852-.375A3.047,3.047,0,0,1,77.69,13.75a2.441,2.441,0,0,1-.453-1.414h1.844a1.338,1.338,0,0,0,.508,1.035,1.973,1.973,0,0,0,1.242.363,1.92,1.92,0,0,0,1.141-.285A.883.883,0,0,0,82.362,12.7Z" transform="translate(50.459 87.218)" fill="#12263f"/>
        <path id="Path_896010" data-name="Path 896010" d="M32.249,12.352H27.842L26.921,15H24.866l4.3-11.375h1.773L35.241,15H33.178ZM28.4,10.758h3.3L30.046,6.039Zm9.359-4.211.055.883a3.042,3.042,0,0,1,2.438-1.039,2.337,2.337,0,0,1,2.32,1.3,3,3,0,0,1,2.594-1.3,2.636,2.636,0,0,1,2.082.773,3.405,3.405,0,0,1,.7,2.281V15h-1.9V9.5a1.681,1.681,0,0,0-.352-1.18,1.539,1.539,0,0,0-1.164-.375,1.581,1.581,0,0,0-1.059.348,1.833,1.833,0,0,0-.574.91L42.9,15h-1.9V9.438a1.354,1.354,0,0,0-1.523-1.492,1.671,1.671,0,0,0-1.617.93V15h-1.9V6.547ZM51.913,15h-1.9V6.547h1.9ZM49.9,4.352a1.008,1.008,0,0,1,.277-.727,1.048,1.048,0,0,1,.793-.289,1.061,1.061,0,0,1,.8.289,1,1,0,0,1,.281.727.977.977,0,0,1-.281.715,1.069,1.069,0,0,1-.8.285,1.056,1.056,0,0,1-.793-.285A.984.984,0,0,1,49.9,4.352Zm6.461.141V6.547H57.85V7.953H56.358v4.719a1.039,1.039,0,0,0,.191.7.888.888,0,0,0,.684.215,2.924,2.924,0,0,0,.664-.078v1.469a4.676,4.676,0,0,1-1.25.18q-2.187,0-2.187-2.414V7.953H53.069V6.547H54.46V4.492Zm2.352,6.2A4.984,4.984,0,0,1,59.2,8.457a3.6,3.6,0,0,1,1.383-1.531,3.9,3.9,0,0,1,2.047-.535,3.692,3.692,0,0,1,2.777,1.1,4.333,4.333,0,0,1,1.152,2.922l.008.445a5.029,5.029,0,0,1-.48,2.234,3.551,3.551,0,0,1-1.375,1.523,3.925,3.925,0,0,1-2.066.539,3.667,3.667,0,0,1-2.863-1.191,4.563,4.563,0,0,1-1.074-3.176Zm1.9.164a3.406,3.406,0,0,0,.539,2.043,1.752,1.752,0,0,0,1.5.738,1.733,1.733,0,0,0,1.5-.75,3.762,3.762,0,0,0,.535-2.2,3.362,3.362,0,0,0-.551-2.031,1.856,1.856,0,0,0-2.973-.012A3.691,3.691,0,0,0,60.608,10.859Zm12.3,1.844a.861.861,0,0,0-.418-.773,4.445,4.445,0,0,0-1.387-.469,7.129,7.129,0,0,1-1.617-.516,2.158,2.158,0,0,1-1.422-1.992,2.25,2.25,0,0,1,.922-1.828,3.644,3.644,0,0,1,2.344-.734,3.792,3.792,0,0,1,2.449.75,2.38,2.38,0,0,1,.934,1.945h-1.9a1.17,1.17,0,0,0-.406-.91,1.557,1.557,0,0,0-1.078-.363,1.682,1.682,0,0,0-1.02.289.911.911,0,0,0-.395.773.769.769,0,0,0,.367.68,5.049,5.049,0,0,0,1.484.488,7.027,7.027,0,0,1,1.754.586,2.484,2.484,0,0,1,.945.816A2.082,2.082,0,0,1,74.78,12.6a2.2,2.2,0,0,1-.945,1.848,4.031,4.031,0,0,1-2.477.707,4.371,4.371,0,0,1-1.852-.375,3.047,3.047,0,0,1-1.266-1.031,2.441,2.441,0,0,1-.453-1.414h1.844a1.338,1.338,0,0,0,.508,1.035,1.973,1.973,0,0,0,1.242.363,1.92,1.92,0,0,0,1.141-.285A.883.883,0,0,0,72.913,12.7ZM78.452,15h-1.9V6.547h1.9ZM76.436,4.352a1.008,1.008,0,0,1,.277-.727,1.048,1.048,0,0,1,.793-.289,1.061,1.061,0,0,1,.8.289,1,1,0,0,1,.281.727.977.977,0,0,1-.281.715,1.069,1.069,0,0,1-.8.285,1.056,1.056,0,0,1-.793-.285A.984.984,0,0,1,76.436,4.352Zm8.82,8.352a.861.861,0,0,0-.418-.773,4.445,4.445,0,0,0-1.387-.469,7.129,7.129,0,0,1-1.617-.516,2.158,2.158,0,0,1-1.422-1.992,2.25,2.25,0,0,1,.922-1.828,3.644,3.644,0,0,1,2.344-.734,3.792,3.792,0,0,1,2.449.75,2.38,2.38,0,0,1,.934,1.945h-1.9a1.17,1.17,0,0,0-.406-.91,1.557,1.557,0,0,0-1.078-.363,1.682,1.682,0,0,0-1.02.289.911.911,0,0,0-.395.773.769.769,0,0,0,.367.68,5.049,5.049,0,0,0,1.484.488,7.027,7.027,0,0,1,1.754.586,2.484,2.484,0,0,1,.945.816,2.082,2.082,0,0,1,.309,1.156,2.2,2.2,0,0,1-.945,1.848,4.031,4.031,0,0,1-2.477.707,4.371,4.371,0,0,1-1.852-.375,3.047,3.047,0,0,1-1.266-1.031,2.441,2.441,0,0,1-.453-1.414h1.844a1.338,1.338,0,0,0,.508,1.035,1.973,1.973,0,0,0,1.242.363,1.92,1.92,0,0,0,1.141-.285A.883.883,0,0,0,85.257,12.7Z" transform="translate(288.505 87.218)" fill="#12263f"/>
        <path id="Path_896015" data-name="Path 896015" d="M18.553,15V3.625h3.9a4.76,4.76,0,0,1,2.938.773A2.724,2.724,0,0,1,26.4,6.7a2.456,2.456,0,0,1-.422,1.406,2.715,2.715,0,0,1-1.234.969,2.511,2.511,0,0,1,1.426.941,2.742,2.742,0,0,1,.5,1.66,3.028,3.028,0,0,1-1.027,2.461A4.467,4.467,0,0,1,22.7,15ZM20.53,9.867v3.555h2.2a2.124,2.124,0,0,0,1.453-.461A1.618,1.618,0,0,0,24.7,11.68a1.623,1.623,0,0,0-1.812-1.812Zm0-1.453h1.938A2.241,2.241,0,0,0,23.909,8a1.432,1.432,0,0,0,.52-1.184,1.452,1.452,0,0,0-.48-1.219,2.426,2.426,0,0,0-1.5-.375H20.53ZM30.483,15h-1.9V6.547h1.9ZM28.467,4.352a1.008,1.008,0,0,1,.277-.727,1.048,1.048,0,0,1,.793-.289,1.061,1.061,0,0,1,.8.289,1,1,0,0,1,.281.727.977.977,0,0,1-.281.715,1.069,1.069,0,0,1-.8.285,1.056,1.056,0,0,1-.793-.285A.984.984,0,0,1,28.467,4.352Zm11.484,6.508a5.033,5.033,0,0,1-.891,3.129,3.094,3.094,0,0,1-4.617.254V18.25h-1.9V6.547H34.3l.078.859a2.788,2.788,0,0,1,2.273-1.016,2.881,2.881,0,0,1,2.426,1.152,5.167,5.167,0,0,1,.879,3.2ZM38.061,10.7a3.526,3.526,0,0,0-.5-2.008,1.638,1.638,0,0,0-1.441-.742,1.747,1.747,0,0,0-1.672.961v3.75a1.763,1.763,0,0,0,1.688.984,1.636,1.636,0,0,0,1.418-.73A3.881,3.881,0,0,0,38.061,10.7ZM46.608,15a2.93,2.93,0,0,1-.219-.789,3.193,3.193,0,0,1-4.3.219,2.325,2.325,0,0,1-.8-1.8,2.4,2.4,0,0,1,1-2.074,4.865,4.865,0,0,1,2.871-.723h1.164V9.281A1.481,1.481,0,0,0,45.96,8.23a1.456,1.456,0,0,0-1.117-.395,1.672,1.672,0,0,0-1.062.324,1,1,0,0,0-.414.824h-1.9a2.107,2.107,0,0,1,.461-1.3,3.071,3.071,0,0,1,1.254-.949,4.4,4.4,0,0,1,1.77-.344,3.547,3.547,0,0,1,2.367.746,2.661,2.661,0,0,1,.906,2.1v3.813a4.321,4.321,0,0,0,.32,1.82V15Zm-2.086-1.367a2.159,2.159,0,0,0,1.059-.273,1.827,1.827,0,0,0,.746-.734V11.031H45.3a2.8,2.8,0,0,0-1.586.367,1.189,1.189,0,0,0-.531,1.039,1.109,1.109,0,0,0,.363.871A1.407,1.407,0,0,0,44.522,13.633ZM54.639,8.281a4.7,4.7,0,0,0-.773-.062,1.741,1.741,0,0,0-1.758,1V15h-1.9V6.547h1.813l.047.945a2.139,2.139,0,0,1,1.906-1.1,1.777,1.777,0,0,1,.672.109Zm3.969-3.789V6.547H60.1V7.953H58.608v4.719a1.039,1.039,0,0,0,.191.7.888.888,0,0,0,.684.215,2.924,2.924,0,0,0,.664-.078v1.469a4.676,4.676,0,0,1-1.25.18q-2.187,0-2.187-2.414V7.953H55.319V6.547H56.71V4.492ZM63.569,15h-1.9V6.547h1.9ZM61.553,4.352a1.008,1.008,0,0,1,.277-.727,1.048,1.048,0,0,1,.793-.289,1.061,1.061,0,0,1,.8.289,1,1,0,0,1,.281.727.977.977,0,0,1-.281.715,1.069,1.069,0,0,1-.8.285,1.056,1.056,0,0,1-.793-.285A.984.984,0,0,1,61.553,4.352Zm7.555,9.289a1.716,1.716,0,0,0,1.18-.414,1.415,1.415,0,0,0,.5-1.023h1.789a2.789,2.789,0,0,1-.492,1.473,3.228,3.228,0,0,1-1.25,1.082,3.725,3.725,0,0,1-1.7.4,3.6,3.6,0,0,1-2.812-1.148,4.555,4.555,0,0,1-1.039-3.172v-.2a4.479,4.479,0,0,1,1.031-3.09,3.571,3.571,0,0,1,2.813-1.16,3.473,3.473,0,0,1,2.457.879,3.148,3.148,0,0,1,1,2.309H70.788a1.738,1.738,0,0,0-.5-1.2,1.6,1.6,0,0,0-1.184-.469,1.671,1.671,0,0,0-1.422.668,3.408,3.408,0,0,0-.508,2.027v.3a3.465,3.465,0,0,0,.5,2.051A1.669,1.669,0,0,0,69.108,13.641ZM76.03,15h-1.9V6.547h1.9ZM74.014,4.352a1.008,1.008,0,0,1,.277-.727,1.048,1.048,0,0,1,.793-.289,1.061,1.061,0,0,1,.8.289,1,1,0,0,1,.281.727.977.977,0,0,1-.281.715,1.069,1.069,0,0,1-.8.285,1.056,1.056,0,0,1-.793-.285A.984.984,0,0,1,74.014,4.352ZM77.741,10.7a4.984,4.984,0,0,1,.492-2.238,3.6,3.6,0,0,1,1.383-1.531,3.9,3.9,0,0,1,2.047-.535,3.692,3.692,0,0,1,2.777,1.1,4.333,4.333,0,0,1,1.152,2.922l.008.445a5.029,5.029,0,0,1-.48,2.234,3.551,3.551,0,0,1-1.375,1.523,3.925,3.925,0,0,1-2.066.539,3.667,3.667,0,0,1-2.863-1.191,4.563,4.563,0,0,1-1.074-3.176Zm1.9.164a3.406,3.406,0,0,0,.539,2.043,1.752,1.752,0,0,0,1.5.738,1.733,1.733,0,0,0,1.5-.75,3.762,3.762,0,0,0,.535-2.2,3.362,3.362,0,0,0-.551-2.031,1.856,1.856,0,0,0-2.973-.012A3.691,3.691,0,0,0,79.639,10.859Zm9.328-4.312.055.977a3.039,3.039,0,0,1,2.461-1.133q2.641,0,2.688,3.023V15h-1.9V9.523a1.741,1.741,0,0,0-.348-1.191,1.462,1.462,0,0,0-1.137-.387,1.829,1.829,0,0,0-1.711,1.039V15h-1.9V6.547Z" transform="translate(526.577 86.814)" fill="#12263f"/>
        <path id="Path_896008" data-name="Path 896008" d="M33.858,15H31.889V9.953H26.8V15H24.827V3.625H26.8V8.359h5.086V3.625h1.969Zm5.875.156a3.928,3.928,0,0,1-2.926-1.137,4.124,4.124,0,0,1-1.121-3.027v-.234A5.072,5.072,0,0,1,36.174,8.5a3.716,3.716,0,0,1,1.371-1.551,3.625,3.625,0,0,1,1.969-.555,3.318,3.318,0,0,1,2.668,1.1,4.658,4.658,0,0,1,.941,3.117v.766H37.6a2.539,2.539,0,0,0,.7,1.656,2.1,2.1,0,0,0,1.543.609,2.571,2.571,0,0,0,2.125-1.055l1.023.977a3.418,3.418,0,0,1-1.355,1.176A4.244,4.244,0,0,1,39.733,15.156Zm-.227-7.242a1.6,1.6,0,0,0-1.262.547,2.835,2.835,0,0,0-.613,1.523h3.617V9.844A2.307,2.307,0,0,0,40.741,8.4,1.586,1.586,0,0,0,39.507,7.914Zm6.875-1.367.055.883a3.042,3.042,0,0,1,2.438-1.039,2.337,2.337,0,0,1,2.32,1.3,3,3,0,0,1,2.594-1.3,2.636,2.636,0,0,1,2.082.773,3.405,3.405,0,0,1,.7,2.281V15h-1.9V9.5a1.681,1.681,0,0,0-.352-1.18,1.539,1.539,0,0,0-1.164-.375,1.581,1.581,0,0,0-1.059.348,1.833,1.833,0,0,0-.574.91L51.53,15h-1.9V9.438a1.354,1.354,0,0,0-1.523-1.492,1.671,1.671,0,0,0-1.617.93V15h-1.9V6.547Zm19.555,4.313a5.078,5.078,0,0,1-.879,3.133,2.863,2.863,0,0,1-2.418,1.164,2.758,2.758,0,0,1-2.312-1.07L60.233,15H58.514V3h1.9V7.359a2.748,2.748,0,0,1,2.211-.969,2.9,2.9,0,0,1,2.43,1.148,5.162,5.162,0,0,1,.883,3.211Zm-1.9-.164a3.589,3.589,0,0,0-.484-2.062,1.613,1.613,0,0,0-1.406-.687,1.763,1.763,0,0,0-1.734,1.078v3.484a1.781,1.781,0,0,0,1.75,1.1,1.6,1.6,0,0,0,1.375-.664,3.477,3.477,0,0,0,.5-2.008Zm7.914-2.414a4.7,4.7,0,0,0-.773-.062,1.741,1.741,0,0,0-1.758,1V15h-1.9V6.547h1.813l.047.945a2.139,2.139,0,0,1,1.906-1.1,1.777,1.777,0,0,1,.672.109ZM77.967,15a2.93,2.93,0,0,1-.219-.789,3.193,3.193,0,0,1-4.3.219,2.325,2.325,0,0,1-.8-1.8,2.4,2.4,0,0,1,1-2.074,4.865,4.865,0,0,1,2.871-.723h1.164V9.281a1.481,1.481,0,0,0-.367-1.051A1.456,1.456,0,0,0,76.2,7.836a1.672,1.672,0,0,0-1.062.324,1,1,0,0,0-.414.824h-1.9a2.107,2.107,0,0,1,.461-1.3,3.071,3.071,0,0,1,1.254-.949,4.4,4.4,0,0,1,1.77-.344,3.547,3.547,0,0,1,2.367.746,2.661,2.661,0,0,1,.906,2.1v3.813a4.321,4.321,0,0,0,.32,1.82V15Zm-2.086-1.367a2.159,2.159,0,0,0,1.059-.273,1.827,1.827,0,0,0,.746-.734V11.031H76.663a2.8,2.8,0,0,0-1.586.367,1.189,1.189,0,0,0-.531,1.039,1.109,1.109,0,0,0,.363.871A1.407,1.407,0,0,0,75.882,13.633Zm10.43-.93a.861.861,0,0,0-.418-.773,4.445,4.445,0,0,0-1.387-.469,7.129,7.129,0,0,1-1.617-.516,2.158,2.158,0,0,1-1.422-1.992,2.25,2.25,0,0,1,.922-1.828,3.644,3.644,0,0,1,2.344-.734,3.792,3.792,0,0,1,2.449.75,2.38,2.38,0,0,1,.934,1.945h-1.9a1.17,1.17,0,0,0-.406-.91,1.557,1.557,0,0,0-1.078-.363,1.682,1.682,0,0,0-1.02.289.911.911,0,0,0-.395.773.769.769,0,0,0,.367.68,5.049,5.049,0,0,0,1.484.488,7.027,7.027,0,0,1,1.754.586,2.484,2.484,0,0,1,.945.816,2.082,2.082,0,0,1,.309,1.156,2.2,2.2,0,0,1-.945,1.848,4.031,4.031,0,0,1-2.477.707,4.371,4.371,0,0,1-1.852-.375,3.047,3.047,0,0,1-1.266-1.031,2.441,2.441,0,0,1-.453-1.414H83.03a1.338,1.338,0,0,0,.508,1.035,1.973,1.973,0,0,0,1.242.363,1.92,1.92,0,0,0,1.141-.285A.883.883,0,0,0,86.311,12.7Z" transform="translate(50.459 155.75)" fill="#12263f"/>
        <path id="Path_896011" data-name="Path 896011" d="M33.538,3.625l3.281,8.719,3.273-8.719h2.555V15H40.678V11.25l.2-5.016L37.514,15H36.1L32.749,6.242l.2,5.008V15H30.975V3.625ZM46.819,15h-1.9V6.547h1.9ZM44.8,4.352a1.008,1.008,0,0,1,.277-.727,1.048,1.048,0,0,1,.793-.289,1.061,1.061,0,0,1,.8.289,1,1,0,0,1,.281.727.977.977,0,0,1-.281.715,1.069,1.069,0,0,1-.8.285,1.056,1.056,0,0,1-.793-.285A.984.984,0,0,1,44.8,4.352Zm6.461.141V6.547h1.492V7.953H51.264v4.719a1.039,1.039,0,0,0,.191.7.888.888,0,0,0,.684.215,2.924,2.924,0,0,0,.664-.078v1.469a4.676,4.676,0,0,1-1.25.18q-2.187,0-2.187-2.414V7.953H47.975V6.547h1.391V4.492Zm2.352,6.2a4.984,4.984,0,0,1,.492-2.238,3.6,3.6,0,0,1,1.383-1.531,3.9,3.9,0,0,1,2.047-.535,3.692,3.692,0,0,1,2.777,1.1,4.333,4.333,0,0,1,1.152,2.922l.008.445a5.029,5.029,0,0,1-.48,2.234,3.551,3.551,0,0,1-1.375,1.523,3.925,3.925,0,0,1-2.066.539,3.667,3.667,0,0,1-2.863-1.191,4.563,4.563,0,0,1-1.074-3.176Zm1.9.164a3.406,3.406,0,0,0,.539,2.043,1.752,1.752,0,0,0,1.5.738,1.733,1.733,0,0,0,1.5-.75,3.762,3.762,0,0,0,.535-2.2,3.362,3.362,0,0,0-.551-2.031,1.856,1.856,0,0,0-2.973-.012A3.691,3.691,0,0,0,55.514,10.859Zm12.3,1.844a.861.861,0,0,0-.418-.773,4.445,4.445,0,0,0-1.387-.469,7.129,7.129,0,0,1-1.617-.516,2.158,2.158,0,0,1-1.422-1.992A2.25,2.25,0,0,1,63.9,7.125a3.644,3.644,0,0,1,2.344-.734,3.792,3.792,0,0,1,2.449.75,2.38,2.38,0,0,1,.934,1.945h-1.9a1.17,1.17,0,0,0-.406-.91,1.557,1.557,0,0,0-1.078-.363,1.682,1.682,0,0,0-1.02.289.911.911,0,0,0-.395.773.769.769,0,0,0,.367.68,5.049,5.049,0,0,0,1.484.488,7.027,7.027,0,0,1,1.754.586,2.484,2.484,0,0,1,.945.816,2.082,2.082,0,0,1,.309,1.156,2.2,2.2,0,0,1-.945,1.848,4.031,4.031,0,0,1-2.477.707,4.371,4.371,0,0,1-1.852-.375,3.047,3.047,0,0,1-1.266-1.031,2.441,2.441,0,0,1-.453-1.414h1.844a1.338,1.338,0,0,0,.508,1.035,1.973,1.973,0,0,0,1.242.363,1.92,1.92,0,0,0,1.141-.285A.883.883,0,0,0,67.819,12.7ZM73.358,15h-1.9V6.547h1.9ZM71.342,4.352a1.008,1.008,0,0,1,.277-.727,1.048,1.048,0,0,1,.793-.289,1.061,1.061,0,0,1,.8.289,1,1,0,0,1,.281.727.977.977,0,0,1-.281.715,1.069,1.069,0,0,1-.8.285,1.056,1.056,0,0,1-.793-.285A.984.984,0,0,1,71.342,4.352Zm8.82,8.352a.861.861,0,0,0-.418-.773,4.445,4.445,0,0,0-1.387-.469,7.129,7.129,0,0,1-1.617-.516,2.158,2.158,0,0,1-1.422-1.992,2.25,2.25,0,0,1,.922-1.828,3.644,3.644,0,0,1,2.344-.734,3.792,3.792,0,0,1,2.449.75,2.38,2.38,0,0,1,.934,1.945h-1.9a1.17,1.17,0,0,0-.406-.91,1.557,1.557,0,0,0-1.078-.363,1.682,1.682,0,0,0-1.02.289.911.911,0,0,0-.395.773.769.769,0,0,0,.367.68,5.049,5.049,0,0,0,1.484.488,7.027,7.027,0,0,1,1.754.586,2.484,2.484,0,0,1,.945.816A2.082,2.082,0,0,1,82.03,12.6a2.2,2.2,0,0,1-.945,1.848,4.031,4.031,0,0,1-2.477.707,4.371,4.371,0,0,1-1.852-.375,3.047,3.047,0,0,1-1.266-1.031,2.441,2.441,0,0,1-.453-1.414h1.844a1.338,1.338,0,0,0,.508,1.035,1.973,1.973,0,0,0,1.242.363,1.92,1.92,0,0,0,1.141-.285A.883.883,0,0,0,80.163,12.7Z" transform="translate(288.505 155.75)" fill="#12263f"/>
        <path id="Path_896012" data-name="Path 896012" d="M36.4,15H34.428V3.625H36.4ZM40.4,6.547l.055.977a3.039,3.039,0,0,1,2.461-1.133q2.641,0,2.688,3.023V15h-1.9V9.523a1.741,1.741,0,0,0-.348-1.191,1.462,1.462,0,0,0-1.137-.387,1.829,1.829,0,0,0-1.711,1.039V15h-1.9V6.547Zm9.117,0v9.2a2.781,2.781,0,0,1-.645,1.98,2.47,2.47,0,0,1-1.887.684,3.794,3.794,0,0,1-1.008-.133v-1.5a2.925,2.925,0,0,0,.672.07q.945,0,.969-1.031V6.547Zm-2.062-2.2a1.008,1.008,0,0,1,.277-.727,1.048,1.048,0,0,1,.793-.289,1.061,1.061,0,0,1,.8.289,1,1,0,0,1,.281.727.977.977,0,0,1-.281.715,1.069,1.069,0,0,1-.8.285,1.056,1.056,0,0,1-.793-.285A.984.984,0,0,1,47.46,4.352Zm7.813,10.8a3.928,3.928,0,0,1-2.926-1.137,4.124,4.124,0,0,1-1.121-3.027v-.234A5.072,5.072,0,0,1,51.714,8.5a3.716,3.716,0,0,1,1.371-1.551,3.625,3.625,0,0,1,1.969-.555,3.318,3.318,0,0,1,2.668,1.1,4.658,4.658,0,0,1,.941,3.117v.766H53.139a2.539,2.539,0,0,0,.7,1.656,2.1,2.1,0,0,0,1.543.609,2.571,2.571,0,0,0,2.125-1.055l1.023.977a3.418,3.418,0,0,1-1.355,1.176A4.244,4.244,0,0,1,55.272,15.156Zm-.227-7.242a1.6,1.6,0,0,0-1.262.547,2.835,2.835,0,0,0-.613,1.523h3.617V9.844A2.307,2.307,0,0,0,56.28,8.4,1.586,1.586,0,0,0,55.046,7.914Zm9.516.367a4.7,4.7,0,0,0-.773-.062,1.741,1.741,0,0,0-1.758,1V15h-1.9V6.547h1.813l.047.945a2.139,2.139,0,0,1,1.906-1.1,1.777,1.777,0,0,1,.672.109ZM68.53,4.492V6.547h1.492V7.953H68.53v4.719a1.039,1.039,0,0,0,.191.7.888.888,0,0,0,.684.215,2.925,2.925,0,0,0,.664-.078v1.469a4.676,4.676,0,0,1-1.25.18q-2.188,0-2.187-2.414V7.953H65.241V6.547h1.391V4.492Zm2.352,6.2a4.984,4.984,0,0,1,.492-2.238,3.6,3.6,0,0,1,1.383-1.531A3.9,3.9,0,0,1,74.8,6.391a3.692,3.692,0,0,1,2.777,1.1,4.333,4.333,0,0,1,1.152,2.922l.008.445a5.029,5.029,0,0,1-.48,2.234,3.551,3.551,0,0,1-1.375,1.523,3.925,3.925,0,0,1-2.066.539,3.667,3.667,0,0,1-2.863-1.191,4.563,4.563,0,0,1-1.074-3.176Zm1.9.164a3.406,3.406,0,0,0,.539,2.043,1.752,1.752,0,0,0,1.5.738,1.733,1.733,0,0,0,1.5-.75,3.762,3.762,0,0,0,.535-2.2A3.362,3.362,0,0,0,76.3,8.664a1.856,1.856,0,0,0-2.973-.012A3.691,3.691,0,0,0,72.78,10.859Z" transform="translate(288.505 224.377)" fill="#12263f"/>
        <path id="Path_896013" data-name="Path 896013" d="M39.913,9.922H35.241v3.5H40.7V15H33.264V3.625h7.383V5.219H35.241V8.359h4.672ZM46.866,12.7a.861.861,0,0,0-.418-.773,4.445,4.445,0,0,0-1.387-.469,7.129,7.129,0,0,1-1.617-.516,2.158,2.158,0,0,1-1.422-1.992,2.25,2.25,0,0,1,.922-1.828,3.644,3.644,0,0,1,2.344-.734,3.792,3.792,0,0,1,2.449.75,2.38,2.38,0,0,1,.934,1.945h-1.9a1.17,1.17,0,0,0-.406-.91,1.557,1.557,0,0,0-1.078-.363,1.682,1.682,0,0,0-1.02.289.911.911,0,0,0-.395.773.769.769,0,0,0,.367.68,5.049,5.049,0,0,0,1.484.488,7.027,7.027,0,0,1,1.754.586,2.484,2.484,0,0,1,.945.816,2.082,2.082,0,0,1,.309,1.156,2.2,2.2,0,0,1-.945,1.848,4.031,4.031,0,0,1-2.477.707,4.371,4.371,0,0,1-1.852-.375,3.047,3.047,0,0,1-1.266-1.031,2.441,2.441,0,0,1-.453-1.414h1.844a1.338,1.338,0,0,0,.508,1.035,1.973,1.973,0,0,0,1.242.363,1.92,1.92,0,0,0,1.141-.285A.883.883,0,0,0,46.866,12.7Zm5.9-8.211V6.547h1.492V7.953H52.764v4.719a1.039,1.039,0,0,0,.191.7.888.888,0,0,0,.684.215,2.924,2.924,0,0,0,.664-.078v1.469a4.676,4.676,0,0,1-1.25.18q-2.187,0-2.187-2.414V7.953H49.475V6.547h1.391V4.492ZM60.757,15a2.93,2.93,0,0,1-.219-.789,3.193,3.193,0,0,1-4.3.219,2.325,2.325,0,0,1-.8-1.8,2.4,2.4,0,0,1,1-2.074,4.865,4.865,0,0,1,2.871-.723h1.164V9.281a1.481,1.481,0,0,0-.367-1.051,1.456,1.456,0,0,0-1.117-.395,1.672,1.672,0,0,0-1.062.324,1,1,0,0,0-.414.824h-1.9a2.107,2.107,0,0,1,.461-1.3,3.071,3.071,0,0,1,1.254-.949,4.4,4.4,0,0,1,1.77-.344,3.547,3.547,0,0,1,2.367.746,2.661,2.661,0,0,1,.906,2.1v3.813a4.321,4.321,0,0,0,.32,1.82V15Zm-2.086-1.367a2.159,2.159,0,0,0,1.059-.273,1.827,1.827,0,0,0,.746-.734V11.031H59.452a2.8,2.8,0,0,0-1.586.367,1.189,1.189,0,0,0-.531,1.039,1.109,1.109,0,0,0,.363.871A1.407,1.407,0,0,0,58.671,13.633Zm9.164.008a1.716,1.716,0,0,0,1.18-.414,1.415,1.415,0,0,0,.5-1.023H71.3a2.789,2.789,0,0,1-.492,1.473,3.228,3.228,0,0,1-1.25,1.082,3.725,3.725,0,0,1-1.7.4,3.6,3.6,0,0,1-2.812-1.148,4.555,4.555,0,0,1-1.039-3.172v-.2a4.479,4.479,0,0,1,1.031-3.09,3.571,3.571,0,0,1,2.813-1.16,3.473,3.473,0,0,1,2.457.879,3.148,3.148,0,0,1,1,2.309H69.514a1.738,1.738,0,0,0-.5-1.2,1.6,1.6,0,0,0-1.184-.469,1.671,1.671,0,0,0-1.422.668,3.408,3.408,0,0,0-.508,2.027v.3a3.465,3.465,0,0,0,.5,2.051A1.669,1.669,0,0,0,67.835,13.641ZM77.788,15a2.93,2.93,0,0,1-.219-.789,3.193,3.193,0,0,1-4.3.219,2.325,2.325,0,0,1-.8-1.8,2.4,2.4,0,0,1,1-2.074,4.865,4.865,0,0,1,2.871-.723h1.164V9.281a1.481,1.481,0,0,0-.367-1.051,1.456,1.456,0,0,0-1.117-.395,1.672,1.672,0,0,0-1.062.324,1,1,0,0,0-.414.824h-1.9a2.107,2.107,0,0,1,.461-1.3,3.071,3.071,0,0,1,1.254-.949,4.4,4.4,0,0,1,1.77-.344,3.547,3.547,0,0,1,2.367.746,2.661,2.661,0,0,1,.906,2.1v3.813a4.321,4.321,0,0,0,.32,1.82V15ZM75.7,13.633a2.159,2.159,0,0,0,1.059-.273,1.827,1.827,0,0,0,.746-.734V11.031H76.483A2.8,2.8,0,0,0,74.9,11.4a1.189,1.189,0,0,0-.531,1.039,1.109,1.109,0,0,0,.363.871A1.407,1.407,0,0,0,75.7,13.633Z" transform="translate(288.505 293.083)" fill="#12263f"/>
        <path id="Path_896014" data-name="Path 896014" d="M40.651,12.352H36.245L35.323,15H33.268l4.3-11.375h1.773L43.643,15H41.581ZM36.8,10.758h3.3L38.448,6.039Zm11.422,2.883a1.716,1.716,0,0,0,1.18-.414,1.415,1.415,0,0,0,.5-1.023H51.69a2.789,2.789,0,0,1-.492,1.473,3.228,3.228,0,0,1-1.25,1.082,3.725,3.725,0,0,1-1.7.4,3.6,3.6,0,0,1-2.812-1.148,4.555,4.555,0,0,1-1.039-3.172v-.2a4.479,4.479,0,0,1,1.031-3.09,3.571,3.571,0,0,1,2.813-1.16,3.473,3.473,0,0,1,2.457.879,3.148,3.148,0,0,1,1,2.309H49.9a1.738,1.738,0,0,0-.5-1.2,1.6,1.6,0,0,0-1.184-.469,1.671,1.671,0,0,0-1.422.668,3.408,3.408,0,0,0-.508,2.027v.3a3.465,3.465,0,0,0,.5,2.051A1.669,1.669,0,0,0,48.221,13.641ZM52.768,10.7a4.984,4.984,0,0,1,.492-2.238,3.6,3.6,0,0,1,1.383-1.531,3.9,3.9,0,0,1,2.047-.535,3.692,3.692,0,0,1,2.777,1.1,4.333,4.333,0,0,1,1.152,2.922l.008.445a5.029,5.029,0,0,1-.48,2.234,3.551,3.551,0,0,1-1.375,1.523,3.925,3.925,0,0,1-2.066.539,3.667,3.667,0,0,1-2.863-1.191,4.563,4.563,0,0,1-1.074-3.176Zm1.9.164a3.406,3.406,0,0,0,.539,2.043,1.752,1.752,0,0,0,1.5.738,1.733,1.733,0,0,0,1.5-.75,3.762,3.762,0,0,0,.535-2.2,3.362,3.362,0,0,0-.551-2.031,1.856,1.856,0,0,0-2.973-.012A3.691,3.691,0,0,0,54.667,10.859Zm7.211-.148a5.026,5.026,0,0,1,.906-3.137,2.9,2.9,0,0,1,2.43-1.184,2.759,2.759,0,0,1,2.172.938V3h1.9V15H67.565l-.094-.875A2.8,2.8,0,0,1,65.2,15.156a2.887,2.887,0,0,1-2.4-1.2A5.21,5.21,0,0,1,61.878,10.711Zm1.9.164a3.519,3.519,0,0,0,.5,2.012,1.61,1.61,0,0,0,1.41.723,1.793,1.793,0,0,0,1.7-1.039V8.961A1.766,1.766,0,0,0,65.7,7.945a1.622,1.622,0,0,0-1.422.73A3.919,3.919,0,0,0,63.776,10.875Zm7.133-.18A4.984,4.984,0,0,1,71.4,8.457a3.6,3.6,0,0,1,1.383-1.531,3.9,3.9,0,0,1,2.047-.535,3.692,3.692,0,0,1,2.777,1.1,4.333,4.333,0,0,1,1.152,2.922l.008.445a5.029,5.029,0,0,1-.48,2.234,3.551,3.551,0,0,1-1.375,1.523,3.925,3.925,0,0,1-2.066.539,3.667,3.667,0,0,1-2.863-1.191,4.563,4.563,0,0,1-1.074-3.176Zm1.9.164a3.406,3.406,0,0,0,.539,2.043,1.752,1.752,0,0,0,1.5.738,1.733,1.733,0,0,0,1.5-.75,3.762,3.762,0,0,0,.535-2.2,3.362,3.362,0,0,0-.551-2.031,1.856,1.856,0,0,0-2.973-.012A3.691,3.691,0,0,0,72.807,10.859Z" transform="translate(288.505 361.329)" fill="#12263f"/>
        <path id="Path_896016" data-name="Path 896016" d="M29.878,13.523a3.779,3.779,0,0,1-1.711,1.219,6.98,6.98,0,0,1-2.484.414,4.9,4.9,0,0,1-2.531-.648,4.319,4.319,0,0,1-1.7-1.855,6.491,6.491,0,0,1-.621-2.816V8.945a6.02,6.02,0,0,1,1.234-4.027A4.281,4.281,0,0,1,25.51,3.469a4.529,4.529,0,0,1,3.016.941A4.057,4.057,0,0,1,29.87,7.117H27.932a2.18,2.18,0,0,0-2.383-2.055,2.336,2.336,0,0,0-2.02.956,4.871,4.871,0,0,0-.715,2.806V9.7a4.626,4.626,0,0,0,.777,2.861,2.564,2.564,0,0,0,2.16,1.019,2.848,2.848,0,0,0,2.156-.687V10.664H25.565v-1.5h4.313Zm5.711,1.633a3.928,3.928,0,0,1-2.926-1.137,4.124,4.124,0,0,1-1.121-3.027v-.234A5.072,5.072,0,0,1,32.03,8.5,3.716,3.716,0,0,1,33.4,6.945a3.625,3.625,0,0,1,1.969-.555,3.318,3.318,0,0,1,2.668,1.1,4.658,4.658,0,0,1,.941,3.117v.766H33.456a2.539,2.539,0,0,0,.7,1.656,2.1,2.1,0,0,0,1.543.609,2.571,2.571,0,0,0,2.125-1.055l1.023.977a3.418,3.418,0,0,1-1.355,1.176A4.244,4.244,0,0,1,35.589,15.156Zm-.227-7.242a1.6,1.6,0,0,0-1.262.547,2.835,2.835,0,0,0-.613,1.523H37.1V9.844A2.307,2.307,0,0,0,36.6,8.4,1.586,1.586,0,0,0,35.362,7.914Zm6.875-1.367.055.883a3.042,3.042,0,0,1,2.438-1.039,2.337,2.337,0,0,1,2.32,1.3,3,3,0,0,1,2.594-1.3,2.636,2.636,0,0,1,2.082.773,3.405,3.405,0,0,1,.7,2.281V15h-1.9V9.5a1.681,1.681,0,0,0-.352-1.18,1.539,1.539,0,0,0-1.164-.375,1.581,1.581,0,0,0-1.059.348,1.833,1.833,0,0,0-.574.91l.008,5.8h-1.9V9.438a1.354,1.354,0,0,0-1.523-1.492,1.671,1.671,0,0,0-1.617.93V15h-1.9V6.547ZM59.424,15a2.93,2.93,0,0,1-.219-.789,3.193,3.193,0,0,1-4.3.219,2.325,2.325,0,0,1-.8-1.8,2.4,2.4,0,0,1,1-2.074,4.865,4.865,0,0,1,2.871-.723h1.164V9.281a1.481,1.481,0,0,0-.367-1.051,1.456,1.456,0,0,0-1.117-.395A1.672,1.672,0,0,0,56.6,8.16a1,1,0,0,0-.414.824h-1.9a2.107,2.107,0,0,1,.461-1.3A3.071,3.071,0,0,1,56,6.734a4.4,4.4,0,0,1,1.77-.344,3.547,3.547,0,0,1,2.367.746,2.661,2.661,0,0,1,.906,2.1v3.813a4.321,4.321,0,0,0,.32,1.82V15Zm-2.086-1.367a2.159,2.159,0,0,0,1.059-.273,1.827,1.827,0,0,0,.746-.734V11.031H58.12a2.8,2.8,0,0,0-1.586.367A1.189,1.189,0,0,0,56,12.438a1.109,1.109,0,0,0,.363.871A1.407,1.407,0,0,0,57.339,13.633Zm9.164.008a1.716,1.716,0,0,0,1.18-.414,1.415,1.415,0,0,0,.5-1.023h1.789a2.789,2.789,0,0,1-.492,1.473,3.228,3.228,0,0,1-1.25,1.082,3.725,3.725,0,0,1-1.7.4,3.6,3.6,0,0,1-2.812-1.148,4.555,4.555,0,0,1-1.039-3.172v-.2a4.479,4.479,0,0,1,1.031-3.09,3.571,3.571,0,0,1,2.812-1.16,3.473,3.473,0,0,1,2.457.879,3.148,3.148,0,0,1,1,2.309H68.182a1.738,1.738,0,0,0-.5-1.2A1.6,1.6,0,0,0,66.5,7.914a1.671,1.671,0,0,0-1.422.668,3.408,3.408,0,0,0-.508,2.027v.3a3.465,3.465,0,0,0,.5,2.051A1.669,1.669,0,0,0,66.5,13.641ZM73.424,15h-1.9V6.547h1.9ZM71.409,4.352a1.008,1.008,0,0,1,.277-.727,1.048,1.048,0,0,1,.793-.289,1.061,1.061,0,0,1,.8.289,1,1,0,0,1,.281.727.977.977,0,0,1-.281.715,1.069,1.069,0,0,1-.8.285,1.056,1.056,0,0,1-.793-.285A.984.984,0,0,1,71.409,4.352ZM75.135,10.7a4.984,4.984,0,0,1,.492-2.238A3.6,3.6,0,0,1,77.01,6.926a3.9,3.9,0,0,1,2.047-.535,3.692,3.692,0,0,1,2.777,1.1,4.333,4.333,0,0,1,1.152,2.922l.008.445a5.029,5.029,0,0,1-.48,2.234,3.551,3.551,0,0,1-1.375,1.523,3.925,3.925,0,0,1-2.066.539,3.667,3.667,0,0,1-2.863-1.191,4.563,4.563,0,0,1-1.074-3.176Zm1.9.164a3.406,3.406,0,0,0,.539,2.043,1.752,1.752,0,0,0,1.5.738,1.733,1.733,0,0,0,1.5-.75,3.762,3.762,0,0,0,.535-2.2,3.362,3.362,0,0,0-.551-2.031,1.856,1.856,0,0,0-2.973-.012A3.691,3.691,0,0,0,77.034,10.859ZM79.581,3h2.164L79.581,5.367l-1.523,0Zm6.781,3.547.055.977a3.039,3.039,0,0,1,2.461-1.133q2.641,0,2.688,3.023V15h-1.9V9.523a1.741,1.741,0,0,0-.348-1.191,1.462,1.462,0,0,0-1.137-.387,1.829,1.829,0,0,0-1.711,1.039V15h-1.9V6.547Z" transform="translate(526.577 155.346)" fill="#12263f"/>
        <path id="Path_896017" data-name="Path 896017" d="M17.495,9.922H12.823v3.5h5.461V15H10.846V3.625h7.383V5.219H12.823V8.359h4.672ZM24.448,12.7a.861.861,0,0,0-.418-.773,4.445,4.445,0,0,0-1.387-.469,7.129,7.129,0,0,1-1.617-.516A2.158,2.158,0,0,1,19.6,8.953a2.25,2.25,0,0,1,.922-1.828,3.644,3.644,0,0,1,2.344-.734,3.792,3.792,0,0,1,2.449.75,2.38,2.38,0,0,1,.934,1.945h-1.9a1.17,1.17,0,0,0-.406-.91,1.557,1.557,0,0,0-1.078-.363,1.682,1.682,0,0,0-1.02.289.911.911,0,0,0-.395.773.769.769,0,0,0,.367.68,5.049,5.049,0,0,0,1.484.488,7.027,7.027,0,0,1,1.754.586,2.484,2.484,0,0,1,.945.816,2.082,2.082,0,0,1,.309,1.156,2.2,2.2,0,0,1-.945,1.848,4.031,4.031,0,0,1-2.477.707,4.371,4.371,0,0,1-1.852-.375,3.047,3.047,0,0,1-1.266-1.031,2.441,2.441,0,0,1-.453-1.414h1.844a1.338,1.338,0,0,0,.508,1.035,1.973,1.973,0,0,0,1.242.363,1.92,1.92,0,0,0,1.141-.285A.883.883,0,0,0,24.448,12.7ZM35.37,10.859a5.033,5.033,0,0,1-.891,3.129,3.094,3.094,0,0,1-4.617.254V18.25h-1.9V6.547h1.75l.078.859a2.788,2.788,0,0,1,2.273-1.016,2.881,2.881,0,0,1,2.426,1.152,5.167,5.167,0,0,1,.879,3.2ZM33.479,10.7a3.526,3.526,0,0,0-.5-2.008,1.638,1.638,0,0,0-1.441-.742,1.747,1.747,0,0,0-1.672.961v3.75a1.763,1.763,0,0,0,1.688.984,1.636,1.636,0,0,0,1.418-.73A3.881,3.881,0,0,0,33.479,10.7Zm3.141,0a4.984,4.984,0,0,1,.492-2.238,3.6,3.6,0,0,1,1.383-1.531,3.9,3.9,0,0,1,2.047-.535,3.692,3.692,0,0,1,2.777,1.1,4.333,4.333,0,0,1,1.152,2.922l.008.445A5.029,5.029,0,0,1,44,13.094a3.551,3.551,0,0,1-1.375,1.523,3.925,3.925,0,0,1-2.066.539,3.667,3.667,0,0,1-2.863-1.191,4.563,4.563,0,0,1-1.074-3.176Zm1.9.164a3.406,3.406,0,0,0,.539,2.043,1.752,1.752,0,0,0,1.5.738,1.733,1.733,0,0,0,1.5-.75,3.762,3.762,0,0,0,.535-2.2,3.362,3.362,0,0,0-.551-2.031,1.856,1.856,0,0,0-2.973-.012A3.691,3.691,0,0,0,38.518,10.859ZM50.51,8.281a4.7,4.7,0,0,0-.773-.062,1.741,1.741,0,0,0-1.758,1V15h-1.9V6.547h1.813l.047.945a2.139,2.139,0,0,1,1.906-1.1,1.777,1.777,0,0,1,.672.109Zm6.32,5.891a2.944,2.944,0,0,1-2.375.984,2.624,2.624,0,0,1-2.082-.8,3.423,3.423,0,0,1-.707-2.328V6.547h1.9V12q0,1.609,1.336,1.609a1.876,1.876,0,0,0,1.867-.992V6.547h1.9V15H56.878ZM62.62,15h-1.9V3h1.9Zm7.117,0a2.93,2.93,0,0,1-.219-.789,3.193,3.193,0,0,1-4.3.219,2.325,2.325,0,0,1-.8-1.8,2.4,2.4,0,0,1,1-2.074,4.865,4.865,0,0,1,2.871-.723h1.164V9.281a1.481,1.481,0,0,0-.367-1.051,1.456,1.456,0,0,0-1.117-.395,1.672,1.672,0,0,0-1.062.324,1,1,0,0,0-.414.824H64.6a2.107,2.107,0,0,1,.461-1.3,3.071,3.071,0,0,1,1.254-.949,4.4,4.4,0,0,1,1.77-.344,3.547,3.547,0,0,1,2.367.746,2.661,2.661,0,0,1,.906,2.1v3.813a4.321,4.321,0,0,0,.32,1.82V15Zm-2.086-1.367a2.159,2.159,0,0,0,1.059-.273,1.827,1.827,0,0,0,.746-.734V11.031H68.432a2.8,2.8,0,0,0-1.586.367,1.189,1.189,0,0,0-.531,1.039,1.109,1.109,0,0,0,.363.871A1.407,1.407,0,0,0,67.651,13.633Zm9.164.008a1.716,1.716,0,0,0,1.18-.414,1.415,1.415,0,0,0,.5-1.023h1.789a2.789,2.789,0,0,1-.492,1.473,3.228,3.228,0,0,1-1.25,1.082,3.725,3.725,0,0,1-1.7.4,3.6,3.6,0,0,1-2.812-1.148,4.555,4.555,0,0,1-1.039-3.172v-.2a4.479,4.479,0,0,1,1.031-3.09,3.571,3.571,0,0,1,2.813-1.16,3.473,3.473,0,0,1,2.457.879,3.148,3.148,0,0,1,1,2.309H78.495a1.738,1.738,0,0,0-.5-1.2,1.6,1.6,0,0,0-1.184-.469,1.671,1.671,0,0,0-1.422.668,3.408,3.408,0,0,0-.508,2.027v.3a3.465,3.465,0,0,0,.5,2.051A1.669,1.669,0,0,0,76.815,13.641ZM83.737,15h-1.9V6.547h1.9ZM81.721,4.352A1.008,1.008,0,0,1,82,3.625a1.048,1.048,0,0,1,.793-.289,1.061,1.061,0,0,1,.8.289,1,1,0,0,1,.281.727.977.977,0,0,1-.281.715,1.069,1.069,0,0,1-.8.285A1.056,1.056,0,0,1,82,5.066.984.984,0,0,1,81.721,4.352ZM85.448,10.7a4.984,4.984,0,0,1,.492-2.238,3.6,3.6,0,0,1,1.383-1.531,3.9,3.9,0,0,1,2.047-.535,3.692,3.692,0,0,1,2.777,1.1A4.333,4.333,0,0,1,93.3,10.414l.008.445a5.029,5.029,0,0,1-.48,2.234,3.551,3.551,0,0,1-1.375,1.523,3.925,3.925,0,0,1-2.066.539,3.667,3.667,0,0,1-2.863-1.191,4.563,4.563,0,0,1-1.074-3.176Zm1.9.164a3.406,3.406,0,0,0,.539,2.043,1.752,1.752,0,0,0,1.5.738,1.733,1.733,0,0,0,1.5-.75,3.762,3.762,0,0,0,.535-2.2,3.362,3.362,0,0,0-.551-2.031,1.856,1.856,0,0,0-2.973-.012A3.691,3.691,0,0,0,87.346,10.859ZM89.893,3h2.164L89.893,5.367l-1.523,0Zm6.781,3.547.055.977A3.039,3.039,0,0,1,99.19,6.391q2.641,0,2.687,3.023V15h-1.9V9.523a1.741,1.741,0,0,0-.348-1.191,1.462,1.462,0,0,0-1.137-.387,1.829,1.829,0,0,0-1.711,1.039V15h-1.9V6.547Z" transform="translate(526.577 223.974)" fill="#12263f"/>
        <rect id="Rectangle_404196" data-name="Rectangle 404196" width="212.65" height="47.347" rx="10" transform="translate(0 0)" fill="#066454"/>
        <rect id="Rectangle_404200" data-name="Rectangle 404200" width="212.65" height="47.347" rx="10" transform="translate(238.207 0.831)" fill="#a50751"/>
        <path id="Path_896006" data-name="Path 896006" d="M28.759,15.27A1.5,1.5,0,0,0,28.173,14a7.685,7.685,0,0,0-2.109-.937,14.953,14.953,0,0,1-2.412-.972A3.941,3.941,0,0,1,21.23,8.561,3.434,3.434,0,0,1,21.879,6.5a4.236,4.236,0,0,1,1.865-1.411,7.021,7.021,0,0,1,2.729-.508,6.39,6.39,0,0,1,2.715.552A4.323,4.323,0,0,1,31.039,6.7,4.076,4.076,0,0,1,31.7,8.98h-2.93a1.917,1.917,0,0,0-.615-1.519,2.529,2.529,0,0,0-1.729-.542,2.7,2.7,0,0,0-1.67.454,1.432,1.432,0,0,0-.6,1.2,1.372,1.372,0,0,0,.7,1.162,7.889,7.889,0,0,0,2.056.879,8.882,8.882,0,0,1,3.643,1.865A3.715,3.715,0,0,1,31.7,15.25a3.422,3.422,0,0,1-1.4,2.9,6.113,6.113,0,0,1-3.76,1.05,7.26,7.26,0,0,1-2.988-.6A4.729,4.729,0,0,1,21.5,16.949a4.214,4.214,0,0,1-.708-2.422H23.73q0,2.354,2.813,2.354a2.736,2.736,0,0,0,1.631-.425A1.382,1.382,0,0,0,28.759,15.27Zm9.6,3.926a5.187,5.187,0,0,1-3.784-1.426,5.068,5.068,0,0,1-1.46-3.8V13.7a6.383,6.383,0,0,1,.615-2.847,4.515,4.515,0,0,1,1.743-1.934,4.893,4.893,0,0,1,2.573-.679,4.385,4.385,0,0,1,3.413,1.367A5.555,5.555,0,0,1,42.7,13.482v1.152H35.976a2.622,2.622,0,0,0,.825,1.66,2.5,2.5,0,0,0,1.743.625,3.046,3.046,0,0,0,2.549-1.182l1.387,1.553a4.237,4.237,0,0,1-1.719,1.4A5.639,5.639,0,0,1,38.359,19.2Zm-.322-8.682a1.764,1.764,0,0,0-1.362.569,2.946,2.946,0,0,0-.669,1.628h3.926v-.226a2.1,2.1,0,0,0-.508-1.457A1.819,1.819,0,0,0,38.037,10.514ZM48.33,11.588l1.777-3.154h3.018l-3.008,5.176L53.251,19H50.224l-1.885-3.32L46.464,19H43.427l3.135-5.391-3-5.176h3.027Zm12.48,6.338a3.539,3.539,0,0,1-2.891,1.27,3.338,3.338,0,0,1-2.593-.977,4.169,4.169,0,0,1-.913-2.861V8.434h2.822v6.834q0,1.652,1.5,1.652a2.038,2.038,0,0,0,1.973-1V8.434h2.832V19H60.888ZM71.8,19a3.134,3.134,0,0,1-.283-.947A3.415,3.415,0,0,1,68.847,19.2a3.752,3.752,0,0,1-2.573-.9,2.89,2.89,0,0,1-1.021-2.266A2.986,2.986,0,0,1,66.5,13.453a6.144,6.144,0,0,1,3.6-.908h1.3v-.605a1.741,1.741,0,0,0-.376-1.172,1.479,1.479,0,0,0-1.187-.439,1.682,1.682,0,0,0-1.118.342,1.161,1.161,0,0,0-.405.938H65.488a2.835,2.835,0,0,1,.566-1.7,3.744,3.744,0,0,1,1.6-1.226,5.837,5.837,0,0,1,2.324-.444,4.611,4.611,0,0,1,3.1.981,3.433,3.433,0,0,1,1.147,2.759v4.58a5.052,5.052,0,0,0,.42,2.275V19Zm-2.334-1.963a2.431,2.431,0,0,0,1.152-.278,1.828,1.828,0,0,0,.781-.747V14.2H70.341q-2.119,0-2.256,1.465l-.01.166a1.13,1.13,0,0,0,.371.869A1.441,1.441,0,0,0,69.462,17.037ZM79.374,19H76.542V4h2.832Z" transform="translate(56.226 14.121)" fill="#fff"/>
        <path id="Path_896009" data-name="Path 896009" d="M23.691,16.07H18.554L17.578,19H14.462L19.755,4.781H22.47L27.792,19H24.677ZM19.345,13.7H22.9L21.113,8.375ZM34.658,16.08a.909.909,0,0,0-.513-.815,5.824,5.824,0,0,0-1.646-.532q-3.77-.791-3.77-3.2A2.9,2.9,0,0,1,29.9,9.181a4.708,4.708,0,0,1,3.052-.942,5.067,5.067,0,0,1,3.218.947,2.985,2.985,0,0,1,1.206,2.461H34.55a1.366,1.366,0,0,0-.391-1,1.653,1.653,0,0,0-1.221-.4,1.689,1.689,0,0,0-1.1.322,1.017,1.017,0,0,0-.391.82.87.87,0,0,0,.444.757,4.571,4.571,0,0,0,1.5.5,12.244,12.244,0,0,1,1.777.474A2.92,2.92,0,0,1,37.4,15.963a2.756,2.756,0,0,1-1.24,2.339,5.35,5.35,0,0,1-3.2.894,5.588,5.588,0,0,1-2.358-.474,3.957,3.957,0,0,1-1.616-1.3,3.018,3.018,0,0,1-.586-1.782h2.676a1.473,1.473,0,0,0,.557,1.152,2.208,2.208,0,0,0,1.387.4,2.044,2.044,0,0,0,1.226-.308A.957.957,0,0,0,34.658,16.08ZM44.081,19.2A5.187,5.187,0,0,1,40.3,17.77a5.068,5.068,0,0,1-1.46-3.8V13.7a6.383,6.383,0,0,1,.615-2.847A4.515,4.515,0,0,1,41.2,8.917a4.893,4.893,0,0,1,2.573-.679,4.385,4.385,0,0,1,3.413,1.367,5.555,5.555,0,0,1,1.245,3.877v1.152H41.7a2.622,2.622,0,0,0,.825,1.66,2.5,2.5,0,0,0,1.743.625,3.046,3.046,0,0,0,2.549-1.182L48.2,17.291a4.237,4.237,0,0,1-1.719,1.4A5.639,5.639,0,0,1,44.081,19.2Zm-.322-8.682a1.764,1.764,0,0,0-1.362.569,2.946,2.946,0,0,0-.669,1.628h3.926v-.226a2.1,2.1,0,0,0-.508-1.457A1.819,1.819,0,0,0,43.759,10.514Zm10.293,1.074L55.83,8.434h3.018l-3.008,5.176L58.974,19H55.947l-1.885-3.32L52.187,19H49.15l3.135-5.391-3-5.176h3.027Zm12.48,6.338a3.539,3.539,0,0,1-2.891,1.27,3.338,3.338,0,0,1-2.593-.977,4.169,4.169,0,0,1-.913-2.861V8.434h2.822v6.834q0,1.652,1.5,1.652a2.038,2.038,0,0,0,1.973-1V8.434h2.832V19H66.611ZM77.519,19a3.134,3.134,0,0,1-.283-.947A3.415,3.415,0,0,1,74.57,19.2,3.752,3.752,0,0,1,72,18.3a2.89,2.89,0,0,1-1.021-2.266,2.986,2.986,0,0,1,1.245-2.578,6.144,6.144,0,0,1,3.6-.908h1.3v-.605a1.741,1.741,0,0,0-.376-1.172,1.479,1.479,0,0,0-1.187-.439,1.682,1.682,0,0,0-1.118.342,1.161,1.161,0,0,0-.405.938H71.21a2.835,2.835,0,0,1,.566-1.7,3.744,3.744,0,0,1,1.6-1.226A5.837,5.837,0,0,1,75.7,8.238a4.611,4.611,0,0,1,3.1.981,3.433,3.433,0,0,1,1.147,2.759v4.58a5.052,5.052,0,0,0,.42,2.275V19Zm-2.334-1.963a2.431,2.431,0,0,0,1.152-.278,1.828,1.828,0,0,0,.781-.747V14.2H76.064q-2.119,0-2.256,1.465l-.01.166a1.13,1.13,0,0,0,.371.869A1.441,1.441,0,0,0,75.185,17.037ZM85.1,19H82.265V4H85.1Z" transform="translate(294.439 14.952)" fill="#fff"/>
      </g>
      <g id="Group_1109303" data-name="Group 1109303" transform="translate(285 16086.29)">
        <path id="Path_892709" data-name="Path 892709" d="M-1.538,794.637s49.794,53.434,113.765,5.029c53.856-40.751,100.329,2.3,137.69-23.867,61.042-42.749,44.9-138.07.518-190.766C216.783,545.072,268.979,508.808,245,444.56c-27.969-74.949-117.578-7.3-131.134-51.365-13.764-44.749-77.5-38.023-116.409,2.383Z" transform="translate(3.072 -362.362)" fill="#fffee5"/>
        <g id="Group_1109274" data-name="Group 1109274" transform="translate(0 98.21)">
          <circle id="Ellipse_11759" data-name="Ellipse 11759" cx="93.836" cy="93.836" r="93.836" transform="translate(132.705 0) rotate(45)" fill="#ff905f"/>
          <ellipse id="Ellipse_11760" data-name="Ellipse 11760" cx="85.791" cy="85.791" rx="85.791" ry="85.791" transform="translate(46.914 46.914)" fill="#ffc6b0"/>
          <circle id="Ellipse_11761" data-name="Ellipse 11761" cx="80.176" cy="80.176" r="80.176" transform="translate(132.705 19.319) rotate(45)" fill="#f78248"/>
          <path id="Path_892710" data-name="Path 892710" d="M382.711,935.576c14.144,2.377,25.761-6.605,29.553-20.437,5.177-18.88-9.34-29.907-23.485-32.284s-29.615,7.038-29.87,23.883A28.438,28.438,0,0,0,382.711,935.576Z" transform="translate(-226.141 -755.906)" fill="#ea7147"/>
          <path id="Path_892711" data-name="Path 892711" d="M443.86,939.786c4.979.837,9.068-2.325,10.4-7.194,1.822-6.646-3.288-10.527-8.267-11.363s-10.424,2.477-10.514,8.406A10.01,10.01,0,0,0,443.86,939.786Z" transform="translate(-276.277 -773.2)" fill="#ffa076"/>
          <path id="Path_892712" data-name="Path 892712" d="M294.75,996.364c3.655-.5,5.946-2.667,5.987-5.134.056-3.367-4.253-4.243-7.907-3.747s-6.872,2.977-5.842,5.71C287.866,995.52,291.1,996.86,294.75,996.364Z" transform="translate(-178.926 -852.622)" fill="#ffa076"/>
          <path id="Path_892713" data-name="Path 892713" d="M305.8,1054.186c4.643,1.15,8.459-.428,9.707-3.457,1.7-4.135-3.061-7.3-7.7-8.446s-9.724.364-9.811,4.238C297.913,1049.82,301.152,1053.036,305.8,1054.186Z" transform="translate(-186.254 -929.553)" fill="#ffa076"/>
          <path id="Path_892714" data-name="Path 892714" d="M384.479,1077.659c-2.306-4.191-6.054-5.923-9.126-4.783-4.193,1.555-3.281,7.2-.974,11.39s6.867,6.9,9.771,4.33C386.622,1086.411,386.785,1081.849,384.479,1077.659Z" transform="translate(-234.994 -975.16)" fill="#ffa076"/>
          <path id="Path_892715" data-name="Path 892715" d="M314.065,1116.668c-2.307-4.191-6.055-5.923-9.126-4.783-4.193,1.556-3.281,7.2-.975,11.391s6.867,6.9,9.771,4.329C316.209,1125.42,316.372,1120.858,314.065,1116.668Z" transform="translate(-188.892 -1027.637)" fill="#ffa076"/>
          <path id="Path_892716" data-name="Path 892716" d="M594.664,903.5a6.089,6.089,0,0,0,6.818-4.857c.9-3.646-1.632-6.276-4.856-6.818a6.1,6.1,0,0,0-6.818,4.857C589.012,899.848,591.44,902.959,594.664,903.5Z" transform="translate(-377.221 -726.728)" fill="#f78248"/>
          <path id="Path_892717" data-name="Path 892717" d="M600.184,905.931a3.451,3.451,0,0,0,3.746-2.669c.563-1.735-.9-3.449-2.669-3.746a3.405,3.405,0,0,0-3.746,2.669A3.127,3.127,0,0,0,600.184,905.931Z" transform="translate(-382.299 -731.787)" fill="#ea7147"/>
          <path id="Path_892718" data-name="Path 892718" d="M542.629,828.318a3.914,3.914,0,0,0,4.382-3.121,3.531,3.531,0,0,0-3.121-4.382,3.921,3.921,0,0,0-4.382,3.121A3.708,3.708,0,0,0,542.629,828.318Z" transform="translate(-344.324 -627.007)" fill="#f78248"/>
          <path id="Path_892719" data-name="Path 892719" d="M546.177,829.878a2.218,2.218,0,0,0,2.407-1.715,1.985,1.985,0,0,0-1.715-2.407,2.188,2.188,0,0,0-2.408,1.715A2.01,2.01,0,0,0,546.177,829.878Z" transform="translate(-347.587 -630.258)" fill="#ea7147"/>
          <path id="Path_892720" data-name="Path 892720" d="M499.669,795.339a5.252,5.252,0,0,0,5.88-4.188c.775-3.144-1.408-5.413-4.188-5.88a5.262,5.262,0,0,0-5.88,4.188A4.975,4.975,0,0,0,499.669,795.339Z" transform="translate(-315.475 -581.768)" fill="#f78248"/>
          <path id="Path_892721" data-name="Path 892721" d="M504.43,797.434a2.976,2.976,0,0,0,3.231-2.3,2.664,2.664,0,0,0-2.3-3.231,2.937,2.937,0,0,0-3.231,2.3A2.7,2.7,0,0,0,504.43,797.434Z" transform="translate(-319.855 -586.131)" fill="#ea7147"/>
          <path id="Path_892722" data-name="Path 892722" d="M623.554,1023.6a6.09,6.09,0,0,0,6.818-4.856c.9-3.646-1.633-6.277-4.856-6.818a6.1,6.1,0,0,0-6.818,4.856C617.9,1019.945,620.331,1023.057,623.554,1023.6Z" transform="translate(-396.136 -888.291)" fill="#f78248"/>
          <path id="Path_892723" data-name="Path 892723" d="M629.074,1026.027a3.451,3.451,0,0,0,3.746-2.669c.564-1.735-.9-3.448-2.669-3.746a3.405,3.405,0,0,0-3.746,2.669A3.127,3.127,0,0,0,629.074,1026.027Z" transform="translate(-401.214 -893.349)" fill="#ea7147"/>
          <path id="Path_892724" data-name="Path 892724" d="M621.315,979.04a5.039,5.039,0,0,0,5.642-4.018c.744-3.017-1.351-5.193-4.018-5.642A5.048,5.048,0,0,0,617.3,973.4,4.773,4.773,0,0,0,621.315,979.04Z" transform="translate(-395.236 -829.033)" fill="#f78248"/>
          <path id="Path_892725" data-name="Path 892725" d="M625.882,981.05a2.855,2.855,0,0,0,3.1-2.208,2.556,2.556,0,0,0-2.208-3.1,2.818,2.818,0,0,0-3.1,2.208A2.587,2.587,0,0,0,625.882,981.05Z" transform="translate(-399.438 -833.219)" fill="#ea7147"/>
          <path id="Path_892726" data-name="Path 892726" d="M361.622,748.965a5.039,5.039,0,0,0,5.642-4.019c.743-3.017-1.351-5.193-4.018-5.642a5.048,5.048,0,0,0-5.642,4.019A4.773,4.773,0,0,0,361.622,748.965Z" transform="translate(-225.205 -519.522)" fill="#f78248"/>
          <path id="Path_892727" data-name="Path 892727" d="M366.189,750.975a2.855,2.855,0,0,0,3.1-2.208,2.556,2.556,0,0,0-2.208-3.1,2.818,2.818,0,0,0-3.1,2.208A2.587,2.587,0,0,0,366.189,750.975Z" transform="translate(-229.407 -523.708)" fill="#ea7147"/>
          <path id="Path_892728" data-name="Path 892728" d="M607.241,1086.473a5.036,5.036,0,0,0,5.639-4.016c.743-3.016-1.35-5.192-4.016-5.639a5.046,5.046,0,0,0-5.64,4.017A4.771,4.771,0,0,0,607.241,1086.473Z" transform="translate(-386.022 -973.561)" fill="#f78248"/>
          <path id="Path_892729" data-name="Path 892729" d="M611.807,1088.482a2.854,2.854,0,0,0,3.1-2.207,2.555,2.555,0,0,0-2.207-3.1,2.817,2.817,0,0,0-3.1,2.207A2.586,2.586,0,0,0,611.807,1088.482Z" transform="translate(-390.222 -977.745)" fill="#ea7147"/>
          <path id="Path_892730" data-name="Path 892730" d="M574.346,1172.322a6.09,6.09,0,0,0,6.818-4.856c.9-3.646-1.633-6.276-4.857-6.818a6.1,6.1,0,0,0-6.818,4.856C568.694,1168.668,571.122,1171.78,574.346,1172.322Z" transform="translate(-363.918 -1088.363)" fill="#f78248"/>
          <path id="Path_892731" data-name="Path 892731" d="M579.866,1174.751a3.451,3.451,0,0,0,3.746-2.668c.564-1.735-.9-3.449-2.668-3.746A3.406,3.406,0,0,0,577.2,1171,3.127,3.127,0,0,0,579.866,1174.751Z" transform="translate(-368.996 -1093.422)" fill="#ea7147"/>
          <path id="Path_892732" data-name="Path 892732" d="M547.547,1191.974a4.717,4.717,0,0,0,5.282-3.762c.7-2.825-1.265-4.863-3.762-5.282a4.726,4.726,0,0,0-5.282,3.762A4.47,4.47,0,0,0,547.547,1191.974Z" transform="translate(-347.11 -1115.696)" fill="#f78248"/>
          <path id="Path_892733" data-name="Path 892733" d="M551.823,1193.856a2.673,2.673,0,0,0,2.9-2.067,2.393,2.393,0,0,0-2.067-2.9,2.638,2.638,0,0,0-2.9,2.067A2.422,2.422,0,0,0,551.823,1193.856Z" transform="translate(-351.044 -1119.616)" fill="#ea7147"/>
          <path id="Path_892734" data-name="Path 892734" d="M581.365,874.778c3.261.231,6.276-1.632,6.818-4.856a5.919,5.919,0,0,0-4.856-6.818,5.785,5.785,0,0,0-6.818,4.856C576.164,871.211,578.768,874.593,581.365,874.778Z" transform="translate(-368.593 -688.024)" fill="#ea7147"/>
          <path id="Path_892735" data-name="Path 892735" d="M586.045,876.27c1.823.807,3.827-1,4.158-2.961a3.609,3.609,0,1,0-7.119-1.2C582.753,874.078,584.406,875.544,586.045,876.27Z" transform="translate(-372.89 -691.793)" fill="#f78248"/>
          <path id="Path_892736" data-name="Path 892736" d="M611.2,960.26a4.223,4.223,0,0,0,4.689-3.34,4.07,4.07,0,0,0-3.34-4.689,3.979,3.979,0,0,0-4.689,3.34C607.622,957.807,609.413,960.133,611.2,960.26Z" transform="translate(-389.125 -804.282)" fill="#ea7147"/>
          <path id="Path_892737" data-name="Path 892737" d="M614.417,961.286c1.253.555,2.632-.685,2.859-2.036a2.482,2.482,0,1,0-4.9-.823C612.153,959.779,613.29,960.787,614.417,961.286Z" transform="translate(-392.081 -806.875)" fill="#f78248"/>
          <path id="Path_892738" data-name="Path 892738" d="M603.329,1113.6c2.855.2,5.495-1.43,5.969-4.251a5.182,5.182,0,0,0-4.251-5.969,5.065,5.065,0,0,0-5.969,4.252C598.776,1110.472,601.055,1113.434,603.329,1113.6Z" transform="translate(-383.372 -1009.8)" fill="#ea7147"/>
          <path id="Path_892739" data-name="Path 892739" d="M607.426,1114.9c1.6.707,3.351-.872,3.64-2.593a3.16,3.16,0,1,0-6.232-1.047C604.544,1112.983,605.991,1114.267,607.426,1114.9Z" transform="translate(-387.134 -1013.101)" fill="#f78248"/>
          <path id="Path_892740" data-name="Path 892740" d="M444.689,761.467a4.974,4.974,0,0,0,5.523-3.934,4.8,4.8,0,0,0-3.934-5.523,4.686,4.686,0,0,0-5.522,3.934C440.476,758.578,442.585,761.318,444.689,761.467Z" transform="translate(-279.714 -536.358)" fill="#ea7147"/>
          <path id="Path_892741" data-name="Path 892741" d="M448.48,762.675c1.476.654,3.1-.807,3.368-2.4a2.924,2.924,0,1,0-5.767-.969C445.813,760.9,447.152,762.087,448.48,762.675Z" transform="translate(-283.195 -539.411)" fill="#f78248"/>
          <path id="Path_892742" data-name="Path 892742" d="M559.209,843.329c3.628,1.3,6.277-1.632,6.818-4.856s-1.673-5.9-4.856-6.818c-3.14-.909-5.957,1.675-6.559,5.258C554.07,840.136,556.131,842.229,559.209,843.329Z" transform="translate(-354.22 -645.977)" fill="#ffc6b0"/>
          <path id="Path_892743" data-name="Path 892743" d="M564.842,846.617c1.608.27,2.745-.93,3.4-2.423.673-1.532-.145-3.018-2.422-3.4a2.792,2.792,0,0,0-3.4,2.423A2.953,2.953,0,0,0,564.842,846.617Z" transform="translate(-359.361 -652.191)" fill="#f78248"/>
          <path id="Path_892744" data-name="Path 892744" d="M524.091,804.683c3.628,1.3,6.276-1.632,6.818-4.856s-1.673-5.9-4.856-6.818c-3.14-.909-5.957,1.675-6.559,5.258C518.952,801.49,521.013,803.583,524.091,804.683Z" transform="translate(-331.227 -593.988)" fill="#ffc6b0"/>
          <path id="Path_892745" data-name="Path 892745" d="M529.725,807.971c1.608.27,2.745-.929,3.4-2.422.673-1.532-.145-3.018-2.423-3.4a2.792,2.792,0,0,0-3.4,2.422A2.952,2.952,0,0,0,529.725,807.971Z" transform="translate(-336.369 -600.202)" fill="#f78248"/>
          <path id="Path_892746" data-name="Path 892746" d="M615.876,1055.552c3.628,1.3,6.276-1.633,6.818-4.857s-1.673-5.9-4.856-6.818c-3.14-.909-5.957,1.675-6.559,5.257C610.737,1052.358,612.8,1054.452,615.876,1055.552Z" transform="translate(-391.322 -931.473)" fill="#ffc6b0"/>
          <path id="Path_892747" data-name="Path 892747" d="M621.51,1058.84c1.608.271,2.746-.929,3.4-2.422.673-1.532-.145-3.018-2.422-3.4a2.792,2.792,0,0,0-3.4,2.423A2.952,2.952,0,0,0,621.51,1058.84Z" transform="translate(-396.464 -937.687)" fill="#f78248"/>
          <path id="Path_892748" data-name="Path 892748" d="M616.177,999.419c3.02,1.079,5.225-1.359,5.676-4.043s-1.393-4.908-4.042-5.676c-2.614-.757-4.959,1.394-5.46,4.377C611.9,996.76,613.615,998.5,616.177,999.419Z" transform="translate(-392.033 -856.593)" fill="#ffc6b0"/>
          <path id="Path_892749" data-name="Path 892749" d="M620.866,1002.156c1.339.225,2.285-.773,2.831-2.016.56-1.276-.12-2.513-2.016-2.831a2.324,2.324,0,0,0-2.831,2.017A2.457,2.457,0,0,0,620.866,1002.156Z" transform="translate(-396.313 -861.766)" fill="#f78248"/>
          <path id="Path_892750" data-name="Path 892750" d="M611.664,929.851c3.628,1.3,6.276-1.633,6.818-4.857s-1.673-5.9-4.857-6.818c-3.14-.909-5.957,1.675-6.559,5.257C606.525,926.658,608.586,928.751,611.664,929.851Z" transform="translate(-388.564 -762.372)" fill="#ffc6b0"/>
          <path id="Path_892751" data-name="Path 892751" d="M617.3,933.139c1.608.27,2.745-.929,3.4-2.423.673-1.532-.145-3.018-2.423-3.4a2.792,2.792,0,0,0-3.4,2.422A2.953,2.953,0,0,0,617.3,933.139Z" transform="translate(-393.706 -768.586)" fill="#f78248"/>
          <path id="Path_892752" data-name="Path 892752" d="M103.393,1117.043a6.089,6.089,0,0,0-6.818,4.856c-.9,3.646,1.632,6.276,4.856,6.818a6.1,6.1,0,0,0,6.818-4.856C109.045,1120.7,106.617,1117.585,103.393,1117.043Z" transform="translate(-54.264 -1029.703)" fill="#f78248"/>
          <path id="Path_892753" data-name="Path 892753" d="M108.053,1124.729a3.45,3.45,0,0,0-3.746,2.668c-.563,1.735.9,3.448,2.669,3.746a3.405,3.405,0,0,0,3.746-2.669A3.127,3.127,0,0,0,108.053,1124.729Z" transform="translate(-59.365 -1034.759)" fill="#ea7147"/>
          <path id="Path_892754" data-name="Path 892754" d="M74.5,996.945a6.089,6.089,0,0,0-6.818,4.856c-.9,3.646,1.632,6.276,4.856,6.818a6.1,6.1,0,0,0,6.818-4.856C80.155,1000.6,77.726,997.487,74.5,996.945Z" transform="translate(-35.348 -868.14)" fill="#f78248"/>
          <path id="Path_892755" data-name="Path 892755" d="M79.163,1004.632a3.451,3.451,0,0,0-3.746,2.669c-.563,1.735.9,3.449,2.668,3.746a3.4,3.4,0,0,0,3.746-2.669A3.127,3.127,0,0,0,79.163,1004.632Z" transform="translate(-40.45 -873.197)" fill="#ea7147"/>
          <path id="Path_892756" data-name="Path 892756" d="M80.672,1045.378a5.038,5.038,0,0,0-5.642,4.018c-.744,3.017,1.351,5.193,4.018,5.642a5.048,5.048,0,0,0,5.642-4.018A4.773,4.773,0,0,0,80.672,1045.378Z" transform="translate(-40.178 -931.27)" fill="#f78248"/>
          <path id="Path_892757" data-name="Path 892757" d="M84.528,1051.738a2.856,2.856,0,0,0-3.1,2.208,2.556,2.556,0,0,0,2.208,3.1,2.817,2.817,0,0,0,3.1-2.208A2.588,2.588,0,0,0,84.528,1051.738Z" transform="translate(-44.4 -935.455)" fill="#ea7147"/>
          <path id="Path_892758" data-name="Path 892758" d="M94.754,937.953a5.036,5.036,0,0,0-5.639,4.017c-.744,3.016,1.35,5.191,4.016,5.639a5.047,5.047,0,0,0,5.64-4.017A4.772,4.772,0,0,0,94.754,937.953Z" transform="translate(-49.399 -786.751)" fill="#f78248"/>
          <path id="Path_892759" data-name="Path 892759" d="M98.607,944.31a2.854,2.854,0,0,0-3.1,2.207,2.556,2.556,0,0,0,2.207,3.1,2.817,2.817,0,0,0,3.1-2.207A2.586,2.586,0,0,0,98.607,944.31Z" transform="translate(-53.619 -790.933)" fill="#ea7147"/>
          <path id="Path_892760" data-name="Path 892760" d="M117.113,1145.879c-3.261-.231-6.276,1.632-6.818,4.856a5.919,5.919,0,0,0,4.856,6.818,5.785,5.785,0,0,0,6.818-4.856C122.314,1149.446,119.71,1146.063,117.113,1145.879Z" transform="translate(-63.312 -1068.518)" fill="#ea7147"/>
          <path id="Path_892761" data-name="Path 892761" d="M121.111,1152.751c-1.822-.807-3.827,1-4.157,2.961a3.609,3.609,0,0,0,7.119,1.2C124.4,1154.943,122.749,1153.477,121.111,1152.751Z" transform="translate(-67.693 -1073.114)" fill="#f78248"/>
          <path id="Path_892762" data-name="Path 892762" d="M94.26,1067.371a4.223,4.223,0,0,0-4.689,3.34,4.07,4.07,0,0,0,3.34,4.689,3.979,3.979,0,0,0,4.689-3.34C97.837,1069.824,96.046,1067.5,94.26,1067.371Z" transform="translate(-49.76 -959.235)" fill="#ea7147"/>
          <path id="Path_892763" data-name="Path 892763" d="M97.009,1072.1c-1.253-.555-2.632.685-2.859,2.037a2.482,2.482,0,1,0,4.9.822C99.273,1073.6,98.136,1072.6,97.009,1072.1Z" transform="translate(-52.773 -962.395)" fill="#f78248"/>
          <path id="Path_892764" data-name="Path 892764" d="M97.933,909.842c-2.855-.2-5.495,1.429-5.969,4.252a5.182,5.182,0,0,0,4.251,5.969,5.065,5.065,0,0,0,5.969-4.252C102.486,912.966,100.207,910,97.933,909.842Z" transform="translate(-51.317 -749.524)" fill="#ea7147"/>
          <path id="Path_892765" data-name="Path 892765" d="M101.433,915.86c-1.6-.707-3.35.871-3.64,2.592a3.16,3.16,0,0,0,6.232,1.047C104.315,917.779,102.867,916.5,101.433,915.86Z" transform="translate(-55.152 -753.547)" fill="#f78248"/>
          <path id="Path_892766" data-name="Path 892766" d="M139.657,1176.58c-3.628-1.3-6.276,1.632-6.818,4.856s1.674,5.9,4.857,6.818c3.14.909,5.957-1.675,6.559-5.258C144.8,1179.773,142.735,1177.679,139.657,1176.58Z" transform="translate(-78.073 -1109.817)" fill="#ffc6b0"/>
          <path id="Path_892767" data-name="Path 892767" d="M144.435,1185.163c-1.608-.27-2.745.929-3.4,2.423-.673,1.532.145,3.018,2.422,3.4a2.792,2.792,0,0,0,3.4-2.423A2.953,2.953,0,0,0,144.435,1185.163Z" transform="translate(-83.343 -1115.475)" fill="#f78248"/>
          <path id="Path_892768" data-name="Path 892768" d="M82.99,964.358c-3.628-1.3-6.277,1.633-6.818,4.857s1.673,5.9,4.857,6.818c3.14.909,5.957-1.674,6.559-5.257C88.128,967.551,86.068,965.458,82.99,964.358Z" transform="translate(-40.971 -824.323)" fill="#ffc6b0"/>
          <path id="Path_892769" data-name="Path 892769" d="M87.767,972.939c-1.608-.27-2.746.929-3.4,2.422-.673,1.532.145,3.018,2.422,3.4a2.792,2.792,0,0,0,3.4-2.423A2.952,2.952,0,0,0,87.767,972.939Z" transform="translate(-46.241 -829.978)" fill="#f78248"/>
          <path id="Path_892770" data-name="Path 892770" d="M86.37,1024.359c-3.019-1.079-5.224,1.359-5.675,4.042s1.393,4.909,4.042,5.676c2.614.756,4.958-1.394,5.46-4.377C90.648,1027.017,88.933,1025.274,86.37,1024.359Z" transform="translate(-43.942 -903.071)" fill="#ffc6b0"/>
          <path id="Path_892771" data-name="Path 892771" d="M90.347,1031.5c-1.339-.225-2.285.774-2.831,2.016-.56,1.276.12,2.513,2.017,2.831a2.324,2.324,0,0,0,2.831-2.016A2.458,2.458,0,0,0,90.347,1031.5Z" transform="translate(-48.328 -907.78)" fill="#f78248"/>
          <path id="Path_892772" data-name="Path 892772" d="M87.2,1090.058c-3.628-1.3-6.276,1.632-6.818,4.856s1.673,5.9,4.856,6.818c3.14.909,5.957-1.674,6.559-5.258C92.34,1093.251,90.28,1091.158,87.2,1090.058Z" transform="translate(-43.729 -993.423)" fill="#ffc6b0"/>
          <path id="Path_892773" data-name="Path 892773" d="M91.979,1098.64c-1.608-.271-2.746.93-3.4,2.422-.673,1.532.145,3.018,2.423,3.4a2.791,2.791,0,0,0,3.4-2.422A2.953,2.953,0,0,0,91.979,1098.64Z" transform="translate(-48.998 -999.079)" fill="#f78248"/>
          <path id="Path_892774" data-name="Path 892774" d="M358.89,1281.919a6.089,6.089,0,0,0-7.216-4.242c-3.7.668-5.063,4.052-4.242,7.216a6.1,6.1,0,0,0,7.217,4.242C357.862,1288.57,359.711,1285.083,358.89,1281.919Z" transform="translate(-218.477 -1245.599)" fill="#f78248"/>
          <path id="Path_892775" data-name="Path 892775" d="M361.431,1287.594a3.452,3.452,0,0,0-3.966-2.331c-1.814.194-2.782,2.226-2.33,3.965a3.4,3.4,0,0,0,3.965,2.331A3.127,3.127,0,0,0,361.431,1287.594Z" transform="translate(-223.6 -1250.605)" fill="#ea7147"/>
          <path id="Path_892776" data-name="Path 892776" d="M237.462,1259.265a6.09,6.09,0,0,0-7.217-4.242c-3.7.668-5.063,4.052-4.242,7.217a6.1,6.1,0,0,0,7.217,4.242C236.434,1265.917,238.283,1262.429,237.462,1259.265Z" transform="translate(-138.974 -1215.124)" fill="#f78248"/>
          <path id="Path_892777" data-name="Path 892777" d="M240,1264.942a3.451,3.451,0,0,0-3.965-2.331c-1.814.194-2.782,2.227-2.331,3.965a3.4,3.4,0,0,0,3.965,2.331A3.126,3.126,0,0,0,240,1264.942Z" transform="translate(-144.097 -1220.131)" fill="#ea7147"/>
          <path id="Path_892778" data-name="Path 892778" d="M281.732,1276.014a5.038,5.038,0,0,0-5.971-3.509c-3.058.552-4.189,3.353-3.51,5.971a5.048,5.048,0,0,0,5.971,3.51A4.773,4.773,0,0,0,281.732,1276.014Z" transform="translate(-169.28 -1236.651)" fill="#f78248"/>
          <path id="Path_892779" data-name="Path 892779" d="M283.835,1280.71a2.856,2.856,0,0,0-3.281-1.929,2.556,2.556,0,0,0-1.929,3.281,2.817,2.817,0,0,0,3.281,1.929A2.588,2.588,0,0,0,283.835,1280.71Z" transform="translate(-173.519 -1240.793)" fill="#ea7147"/>
          <path id="Path_892780" data-name="Path 892780" d="M189.409,1219.31a5.037,5.037,0,0,0-5.969-3.509c-3.056.553-4.188,3.352-3.508,5.969a5.046,5.046,0,0,0,5.969,3.509A4.771,4.771,0,0,0,189.409,1219.31Z" transform="translate(-108.835 -1160.368)" fill="#f78248"/>
          <path id="Path_892781" data-name="Path 892781" d="M191.511,1224a2.854,2.854,0,0,0-3.28-1.927,2.555,2.555,0,0,0-1.928,3.28,2.817,2.817,0,0,0,3.28,1.928A2.587,2.587,0,0,0,191.511,1224Z" transform="translate(-113.072 -1164.508)" fill="#ea7147"/>
          <path id="Path_892782" data-name="Path 892782" d="M390.875,1281.006c-1.12-3.071-4.052-5.063-7.217-4.241a5.919,5.919,0,0,0-4.242,7.216,5.786,5.786,0,0,0,7.217,4.242C389.741,1287.21,391.767,1283.452,390.875,1281.006Z" transform="translate(-239.444 -1244.497)" fill="#ea7147"/>
          <path id="Path_892783" data-name="Path 892783" d="M393.02,1286.175c-.007-1.993-2.471-3.087-4.4-2.586a3.609,3.609,0,1,0,1.814,6.987C392.363,1290.075,393.026,1287.967,393.02,1286.175Z" transform="translate(-243.825 -1249.085)" fill="#f78248"/>
          <path id="Path_892784" data-name="Path 892784" d="M305.4,1274.591a4.223,4.223,0,0,0-4.963-2.917,4.07,4.07,0,0,0-2.917,4.963,3.979,3.979,0,0,0,4.963,2.917C304.625,1278.858,306.018,1276.273,305.4,1274.591Z" transform="translate(-185.866 -1234.009)" fill="#ea7147"/>
          <path id="Path_892785" data-name="Path 892785" d="M306.88,1278.146c0-1.37-1.7-2.123-3.026-1.779a2.482,2.482,0,0,0,1.247,4.806C306.428,1280.828,306.884,1279.378,306.88,1278.146Z" transform="translate(-188.879 -1237.165)" fill="#f78248"/>
          <path id="Path_892786" data-name="Path 892786" d="M165.788,1204.062c-.98-2.689-3.548-4.433-6.318-3.714a5.182,5.182,0,0,0-3.713,6.318,5.065,5.065,0,0,0,6.318,3.714C164.8,1209.493,166.569,1206.2,165.788,1204.062Z" transform="translate(-93.023 -1140.246)" fill="#ea7147"/>
          <path id="Path_892787" data-name="Path 892787" d="M167.667,1208.588c-.006-1.745-2.163-2.7-3.852-2.265a3.16,3.16,0,0,0,1.588,6.117C167.092,1212,167.673,1210.157,167.667,1208.588Z" transform="translate(-96.858 -1144.264)" fill="#f78248"/>
          <path id="Path_892788" data-name="Path 892788" d="M428.309,1274.168c-.3-3.841-4.053-5.063-7.217-4.242s-4.7,3.934-4.242,7.216c.452,3.238,3.961,4.754,7.477,3.842C427.492,1280.163,428.562,1277.428,428.309,1274.168Z" transform="translate(-264.028 -1234.88)" fill="#ffc6b0"/>
          <path id="Path_892789" data-name="Path 892789" d="M430.723,1279.371c-.41-1.578-1.969-2.127-3.6-2.116-1.673.011-2.7,1.364-2.116,3.6a2.792,2.792,0,0,0,3.6,2.116A2.953,2.953,0,0,0,430.723,1279.371Z" transform="translate(-269.313 -1239.338)" fill="#f78248"/>
          <path id="Path_892790" data-name="Path 892790" d="M211.442,1239.264c-.3-3.841-4.053-5.063-7.217-4.241s-4.7,3.935-4.242,7.216c.452,3.238,3.96,4.755,7.477,3.841C210.625,1245.259,211.695,1242.524,211.442,1239.264Z" transform="translate(-122.037 -1187.925)" fill="#ffc6b0"/>
          <path id="Path_892791" data-name="Path 892791" d="M213.856,1244.467c-.41-1.578-1.969-2.127-3.6-2.116-1.673.011-2.7,1.364-2.116,3.6a2.791,2.791,0,0,0,3.6,2.116A2.953,2.953,0,0,0,213.856,1244.467Z" transform="translate(-127.322 -1192.383)" fill="#f78248"/>
          <path id="Path_892792" data-name="Path 892792" d="M265.161,1263.03c-.248-3.2-3.373-4.214-6.007-3.531s-3.913,3.275-3.531,6.007c.376,2.7,3.3,3.957,6.224,3.2C264.481,1268.02,265.372,1265.743,265.161,1263.03Z" transform="translate(-158.475 -1218.97)" fill="#ffc6b0"/>
          <path id="Path_892793" data-name="Path 892793" d="M267.171,1267.36c-.341-1.314-1.639-1.771-3-1.761-1.393.01-2.244,1.136-1.761,3a2.324,2.324,0,0,0,3,1.761A2.458,2.458,0,0,0,267.171,1267.36Z" transform="translate(-162.874 -1222.679)" fill="#f78248"/>
          <path id="Path_892794" data-name="Path 892794" d="M327.911,1286.734c-.3-3.841-4.052-5.063-7.216-4.242s-4.7,3.935-4.242,7.216c.452,3.238,3.961,4.754,7.477,3.841C327.094,1292.729,328.163,1289.993,327.911,1286.734Z" transform="translate(-198.293 -1251.784)" fill="#ffc6b0"/>
          <path id="Path_892795" data-name="Path 892795" d="M330.325,1291.935c-.41-1.578-1.969-2.127-3.6-2.116-1.674.011-2.7,1.364-2.116,3.6a2.792,2.792,0,0,0,3.6,2.116A2.953,2.953,0,0,0,330.325,1291.935Z" transform="translate(-203.579 -1256.24)" fill="#f78248"/>
          <path id="Path_892796" data-name="Path 892796" d="M140.468,824.27a6.089,6.089,0,0,0,1.692,8.2c2.973,2.294,6.4,1.04,8.2-1.691a6.1,6.1,0,0,0-1.691-8.2C146.093,820.573,142.265,821.539,140.468,824.27Z" transform="translate(-82.507 -632.558)" fill="#f78248"/>
          <path id="Path_892797" data-name="Path 892797" d="M147.761,831.122a3.451,3.451,0,0,0,.93,4.5c1.36,1.216,3.517.571,4.5-.929a3.405,3.405,0,0,0-.929-4.5A3.127,3.127,0,0,0,147.761,831.122Z" transform="translate(-87.572 -637.944)" fill="#ea7147"/>
          <path id="Path_892798" data-name="Path 892798" d="M238.691,749.368a6.09,6.09,0,0,0,1.691,8.2c2.973,2.294,6.4,1.039,8.2-1.692a6.1,6.1,0,0,0-1.692-8.2C244.315,745.671,240.488,746.637,238.691,749.368Z" transform="translate(-146.817 -531.795)" fill="#f78248"/>
          <path id="Path_892799" data-name="Path 892799" d="M245.983,756.22a3.451,3.451,0,0,0,.929,4.505c1.36,1.216,3.518.571,4.5-.93a3.4,3.4,0,0,0-.929-4.5A3.127,3.127,0,0,0,245.983,756.22Z" transform="translate(-151.882 -537.181)" fill="#ea7147"/>
          <path id="Path_892800" data-name="Path 892800" d="M201.614,774.316a5.039,5.039,0,0,0,1.4,6.783c2.46,1.9,5.3.86,6.783-1.4a5.047,5.047,0,0,0-1.4-6.783A4.773,4.773,0,0,0,201.614,774.316Z" transform="translate(-122.647 -563.9)" fill="#f78248"/>
          <path id="Path_892801" data-name="Path 892801" d="M207.648,779.985a2.855,2.855,0,0,0,.769,3.727,2.556,2.556,0,0,0,3.728-.769,2.817,2.817,0,0,0-.769-3.728A2.588,2.588,0,0,0,207.648,779.985Z" transform="translate(-126.838 -568.357)" fill="#ea7147"/>
          <path id="Path_892802" data-name="Path 892802" d="M305.594,743.844a5.037,5.037,0,0,0,1.4,6.781c2.459,1.9,5.295.86,6.781-1.4a5.046,5.046,0,0,0-1.4-6.781A4.771,4.771,0,0,0,305.594,743.844Z" transform="translate(-190.727 -522.905)" fill="#f78248"/>
          <path id="Path_892803" data-name="Path 892803" d="M311.626,749.511a2.855,2.855,0,0,0,.769,3.726,2.556,2.556,0,0,0,3.726-.769,2.817,2.817,0,0,0-.769-3.726A2.586,2.586,0,0,0,311.626,749.511Z" transform="translate(-194.916 -527.359)" fill="#ea7147"/>
          <path id="Path_892804" data-name="Path 892804" d="M119.638,848.68c-1.528,2.89-1.04,6.4,1.691,8.2a5.919,5.919,0,0,0,8.2-1.691,5.785,5.785,0,0,0-1.692-8.2C125,845.361,120.855,846.378,119.638,848.68Z" transform="translate(-68.923 -665.27)" fill="#ea7147"/>
          <path id="Path_892805" data-name="Path 892805" d="M125.406,854.4c-1.475,1.342-.634,3.9,1.031,5a3.609,3.609,0,0,0,3.968-6.031C128.74,852.276,126.731,853.2,125.406,854.4Z" transform="translate(-72.761 -669.724)" fill="#f78248"/>
          <path id="Path_892806" data-name="Path 892806" d="M190.828,795.577a4.223,4.223,0,0,0,1.164,5.638,4.071,4.071,0,0,0,5.638-1.163,3.979,3.979,0,0,0-1.164-5.638C194.516,793.295,191.665,793.994,190.828,795.577Z" transform="translate(-115.709 -591.236)" fill="#ea7147"/>
          <path id="Path_892807" data-name="Path 892807" d="M194.795,799.513c-1.014.923-.436,2.684.71,3.438a2.482,2.482,0,1,0,2.728-4.147C197.087,798.05,195.706,798.684,194.795,799.513Z" transform="translate(-118.348 -594.299)" fill="#f78248"/>
          <path id="Path_892808" data-name="Path 892808" d="M331.281,735.669c-1.337,2.53-.91,5.6,1.481,7.177a5.182,5.182,0,0,0,7.177-1.481,5.065,5.065,0,0,0-1.481-7.177C335.976,732.764,332.346,733.654,331.281,735.669Z" transform="translate(-207.563 -512.205)" fill="#ea7147"/>
          <path id="Path_892809" data-name="Path 892809" d="M336.331,740.68c-1.291,1.174-.555,3.417.9,4.376a3.16,3.16,0,1,0,3.473-5.279C339.249,738.818,337.491,739.624,336.331,740.68Z" transform="translate(-210.923 -516.104)" fill="#f78248"/>
          <path id="Path_892810" data-name="Path 892810" d="M99.712,881.867c-2.65,2.8-1.039,6.4,1.691,8.2s6.07.849,8.2-1.691c2.1-2.506.872-6.126-2.163-8.123C104.708,878.453,101.961,879.494,99.712,881.867Z" transform="translate(-55.552 -709.854)" fill="#ffc6b0"/>
          <path id="Path_892811" data-name="Path 892811" d="M108.648,888.237c-.9,1.362-.258,2.887.844,4.09,1.13,1.234,2.82,1.085,4.09-.844a2.792,2.792,0,0,0-.844-4.089A2.953,2.953,0,0,0,108.648,888.237Z" transform="translate(-62.01 -714.594)" fill="#f78248"/>
          <path id="Path_892812" data-name="Path 892812" d="M271.014,744.37c-2.65,2.8-1.04,6.4,1.691,8.2s6.07.849,8.2-1.691c2.1-2.506.872-6.126-2.163-8.123C276.009,740.957,273.263,742,271.014,744.37Z" transform="translate(-167.71 -524.885)" fill="#ffc6b0"/>
          <path id="Path_892813" data-name="Path 892813" d="M279.951,750.74c-.9,1.362-.258,2.887.844,4.089,1.13,1.234,2.82,1.086,4.09-.844a2.792,2.792,0,0,0-.844-4.089A2.952,2.952,0,0,0,279.951,750.74Z" transform="translate(-174.168 -529.625)" fill="#f78248"/>
          <path id="Path_892814" data-name="Path 892814" d="M222.244,771.376c-2.206,2.327-.866,5.329,1.408,6.825s5.053.707,6.824-1.408c1.747-2.086.726-5.1-1.8-6.762C226.4,768.536,224.115,769.4,222.244,771.376Z" transform="translate(-135.926 -559.833)" fill="#ffc6b0"/>
          <path id="Path_892815" data-name="Path 892815" d="M229.682,776.68c-.746,1.134-.214,2.4.7,3.4.941,1.027,2.347.9,3.4-.7a2.324,2.324,0,0,0-.7-3.4A2.458,2.458,0,0,0,229.682,776.68Z" transform="translate(-141.302 -563.779)" fill="#f78248"/>
          <path id="Path_892816" data-name="Path 892816" d="M157.705,798.954c-2.65,2.8-1.04,6.4,1.691,8.2s6.07.849,8.2-1.692c2.1-2.506.872-6.126-2.163-8.123C162.7,795.541,159.954,796.581,157.705,798.954Z" transform="translate(-93.522 -598.315)" fill="#ffc6b0"/>
          <path id="Path_892817" data-name="Path 892817" d="M166.642,805.324c-.9,1.362-.258,2.887.843,4.09,1.13,1.234,2.82,1.086,4.09-.844a2.792,2.792,0,0,0-.844-4.09A2.953,2.953,0,0,0,166.642,805.324Z" transform="translate(-99.981 -603.055)" fill="#f78248"/>
          <path id="Path_892818" data-name="Path 892818" d="M457.128,1260.371a6.089,6.089,0,0,0-4.681-6.939c-3.622-.991-6.316,1.472-6.939,4.681a6.1,6.1,0,0,0,4.681,6.94C453.332,1265.928,456.5,1263.58,457.128,1260.371Z" transform="translate(-282.771 -1213.183)" fill="#f78248"/>
          <path id="Path_892819" data-name="Path 892819" d="M459.568,1264.925a3.451,3.451,0,0,0-2.572-3.813c-1.72-.607-3.47.809-3.813,2.572a3.405,3.405,0,0,0,2.573,3.813A3.127,3.127,0,0,0,459.568,1264.925Z" transform="translate(-287.829 -1218.246)" fill="#ea7147"/>
          <path id="Path_892820" data-name="Path 892820" d="M485.673,1246.4c.314-3.253-1.472-6.316-4.681-6.939a5.919,5.919,0,0,0-6.94,4.681,5.786,5.786,0,0,0,4.681,6.939C481.975,1251.5,485.423,1248.988,485.673,1246.4Z" transform="translate(-301.458 -1194.285)" fill="#ea7147"/>
          <path id="Path_892821" data-name="Path 892821" d="M487.79,1250.187c.854-1.8-.9-3.851-2.855-4.231a3.609,3.609,0,1,0-1.377,7.086C485.516,1253.422,487.023,1251.807,487.79,1250.187Z" transform="translate(-305.843 -1198.516)" fill="#f78248"/>
          <path id="Path_892822" data-name="Path 892822" d="M515.585,1223.609c1.388-3.593-1.472-6.316-4.682-6.94s-5.937,1.523-6.939,4.682c-.989,3.116,1.523,6,5.089,6.691C512.263,1228.665,514.408,1226.658,515.585,1223.609Z" transform="translate(-320.974 -1163.447)" fill="#ffc6b0"/>
          <path id="Path_892823" data-name="Path 892823" d="M518.48,1228.162c.311-1.6-.859-2.769-2.335-3.462-1.515-.712-3.021.068-3.462,2.335a2.791,2.791,0,0,0,2.335,3.462A2.952,2.952,0,0,0,518.48,1228.162Z" transform="translate(-326.781 -1168.566)" fill="#f78248"/>
          <path id="Path_892824" data-name="Path 892824" d="M545.636,1212.017c1.055-2.731-1.119-4.8-3.558-5.274s-4.513,1.157-5.275,3.558c-.751,2.369,1.157,4.559,3.868,5.086C543.111,1215.86,544.741,1214.335,545.636,1212.017Z" transform="translate(-342.509 -1147.346)" fill="#ffc6b0"/>
          <path id="Path_892825" data-name="Path 892825" d="M547.836,1215.478c.237-1.216-.653-2.1-1.775-2.631-1.151-.541-2.3.052-2.631,1.775a2.122,2.122,0,0,0,1.775,2.631A2.244,2.244,0,0,0,547.836,1215.478Z" transform="translate(-346.922 -1151.238)" fill="#f78248"/>
          <path id="Path_892826" data-name="Path 892826" d="M472.614,779.05c3.628,1.3,6.277-1.632,6.818-4.856s-1.673-5.9-4.857-6.818c-3.14-.909-5.957,1.675-6.559,5.258C467.475,775.857,469.535,777.95,472.614,779.05Z" transform="translate(-297.523 -559.505)" fill="#ffc6b0"/>
          <path id="Path_892827" data-name="Path 892827" d="M478.247,782.338c1.608.27,2.746-.929,3.4-2.422.673-1.533-.145-3.018-2.423-3.4a2.792,2.792,0,0,0-3.4,2.423A2.952,2.952,0,0,0,478.247,782.338Z" transform="translate(-302.665 -565.719)" fill="#f78248"/>
          <path id="Path_892828" data-name="Path 892828" d="M382.463,749.2a4.974,4.974,0,0,0,6.5-1.945,4.794,4.794,0,0,0-1.945-6.5,4.686,4.686,0,0,0-6.5,1.945C379.4,745.111,380.519,748.385,382.463,749.2Z" transform="translate(-240.001 -520.489)" fill="#ea7147"/>
          <path id="Path_892829" data-name="Path 892829" d="M386.764,750.374c1.187,1.095,3.195.235,3.961-1.186a2.924,2.924,0,1,0-5.147-2.774C384.812,747.834,385.7,749.39,386.764,750.374Z" transform="translate(-243.415 -523.306)" fill="#f78248"/>
          <path id="Path_892830" data-name="Path 892830" d="M410.363,752.734c3.017,2.4,6.468.476,8.019-2.4s.316-6.121-2.4-8.019c-2.68-1.872-6.178-.333-7.9,2.865C406.527,748.056,407.8,750.7,410.363,752.734Z" transform="translate(-257.894 -525.09)" fill="#ffc6b0"/>
          <path id="Path_892831" data-name="Path 892831" d="M417.11,756.909c1.436.774,2.9,0,4-1.2,1.131-1.234.835-2.9-1.2-4a2.791,2.791,0,0,0-4,1.2A2.952,2.952,0,0,0,417.11,756.909Z" transform="translate(-263.233 -531.875)" fill="#f78248"/>
          <path id="Path_892832" data-name="Path 892832" d="M124.852,1051.113s-1.573-19.517,7.908-28.373,17.606-24.373,18.557-36.231.951-13.176,6.69-20.28c0,0-8.348-.987-12.822,5.751s-20.072,30.728-20.072,30.728l-4.4,26.159Z" transform="translate(-70.191 -899.957)" fill="#ffc6b0"/>
          <path id="Path_892833" data-name="Path 892833" d="M164.05,1090.276c-1.9-1.092-4.9.558-6.695,3.686s-1.7,6.548.2,7.64,4.9-.559,6.7-3.686S165.953,1091.367,164.05,1090.276Z" transform="translate(-93.334 -993.512)" fill="#ffc6b0"/>
          <path id="Path_892834" data-name="Path 892834" d="M207.731,1078.974a1.332,1.332,0,1,0-1.093-1.535A1.332,1.332,0,0,0,207.731,1078.974Z" transform="translate(-126.433 -965.867)" fill="#ea7147"/>
          <path id="Path_892835" data-name="Path 892835" d="M225.259,1183.278a1.332,1.332,0,1,0-1.093-1.534A1.332,1.332,0,0,0,225.259,1183.278Z" transform="translate(-137.91 -1106.184)" fill="#ea7147"/>
          <path id="Path_892836" data-name="Path 892836" d="M178.478,904.891a1.332,1.332,0,1,0-1.093-1.535A1.332,1.332,0,0,0,178.478,904.891Z" transform="translate(-107.28 -731.679)" fill="#ea7147"/>
          <path id="Path_892837" data-name="Path 892837" d="M149.26,979.063a1.332,1.332,0,1,0-1.093-1.535A1.332,1.332,0,0,0,149.26,979.063Z" transform="translate(-88.15 -831.461)" fill="#ea7147"/>
          <path id="Path_892838" data-name="Path 892838" d="M300.248,1224.169a1.332,1.332,0,1,0-1.093-1.535A1.332,1.332,0,0,0,300.248,1224.169Z" transform="translate(-187.008 -1161.192)" fill="#ea7147"/>
          <path id="Path_892839" data-name="Path 892839" d="M236.468,844.63a1.332,1.332,0,1,0-1.093-1.535A1.332,1.332,0,0,0,236.468,844.63Z" transform="translate(-145.248 -650.613)" fill="#ea7147"/>
          <path id="Path_892840" data-name="Path 892840" d="M382.012,1223.9a1.332,1.332,0,1,0-1.093-1.535A1.332,1.332,0,0,0,382.012,1223.9Z" transform="translate(-240.541 -1160.826)" fill="#ea7147"/>
          <path id="Path_892841" data-name="Path 892841" d="M312.668,811.248a1.332,1.332,0,1,0-1.093-1.535A1.332,1.332,0,0,0,312.668,811.248Z" transform="translate(-195.139 -605.706)" fill="#ea7147"/>
          <path id="Path_892842" data-name="Path 892842" d="M461.242,1197.261a1.332,1.332,0,1,0-1.093-1.535A1.333,1.333,0,0,0,461.242,1197.261Z" transform="translate(-292.416 -1124.995)" fill="#ea7147"/>
          <path id="Path_892843" data-name="Path 892843" d="M396.043,809.275a1.332,1.332,0,1,0-1.093-1.535A1.333,1.333,0,0,0,396.043,809.275Z" transform="translate(-249.728 -603.05)" fill="#ea7147"/>
          <path id="Path_892844" data-name="Path 892844" d="M524.57,1146.711a1.332,1.332,0,1,0-1.093-1.534A1.332,1.332,0,0,0,524.57,1146.711Z" transform="translate(-333.879 -1056.992)" fill="#ea7147"/>
          <path id="Path_892845" data-name="Path 892845" d="M472.538,837.077a1.332,1.332,0,1,0-1.093-1.535A1.332,1.332,0,0,0,472.538,837.077Z" transform="translate(-299.812 -640.452)" fill="#ea7147"/>
          <path id="Path_892846" data-name="Path 892846" d="M558.909,1084.712a1.332,1.332,0,1,0-1.093-1.535A1.332,1.332,0,0,0,558.909,1084.712Z" transform="translate(-356.362 -973.587)" fill="#ea7147"/>
          <path id="Path_892847" data-name="Path 892847" d="M524.763,881.518a1.332,1.332,0,1,0-1.093-1.534A1.332,1.332,0,0,0,524.763,881.518Z" transform="translate(-334.005 -700.237)" fill="#ea7147"/>
          <path id="Path_892848" data-name="Path 892848" d="M569.507,986.844a1.332,1.332,0,1,0-1.093-1.534A1.332,1.332,0,0,0,569.507,986.844Z" transform="translate(-363.301 -841.927)" fill="#ea7147"/>
        </g>
        <g id="Group_1109277" data-name="Group 1109277" transform="translate(228.717 134.713)">
          <g id="Group_1109275" data-name="Group 1109275" transform="translate(19.376 0)">
            <path id="Path_892849" data-name="Path 892849" d="M730.57,1211.618a27.753,27.753,0,0,0-6.58,8.969c-.313.6-.609,1.165-.92,1.727-2.215,4.005-8.528,9.82-8.592,9.877l.579.611c.266-.244,6.544-6.026,8.863-10.22.318-.575.617-1.147.933-1.753,1.967-3.765,4-7.659,10.167-11.4a25.553,25.553,0,0,1,6.794-2.822c3.58-1.046,6.963-2.034,12.67-7.925h0c-5.453,5.628-9.073,6.365-12.482,7.361-2.112.617-4.536.906-7.341,2.61A29.19,29.19,0,0,0,730.57,1211.618Z" transform="translate(-714.478 -1198.681)" fill="#aec3ff"/>
          </g>
          <g id="Group_1109276" data-name="Group 1109276" transform="translate(0 31.253)">
            <path id="Path_892850" data-name="Path 892850" d="M663.351,1146.466c-3.273,3.207-6.56,10.14-4.18,12.388s9.525-1.038,12.8-4.245,3.116-6.766.737-9.014S666.624,1143.26,663.351,1146.466Z" transform="translate(-658.358 -1137.839)" fill="#aec3ff"/>
            <path id="Path_892851" data-name="Path 892851" d="M701.01,1177.129l-1.865-2.135-9.29,9.1,2.059,1.946Z" transform="translate(-678.98 -1174.994)" fill="#aec3ff"/>
            <path id="Path_892852" data-name="Path 892852" d="M671.18,1155.118c-2.076,2.034-4.16,6.431-2.651,7.857s6.041-.658,8.117-2.692,1.977-4.291.467-5.717S673.256,1153.084,671.18,1155.118Z" transform="translate(-664.68 -1144.99)" fill="#aec3ff"/>
          </g>
        </g>
        <g id="Group_1109280" data-name="Group 1109280" transform="translate(243.919 92.055)">
          <g id="Group_1109278" data-name="Group 1109278" transform="translate(11.674)">
            <path id="Path_892853" data-name="Path 892853" d="M744.232,1335.124a22.308,22.308,0,0,0-3.165,8.362c-.114.531-.221,1.033-.34,1.535-.853,3.578-4.491,9.439-4.528,9.5l.58.349c.153-.246,3.771-6.075,4.664-9.822.123-.513.231-1.021.346-1.558.713-3.339,1.451-6.792,5.42-11.017a20.556,20.556,0,0,1,4.654-3.647c2.548-1.581,4.955-3.073,8.106-8.864h0c-3.011,5.532-5.656,6.882-8.082,8.387a20.479,20.479,0,0,0-5.123,3.6A23.528,23.528,0,0,0,744.232,1335.124Z" transform="translate(-736.198 -1319.959)" fill="#aec3ff"/>
          </g>
          <g id="Group_1109279" data-name="Group 1109279" transform="translate(0 32.641)">
            <path id="Path_892854" data-name="Path 892854" d="M704.293,1269.929c-1.844,3.187-2.9,9.263-.571,10.493s7.152-2.854,9-6.041.957-5.91-1.37-7.139S706.137,1266.742,704.293,1269.929Z" transform="translate(-702.386 -1259.984)" fill="#aec3ff"/>
            <path id="Path_892855" data-name="Path 892855" d="M728.536,1298.491l-1.9-1.252-5.235,9.047,2.013,1.064Z" transform="translate(-714.833 -1297.24)" fill="#aec3ff"/>
            <path id="Path_892856" data-name="Path 892856" d="M709.932,1277.667c-1.17,2.022-1.838,5.875-.362,6.655s4.537-1.81,5.706-3.832.607-3.748-.869-4.528S711.1,1275.645,709.932,1277.667Z" transform="translate(-706.535 -1266.884)" fill="#aec3ff"/>
          </g>
        </g>
        <g id="Group_1109283" data-name="Group 1109283" transform="translate(273.565 363.62)">
          <g id="Group_1109281" data-name="Group 1109281" transform="translate(13.7 21.588)">
            <path id="Path_892857" data-name="Path 892857" d="M837.359,476.518a26.183,26.183,0,0,1-3.715-9.812c-.133-.624-.259-1.212-.4-1.8-1-4.2-5.27-11.077-5.313-11.146l.681-.409c.18.289,4.425,7.129,5.473,11.526.144.6.271,1.2.406,1.829.837,3.918,1.7,7.97,6.36,12.928a24.1,24.1,0,0,0,5.461,4.28c2.99,1.855,5.814,3.607,9.512,10.4h0c-3.534-6.492-6.637-8.076-9.484-9.841-1.764-1.094-3.893-1.969-6.012-4.225A27.562,27.562,0,0,1,837.359,476.518Z" transform="translate(-827.931 -453.349)" fill="#aec3ff"/>
          </g>
          <g id="Group_1109282" data-name="Group 1109282">
            <path id="Path_892858" data-name="Path 892858" d="M790.49,599.62c-2.164-3.74-3.4-10.87-.67-12.313s8.393,3.349,10.558,7.089,1.123,6.935-1.607,8.378S792.654,603.36,790.49,599.62Z" transform="translate(-788.252 -587.044)" fill="#aec3ff"/>
            <path id="Path_892859" data-name="Path 892859" d="M818.939,574.687l-2.234,1.469-6.144-10.616,2.362-1.248Z" transform="translate(-802.859 -551.909)" fill="#aec3ff"/>
            <path id="Path_892860" data-name="Path 892860" d="M797.107,601.909c-1.373-2.372-2.157-6.895-.425-7.81s5.323,2.124,6.7,4.5.712,4.4-1.02,5.314S798.48,604.281,797.107,601.909Z" transform="translate(-793.12 -590.315)" fill="#aec3ff"/>
          </g>
        </g>
        <g id="Group_1109286" data-name="Group 1109286" transform="translate(265.87 297.603)">
          <g id="Group_1109284" data-name="Group 1109284" transform="translate(18.433 28.894)">
            <path id="Path_892861" data-name="Path 892861" d="M832.08,614.327c-3.229-4.88-4.166-9.207-5.017-13.139-.181-.836-.352-1.624-.543-2.413-1.358-5.625-7.108-14.828-7.166-14.92l.911-.551c.242.387,5.959,9.539,7.382,15.429.195.807.368,1.605.551,2.45,1.137,5.249,2.313,10.677,8.575,17.306a32.337,32.337,0,0,0,7.337,5.716c4.015,2.475,7.808,4.812,12.791,13.906h0c-4.763-8.688-8.929-10.8-12.751-13.156-2.369-1.46-5.227-2.624-8.076-5.64A37.014,37.014,0,0,1,832.08,614.327Z" transform="translate(-819.354 -583.303)" fill="#aec3ff"/>
          </g>
          <g id="Group_1109285" data-name="Group 1109285" transform="translate(0 0)">
            <path id="Path_892862" data-name="Path 892862" d="M769,779c-2.916-5.005-4.6-14.559-.946-16.5s11.264,4.456,14.18,9.462,1.532,9.292-2.122,11.237S771.914,784.01,769,779Z" transform="translate(-765.965 -762.144)" fill="#aec3ff"/>
            <path id="Path_892863" data-name="Path 892863" d="M807.242,745.624l-2.989,1.977-8.277-14.208,3.161-1.682Z" transform="translate(-785.614 -715.14)" fill="#aec3ff"/>
            <path id="Path_892864" data-name="Path 892864" d="M777.879,782.068c-1.85-3.175-2.918-9.234-.6-10.468s7.145,2.826,8.994,6,.972,5.894-1.346,7.127S779.728,785.243,777.879,782.068Z" transform="translate(-772.506 -766.532)" fill="#aec3ff"/>
          </g>
        </g>
        <g id="Group_1109289" data-name="Group 1109289" transform="translate(220.102 295.261)">
          <g id="Group_1109287" data-name="Group 1109287" transform="translate(23.592 38.049)">
            <path id="Path_892865" data-name="Path 892865" d="M715.889,398.5a27.078,27.078,0,0,0,3.356,8.413,20.84,20.84,0,0,0,14.06,9.858c4.993.835,13.083,2.377,18.638,7.1,6.059,5.147,9.747,13.224,8.865,23.463h0c.938-10.88-1.908-19.218-8.457-24.782-5.909-5.019-13.522-6.759-18.735-7.631a18.963,18.963,0,0,1-12.771-8.993c-4.583-7.4-5.137-17.925-1.562-29.627,2.142-7.011,3.6-18.521-1.606-33.54a95.543,95.543,0,0,0-6.7-15.353l-7.554-14.11-1.69.826L707.9,328.1l.048,1.133a87.084,87.084,0,0,1,6.93,15.184c2.772,8.013,5.5,19.066,1.77,31.265A44.438,44.438,0,0,0,715.889,398.5Z" transform="translate(-701.735 -313.292)" fill="#aec3ff"/>
          </g>
          <g id="Group_1109288" data-name="Group 1109288">
            <path id="Path_892866" data-name="Path 892866" d="M637.715,732.53c-4.514-8.524-6.671-24.531-.46-27.519s18.439,8.174,22.952,16.7,1.922,15.562-4.289,18.551S642.228,741.054,637.715,732.53Z" transform="translate(-633.404 -704.515)" fill="#95b3ef"/>
            <path id="Path_892867" data-name="Path 892867" d="M698.85,676.042l-5.107,3.088-12.811-24.2,5.373-2.585Z" transform="translate(-664.523 -624.109)" fill="#95b3ef"/>
            <path id="Path_892868" data-name="Path 892868" d="M670.953,734.148c-1.512-2.855-2.235-8.217-.154-9.218s6.176,2.738,7.688,5.593.644,5.213-1.436,6.214S672.465,737,670.953,734.148Z" transform="translate(-657.044 -707.142)" fill="#afcdfb"/>
          </g>
        </g>
        <g id="Group_1109292" data-name="Group 1109292" transform="translate(198.907 63.751)">
          <g id="Group_1109290" data-name="Group 1109290" transform="translate(11.069 0)">
            <path id="Path_892869" data-name="Path 892869" d="M609.115,1335.471a13,13,0,0,1,1.469-4.163,10.45,10.45,0,0,1,6.756-5.152c2.463-.539,6.449-1.5,9.1-3.938a12.848,12.848,0,0,0,3.851-11.6h0c.724,5.242-.493,9.355-3.617,12.226-2.819,2.589-6.563,3.637-9.134,4.2a9.509,9.509,0,0,0-6.136,4.7c-2.1,3.708-2.129,8.816-.075,14.385,1.232,3.336,2.23,8.869,0,16.28a46.022,46.022,0,0,1-2.966,7.613l-3.422,7.035-.86-.354,2.733-6.936,0-.549a41.951,41.951,0,0,0,3.086-7.538c1.188-3.954,2.281-9.378.139-15.183A20.98,20.98,0,0,1,609.115,1335.471Z" transform="translate(-604.077 -1310.619)" fill="#aec3ff"/>
          </g>
          <g id="Group_1109291" data-name="Group 1109291" transform="translate(0 58.114)">
            <path id="Path_892870" data-name="Path 892870" d="M573.757,1260.47c-2.042,4.248-2.735,12.055.423,13.334s8.974-4.455,11.016-8.7.587-7.585-2.572-8.864S575.8,1256.222,573.757,1260.47Z" transform="translate(-572.017 -1246.723)" fill="#8fb2ff"/>
            <path id="Path_892871" data-name="Path 892871" d="M602.695,1297.95l-2.612-1.357-5.8,12.059,2.733,1.106Z" transform="translate(-586.598 -1296.594)" fill="#8fb2ff"/>
            <path id="Path_892872" data-name="Path 892872" d="M589.843,1282.71c-.684,1.423-.916,4.038.142,4.467s3.006-1.492,3.69-2.916.2-2.541-.862-2.969A2.3,2.3,0,0,0,589.843,1282.71Z" transform="translate(-583.307 -1268.734)" fill="#afcdfb"/>
          </g>
        </g>
        <g id="Group_1109302" data-name="Group 1109302" transform="translate(12.487 29.206)">
          <g id="Group_1109295" data-name="Group 1109295" transform="translate(0 42.106)">
            <g id="Group_1109293" data-name="Group 1109293" transform="translate(0 0)">
              <path id="Path_892873" data-name="Path 892873" d="M55.49,1385.255a28.555,28.555,0,0,1,5.972,9.767c.269.641.524,1.247.794,1.85,1.925,4.3,7.9,10.807,7.957,10.872l-.647.577c-.252-.273-6.19-6.746-8.206-11.247-.276-.617-.533-1.23-.806-1.878-1.692-4.031-3.442-8.2-9.441-12.572a26.316,26.316,0,0,0-6.723-3.481c-3.581-1.383-6.965-2.688-12.308-9.223h0c5.105,6.243,8.753,7.312,12.164,8.628,2.113.816,4.574,1.322,7.3,3.311A30.092,30.092,0,0,1,55.49,1385.255Z" transform="translate(-32.084 -1369.92)" fill="#aec3ff"/>
            </g>
            <g id="Group_1109294" data-name="Group 1109294" transform="translate(35.418 35.442)">
              <path id="Path_892874" data-name="Path 892874" d="M161.5,1312.577c3.079,3.571,5.85,10.965,3.215,13.066s-9.678-1.888-12.757-5.459-2.611-7.208.024-9.309S158.424,1309.006,161.5,1312.577Z" transform="translate(-144.593 -1302.419)" fill="#aec3ff"/>
              <path id="Path_892875" data-name="Path 892875" d="M134.667,1345.9l2.1-2.028,8.74,10.136-2.279,1.817Z" transform="translate(-134.667 -1343.87)" fill="#aec3ff"/>
              <path id="Path_892876" data-name="Path 892876" d="M164.749,1321.845c1.953,2.265,3.711,6.955,2.04,8.287s-6.138-1.2-8.092-3.463-1.656-4.571.015-5.9S162.8,1319.579,164.749,1321.845Z" transform="translate(-149.514 -1310.277)" fill="#aec3ff"/>
            </g>
          </g>
          <g id="Group_1109298" data-name="Group 1109298" transform="translate(28.468 1.588)">
            <g id="Group_1109296" data-name="Group 1109296">
              <path id="Path_892877" data-name="Path 892877" d="M124.613,1516.78a19.075,19.075,0,0,1,.972,7.585c-.011.465-.021.9-.022,1.345,0,3.147,1.86,8.745,1.879,8.8l-.552.175c-.078-.235-1.929-5.8-1.928-9.1,0-.452.011-.9.022-1.365a17.092,17.092,0,0,0-2.319-10.243,17.582,17.582,0,0,0-3.147-3.959c-1.805-1.821-3.511-3.542-4.982-8.985h0a15.977,15.977,0,0,0,5.057,8.583,17.513,17.513,0,0,1,3.547,4.013A20.1,20.1,0,0,1,124.613,1516.78Z" transform="translate(-114.536 -1501.037)" fill="#aec3ff"/>
            </g>
            <g id="Group_1109297" data-name="Group 1109297" transform="translate(11.249 31.855)">
              <path id="Path_892878" data-name="Path 892878" d="M155.3,1454.6c.9,3.019.57,8.283-1.61,8.843s-5.383-3.8-6.284-6.814.378-5.107,2.558-5.667S154.4,1451.578,155.3,1454.6Z" transform="translate(-147.118 -1444.356)" fill="#aec3ff"/>
              <path id="Path_892879" data-name="Path 892879" d="M147.409,1480.682l1.833-.663,2.558,8.567-1.886.485Z" transform="translate(-147.309 -1480.019)" fill="#aec3ff"/>
              <path id="Path_892880" data-name="Path 892880" d="M156.909,1461.475c.571,1.914.361,5.253-1.021,5.609s-3.414-2.407-3.986-4.322.24-3.239,1.622-3.595S156.338,1459.56,156.909,1461.475Z" transform="translate(-150.129 -1450.834)" fill="#aec3ff"/>
            </g>
          </g>
          <g id="Group_1109301" data-name="Group 1109301" transform="translate(68.385 0)">
            <g id="Group_1109299" data-name="Group 1109299" transform="translate(7.864)">
              <path id="Path_892881" data-name="Path 892881" d="M260.714,1463.792a31.1,31.1,0,0,1-3.288,12.023c-.308.692-.6,1.346-.875,2.01-1.973,4.734-2.678,14.325-2.684,14.421l-.94-.082c.029-.4.731-9.941,2.8-14.9.283-.679.577-1.34.888-2.04,1.934-4.349,3.934-8.847,2.924-16.866a28.641,28.641,0,0,0-2.256-7.928c-1.576-3.871-3.065-7.528-1.87-16.64h0c-1.141,8.707.733,12.4,2.234,16.082.93,2.284,2.365,4.613,2.824,8.261A32.8,32.8,0,0,1,260.714,1463.792Z" transform="translate(-252.927 -1433.791)" fill="#aec3ff"/>
            </g>
            <g id="Group_1109300" data-name="Group 1109300" transform="translate(0 56.04)">
              <path id="Path_892882" data-name="Path 892882" d="M243.383,1357.572c-.534,5.106-4.329,12.82-7.961,12.3s-5.724-9.083-5.19-14.188,3.767-7.448,7.4-6.926S243.917,1352.465,243.383,1357.572Z" transform="translate(-230.15 -1338.097)" fill="#aec3ff"/>
              <path id="Path_892883" data-name="Path 892883" d="M247.791,1398.372l3.173.15-1.516,14.493-3.141-.451Z" transform="translate(-240.728 -1398.372)" fill="#aec3ff"/>
            </g>
          </g>
        </g>
      </g>
    </g>
  </g>
</svg>
