<svg xmlns="http://www.w3.org/2000/svg" xmlns:xlink="http://www.w3.org/1999/xlink" width="400" height="700.991" viewBox="0 0 400 700.991">
  <defs>
    <clipPath id="clip-path">
      <path id="Path_892916" data-name="Path 892916" d="M15.881-482.212H384.119c8.771,0,15.881,6.131,15.881,13.695v673.6c0,7.563-7.11,13.695-15.881,13.695H15.881C7.11,218.778,0,212.647,0,205.084v-673.6C0-476.081,7.11-482.212,15.881-482.212Z" fill="#e0ffa3"/>
    </clipPath>
    <linearGradient id="linear-gradient" x1="0.5" x2="0.5" y2="1" gradientUnits="objectBoundingBox">
      <stop offset="0" stop-color="#f2ffd9"/>
      <stop offset="1" stop-color="#e0ffa3"/>
    </linearGradient>
  </defs>
  <g id="Group_1111699" data-name="Group 1111699" transform="translate(7116.957 -4494)">
    <g id="Group_1111628" data-name="Group 1111628">
      <g id="Mask_Group_1098847" data-name="Mask Group 1098847" transform="translate(-7116.957 4976.212)" clip-path="url(#clip-path)">
        <path id="Path_892915" data-name="Path 892915" d="M481.5-513.4h621.428L1074.339,602.715H452.911Z" transform="translate(-563.173 1.364)" fill="url(#linear-gradient)"/>
      </g>
      <g id="Group_1109395" data-name="Group 1109395" transform="translate(-6731.668 4494) rotate(90)">
        <path id="Path_892709" data-name="Path 892709" d="M-1.752,702.087s39.133,41.994,89.408,3.953c42.326-32.026,78.849,1.806,108.211-18.757,47.973-33.6,35.283-108.51.407-149.924-26.448-31.405,14.573-59.9-4.269-110.4-21.981-58.9-92.4-5.733-103.058-40.368-10.817-35.168-60.9-29.883-91.486,1.873Z" transform="translate(2.958 -362.362)" fill="#fffee5"/>
        <g id="Group_1109274" data-name="Group 1109274" transform="translate(0 77.184)">
          <circle id="Ellipse_11759" data-name="Ellipse 11759" cx="73.746" cy="73.746" r="73.746" transform="translate(104.293 0) rotate(45)" fill="#ff905f"/>
          <ellipse id="Ellipse_11760" data-name="Ellipse 11760" cx="67.423" cy="67.423" rx="67.423" ry="67.423" transform="translate(36.87 36.87)" fill="#ffc6b0"/>
          <circle id="Ellipse_11761" data-name="Ellipse 11761" cx="63.01" cy="63.01" r="63.01" transform="translate(104.293 15.183) rotate(45)" fill="#f78248"/>
          <path id="Path_892710" data-name="Path 892710" d="M377.614,924.21c11.116,1.868,20.246-5.191,23.226-16.062,4.068-14.838-7.341-23.5-18.457-25.372s-23.275,5.531-23.475,18.77A22.35,22.35,0,0,0,377.614,924.21Z" transform="translate(-254.566 -783.007)" fill="#ea7147"/>
          <path id="Path_892711" data-name="Path 892711" d="M442.066,935.786c3.913.658,7.126-1.827,8.176-5.654,1.432-5.223-2.584-8.273-6.5-8.931a6.92,6.92,0,0,0-8.263,6.607A7.867,7.867,0,0,0,442.066,935.786Z" transform="translate(-310.362 -804.866)" fill="#ffa076"/>
          <path id="Path_892712" data-name="Path 892712" d="M293.047,994.435c2.872-.39,4.673-2.1,4.705-4.035.044-2.646-3.342-3.334-6.214-2.944s-5.4,2.34-4.591,4.487C287.636,993.772,290.175,994.825,293.047,994.435Z" transform="translate(-202.021 -881.468)" fill="#ffa076"/>
          <path id="Path_892713" data-name="Path 892713" d="M304.123,1051.557c3.649.9,6.648-.336,7.629-2.717,1.339-3.25-2.405-5.734-6.055-6.638s-7.642.286-7.71,3.331C297.928,1048.126,300.474,1050.653,304.123,1051.557Z" transform="translate(-210.176 -953.608)" fill="#ffa076"/>
          <path id="Path_892714" data-name="Path 892714" d="M381.9,1076.561c-1.812-3.294-4.758-4.655-7.172-3.759-3.295,1.222-2.579,5.658-.766,8.952s5.4,5.419,7.679,3.4C383.583,1083.44,383.711,1079.855,381.9,1076.561Z" transform="translate(-264.418 -996.008)" fill="#ffa076"/>
          <path id="Path_892715" data-name="Path 892715" d="M311.485,1115.57c-1.813-3.294-4.759-4.655-7.172-3.759-3.295,1.223-2.579,5.658-.766,8.952s5.4,5.419,7.679,3.4C313.17,1122.449,313.3,1118.864,311.485,1115.57Z" transform="translate(-213.111 -1045.601)" fill="#ffa076"/>
          <path id="Path_892716" data-name="Path 892716" d="M593.592,900.985a4.785,4.785,0,0,0,5.358-3.817c.707-2.865-1.283-4.932-3.816-5.359a4.8,4.8,0,0,0-5.358,3.817A4.534,4.534,0,0,0,593.592,900.985Z" transform="translate(-422.703 -762.058)" fill="#f78248"/>
          <path id="Path_892717" data-name="Path 892717" d="M599.59,904.548a2.712,2.712,0,0,0,2.944-2.1,2.428,2.428,0,0,0-2.1-2.944,2.676,2.676,0,0,0-2.944,2.1A2.457,2.457,0,0,0,599.59,904.548Z" transform="translate(-428.354 -767.688)" fill="#ea7147"/>
          <path id="Path_892718" data-name="Path 892718" d="M541.94,826.7a3.076,3.076,0,0,0,3.444-2.453,2.775,2.775,0,0,0-2.453-3.444,3.081,3.081,0,0,0-3.444,2.453A2.914,2.914,0,0,0,541.94,826.7Z" transform="translate(-386.091 -668.49)" fill="#f78248"/>
          <path id="Path_892719" data-name="Path 892719" d="M545.8,828.99a1.743,1.743,0,0,0,1.892-1.348,1.56,1.56,0,0,0-1.347-1.892,1.72,1.72,0,0,0-1.892,1.347A1.579,1.579,0,0,0,545.8,828.99Z" transform="translate(-389.723 -672.107)" fill="#ea7147"/>
          <path id="Path_892720" data-name="Path 892720" d="M498.745,793.169a4.127,4.127,0,0,0,4.621-3.292c.609-2.471-1.106-4.254-3.292-4.621a4.135,4.135,0,0,0-4.621,3.292A3.91,3.91,0,0,0,498.745,793.169Z" transform="translate(-353.986 -625.323)" fill="#f78248"/>
          <path id="Path_892721" data-name="Path 892721" d="M503.918,796.242a2.339,2.339,0,0,0,2.539-1.809,2.094,2.094,0,0,0-1.809-2.539,2.308,2.308,0,0,0-2.539,1.809A2.12,2.12,0,0,0,503.918,796.242Z" transform="translate(-358.86 -630.178)" fill="#ea7147"/>
          <path id="Path_892722" data-name="Path 892722" d="M622.482,1021.082a4.786,4.786,0,0,0,5.359-3.816c.706-2.866-1.283-4.933-3.817-5.358a4.794,4.794,0,0,0-5.358,3.816A4.533,4.533,0,0,0,622.482,1021.082Z" transform="translate(-443.754 -914.743)" fill="#f78248"/>
          <path id="Path_892723" data-name="Path 892723" d="M628.48,1024.645a2.712,2.712,0,0,0,2.944-2.1,2.428,2.428,0,0,0-2.1-2.944,2.676,2.676,0,0,0-2.944,2.1A2.457,2.457,0,0,0,628.48,1024.645Z" transform="translate(-449.405 -920.372)" fill="#ea7147"/>
          <path id="Path_892724" data-name="Path 892724" d="M620.428,976.957a3.96,3.96,0,0,0,4.434-3.158,3.573,3.573,0,0,0-3.158-4.434,3.967,3.967,0,0,0-4.433,3.158A3.751,3.751,0,0,0,620.428,976.957Z" transform="translate(-442.752 -859.067)" fill="#f78248"/>
          <path id="Path_892725" data-name="Path 892725" d="M625.391,979.906a2.244,2.244,0,0,0,2.436-1.735,2.009,2.009,0,0,0-1.735-2.436,2.214,2.214,0,0,0-2.436,1.735A2.033,2.033,0,0,0,625.391,979.906Z" transform="translate(-447.428 -863.725)" fill="#ea7147"/>
          <path id="Path_892726" data-name="Path 892726" d="M360.734,746.883a3.96,3.96,0,0,0,4.434-3.158,3.573,3.573,0,0,0-3.158-4.434,3.968,3.968,0,0,0-4.434,3.158A3.751,3.751,0,0,0,360.734,746.883Z" transform="translate(-253.525 -566.563)" fill="#f78248"/>
          <path id="Path_892727" data-name="Path 892727" d="M365.7,749.831a2.244,2.244,0,0,0,2.436-1.735,2.009,2.009,0,0,0-1.735-2.436,2.214,2.214,0,0,0-2.436,1.735A2.033,2.033,0,0,0,365.7,749.831Z" transform="translate(-258.2 -571.221)" fill="#ea7147"/>
          <path id="Path_892728" data-name="Path 892728" d="M606.354,1084.391a3.958,3.958,0,0,0,4.432-3.156,3.571,3.571,0,0,0-3.157-4.432,3.966,3.966,0,0,0-4.432,3.157A3.75,3.75,0,0,0,606.354,1084.391Z" transform="translate(-432.498 -995.653)" fill="#f78248"/>
          <path id="Path_892729" data-name="Path 892729" d="M611.316,1087.339a2.243,2.243,0,0,0,2.435-1.735,2.008,2.008,0,0,0-1.734-2.435,2.214,2.214,0,0,0-2.435,1.735A2.033,2.033,0,0,0,611.316,1087.339Z" transform="translate(-437.172 -1000.31)" fill="#ea7147"/>
          <path id="Path_892730" data-name="Path 892730" d="M573.274,1169.805a4.786,4.786,0,0,0,5.359-3.817c.706-2.865-1.283-4.933-3.817-5.358a4.8,4.8,0,0,0-5.358,3.817A4.534,4.534,0,0,0,573.274,1169.805Z" transform="translate(-407.898 -1103.821)" fill="#f78248"/>
          <path id="Path_892731" data-name="Path 892731" d="M579.272,1173.368a2.712,2.712,0,0,0,2.944-2.1,2.428,2.428,0,0,0-2.1-2.944,2.676,2.676,0,0,0-2.944,2.1A2.458,2.458,0,0,0,579.272,1173.368Z" transform="translate(-413.549 -1109.451)" fill="#ea7147"/>
          <path id="Path_892732" data-name="Path 892732" d="M546.716,1190.024a3.707,3.707,0,0,0,4.151-2.957,3.345,3.345,0,0,0-2.957-4.151,3.714,3.714,0,0,0-4.151,2.957A3.513,3.513,0,0,0,546.716,1190.024Z" transform="translate(-389.192 -1130.077)" fill="#f78248"/>
          <path id="Path_892733" data-name="Path 892733" d="M551.363,1192.785a2.1,2.1,0,0,0,2.281-1.625,1.881,1.881,0,0,0-1.625-2.281,2.074,2.074,0,0,0-2.281,1.625A1.9,1.9,0,0,0,551.363,1192.785Z" transform="translate(-393.571 -1134.439)" fill="#ea7147"/>
          <path id="Path_892734" data-name="Path 892734" d="M580.319,872.26a4.826,4.826,0,0,0,5.358-3.817,4.652,4.652,0,0,0-3.817-5.358A4.547,4.547,0,0,0,576.5,866.9C576.231,869.457,578.277,872.115,580.319,872.26Z" transform="translate(-413.101 -725.49)" fill="#ea7147"/>
          <path id="Path_892735" data-name="Path 892735" d="M585.4,874.735c1.432.635,3.008-.782,3.267-2.327a2.837,2.837,0,1,0-5.595-.94C582.815,873.012,584.114,874.164,585.4,874.735Z" transform="translate(-417.883 -729.754)" fill="#f78248"/>
          <path id="Path_892736" data-name="Path 892736" d="M610.479,958.529a3.319,3.319,0,0,0,3.685-2.625,3.2,3.2,0,0,0-2.625-3.685,3.127,3.127,0,0,0-3.685,2.625C607.668,956.6,609.075,958.429,610.479,958.529Z" transform="translate(-435.951 -835.945)" fill="#ea7147"/>
          <path id="Path_892737" data-name="Path 892737" d="M613.975,960.231c.985.436,2.069-.538,2.247-1.6a1.951,1.951,0,1,0-3.848-.647A2.256,2.256,0,0,0,613.975,960.231Z" transform="translate(-439.24 -838.878)" fill="#f78248"/>
          <path id="Path_892738" data-name="Path 892738" d="M602.413,1111.391a4.225,4.225,0,0,0,4.691-3.341,4.073,4.073,0,0,0-3.341-4.691,3.981,3.981,0,0,0-4.691,3.341C598.834,1108.937,600.625,1111.265,602.413,1111.391Z" transform="translate(-429.548 -1029.818)" fill="#ea7147"/>
          <path id="Path_892739" data-name="Path 892739" d="M606.863,1113.558c1.254.555,2.633-.685,2.86-2.037a2.483,2.483,0,1,0-4.9-.823C604.6,1112.05,605.736,1113.059,606.863,1113.558Z" transform="translate(-433.735 -1033.552)" fill="#f78248"/>
          <path id="Path_892740" data-name="Path 892740" d="M443.842,759.428a3.909,3.909,0,0,0,4.34-3.092A3.768,3.768,0,0,0,445.09,752a3.683,3.683,0,0,0-4.34,3.092C440.531,757.157,442.188,759.31,443.842,759.428Z" transform="translate(-314.188 -582.514)" fill="#ea7147"/>
          <path id="Path_892741" data-name="Path 892741" d="M447.959,761.432c1.16.514,2.436-.634,2.647-1.885a2.3,2.3,0,1,0-4.532-.761C445.863,760.037,446.916,760.97,447.959,761.432Z" transform="translate(-318.061 -585.968)" fill="#f78248"/>
          <path id="Path_892742" data-name="Path 892742" d="M558.206,840.79c2.851,1.019,4.933-1.283,5.358-3.816s-1.315-4.634-3.816-5.359c-2.468-.714-4.681,1.316-5.155,4.132C554.168,838.281,555.787,839.926,558.206,840.79Z" transform="translate(-397.105 -685.691)" fill="#ffc6b0"/>
          <path id="Path_892743" data-name="Path 892743" d="M564.315,845.36c1.264.212,2.158-.73,2.673-1.9.529-1.2-.114-2.372-1.9-2.673a2.194,2.194,0,0,0-2.673,1.9A2.321,2.321,0,0,0,564.315,845.36Z" transform="translate(-402.827 -692.56)" fill="#f78248"/>
          <path id="Path_892744" data-name="Path 892744" d="M523.089,802.144c2.851,1.019,4.932-1.283,5.358-3.816s-1.315-4.634-3.817-5.359c-2.468-.714-4.682,1.316-5.155,4.132C519.05,799.635,520.669,801.28,523.089,802.144Z" transform="translate(-371.516 -636.559)" fill="#ffc6b0"/>
          <path id="Path_892745" data-name="Path 892745" d="M529.2,806.714c1.264.212,2.158-.73,2.673-1.9.529-1.2-.114-2.372-1.9-2.673a2.194,2.194,0,0,0-2.673,1.9A2.32,2.32,0,0,0,529.2,806.714Z" transform="translate(-377.239 -643.428)" fill="#f78248"/>
          <path id="Path_892746" data-name="Path 892746" d="M614.874,1053.013c2.851,1.018,4.933-1.283,5.359-3.817s-1.315-4.634-3.817-5.358c-2.468-.715-4.682,1.316-5.155,4.132C610.835,1050.5,612.454,1052.148,614.874,1053.013Z" transform="translate(-438.396 -955.499)" fill="#ffc6b0"/>
          <path id="Path_892747" data-name="Path 892747" d="M620.983,1057.583c1.264.213,2.158-.73,2.673-1.9.529-1.2-.114-2.372-1.9-2.673a2.194,2.194,0,0,0-2.673,1.9A2.32,2.32,0,0,0,620.983,1057.583Z" transform="translate(-444.119 -962.368)" fill="#f78248"/>
          <path id="Path_892748" data-name="Path 892748" d="M615.342,997.305c2.373.848,4.106-1.068,4.46-3.177a4.032,4.032,0,0,0-3.177-4.46c-2.054-.595-3.9,1.1-4.291,3.44C611.981,995.216,613.329,996.586,615.342,997.305Z" transform="translate(-439.187 -885.058)" fill="#ffc6b0"/>
          <path id="Path_892749" data-name="Path 892749" d="M620.427,1001.109c1.052.177,1.8-.608,2.225-1.585.44-1-.095-1.975-1.585-2.225a1.827,1.827,0,0,0-2.225,1.585A1.931,1.931,0,0,0,620.427,1001.109Z" transform="translate(-443.95 -890.776)" fill="#f78248"/>
          <path id="Path_892750" data-name="Path 892750" d="M610.662,927.312c2.851,1.018,4.932-1.283,5.359-3.817s-1.315-4.634-3.817-5.358c-2.468-.714-4.682,1.316-5.155,4.132C606.623,924.8,608.242,926.448,610.662,927.312Z" transform="translate(-435.327 -795.69)" fill="#ffc6b0"/>
          <path id="Path_892751" data-name="Path 892751" d="M616.77,931.882c1.264.213,2.157-.73,2.673-1.9.529-1.2-.114-2.372-1.9-2.673a2.194,2.194,0,0,0-2.673,1.9A2.321,2.321,0,0,0,616.77,931.882Z" transform="translate(-441.049 -802.559)" fill="#f78248"/>
          <path id="Path_892752" data-name="Path 892752" d="M101.894,1117.026a4.785,4.785,0,0,0-5.358,3.817c-.707,2.865,1.283,4.933,3.816,5.358a4.8,4.8,0,0,0,5.358-3.816A4.534,4.534,0,0,0,101.894,1117.026Z" transform="translate(-63.283 -1048.385)" fill="#f78248"/>
          <path id="Path_892753" data-name="Path 892753" d="M107.224,1124.72a2.711,2.711,0,0,0-2.944,2.1,2.428,2.428,0,0,0,2.1,2.944,2.676,2.676,0,0,0,2.944-2.1A2.457,2.457,0,0,0,107.224,1124.72Z" transform="translate(-68.961 -1054.012)" fill="#ea7147"/>
          <path id="Path_892754" data-name="Path 892754" d="M73,996.928a4.786,4.786,0,0,0-5.359,3.817c-.706,2.865,1.283,4.932,3.816,5.358a4.8,4.8,0,0,0,5.359-3.817A4.534,4.534,0,0,0,73,996.928Z" transform="translate(-42.232 -895.699)" fill="#f78248"/>
          <path id="Path_892755" data-name="Path 892755" d="M78.334,1004.623a2.712,2.712,0,0,0-2.944,2.1,2.428,2.428,0,0,0,2.1,2.944,2.676,2.676,0,0,0,2.944-2.1A2.457,2.457,0,0,0,78.334,1004.623Z" transform="translate(-47.91 -901.327)" fill="#ea7147"/>
          <path id="Path_892756" data-name="Path 892756" d="M79.432,1045.364A3.96,3.96,0,0,0,75,1048.522a3.573,3.573,0,0,0,3.158,4.434,3.968,3.968,0,0,0,4.434-3.158A3.751,3.751,0,0,0,79.432,1045.364Z" transform="translate(-47.607 -955.686)" fill="#f78248"/>
          <path id="Path_892757" data-name="Path 892757" d="M83.843,1051.73a2.244,2.244,0,0,0-2.436,1.736,2.008,2.008,0,0,0,1.735,2.436,2.214,2.214,0,0,0,2.436-1.735A2.034,2.034,0,0,0,83.843,1051.73Z" transform="translate(-52.306 -960.343)" fill="#ea7147"/>
          <path id="Path_892758" data-name="Path 892758" d="M93.514,937.938a3.958,3.958,0,0,0-4.432,3.157,3.571,3.571,0,0,0,3.157,4.432,3.966,3.966,0,0,0,4.432-3.157A3.75,3.75,0,0,0,93.514,937.938Z" transform="translate(-57.87 -819.109)" fill="#f78248"/>
          <path id="Path_892759" data-name="Path 892759" d="M97.922,944.3a2.243,2.243,0,0,0-2.435,1.735,2.009,2.009,0,0,0,1.735,2.435,2.214,2.214,0,0,0,2.435-1.735A2.033,2.033,0,0,0,97.922,944.3Z" transform="translate(-62.566 -823.763)" fill="#ea7147"/>
          <path id="Path_892760" data-name="Path 892760" d="M115.635,1145.875a4.826,4.826,0,0,0-5.359,3.817,4.652,4.652,0,0,0,3.817,5.358,4.547,4.547,0,0,0,5.359-3.816C119.723,1148.678,117.676,1146.019,115.635,1145.875Z" transform="translate(-73.353 -1085.077)" fill="#ea7147"/>
          <path id="Path_892761" data-name="Path 892761" d="M120.21,1152.709c-1.432-.634-3.008.782-3.267,2.327a2.837,2.837,0,0,0,5.595.94C122.8,1154.432,121.5,1153.28,120.21,1152.709Z" transform="translate(-78.229 -1090.122)" fill="#f78248"/>
          <path id="Path_892762" data-name="Path 892762" d="M93.244,1067.368a3.319,3.319,0,0,0-3.685,2.625,3.2,3.2,0,0,0,2.625,3.685,3.127,3.127,0,0,0,3.685-2.625C96.055,1069.3,94.647,1067.468,93.244,1067.368Z" transform="translate(-58.272 -982.384)" fill="#ea7147"/>
          <path id="Path_892763" data-name="Path 892763" d="M96.39,1072.068c-.985-.436-2.068.538-2.247,1.6a1.951,1.951,0,1,0,3.847.646A2.255,2.255,0,0,0,96.39,1072.068Z" transform="translate(-61.624 -985.853)" fill="#f78248"/>
          <path id="Path_892764" data-name="Path 892764" d="M96.64,909.839a4.225,4.225,0,0,0-4.691,3.341,4.072,4.072,0,0,0,3.341,4.691,3.981,3.981,0,0,0,4.691-3.341C100.218,912.293,98.427,909.966,96.64,909.839Z" transform="translate(-60.004 -783.844)" fill="#ea7147"/>
          <path id="Path_892765" data-name="Path 892765" d="M100.644,915.823c-1.254-.555-2.633.685-2.861,2.037a2.483,2.483,0,0,0,4.9.823C102.909,917.331,101.771,916.322,100.644,915.823Z" transform="translate(-64.272 -788.261)" fill="#f78248"/>
          <path id="Path_892766" data-name="Path 892766" d="M138.179,1176.513c-2.851-1.019-4.932,1.283-5.359,3.817s1.315,4.634,3.817,5.358c2.468.715,4.682-1.316,5.155-4.132C142.218,1179.022,140.6,1177.377,138.179,1176.513Z" transform="translate(-89.781 -1124.044)" fill="#ffc6b0"/>
          <path id="Path_892767" data-name="Path 892767" d="M143.658,1185.154c-1.264-.212-2.157.73-2.673,1.9-.529,1.2.114,2.372,1.9,2.673a2.194,2.194,0,0,0,2.673-1.9A2.321,2.321,0,0,0,143.658,1185.154Z" transform="translate(-95.646 -1130.387)" fill="#f78248"/>
          <path id="Path_892768" data-name="Path 892768" d="M81.512,964.291c-2.851-1.018-4.933,1.283-5.359,3.817s1.315,4.634,3.817,5.358c2.468.714,4.682-1.316,5.154-4.132C85.551,966.8,83.932,965.155,81.512,964.291Z" transform="translate(-48.49 -854.237)" fill="#ffc6b0"/>
          <path id="Path_892769" data-name="Path 892769" d="M86.99,972.931c-1.264-.212-2.158.73-2.673,1.9-.529,1.2.114,2.372,1.9,2.673a2.194,2.194,0,0,0,2.673-1.9A2.32,2.32,0,0,0,86.99,972.931Z" transform="translate(-54.354 -860.577)" fill="#f78248"/>
          <path id="Path_892770" data-name="Path 892770" d="M85.141,1024.3c-2.373-.848-4.106,1.068-4.46,3.177a4.032,4.032,0,0,0,3.177,4.461c2.054.594,3.9-1.1,4.291-3.44C88.5,1026.392,87.155,1025.022,85.141,1024.3Z" transform="translate(-51.796 -928.982)" fill="#ffc6b0"/>
          <path id="Path_892771" data-name="Path 892771" d="M89.7,1031.5c-1.052-.177-1.8.608-2.225,1.584-.44,1,.095,1.975,1.585,2.225a1.826,1.826,0,0,0,2.225-1.584A1.931,1.931,0,0,0,89.7,1031.5Z" transform="translate(-56.677 -934.262)" fill="#f78248"/>
          <path id="Path_892772" data-name="Path 892772" d="M85.724,1089.991c-2.851-1.019-4.932,1.283-5.359,3.816s1.315,4.634,3.817,5.359c2.468.714,4.682-1.316,5.155-4.132C89.763,1092.5,88.144,1090.855,85.724,1089.991Z" transform="translate(-51.559 -1014.045)" fill="#ffc6b0"/>
          <path id="Path_892773" data-name="Path 892773" d="M91.2,1098.632c-1.264-.213-2.158.73-2.673,1.9-.529,1.2.114,2.372,1.9,2.673a2.194,2.194,0,0,0,2.673-1.9A2.32,2.32,0,0,0,91.2,1098.632Z" transform="translate(-57.423 -1020.387)" fill="#f78248"/>
          <path id="Path_892774" data-name="Path 892774" d="M356.387,1280.986a4.785,4.785,0,0,0-5.671-3.334c-2.9.525-3.979,3.185-3.334,5.671a4.8,4.8,0,0,0,5.672,3.333A4.533,4.533,0,0,0,356.387,1280.986Z" transform="translate(-246.037 -1252.443)" fill="#f78248"/>
          <path id="Path_892775" data-name="Path 892775" d="M360.06,1287.089a2.713,2.713,0,0,0-3.117-1.832,2.428,2.428,0,0,0-1.831,3.116,2.676,2.676,0,0,0,3.116,1.832A2.458,2.458,0,0,0,360.06,1287.089Z" transform="translate(-251.738 -1258.019)" fill="#ea7147"/>
          <path id="Path_892776" data-name="Path 892776" d="M234.959,1258.333a4.786,4.786,0,0,0-5.672-3.334c-2.9.525-3.979,3.185-3.333,5.672a4.8,4.8,0,0,0,5.672,3.334A4.534,4.534,0,0,0,234.959,1258.333Z" transform="translate(-157.558 -1223.642)" fill="#f78248"/>
          <path id="Path_892777" data-name="Path 892777" d="M238.632,1264.437a2.712,2.712,0,0,0-3.116-1.832,2.428,2.428,0,0,0-1.832,3.116,2.676,2.676,0,0,0,3.116,1.832A2.457,2.457,0,0,0,238.632,1264.437Z" transform="translate(-163.259 -1229.22)" fill="#ea7147"/>
          <path id="Path_892778" data-name="Path 892778" d="M279.661,1275.242a3.96,3.96,0,0,0-4.693-2.758,3.573,3.573,0,0,0-2.758,4.693,3.967,3.967,0,0,0,4.693,2.758A3.751,3.751,0,0,0,279.661,1275.242Z" transform="translate(-191.285 -1244.307)" fill="#f78248"/>
          <path id="Path_892779" data-name="Path 892779" d="M282.7,1280.292a2.244,2.244,0,0,0-2.579-1.516,2.009,2.009,0,0,0-1.516,2.579,2.214,2.214,0,0,0,2.579,1.516A2.034,2.034,0,0,0,282.7,1280.292Z" transform="translate(-196.002 -1248.921)" fill="#ea7147"/>
          <path id="Path_892780" data-name="Path 892780" d="M187.339,1218.539a3.959,3.959,0,0,0-4.691-2.757,3.572,3.572,0,0,0-2.757,4.691,3.966,3.966,0,0,0,4.691,2.757A3.749,3.749,0,0,0,187.339,1218.539Z" transform="translate(-124.016 -1172.216)" fill="#f78248"/>
          <path id="Path_892781" data-name="Path 892781" d="M190.377,1223.587a2.243,2.243,0,0,0-2.578-1.515,2.008,2.008,0,0,0-1.515,2.578,2.214,2.214,0,0,0,2.577,1.515A2.033,2.033,0,0,0,190.377,1223.587Z" transform="translate(-128.731 -1176.828)" fill="#ea7147"/>
          <path id="Path_892782" data-name="Path 892782" d="M388.38,1280.058a4.826,4.826,0,0,0-5.672-3.333,4.652,4.652,0,0,0-3.333,5.671,4.547,4.547,0,0,0,5.672,3.334C387.49,1284.934,389.082,1281.98,388.38,1280.058Z" transform="translate(-269.371 -1251.365)" fill="#ea7147"/>
          <path id="Path_892783" data-name="Path 892783" d="M391.5,1285.6c-.006-1.567-1.942-2.426-3.458-2.033a2.837,2.837,0,0,0,1.426,5.491C390.983,1288.66,391.5,1287,391.5,1285.6Z" transform="translate(-274.247 -1256.447)" fill="#f78248"/>
          <path id="Path_892784" data-name="Path 892784" d="M303.69,1273.939a3.319,3.319,0,0,0-3.9-2.292,3.2,3.2,0,0,0-2.293,3.9,3.127,3.127,0,0,0,3.9,2.292C303.077,1277.292,304.172,1275.261,303.69,1273.939Z" transform="translate(-209.744 -1242.046)" fill="#ea7147"/>
          <path id="Path_892785" data-name="Path 892785" d="M305.834,1277.747c0-1.077-1.336-1.669-2.378-1.4a1.951,1.951,0,0,0,.98,3.777A2.256,2.256,0,0,0,305.834,1277.747Z" transform="translate(-213.097 -1245.54)" fill="#f78248"/>
          <path id="Path_892786" data-name="Path 892786" d="M163.6,1203.232a4.225,4.225,0,0,0-4.965-2.918,4.072,4.072,0,0,0-2.918,4.965,3.98,3.98,0,0,0,4.965,2.918C162.825,1207.5,164.219,1204.915,163.6,1203.232Z" transform="translate(-106.418 -1153.079)" fill="#ea7147"/>
          <path id="Path_892787" data-name="Path 892787" d="M166.336,1208.081c0-1.371-1.7-2.124-3.028-1.78a2.483,2.483,0,0,0,1.248,4.807C165.883,1210.764,166.34,1209.313,166.336,1208.081Z" transform="translate(-110.687 -1157.528)" fill="#f78248"/>
          <path id="Path_892788" data-name="Path 892788" d="M425.839,1273.208c-.234-3.019-3.185-3.979-5.672-3.333s-3.694,3.092-3.333,5.671c.355,2.545,3.113,3.736,5.876,3.019C425.2,1277.92,426.038,1275.77,425.839,1273.208Z" transform="translate(-296.73 -1242.332)" fill="#ffc6b0"/>
          <path id="Path_892789" data-name="Path 892789" d="M429.465,1278.918c-.322-1.24-1.548-1.671-2.829-1.663-1.315.009-2.119,1.072-1.663,2.829a2.194,2.194,0,0,0,2.829,1.663A2.321,2.321,0,0,0,429.465,1278.918Z" transform="translate(-302.612 -1247.456)" fill="#f78248"/>
          <path id="Path_892790" data-name="Path 892790" d="M208.972,1238.3c-.234-3.018-3.185-3.979-5.672-3.333s-3.694,3.092-3.334,5.671c.355,2.544,3.112,3.737,5.876,3.019C208.33,1243.015,209.17,1240.866,208.972,1238.3Z" transform="translate(-138.708 -1197.956)" fill="#ffc6b0"/>
          <path id="Path_892791" data-name="Path 892791" d="M212.6,1244.014c-.322-1.241-1.547-1.672-2.829-1.663-1.315.009-2.119,1.072-1.663,2.829a2.194,2.194,0,0,0,2.829,1.663A2.32,2.32,0,0,0,212.6,1244.014Z" transform="translate(-144.59 -1203.081)" fill="#f78248"/>
          <path id="Path_892792" data-name="Path 892792" d="M263.105,1262.231c-.195-2.513-2.651-3.312-4.721-2.775a4.031,4.031,0,0,0-2.775,4.721c.3,2.118,2.591,3.11,4.892,2.513C262.571,1266.152,263.27,1264.363,263.105,1262.231Z" transform="translate(-179.26 -1227.604)" fill="#ffc6b0"/>
          <path id="Path_892793" data-name="Path 892793" d="M266.123,1266.983c-.268-1.033-1.288-1.392-2.355-1.384-1.095.007-1.764.892-1.384,2.355a1.827,1.827,0,0,0,2.355,1.384A1.932,1.932,0,0,0,266.123,1266.983Z" transform="translate(-184.156 -1231.868)" fill="#f78248"/>
          <path id="Path_892794" data-name="Path 892794" d="M325.441,1285.774c-.234-3.018-3.185-3.979-5.671-3.334s-3.694,3.092-3.334,5.671c.355,2.545,3.113,3.736,5.876,3.019C324.8,1290.485,325.639,1288.335,325.441,1285.774Z" transform="translate(-223.574 -1258.306)" fill="#ffc6b0"/>
          <path id="Path_892795" data-name="Path 892795" d="M329.066,1291.482c-.322-1.24-1.547-1.671-2.829-1.663-1.315.009-2.119,1.072-1.663,2.829a2.194,2.194,0,0,0,2.829,1.663A2.321,2.321,0,0,0,329.066,1291.482Z" transform="translate(-229.456 -1263.429)" fill="#f78248"/>
          <path id="Path_892796" data-name="Path 892796" d="M140.267,823.679a4.786,4.786,0,0,0,1.33,6.443c2.337,1.8,5.031.817,6.443-1.329a4.8,4.8,0,0,0-1.329-6.443A4.534,4.534,0,0,0,140.267,823.679Z" transform="translate(-94.716 -673.012)" fill="#f78248"/>
          <path id="Path_892797" data-name="Path 892797" d="M147.654,830.792a2.712,2.712,0,0,0,.731,3.54,2.428,2.428,0,0,0,3.54-.73,2.676,2.676,0,0,0-.73-3.54A2.458,2.458,0,0,0,147.654,830.792Z" transform="translate(-100.352 -678.973)" fill="#ea7147"/>
          <path id="Path_892798" data-name="Path 892798" d="M238.49,748.777a4.786,4.786,0,0,0,1.329,6.443c2.337,1.8,5.031.817,6.443-1.329a4.8,4.8,0,0,0-1.33-6.443A4.534,4.534,0,0,0,238.49,748.777Z" transform="translate(-166.286 -577.786)" fill="#f78248"/>
          <path id="Path_892799" data-name="Path 892799" d="M245.877,755.89a2.712,2.712,0,0,0,.73,3.541,2.428,2.428,0,0,0,3.54-.731,2.675,2.675,0,0,0-.73-3.54A2.458,2.458,0,0,0,245.877,755.89Z" transform="translate(-171.922 -583.747)" fill="#ea7147"/>
          <path id="Path_892800" data-name="Path 892800" d="M201.447,773.827a3.96,3.96,0,0,0,1.1,5.331,3.573,3.573,0,0,0,5.331-1.1,3.967,3.967,0,0,0-1.1-5.331A3.751,3.751,0,0,0,201.447,773.827Z" transform="translate(-139.388 -608.461)" fill="#f78248"/>
          <path id="Path_892801" data-name="Path 892801" d="M207.56,779.712a2.244,2.244,0,0,0,.6,2.929,2.009,2.009,0,0,0,2.929-.6,2.214,2.214,0,0,0-.6-2.93A2.034,2.034,0,0,0,207.56,779.712Z" transform="translate(-144.051 -613.393)" fill="#ea7147"/>
          <path id="Path_892802" data-name="Path 892802" d="M305.428,743.356a3.958,3.958,0,0,0,1.1,5.329,3.572,3.572,0,0,0,5.329-1.1,3.966,3.966,0,0,0-1.1-5.329A3.75,3.75,0,0,0,305.428,743.356Z" transform="translate(-215.154 -569.719)" fill="#f78248"/>
          <path id="Path_892803" data-name="Path 892803" d="M311.538,749.238a2.244,2.244,0,0,0,.6,2.928,2.008,2.008,0,0,0,2.928-.6,2.214,2.214,0,0,0-.6-2.928A2.033,2.033,0,0,0,311.538,749.238Z" transform="translate(-219.816 -574.648)" fill="#ea7147"/>
          <path id="Path_892804" data-name="Path 892804" d="M119.455,848.148a4.825,4.825,0,0,0,1.329,6.443,4.652,4.652,0,0,0,6.443-1.329,4.547,4.547,0,0,0-1.33-6.443C123.669,845.539,120.411,846.339,119.455,848.148Z" transform="translate(-79.598 -704.005)" fill="#ea7147"/>
          <path id="Path_892805" data-name="Path 892805" d="M125.243,854.078c-1.159,1.054-.5,3.068.811,3.929a2.837,2.837,0,0,0,3.118-4.74C127.863,852.406,126.284,853.13,125.243,854.078Z" transform="translate(-83.869 -708.938)" fill="#f78248"/>
          <path id="Path_892806" data-name="Path 892806" d="M190.7,795.211a3.319,3.319,0,0,0,.914,4.431,3.2,3.2,0,0,0,4.431-.914,3.127,3.127,0,0,0-.914-4.431C193.6,793.417,191.36,793.967,190.7,795.211Z" transform="translate(-131.665 -634.619)" fill="#ea7147"/>
          <path id="Path_892807" data-name="Path 892807" d="M194.682,799.289c-.8.725-.342,2.11.558,2.7a1.951,1.951,0,1,0,2.144-3.259A2.256,2.256,0,0,0,194.682,799.289Z" transform="translate(-134.603 -638.011)" fill="#f78248"/>
          <path id="Path_892808" data-name="Path 892808" d="M331.12,735.2a4.225,4.225,0,0,0,1.164,5.641,4.073,4.073,0,0,0,5.641-1.164,3.98,3.98,0,0,0-1.164-5.64C334.81,732.919,331.958,733.619,331.12,735.2Z" transform="translate(-233.89 -559.582)" fill="#ea7147"/>
          <path id="Path_892809" data-name="Path 892809" d="M336.188,740.395c-1.014.923-.436,2.686.71,3.439a2.483,2.483,0,1,0,2.73-4.149C338.481,738.931,337.1,739.565,336.188,740.395Z" transform="translate(-237.63 -563.9)" fill="#f78248"/>
          <path id="Path_892810" data-name="Path 892810" d="M99.423,881.326c-2.083,2.2-.817,5.031,1.329,6.443s4.771.667,6.443-1.329c1.65-1.97.685-4.815-1.7-6.384C103.349,878.644,101.19,879.462,99.423,881.326Z" transform="translate(-64.718 -746.141)" fill="#ffc6b0"/>
          <path id="Path_892811" data-name="Path 892811" d="M108.557,887.952c-.7,1.07-.2,2.269.663,3.214.888.97,2.216.853,3.214-.664a2.194,2.194,0,0,0-.663-3.214A2.321,2.321,0,0,0,108.557,887.952Z" transform="translate(-71.905 -751.486)" fill="#f78248"/>
          <path id="Path_892812" data-name="Path 892812" d="M270.725,743.829c-2.083,2.2-.817,5.031,1.329,6.443s4.771.667,6.443-1.329c1.649-1.97.685-4.815-1.7-6.384C274.65,741.147,272.492,741.964,270.725,743.829Z" transform="translate(-189.538 -571.335)" fill="#ffc6b0"/>
          <path id="Path_892813" data-name="Path 892813" d="M279.86,750.455c-.7,1.071-.2,2.269.663,3.214.888.97,2.216.853,3.214-.663a2.194,2.194,0,0,0-.663-3.214A2.32,2.32,0,0,0,279.86,750.455Z" transform="translate(-196.725 -576.68)" fill="#f78248"/>
          <path id="Path_892814" data-name="Path 892814" d="M222,770.926c-1.734,1.829-.68,4.188,1.107,5.363a4.031,4.031,0,0,0,5.363-1.107c1.373-1.64.57-4.008-1.415-5.314C225.27,768.694,223.474,769.374,222,770.926Z" transform="translate(-154.166 -604.674)" fill="#ffc6b0"/>
          <path id="Path_892815" data-name="Path 892815" d="M229.607,776.442a2.153,2.153,0,0,0,.552,2.675c.739.807,1.845.71,2.675-.552a1.827,1.827,0,0,0-.552-2.675A1.932,1.932,0,0,0,229.607,776.442Z" transform="translate(-160.149 -609.123)" fill="#f78248"/>
          <path id="Path_892816" data-name="Path 892816" d="M157.416,798.413c-2.083,2.2-.817,5.031,1.329,6.443s4.771.667,6.443-1.33c1.649-1.969.685-4.815-1.7-6.384C161.341,795.731,159.183,796.549,157.416,798.413Z" transform="translate(-106.974 -640.731)" fill="#ffc6b0"/>
          <path id="Path_892817" data-name="Path 892817" d="M166.551,805.039c-.7,1.071-.2,2.269.663,3.214.888.97,2.216.853,3.214-.663a2.194,2.194,0,0,0-.663-3.214A2.321,2.321,0,0,0,166.551,805.039Z" transform="translate(-114.162 -646.075)" fill="#f78248"/>
          <path id="Path_892818" data-name="Path 892818" d="M454.617,1258.838a4.786,4.786,0,0,0-3.679-5.454c-2.847-.779-4.963,1.157-5.454,3.679a4.8,4.8,0,0,0,3.679,5.454A4.534,4.534,0,0,0,454.617,1258.838Z" transform="translate(-317.59 -1221.753)" fill="#f78248"/>
          <path id="Path_892819" data-name="Path 892819" d="M458.188,1264.078a2.712,2.712,0,0,0-2.021-3,2.428,2.428,0,0,0-3,2.021,2.676,2.676,0,0,0,2.022,3A2.457,2.457,0,0,0,458.188,1264.078Z" transform="translate(-323.218 -1227.393)" fill="#ea7147"/>
          <path id="Path_892820" data-name="Path 892820" d="M483.161,1244.887a4.825,4.825,0,0,0-3.679-5.453,4.652,4.652,0,0,0-5.454,3.679,4.547,4.547,0,0,0,3.679,5.453C480.255,1248.9,482.964,1246.924,483.161,1244.887Z" transform="translate(-338.386 -1203.933)" fill="#ea7147"/>
          <path id="Path_892821" data-name="Path 892821" d="M486.259,1249.267c.671-1.416-.705-3.027-2.243-3.325a2.836,2.836,0,1,0-1.082,5.569C484.471,1251.81,485.656,1250.54,486.259,1249.267Z" transform="translate(-343.266 -1208.659)" fill="#f78248"/>
          <path id="Path_892822" data-name="Path 892822" d="M513.051,1222.1c1.091-2.824-1.157-4.964-3.679-5.454s-4.666,1.2-5.453,3.679c-.777,2.449,1.2,4.714,4,5.259C510.44,1226.073,512.125,1224.5,513.051,1222.1Z" transform="translate(-360.106 -1174.819)" fill="#ffc6b0"/>
          <path id="Path_892823" data-name="Path 892823" d="M517.225,1227.366c.245-1.258-.675-2.176-1.835-2.721-1.19-.559-2.374.053-2.72,1.835a2.194,2.194,0,0,0,1.835,2.72A2.32,2.32,0,0,0,517.225,1227.366Z" transform="translate(-366.568 -1180.53)" fill="#f78248"/>
          <path id="Path_892824" data-name="Path 892824" d="M543.71,1210.87c.829-2.146-.879-3.773-2.8-4.145a3.68,3.68,0,0,0-4.145,2.8c-.59,1.861.909,3.583,3.04,4C541.725,1213.891,543.006,1212.692,543.71,1210.87Z" transform="translate(-384.072 -1160.046)" fill="#ffc6b0"/>
          <path id="Path_892825" data-name="Path 892825" d="M546.882,1214.873c.186-.956-.513-1.653-1.395-2.068-.9-.425-1.8.041-2.068,1.395a1.667,1.667,0,0,0,1.395,2.068A1.764,1.764,0,0,0,546.882,1214.873Z" transform="translate(-388.983 -1164.387)" fill="#f78248"/>
          <path id="Path_892826" data-name="Path 892826" d="M471.611,776.511c2.851,1.019,4.933-1.283,5.359-3.816s-1.315-4.634-3.817-5.358c-2.468-.714-4.682,1.316-5.154,4.132C467.572,774,469.192,775.647,471.611,776.511Z" transform="translate(-334.007 -603.97)" fill="#ffc6b0"/>
          <path id="Path_892827" data-name="Path 892827" d="M477.72,781.081c1.264.212,2.158-.73,2.673-1.9.529-1.2-.114-2.372-1.9-2.673a2.194,2.194,0,0,0-2.673,1.9A2.32,2.32,0,0,0,477.72,781.081Z" transform="translate(-339.729 -610.839)" fill="#f78248"/>
          <path id="Path_892828" data-name="Path 892828" d="M381.952,747.27a3.909,3.909,0,0,0,5.1-1.529,3.768,3.768,0,0,0-1.529-5.1,3.683,3.683,0,0,0-5.1,1.529C379.549,744.053,380.424,746.626,381.952,747.27Z" transform="translate(-269.991 -567.522)" fill="#ea7147"/>
          <path id="Path_892829" data-name="Path 892829" d="M386.448,749.2c.933.86,2.511.185,3.113-.932a2.3,2.3,0,1,0-4.045-2.18C384.914,747.2,385.61,748.423,386.448,749.2Z" transform="translate(-273.79 -570.744)" fill="#f78248"/>
          <path id="Path_892830" data-name="Path 892830" d="M409.73,750.33c2.371,1.883,5.083.374,6.3-1.887s.248-4.811-1.887-6.3c-2.106-1.471-4.856-.262-6.211,2.251C406.715,746.653,407.718,748.732,409.73,750.33Z" transform="translate(-289.904 -571.423)" fill="#ffc6b0"/>
          <path id="Path_892831" data-name="Path 892831" d="M416.778,755.709c1.128.608,2.278,0,3.144-.941.889-.97.656-2.282-.942-3.143a2.194,2.194,0,0,0-3.144.941A2.32,2.32,0,0,0,416.778,755.709Z" transform="translate(-295.845 -578.855)" fill="#f78248"/>
          <path id="Path_892832" data-name="Path 892832" d="M123.967,1032.929s-1.236-15.339,6.215-22.3,13.836-19.154,14.584-28.474.747-10.355,5.258-15.938c0,0-6.561-.775-10.077,4.52s-15.774,24.149-15.774,24.149l-3.454,20.558Z" transform="translate(-81.009 -914.135)" fill="#ffc6b0"/>
          <path id="Path_892833" data-name="Path 892833" d="M162.34,1090.2c-1.5-.858-3.852.439-5.261,2.9s-1.34,5.146.156,6,3.852-.439,5.262-2.9S163.836,1091.062,162.34,1090.2Z" transform="translate(-106.765 -1014.157)" fill="#ffc6b0"/>
          <path id="Path_892834" data-name="Path 892834" d="M207.493,1078.408a1.047,1.047,0,1,0-.859-1.206A1.047,1.047,0,0,0,207.493,1078.408Z" transform="translate(-143.601 -989.517)" fill="#ea7147"/>
          <path id="Path_892835" data-name="Path 892835" d="M225.021,1182.712a1.047,1.047,0,1,0-.859-1.206A1.047,1.047,0,0,0,225.021,1182.712Z" transform="translate(-156.373 -1122.123)" fill="#ea7147"/>
          <path id="Path_892836" data-name="Path 892836" d="M178.24,904.324a1.047,1.047,0,1,0-.859-1.206A1.047,1.047,0,0,0,178.24,904.324Z" transform="translate(-122.285 -768.197)" fill="#ea7147"/>
          <path id="Path_892837" data-name="Path 892837" d="M149.022,978.5a1.047,1.047,0,1,0-.859-1.206A1.047,1.047,0,0,0,149.022,978.5Z" transform="translate(-100.996 -862.496)" fill="#ea7147"/>
          <path id="Path_892838" data-name="Path 892838" d="M300.01,1223.6a1.047,1.047,0,1,0-.859-1.206A1.047,1.047,0,0,0,300.01,1223.6Z" transform="translate(-211.014 -1174.109)" fill="#ea7147"/>
          <path id="Path_892839" data-name="Path 892839" d="M236.23,844.064a1.047,1.047,0,1,0-.859-1.206A1.047,1.047,0,0,0,236.23,844.064Z" transform="translate(-164.54 -691.585)" fill="#ea7147"/>
          <path id="Path_892840" data-name="Path 892840" d="M381.774,1223.33a1.047,1.047,0,1,0-.859-1.206A1.047,1.047,0,0,0,381.774,1223.33Z" transform="translate(-270.592 -1173.763)" fill="#ea7147"/>
          <path id="Path_892841" data-name="Path 892841" d="M312.43,810.682a1.047,1.047,0,1,0-.859-1.206A1.047,1.047,0,0,0,312.43,810.682Z" transform="translate(-220.064 -649.145)" fill="#ea7147"/>
          <path id="Path_892842" data-name="Path 892842" d="M461,1196.695a1.047,1.047,0,1,0-.859-1.206A1.048,1.048,0,0,0,461,1196.695Z" transform="translate(-328.323 -1139.9)" fill="#ea7147"/>
          <path id="Path_892843" data-name="Path 892843" d="M395.8,808.708a1.047,1.047,0,1,0-.859-1.206A1.047,1.047,0,0,0,395.8,808.708Z" transform="translate(-280.816 -646.636)" fill="#ea7147"/>
          <path id="Path_892844" data-name="Path 892844" d="M524.332,1146.145a1.047,1.047,0,1,0-.859-1.206A1.047,1.047,0,0,0,524.332,1146.145Z" transform="translate(-374.468 -1075.634)" fill="#ea7147"/>
          <path id="Path_892845" data-name="Path 892845" d="M472.3,836.511a1.047,1.047,0,1,0-.859-1.206A1.047,1.047,0,0,0,472.3,836.511Z" transform="translate(-336.554 -681.983)" fill="#ea7147"/>
          <path id="Path_892846" data-name="Path 892846" d="M558.671,1084.146a1.047,1.047,0,1,0-.859-1.206A1.047,1.047,0,0,0,558.671,1084.146Z" transform="translate(-399.489 -996.812)" fill="#ea7147"/>
          <path id="Path_892847" data-name="Path 892847" d="M524.525,880.952a1.047,1.047,0,1,0-.859-1.206A1.047,1.047,0,0,0,524.525,880.952Z" transform="translate(-374.608 -738.482)" fill="#ea7147"/>
          <path id="Path_892848" data-name="Path 892848" d="M569.269,986.277a1.047,1.047,0,1,0-.859-1.206A1.047,1.047,0,0,0,569.269,986.277Z" transform="translate(-407.211 -872.387)" fill="#ea7147"/>
        </g>
        <g id="Group_1109277" data-name="Group 1109277" transform="translate(179.749 105.871)">
          <g id="Group_1109275" data-name="Group 1109275" transform="translate(15.228 0)">
            <path id="Path_892849" data-name="Path 892849" d="M727.124,1208.848a21.811,21.811,0,0,0-5.171,7.049c-.246.471-.479.916-.723,1.357-1.741,3.148-6.7,7.717-6.752,7.763l.455.48c.209-.192,5.143-4.736,6.965-8.032.25-.452.485-.9.733-1.377,1.546-2.958,3.145-6.019,7.99-8.961a20.082,20.082,0,0,1,5.339-2.218c2.814-.822,5.472-1.6,9.957-6.229h0a18.264,18.264,0,0,1-9.81,5.785,20.027,20.027,0,0,0-5.769,2.051A22.94,22.94,0,0,0,727.124,1208.848Z" transform="translate(-714.478 -1198.681)" fill="#aec3ff"/>
          </g>
          <g id="Group_1109276" data-name="Group 1109276" transform="translate(0 24.562)">
            <path id="Path_892850" data-name="Path 892850" d="M662.282,1145.932c-2.572,2.52-5.155,7.969-3.285,9.736s7.486-.816,10.058-3.336,2.449-5.317.579-7.084S664.854,1143.413,662.282,1145.932Z" transform="translate(-658.358 -1139.153)" fill="#aec3ff"/>
            <path id="Path_892851" data-name="Path 892851" d="M698.622,1176.672l-1.466-1.678-7.3,7.152,1.618,1.529Z" transform="translate(-681.308 -1174.994)" fill="#aec3ff"/>
            <path id="Path_892852" data-name="Path 892852" d="M670.5,1154.779c-1.631,1.6-3.27,5.054-2.084,6.175s4.748-.517,6.379-2.116,1.554-3.372.367-4.493S672.133,1153.181,670.5,1154.779Z" transform="translate(-665.394 -1146.82)" fill="#aec3ff"/>
          </g>
        </g>
        <g id="Group_1109280" data-name="Group 1109280" transform="translate(191.696 72.347)">
          <g id="Group_1109278" data-name="Group 1109278" transform="translate(9.175)">
            <path id="Path_892853" data-name="Path 892853" d="M742.512,1331.877a17.531,17.531,0,0,0-2.488,6.572c-.089.417-.174.812-.268,1.206-.671,2.812-3.529,7.418-3.558,7.464l.456.274c.12-.193,2.963-4.774,3.665-7.719.1-.4.182-.8.272-1.225a15.707,15.707,0,0,1,4.259-8.658,16.156,16.156,0,0,1,3.657-2.866c2-1.242,3.894-2.415,6.37-6.966h0a14.679,14.679,0,0,1-6.351,6.591,16.1,16.1,0,0,0-4.027,2.83A18.488,18.488,0,0,0,742.512,1331.877Z" transform="translate(-736.198 -1319.959)" fill="#aec3ff"/>
          </g>
          <g id="Group_1109279" data-name="Group 1109279" transform="translate(0 25.653)">
            <path id="Path_892854" data-name="Path 892854" d="M703.885,1269.233c-1.449,2.5-2.277,7.28-.449,8.246s5.621-2.243,7.071-4.748.752-4.645-1.076-5.611S705.334,1266.728,703.885,1269.233Z" transform="translate(-702.386 -1261.417)" fill="#aec3ff"/>
            <path id="Path_892855" data-name="Path 892855" d="M727.007,1298.223l-1.5-.984-4.115,7.11,1.582.836Z" transform="translate(-716.238 -1297.24)" fill="#aec3ff"/>
            <path id="Path_892856" data-name="Path 892856" d="M709.673,1277.226c-.919,1.589-1.444,4.617-.285,5.23s3.565-1.423,4.484-3.011.477-2.946-.683-3.559S710.592,1275.636,709.673,1277.226Z" transform="translate(-707.003 -1268.751)" fill="#aec3ff"/>
          </g>
        </g>
        <g id="Group_1109283" data-name="Group 1109283" transform="translate(214.995 285.77)">
          <g id="Group_1109281" data-name="Group 1109281" transform="translate(10.767 16.966)">
            <path id="Path_892857" data-name="Path 892857" d="M835.34,471.557a20.577,20.577,0,0,1-2.92-7.712c-.1-.49-.2-.953-.314-1.416-.787-3.3-4.142-8.705-4.176-8.76l.535-.322c.142.227,3.477,5.6,4.3,9.058.113.474.213.942.319,1.437a18.431,18.431,0,0,0,5,10.16,18.938,18.938,0,0,0,4.292,3.364c2.349,1.458,4.569,2.834,7.475,8.174h0a17.227,17.227,0,0,0-7.453-7.734,18.882,18.882,0,0,1-4.725-3.32A21.662,21.662,0,0,1,835.34,471.557Z" transform="translate(-827.931 -453.349)" fill="#aec3ff"/>
          </g>
          <g id="Group_1109282" data-name="Group 1109282">
            <path id="Path_892858" data-name="Path 892858" d="M790.011,596.928c-1.7-2.94-2.673-8.543-.527-9.677s6.6,2.632,8.3,5.571.883,5.45-1.263,6.584S791.712,599.867,790.011,596.928Z" transform="translate(-788.252 -587.044)" fill="#aec3ff"/>
            <path id="Path_892859" data-name="Path 892859" d="M817.145,572.461l-1.756,1.154-4.828-8.343,1.856-.981Z" transform="translate(-804.508 -554.56)" fill="#aec3ff"/>
            <path id="Path_892860" data-name="Path 892860" d="M796.8,600.2c-1.079-1.864-1.7-5.419-.334-6.138s4.183,1.669,5.263,3.533.56,3.457-.8,4.176S797.882,602.065,796.8,600.2Z" transform="translate(-793.67 -591.089)" fill="#aec3ff"/>
          </g>
        </g>
        <g id="Group_1109286" data-name="Group 1109286" transform="translate(208.948 233.887)">
          <g id="Group_1109284" data-name="Group 1109284" transform="translate(14.487 22.708)">
            <path id="Path_892861" data-name="Path 892861" d="M829.355,607.685a27.579,27.579,0,0,1-3.943-10.326c-.143-.657-.277-1.276-.427-1.9-1.067-4.421-5.586-11.653-5.631-11.726l.716-.433c.191.3,4.683,7.5,5.8,12.126.153.634.289,1.261.433,1.925.893,4.125,1.818,8.391,6.739,13.6a25.412,25.412,0,0,0,5.766,4.492c3.155,1.945,6.136,3.782,10.053,10.929h0c-3.743-6.828-7.017-8.487-10.021-10.339-1.862-1.147-4.108-2.062-6.347-4.433A29.089,29.089,0,0,1,829.355,607.685Z" transform="translate(-819.354 -583.303)" fill="#aec3ff"/>
          </g>
          <g id="Group_1109285" data-name="Group 1109285" transform="translate(0 0)">
            <path id="Path_892862" data-name="Path 892862" d="M768.348,775.395c-2.292-3.934-3.616-11.442-.744-12.97s8.853,3.5,11.144,7.436,1.2,7.3-1.668,8.831S770.64,779.329,768.348,775.395Z" transform="translate(-765.965 -762.144)" fill="#aec3ff"/>
            <path id="Path_892863" data-name="Path 892863" d="M804.829,742.645,802.48,744.2l-6.5-11.166,2.485-1.322Z" transform="translate(-787.832 -718.688)" fill="#aec3ff"/>
            <path id="Path_892864" data-name="Path 892864" d="M777.467,779.779c-1.454-2.5-2.293-7.257-.472-8.226s5.615,2.221,7.068,4.716.764,4.632-1.058,5.6S778.92,782.274,777.467,779.779Z" transform="translate(-773.245 -767.569)" fill="#aec3ff"/>
          </g>
        </g>
        <g id="Group_1109289" data-name="Group 1109289" transform="translate(172.978 232.046)">
          <g id="Group_1109287" data-name="Group 1109287" transform="translate(18.541 29.903)">
            <path id="Path_892865" data-name="Path 892865" d="M712.859,380.257a21.279,21.279,0,0,0,2.637,6.612,16.378,16.378,0,0,0,11.049,7.748c3.924.656,10.282,1.868,14.647,5.576,4.762,4.045,7.66,10.392,6.967,18.44h0c.737-8.551-1.5-15.1-6.646-19.477-4.644-3.945-10.627-5.312-14.724-6a14.9,14.9,0,0,1-10.036-7.068c-3.6-5.818-4.037-14.087-1.227-23.284,1.684-5.51,2.831-14.556-1.262-26.359A75.093,75.093,0,0,0,709,324.381l-5.937-11.089-1.328.649,4.845,10.991.038.89a68.446,68.446,0,0,1,5.447,11.933c2.179,6.3,4.32,14.984,1.391,24.572A34.923,34.923,0,0,0,712.859,380.257Z" transform="translate(-701.735 -313.292)" fill="#aec3ff"/>
          </g>
          <g id="Group_1109288" data-name="Group 1109288">
            <path id="Path_892866" data-name="Path 892866" d="M636.792,726.532c-3.547-6.7-5.243-19.279-.361-21.627s14.491,6.424,18.038,13.123,1.511,12.231-3.371,14.579S640.339,733.231,636.792,726.532Z" transform="translate(-633.404 -704.515)" fill="#95b3ef"/>
            <path id="Path_892867" data-name="Path 892867" d="M695.014,670.969,691,673.4l-10.068-19.015,4.223-2.031Z" transform="translate(-668.036 -630.155)" fill="#95b3ef"/>
            <path id="Path_892868" data-name="Path 892868" d="M670.644,732.139c-1.188-2.244-1.756-6.458-.121-7.245s4.854,2.152,6.042,4.4.506,4.1-1.129,4.884S671.832,734.383,670.644,732.139Z" transform="translate(-659.712 -710.915)" fill="#afcdfb"/>
          </g>
        </g>
        <g id="Group_1109292" data-name="Group 1109292" transform="translate(156.321 50.102)">
          <g id="Group_1109290" data-name="Group 1109290" transform="translate(8.699 0)">
            <path id="Path_892869" data-name="Path 892869" d="M608.036,1330.15a10.216,10.216,0,0,1,1.155-3.272,8.212,8.212,0,0,1,5.31-4.049c1.936-.424,5.068-1.182,7.15-3.1a10.1,10.1,0,0,0,3.027-9.115h0c.569,4.119-.387,7.352-2.843,9.608a15.4,15.4,0,0,1-7.178,3.3,7.474,7.474,0,0,0-4.822,3.692c-1.653,2.914-1.673,6.929-.059,11.3a19.883,19.883,0,0,1,0,12.795,36.172,36.172,0,0,1-2.331,5.983l-2.689,5.529-.676-.278,2.148-5.451,0-.432a32.973,32.973,0,0,0,2.425-5.924,18.4,18.4,0,0,0,.109-11.932A16.488,16.488,0,0,1,608.036,1330.15Z" transform="translate(-604.077 -1310.619)" fill="#aec3ff"/>
          </g>
          <g id="Group_1109291" data-name="Group 1109291" transform="translate(0 45.672)">
            <path id="Path_892870" data-name="Path 892870" d="M573.385,1259.462c-1.6,3.339-2.15,9.474.333,10.479s7.052-3.5,8.657-6.84.461-5.961-2.021-6.966S574.99,1256.123,573.385,1259.462Z" transform="translate(-572.017 -1248.658)" fill="#8fb2ff"/>
            <path id="Path_892871" data-name="Path 892871" d="M600.895,1297.66l-2.053-1.066-4.555,9.477,2.148.869Z" transform="translate(-588.244 -1296.594)" fill="#8fb2ff"/>
            <path id="Path_892872" data-name="Path 892872" d="M589.719,1282.372c-.538,1.118-.72,3.174.111,3.51s2.362-1.173,2.9-2.291a1.561,1.561,0,0,0-.677-2.333A1.807,1.807,0,0,0,589.719,1282.372Z" transform="translate(-584.582 -1271.389)" fill="#afcdfb"/>
          </g>
        </g>
        <g id="Group_1109302" data-name="Group 1109302" transform="translate(9.814 22.953)">
          <g id="Group_1109295" data-name="Group 1109295" transform="translate(0 33.091)">
            <g id="Group_1109293" data-name="Group 1109293" transform="translate(0 0)">
              <path id="Path_892873" data-name="Path 892873" d="M50.479,1381.972a22.441,22.441,0,0,1,4.694,7.676c.212.5.412.98.624,1.454,1.513,3.378,6.206,8.493,6.253,8.544l-.508.453c-.2-.215-4.865-5.3-6.449-8.839-.217-.485-.419-.967-.633-1.476-1.33-3.168-2.7-6.444-7.419-9.88a20.682,20.682,0,0,0-5.284-2.736c-2.815-1.087-5.474-2.113-9.673-7.248h0c4.012,4.906,6.879,5.747,9.559,6.781a20.619,20.619,0,0,1,5.739,2.6A23.64,23.64,0,0,1,50.479,1381.972Z" transform="translate(-32.084 -1369.92)" fill="#aec3ff"/>
            </g>
            <g id="Group_1109294" data-name="Group 1109294" transform="translate(27.835 27.854)">
              <path id="Path_892874" data-name="Path 892874" d="M159,1311.926c2.42,2.807,4.6,8.618,2.527,10.269s-7.606-1.484-10.026-4.291-2.052-5.665.019-7.316S156.583,1309.12,159,1311.926Z" transform="translate(-145.713 -1303.943)" fill="#aec3ff"/>
              <path id="Path_892875" data-name="Path 892875" d="M134.667,1345.464l1.649-1.594,6.869,7.966-1.791,1.428Z" transform="translate(-134.667 -1343.87)" fill="#aec3ff"/>
              <path id="Path_892876" data-name="Path 892876" d="M163.163,1321.432c1.535,1.78,2.916,5.466,1.6,6.513s-4.824-.941-6.359-2.721-1.3-3.592.012-4.64S161.629,1319.652,163.163,1321.432Z" transform="translate(-151.19 -1312.341)" fill="#aec3ff"/>
            </g>
          </g>
          <g id="Group_1109298" data-name="Group 1109298" transform="translate(22.373 1.248)">
            <g id="Group_1109296" data-name="Group 1109296">
              <path id="Path_892877" data-name="Path 892877" d="M122.455,1513.41a14.991,14.991,0,0,1,.764,5.961c-.009.365-.017.71-.017,1.057a30.016,30.016,0,0,0,1.477,6.917l-.434.137a30.1,30.1,0,0,1-1.515-7.15c0-.355.008-.7.017-1.073a13.433,13.433,0,0,0-1.822-8.05,13.816,13.816,0,0,0-2.473-3.111c-1.419-1.431-2.759-2.784-3.915-7.061h0a12.556,12.556,0,0,0,3.974,6.746,13.765,13.765,0,0,1,2.787,3.154A15.8,15.8,0,0,1,122.455,1513.41Z" transform="translate(-114.536 -1501.037)" fill="#aec3ff"/>
            </g>
            <g id="Group_1109297" data-name="Group 1109297" transform="translate(8.841 25.035)">
              <path id="Path_892878" data-name="Path 892878" d="M153.551,1453.788c.708,2.372.448,6.51-1.266,6.95s-4.231-2.983-4.938-5.355.3-4.013,2.01-4.453S152.843,1451.416,153.551,1453.788Z" transform="translate(-147.118 -1445.74)" fill="#aec3ff"/>
              <path id="Path_892879" data-name="Path 892879" d="M147.409,1480.54l1.44-.521,2.01,6.733-1.482.381Z" transform="translate(-147.33 -1480.019)" fill="#aec3ff"/>
              <path id="Path_892880" data-name="Path 892880" d="M155.8,1460.962c.449,1.5.284,4.129-.8,4.408s-2.683-1.892-3.132-3.4.188-2.545,1.275-2.825A2.213,2.213,0,0,1,155.8,1460.962Z" transform="translate(-150.469 -1452.6)" fill="#aec3ff"/>
            </g>
          </g>
          <g id="Group_1109301" data-name="Group 1109301" transform="translate(53.744 0)">
            <g id="Group_1109299" data-name="Group 1109299" transform="translate(6.181)">
              <path id="Path_892881" data-name="Path 892881" d="M259.047,1457.369a24.445,24.445,0,0,1-2.584,9.449c-.242.544-.47,1.058-.688,1.58-1.55,3.72-2.1,11.258-2.109,11.333l-.739-.065c.023-.317.574-7.813,2.2-11.709.223-.534.454-1.053.7-1.6,1.52-3.418,3.092-6.953,2.3-13.255a22.509,22.509,0,0,0-1.773-6.23c-1.238-3.042-2.409-5.916-1.47-13.078h0c-.9,6.843.576,9.743,1.756,12.639.731,1.795,1.858,3.625,2.219,6.492A25.774,25.774,0,0,1,259.047,1457.369Z" transform="translate(-252.927 -1433.791)" fill="#aec3ff"/>
            </g>
            <g id="Group_1109300" data-name="Group 1109300" transform="translate(0 44.042)">
              <path id="Path_892882" data-name="Path 892882" d="M240.55,1355.669c-.42,4.013-3.4,10.075-6.256,9.665s-4.5-7.138-4.079-11.151,2.961-5.854,5.815-5.443S240.969,1351.656,240.55,1355.669Z" transform="translate(-230.15 -1340.363)" fill="#aec3ff"/>
              <path id="Path_892883" data-name="Path 892883" d="M247.473,1398.372l2.494.118-1.192,11.39-2.469-.355Z" transform="translate(-241.922 -1398.372)" fill="#aec3ff"/>
            </g>
          </g>
        </g>
      </g>
      <g id="Group_1109394" data-name="Group 1109394" transform="translate(-7249.191 4772.324)">
        <path id="Path_892692" data-name="Path 892692" d="M0,0V25.4" transform="translate(217.325 69.371) rotate(180)" fill="none" stroke="#445866" stroke-width="3"/>
        <path id="Path_892701" data-name="Path 892701" d="M0,0V19.88" transform="translate(217.325 137.001) rotate(180)" fill="none" stroke="#445866" stroke-width="3"/>
        <path id="Path_892702" data-name="Path 892702" d="M0,0V19.88" transform="translate(339.372 137.001) rotate(180)" fill="none" stroke="#445866" stroke-width="3"/>
        <path id="Path_892706" data-name="Path 892706" d="M0,0V19.571" transform="translate(339.372 205.225) rotate(180)" fill="none" stroke="#445866" stroke-width="3"/>
        <path id="Path_892707" data-name="Path 892707" d="M0,0V20.055" transform="translate(339.372 274.334) rotate(180)" fill="none" stroke="#445866" stroke-width="3"/>
        <path id="Path_892708" data-name="Path 892708" d="M0,0V20.458" transform="translate(339.372 343.444) rotate(180)" fill="none" stroke="#445866" stroke-width="3"/>
        <path id="Path_892704" data-name="Path 892704" d="M0,0V48.657" transform="translate(423.096 95.109) rotate(90)" fill="none" stroke="#445866" stroke-width="3"/>
        <path id="Path_892703" data-name="Path 892703" d="M0,0V19.88" transform="translate(469.827 136.597) rotate(180)" fill="none" stroke="#445866" stroke-width="3"/>
        <path id="Path_892705" data-name="Path 892705" d="M0,0V19.571" transform="translate(469.827 204.821) rotate(180)" fill="none" stroke="#445866" stroke-width="3"/>
        <path id="Path_892700" data-name="Path 892700" d="M0,0V25.4" transform="translate(336.161 69.371) rotate(180)" fill="none" stroke="#445866" stroke-width="3"/>
        <rect id="Rectangle_404194" data-name="Rectangle 404194" width="119.944" height="51.552" rx="14" transform="translate(154.155 69.774)" fill="#9bffc1"/>
        <rect id="Rectangle_404204" data-name="Rectangle 404204" width="105.853" height="51.552" rx="14" transform="translate(284.046 69.774)" fill="#ffc9f2"/>
        <rect id="Rectangle_404207" data-name="Rectangle 404207" width="108.766" height="51.552" rx="14" transform="translate(405.553 69.37)" fill="#ffc9f2"/>
        <rect id="Rectangle_404203" data-name="Rectangle 404203" width="119.944" height="51.552" rx="14" transform="translate(154.155 137.001)" fill="#9bffc1"/>
        <rect id="Rectangle_404205" data-name="Rectangle 404205" width="105.853" height="51.552" rx="14" transform="translate(284.046 137.001)" fill="#c5ffee"/>
        <rect id="Rectangle_404209" data-name="Rectangle 404209" width="105.853" height="51.552" rx="14" transform="translate(284.046 205.628)" fill="#c5ffee"/>
        <rect id="Rectangle_404210" data-name="Rectangle 404210" width="105.853" height="51.552" rx="14" transform="translate(284.046 274.334)" fill="#c5ffee"/>
        <rect id="Rectangle_404211" data-name="Rectangle 404211" width="105.853" height="51.552" rx="14" transform="translate(284.046 343.444)" fill="#c5ffee"/>
        <rect id="Rectangle_404206" data-name="Rectangle 404206" width="108.766" height="51.552" rx="14" transform="translate(405.553 136.597)" fill="#ffc9f2"/>
        <rect id="Rectangle_404208" data-name="Rectangle 404208" width="108.766" height="51.552" rx="14" transform="translate(405.553 205.224)" fill="#ffc9f2"/>
        <path id="Path_896019" data-name="Path 896019" d="M31.339,3.625l3.281,8.719,3.273-8.719h2.555V15H38.479V11.25l.2-5.016L35.315,15H33.9L30.549,6.242l.2,5.008V15H28.776V3.625ZM47.651,15a2.93,2.93,0,0,1-.219-.789,3.193,3.193,0,0,1-4.3.219,2.325,2.325,0,0,1-.8-1.8,2.4,2.4,0,0,1,1-2.074,4.865,4.865,0,0,1,2.871-.723H47.37V9.281A1.481,1.481,0,0,0,47,8.23a1.456,1.456,0,0,0-1.117-.395,1.672,1.672,0,0,0-1.062.324,1,1,0,0,0-.414.824h-1.9a2.107,2.107,0,0,1,.461-1.3,3.071,3.071,0,0,1,1.254-.949,4.4,4.4,0,0,1,1.77-.344,3.547,3.547,0,0,1,2.367.746,2.661,2.661,0,0,1,.906,2.1v3.813a4.321,4.321,0,0,0,.32,1.82V15Zm-2.086-1.367a2.159,2.159,0,0,0,1.059-.273,1.827,1.827,0,0,0,.746-.734V11.031H46.346a2.8,2.8,0,0,0-1.586.367,1.189,1.189,0,0,0-.531,1.039,1.109,1.109,0,0,0,.363.871A1.407,1.407,0,0,0,45.565,13.633Zm9.164.008a1.716,1.716,0,0,0,1.18-.414,1.415,1.415,0,0,0,.5-1.023H58.2a2.789,2.789,0,0,1-.492,1.473,3.228,3.228,0,0,1-1.25,1.082,3.725,3.725,0,0,1-1.7.4,3.6,3.6,0,0,1-2.812-1.148A4.555,4.555,0,0,1,50.9,10.836v-.2a4.479,4.479,0,0,1,1.031-3.09,3.571,3.571,0,0,1,2.813-1.16A3.473,3.473,0,0,1,57.2,7.27a3.148,3.148,0,0,1,1,2.309H56.409a1.738,1.738,0,0,0-.5-1.2,1.6,1.6,0,0,0-1.184-.469,1.671,1.671,0,0,0-1.422.668,3.408,3.408,0,0,0-.508,2.027v.3a3.465,3.465,0,0,0,.5,2.051A1.669,1.669,0,0,0,54.729,13.641ZM61.5,7.469a2.971,2.971,0,0,1,2.352-1.078q2.7,0,2.742,3.086V15H64.7V9.547a1.669,1.669,0,0,0-.379-1.238,1.549,1.549,0,0,0-1.113-.363,1.829,1.829,0,0,0-1.7,1.016V15H59.6V3h1.9ZM68.159,10.7a4.984,4.984,0,0,1,.492-2.238,3.6,3.6,0,0,1,1.383-1.531,3.9,3.9,0,0,1,2.047-.535,3.692,3.692,0,0,1,2.777,1.1,4.333,4.333,0,0,1,1.152,2.922l.008.445a5.029,5.029,0,0,1-.48,2.234,3.551,3.551,0,0,1-1.375,1.523,3.925,3.925,0,0,1-2.066.539,3.667,3.667,0,0,1-2.863-1.191,4.563,4.563,0,0,1-1.074-3.176Zm1.9.164A3.406,3.406,0,0,0,70.6,12.9a1.752,1.752,0,0,0,1.5.738,1.733,1.733,0,0,0,1.5-.75,3.762,3.762,0,0,0,.535-2.2,3.362,3.362,0,0,0-.551-2.031A1.856,1.856,0,0,0,70.6,8.652,3.691,3.691,0,0,0,70.057,10.859Zm12.3,1.844a.861.861,0,0,0-.418-.773,4.445,4.445,0,0,0-1.387-.469,7.129,7.129,0,0,1-1.617-.516,2.158,2.158,0,0,1-1.422-1.992,2.25,2.25,0,0,1,.922-1.828,3.644,3.644,0,0,1,2.344-.734,3.792,3.792,0,0,1,2.449.75,2.38,2.38,0,0,1,.934,1.945h-1.9a1.17,1.17,0,0,0-.406-.91,1.557,1.557,0,0,0-1.078-.363,1.682,1.682,0,0,0-1.02.289.911.911,0,0,0-.395.773.769.769,0,0,0,.367.68,5.049,5.049,0,0,0,1.484.488,7.027,7.027,0,0,1,1.754.586,2.484,2.484,0,0,1,.945.816,2.082,2.082,0,0,1,.309,1.156,2.2,2.2,0,0,1-.945,1.848,4.031,4.031,0,0,1-2.477.707,4.371,4.371,0,0,1-1.852-.375A3.047,3.047,0,0,1,77.69,13.75a2.441,2.441,0,0,1-.453-1.414h1.844a1.338,1.338,0,0,0,.508,1.035,1.973,1.973,0,0,0,1.242.363,1.92,1.92,0,0,0,1.141-.285A.883.883,0,0,0,82.362,12.7Z" transform="translate(161.459 87.218)" fill="#12263f"/>
        <path id="Path_896022" data-name="Path 896022" d="M32.249,12.352H27.842L26.921,15H24.866l4.3-11.375h1.773L35.241,15H33.178ZM28.4,10.758h3.3L30.046,6.039Zm9.359-4.211.055.883a3.042,3.042,0,0,1,2.438-1.039,2.337,2.337,0,0,1,2.32,1.3,3,3,0,0,1,2.594-1.3,2.636,2.636,0,0,1,2.082.773,3.405,3.405,0,0,1,.7,2.281V15h-1.9V9.5a1.681,1.681,0,0,0-.352-1.18,1.539,1.539,0,0,0-1.164-.375,1.581,1.581,0,0,0-1.059.348,1.833,1.833,0,0,0-.574.91L42.9,15h-1.9V9.438a1.354,1.354,0,0,0-1.523-1.492,1.671,1.671,0,0,0-1.617.93V15h-1.9V6.547ZM51.913,15h-1.9V6.547h1.9ZM49.9,4.352a1.008,1.008,0,0,1,.277-.727,1.048,1.048,0,0,1,.793-.289,1.061,1.061,0,0,1,.8.289,1,1,0,0,1,.281.727.977.977,0,0,1-.281.715,1.069,1.069,0,0,1-.8.285,1.056,1.056,0,0,1-.793-.285A.984.984,0,0,1,49.9,4.352Zm6.461.141V6.547H57.85V7.953H56.358v4.719a1.039,1.039,0,0,0,.191.7.888.888,0,0,0,.684.215,2.924,2.924,0,0,0,.664-.078v1.469a4.676,4.676,0,0,1-1.25.18q-2.187,0-2.187-2.414V7.953H53.069V6.547H54.46V4.492Zm2.352,6.2A4.984,4.984,0,0,1,59.2,8.457a3.6,3.6,0,0,1,1.383-1.531,3.9,3.9,0,0,1,2.047-.535,3.692,3.692,0,0,1,2.777,1.1,4.333,4.333,0,0,1,1.152,2.922l.008.445a5.029,5.029,0,0,1-.48,2.234,3.551,3.551,0,0,1-1.375,1.523,3.925,3.925,0,0,1-2.066.539,3.667,3.667,0,0,1-2.863-1.191,4.563,4.563,0,0,1-1.074-3.176Zm1.9.164a3.406,3.406,0,0,0,.539,2.043,1.752,1.752,0,0,0,1.5.738,1.733,1.733,0,0,0,1.5-.75,3.762,3.762,0,0,0,.535-2.2,3.362,3.362,0,0,0-.551-2.031,1.856,1.856,0,0,0-2.973-.012A3.691,3.691,0,0,0,60.608,10.859Zm12.3,1.844a.861.861,0,0,0-.418-.773,4.445,4.445,0,0,0-1.387-.469,7.129,7.129,0,0,1-1.617-.516,2.158,2.158,0,0,1-1.422-1.992,2.25,2.25,0,0,1,.922-1.828,3.644,3.644,0,0,1,2.344-.734,3.792,3.792,0,0,1,2.449.75,2.38,2.38,0,0,1,.934,1.945h-1.9a1.17,1.17,0,0,0-.406-.91,1.557,1.557,0,0,0-1.078-.363,1.682,1.682,0,0,0-1.02.289.911.911,0,0,0-.395.773.769.769,0,0,0,.367.68,5.049,5.049,0,0,0,1.484.488,7.027,7.027,0,0,1,1.754.586,2.484,2.484,0,0,1,.945.816A2.082,2.082,0,0,1,74.78,12.6a2.2,2.2,0,0,1-.945,1.848,4.031,4.031,0,0,1-2.477.707,4.371,4.371,0,0,1-1.852-.375,3.047,3.047,0,0,1-1.266-1.031,2.441,2.441,0,0,1-.453-1.414h1.844a1.338,1.338,0,0,0,.508,1.035,1.973,1.973,0,0,0,1.242.363,1.92,1.92,0,0,0,1.141-.285A.883.883,0,0,0,72.913,12.7ZM78.452,15h-1.9V6.547h1.9ZM76.436,4.352a1.008,1.008,0,0,1,.277-.727,1.048,1.048,0,0,1,.793-.289,1.061,1.061,0,0,1,.8.289,1,1,0,0,1,.281.727.977.977,0,0,1-.281.715,1.069,1.069,0,0,1-.8.285,1.056,1.056,0,0,1-.793-.285A.984.984,0,0,1,76.436,4.352Zm8.82,8.352a.861.861,0,0,0-.418-.773,4.445,4.445,0,0,0-1.387-.469,7.129,7.129,0,0,1-1.617-.516,2.158,2.158,0,0,1-1.422-1.992,2.25,2.25,0,0,1,.922-1.828,3.644,3.644,0,0,1,2.344-.734,3.792,3.792,0,0,1,2.449.75,2.38,2.38,0,0,1,.934,1.945h-1.9a1.17,1.17,0,0,0-.406-.91,1.557,1.557,0,0,0-1.078-.363,1.682,1.682,0,0,0-1.02.289.911.911,0,0,0-.395.773.769.769,0,0,0,.367.68,5.049,5.049,0,0,0,1.484.488,7.027,7.027,0,0,1,1.754.586,2.484,2.484,0,0,1,.945.816,2.082,2.082,0,0,1,.309,1.156,2.2,2.2,0,0,1-.945,1.848,4.031,4.031,0,0,1-2.477.707,4.371,4.371,0,0,1-1.852-.375,3.047,3.047,0,0,1-1.266-1.031,2.441,2.441,0,0,1-.453-1.414h1.844a1.338,1.338,0,0,0,.508,1.035,1.973,1.973,0,0,0,1.242.363,1.92,1.92,0,0,0,1.141-.285A.883.883,0,0,0,85.257,12.7Z" transform="translate(283.505 87.218)" fill="#12263f"/>
        <path id="Path_896027" data-name="Path 896027" d="M12.493,15V3.625h3.9a4.76,4.76,0,0,1,2.938.773,2.724,2.724,0,0,1,1.008,2.3,2.456,2.456,0,0,1-.422,1.406,2.715,2.715,0,0,1-1.234.969,2.511,2.511,0,0,1,1.426.941,2.742,2.742,0,0,1,.5,1.66,3.028,3.028,0,0,1-1.027,2.461A4.467,4.467,0,0,1,16.642,15ZM14.47,9.867v3.555h2.2a2.124,2.124,0,0,0,1.453-.461,1.618,1.618,0,0,0,.523-1.281,1.623,1.623,0,0,0-1.812-1.812Zm0-1.453h1.938A2.241,2.241,0,0,0,17.849,8a1.432,1.432,0,0,0,.52-1.184,1.452,1.452,0,0,0-.48-1.219,2.426,2.426,0,0,0-1.5-.375H14.47ZM24.423,15h-1.9V6.547h1.9ZM22.407,4.352a1.008,1.008,0,0,1,.277-.727,1.048,1.048,0,0,1,.793-.289,1.061,1.061,0,0,1,.8.289,1,1,0,0,1,.281.727.977.977,0,0,1-.281.715,1.069,1.069,0,0,1-.8.285,1.056,1.056,0,0,1-.793-.285A.984.984,0,0,1,22.407,4.352Zm11.484,6.508A5.033,5.033,0,0,1,33,13.988a3.094,3.094,0,0,1-4.617.254V18.25h-1.9V6.547h1.75l.078.859a2.788,2.788,0,0,1,2.273-1.016,2.881,2.881,0,0,1,2.426,1.152,5.167,5.167,0,0,1,.879,3.2ZM32,10.7a3.526,3.526,0,0,0-.5-2.008,1.638,1.638,0,0,0-1.441-.742,1.747,1.747,0,0,0-1.672.961v3.75a1.763,1.763,0,0,0,1.688.984,1.636,1.636,0,0,0,1.418-.73A3.881,3.881,0,0,0,32,10.7ZM40.548,15a2.93,2.93,0,0,1-.219-.789,3.193,3.193,0,0,1-4.3.219,2.325,2.325,0,0,1-.8-1.8,2.4,2.4,0,0,1,1-2.074A4.865,4.865,0,0,1,39.1,9.836h1.164V9.281A1.481,1.481,0,0,0,39.9,8.23a1.456,1.456,0,0,0-1.117-.395,1.672,1.672,0,0,0-1.062.324,1,1,0,0,0-.414.824h-1.9a2.107,2.107,0,0,1,.461-1.3,3.071,3.071,0,0,1,1.254-.949,4.4,4.4,0,0,1,1.77-.344,3.547,3.547,0,0,1,2.367.746,2.661,2.661,0,0,1,.906,2.1v3.813a4.321,4.321,0,0,0,.32,1.82V15Zm-2.086-1.367a2.159,2.159,0,0,0,1.059-.273,1.827,1.827,0,0,0,.746-.734V11.031H39.243a2.8,2.8,0,0,0-1.586.367,1.189,1.189,0,0,0-.531,1.039,1.109,1.109,0,0,0,.363.871A1.407,1.407,0,0,0,38.462,13.633ZM48.579,8.281a4.7,4.7,0,0,0-.773-.062,1.741,1.741,0,0,0-1.758,1V15h-1.9V6.547h1.813l.047.945a2.139,2.139,0,0,1,1.906-1.1,1.777,1.777,0,0,1,.672.109Zm3.969-3.789V6.547H54.04V7.953H52.548v4.719a1.039,1.039,0,0,0,.191.7.888.888,0,0,0,.684.215,2.924,2.924,0,0,0,.664-.078v1.469a4.676,4.676,0,0,1-1.25.18q-2.187,0-2.187-2.414V7.953H49.259V6.547H50.65V4.492ZM57.509,15h-1.9V6.547h1.9ZM55.493,4.352a1.008,1.008,0,0,1,.277-.727,1.048,1.048,0,0,1,.793-.289,1.061,1.061,0,0,1,.8.289,1,1,0,0,1,.281.727.977.977,0,0,1-.281.715,1.069,1.069,0,0,1-.8.285,1.056,1.056,0,0,1-.793-.285A.984.984,0,0,1,55.493,4.352Zm7.555,9.289a1.716,1.716,0,0,0,1.18-.414,1.415,1.415,0,0,0,.5-1.023h1.789a2.789,2.789,0,0,1-.492,1.473,3.228,3.228,0,0,1-1.25,1.082,3.725,3.725,0,0,1-1.7.4,3.6,3.6,0,0,1-2.812-1.148,4.555,4.555,0,0,1-1.039-3.172v-.2a4.479,4.479,0,0,1,1.031-3.09,3.571,3.571,0,0,1,2.813-1.16,3.473,3.473,0,0,1,2.457.879,3.148,3.148,0,0,1,1,2.309H64.728a1.738,1.738,0,0,0-.5-1.2,1.6,1.6,0,0,0-1.184-.469,1.671,1.671,0,0,0-1.422.668,3.408,3.408,0,0,0-.508,2.027v.3a3.465,3.465,0,0,0,.5,2.051A1.669,1.669,0,0,0,63.048,13.641ZM69.97,15h-1.9V6.547h1.9ZM67.954,4.352a1.008,1.008,0,0,1,.277-.727,1.048,1.048,0,0,1,.793-.289,1.061,1.061,0,0,1,.8.289,1,1,0,0,1,.281.727.977.977,0,0,1-.281.715,1.069,1.069,0,0,1-.8.285,1.056,1.056,0,0,1-.793-.285A.984.984,0,0,1,67.954,4.352ZM71.681,10.7a4.984,4.984,0,0,1,.492-2.238,3.6,3.6,0,0,1,1.383-1.531A3.9,3.9,0,0,1,75.6,6.391a3.692,3.692,0,0,1,2.777,1.1,4.333,4.333,0,0,1,1.152,2.922l.008.445a5.029,5.029,0,0,1-.48,2.234,3.551,3.551,0,0,1-1.375,1.523,3.925,3.925,0,0,1-2.066.539,3.667,3.667,0,0,1-2.863-1.191,4.563,4.563,0,0,1-1.074-3.176Zm1.9.164a3.406,3.406,0,0,0,.539,2.043,1.752,1.752,0,0,0,1.5.738,1.733,1.733,0,0,0,1.5-.75,3.762,3.762,0,0,0,.535-2.2A3.362,3.362,0,0,0,77.1,8.664a1.856,1.856,0,0,0-2.973-.012A3.691,3.691,0,0,0,73.579,10.859Zm9.328-4.312.055.977a3.039,3.039,0,0,1,2.461-1.133q2.641,0,2.688,3.023V15h-1.9V9.523a1.741,1.741,0,0,0-.348-1.191,1.462,1.462,0,0,0-1.137-.387,1.829,1.829,0,0,0-1.711,1.039V15h-1.9V6.547Z" transform="translate(410.553 86.814)" fill="#12263f"/>
        <path id="Path_896020" data-name="Path 896020" d="M33.858,15H31.889V9.953H26.8V15H24.827V3.625H26.8V8.359h5.086V3.625h1.969Zm5.875.156a3.928,3.928,0,0,1-2.926-1.137,4.124,4.124,0,0,1-1.121-3.027v-.234A5.072,5.072,0,0,1,36.174,8.5a3.716,3.716,0,0,1,1.371-1.551,3.625,3.625,0,0,1,1.969-.555,3.318,3.318,0,0,1,2.668,1.1,4.658,4.658,0,0,1,.941,3.117v.766H37.6a2.539,2.539,0,0,0,.7,1.656,2.1,2.1,0,0,0,1.543.609,2.571,2.571,0,0,0,2.125-1.055l1.023.977a3.418,3.418,0,0,1-1.355,1.176A4.244,4.244,0,0,1,39.733,15.156Zm-.227-7.242a1.6,1.6,0,0,0-1.262.547,2.835,2.835,0,0,0-.613,1.523h3.617V9.844A2.307,2.307,0,0,0,40.741,8.4,1.586,1.586,0,0,0,39.507,7.914Zm6.875-1.367.055.883a3.042,3.042,0,0,1,2.438-1.039,2.337,2.337,0,0,1,2.32,1.3,3,3,0,0,1,2.594-1.3,2.636,2.636,0,0,1,2.082.773,3.405,3.405,0,0,1,.7,2.281V15h-1.9V9.5a1.681,1.681,0,0,0-.352-1.18,1.539,1.539,0,0,0-1.164-.375,1.581,1.581,0,0,0-1.059.348,1.833,1.833,0,0,0-.574.91L51.53,15h-1.9V9.438a1.354,1.354,0,0,0-1.523-1.492,1.671,1.671,0,0,0-1.617.93V15h-1.9V6.547Zm19.555,4.313a5.078,5.078,0,0,1-.879,3.133,2.863,2.863,0,0,1-2.418,1.164,2.758,2.758,0,0,1-2.312-1.07L60.233,15H58.514V3h1.9V7.359a2.748,2.748,0,0,1,2.211-.969,2.9,2.9,0,0,1,2.43,1.148,5.162,5.162,0,0,1,.883,3.211Zm-1.9-.164a3.589,3.589,0,0,0-.484-2.062,1.613,1.613,0,0,0-1.406-.687,1.763,1.763,0,0,0-1.734,1.078v3.484a1.781,1.781,0,0,0,1.75,1.1,1.6,1.6,0,0,0,1.375-.664,3.477,3.477,0,0,0,.5-2.008Zm7.914-2.414a4.7,4.7,0,0,0-.773-.062,1.741,1.741,0,0,0-1.758,1V15h-1.9V6.547h1.813l.047.945a2.139,2.139,0,0,1,1.906-1.1,1.777,1.777,0,0,1,.672.109ZM77.967,15a2.93,2.93,0,0,1-.219-.789,3.193,3.193,0,0,1-4.3.219,2.325,2.325,0,0,1-.8-1.8,2.4,2.4,0,0,1,1-2.074,4.865,4.865,0,0,1,2.871-.723h1.164V9.281a1.481,1.481,0,0,0-.367-1.051A1.456,1.456,0,0,0,76.2,7.836a1.672,1.672,0,0,0-1.062.324,1,1,0,0,0-.414.824h-1.9a2.107,2.107,0,0,1,.461-1.3,3.071,3.071,0,0,1,1.254-.949,4.4,4.4,0,0,1,1.77-.344,3.547,3.547,0,0,1,2.367.746,2.661,2.661,0,0,1,.906,2.1v3.813a4.321,4.321,0,0,0,.32,1.82V15Zm-2.086-1.367a2.159,2.159,0,0,0,1.059-.273,1.827,1.827,0,0,0,.746-.734V11.031H76.663a2.8,2.8,0,0,0-1.586.367,1.189,1.189,0,0,0-.531,1.039,1.109,1.109,0,0,0,.363.871A1.407,1.407,0,0,0,75.882,13.633Zm10.43-.93a.861.861,0,0,0-.418-.773,4.445,4.445,0,0,0-1.387-.469,7.129,7.129,0,0,1-1.617-.516,2.158,2.158,0,0,1-1.422-1.992,2.25,2.25,0,0,1,.922-1.828,3.644,3.644,0,0,1,2.344-.734,3.792,3.792,0,0,1,2.449.75,2.38,2.38,0,0,1,.934,1.945h-1.9a1.17,1.17,0,0,0-.406-.91,1.557,1.557,0,0,0-1.078-.363,1.682,1.682,0,0,0-1.02.289.911.911,0,0,0-.395.773.769.769,0,0,0,.367.68,5.049,5.049,0,0,0,1.484.488,7.027,7.027,0,0,1,1.754.586,2.484,2.484,0,0,1,.945.816,2.082,2.082,0,0,1,.309,1.156,2.2,2.2,0,0,1-.945,1.848,4.031,4.031,0,0,1-2.477.707,4.371,4.371,0,0,1-1.852-.375,3.047,3.047,0,0,1-1.266-1.031,2.441,2.441,0,0,1-.453-1.414H83.03a1.338,1.338,0,0,0,.508,1.035,1.973,1.973,0,0,0,1.242.363,1.92,1.92,0,0,0,1.141-.285A.883.883,0,0,0,86.311,12.7Z" transform="translate(161.459 155.75)" fill="#12263f"/>
        <path id="Path_896023" data-name="Path 896023" d="M33.538,3.625l3.281,8.719,3.273-8.719h2.555V15H40.678V11.25l.2-5.016L37.514,15H36.1L32.749,6.242l.2,5.008V15H30.975V3.625ZM46.819,15h-1.9V6.547h1.9ZM44.8,4.352a1.008,1.008,0,0,1,.277-.727,1.048,1.048,0,0,1,.793-.289,1.061,1.061,0,0,1,.8.289,1,1,0,0,1,.281.727.977.977,0,0,1-.281.715,1.069,1.069,0,0,1-.8.285,1.056,1.056,0,0,1-.793-.285A.984.984,0,0,1,44.8,4.352Zm6.461.141V6.547h1.492V7.953H51.264v4.719a1.039,1.039,0,0,0,.191.7.888.888,0,0,0,.684.215,2.924,2.924,0,0,0,.664-.078v1.469a4.676,4.676,0,0,1-1.25.18q-2.187,0-2.187-2.414V7.953H47.975V6.547h1.391V4.492Zm2.352,6.2a4.984,4.984,0,0,1,.492-2.238,3.6,3.6,0,0,1,1.383-1.531,3.9,3.9,0,0,1,2.047-.535,3.692,3.692,0,0,1,2.777,1.1,4.333,4.333,0,0,1,1.152,2.922l.008.445a5.029,5.029,0,0,1-.48,2.234,3.551,3.551,0,0,1-1.375,1.523,3.925,3.925,0,0,1-2.066.539,3.667,3.667,0,0,1-2.863-1.191,4.563,4.563,0,0,1-1.074-3.176Zm1.9.164a3.406,3.406,0,0,0,.539,2.043,1.752,1.752,0,0,0,1.5.738,1.733,1.733,0,0,0,1.5-.75,3.762,3.762,0,0,0,.535-2.2,3.362,3.362,0,0,0-.551-2.031,1.856,1.856,0,0,0-2.973-.012A3.691,3.691,0,0,0,55.514,10.859Zm12.3,1.844a.861.861,0,0,0-.418-.773,4.445,4.445,0,0,0-1.387-.469,7.129,7.129,0,0,1-1.617-.516,2.158,2.158,0,0,1-1.422-1.992A2.25,2.25,0,0,1,63.9,7.125a3.644,3.644,0,0,1,2.344-.734,3.792,3.792,0,0,1,2.449.75,2.38,2.38,0,0,1,.934,1.945h-1.9a1.17,1.17,0,0,0-.406-.91,1.557,1.557,0,0,0-1.078-.363,1.682,1.682,0,0,0-1.02.289.911.911,0,0,0-.395.773.769.769,0,0,0,.367.68,5.049,5.049,0,0,0,1.484.488,7.027,7.027,0,0,1,1.754.586,2.484,2.484,0,0,1,.945.816,2.082,2.082,0,0,1,.309,1.156,2.2,2.2,0,0,1-.945,1.848,4.031,4.031,0,0,1-2.477.707,4.371,4.371,0,0,1-1.852-.375,3.047,3.047,0,0,1-1.266-1.031,2.441,2.441,0,0,1-.453-1.414h1.844a1.338,1.338,0,0,0,.508,1.035,1.973,1.973,0,0,0,1.242.363,1.92,1.92,0,0,0,1.141-.285A.883.883,0,0,0,67.819,12.7ZM73.358,15h-1.9V6.547h1.9ZM71.342,4.352a1.008,1.008,0,0,1,.277-.727,1.048,1.048,0,0,1,.793-.289,1.061,1.061,0,0,1,.8.289,1,1,0,0,1,.281.727.977.977,0,0,1-.281.715,1.069,1.069,0,0,1-.8.285,1.056,1.056,0,0,1-.793-.285A.984.984,0,0,1,71.342,4.352Zm8.82,8.352a.861.861,0,0,0-.418-.773,4.445,4.445,0,0,0-1.387-.469,7.129,7.129,0,0,1-1.617-.516,2.158,2.158,0,0,1-1.422-1.992,2.25,2.25,0,0,1,.922-1.828,3.644,3.644,0,0,1,2.344-.734,3.792,3.792,0,0,1,2.449.75,2.38,2.38,0,0,1,.934,1.945h-1.9a1.17,1.17,0,0,0-.406-.91,1.557,1.557,0,0,0-1.078-.363,1.682,1.682,0,0,0-1.02.289.911.911,0,0,0-.395.773.769.769,0,0,0,.367.68,5.049,5.049,0,0,0,1.484.488,7.027,7.027,0,0,1,1.754.586,2.484,2.484,0,0,1,.945.816A2.082,2.082,0,0,1,82.03,12.6a2.2,2.2,0,0,1-.945,1.848,4.031,4.031,0,0,1-2.477.707,4.371,4.371,0,0,1-1.852-.375,3.047,3.047,0,0,1-1.266-1.031,2.441,2.441,0,0,1-.453-1.414h1.844a1.338,1.338,0,0,0,.508,1.035,1.973,1.973,0,0,0,1.242.363,1.92,1.92,0,0,0,1.141-.285A.883.883,0,0,0,80.163,12.7Z" transform="translate(283.505 155.75)" fill="#12263f"/>
        <path id="Path_896024" data-name="Path 896024" d="M36.4,15H34.428V3.625H36.4ZM40.4,6.547l.055.977a3.039,3.039,0,0,1,2.461-1.133q2.641,0,2.688,3.023V15h-1.9V9.523a1.741,1.741,0,0,0-.348-1.191,1.462,1.462,0,0,0-1.137-.387,1.829,1.829,0,0,0-1.711,1.039V15h-1.9V6.547Zm9.117,0v9.2a2.781,2.781,0,0,1-.645,1.98,2.47,2.47,0,0,1-1.887.684,3.794,3.794,0,0,1-1.008-.133v-1.5a2.925,2.925,0,0,0,.672.07q.945,0,.969-1.031V6.547Zm-2.062-2.2a1.008,1.008,0,0,1,.277-.727,1.048,1.048,0,0,1,.793-.289,1.061,1.061,0,0,1,.8.289,1,1,0,0,1,.281.727.977.977,0,0,1-.281.715,1.069,1.069,0,0,1-.8.285,1.056,1.056,0,0,1-.793-.285A.984.984,0,0,1,47.46,4.352Zm7.813,10.8a3.928,3.928,0,0,1-2.926-1.137,4.124,4.124,0,0,1-1.121-3.027v-.234A5.072,5.072,0,0,1,51.714,8.5a3.716,3.716,0,0,1,1.371-1.551,3.625,3.625,0,0,1,1.969-.555,3.318,3.318,0,0,1,2.668,1.1,4.658,4.658,0,0,1,.941,3.117v.766H53.139a2.539,2.539,0,0,0,.7,1.656,2.1,2.1,0,0,0,1.543.609,2.571,2.571,0,0,0,2.125-1.055l1.023.977a3.418,3.418,0,0,1-1.355,1.176A4.244,4.244,0,0,1,55.272,15.156Zm-.227-7.242a1.6,1.6,0,0,0-1.262.547,2.835,2.835,0,0,0-.613,1.523h3.617V9.844A2.307,2.307,0,0,0,56.28,8.4,1.586,1.586,0,0,0,55.046,7.914Zm9.516.367a4.7,4.7,0,0,0-.773-.062,1.741,1.741,0,0,0-1.758,1V15h-1.9V6.547h1.813l.047.945a2.139,2.139,0,0,1,1.906-1.1,1.777,1.777,0,0,1,.672.109ZM68.53,4.492V6.547h1.492V7.953H68.53v4.719a1.039,1.039,0,0,0,.191.7.888.888,0,0,0,.684.215,2.925,2.925,0,0,0,.664-.078v1.469a4.676,4.676,0,0,1-1.25.18q-2.188,0-2.187-2.414V7.953H65.241V6.547h1.391V4.492Zm2.352,6.2a4.984,4.984,0,0,1,.492-2.238,3.6,3.6,0,0,1,1.383-1.531A3.9,3.9,0,0,1,74.8,6.391a3.692,3.692,0,0,1,2.777,1.1,4.333,4.333,0,0,1,1.152,2.922l.008.445a5.029,5.029,0,0,1-.48,2.234,3.551,3.551,0,0,1-1.375,1.523,3.925,3.925,0,0,1-2.066.539,3.667,3.667,0,0,1-2.863-1.191,4.563,4.563,0,0,1-1.074-3.176Zm1.9.164a3.406,3.406,0,0,0,.539,2.043,1.752,1.752,0,0,0,1.5.738,1.733,1.733,0,0,0,1.5-.75,3.762,3.762,0,0,0,.535-2.2A3.362,3.362,0,0,0,76.3,8.664a1.856,1.856,0,0,0-2.973-.012A3.691,3.691,0,0,0,72.78,10.859Z" transform="translate(283.505 224.377)" fill="#12263f"/>
        <path id="Path_896025" data-name="Path 896025" d="M39.913,9.922H35.241v3.5H40.7V15H33.264V3.625h7.383V5.219H35.241V8.359h4.672ZM46.866,12.7a.861.861,0,0,0-.418-.773,4.445,4.445,0,0,0-1.387-.469,7.129,7.129,0,0,1-1.617-.516,2.158,2.158,0,0,1-1.422-1.992,2.25,2.25,0,0,1,.922-1.828,3.644,3.644,0,0,1,2.344-.734,3.792,3.792,0,0,1,2.449.75,2.38,2.38,0,0,1,.934,1.945h-1.9a1.17,1.17,0,0,0-.406-.91,1.557,1.557,0,0,0-1.078-.363,1.682,1.682,0,0,0-1.02.289.911.911,0,0,0-.395.773.769.769,0,0,0,.367.68,5.049,5.049,0,0,0,1.484.488,7.027,7.027,0,0,1,1.754.586,2.484,2.484,0,0,1,.945.816,2.082,2.082,0,0,1,.309,1.156,2.2,2.2,0,0,1-.945,1.848,4.031,4.031,0,0,1-2.477.707,4.371,4.371,0,0,1-1.852-.375,3.047,3.047,0,0,1-1.266-1.031,2.441,2.441,0,0,1-.453-1.414h1.844a1.338,1.338,0,0,0,.508,1.035,1.973,1.973,0,0,0,1.242.363,1.92,1.92,0,0,0,1.141-.285A.883.883,0,0,0,46.866,12.7Zm5.9-8.211V6.547h1.492V7.953H52.764v4.719a1.039,1.039,0,0,0,.191.7.888.888,0,0,0,.684.215,2.924,2.924,0,0,0,.664-.078v1.469a4.676,4.676,0,0,1-1.25.18q-2.187,0-2.187-2.414V7.953H49.475V6.547h1.391V4.492ZM60.757,15a2.93,2.93,0,0,1-.219-.789,3.193,3.193,0,0,1-4.3.219,2.325,2.325,0,0,1-.8-1.8,2.4,2.4,0,0,1,1-2.074,4.865,4.865,0,0,1,2.871-.723h1.164V9.281a1.481,1.481,0,0,0-.367-1.051,1.456,1.456,0,0,0-1.117-.395,1.672,1.672,0,0,0-1.062.324,1,1,0,0,0-.414.824h-1.9a2.107,2.107,0,0,1,.461-1.3,3.071,3.071,0,0,1,1.254-.949,4.4,4.4,0,0,1,1.77-.344,3.547,3.547,0,0,1,2.367.746,2.661,2.661,0,0,1,.906,2.1v3.813a4.321,4.321,0,0,0,.32,1.82V15Zm-2.086-1.367a2.159,2.159,0,0,0,1.059-.273,1.827,1.827,0,0,0,.746-.734V11.031H59.452a2.8,2.8,0,0,0-1.586.367,1.189,1.189,0,0,0-.531,1.039,1.109,1.109,0,0,0,.363.871A1.407,1.407,0,0,0,58.671,13.633Zm9.164.008a1.716,1.716,0,0,0,1.18-.414,1.415,1.415,0,0,0,.5-1.023H71.3a2.789,2.789,0,0,1-.492,1.473,3.228,3.228,0,0,1-1.25,1.082,3.725,3.725,0,0,1-1.7.4,3.6,3.6,0,0,1-2.812-1.148,4.555,4.555,0,0,1-1.039-3.172v-.2a4.479,4.479,0,0,1,1.031-3.09,3.571,3.571,0,0,1,2.813-1.16,3.473,3.473,0,0,1,2.457.879,3.148,3.148,0,0,1,1,2.309H69.514a1.738,1.738,0,0,0-.5-1.2,1.6,1.6,0,0,0-1.184-.469,1.671,1.671,0,0,0-1.422.668,3.408,3.408,0,0,0-.508,2.027v.3a3.465,3.465,0,0,0,.5,2.051A1.669,1.669,0,0,0,67.835,13.641ZM77.788,15a2.93,2.93,0,0,1-.219-.789,3.193,3.193,0,0,1-4.3.219,2.325,2.325,0,0,1-.8-1.8,2.4,2.4,0,0,1,1-2.074,4.865,4.865,0,0,1,2.871-.723h1.164V9.281a1.481,1.481,0,0,0-.367-1.051,1.456,1.456,0,0,0-1.117-.395,1.672,1.672,0,0,0-1.062.324,1,1,0,0,0-.414.824h-1.9a2.107,2.107,0,0,1,.461-1.3,3.071,3.071,0,0,1,1.254-.949,4.4,4.4,0,0,1,1.77-.344,3.547,3.547,0,0,1,2.367.746,2.661,2.661,0,0,1,.906,2.1v3.813a4.321,4.321,0,0,0,.32,1.82V15ZM75.7,13.633a2.159,2.159,0,0,0,1.059-.273,1.827,1.827,0,0,0,.746-.734V11.031H76.483A2.8,2.8,0,0,0,74.9,11.4a1.189,1.189,0,0,0-.531,1.039,1.109,1.109,0,0,0,.363.871A1.407,1.407,0,0,0,75.7,13.633Z" transform="translate(283.505 293.083)" fill="#12263f"/>
        <path id="Path_896026" data-name="Path 896026" d="M40.651,12.352H36.245L35.323,15H33.268l4.3-11.375h1.773L43.643,15H41.581ZM36.8,10.758h3.3L38.448,6.039Zm11.422,2.883a1.716,1.716,0,0,0,1.18-.414,1.415,1.415,0,0,0,.5-1.023H51.69a2.789,2.789,0,0,1-.492,1.473,3.228,3.228,0,0,1-1.25,1.082,3.725,3.725,0,0,1-1.7.4,3.6,3.6,0,0,1-2.812-1.148,4.555,4.555,0,0,1-1.039-3.172v-.2a4.479,4.479,0,0,1,1.031-3.09,3.571,3.571,0,0,1,2.813-1.16,3.473,3.473,0,0,1,2.457.879,3.148,3.148,0,0,1,1,2.309H49.9a1.738,1.738,0,0,0-.5-1.2,1.6,1.6,0,0,0-1.184-.469,1.671,1.671,0,0,0-1.422.668,3.408,3.408,0,0,0-.508,2.027v.3a3.465,3.465,0,0,0,.5,2.051A1.669,1.669,0,0,0,48.221,13.641ZM52.768,10.7a4.984,4.984,0,0,1,.492-2.238,3.6,3.6,0,0,1,1.383-1.531,3.9,3.9,0,0,1,2.047-.535,3.692,3.692,0,0,1,2.777,1.1,4.333,4.333,0,0,1,1.152,2.922l.008.445a5.029,5.029,0,0,1-.48,2.234,3.551,3.551,0,0,1-1.375,1.523,3.925,3.925,0,0,1-2.066.539,3.667,3.667,0,0,1-2.863-1.191,4.563,4.563,0,0,1-1.074-3.176Zm1.9.164a3.406,3.406,0,0,0,.539,2.043,1.752,1.752,0,0,0,1.5.738,1.733,1.733,0,0,0,1.5-.75,3.762,3.762,0,0,0,.535-2.2,3.362,3.362,0,0,0-.551-2.031,1.856,1.856,0,0,0-2.973-.012A3.691,3.691,0,0,0,54.667,10.859Zm7.211-.148a5.026,5.026,0,0,1,.906-3.137,2.9,2.9,0,0,1,2.43-1.184,2.759,2.759,0,0,1,2.172.938V3h1.9V15H67.565l-.094-.875A2.8,2.8,0,0,1,65.2,15.156a2.887,2.887,0,0,1-2.4-1.2A5.21,5.21,0,0,1,61.878,10.711Zm1.9.164a3.519,3.519,0,0,0,.5,2.012,1.61,1.61,0,0,0,1.41.723,1.793,1.793,0,0,0,1.7-1.039V8.961A1.766,1.766,0,0,0,65.7,7.945a1.622,1.622,0,0,0-1.422.73A3.919,3.919,0,0,0,63.776,10.875Zm7.133-.18A4.984,4.984,0,0,1,71.4,8.457a3.6,3.6,0,0,1,1.383-1.531,3.9,3.9,0,0,1,2.047-.535,3.692,3.692,0,0,1,2.777,1.1,4.333,4.333,0,0,1,1.152,2.922l.008.445a5.029,5.029,0,0,1-.48,2.234,3.551,3.551,0,0,1-1.375,1.523,3.925,3.925,0,0,1-2.066.539,3.667,3.667,0,0,1-2.863-1.191,4.563,4.563,0,0,1-1.074-3.176Zm1.9.164a3.406,3.406,0,0,0,.539,2.043,1.752,1.752,0,0,0,1.5.738,1.733,1.733,0,0,0,1.5-.75,3.762,3.762,0,0,0,.535-2.2,3.362,3.362,0,0,0-.551-2.031,1.856,1.856,0,0,0-2.973-.012A3.691,3.691,0,0,0,72.807,10.859Z" transform="translate(283.505 361.329)" fill="#12263f"/>
        <path id="Path_896028" data-name="Path 896028" d="M23.818,13.523a3.779,3.779,0,0,1-1.711,1.219,6.98,6.98,0,0,1-2.484.414,4.9,4.9,0,0,1-2.531-.648,4.319,4.319,0,0,1-1.7-1.855,6.491,6.491,0,0,1-.621-2.816V8.945a6.02,6.02,0,0,1,1.234-4.027A4.281,4.281,0,0,1,19.45,3.469a4.529,4.529,0,0,1,3.016.941A4.057,4.057,0,0,1,23.81,7.117H21.872A2.18,2.18,0,0,0,19.49,5.063a2.336,2.336,0,0,0-2.02.956,4.871,4.871,0,0,0-.715,2.806V9.7a4.626,4.626,0,0,0,.777,2.861,2.564,2.564,0,0,0,2.16,1.019,2.848,2.848,0,0,0,2.156-.687V10.664H19.505v-1.5h4.313Zm5.711,1.633A3.928,3.928,0,0,1,26.6,14.02a4.124,4.124,0,0,1-1.121-3.027v-.234A5.072,5.072,0,0,1,25.97,8.5a3.716,3.716,0,0,1,1.371-1.551,3.625,3.625,0,0,1,1.969-.555,3.318,3.318,0,0,1,2.668,1.1,4.658,4.658,0,0,1,.941,3.117v.766H27.4a2.539,2.539,0,0,0,.7,1.656,2.1,2.1,0,0,0,1.543.609,2.571,2.571,0,0,0,2.125-1.055l1.023.977a3.418,3.418,0,0,1-1.355,1.176A4.244,4.244,0,0,1,29.529,15.156ZM29.3,7.914a1.6,1.6,0,0,0-1.262.547,2.835,2.835,0,0,0-.613,1.523h3.617V9.844A2.307,2.307,0,0,0,30.536,8.4,1.586,1.586,0,0,0,29.3,7.914Zm6.875-1.367.055.883a3.042,3.042,0,0,1,2.438-1.039,2.337,2.337,0,0,1,2.32,1.3,3,3,0,0,1,2.594-1.3,2.636,2.636,0,0,1,2.082.773,3.405,3.405,0,0,1,.7,2.281V15h-1.9V9.5a1.681,1.681,0,0,0-.352-1.18,1.539,1.539,0,0,0-1.164-.375,1.581,1.581,0,0,0-1.059.348,1.833,1.833,0,0,0-.574.91l.008,5.8h-1.9V9.438A1.354,1.354,0,0,0,37.9,7.945a1.671,1.671,0,0,0-1.617.93V15h-1.9V6.547ZM53.365,15a2.93,2.93,0,0,1-.219-.789,3.193,3.193,0,0,1-4.3.219,2.325,2.325,0,0,1-.8-1.8,2.4,2.4,0,0,1,1-2.074,4.865,4.865,0,0,1,2.871-.723h1.164V9.281a1.481,1.481,0,0,0-.367-1.051A1.456,1.456,0,0,0,51.6,7.836a1.672,1.672,0,0,0-1.062.324,1,1,0,0,0-.414.824h-1.9a2.107,2.107,0,0,1,.461-1.3,3.071,3.071,0,0,1,1.254-.949,4.4,4.4,0,0,1,1.77-.344,3.547,3.547,0,0,1,2.367.746,2.661,2.661,0,0,1,.906,2.1v3.813a4.321,4.321,0,0,0,.32,1.82V15Zm-2.086-1.367a2.159,2.159,0,0,0,1.059-.273,1.827,1.827,0,0,0,.746-.734V11.031H52.06a2.8,2.8,0,0,0-1.586.367,1.189,1.189,0,0,0-.531,1.039,1.109,1.109,0,0,0,.363.871A1.407,1.407,0,0,0,51.279,13.633Zm9.164.008a1.716,1.716,0,0,0,1.18-.414,1.415,1.415,0,0,0,.5-1.023h1.789a2.789,2.789,0,0,1-.492,1.473,3.228,3.228,0,0,1-1.25,1.082,3.725,3.725,0,0,1-1.7.4,3.6,3.6,0,0,1-2.812-1.148,4.555,4.555,0,0,1-1.039-3.172v-.2a4.479,4.479,0,0,1,1.031-3.09,3.571,3.571,0,0,1,2.813-1.16,3.473,3.473,0,0,1,2.457.879,3.148,3.148,0,0,1,1,2.309H62.122a1.738,1.738,0,0,0-.5-1.2,1.6,1.6,0,0,0-1.184-.469,1.671,1.671,0,0,0-1.422.668,3.408,3.408,0,0,0-.508,2.027v.3a3.465,3.465,0,0,0,.5,2.051A1.669,1.669,0,0,0,60.443,13.641ZM67.365,15h-1.9V6.547h1.9ZM65.349,4.352a1.008,1.008,0,0,1,.277-.727,1.048,1.048,0,0,1,.793-.289,1.061,1.061,0,0,1,.8.289,1,1,0,0,1,.281.727.977.977,0,0,1-.281.715,1.069,1.069,0,0,1-.8.285,1.056,1.056,0,0,1-.793-.285A.984.984,0,0,1,65.349,4.352ZM69.075,10.7a4.984,4.984,0,0,1,.492-2.238A3.6,3.6,0,0,1,70.95,6.926,3.9,3.9,0,0,1,73,6.391a3.692,3.692,0,0,1,2.777,1.1,4.333,4.333,0,0,1,1.152,2.922l.008.445a5.029,5.029,0,0,1-.48,2.234,3.551,3.551,0,0,1-1.375,1.523,3.925,3.925,0,0,1-2.066.539,3.667,3.667,0,0,1-2.863-1.191,4.563,4.563,0,0,1-1.074-3.176Zm1.9.164a3.406,3.406,0,0,0,.539,2.043,1.752,1.752,0,0,0,1.5.738,1.733,1.733,0,0,0,1.5-.75,3.762,3.762,0,0,0,.535-2.2,3.362,3.362,0,0,0-.551-2.031,1.856,1.856,0,0,0-2.973-.012A3.691,3.691,0,0,0,70.974,10.859ZM73.521,3h2.164L73.521,5.367,72,5.363ZM80.3,6.547l.055.977a3.039,3.039,0,0,1,2.461-1.133q2.641,0,2.688,3.023V15h-1.9V9.523a1.741,1.741,0,0,0-.348-1.191,1.462,1.462,0,0,0-1.137-.387,1.829,1.829,0,0,0-1.711,1.039V15h-1.9V6.547Z" transform="translate(410.553 155.346)" fill="#12263f"/>
        <path id="Path_896029" data-name="Path 896029" d="M11.435,9.922H6.763v3.5h5.461V15H4.786V3.625h7.383V5.219H6.763V8.359h4.672ZM18.388,12.7a.861.861,0,0,0-.418-.773,4.445,4.445,0,0,0-1.387-.469,7.129,7.129,0,0,1-1.617-.516,2.158,2.158,0,0,1-1.422-1.992,2.25,2.25,0,0,1,.922-1.828,3.644,3.644,0,0,1,2.344-.734,3.792,3.792,0,0,1,2.449.75,2.38,2.38,0,0,1,.934,1.945h-1.9a1.17,1.17,0,0,0-.406-.91,1.557,1.557,0,0,0-1.078-.363,1.682,1.682,0,0,0-1.02.289.911.911,0,0,0-.395.773.769.769,0,0,0,.367.68,5.049,5.049,0,0,0,1.484.488A7.027,7.027,0,0,1,19,10.629a2.484,2.484,0,0,1,.945.816,2.082,2.082,0,0,1,.309,1.156,2.2,2.2,0,0,1-.945,1.848,4.031,4.031,0,0,1-2.477.707,4.371,4.371,0,0,1-1.852-.375,3.047,3.047,0,0,1-1.266-1.031,2.441,2.441,0,0,1-.453-1.414h1.844a1.338,1.338,0,0,0,.508,1.035,1.973,1.973,0,0,0,1.242.363A1.92,1.92,0,0,0,18,13.449.883.883,0,0,0,18.388,12.7ZM29.31,10.859a5.033,5.033,0,0,1-.891,3.129,3.094,3.094,0,0,1-4.617.254V18.25H21.9V6.547h1.75l.078.859a2.788,2.788,0,0,1,2.273-1.016,2.881,2.881,0,0,1,2.426,1.152,5.167,5.167,0,0,1,.879,3.2ZM27.419,10.7a3.526,3.526,0,0,0-.5-2.008,1.638,1.638,0,0,0-1.441-.742,1.747,1.747,0,0,0-1.672.961v3.75a1.763,1.763,0,0,0,1.688.984,1.636,1.636,0,0,0,1.418-.73A3.881,3.881,0,0,0,27.419,10.7Zm3.141,0a4.984,4.984,0,0,1,.492-2.238,3.6,3.6,0,0,1,1.383-1.531,3.9,3.9,0,0,1,2.047-.535,3.692,3.692,0,0,1,2.777,1.1,4.333,4.333,0,0,1,1.152,2.922l.008.445a5.029,5.029,0,0,1-.48,2.234,3.551,3.551,0,0,1-1.375,1.523,3.925,3.925,0,0,1-2.066.539,3.667,3.667,0,0,1-2.863-1.191,4.563,4.563,0,0,1-1.074-3.176Zm1.9.164A3.406,3.406,0,0,0,33,12.9a1.752,1.752,0,0,0,1.5.738,1.733,1.733,0,0,0,1.5-.75,3.762,3.762,0,0,0,.535-2.2,3.362,3.362,0,0,0-.551-2.031,1.856,1.856,0,0,0-2.973-.012A3.691,3.691,0,0,0,32.458,10.859ZM44.45,8.281a4.7,4.7,0,0,0-.773-.062,1.741,1.741,0,0,0-1.758,1V15h-1.9V6.547h1.813l.047.945a2.139,2.139,0,0,1,1.906-1.1,1.777,1.777,0,0,1,.672.109Zm6.32,5.891a2.944,2.944,0,0,1-2.375.984,2.624,2.624,0,0,1-2.082-.8,3.423,3.423,0,0,1-.707-2.328V6.547h1.9V12q0,1.609,1.336,1.609a1.876,1.876,0,0,0,1.867-.992V6.547h1.9V15H50.818ZM56.56,15h-1.9V3h1.9Zm7.117,0a2.93,2.93,0,0,1-.219-.789,3.193,3.193,0,0,1-4.3.219,2.325,2.325,0,0,1-.8-1.8,2.4,2.4,0,0,1,1-2.074,4.865,4.865,0,0,1,2.871-.723H63.4V9.281a1.481,1.481,0,0,0-.367-1.051,1.456,1.456,0,0,0-1.117-.395,1.672,1.672,0,0,0-1.062.324,1,1,0,0,0-.414.824h-1.9A2.107,2.107,0,0,1,59,7.684a3.071,3.071,0,0,1,1.254-.949,4.4,4.4,0,0,1,1.77-.344,3.547,3.547,0,0,1,2.367.746,2.661,2.661,0,0,1,.906,2.1v3.813a4.321,4.321,0,0,0,.32,1.82V15Zm-2.086-1.367a2.159,2.159,0,0,0,1.059-.273,1.827,1.827,0,0,0,.746-.734V11.031H62.372a2.8,2.8,0,0,0-1.586.367,1.189,1.189,0,0,0-.531,1.039,1.109,1.109,0,0,0,.363.871A1.407,1.407,0,0,0,61.591,13.633Zm9.164.008a1.716,1.716,0,0,0,1.18-.414,1.415,1.415,0,0,0,.5-1.023h1.789a2.789,2.789,0,0,1-.492,1.473,3.228,3.228,0,0,1-1.25,1.082,3.725,3.725,0,0,1-1.7.4,3.6,3.6,0,0,1-2.812-1.148,4.555,4.555,0,0,1-1.039-3.172v-.2a4.479,4.479,0,0,1,1.031-3.09,3.571,3.571,0,0,1,2.813-1.16,3.473,3.473,0,0,1,2.457.879,3.148,3.148,0,0,1,1,2.309H72.435a1.738,1.738,0,0,0-.5-1.2,1.6,1.6,0,0,0-1.184-.469,1.671,1.671,0,0,0-1.422.668,3.408,3.408,0,0,0-.508,2.027v.3a3.465,3.465,0,0,0,.5,2.051A1.669,1.669,0,0,0,70.755,13.641ZM77.677,15h-1.9V6.547h1.9ZM75.661,4.352a1.008,1.008,0,0,1,.277-.727,1.048,1.048,0,0,1,.793-.289,1.061,1.061,0,0,1,.8.289,1,1,0,0,1,.281.727.977.977,0,0,1-.281.715,1.069,1.069,0,0,1-.8.285,1.056,1.056,0,0,1-.793-.285A.984.984,0,0,1,75.661,4.352ZM79.388,10.7a4.984,4.984,0,0,1,.492-2.238,3.6,3.6,0,0,1,1.383-1.531,3.9,3.9,0,0,1,2.047-.535,3.692,3.692,0,0,1,2.777,1.1,4.333,4.333,0,0,1,1.152,2.922l.008.445a5.029,5.029,0,0,1-.48,2.234,3.551,3.551,0,0,1-1.375,1.523,3.925,3.925,0,0,1-2.066.539,3.667,3.667,0,0,1-2.863-1.191,4.563,4.563,0,0,1-1.074-3.176Zm1.9.164a3.406,3.406,0,0,0,.539,2.043,1.752,1.752,0,0,0,1.5.738,1.733,1.733,0,0,0,1.5-.75,3.762,3.762,0,0,0,.535-2.2,3.362,3.362,0,0,0-.551-2.031,1.856,1.856,0,0,0-2.973-.012A3.691,3.691,0,0,0,81.286,10.859ZM83.833,3H86L83.833,5.367l-1.523,0Zm6.781,3.547.055.977A3.039,3.039,0,0,1,93.13,6.391q2.641,0,2.688,3.023V15h-1.9V9.523a1.741,1.741,0,0,0-.348-1.191,1.462,1.462,0,0,0-1.137-.387,1.829,1.829,0,0,0-1.711,1.039V15h-1.9V6.547Z" transform="translate(410.553 223.974)" fill="#12263f"/>
        <rect id="Rectangle_404196" data-name="Rectangle 404196" width="121.025" height="47.347" rx="10" transform="translate(153.434)" fill="#066454"/>
        <rect id="Rectangle_404200" data-name="Rectangle 404200" width="106.935" height="47.347" rx="10" transform="translate(283.505 0.831)" fill="#a50751"/>
        <path id="Path_896018" data-name="Path 896018" d="M28.759,15.27A1.5,1.5,0,0,0,28.173,14a7.685,7.685,0,0,0-2.109-.937,14.953,14.953,0,0,1-2.412-.972A3.941,3.941,0,0,1,21.23,8.561,3.434,3.434,0,0,1,21.879,6.5a4.236,4.236,0,0,1,1.865-1.411,7.021,7.021,0,0,1,2.729-.508,6.39,6.39,0,0,1,2.715.552A4.323,4.323,0,0,1,31.039,6.7,4.076,4.076,0,0,1,31.7,8.98h-2.93a1.917,1.917,0,0,0-.615-1.519,2.529,2.529,0,0,0-1.729-.542,2.7,2.7,0,0,0-1.67.454,1.432,1.432,0,0,0-.6,1.2,1.372,1.372,0,0,0,.7,1.162,7.889,7.889,0,0,0,2.056.879,8.882,8.882,0,0,1,3.643,1.865A3.715,3.715,0,0,1,31.7,15.25a3.422,3.422,0,0,1-1.4,2.9,6.113,6.113,0,0,1-3.76,1.05,7.26,7.26,0,0,1-2.988-.6A4.729,4.729,0,0,1,21.5,16.949a4.214,4.214,0,0,1-.708-2.422H23.73q0,2.354,2.813,2.354a2.736,2.736,0,0,0,1.631-.425A1.382,1.382,0,0,0,28.759,15.27Zm9.6,3.926a5.187,5.187,0,0,1-3.784-1.426,5.068,5.068,0,0,1-1.46-3.8V13.7a6.383,6.383,0,0,1,.615-2.847,4.515,4.515,0,0,1,1.743-1.934,4.893,4.893,0,0,1,2.573-.679,4.385,4.385,0,0,1,3.413,1.367A5.555,5.555,0,0,1,42.7,13.482v1.152H35.976a2.622,2.622,0,0,0,.825,1.66,2.5,2.5,0,0,0,1.743.625,3.046,3.046,0,0,0,2.549-1.182l1.387,1.553a4.237,4.237,0,0,1-1.719,1.4A5.639,5.639,0,0,1,38.359,19.2Zm-.322-8.682a1.764,1.764,0,0,0-1.362.569,2.946,2.946,0,0,0-.669,1.628h3.926v-.226a2.1,2.1,0,0,0-.508-1.457A1.819,1.819,0,0,0,38.037,10.514ZM48.33,11.588l1.777-3.154h3.018l-3.008,5.176L53.251,19H50.224l-1.885-3.32L46.464,19H43.427l3.135-5.391-3-5.176h3.027Zm12.48,6.338a3.539,3.539,0,0,1-2.891,1.27,3.338,3.338,0,0,1-2.593-.977,4.169,4.169,0,0,1-.913-2.861V8.434h2.822v6.834q0,1.652,1.5,1.652a2.038,2.038,0,0,0,1.973-1V8.434h2.832V19H60.888ZM71.8,19a3.134,3.134,0,0,1-.283-.947A3.415,3.415,0,0,1,68.847,19.2a3.752,3.752,0,0,1-2.573-.9,2.89,2.89,0,0,1-1.021-2.266A2.986,2.986,0,0,1,66.5,13.453a6.144,6.144,0,0,1,3.6-.908h1.3v-.605a1.741,1.741,0,0,0-.376-1.172,1.479,1.479,0,0,0-1.187-.439,1.682,1.682,0,0,0-1.118.342,1.161,1.161,0,0,0-.405.938H65.488a2.835,2.835,0,0,1,.566-1.7,3.744,3.744,0,0,1,1.6-1.226,5.837,5.837,0,0,1,2.324-.444,4.611,4.611,0,0,1,3.1.981,3.433,3.433,0,0,1,1.147,2.759v4.58a5.052,5.052,0,0,0,.42,2.275V19Zm-2.334-1.963a2.431,2.431,0,0,0,1.152-.278,1.828,1.828,0,0,0,.781-.747V14.2H70.341q-2.119,0-2.256,1.465l-.01.166a1.13,1.13,0,0,0,.371.869A1.441,1.441,0,0,0,69.462,17.037ZM79.374,19H76.542V4h2.832Z" transform="translate(167.226 14.121)" fill="#fff"/>
        <path id="Path_896021" data-name="Path 896021" d="M23.691,16.07H18.554L17.578,19H14.462L19.755,4.781H22.47L27.792,19H24.677ZM19.345,13.7H22.9L21.113,8.375ZM34.658,16.08a.909.909,0,0,0-.513-.815,5.824,5.824,0,0,0-1.646-.532q-3.77-.791-3.77-3.2A2.9,2.9,0,0,1,29.9,9.181a4.708,4.708,0,0,1,3.052-.942,5.067,5.067,0,0,1,3.218.947,2.985,2.985,0,0,1,1.206,2.461H34.55a1.366,1.366,0,0,0-.391-1,1.653,1.653,0,0,0-1.221-.4,1.689,1.689,0,0,0-1.1.322,1.017,1.017,0,0,0-.391.82.87.87,0,0,0,.444.757,4.571,4.571,0,0,0,1.5.5,12.244,12.244,0,0,1,1.777.474A2.92,2.92,0,0,1,37.4,15.963a2.756,2.756,0,0,1-1.24,2.339,5.35,5.35,0,0,1-3.2.894,5.588,5.588,0,0,1-2.358-.474,3.957,3.957,0,0,1-1.616-1.3,3.018,3.018,0,0,1-.586-1.782h2.676a1.473,1.473,0,0,0,.557,1.152,2.208,2.208,0,0,0,1.387.4,2.044,2.044,0,0,0,1.226-.308A.957.957,0,0,0,34.658,16.08ZM44.081,19.2A5.187,5.187,0,0,1,40.3,17.77a5.068,5.068,0,0,1-1.46-3.8V13.7a6.383,6.383,0,0,1,.615-2.847A4.515,4.515,0,0,1,41.2,8.917a4.893,4.893,0,0,1,2.573-.679,4.385,4.385,0,0,1,3.413,1.367,5.555,5.555,0,0,1,1.245,3.877v1.152H41.7a2.622,2.622,0,0,0,.825,1.66,2.5,2.5,0,0,0,1.743.625,3.046,3.046,0,0,0,2.549-1.182L48.2,17.291a4.237,4.237,0,0,1-1.719,1.4A5.639,5.639,0,0,1,44.081,19.2Zm-.322-8.682a1.764,1.764,0,0,0-1.362.569,2.946,2.946,0,0,0-.669,1.628h3.926v-.226a2.1,2.1,0,0,0-.508-1.457A1.819,1.819,0,0,0,43.759,10.514Zm10.293,1.074L55.83,8.434h3.018l-3.008,5.176L58.974,19H55.947l-1.885-3.32L52.187,19H49.15l3.135-5.391-3-5.176h3.027Zm12.48,6.338a3.539,3.539,0,0,1-2.891,1.27,3.338,3.338,0,0,1-2.593-.977,4.169,4.169,0,0,1-.913-2.861V8.434h2.822v6.834q0,1.652,1.5,1.652a2.038,2.038,0,0,0,1.973-1V8.434h2.832V19H66.611ZM77.519,19a3.134,3.134,0,0,1-.283-.947A3.415,3.415,0,0,1,74.57,19.2,3.752,3.752,0,0,1,72,18.3a2.89,2.89,0,0,1-1.021-2.266,2.986,2.986,0,0,1,1.245-2.578,6.144,6.144,0,0,1,3.6-.908h1.3v-.605a1.741,1.741,0,0,0-.376-1.172,1.479,1.479,0,0,0-1.187-.439,1.682,1.682,0,0,0-1.118.342,1.161,1.161,0,0,0-.405.938H71.21a2.835,2.835,0,0,1,.566-1.7,3.744,3.744,0,0,1,1.6-1.226A5.837,5.837,0,0,1,75.7,8.238a4.611,4.611,0,0,1,3.1.981,3.433,3.433,0,0,1,1.147,2.759v4.58a5.052,5.052,0,0,0,.42,2.275V19Zm-2.334-1.963a2.431,2.431,0,0,0,1.152-.278,1.828,1.828,0,0,0,.781-.747V14.2H76.064q-2.119,0-2.256,1.465l-.01.166a1.13,1.13,0,0,0,.371.869A1.441,1.441,0,0,0,75.185,17.037ZM85.1,19H82.265V4H85.1Z" transform="translate(289.439 14.952)" fill="#fff"/>
      </g>
    </g>
  </g>
</svg>
